<svg width="15" height="19" viewBox="0 0 15 19" fill="none" xmlns="http://www.w3.org/2000/svg">
<path d="M11.5 7.60526L13.5921 8.59626C14.3547 8.95747 14.3547 10.0425 13.5921 10.4037L7.92809 13.0867C7.65713 13.215 7.34287 13.215 7.07191 13.0867L1.40789 10.4037C0.645341 10.0425 0.645339 8.95747 1.40789 8.59626L3.5 7.60526M11.5 11.8158L13.5921 12.8068C14.3547 13.168 14.3547 14.2531 13.5921 14.6143L7.92809 17.2972C7.65713 17.4256 7.34287 17.4256 7.07191 17.2972L1.40789 14.6143C0.645341 14.2531 0.645339 13.168 1.40789 12.8068L3.5 11.8158M1.40789 6.19321L7.07191 8.87617C7.34287 9.00452 7.65713 9.00452 7.92809 8.87617L13.5921 6.19321C14.3547 5.832 14.3547 4.74694 13.5921 4.38574L7.92809 1.70278C7.65713 1.57443 7.34287 1.57443 7.07191 1.70278L1.40789 4.38574C0.64534 4.74694 0.645341 5.832 1.40789 6.19321Z" stroke="black" stroke-width="1.5"/>
</svg>
