<svg width="25" height="25" viewBox="0 0 25 25" fill="none" xmlns="http://www.w3.org/2000/svg">
<g clip-path="url(#clip0_2153_2658)">
<path d="M21.448 17.4828C21.1153 18.2514 20.7215 18.9589 20.2652 19.6094C19.6433 20.4962 19.134 21.11 18.7416 21.4508C18.1332 22.0103 17.4814 22.2969 16.7834 22.3132C16.2823 22.3132 15.678 22.1706 14.9746 21.8813C14.2688 21.5934 13.6202 21.4508 13.0272 21.4508C12.4053 21.4508 11.7382 21.5934 11.0247 21.8813C10.3102 22.1706 9.73451 22.3213 9.29439 22.3362C8.62504 22.3648 7.95786 22.0701 7.29191 21.4508C6.86686 21.0801 6.33521 20.4446 5.69832 19.5442C5.01498 18.5828 4.45319 17.4679 4.01306 16.1968C3.54171 14.8239 3.30542 13.4944 3.30542 12.2073C3.30542 10.733 3.624 9.46134 4.26212 8.39573C4.76362 7.5398 5.4308 6.86461 6.26582 6.36894C7.10084 5.87328 8.00308 5.62069 8.97472 5.60453C9.50637 5.60453 10.2036 5.76899 11.0699 6.09219C11.9339 6.41647 12.4886 6.58092 12.7318 6.58092C12.9137 6.58092 13.5299 6.38863 14.5746 6.00527C15.5626 5.64975 16.3964 5.50255 17.0794 5.56053C18.9303 5.70991 20.3209 6.43956 21.2457 7.75409C19.5903 8.75709 18.7715 10.1619 18.7878 11.9641C18.8027 13.3679 19.3119 14.536 20.3128 15.4635C20.7663 15.894 21.2729 16.2267 21.8364 16.463C21.7142 16.8174 21.5852 17.1569 21.448 17.4828ZM17.203 0.77826C17.203 1.87851 16.801 2.90581 15.9998 3.85667C15.0329 4.98706 13.8635 5.64025 12.5952 5.53718C12.5791 5.40518 12.5697 5.26626 12.5697 5.12028C12.5697 4.06404 13.0295 2.93365 13.8461 2.00941C14.2537 1.54145 14.7722 1.15234 15.401 0.841949C16.0283 0.536185 16.6218 0.367091 17.1799 0.338135C17.1962 0.485221 17.203 0.632317 17.203 0.778246V0.77826Z" fill="black"/>
</g>
<defs>
<clipPath id="clip0_2153_2658">
<rect width="24" height="24" fill="white" transform="translate(0.605469 0.337891)"/>
</clipPath>
</defs>
</svg>
