<svg width="25" height="25" viewBox="0 0 25 25" fill="none" xmlns="http://www.w3.org/2000/svg">
<g clip-path="url(#clip0_2153_2933)">
<path d="M24.1055 12.3379C24.1055 5.71047 18.7329 0.337891 12.1055 0.337891C5.47805 0.337891 0.105469 5.71047 0.105469 12.3379C0.105469 18.3273 4.49367 23.2919 10.2305 24.1921V15.8066H7.18359V12.3379H10.2305V9.69414C10.2305 6.68664 12.022 5.02539 14.763 5.02539C16.0755 5.02539 17.4492 5.25977 17.4492 5.25977V8.21289H15.9361C14.4455 8.21289 13.9805 9.13797 13.9805 10.0879V12.3379H17.3086L16.7766 15.8066H13.9805V24.1921C19.7173 23.2919 24.1055 18.3273 24.1055 12.3379Z" fill="#1877F2"/>
<path d="M16.7766 15.8066L17.3086 12.3379H13.9805V10.0879C13.9805 9.13891 14.4455 8.21289 15.9361 8.21289H17.4492V5.25977C17.4492 5.25977 16.076 5.02539 14.763 5.02539C12.022 5.02539 10.2305 6.68664 10.2305 9.69414V12.3379H7.18359V15.8066H10.2305V24.1921C11.4729 24.3865 12.738 24.3865 13.9805 24.1921V15.8066H16.7766Z" fill="white"/>
</g>
<defs>
<clipPath id="clip0_2153_2933">
<rect width="24" height="24" fill="white" transform="translate(0.105469 0.337891)"/>
</clipPath>
</defs>
</svg>
