<svg width="25" height="25" viewBox="0 0 25 25" fill="none" xmlns="http://www.w3.org/2000/svg">
<g clip-path="url(#clip0_2153_2054)">
<path d="M23.8715 12.6144C23.8715 11.7987 23.8053 10.9785 23.6642 10.176H12.3455V14.797H18.8272C18.5582 16.2874 17.694 17.6058 16.4285 18.4435V21.4419H20.2955C22.5663 19.3518 23.8715 16.2653 23.8715 12.6144Z" fill="#4285F4"/>
<path d="M12.3454 24.3387C15.5819 24.3387 18.3113 23.2761 20.2999 21.4418L16.4329 18.4434C15.357 19.1754 13.9681 19.5899 12.3499 19.5899C9.21923 19.5899 6.56481 17.4778 5.6124 14.6382H1.62195V17.7291C3.65906 21.7813 7.80824 24.3387 12.3454 24.3387Z" fill="#34A853"/>
<path d="M5.608 14.6381C5.10533 13.1477 5.10533 11.5339 5.608 10.0436V6.95264H1.62196C-0.0800416 10.3434 -0.0800416 14.3383 1.62196 17.729L5.608 14.6381Z" fill="#FBBC04"/>
<path d="M12.3454 5.08755C14.0563 5.06109 15.7098 5.70486 16.9488 6.88656L20.3748 3.46051C18.2055 1.4234 15.3262 0.303425 12.3454 0.338699C7.80824 0.338699 3.65906 2.89611 1.62195 6.9527L5.60799 10.0436C6.55599 7.19962 9.21482 5.08755 12.3454 5.08755Z" fill="#EA4335"/>
</g>
<defs>
<clipPath id="clip0_2153_2054">
<rect width="24" height="24" fill="white" transform="translate(0.105469 0.337891)"/>
</clipPath>
</defs>
</svg>
