<svg width="20" height="20" viewBox="0 0 20 20" fill="none" xmlns="http://www.w3.org/2000/svg">
<path d="M9.86043 16.0604L19.7113 10.4102L18.5612 8.43506L9.85405 13.43L1.14693 8.43506L0 10.4102L9.85087 16.0604L9.85405 16.0668V16.0636L9.85724 16.0668L9.86043 16.0604Z" fill="#9200AD"/>
<path d="M14.2026 8.89691L16.3754 5.87082L14.4288 4.49072L12.291 7.46933C13.025 7.80162 13.6773 8.28877 14.2026 8.89691Z" fill="#9200AD"/>
<path d="M10.0483 6.93152C10.4321 6.93176 10.815 6.96779 11.192 7.03915V3.32617H8.70703V7.0803C9.14732 6.98221 9.59709 6.93232 10.0483 6.93152Z" fill="#9200AD"/>
<path d="M7.64951 7.38085L5.41937 4.45288L3.50781 5.88363L5.73796 8.84324C6.25979 8.22271 6.91232 7.7235 7.64951 7.38085Z" fill="#9200AD"/>
</svg>
