<svg width="129" height="42" viewBox="0 0 129 42" fill="none" xmlns="http://www.w3.org/2000/svg">
<path d="M41.1868 20.6016C41.1868 31.9754 31.9627 41.2032 20.5934 41.2032C9.22412 41.2032 0 31.9754 0 20.6016C0 9.2278 9.22412 0 20.5934 0C31.9627 0 41.1868 9.2278 41.1868 20.6016Z" fill="white"/>
<path d="M39.9689 20.6016C39.9689 31.3316 31.2454 40.0587 20.5196 40.0587C9.7939 40.0587 1.07031 31.3316 1.07031 20.6016C1.07031 9.8716 9.86541 1.14453 20.5911 1.14453C31.3169 1.14453 39.9689 9.8716 39.9689 20.6016Z" fill="white"/>
<path d="M20.594 40.273C9.72521 40.273 0.930117 31.4744 0.930117 20.6014C0.858612 9.72829 9.72521 0.929688 20.594 0.929688C31.4627 0.929688 40.2578 9.72829 40.2578 20.6014C40.2578 31.4744 31.4627 40.273 20.594 40.273ZM20.594 1.43042C10.0112 1.43042 1.43065 10.0144 1.43065 20.6014C1.43065 31.1883 10.0112 39.7723 20.594 39.7723C31.1767 39.7723 39.7572 31.1883 39.7572 20.6014C39.7572 10.0144 31.1767 1.43042 20.594 1.43042Z" fill="#002856"/>
<path d="M40.2574 20.6014C40.2574 31.4744 31.4623 40.273 20.5935 40.273C9.72478 40.273 0.929688 31.4744 0.929688 20.6014C0.929688 9.72829 9.72478 0.929688 20.5935 0.929688C31.4623 0.929688 40.2574 9.72829 40.2574 20.6014Z" fill="#002856"/>
<path d="M21.3826 21.1018C21.168 21.0303 19.5234 20.3865 19.5234 20.3149C19.5234 20.2434 19.5234 20.0288 19.738 20.1003L21.5256 20.8157C21.6686 20.8872 21.7401 21.1733 21.3826 21.1018Z" fill="white"/>
<path d="M37.752 20.6016C37.752 30.1155 30.101 37.7696 20.5909 37.7696C11.0807 37.7696 3.42969 30.1155 3.42969 20.6016C3.42969 11.0877 11.0807 3.43359 20.5909 3.43359C30.101 3.43359 37.752 11.0877 37.752 20.6016Z" fill="white"/>
<path d="M20.5944 37.9839C11.0128 37.9839 3.21875 30.1868 3.21875 20.6013C3.21875 11.0159 10.9413 3.21875 20.5944 3.21875C30.2476 3.21875 37.9701 11.0159 37.9701 20.6013C37.9701 30.1868 30.1761 37.9839 20.5944 37.9839ZM20.5944 3.71948C11.2273 3.71948 3.64778 11.2305 3.64778 20.6013C3.64778 29.9722 11.2273 37.4832 20.5229 37.4832C29.8901 37.4832 37.3981 29.9007 37.3981 20.6013C37.4696 11.302 29.8901 3.71948 20.5944 3.71948Z" fill="#002856"/>
<path d="M36.0409 20.6009C36.0409 29.1849 29.1049 36.1236 20.5244 36.1236C11.9438 36.1236 5.00781 29.1849 5.00781 20.6009C5.00781 12.0169 11.9438 5.07812 20.5244 5.07812C29.1049 5.07812 36.0409 12.0169 36.0409 20.6009Z" fill="white"/>
<mask id="mask0_5660_12362" style="mask-type:luminance" maskUnits="userSpaceOnUse" x="5" y="5" width="32" height="32">
<path d="M36.0409 20.6009C36.0409 29.1849 29.1049 36.1236 20.5244 36.1236C11.9438 36.1236 5.00781 29.1849 5.00781 20.6009C5.00781 12.0169 11.9438 5.07812 20.5244 5.07812C29.1049 5.07812 36.0409 12.0169 36.0409 20.6009Z" fill="white"/>
</mask>
<g mask="url(#mask0_5660_12362)">
<path d="M16.81 5.0775C17.096 5.14904 17.382 5.22057 17.668 5.22057C17.8111 5.22057 17.8111 5.0775 17.7396 5.0775C17.668 5.0775 16.7385 4.8629 16.5955 4.8629C16.4525 4.8629 16.381 4.79137 16.238 4.71984C16.1664 4.71984 16.0234 4.57677 16.0234 4.71984V4.79137C16.1664 4.93444 16.7385 5.00597 16.81 5.0775Z" fill="#002856"/>
<path d="M28.5383 31.4008C28.6813 31.3293 28.7528 31.1862 28.6098 31.2578C28.2523 31.4008 27.9663 31.4724 27.6088 31.4724C27.4658 31.4008 27.2512 31.6154 27.4658 31.6154C27.7518 31.6154 28.1808 31.5439 28.5383 31.4008Z" fill="#002856"/>
<path d="M30.3226 31.044C30.3941 30.8294 30.2511 31.1155 30.1081 31.2586C28.3204 32.4031 26.1753 32.9038 24.1017 32.7608C23.6011 32.7608 23.1721 32.7608 22.6716 32.7608C22.6001 32.7608 22.5286 32.9038 22.457 32.9038C22.3855 32.9038 22.171 32.9754 22.457 33.0469C22.7431 33.1184 23.8871 32.9754 23.9587 33.0469C25.3172 33.1184 26.6758 32.9038 27.9629 32.5462C28.2489 32.4031 30.0366 31.6162 30.3226 31.044Z" fill="#002856"/>
<path d="M19.0991 14.5915C19.0991 14.4484 19.2421 14.52 19.3851 14.4484C19.5281 14.3769 20.1001 14.7346 20.3146 14.663C20.6722 14.5915 20.9582 14.663 21.2442 14.8061C21.5302 15.0207 21.8877 15.1638 22.2453 15.2353C22.3883 15.2353 22.4598 15.3784 22.3883 15.4499C22.3168 15.5214 22.8173 16.0937 22.8888 16.2368C22.9603 16.3798 23.1748 16.666 23.3893 17.0952C23.6039 17.5244 24.3904 17.739 24.5334 17.739C24.6764 17.739 24.7479 17.9536 24.8909 17.882C25.034 17.8105 24.8909 17.739 24.8909 17.6674C24.8909 17.5959 24.9625 17.6674 25.034 17.6674C25.1055 17.6674 25.177 17.8105 25.2485 17.739C25.32 17.6674 25.32 17.6674 25.3915 17.739C25.463 17.8105 25.5345 17.882 25.606 17.882C25.6775 17.882 25.6775 17.882 25.606 17.739C25.5345 17.5959 25.606 17.5959 25.749 17.6674C25.892 17.739 26.035 17.9536 26.1065 17.9536C26.178 17.9536 26.1065 17.8105 26.035 17.739C25.9635 17.6674 26.1065 17.6674 26.178 17.739C26.2495 17.8105 26.4641 18.0966 26.6786 18.0966C26.8931 18.0966 26.6786 17.9536 26.6786 17.8105C26.6786 17.6674 26.7501 17.8105 26.8216 17.882C26.8931 17.9536 27.3221 18.5974 27.3936 18.5258C27.4651 18.4543 27.9657 19.3842 28.1087 19.8134C28.2517 20.2426 28.3232 20.1711 28.3232 20.0996C27.7511 17.882 27.0361 17.739 26.8216 17.5959C26.6071 17.4528 23.4608 16.7375 23.4608 16.5944C23.2463 16.3083 23.0318 15.9506 22.8173 15.736C22.8173 15.736 22.3883 15.0922 22.2453 15.0207C21.8162 14.663 21.3157 14.3769 20.8152 14.0908C20.4576 13.9477 20.1001 13.8762 19.7426 13.8046C19.2421 13.6616 19.2421 13.6616 18.956 13.59C18.67 13.5185 18.384 13.9477 18.3125 14.0192C18.527 14.2338 18.8845 14.5915 19.1706 14.9492C19.3136 15.0207 19.4566 15.0207 19.5281 15.0207C19.5996 15.0922 19.0991 14.7346 19.0991 14.5915Z" fill="#002856"/>
<path d="M23.0304 29.8997L22.6729 29.8281C22.5299 29.8281 22.4584 29.9712 22.6014 29.9712C22.7444 30.0427 22.8874 30.0427 23.0304 30.0427C23.1019 30.0427 23.1734 29.8997 23.0304 29.8997Z" fill="#002856"/>
<path d="M22.1724 28.8975C22.3154 28.8259 22.2439 28.7544 22.2439 28.6829C22.1009 28.6113 21.8864 28.5398 21.7434 28.5398C21.6004 28.4683 21.4574 28.6829 21.6719 28.7544C21.8864 28.8259 21.9579 28.8975 22.1724 28.8975Z" fill="#002856"/>
<path d="M22.4607 29.3979C22.3176 29.3979 22.1031 29.3264 21.9601 29.2548C21.8171 29.1833 21.7456 29.3979 21.8171 29.3979C21.9601 29.4694 22.1746 29.4694 22.3176 29.541C22.3892 29.541 22.5322 29.3979 22.4607 29.3979Z" fill="#002856"/>
<path d="M22.8867 30.5435C23.1727 30.615 23.5302 30.6865 23.8162 30.615C23.9592 30.615 23.9592 30.4719 23.9592 30.4719C23.9592 30.4719 23.8877 30.4004 23.7447 30.4719C23.5302 30.4719 23.2442 30.4719 23.0297 30.4004C22.9582 30.4004 22.8152 30.4719 22.8867 30.5435Z" fill="#002856"/>
<path d="M22.957 31.1157C23.243 31.1873 23.6005 31.2588 23.8866 31.1873C24.0296 31.1873 24.0296 31.0442 24.0296 31.0442C24.0296 31.0442 23.8866 30.9727 23.815 31.0442C23.6005 31.0442 23.3145 31.0442 23.1 30.9727C23.0285 30.9727 22.8855 31.1157 22.957 31.1157Z" fill="#002856"/>
<path d="M23.3164 31.6157C23.6024 31.6873 23.9599 31.7588 24.2459 31.6873C24.3889 31.6873 24.3889 31.5442 24.3889 31.5442C24.3889 31.5442 24.3174 31.4727 24.1744 31.5442C23.9599 31.5442 23.6739 31.5442 23.4594 31.4727C23.3879 31.4727 23.2449 31.5442 23.3164 31.6157Z" fill="#002856"/>
<path d="M29.8221 14.3057C28.0344 12.6605 25.6748 11.7305 23.2436 11.8021C23.3151 11.4444 23.3866 11.0152 23.4581 10.4429C23.7441 10.4429 24.2447 10.4429 24.6022 10.5145C24.7452 10.5145 24.9597 10.4429 24.8882 10.2999C24.8167 10.1568 24.6737 9.79912 24.3877 9.72758C24.2447 9.72758 23.8157 9.44145 23.5296 9.36992C23.6011 8.36845 23.6726 7.22392 23.6726 6.22245C23.7441 4.07645 22.5286 2.35965 20.5979 2.28812C20.2404 2.28812 20.0974 2.07352 20.1689 1.64432C20.3119 0.928985 20.5264 0.213652 20.8124 -0.501681C20.9555 -0.716281 20.7409 -1.07395 20.4549 -1.00241C20.2404 -0.930881 20.0259 -0.930881 19.8114 -1.00241C19.6684 -1.00241 19.5254 -1.00241 19.3824 -0.859348C19.1678 -0.787815 19.0248 -0.573215 18.9533 -0.358615C18.8818 -0.144015 18.4528 0.857452 18.3813 1.07205C18.3098 1.28665 18.2383 1.93045 18.0953 1.71585C18.0238 1.64432 17.9523 1.57278 17.8807 1.50125C17.8092 0.785918 17.7377 0.0705851 17.6662 -0.215548C17.6662 -0.430148 17.4517 -0.644748 17.2372 -0.644748C17.0942 -0.644748 16.9512 -0.573215 16.8797 -0.430148C16.7367 -0.287081 16.6652 -0.144015 16.5222 -0.000948191C16.3791 0.142118 16.1646 0.213652 15.9501 0.142118C15.7356 0.0705851 15.5211 0.142118 15.3781 0.356718C15.2351 0.571318 14.9491 0.571318 14.7345 0.428252C14.5915 0.428252 14.4485 0.285185 14.3055 0.285185C14.1625 0.285185 14.0195 0.356718 14.091 0.499785C14.1625 1.14358 14.234 1.85892 14.3055 2.57425L14.377 3.79032C14.377 4.29105 14.377 4.72025 14.3055 5.22098C14.3055 5.57865 14.3055 6.00785 14.3055 6.43705C14.3055 6.65165 14.3055 6.86625 14.234 7.08085C14.091 7.65312 14.0195 8.15385 14.0195 8.72612C14.0195 9.36992 14.0195 10.4429 14.0195 11.3013C14.0195 12.2313 13.8765 13.805 13.948 15.1641C13.7335 15.3072 13.519 15.3787 13.3759 15.5218L13.4474 15.4503C13.3044 14.0911 13.519 12.4459 13.2329 10.8721C13.0899 10.1568 12.3749 10.1568 12.1604 10.8006C12.0889 11.0152 12.0174 11.1582 11.9458 11.3729C11.8743 11.659 11.6598 11.8021 11.3738 11.8021C11.0163 11.8736 10.5873 11.9451 10.2297 12.0882C10.0867 12.1597 10.0152 12.3743 10.0152 12.5174C10.0867 13.0897 10.1582 14.3773 10.2297 16.094C10.0152 16.1656 9.87221 16.2371 9.7292 16.4517C9.37167 16.8809 9.30017 17.5247 9.51468 18.097C9.8007 18.8123 9.8007 19.5992 9.51468 20.3145C9.01415 21.8167 9.30017 23.462 10.3012 24.6781C10.3012 24.6781 10.3012 24.7496 10.3727 24.7496C10.4442 24.8211 10.5158 24.8927 10.6588 24.9642C10.8018 28.827 10.9448 32.4036 10.9448 33.9058C10.9448 34.1204 11.0878 34.4066 11.3023 34.4781C11.5883 34.6212 12.0174 34.5497 12.2319 34.3351C12.4464 34.1205 12.6609 34.2635 12.6609 34.5497C12.7324 34.7643 12.8754 34.9789 13.0184 35.1219C13.1614 35.265 13.3759 35.4081 13.519 35.5511C13.805 35.7657 14.091 35.6942 14.1625 35.4796C14.1625 33.9058 14.091 31.4022 13.948 29.7569H13.8765C15.0921 31.2591 16.6652 32.3321 18.4528 32.9759C18.8103 34.4066 19.3108 37.1964 19.3108 37.2679C19.3824 37.5541 19.6684 37.8402 20.2404 37.9117C20.5979 37.9117 20.884 37.8402 21.2415 37.6971C21.5275 37.6256 21.8135 37.6971 22.028 37.9117C22.4571 38.1263 23.0291 38.1978 23.5296 37.9832C23.7441 37.9117 23.8872 37.6971 23.8157 37.4825L22.8861 33.6912H23.0291C23.4581 33.7628 23.8872 33.7628 24.3162 33.6197C25.8178 33.6912 27.2479 33.4051 28.6065 32.8329C29.6075 32.4036 30.5371 31.6883 31.1091 30.7584C31.4667 30.1146 31.6097 29.3277 31.4667 28.6124C31.3952 28.1117 31.1807 27.6824 30.9661 27.3248V27.2533C30.0366 26.1087 29.393 24.7496 29.0355 23.3189C28.964 22.6751 28.964 22.1028 29.0355 21.459C29.107 20.9583 29.107 20.3861 29.0355 19.8853C28.8925 19.2415 28.678 18.5977 28.3205 18.0254C28.3205 18.0254 29.1785 18.3831 29.8936 18.7408C30.1796 18.8839 30.3226 18.6693 30.1796 18.4547C30.1081 18.3116 29.9651 18.1685 29.8936 17.9539C29.7506 17.8109 29.679 17.5963 29.679 17.3817C29.7506 16.8809 29.6075 16.4517 29.393 16.0225C29.0355 15.1641 29.25 14.6634 29.679 14.5919C29.8936 14.5919 29.8936 14.4488 29.8221 14.3057ZM22.9576 11.7305C22.5286 11.7305 21.17 11.8736 20.7409 12.0167C20.7409 11.8736 20.8124 11.0152 21.027 10.9437C21.2415 10.8721 22.2425 10.8006 22.3856 10.8006C22.6716 10.8006 22.8861 10.7291 23.1006 10.7291C23.0291 11.0867 23.0291 11.3729 22.9576 11.7305ZM15.2351 9.51298C15.3781 9.51298 15.5211 9.51298 15.6641 9.51298C15.9501 9.58452 15.7356 9.44145 15.6641 9.36992C15.5211 9.29838 15.3781 9.29838 15.1636 9.29838C14.5915 9.22685 14.7345 8.86918 14.8775 8.86918C15.0206 8.86918 15.5926 8.94072 15.8786 8.94072C16.1646 8.94072 16.0216 8.86918 15.8786 8.79765C15.7356 8.72612 15.3066 8.72612 15.0921 8.65458C14.4485 8.51152 14.5915 8.15385 14.7345 8.22538C14.8775 8.29692 15.4496 8.29692 15.5926 8.36845C15.7356 8.43998 15.7356 8.22538 15.5926 8.15385L14.7345 7.93925C14.663 7.93925 14.52 7.58158 14.9491 7.58158C15.1636 7.58158 15.8786 7.72465 16.0931 7.72465C16.3076 7.72465 16.2361 7.65312 16.0931 7.58158C15.9501 7.51005 15.1636 7.36698 14.9491 7.29545C14.7345 7.22392 14.52 7.00932 14.8775 7.00932C15.2351 7.00932 15.5926 7.08085 15.8786 7.15238C16.1646 7.22392 16.0216 7.00932 15.8786 7.00932C15.7356 7.00932 15.0921 6.79472 14.8775 6.72318C14.663 6.65165 14.5915 6.43705 14.7345 6.43705C14.8775 6.43705 15.7356 6.65165 15.9501 6.72318C16.1646 6.79472 16.1646 6.58012 15.9501 6.50858L14.663 6.15092C14.377 6.07938 14.4485 5.93632 14.663 6.00785C14.8775 6.07938 15.7356 6.22245 16.0216 6.22245C16.3076 6.22245 16.0931 6.07938 15.9501 6.00785C15.5211 5.93632 15.1636 5.86478 14.806 5.72172C14.663 5.65018 14.663 5.50712 14.806 5.57865C14.9491 5.65018 15.4496 5.57865 15.3066 5.50712C15.1636 5.43559 15.1636 5.43558 15.3066 5.43558C15.4496 5.43558 15.5926 5.57865 15.8071 5.57865C16.0216 5.57865 15.9501 5.57865 15.8071 5.43558C15.5926 5.36405 15.3781 5.29252 15.1636 5.22098C15.0206 5.14945 14.8775 4.93485 15.0921 5.00638C15.3066 5.07792 15.6641 5.14945 15.9501 5.22098C16.2361 5.29252 16.0931 5.14945 15.9501 5.14945C15.5926 5.07792 15.3066 4.93485 15.0206 4.79178C14.663 4.64872 14.8775 4.57719 15.0206 4.57719C15.2351 4.64872 15.4496 4.72025 15.5926 4.79178C15.6641 4.79178 15.8071 4.79178 15.5926 4.72025C15.3781 4.64872 15.0921 4.50565 14.9491 4.43412C14.806 4.36259 14.7345 4.21952 14.9491 4.29105C15.1636 4.36259 15.5926 4.50565 15.8786 4.50565C16.1646 4.50565 16.2361 4.43412 15.9501 4.36259C15.5926 4.29105 15.3066 4.14798 15.0206 4.07645C14.9491 4.07645 14.8775 3.93338 15.0206 3.93338C15.1636 3.93338 15.5211 4.07645 15.6641 4.07645C15.8071 4.07645 15.8786 4.00492 15.5926 4.00492C15.3066 4.00492 15.2351 3.86185 14.9491 3.79032C14.663 3.71878 14.8775 3.57572 15.0206 3.57572C15.1636 3.57572 15.5211 3.71878 15.7356 3.71878C15.9501 3.71878 15.8071 3.64725 15.5211 3.64725C15.2351 3.57572 14.9491 3.43265 14.7345 3.28959C14.5915 3.21805 14.5915 3.14652 14.7345 3.14652C14.9491 3.21805 15.2351 3.28959 15.4496 3.36112C15.6641 3.43265 15.7356 3.28959 15.5926 3.21805C15.4496 3.14652 14.8775 2.93192 14.7345 2.86039C14.5915 2.78885 14.52 2.71732 14.663 2.71732C14.8775 2.78885 15.0921 2.78885 15.2351 2.86039C15.3781 2.93192 15.5926 2.78885 15.3781 2.71732C15.1636 2.64578 14.7345 2.50272 14.52 2.43119C14.3055 2.35965 14.4485 2.28812 14.52 2.28812C14.5915 2.28812 15.1636 2.43119 15.3066 2.43119C15.5211 2.43119 15.4496 2.28812 15.3066 2.28812C15.0206 2.21659 14.7345 2.14505 14.4485 1.93045C14.3055 1.78738 14.377 1.78739 14.52 1.85892C14.663 1.85892 14.8775 1.93045 14.9491 1.93045C15.0206 1.93045 15.2351 1.85892 14.9491 1.85892C14.9491 1.85892 14.7345 1.85892 14.5915 1.71585C14.4485 1.64432 14.4485 1.57278 14.52 1.57278C14.5915 1.57278 14.7345 1.57279 14.806 1.64432C14.8775 1.64432 15.3066 1.64432 15.0206 1.57278C14.7345 1.50125 14.806 1.42972 14.663 1.35819C14.52 1.28665 14.3055 1.21512 14.4485 1.21512C14.5915 1.21512 14.663 1.21512 14.8775 1.28665C15.0921 1.35819 15.3066 1.42972 15.2351 1.28665C15.1636 1.14358 15.0921 1.21512 14.52 1.14358C13.948 1.07205 14.1625 1.00052 14.234 0.857452C14.3055 0.714385 14.377 0.785918 14.52 0.785918C14.806 0.928985 15.1636 0.857452 15.3781 0.642852C15.5211 0.428252 15.6641 0.356718 15.8071 0.428252C16.0931 0.499785 16.3076 0.428252 16.5222 0.213652C16.5937 0.0705851 16.7367 -0.000948191 16.8082 -0.144015L16.8797 -0.287082C16.9512 -0.358615 17.0227 -0.430148 17.1657 -0.430148C17.2372 -0.430148 17.3087 -0.287081 17.3802 -0.144015C17.4517 -0.000948191 17.4517 0.356719 17.4517 0.714385C17.4517 1.07205 17.5232 1.57279 17.5947 2.07352C17.6662 2.57425 17.8808 2.50272 17.9523 2.50272C18.1668 2.50272 18.3098 2.35965 18.3098 2.21659C18.3813 2.21659 18.4528 2.14505 18.3813 2.07352C18.3813 2.00199 18.4528 1.85892 18.4528 1.85892C18.5958 1.78739 18.5958 1.64432 18.5958 1.57278C18.5958 1.50125 18.6673 1.28665 18.7388 1.14358C18.8103 1.00052 18.7388 0.928985 18.7388 0.785918C18.7388 0.642852 18.8103 0.571318 18.8818 0.428252C18.8818 0.428252 18.9533 0.428252 19.0248 0.499785C19.0963 0.571318 19.3108 0.356718 19.3108 0.285185C19.3824 0.0705851 19.4539 -0.0724815 19.5254 -0.287082C19.5969 -0.430148 19.6684 -0.573215 19.6684 -0.716281C19.8829 -0.644748 20.1689 -0.644748 20.3834 -0.716281C20.4549 -0.716281 20.5264 -0.716281 20.5264 -0.644748C20.5264 -0.573215 20.5979 -0.573215 20.5979 -0.501681C20.5979 -0.430148 20.5979 -0.358615 20.5979 -0.287082L20.5264 -0.0724816C20.3119 0.499785 20.1689 1.14359 20.0259 1.78738C20.0259 1.93045 20.0259 2.00199 20.0259 2.14505C20.0259 2.21659 20.0974 2.35965 20.1689 2.43119C20.3119 2.57425 20.4549 2.64579 20.5979 2.64579C22.028 2.71732 23.1006 3.79032 23.3866 5.36405C23.4581 5.72172 23.4581 6.00785 23.4581 6.36552C23.4581 7.29545 23.3866 8.36845 23.3151 9.44145C23.1721 9.44145 23.0291 9.44145 22.9576 9.44145C22.7431 9.44145 22.5286 9.44145 22.3141 9.36992C21.885 9.22685 21.313 9.22685 20.884 9.36992C20.884 9.01225 20.884 8.58305 20.884 8.22538H20.9555C20.9555 8.22538 21.027 8.29692 21.027 8.43998C21.027 8.58305 21.027 9.08378 21.027 9.15532C21.027 9.22685 21.17 9.15532 21.17 9.08379C21.17 9.01225 21.17 8.86918 21.17 8.65458C21.17 8.43998 21.17 7.86772 21.0985 7.65312C21.0985 7.51005 21.0985 7.29545 21.0985 7.15238C21.027 7.00932 20.9555 7.08085 20.9555 7.22392C20.9555 7.36698 20.9555 7.51005 20.9555 7.65312C20.9555 7.79618 20.884 7.72465 20.8124 7.72465C20.8124 7.58158 20.8124 7.51005 20.8124 7.36698C20.8124 7.22392 20.7409 7.00932 20.7409 6.86625C20.6694 6.36552 20.5264 5.86478 20.2404 5.43558C20.1689 5.29252 20.0259 5.22098 19.8829 5.22098C19.8829 5.07792 19.7399 5.07792 19.6684 5.07792C19.5969 5.00638 19.5254 4.93485 19.5254 4.86332C19.5254 4.79178 19.6684 4.72025 19.4539 4.64872C19.2393 4.57719 19.3108 4.64872 19.2393 4.72025C19.1678 4.79178 18.9533 4.79178 19.0963 4.86332C19.2393 4.93485 19.3824 5.00638 19.3824 5.00638C19.3824 5.00638 19.3108 5.14945 19.2393 5.07792C19.1678 5.00638 18.9533 5.00638 18.8103 5.00638C18.6673 5.00638 18.5958 5.07792 18.6673 5.14945C18.7388 5.14945 19.0248 5.14945 19.0963 5.22098C19.1678 5.29252 19.3108 5.22098 19.1678 5.72172C19.0963 5.79325 18.3098 7.22392 18.3098 7.22392C18.3098 7.22392 17.1657 8.43998 17.1657 8.51152L16.8082 8.86918C16.3076 9.36992 15.8071 9.94218 15.3066 10.5145L15.0206 10.3714C14.52 10.0137 14.7345 9.58452 15.2351 9.51298ZM15.3781 11.1583C15.8071 10.2999 16.4507 9.58452 17.1657 8.94072C18.2383 8.01078 19.0963 6.86625 19.6684 5.50712C19.6684 5.43559 19.7399 5.43558 19.7399 5.43558C19.8114 5.50712 19.8829 5.65018 19.9544 5.79325C19.9544 5.79325 20.0974 6.22245 20.0259 6.22245C19.9544 6.22245 19.8829 6.15092 19.7399 6.15092C19.5969 6.15092 19.5969 6.22245 19.7399 6.29398C19.8829 6.36552 20.0259 6.50858 20.0974 6.58012C20.1689 6.65165 20.1689 6.86625 20.0974 6.79472C19.8829 6.72318 19.7399 6.58012 19.5969 6.43705C19.4539 6.29398 19.3824 6.50858 19.4539 6.58012C19.5254 6.65165 19.8829 7.00932 20.0259 7.08085C20.1689 7.15238 20.0259 7.22392 20.0974 7.43852C19.5969 8.01078 19.2393 8.65458 19.0248 9.36992C19.0248 9.44145 19.0248 9.44145 19.0248 9.51298C19.0248 9.58452 19.0963 9.65605 19.1678 9.72758C19.2393 9.79912 19.4539 9.79912 19.5254 9.72758C19.7399 9.58452 20.0974 9.51298 20.3834 9.58452C20.5264 9.65605 20.7409 9.65605 20.884 9.51298C21.2415 9.36992 21.6705 9.36992 22.028 9.51298C22.2425 9.58452 22.5286 9.58452 22.7431 9.58452C22.8861 9.58452 23.0291 9.58452 23.1006 9.58452L23.6011 9.72758C23.7441 9.79912 23.8157 9.87065 23.9587 9.94218C23.9587 10.0137 23.8872 10.0137 23.8157 10.0137C23.7441 10.0137 22.7431 10.1568 22.7431 10.1568H22.5286C22.3856 10.0137 21.9565 9.79912 21.9565 9.65605C21.9565 9.51298 21.742 9.65605 21.8135 9.72758C21.885 9.79912 22.171 10.0137 22.2425 10.1568H21.9565C21.8135 10.0137 21.6705 9.87065 21.5275 9.72758C21.456 9.65605 21.313 9.72758 21.456 9.79912C21.5275 9.87065 21.6705 10.0137 21.742 10.1568H21.6705C21.599 10.1568 21.599 10.1568 21.5275 10.0853C21.3845 10.0137 21.2415 9.87065 21.0985 9.79912C21.027 9.72758 20.884 9.79912 20.884 9.87065C20.884 9.94218 21.2415 10.1568 21.313 10.2283V10.2999H21.2415C21.17 10.2999 21.0985 10.2999 21.0985 10.2283C20.9555 10.1568 20.8124 9.94218 20.7409 9.87065C20.6694 9.79912 20.5979 9.94218 20.6694 10.0137C20.7409 10.0853 20.884 10.1568 20.9555 10.2999V10.3714L20.8124 10.4429L20.7409 10.586C20.6694 10.4429 20.5264 10.3714 20.3834 10.2999C20.2404 10.2283 20.1689 10.2283 20.2404 10.3714C20.3119 10.5145 20.5979 10.586 20.5979 10.6575V10.7291H20.5264C20.4549 10.6575 20.4549 10.6575 20.3119 10.586C20.1689 10.5145 20.2404 10.8006 20.3119 10.8721L20.1689 11.0152C20.0259 10.8721 19.8829 10.8006 19.7399 10.7291C19.7399 10.7291 19.5254 10.6575 19.6684 10.8006C19.8114 10.9437 19.9544 11.0867 19.9544 11.1583C19.8829 11.2298 19.6684 11.0867 19.5254 11.0152C19.3824 10.9437 19.3108 11.0152 19.3824 11.0867C19.4539 11.1583 19.8114 11.2298 19.8114 11.3729C19.8114 11.5159 19.8114 11.5875 19.5969 11.5159C19.4539 11.4444 19.2393 11.3729 19.0963 11.3013C18.9533 11.2298 18.9533 11.3729 19.0248 11.4444C19.0963 11.5159 19.4539 11.7305 19.3824 11.8736C19.3108 12.0167 18.8818 11.8021 18.7388 11.7305C18.5958 11.659 18.5243 11.7305 18.5958 11.8021C18.6673 11.8736 19.1678 12.0882 19.0963 12.2313C19.0248 12.3743 18.5958 12.0882 18.4528 11.9451C18.3098 11.8021 18.3098 11.9451 18.3813 12.0167C18.4528 12.0882 18.9533 12.3028 18.8818 12.4459C18.8103 12.5889 18.2383 12.2313 18.0953 12.1597C17.9523 12.0882 17.8808 12.2313 18.0238 12.3028C18.1668 12.3743 18.8103 12.6604 18.6673 12.8751C18.5243 13.0897 18.0238 12.6605 17.8092 12.5174C17.5947 12.3743 17.5232 12.5174 17.6662 12.5889C17.8092 12.6605 18.1668 12.8751 18.2383 12.9466C18.3098 13.0181 18.3813 13.1612 18.1668 13.0897C17.8807 12.8751 17.5232 12.732 17.1657 12.6605C17.0227 12.6605 17.0227 12.8035 17.1657 12.8751C17.4517 12.9466 17.6662 13.0897 17.9523 13.2327C18.0238 13.3043 17.8807 13.3043 17.7377 13.3043C17.5232 13.1612 17.3087 13.0897 17.0942 13.0181C17.0227 13.0181 16.8082 13.0181 17.0227 13.1612C17.2372 13.3042 17.5947 13.3758 17.4517 13.4473C17.2372 13.5189 17.0227 13.5189 16.8082 13.4473C16.0931 13.805 15.4496 14.2342 14.8775 14.7349C14.3055 14.878 13.8765 13.9481 14.5915 12.5174C14.7345 12.1597 15.3066 11.2298 15.3781 11.1583ZM13.948 16.0225C14.0195 16.0225 14.091 16.0225 14.091 16.0225C14.234 16.094 14.8775 16.4517 15.0206 16.5233C15.0921 16.5233 15.0921 16.5948 15.0921 16.6663C15.0921 16.7379 14.9491 16.7379 14.8775 16.7379C14.7345 16.6663 14.52 16.5233 14.377 16.4517C14.234 16.3802 14.1625 16.3087 14.0195 16.3087L13.948 16.2371C13.8765 16.0941 13.8765 16.0225 13.948 16.0225ZM13.3044 16.5233C13.3044 16.5233 13.3044 16.4517 13.3759 16.4517C13.4475 16.4517 13.519 16.4517 13.519 16.5233C13.948 16.7379 14.377 16.9524 14.806 17.0955C15.0206 17.167 15.0206 17.167 15.0206 17.167C15.0206 17.167 14.9491 17.3101 14.7345 17.3101C14.3055 17.2386 13.948 17.024 13.5905 16.8094L13.3759 16.7379C13.3044 16.6663 13.3044 16.5948 13.3044 16.5233ZM16.1646 21.316C16.2361 21.316 16.3076 21.3875 16.2361 21.3875C16.1646 21.3875 16.0931 21.459 15.9501 21.459C15.7356 21.3875 15.5211 21.316 15.3066 21.2444L15.0921 21.1729C15.0206 21.1729 15.0206 21.1014 15.0206 21.0299V20.9583C15.0206 20.9583 15.0921 20.9583 15.1636 20.9583C15.2351 20.9583 16.0216 21.316 16.1646 21.316ZM14.4485 27.1817C14.4485 27.1817 14.5915 27.1817 15.3781 27.4678C15.5926 27.5394 15.8071 27.6109 15.8786 27.6824C15.9501 27.754 16.5937 27.8971 16.6652 28.0401C16.6652 28.1117 16.6652 28.1117 16.6652 28.1832C16.6652 28.1832 16.5937 28.3263 16.5222 28.3263C16.3076 28.2547 16.0931 28.1832 15.8786 28.1117C15.4496 27.9686 15.0921 27.8255 14.663 27.6824C14.52 27.6109 14.377 27.4678 14.4485 27.3248C14.4485 27.2533 14.4485 27.2533 14.4485 27.1817ZM17.0227 27.8971L16.8797 27.8255C16.8082 27.8255 16.8082 27.754 16.8082 27.6824C16.8082 27.6824 16.8082 27.6109 16.8797 27.6109C16.9512 27.6109 17.0227 27.6109 17.0227 27.6109L17.1657 27.6824C17.3087 27.754 17.8807 27.8971 17.8807 27.9686C17.8807 27.9686 17.8807 28.0401 17.8807 28.1117L17.8092 28.1832C17.5947 28.1117 17.3087 28.0401 17.0227 27.8971ZM17.7377 26.8241C17.7377 26.8956 17.6662 26.8956 17.5947 26.8956C17.1657 26.8241 16.7367 26.681 16.3076 26.5379H16.2361H16.1646C16.0931 26.5379 16.0216 26.4664 16.0216 26.3948C16.0216 26.3233 16.0216 26.1803 16.0216 26.1803C16.0216 26.1803 17.0942 26.4664 17.2372 26.4664C17.3802 26.4664 17.4517 26.4664 17.5947 26.5379C17.6662 26.6095 17.7377 26.7525 17.7377 26.8241ZM17.3802 26.0372C16.8797 25.9657 16.3791 25.7511 15.9501 25.5364L15.5926 25.3934C15.1636 25.1788 14.806 25.0357 14.663 25.0357C14.234 24.8927 13.5905 24.8211 13.662 24.4634C13.662 24.3919 13.7335 24.3204 13.7335 24.2488C13.7335 24.2488 13.805 24.2488 13.8765 24.2488C13.948 24.3204 14.0195 24.3204 14.1625 24.3919C14.377 24.4635 14.9491 24.7496 15.1636 24.8211C15.3781 24.8927 17.0227 25.5364 17.0942 25.5364C17.2372 25.5364 17.3087 25.608 17.3802 25.6795V25.7511V25.8941C17.3802 25.8941 17.4517 26.0372 17.3802 26.0372ZM11.8028 21.8167C11.8028 21.7452 11.8028 21.6736 12.0174 21.7452L14.377 22.6751C14.377 22.7467 14.4485 22.8182 14.4485 22.8182C14.4485 22.8897 14.3055 22.8897 14.234 22.8897L12.7324 22.3174C12.4464 22.2459 12.0889 22.1028 11.8743 21.9598C11.8028 21.8883 11.7313 21.8883 11.8028 21.8167ZM11.7313 24.0343C12.0889 24.1773 12.3749 24.3204 12.7324 24.535C12.9469 24.6781 13.0184 25.1788 13.0184 25.1788C12.8039 25.1073 12.5179 25.0357 12.3034 24.9642C12.0889 24.8927 11.8743 24.8211 11.6598 24.6781C11.6598 24.6065 11.6598 24.535 11.6598 24.4634C11.5883 24.3919 11.5883 24.0343 11.7313 24.0343ZM11.7313 25.5364C11.7313 25.4649 11.7313 25.2503 11.8028 25.2503C11.8743 25.2503 13.0184 25.608 13.0899 25.608C13.3044 25.7511 13.3044 26.1803 13.3044 26.1803L13.2329 26.2518C13.1614 26.2518 12.2319 25.8941 12.1604 25.8941C12.0174 25.8941 11.9458 25.8226 11.8028 25.7511C11.7313 25.7511 11.6598 25.6795 11.7313 25.5364ZM12.4464 22.6751C12.4464 22.6036 12.5179 22.5321 12.5179 22.5321C12.8754 22.6036 13.1614 22.7467 13.4474 22.8897L13.805 23.0328C13.805 23.1043 13.8765 23.1043 13.805 23.1758C13.805 23.1758 13.805 23.3189 13.7335 23.3189C13.662 23.3189 13.662 23.3189 13.662 23.2474C13.662 23.1759 12.4464 22.8182 12.4464 22.6751ZM17.1657 25.0357C17.1657 25.1073 17.1657 25.1788 17.0942 25.1788C16.3791 24.9642 15.6641 24.6781 14.9491 24.3919C14.9491 24.3919 14.0195 23.9627 13.8765 23.8912C13.7335 23.8197 13.948 23.7481 13.948 23.6766C14.0195 23.6051 14.091 23.6051 14.1625 23.6766C14.234 23.7481 15.2351 24.0343 15.3781 24.1058L15.6641 24.2488C15.8786 24.3204 16.5937 24.6065 16.6652 24.6065H16.7367C16.8797 24.6065 16.9512 24.6781 17.0227 24.7496C17.1657 24.7496 17.1657 25.0357 17.1657 25.0357ZM17.0227 24.3204C17.0227 24.3919 16.8797 24.3919 16.8082 24.3919C16.7367 24.3919 15.0206 23.6766 14.806 23.6051C14.5915 23.5335 14.234 23.462 14.234 23.3904C14.234 23.3189 14.3055 22.8897 15.0206 23.1758C15.1636 23.2474 16.8082 23.7481 16.8082 23.7481C16.9512 23.8197 16.9512 23.9627 16.9512 24.1058C16.9512 24.1058 17.0227 24.1773 17.0227 24.3204ZM11.8028 18.6693C11.8743 18.5977 12.0174 18.5262 12.1604 18.5977C12.2319 18.6693 14.52 19.5276 14.7345 19.5992C14.806 19.5992 14.806 19.6707 14.8775 19.6707C14.8775 19.8138 14.8775 20.0284 14.8775 20.1714C14.806 20.243 14.7345 20.243 14.663 20.243C14.52 20.1715 12.0889 19.17 11.9458 19.0269C11.8028 18.8839 11.8743 18.9554 11.8743 18.9554C11.8028 18.8839 11.8028 18.7408 11.8028 18.6693ZM11.8028 19.5992L12.1604 19.7423L12.3749 19.8138L13.948 20.4576L14.234 20.6007C14.3055 20.6007 14.3055 20.6722 14.3055 20.7437C14.3055 20.8153 14.3055 20.8153 14.3055 20.8868C14.3055 20.8868 14.3055 21.0299 13.8765 20.9583C13.3044 20.8153 11.5168 20.3145 11.6598 19.8138C11.6598 19.6707 11.8028 19.5276 11.8028 19.5992ZM16.0216 21.9598L15.8071 21.8883C15.5211 21.8167 15.2351 21.7452 14.9491 21.6021C14.806 21.5306 14.806 21.459 14.806 21.459C14.806 21.459 14.8775 21.3875 15.0206 21.3875C15.1636 21.3875 15.5211 21.5306 15.8071 21.6021C15.9501 21.6021 16.0216 21.6736 16.1646 21.7452C16.2361 21.7452 16.3076 21.8167 16.3076 21.8167V21.8883C16.1646 22.0313 16.0931 22.0313 16.0216 21.9598ZM14.663 19.0269C14.234 18.8839 13.805 18.7408 13.4474 18.5977C13.0899 18.4547 12.8039 18.3831 12.4464 18.24C12.3749 18.24 12.3749 18.1685 12.3749 18.097C12.3749 18.0255 12.4464 17.8109 12.5179 17.8109C12.5894 17.8109 12.6609 17.8109 12.7324 17.8109C13.0184 17.9539 13.3759 18.097 13.662 18.24C13.8765 18.3116 14.0195 18.3831 14.234 18.4547C14.4485 18.5262 14.5915 18.5977 14.663 18.5977C14.7345 18.5977 14.7345 18.6693 14.7345 18.6693C14.7345 18.8123 14.7345 18.8839 14.663 19.0269ZM12.8754 17.0955C12.9469 17.0955 13.0184 17.0955 13.0899 17.167C13.1614 17.2386 14.091 17.5963 14.5915 17.8109C14.663 17.8109 14.806 17.8824 14.806 17.9539C14.806 18.097 14.663 18.1685 14.5915 18.1685C14.0195 17.9539 13.3759 17.7393 12.8754 17.3817L12.8039 17.2386L12.8754 17.0955ZM10.4442 12.5174L11.4453 12.8751C11.5168 12.8751 11.5883 12.8035 11.4453 12.732C11.3023 12.6605 10.8733 12.3743 10.7303 12.3028C10.5873 12.2313 10.8018 12.2313 10.8733 12.2313C10.9448 12.2313 11.3023 12.3743 11.4453 12.3743C11.5883 12.3743 11.6598 12.3028 11.5883 12.3028C11.5168 12.2313 11.4453 12.1597 11.3738 12.1597C11.6598 12.0882 11.9458 11.8736 12.0174 11.5875C12.0889 11.3729 12.1604 11.2298 12.2319 11.0152C12.3034 10.7291 12.5179 10.586 12.6609 10.6575C12.8039 10.7291 12.9469 10.8006 13.0184 11.0867C13.1614 12.0167 13.2329 12.9466 13.1614 13.8765C13.1614 14.4488 13.1614 15.0211 13.2329 15.5933C12.9469 15.8079 12.7324 16.0225 12.4464 16.3087C12.3749 16.3087 12.3034 16.3087 12.2319 16.3087C12.0889 16.3087 11.9458 16.1656 12.0889 16.1656C12.2319 16.1656 12.3034 16.0225 12.2319 16.0225C12.0889 16.0225 12.0174 16.0225 11.8743 15.951C11.6598 15.8795 11.7313 15.8079 11.8028 15.7364C11.9458 15.7364 12.0889 15.8079 12.1604 15.8794C12.3034 15.951 12.4464 15.7364 12.2319 15.7364C12.0174 15.7364 11.7313 15.5218 11.5168 15.4503C11.3023 15.3787 11.2308 15.2356 11.3738 15.3072C11.5883 15.3787 11.8028 15.3787 12.0174 15.3787C12.2319 15.3787 12.1604 15.2357 12.0174 15.2357C11.8743 15.2357 11.4453 15.1641 11.3023 15.0926C11.1593 15.0211 11.1593 14.878 11.3023 14.878C11.5883 14.9495 11.8743 15.0211 12.1604 15.1641C12.3034 15.2357 12.3749 15.021 12.0889 14.9495C11.8028 14.878 11.5168 14.7349 11.2308 14.6634C11.1593 14.6634 11.0878 14.5203 11.3023 14.5203C11.5168 14.5203 11.9458 14.6634 12.0889 14.7349C12.2319 14.8065 12.2319 14.6634 12.0174 14.6634C11.8028 14.6634 11.3738 14.3773 11.2308 14.3057C11.0878 14.2342 11.0878 14.1627 11.2308 14.1627C11.3738 14.1627 11.8743 14.3773 12.0174 14.3773C12.1604 14.3773 12.2319 14.3057 11.9458 14.2342C11.6598 14.1627 11.3023 14.0196 11.0163 13.8765C10.8018 13.805 10.8733 13.6619 11.0163 13.7335C11.1593 13.805 11.5168 14.0196 11.6598 13.9481C11.8028 13.8765 11.7313 13.8765 11.6598 13.8765C11.4453 13.805 11.2308 13.6619 11.0163 13.5904C10.9448 13.5189 10.9448 13.5189 11.0163 13.4473C11.0878 13.3758 11.3023 13.5904 11.3738 13.5904C11.4453 13.5904 11.5168 13.5189 11.4453 13.4473C11.3738 13.3758 11.0163 13.3043 10.8733 13.2327C10.7303 13.1612 10.8018 13.0897 10.8733 13.0897C10.9448 13.0897 11.3023 13.2327 11.4453 13.2327C11.5883 13.2327 11.5883 13.2327 11.4453 13.1612C11.1593 13.0181 10.8733 12.9466 10.5873 12.732C10.3012 12.5889 10.3727 12.4459 10.4442 12.5174ZM12.0174 20.6722C12.8039 20.8868 13.5905 21.1729 14.377 21.5306C14.806 21.6737 14.52 21.8167 14.663 21.8883C14.9491 22.0313 15.2351 22.1744 15.5211 22.2459C15.9501 22.389 16.3076 22.5321 16.3791 22.6036C16.4507 22.6751 16.5222 22.8182 16.5222 22.8897C16.5222 22.9613 16.5222 22.9613 16.4507 22.9613C16.3791 22.9613 16.3791 22.9613 16.3076 22.8897C15.9501 22.7467 15.5926 22.6036 15.2351 22.4605C14.806 22.3175 14.4485 22.1744 14.091 22.0313C13.8765 21.9598 13.5905 21.8167 13.3759 21.7452C13.2329 21.6736 13.0184 21.6737 12.8754 21.6021C12.5179 21.3875 12.0889 21.316 11.8028 21.1014C11.7313 21.1729 11.8028 20.6722 12.0174 20.6722ZM10.0867 24.1773C10.1582 24.1773 10.0867 23.9627 9.94371 23.8912C9.8007 23.8197 9.65769 23.5335 9.8007 23.6051L10.3727 23.9627C10.5158 24.0343 10.5873 23.9627 10.3727 23.8197C10.1582 23.6766 9.94371 23.462 9.7292 23.3189C9.65769 23.2474 9.58619 22.9613 9.65769 23.0328C9.87221 23.1758 10.0152 23.3189 10.2297 23.462C10.3012 23.5335 10.3727 23.462 10.3012 23.3189C10.2297 23.1759 9.87221 22.9613 9.7292 22.7467C9.37167 22.4605 9.51468 21.9598 9.58619 22.0313C9.94371 22.2459 10.2297 22.5321 10.5873 22.8182C10.6588 22.8897 10.7303 22.8182 10.6588 22.6751C10.5158 22.5321 9.87221 21.9598 9.7292 21.8883C9.58619 21.7452 9.51468 21.5306 9.58619 21.316C9.58619 21.2445 9.7292 21.1729 9.7292 21.2444C9.7292 21.316 10.3727 21.8883 10.4442 21.9598C10.5158 22.0313 10.5873 21.9598 10.5158 21.8883C10.4442 21.8167 10.0152 21.4591 9.87221 21.316C9.7292 21.1729 9.87221 21.1014 10.0152 21.1729C10.1582 21.2444 10.5873 21.6736 10.6588 21.7452C10.7303 21.8167 10.7303 21.6737 10.6588 21.6737C10.5873 21.6737 9.87221 20.9583 9.8007 20.8868C9.7292 20.8153 9.65769 20.7437 9.7292 20.6722C9.8007 20.6006 9.8007 20.3861 10.0152 20.5291C10.0867 20.6007 10.2297 20.6722 10.3012 20.7437C10.3727 20.8153 10.4442 20.7437 10.3727 20.6722C10.3012 20.6006 10.0152 20.386 9.94371 20.3145C9.87221 20.243 9.87221 20.0999 10.0152 20.1714C10.2297 20.3145 10.3727 20.4576 10.5873 20.6722C10.6588 20.7437 10.8733 20.6722 10.6588 20.6007C10.3727 20.3861 10.0867 20.0999 9.87221 19.8138C9.8007 19.5992 9.8007 18.9554 9.94371 19.0269C10.0867 19.0984 10.3012 19.2415 10.4442 19.3846C10.5873 19.5277 10.5158 19.3131 10.4442 19.17C10.1582 18.9554 9.87221 18.6693 9.65769 18.3116C9.65769 18.2401 9.58619 18.1685 9.58619 18.1685C9.30017 17.6678 9.51468 16.9525 10.0152 16.6663C10.0867 16.6663 10.1582 16.5948 10.2297 16.5948C10.4442 16.5233 10.5873 16.5233 10.8018 16.5948C10.9448 16.6663 11.0163 16.7379 11.0163 16.8094C11.0163 16.8809 10.9448 16.8809 10.8018 16.8809C10.5158 16.8809 10.3012 17.024 10.1582 17.3101C10.0867 17.5247 10.0867 17.7393 10.1582 17.9539C10.2297 18.097 10.3727 18.3116 10.5158 18.5262L10.8733 19.0269C11.3023 19.8138 11.4453 20.7437 11.3023 21.6021C11.2308 22.1028 11.2308 22.6751 11.3023 23.1758C11.4453 23.7481 11.3023 24.3204 11.0163 24.8211C10.9448 24.9642 10.8018 25.0357 10.6588 25.0357C10.5158 25.0357 10.4442 24.9642 10.3727 24.8927C10.2297 24.6781 9.87221 24.2489 10.0867 24.1773ZM12.1604 34.192C12.0889 34.192 12.0174 34.2635 12.0174 34.3351C11.8743 34.4781 11.6598 34.5497 11.4453 34.5497V34.4781C11.3738 34.335 11.5168 34.192 11.5883 34.2635C11.7313 34.2635 11.8743 34.192 11.9458 34.1204C11.9458 34.0489 12.1604 34.0489 12.1604 34.1204V34.192ZM13.8765 35.6227C13.805 35.6227 13.7335 35.6227 13.519 35.5511C13.519 35.4796 13.5905 35.4081 13.662 35.4081C13.805 35.4081 13.805 35.4796 13.8765 35.6227ZM13.7335 33.6197C13.7335 34.1205 13.805 34.5497 13.8765 35.0504L13.7335 34.9073H13.5905C13.519 34.8358 11.2308 32.9044 11.0163 33.119L10.9448 33.2621C10.9448 33.2621 11.0878 33.0475 11.0163 32.9759C10.9448 32.9044 11.0163 32.6183 11.0878 32.5467C11.1593 32.4752 11.1593 32.5467 11.3023 32.6183C11.4453 32.6898 11.3738 32.5467 11.3023 32.4752C11.2308 32.4036 11.1593 32.4036 11.0878 32.3321C11.0163 32.2606 11.0163 32.1175 11.0878 32.1891C11.1593 32.2606 11.3023 32.2606 11.3738 32.3321C11.5168 32.4036 11.4453 32.2606 11.3738 32.1891C11.2308 32.1175 11.1593 32.046 11.0878 31.9744C11.0163 31.9029 11.0163 31.7599 11.1593 31.8314C11.3023 31.9029 11.4453 31.9745 11.5883 32.046C11.7313 32.1175 11.7313 31.9029 11.5883 31.9029C11.4453 31.8314 11.3023 31.7598 11.1593 31.6168C11.0163 31.5452 10.9448 31.1876 11.1593 31.1876C11.3023 31.2591 11.4453 31.3307 11.5883 31.4022C11.7313 31.4737 11.8028 31.3307 11.6598 31.2591C11.5168 31.1161 11.3023 31.0445 11.1593 30.9014C11.0163 30.8299 11.0878 30.5438 11.2308 30.5438C11.3738 30.5438 11.4453 30.6153 11.5168 30.6868C11.5883 30.7584 11.6598 30.6153 11.5883 30.6153L11.3023 30.4007C11.2308 30.3292 11.2308 30.043 11.3738 30.1861C11.5168 30.2577 11.5883 30.3292 11.7313 30.3292C11.8743 30.4007 11.8028 30.1861 11.8028 30.1861C11.8028 30.1861 11.5168 30.0431 11.3738 29.9715C11.2308 29.9 11.3023 29.7569 11.4453 29.8284C11.5883 29.9 11.7313 29.9715 11.8028 30.0431C11.8743 30.1146 12.0174 30.0431 11.9458 29.9715C11.8743 29.9 11.7313 29.8285 11.6598 29.7569C11.1593 29.6139 11.3738 27.8971 12.3034 28.5408C12.5179 28.6839 13.3044 29.6138 13.519 29.6138C13.7335 29.6138 13.7335 33.5482 13.7335 33.6197ZM12.2319 27.1817C12.0889 27.1817 11.8743 26.6095 12.0174 26.5379C12.1604 26.4664 13.1614 26.8956 13.3759 26.8956C13.7335 26.9671 13.7335 27.6109 13.519 27.5394C13.3044 27.4679 12.3749 27.1817 12.2319 27.1817ZM17.6662 31.6883C17.5947 31.6883 16.1646 31.1161 16.0931 30.973C16.0216 30.8299 16.0216 30.5438 16.3076 30.6153L17.8807 31.2591C18.4528 31.5452 18.3813 31.9029 17.6662 31.6883ZM15.0921 28.6124C14.9491 28.5409 14.806 28.4693 14.7345 28.3263C14.7345 28.2547 14.806 28.1117 15.2351 28.1832C15.5926 28.3263 15.8786 28.3978 16.2361 28.5408L16.4507 28.6124L16.5937 28.6839L17.5947 29.0416C17.8092 29.1131 18.4528 29.3993 18.6673 29.3993C18.7388 29.3993 18.7388 29.6139 18.7388 29.6854C18.5243 30.0431 15.2351 28.6839 15.0921 28.6124ZM21.0985 37.6256C20.6694 37.6971 20.3119 37.7687 19.9544 37.8402C19.6684 37.9117 19.6684 37.6971 19.7399 37.6256C19.8114 37.5541 20.0259 37.2679 20.1689 37.1964C20.3119 37.1249 20.6694 36.9103 20.8124 37.0533C21.027 37.1964 21.2415 37.3395 21.456 37.4825C21.742 37.6256 21.3845 37.6256 21.0985 37.6256ZM23.0291 37.7687C23.0291 37.9117 22.6001 37.9832 22.4571 38.0548C22.171 38.0548 21.885 37.9117 21.6705 37.7687C21.5275 37.6256 21.742 37.4825 21.8135 37.411C21.9565 37.3395 22.0995 37.3395 22.2425 37.411C22.3141 37.411 22.6716 37.3395 22.7431 37.411C23.0291 37.4825 23.1006 37.6256 23.0291 37.7687ZM22.028 36.9103C21.885 36.9818 21.742 36.9818 21.599 36.9818C21.599 36.9102 21.6705 36.8387 21.599 36.8387C21.3845 36.7672 21.2415 36.6241 21.0985 36.4811C21.027 36.4095 21.027 36.4811 20.9555 36.4811C20.8124 36.4811 20.6694 36.4811 20.5264 36.4811C20.3119 36.4811 20.3119 35.4081 20.3119 35.265C20.3834 34.9789 20.7409 34.7642 21.027 34.8358C21.2415 34.8358 21.456 34.7643 21.456 34.6212C21.456 34.4781 21.456 34.192 21.5275 34.192C21.885 34.192 21.742 33.9058 21.742 33.7628C22.028 33.7628 22.3141 33.7628 22.6001 33.6912H22.6716C22.6716 33.8343 23.1721 36.0518 23.3151 36.9103C22.8861 36.7672 22.4571 36.7672 22.028 36.9103ZM28.678 21.3875V21.316C28.678 21.3875 28.678 21.3875 28.678 21.3875ZM28.678 20.6007V20.5291C28.678 20.5291 28.678 20.5291 28.678 20.6007ZM28.678 20.4576V20.386C28.678 20.386 28.678 20.386 28.678 20.4576ZM28.1774 18.5977C28.1774 18.5977 28.1774 18.5262 28.1059 18.5262L28.1774 18.5977ZM28.6065 19.6707V19.5992C28.6065 19.5992 28.535 19.5992 28.535 19.6707H28.6065ZM28.6065 19.5277V19.4561L28.535 19.5277H28.6065ZM28.535 19.2415V19.17L28.392 19.2415H28.535ZM28.3205 18.7408C28.3205 18.7408 28.3205 18.6693 28.249 18.5977C28.1774 18.5262 28.1774 18.6693 28.1774 18.7408H28.3205ZM28.1774 18.3831V18.3116C28.1774 18.3116 28.1059 18.3116 28.1059 18.3831H28.1774ZM28.392 21.459C28.0344 23.8912 29.1785 25.7511 30.3226 27.5394V27.6109C30.5371 27.9686 30.6801 28.3263 30.8231 28.6839C30.8946 29.0416 30.8946 29.3277 30.8946 29.6854C30.7516 30.1146 30.6086 30.5438 30.3941 30.9014C30.2511 31.1161 30.1081 31.3307 29.8936 31.4737C29.8936 31.4737 28.3205 34.0489 21.2415 33.4051C20.884 33.3336 20.5979 32.9759 20.4549 32.6183C20.1689 32.3321 19.7399 32.1891 19.3824 32.046C19.1678 32.046 19.2393 31.9029 19.3824 31.8314C19.5254 31.7599 19.2393 31.6168 19.0963 31.5452C18.3813 31.2591 18.7388 30.7584 18.9533 30.8299C19.3108 30.973 19.7399 31.1161 20.1689 31.1876C20.4549 31.1876 20.2404 31.0445 20.1689 31.0445C20.0974 31.0445 19.4539 30.8299 19.3108 30.7584C18.6673 30.4007 19.3824 30.0431 19.5969 30.0431C19.6684 30.0431 20.3834 30.2577 20.6694 30.3292C20.9555 30.4007 20.8124 30.2577 20.5979 30.1861L20.0259 29.9715C19.7399 29.9 20.0259 29.8284 20.0974 29.8284C20.1689 29.8284 20.6694 29.9715 20.5979 29.9C20.5264 29.8285 20.1689 29.6854 19.8829 29.5423C19.5969 29.3993 18.1668 27.8971 20.1689 28.4693C20.2404 28.4693 20.3119 28.4693 20.3119 28.3978C20.3119 28.3263 20.3119 28.3263 20.3119 28.2547C20.2404 28.1832 19.1678 27.754 18.9533 27.754C18.4528 27.6109 18.3813 27.0387 18.5243 27.1102C18.8818 27.2533 19.3108 27.3963 19.6684 27.5394C19.8114 27.5394 19.8114 27.3248 19.6684 27.3248C19.5254 27.3248 18.7388 26.9671 18.5958 26.9671C18.4528 26.9671 18.2383 26.8241 18.3098 26.7525C18.3813 26.681 18.2383 26.681 18.0953 26.5379C17.9523 26.3949 18.0953 26.3233 18.3813 26.3948C18.6673 26.4664 18.5243 26.2518 18.4528 26.2518C18.3098 26.1803 18.0953 26.0372 17.9523 25.8941C17.8092 25.7511 17.7377 25.3218 17.6662 25.1788C17.5947 25.0357 17.8092 25.1073 17.9523 25.1788C18.0953 25.2503 17.9523 25.0357 17.8092 25.0357C17.6662 25.0357 17.5947 24.8927 17.5232 24.7496C17.4517 24.6065 17.8092 24.7496 17.9523 24.7496C18.0953 24.7496 18.0238 24.6781 17.8807 24.6065C17.7377 24.535 17.5947 24.4635 17.5947 24.3204C17.5947 24.1773 17.7377 24.3204 18.0238 24.3204C18.3098 24.3204 18.0953 24.1773 17.9523 24.1058C17.8092 24.1058 17.6662 24.0343 17.5232 23.9627C17.3802 23.8912 17.4517 23.8197 17.4517 23.6766C17.4517 23.5335 17.5232 23.5335 17.7377 23.5335C17.9523 23.5335 18.0238 23.5335 17.9523 23.462C17.8808 23.3905 17.5947 23.3189 17.5232 23.3189C17.4517 23.3189 17.3087 23.1759 17.3802 23.1043C17.4517 23.0328 17.3087 22.8897 17.2372 22.8182C17.1657 22.7467 17.3087 22.7467 17.4517 22.7467C17.5947 22.7467 17.5232 22.4605 17.2372 22.5321C16.9512 22.6036 17.0942 22.2459 17.0942 21.9598C17.0942 21.6737 17.1657 21.7452 17.0942 21.6021C17.0227 21.4591 16.6652 21.8883 16.6652 21.6021C16.7367 21.4591 16.6652 21.316 16.5222 21.2444C16.4507 21.2444 16.5222 21.1014 16.4507 21.0299C16.3791 20.9583 15.5211 20.7437 15.3066 20.6722C15.0921 20.6006 15.3066 20.1714 15.8071 20.3145C16.0216 20.386 16.2361 20.3861 16.2361 20.243C16.2361 20.0999 16.0931 20.1714 15.7356 19.9569C15.3781 19.7423 15.4496 19.4561 15.8786 19.5277C16.0216 19.5277 16.1646 19.4561 16.0931 19.3846C16.0216 19.313 15.8786 19.313 15.7356 19.2415C15.5926 19.17 15.0921 18.3116 15.7356 18.3831C15.8786 18.3831 15.9501 18.24 15.7356 18.24C15.6641 18.24 15.5211 18.1685 15.4496 18.1685C15.3066 18.1685 15.4496 17.5963 15.5926 17.5247C15.7356 17.4532 15.8786 17.5963 16.0216 17.6678C16.1646 17.7393 16.1646 17.5963 16.0216 17.5247L15.6641 17.3101C15.5926 17.2386 15.6641 17.2386 15.7356 17.167C15.8071 17.0955 16.0216 17.2386 16.2361 17.3101C16.4507 17.3817 16.4507 17.167 16.2361 17.0955C16.0216 17.024 15.7356 16.9524 15.8071 16.8809C15.8786 16.8094 15.8071 16.5233 15.9501 16.5233C16.0931 16.5233 16.3076 16.5948 16.4507 16.5948C16.4507 16.5948 16.6652 16.3802 16.4507 16.3802C16.3076 16.3802 16.1646 16.3087 16.0216 16.2371C15.7356 16.0941 16.0216 15.8079 16.1646 15.8794C16.3791 15.951 16.6652 16.0225 16.8797 15.951C17.1657 15.8795 17.0942 15.7364 16.8797 15.6649C16.5937 15.5933 16.3076 15.5218 16.0216 15.3787C15.8786 15.3072 16.1646 14.7349 16.3791 14.6634C16.5937 14.5919 17.2372 14.0911 17.8092 14.878C17.8807 15.0211 18.1668 15.1641 18.3098 15.2357C18.5243 15.3787 18.7388 15.5218 18.9533 15.6649C19.0248 15.8079 19.2393 15.8079 19.4539 15.6649C19.6684 15.5218 19.3824 15.3072 19.0248 14.9495C18.8818 14.878 18.7388 14.878 18.5958 14.8065C18.4528 14.7349 18.0953 14.1627 18.1668 14.0196L17.8807 13.6619L17.5232 13.3758C18.7388 13.2327 19.9544 13.3758 21.0985 13.7335C21.0985 13.7335 23.1721 16.0225 23.2436 16.094C23.3151 16.1656 23.6011 16.2371 23.6726 16.1656C23.7441 16.0941 23.6726 15.7364 23.4581 15.7364C23.2436 15.7364 23.1006 15.1641 22.9576 15.021C22.8146 14.878 22.0995 14.0196 21.9565 13.8765C21.8135 13.7334 22.028 13.7335 22.0995 13.805C22.171 13.8765 22.4571 14.1627 22.5286 14.0911C22.6001 14.0196 22.5286 14.0196 22.3856 13.805C22.2425 13.5904 22.5286 13.805 22.5286 13.6619C23.3151 13.805 24.0302 14.0911 24.6022 14.5203C25.6033 15.1641 26.3898 16.094 26.8904 17.167V17.2386C28.0344 18.3116 28.535 19.8853 28.392 21.459ZM28.7495 18.0254V18.1685L28.535 18.0254C28.392 17.7393 28.1774 17.4532 27.9629 17.2386C27.8914 17.1671 28.0344 17.024 28.3205 17.2386C28.4635 17.4532 28.6065 17.7393 28.7495 18.0254ZM28.0344 14.1627C27.8199 14.1627 27.6769 14.3057 27.7484 14.5203C27.7484 14.7349 27.7484 14.9495 27.7484 15.1641C27.7484 15.3072 27.8914 15.5218 27.9629 15.5933C28.0344 15.6649 28.1059 15.951 28.0344 16.0225C27.9629 16.094 27.8199 16.0941 27.8199 16.2371C27.8199 16.3802 27.7484 16.5948 27.6769 16.4517C27.6054 16.3087 27.6054 16.2371 27.5339 16.094C27.4624 15.951 27.3194 15.8794 27.3909 16.0225C27.4624 16.1656 27.4624 16.3087 27.5339 16.4517C27.6054 16.5948 27.4624 16.6663 27.3909 16.4517C27.3194 16.2371 27.1764 16.0941 27.1764 15.8794C27.1764 15.6649 27.0334 15.8079 27.1049 15.951C27.1764 16.0941 27.0334 16.2371 26.9619 16.0225C26.8904 15.8079 26.6758 15.2357 26.6043 15.021C26.5328 14.8064 26.4613 14.878 26.4613 14.9495C26.5328 15.021 26.5328 15.1641 26.5328 15.3072C26.5328 15.3787 26.3898 15.5218 26.3898 15.3072C26.3898 15.0926 26.2468 14.9495 26.2468 14.8065C26.2468 14.6634 25.9608 14.5203 26.0323 14.6634C26.1038 14.8064 26.1038 14.9495 26.1038 15.0926C26.1038 15.2357 25.9608 15.1641 25.9608 15.021C25.9608 14.878 25.8893 14.8064 25.8178 14.6634C25.7463 14.5203 25.6748 14.4488 25.6748 14.5203C25.6748 14.5919 25.6748 14.7349 25.6033 14.6634C25.5318 14.5919 25.5318 14.5203 25.4603 14.3773C25.3888 14.2342 25.3173 14.0196 25.2457 13.8765C25.1742 13.7334 25.0312 13.7335 25.1027 13.805C25.1742 13.9481 25.1742 14.0911 25.2457 14.3057C25.2457 14.4488 25.1027 14.3773 25.0312 14.3057C24.9597 14.2342 24.8167 13.805 24.7452 13.6619C24.6737 13.5189 24.6022 13.6619 24.6022 13.7335C24.6737 13.8765 24.7452 14.0196 24.7452 14.1627C24.7452 14.3057 24.6022 14.0911 24.5307 14.0196C24.4592 13.8765 24.3877 13.7334 24.3162 13.5904C24.2447 13.4473 24.1017 13.5189 24.1732 13.5904C24.2447 13.6619 24.2447 13.7334 24.2447 13.8765C24.2447 14.0196 24.1017 13.8765 24.0302 13.805C23.9587 13.7335 23.8157 13.3758 23.7441 13.3043C23.6726 13.2327 23.5296 13.3043 23.6011 13.4473C23.6726 13.5904 23.6726 13.6619 23.6726 13.7335C23.6726 13.805 23.3866 13.6619 23.3866 13.5904C23.3866 13.5189 23.1721 13.2327 23.0291 13.0181C22.8861 12.8035 22.8861 13.0181 22.9576 13.0897C23.0291 13.2327 23.1006 13.3043 23.1006 13.4473C23.1006 13.5904 22.9576 13.5189 22.9576 13.4473C22.9576 13.3758 22.8146 13.1612 22.7431 13.0897C22.6716 13.0181 22.4571 12.9466 22.6001 13.2327C22.7431 13.5189 22.6716 13.5189 22.5286 13.5189C22.3856 13.5189 22.3141 13.4473 22.3141 13.4473C22.3141 13.4473 22.2425 13.2327 22.2425 13.0897C22.2425 12.9466 22.0995 13.0181 22.171 13.0897C22.2425 13.1612 22.171 13.2327 22.171 13.3758C22.171 13.5189 22.028 13.3758 22.028 13.3758C21.9565 13.2327 21.9565 13.1612 21.885 13.0181C21.885 12.9466 21.742 12.9466 21.8135 13.0181C21.885 13.0897 21.885 13.1612 21.885 13.3043C21.885 13.4473 21.885 13.4473 21.8135 13.3758C21.742 13.3043 21.6705 13.1612 21.5275 13.0897C21.456 12.9466 21.313 13.1612 21.17 13.1612C21.027 13.1612 20.884 12.9466 20.8124 12.8751C20.7409 12.8035 20.6694 12.8751 20.7409 12.9466C20.8124 13.0181 20.884 13.1612 20.884 13.2327C20.884 13.3043 20.884 13.4473 20.7409 13.5189C20.5979 13.5904 20.4549 13.2327 20.3119 13.2327C20.1689 13.2327 19.9544 13.2327 19.8829 13.3758C19.7399 13.3758 19.5969 13.3043 19.4539 13.3043L19.0963 13.1612C19.0248 13.1612 19.0248 13.0897 19.0248 13.0181C22.2425 11.5159 26.0323 11.9451 28.7495 14.2342H28.678C28.535 14.1627 28.392 14.1627 28.3205 14.1627C28.535 14.0911 28.1774 14.1627 28.0344 14.1627ZM29.3215 14.6634C29.25 14.7349 29.107 14.8064 29.107 14.9495C29.0355 15.1641 28.964 15.4503 29.0355 15.6649C29.0355 15.8794 29.107 16.0225 29.1785 16.2371C29.25 16.5233 29.3215 16.7379 29.3215 17.024C29.3215 17.1671 29.3215 17.3101 29.3215 17.5247C29.3215 17.5963 29.3215 17.6678 29.3215 17.8109C29.393 17.9539 29.4645 18.097 29.536 18.24C29.6075 18.3831 29.7506 18.5262 29.8221 18.6693C29.8221 18.6693 29.8221 18.6693 29.8221 18.7408C29.7506 18.7408 29.679 18.7408 29.679 18.6693C29.4645 18.5262 29.3215 18.3116 29.1785 18.097C29.107 18.0255 29.107 17.8824 29.0355 17.7393C29.0355 17.6678 29.0355 17.5247 29.0355 17.4532C29.1785 17.0955 28.7495 16.3087 28.678 16.2371C28.6065 16.0941 28.535 15.951 28.4635 15.8079C28.4635 15.7364 28.3205 15.2356 28.535 14.9495C28.678 14.8064 28.8925 14.6634 29.0355 14.5919C29.1785 14.5919 29.25 14.5919 29.3215 14.6634Z" fill="#002856"/>
<path d="M21.459 13.8755C21.3875 13.804 21.316 13.804 21.2445 13.7324C20.887 13.5894 20.5295 13.4463 20.1719 13.3032C20.0289 13.2317 19.9574 13.2317 19.8144 13.2317L19.4569 13.1602H19.0279C18.7419 13.1602 18.4558 13.1602 18.1698 13.1602C18.0268 13.1602 17.9553 13.2317 17.8123 13.2317C17.2402 13.3032 16.7397 13.5178 16.2392 13.804C15.9532 13.947 15.7386 14.1616 15.5241 14.3762C15.3096 14.5193 15.0951 14.6624 14.8806 14.7339C13.4505 15.1631 12.3064 16.1646 11.7344 17.5237C11.7344 17.5952 11.8059 17.6668 11.8059 17.5952C12.5209 16.4507 13.665 15.5923 14.9521 15.1631C15.1666 15.0916 15.3811 15.1631 15.4526 15.3777C15.4526 15.4492 15.4526 15.4492 15.4526 15.5208C15.5241 15.8784 15.5241 16.3076 15.4526 16.7368C15.3811 17.023 15.2381 17.3091 15.1666 17.5952C15.0236 17.9529 15.0236 18.239 15.0236 18.5967C15.2381 19.4551 15.0951 20.385 14.7376 21.1719C14.6661 21.315 14.7376 21.3865 14.8806 21.2434C15.5241 20.5996 15.5241 19.6697 15.4526 18.7398C15.4526 18.4536 15.4526 18.096 15.5956 17.8098C15.9532 17.3091 16.0962 16.7368 16.0962 16.1646C16.0962 15.8069 16.0962 15.5208 16.0247 15.2346C15.9532 15.02 16.0962 14.7339 16.2392 14.5908C16.5252 14.3047 16.8827 14.1616 17.3118 14.0186C17.5263 14.0186 17.7408 14.0901 17.8123 14.3047C18.3128 15.0916 19.0994 15.7354 20.0289 15.95C20.3865 16.0215 20.601 16.3792 20.458 16.7368C20.458 17.166 20.315 17.5237 20.0289 17.8814C19.4569 18.3821 19.0279 19.0259 18.7419 19.7412C18.6703 20.0274 18.4558 20.242 18.0983 20.385C16.8827 20.6712 16.0962 21.6011 16.5252 22.6026C16.8112 23.1748 17.0257 23.8186 17.1687 24.4624C17.3833 25.2493 17.5978 26.1077 17.8838 26.8946C18.1698 27.753 18.5273 28.6114 19.0279 29.3982C19.0994 29.5413 19.2424 29.4698 19.1709 29.3267C18.6703 28.3252 18.2413 27.2522 17.9553 26.1077C17.9553 26.0362 17.9553 25.8931 18.0268 25.8931H18.0983C18.8849 26.0362 19.5999 26.2508 20.2435 26.5369C20.3865 26.6084 20.458 26.4654 20.315 26.3938C19.5999 25.9646 18.7419 25.6785 17.9553 25.4639C17.8123 25.4639 17.7408 25.2493 17.6693 25.1062C17.5263 24.2478 17.3118 23.461 17.0257 22.6026C16.8112 22.1734 16.9542 21.6726 17.3833 21.458C17.6693 21.2434 17.9553 21.1719 18.3128 21.1004C18.3843 21.1004 18.4558 21.1004 18.4558 21.1004L18.5273 21.1719C18.5273 21.2434 18.5988 21.2434 18.5988 21.315C18.7418 21.8872 19.0279 22.388 19.3854 22.8172C19.6714 23.1033 19.8859 23.461 20.0289 23.8902C20.1004 24.1048 20.1719 24.0332 20.1719 23.8902C20.1004 23.461 19.9574 23.0318 19.6714 22.6741C19.3854 22.2449 19.1709 21.8157 19.0279 21.315C18.9564 20.8858 18.9564 20.5281 19.0994 20.0989C19.3139 19.3836 19.7429 18.8113 20.315 18.3821C20.8155 17.9529 21.1015 17.3091 21.03 16.6653C21.03 16.4507 21.2445 16.3792 21.3875 16.5938C21.6735 17.3091 22.1741 17.8814 22.8176 18.3106C24.1762 19.169 24.2477 20.5281 23.1036 21.2434C21.602 22.2449 21.602 23.5325 22.3171 24.8201C22.5316 25.1778 22.7461 25.607 23.0321 25.8931C23.2467 26.1792 23.2467 26.4654 23.1036 26.7515C22.6746 27.5384 22.6746 28.4683 23.1752 29.1836C23.4612 29.5413 23.6757 29.899 23.8187 30.3282C23.8902 30.5428 24.0332 30.4712 23.9617 30.3282C23.8187 29.899 23.6042 29.4698 23.3897 29.1121C23.1752 28.5398 23.1752 27.9676 23.3897 27.3953C23.5327 27.1092 23.6042 26.8946 23.6757 26.68C23.7472 26.4654 23.8902 26.3938 24.0332 26.5369C24.3192 26.8946 24.5337 27.3238 24.7483 27.8245C24.8913 28.1106 25.1058 28.3252 25.3918 28.4683C25.9638 28.6829 26.3929 29.1121 26.6789 29.6128C26.7504 29.7559 26.8219 29.6844 26.8219 29.6128C26.6789 28.969 26.2499 28.6829 25.6063 28.2537C25.3203 28.1106 25.1058 27.8245 24.9628 27.5384C24.6768 26.823 24.5337 26.2508 24.0332 25.8931C23.6757 25.6785 23.4612 25.6785 23.2467 25.3924C22.6746 24.8201 22.3886 24.0332 22.3886 23.2464C22.4601 22.6026 22.8891 22.0303 23.5327 21.6726C24.1762 21.315 24.6052 20.5996 24.6052 19.8843C24.6052 19.6697 24.7483 19.5982 24.9628 19.6697C25.8923 19.8128 26.5359 20.5281 26.6789 21.458C26.6789 21.6726 26.8934 21.6011 26.8934 21.458C26.8934 20.5281 26.3214 19.7412 25.5348 19.3836C25.4633 19.312 25.3918 19.2405 25.2488 19.2405H25.1773L24.9628 19.169C24.7483 19.169 24.5337 19.169 24.3907 18.8828C24.1047 18.3821 23.7472 18.0244 23.2467 17.7383C22.8176 17.3806 22.4601 16.9514 22.1741 16.4507C21.8881 15.8784 21.602 15.5208 21.03 15.4492C20.1004 15.4492 19.1709 14.9485 18.5988 14.1616C18.5273 14.0186 18.5988 13.804 18.8134 13.804C19.9574 13.804 21.1015 14.1616 21.9596 14.877C22.4601 15.3062 22.8891 15.8784 23.2467 16.4507C23.8187 17.2376 24.8198 17.5952 25.7493 17.5237C26.8219 17.5237 27.5369 17.9529 28.0375 19.312C28.4665 20.1704 28.4665 21.1719 28.0375 21.9588C27.6085 22.6026 27.4654 23.461 27.6084 24.2478C27.7515 24.7486 27.68 24.9632 27.7515 25.4639C27.8945 26.0362 28.1805 26.4654 28.6095 26.8946C28.8955 27.1807 29.0385 27.5384 29.1101 27.896C29.1816 28.3252 29.3961 28.6829 29.6106 28.969C29.6821 29.0406 29.8251 28.969 29.7536 28.826C29.5391 28.5398 29.4676 28.1106 29.4676 27.753C29.3961 27.3238 29.2531 26.9661 28.967 26.6084C28.7525 26.3938 28.6095 26.1077 28.4665 25.8216C28.395 25.5354 28.6095 25.4639 28.824 25.607C29.7536 26.2508 30.4686 27.1807 30.7547 28.2537C30.8262 28.3968 30.8977 28.3968 30.8977 28.2537C30.6832 27.0376 30.0396 25.9646 29.1101 25.2493C28.6095 24.8916 28.252 24.3909 28.0375 23.8186C27.966 23.1748 28.109 22.4595 28.4665 21.9588C28.824 21.315 28.8955 20.242 28.395 18.8828C28.1805 18.096 27.68 17.4522 26.9649 17.023L26.8934 16.9514C26.4644 16.8084 26.0353 16.7368 25.6063 16.7368C24.8913 16.8084 24.1047 16.5222 23.6042 15.95C23.1751 15.3777 22.6746 14.8054 22.1741 14.3047" fill="white"/>
<path d="M18.0979 13.0904L17.7403 13.1619C17.1683 13.2335 16.5963 13.4481 16.1672 13.7342C15.8812 13.8773 15.6667 14.0919 15.4522 14.3065C15.3092 14.4495 15.0947 14.5926 14.8086 14.6641C13.3785 15.0933 12.2345 16.1663 11.6624 17.5255C11.5909 17.597 11.6624 17.6685 11.7339 17.7401C11.8054 17.7401 11.8769 17.7401 11.8769 17.6685C12.592 16.524 13.6646 15.6656 14.9517 15.3079C15.0232 15.2364 15.0947 15.2364 15.2377 15.3079C15.3092 15.3795 15.3807 15.451 15.3807 15.5941C15.4522 15.9517 15.4522 16.3809 15.3807 16.7386C15.3092 16.9532 15.2377 17.0963 15.1662 17.3109L15.0947 17.5255C14.9517 17.8831 14.9517 18.2408 14.9517 18.5985V18.7415C15.0947 19.5284 15.0232 20.3868 14.6656 21.1021C14.5941 21.1737 14.5941 21.2452 14.6656 21.3167C14.7371 21.3167 14.8086 21.3883 14.8801 21.2452C15.5237 20.6014 15.5952 19.6715 15.5237 18.67C15.5237 18.3839 15.5237 18.0262 15.6667 17.8116C16.0242 17.3109 16.1672 16.7386 16.1672 16.0948V15.7371V15.1649C16.1672 14.9503 16.2387 14.7357 16.3818 14.5926C16.6678 14.3065 17.0253 14.1634 17.3828 14.0919C17.5973 14.0203 17.7403 14.1634 17.8118 14.378C18.3124 15.2364 19.0274 15.8087 19.957 16.1663C20.3145 16.3094 20.386 16.4525 20.386 16.8101V16.8817C20.386 17.2393 20.243 17.597 19.957 17.8831C19.385 18.3839 18.8844 19.0277 18.6699 19.743C18.5984 20.0291 18.3839 20.1722 18.0979 20.2437C17.4543 20.3868 16.8823 20.816 16.5963 21.3883C16.3818 21.7459 16.3818 22.2467 16.5963 22.6043L16.7393 22.8905C16.9538 23.3912 17.0968 23.8919 17.2398 24.4642C17.3828 25.108 17.6688 26.181 17.9549 26.8963C18.2409 27.7547 18.5984 28.6131 19.0989 29.4C19.1704 29.5431 19.2419 29.5431 19.3134 29.4715C19.385 29.4 19.385 29.2569 19.3134 29.1854C18.8129 28.1839 18.3839 27.1109 18.0979 25.9664C18.0979 25.9664 18.0979 25.8949 18.0979 25.8233H18.1694C18.8844 25.9664 19.5995 26.181 20.3145 26.4671C20.386 26.5387 20.4575 26.4671 20.529 26.3956C20.6005 26.3241 20.529 26.2525 20.4575 26.181C19.671 25.7518 18.8844 25.4657 18.0264 25.2511C17.8834 25.2511 17.8834 25.0365 17.8118 24.8934L17.7403 24.5357C17.5973 23.8204 17.3828 23.1051 17.1683 22.3897C16.9538 22.0321 17.0968 21.5313 17.4543 21.3167C17.7403 21.1021 18.0264 21.0306 18.3124 20.9591C18.3839 20.9591 18.3839 20.9591 18.4554 20.9591L18.5269 21.0306C18.5269 21.1021 18.5984 21.1021 18.5984 21.1737C18.7414 21.7459 19.0274 22.2467 19.385 22.6759C19.671 22.962 19.8855 23.3197 20.0285 23.7489C20.1 23.9635 20.1715 23.9635 20.243 23.9635C20.3145 23.9635 20.386 23.8919 20.386 23.7489C20.3145 23.3197 20.1715 22.8189 19.8855 22.4613C19.5995 22.1036 19.385 21.6029 19.2419 21.1021C19.1704 20.7445 19.2419 20.3868 19.3134 20.0291C19.528 19.3853 19.957 18.7415 20.4575 18.3123C21.0296 17.8831 21.3156 17.2393 21.2441 16.524C21.2441 16.4525 21.2441 16.4525 21.3156 16.3809C21.3871 16.3809 21.3871 16.3809 21.3871 16.4525C21.6731 17.1678 22.1021 17.8116 22.7457 18.2408C23.4607 18.67 23.8898 19.1707 23.8898 19.743C23.8898 20.2437 23.6037 20.7445 23.1747 21.0306C21.4586 22.1751 21.7446 23.6058 22.3167 24.6788C22.5312 25.0365 22.7457 25.3941 23.0317 25.7518C23.2462 25.9664 23.2462 26.3241 23.1032 26.5387C22.6742 27.3255 22.6742 28.2555 23.1747 29.0423C23.4607 29.4 23.6752 29.7577 23.8183 30.1153C23.8898 30.2584 23.9613 30.3299 24.0328 30.2584C24.1043 30.1869 24.1758 30.1869 24.1043 29.9723C23.9613 29.5431 23.8183 29.1854 23.6037 28.8277L23.5322 28.7562C23.3177 28.1839 23.3177 27.6117 23.5322 27.1109L23.7468 26.6102L23.8183 26.3956C23.8183 26.3241 23.8898 26.2525 23.9613 26.2525C24.0328 26.2525 24.0328 26.2525 24.0328 26.3241C24.3188 26.6817 24.5333 27.1109 24.7478 27.5401V27.6117C24.8908 27.8978 25.1768 28.1839 25.4629 28.2555C26.0349 28.4701 26.4639 28.8277 26.6784 29.3285C26.75 29.4715 26.8215 29.4715 26.893 29.4715C26.9645 29.4715 27.036 29.3285 26.9645 29.2569C26.8215 28.6131 26.3924 28.327 25.8204 27.8978C25.4629 27.6832 25.3199 27.5401 25.2484 27.254L25.0338 27.0394C24.8908 26.5387 24.6048 26.0379 24.1758 25.7518L23.8898 25.6087C23.6752 25.5372 23.5322 25.3941 23.3892 25.2511C22.8887 24.6788 22.6027 23.9635 22.5312 23.1766C22.6027 22.5328 23.0317 21.9605 23.5322 21.6744C24.1758 21.3167 24.6048 20.6014 24.6048 19.8145C24.6048 19.743 24.6048 19.743 24.6763 19.6715C24.7478 19.6715 24.8193 19.6715 24.8908 19.6715C25.7489 19.8145 26.4639 20.5299 26.5354 21.3883C26.5354 21.5313 26.6784 21.6029 26.75 21.6029C26.8215 21.6029 26.893 21.4598 26.893 21.3883C26.893 20.4583 26.3209 19.5999 25.4629 19.2423C25.3914 19.1707 25.2484 19.0992 25.1768 19.0992H25.1053L24.8908 19.0277H24.8193C24.6763 19.0277 24.4618 18.9561 24.3903 18.8131C24.1043 18.3123 23.6752 17.8831 23.1747 17.6685C22.7457 17.3109 22.3882 16.8817 22.1736 16.3094C21.8876 15.8087 21.6016 15.3795 20.9581 15.3079C20.0285 15.3079 19.0989 14.8072 18.5269 14.0919V14.0203V13.9488C18.5269 13.8773 18.5984 13.8773 18.6699 13.8773C19.814 13.8057 20.8866 14.2349 21.7446 14.9503C22.2451 15.3795 22.6742 15.9517 23.0317 16.4525C23.6037 17.2393 24.6048 17.6685 25.6059 17.5255C26.5354 17.5255 27.2505 17.8116 27.8225 19.2423C28.2516 20.0291 28.2516 21.0306 27.8225 21.8175C27.322 22.5328 27.179 23.3912 27.3935 24.1781C27.465 24.3927 27.465 24.6073 27.465 24.7503C27.465 24.9649 27.5365 25.1795 27.5365 25.3226C27.6795 25.8949 27.9655 26.3956 28.3946 26.8248C28.6091 27.1109 28.8236 27.3971 28.8951 27.7547C28.9666 28.1839 29.1811 28.5416 29.4671 28.8993C29.5386 28.9708 29.6101 28.9708 29.6817 28.8993C29.7532 28.8277 29.7532 28.7562 29.6817 28.6847C29.4671 28.3985 29.3956 28.0409 29.3241 27.6832C29.2526 27.254 29.1096 26.8248 28.8236 26.5387C28.6091 26.3241 28.4661 26.1095 28.3946 25.8233C28.3946 25.7518 28.3946 25.6803 28.3946 25.6803C28.4661 25.6803 28.5376 25.6803 28.6091 25.7518C29.5386 26.3956 30.1822 27.3255 30.5397 28.3985C30.5397 28.5416 30.6827 28.6131 30.7542 28.5416C30.8257 28.5416 30.8972 28.3985 30.8972 28.327C30.6827 27.1109 30.0392 26.0379 29.1096 25.2511H29.0381C28.5376 24.9649 28.2516 24.4642 28.037 23.8919C28.037 23.7489 27.9655 23.6058 27.9655 23.4627C27.9655 22.962 28.18 22.4613 28.4661 22.0321C28.6806 21.6744 28.7521 21.1737 28.7521 20.7445C28.7521 20.1007 28.6091 19.5284 28.3946 18.8846C28.1801 18.0977 27.6795 17.3824 26.9645 17.0247L26.893 16.8817C26.4639 16.6671 26.0349 16.5955 25.6059 16.5955H25.5344C24.7478 16.524 24.1043 16.6671 23.6037 16.0233V15.8802C23.2462 15.3795 22.8172 14.8787 22.3167 14.378C22.1021 14.1634 21.8161 13.9488 21.5301 13.8057C21.5301 13.8057 21.4586 13.7342 21.2441 13.6627C20.8866 13.5196 20.529 13.3765 20.1715 13.2335C20.0285 13.1619 19.957 13.1619 19.814 13.1619L19.4565 13.0904H19.0274C18.6699 13.0904 18.3839 13.0189 18.0979 13.0904ZM16.2387 13.8057C16.7393 13.5196 17.2398 13.3765 17.8118 13.305L18.1694 13.2335C18.4554 13.2335 18.7414 13.2335 19.0274 13.2335L19.4565 13.305H19.814C19.957 13.305 20.0285 13.3765 20.1715 13.3765C20.529 13.4481 20.8866 13.5911 21.2441 13.7342C21.3156 13.7342 21.4586 13.8057 21.4586 13.8057C21.7446 13.9488 21.9591 14.1634 22.2451 14.378C22.6742 14.8072 23.1032 15.3079 23.5322 15.8087L23.6752 16.0233C24.1758 16.5955 24.9623 16.8817 25.6774 16.8101H25.7489C26.1779 16.8101 26.5354 16.8817 26.9645 17.0247H27.036C27.751 17.4539 28.1801 18.0977 28.3946 18.8131C28.6091 19.3853 28.6806 19.9576 28.7521 20.6014C28.7521 21.0306 28.6806 21.4598 28.4661 21.8175C28.18 22.3182 28.037 22.8905 28.037 23.4627C28.037 23.6058 28.037 23.7489 28.1085 23.8919C28.2516 24.4642 28.6091 24.9649 29.1096 25.3226H29.1811C30.1107 26.0379 30.7542 27.1109 30.8972 28.2555C30.8972 28.2555 30.8972 28.2555 30.8972 28.1839C30.5397 27.1109 29.8962 26.1095 28.8951 25.4657C28.8236 25.3941 28.6091 25.3226 28.5376 25.3941C28.4661 25.4657 28.4661 25.5372 28.4661 25.6087C28.4661 25.6803 28.4661 25.6803 28.4661 25.7518C28.5376 26.0379 28.7521 26.3241 28.9666 26.5387C29.2526 26.8248 29.3956 27.254 29.3956 27.6117C29.3956 27.9693 29.5386 28.3985 29.7532 28.6847C29.4671 28.3985 29.3241 28.0409 29.2526 27.6117C29.1811 27.254 28.9666 26.8963 28.7521 26.6102C28.3231 26.181 28.037 25.7518 27.894 25.1795C27.8225 24.9649 27.8225 24.8219 27.8225 24.6073C27.8225 24.3927 27.751 24.1781 27.751 23.9635C27.6795 23.7489 27.6795 23.4627 27.6795 23.2481C27.6795 22.6759 27.8225 22.1751 28.1801 21.6744C28.3946 21.3167 28.5376 20.8875 28.5376 20.5299C28.5376 20.0291 28.3946 19.5284 28.2516 19.0277C27.751 17.7401 27.036 17.2393 25.8919 17.2393C24.9623 17.3824 24.0328 16.9532 23.4607 16.2379C23.1032 15.6656 22.6742 15.1649 22.1021 14.6641C21.2441 13.9488 20.1 13.5196 18.8844 13.5911C18.7414 13.5911 18.6699 13.6627 18.5984 13.7342C18.5984 13.8057 18.5984 13.8057 18.5984 13.8773C18.5984 13.9488 18.5984 14.0203 18.6699 14.0203C19.2419 14.8072 20.1715 15.3079 21.1726 15.3079C21.7446 15.3795 22.0306 15.7371 22.2451 16.2379C22.4597 16.7386 22.8887 17.2393 23.3177 17.597C23.8183 17.8831 24.1758 18.2408 24.4618 18.7415C24.6048 18.9561 24.7478 19.0277 24.9623 19.0277H25.0338L25.3199 19.0992H25.3914C25.4629 19.0992 25.5344 19.1707 25.6059 19.1707C26.3924 19.5284 26.9645 20.3153 26.9645 21.2452C26.9645 21.3167 26.9645 21.3167 26.9645 21.3167V21.2452C26.8215 20.3153 26.1064 19.5284 25.1768 19.3853C25.0338 19.3853 24.8908 19.3853 24.8193 19.4569C24.7478 19.5284 24.6763 19.5999 24.6763 19.6715V19.743C24.6763 20.4583 24.2473 21.0306 23.6752 21.3883C23.1032 21.7459 22.6742 22.3182 22.5312 22.962C22.5312 23.0335 22.5312 23.0335 22.5312 23.1051C22.6027 23.8919 22.8887 24.6073 23.3892 25.1795C23.5322 25.3226 23.6752 25.4657 23.8898 25.5372L24.1758 25.6803C24.6048 25.9664 24.8193 26.3956 24.9623 26.8963L25.1053 27.254C25.2484 27.5401 25.4629 27.8263 25.7489 27.9693L25.8204 28.0409C26.3924 28.3985 26.75 28.6847 26.893 29.3285C26.6069 28.7562 26.1779 28.327 25.6059 28.1124C25.3199 27.9693 25.1053 27.8263 24.9623 27.5401V27.6117C24.7478 27.1825 24.5333 26.7533 24.2473 26.3956C24.1758 26.3241 24.1043 26.3241 24.0328 26.3241C23.8898 26.3241 23.8183 26.4671 23.8183 26.5387L23.6037 26.7533L23.3892 27.254C23.3177 27.5401 23.2462 27.8263 23.2462 28.1839C23.2462 28.4701 23.3177 28.7562 23.3892 29.0423L23.4607 29.1854C23.6752 29.5431 23.8183 29.9007 23.9613 30.2584V30.3299C23.9613 30.3299 23.9613 30.2584 23.8898 30.2584C23.6752 29.9007 23.4607 29.4715 23.2462 29.1139C23.0317 28.8277 22.8887 28.3985 22.8172 28.0409C22.8172 27.6117 22.9602 27.1825 23.1032 26.8248C23.1747 26.6817 23.1747 26.5387 23.1747 26.3956C23.1747 26.181 23.1032 26.0379 22.9602 25.8233C22.6742 25.4657 22.4597 25.108 22.2451 24.7503C21.6731 23.7489 21.3871 22.3182 23.0317 21.3167C23.5322 21.0306 23.8183 20.5299 23.8898 19.9576C23.8183 19.2423 23.3892 18.5985 22.7457 18.2408C22.1021 17.8116 21.6016 17.2393 21.3156 16.524C21.2441 16.3809 21.1726 16.3094 21.0296 16.3809C20.9581 16.3809 20.8866 16.524 20.8866 16.5955C20.8866 16.6671 20.8866 16.6671 20.8866 16.7386C20.8866 17.3109 20.6005 17.8831 20.1715 18.2408C19.5995 18.67 19.1704 19.3138 18.9559 20.0291C18.8844 20.3153 18.8129 20.5299 18.8129 20.816C18.8129 20.9591 18.8129 21.0306 18.8129 21.1737C18.9559 21.6744 19.1704 22.1751 19.4565 22.6043C19.7425 22.962 19.8855 23.3912 19.957 23.8204V23.7489C19.814 23.3197 19.5995 22.962 19.3134 22.6759C18.9559 22.2467 18.6699 21.7459 18.5269 21.2452C18.5269 21.1737 18.4554 21.1021 18.4554 21.0306L18.3839 20.9591C18.3124 20.9591 18.2409 20.8875 18.1694 20.8875C17.8118 20.8875 17.4543 21.0306 17.1683 21.2452C16.8823 21.4598 16.7393 21.7459 16.7393 22.0321C16.7393 22.1751 16.8108 22.3182 16.8108 22.4613C17.0968 23.1766 17.2398 23.8919 17.3828 24.6073L17.4543 24.9649C17.5258 25.2511 17.5973 25.3941 17.8118 25.3941C18.5984 25.6087 19.4565 25.8949 20.1715 26.3241C19.4565 26.0379 18.7414 25.8233 17.9549 25.6803C17.8834 25.6803 17.8118 25.6803 17.7403 25.7518C17.6688 25.8233 17.6688 25.8949 17.6688 25.9664C17.9549 27.1109 18.3839 28.1839 18.8844 29.1854C18.3839 28.3985 18.0264 27.6117 17.7403 26.7533C17.4543 25.9664 17.2398 25.1795 17.0253 24.3927C16.8823 23.8919 16.7393 23.3197 16.5248 22.8189L16.3818 22.5328C16.4533 22.3182 16.4533 22.1751 16.4533 21.9605C16.4533 21.7459 16.5248 21.5313 16.5963 21.3883C16.9538 20.8875 17.4543 20.4583 18.0979 20.3868C18.3839 20.3153 18.6699 20.0291 18.7414 19.743C18.9559 19.0277 19.4565 18.3839 20.0285 17.8831C20.3145 17.597 20.529 17.1678 20.529 16.7386C20.529 16.6671 20.529 16.5955 20.529 16.524C20.529 16.2379 20.3145 15.9517 20.0285 15.8087C19.0989 15.5225 18.3124 14.9503 17.8118 14.1634C17.7403 13.9488 17.4543 13.8057 17.1683 13.8057C16.7393 13.8773 16.3818 14.0919 16.0957 14.378C15.9527 14.5211 15.8812 14.7357 15.8812 14.9503V15.0218V15.5941V15.9517C15.8812 16.0233 15.8812 16.0233 15.8812 16.0948C15.8097 16.5955 15.6667 17.1678 15.3807 17.597C15.2377 17.8831 15.1662 18.1693 15.1662 18.3839C15.1662 18.4554 15.1662 18.4554 15.1662 18.5269C15.1662 18.7415 15.1662 18.9561 15.1662 19.1707C15.2377 19.8145 15.0232 20.4583 14.5941 20.9591C14.8801 20.4583 15.0232 19.9576 14.9517 19.4569C14.9517 19.1707 14.9517 18.8131 14.8801 18.5269V18.3839C14.8801 18.3123 14.8801 18.2408 14.8801 18.1693C14.8801 17.8831 14.9517 17.6685 15.0232 17.3824L15.0947 17.1678C15.1662 16.9532 15.2377 16.8101 15.3092 16.5955C15.3807 16.4525 15.3807 16.3094 15.3807 16.1663C15.3807 15.9517 15.3807 15.6656 15.3092 15.3795C15.3092 15.2364 15.2377 15.0933 15.0947 15.0218C14.9517 14.9503 14.8086 14.9503 14.7371 14.9503C13.5216 15.3079 12.449 16.0948 11.6624 17.1678C12.2345 15.9517 13.3785 15.0218 14.6656 14.5926C14.9517 14.5211 15.1662 14.378 15.3092 14.2349C15.6667 14.1634 15.8812 13.9488 16.2387 13.8057Z" fill="#002856"/>
<path d="M16.5252 27.1822C16.2392 27.1106 16.0962 26.896 15.8101 26.5384C15.7386 26.4668 15.6671 26.4668 15.5956 26.3953C15.3811 26.1807 15.1666 25.9661 14.9521 25.7515C14.6661 25.5369 14.38 25.3938 14.094 25.1792C13.4505 24.9646 13.236 24.3208 13.093 24.0347C12.9499 23.7486 12.7354 23.4624 12.5924 23.1763C12.5924 23.2478 12.3064 22.7471 12.2349 22.6756C12.1634 22.604 11.8774 22.3894 11.9489 22.5325C12.0204 22.7471 12.0919 22.8902 12.1634 23.0332C12.3064 23.2478 12.4494 23.4624 12.5209 23.677C12.6639 23.8916 12.8069 24.1062 12.9499 24.3924C13.1645 24.75 13.379 25.1077 13.522 25.3223C13.665 25.6084 13.808 25.9661 13.8795 26.2522C14.0225 26.753 14.1655 27.3252 14.38 27.826C14.4515 27.8975 14.4515 27.8975 14.4515 27.8975C14.4515 27.8975 14.4515 27.826 14.4515 27.7544C14.237 27.1822 14.094 26.5384 14.0225 25.8946C14.0225 25.7515 14.0225 25.68 14.094 25.68C14.1655 25.68 14.237 25.68 14.4515 25.7515C14.8806 26.0376 15.2381 26.3953 15.5956 26.753C15.8101 27.0391 16.1677 27.2537 16.5967 27.3252C16.6682 27.3252 16.7397 27.3252 16.7397 27.3252C16.5967 27.4683 16.5967 27.1822 16.5252 27.1822Z" fill="white"/>
</g>
<path d="M20.5213 36.4107C11.7977 36.4107 4.71875 29.3289 4.71875 20.6018C4.71875 11.8748 11.7977 4.79297 20.5213 4.79297C29.2449 4.79297 36.3239 11.8748 36.3239 20.6018C36.3239 29.3289 29.2449 36.4107 20.5213 36.4107ZM20.5213 5.2937C12.0837 5.2937 5.21928 12.1609 5.21928 20.6018C5.21928 29.0428 12.0837 35.91 20.5213 35.91C28.9589 35.91 35.8234 29.0428 35.8234 20.6018C35.8234 12.1609 28.9589 5.36524 20.5213 5.2937Z" fill="#002856"/>
<path d="M47.8342 4.79297H49.1213L52.6966 13.0193H51.195L50.3369 11.0164H46.4757L45.6176 13.0193H44.1875L47.8342 4.79297ZM49.9079 9.8003L48.4778 6.50977L47.0477 9.8003H49.9079Z" fill="#002856"/>
<path d="M54.2746 4.86523H55.7762L58.2789 8.72803L60.7816 4.86523H62.2832V13.02H60.8531V7.1543L58.2789 11.0171H58.2074L55.6332 7.22583V13.0916H54.2031L54.2746 4.86523Z" fill="#002856"/>
<path d="M64.5 4.86523H70.5064V6.15283H65.9301V8.29883H70.0059V9.58643H65.9301V11.804H70.5779V13.0916H64.5V4.86523Z" fill="#002856"/>
<path d="M72.3672 4.86432H76.0139C76.872 4.79278 77.7301 5.07892 78.3736 5.65119C78.8026 6.15192 79.0886 6.72418 79.0171 7.43952C79.0886 8.65558 78.2306 9.65705 77.0865 9.87165L79.3032 12.9476H77.587L75.5849 10.0863H73.7973V12.9476H72.3672V4.86432ZM75.9424 8.94172C76.9435 8.94172 77.587 8.36945 77.587 7.58258C77.587 6.72418 76.9435 6.22345 75.8709 6.22345H73.7973V8.94172H75.9424Z" fill="#002856"/>
<path d="M81.0156 4.86523H82.4457V13.02H81.0156V4.86523Z" fill="#002856"/>
<path d="M84.3771 8.94207C84.3056 6.653 86.0932 4.79314 88.3813 4.7216C88.4528 4.7216 88.5244 4.7216 88.5244 4.7216C89.7399 4.65007 90.884 5.1508 91.7421 6.0092L90.8125 7.0822C90.2405 6.4384 89.3824 6.08074 88.5244 6.08074C87.0228 6.08074 85.8072 7.36834 85.8072 8.87054V8.94207C85.7357 10.4443 86.9512 11.7319 88.4528 11.8034H88.5244C89.3824 11.8034 90.2405 11.4457 90.884 10.7304L91.8136 11.6603C90.9555 12.5903 89.7399 13.1625 88.5244 13.091C86.2362 13.091 84.3771 11.3027 84.3771 9.0136C84.3771 9.0136 84.3771 9.0136 84.3771 8.94207Z" fill="#002856"/>
<path d="M96.3174 4.79297H97.676L101.251 13.0193H99.7497L98.8916 11.0164H95.0303L94.1723 13.0193H92.7422L96.3174 4.79297ZM98.3911 9.8003L96.961 6.50977L95.5309 9.8003H98.3911Z" fill="#002856"/>
<path d="M102.75 4.86523H104.109L108.47 10.5164V4.86523H109.9V13.02H108.685L104.18 7.22583V13.02H102.75V4.86523Z" fill="#002856"/>
<path d="M44.5489 20.6022C44.4774 18.3132 46.3365 16.4533 48.5531 16.3818C48.6246 16.3818 48.6962 16.3818 48.6962 16.3818C49.9117 16.3102 51.0558 16.811 51.9139 17.6694L50.9843 18.6708C50.4123 18.027 49.5542 17.6694 48.6962 17.6694C47.1946 17.6694 45.979 18.957 45.979 20.4592V20.5307C45.9075 22.0329 47.123 23.3205 48.6246 23.392H48.6962C49.5542 23.392 50.4123 23.0344 51.0558 22.319L51.9854 23.249C51.1273 24.1789 49.9117 24.7512 48.6962 24.6796C46.408 24.6796 44.5489 22.8913 44.5489 20.6022C44.5489 20.6738 44.5489 20.6738 44.5489 20.6022Z" fill="#002856"/>
<path d="M53.0547 20.6016C53.3407 18.241 55.4859 16.5958 57.8455 16.8819C59.7761 17.0965 61.3493 18.6702 61.5638 20.6016C61.2777 22.9622 59.1326 24.6075 56.7729 24.3214C54.8423 24.1068 53.2692 22.6046 53.0547 20.6016ZM60.0622 20.6016C60.1337 19.0279 58.9181 17.7403 57.4165 17.7403H57.345C55.8434 17.7403 54.6278 18.9564 54.6278 20.5301V20.6016C54.5563 22.1038 55.7719 23.3914 57.345 23.463H57.4165C58.9181 23.463 60.1337 22.2469 60.1337 20.7447C60.0622 20.6732 60.0622 20.6732 60.0622 20.6016Z" fill="#002856"/>
<path d="M63.4219 16.5234H64.852V23.3906H69.1423V24.6782H63.4219V16.5234Z" fill="#002856"/>
<path d="M70.7891 16.5234H72.2192V23.3906H76.5095V24.6782H70.7891V16.5234Z" fill="#002856"/>
<path d="M78.0859 16.5234H84.0923V17.811H79.516V19.957H83.5918V21.2446H79.516V23.4622H84.1638V24.7498H78.0859V16.5234Z" fill="#002856"/>
<path d="M85.663 20.6013C85.663 18.3122 87.4506 16.4523 89.7388 16.3808C89.8103 16.3808 89.8103 16.3808 89.8818 16.3808C91.0259 16.3093 92.1699 16.7385 93.028 17.4538L92.0984 18.5983C91.4549 18.0261 90.6683 17.6684 89.8103 17.7399C88.3087 17.8115 87.0931 19.0991 87.1646 20.6013C87.0931 22.1035 88.1657 23.3911 89.6673 23.5341C89.7388 23.5341 89.8103 23.5341 89.8818 23.5341C90.5968 23.5341 91.2404 23.3195 91.8839 22.8903V21.3881H89.8103V20.1005H93.314V23.5341C92.3845 24.321 91.1689 24.8217 89.8818 24.8217C87.6651 24.8933 85.7345 23.1765 85.663 20.9589C85.5915 20.8159 85.5915 20.7443 85.663 20.6013Z" fill="#002856"/>
<path d="M95.2422 16.5234H101.249V17.811H96.6723V19.957H100.748V21.2446H96.6723V23.4622H101.32V24.7498H95.2422V16.5234Z" fill="#002856"/>
<path d="M106.258 21.6044C106.258 19.8161 107.688 18.3854 109.476 18.3854H109.547C111.335 18.3139 112.765 19.7445 112.836 21.4613V21.5329C112.765 23.3212 111.192 24.7519 109.404 24.6803C107.688 24.6803 106.329 23.3212 106.258 21.6044ZM111.406 21.6044C111.478 20.5314 110.62 19.673 109.619 19.6014H109.547C108.546 19.6014 107.688 20.3883 107.688 21.4613C107.688 21.5329 107.688 21.5329 107.688 21.6044C107.616 22.6774 108.403 23.5358 109.476 23.6073H109.547C110.548 23.6073 111.406 22.8204 111.406 21.7474C111.406 21.7474 111.406 21.6759 111.406 21.6044Z" fill="#002856"/>
<path d="M114.693 19.7427H113.906V18.5981H114.693V18.1689C114.621 17.5967 114.836 17.0959 115.193 16.6667C115.551 16.3091 116.051 16.166 116.552 16.166C116.909 16.166 117.338 16.2375 117.696 16.3091V17.5251C117.41 17.4536 117.124 17.3821 116.838 17.3821C116.266 17.3821 116.051 17.6682 116.051 18.312V18.6697H117.696V19.7427H116.123V24.6785H114.693V19.7427Z" fill="#002856"/>
<path d="M44.5489 32.2604C44.4774 29.9714 46.3365 28.1115 48.5531 28.04C48.6246 28.04 48.6962 28.04 48.6962 28.04C49.9117 27.9684 51.0558 28.4692 51.9139 29.3276L50.9843 30.4006C50.4123 29.7568 49.5542 29.3991 48.6962 29.3991C47.1946 29.3991 45.979 30.6867 45.979 32.1889V32.2604C45.9075 33.7626 47.123 35.0502 48.6246 35.1218H48.6962C49.5542 35.1218 50.4123 34.7641 51.0558 34.0488L51.9854 34.9787C51.1273 35.9086 49.9117 36.4809 48.6962 36.4094C46.4795 36.4094 44.6204 34.5495 44.5489 32.2604Z" fill="#002856"/>
<path d="M56.5608 28.1113H57.8479L61.4231 36.3377H59.9215L59.0635 34.3347H55.2022L54.3442 36.3377H52.9141L56.5608 28.1113ZM58.5629 33.1187L57.1328 29.8281L55.7743 33.1187H58.5629Z" fill="#002856"/>
<path d="M62.9922 28.1846H66.6389C67.497 28.1131 68.3551 28.3992 68.9986 28.9715C69.4276 29.4722 69.7136 30.0445 69.7136 30.7598C69.7136 31.9759 68.9271 32.9774 67.783 33.2635L69.9997 36.3394H68.2835L66.2814 33.4781H64.4938V36.3394H63.0637L62.9922 28.1846ZM66.4959 32.1905C67.497 32.1905 68.1405 31.6898 68.1405 30.8314C68.1405 29.973 67.497 29.4722 66.4244 29.4722H64.3508V32.1905H66.4959Z" fill="#002856"/>
<path d="M71.5078 28.1836H74.511C77.0852 28.1836 78.8728 29.9719 78.8728 32.261C78.8728 34.4785 77.0852 36.3384 74.797 36.3384C74.7255 36.3384 74.654 36.3384 74.511 36.3384H71.5078V28.1836ZM72.9379 29.4712V35.0508H74.511C75.9411 35.1939 77.2282 34.0493 77.3712 32.6187C77.3712 32.5471 77.3712 32.4041 77.3712 32.3325C77.4427 30.8303 76.2986 29.6143 74.797 29.5427C74.7255 29.5427 74.5825 29.5427 74.511 29.5427L72.9379 29.4712Z" fill="#002856"/>
<path d="M80.7969 28.1836H82.227V36.3384H80.7969V28.1836Z" fill="#002856"/>
<path d="M84.1641 32.2616C84.1641 29.9725 86.0232 28.0411 88.3113 28.0411C88.3829 28.0411 88.3828 28.0411 88.4544 28.0411C90.7425 27.9696 92.6016 29.7579 92.6731 32.047C92.6731 32.1185 92.6731 32.1185 92.6731 32.1901C92.6731 34.4791 90.814 36.4105 88.5259 36.4105C88.4544 36.4105 88.4544 36.4105 88.3828 36.4105C86.0947 36.4821 84.2356 34.6222 84.1641 32.3331C84.1641 32.3331 84.1641 32.3331 84.1641 32.2616ZM91.1715 32.2616C91.243 30.6879 90.099 29.4003 88.5259 29.3287C88.4544 29.3287 88.4544 29.3287 88.3828 29.3287C86.8812 29.3287 85.6657 30.5448 85.6657 32.1185V32.1901C85.5942 33.6923 86.8097 34.9799 88.3828 35.0514H88.4544C89.956 35.0514 91.1715 33.8353 91.1715 32.2616Z" fill="#002856"/>
<path d="M94.5312 28.1836H95.9613V35.0508H100.252V36.3384H94.5312V28.1836Z" fill="#002856"/>
<path d="M101.039 32.2616C101.039 29.9725 102.898 28.0411 105.186 28.0411C105.258 28.0411 105.258 28.0411 105.329 28.0411C107.618 27.9696 109.477 29.7579 109.548 32.047C109.548 32.1185 109.548 32.1185 109.548 32.1901C109.262 34.5507 107.117 36.2675 104.757 35.9813C102.827 35.7667 101.254 34.193 101.039 32.2616ZM108.047 32.2616C108.118 30.6879 106.974 29.4003 105.401 29.3287C105.329 29.3287 105.329 29.3287 105.258 29.3287C103.756 29.3287 102.469 30.5448 102.469 32.047C102.469 32.1185 102.469 32.1185 102.469 32.1901C102.398 33.7638 103.613 34.9799 105.186 35.0514H105.258C106.831 35.0514 108.047 33.8353 108.047 32.2616Z" fill="#002856"/>
<path d="M111.047 32.2614C111.047 29.9723 112.834 28.1125 115.123 28.0409C115.194 28.0409 115.194 28.0409 115.266 28.0409C116.41 27.9694 117.554 28.3986 118.412 29.1139L117.482 30.1869C116.839 29.6147 116.052 29.257 115.194 29.257C113.693 29.3285 112.477 30.6161 112.548 32.1183C112.477 33.6205 113.55 34.9081 115.051 35.0512C115.123 35.0512 115.194 35.0512 115.337 35.0512C116.052 35.0512 116.696 34.8366 117.339 34.4074V32.9052H115.266V31.6891H118.769V35.1227C117.84 35.9811 116.624 36.4103 115.337 36.4103C113.121 36.4819 111.19 34.7651 111.118 32.5475C111.047 32.5475 111.047 32.4045 111.047 32.2614Z" fill="#002856"/>
<path d="M122.702 33.1194L119.484 28.1836H121.2L123.489 31.7603L125.777 28.1836H127.421L124.204 33.1194V36.3384H122.774L122.702 33.1194Z" fill="#002856"/>
<path d="M125.853 34.8367C125.853 33.9783 126.568 33.1914 127.426 33.1914C128.284 33.1914 128.999 33.9067 128.999 34.7651C129.07 35.6235 128.355 36.4104 127.497 36.4819C126.639 36.5535 125.853 35.8381 125.781 34.9797C125.853 34.9797 125.853 34.9082 125.853 34.8367ZM128.856 34.8367C128.856 34.0498 128.212 33.406 127.426 33.406C126.639 33.406 125.996 34.0498 125.996 34.8367C125.996 35.6235 126.639 36.2673 127.426 36.2673C128.212 36.2673 128.856 35.552 128.856 34.8367ZM126.782 33.9783H127.569C127.998 33.9783 128.284 34.1213 128.284 34.5505C128.284 34.7651 128.141 34.9797 127.926 35.0513L128.355 35.6235H127.855L127.497 35.1228H127.211V35.6235H126.782V33.9783ZM127.569 34.7651C127.783 34.7651 127.855 34.6936 127.855 34.5505C127.855 34.4075 127.712 34.3359 127.569 34.3359H127.211V34.7651H127.569Z" fill="#002856"/>
</svg>
