<svg width="116" height="31" viewBox="0 0 116 31" fill="none" xmlns="http://www.w3.org/2000/svg">
<g clip-path="url(#clip0_5660_15263)">
<path d="M17.0998 1.83769C17.0557 1.75883 16.9943 1.69135 16.9202 1.64051C16.8461 1.58968 16.7615 1.55686 16.6729 1.54462C16.5245 1.52609 16.374 1.54295 16.2333 1.59383C16.0925 1.64471 15.9654 1.72822 15.8622 1.83769C15.7369 1.97552 15.6692 2.15709 15.673 2.34441C15.3941 2.4916 15.1234 2.65436 14.8623 2.83195C14.8623 2.51696 14.8623 2.20198 14.8623 1.88699C14.8623 1.80482 14.9379 1.77195 14.9812 1.72265C15.0945 1.62122 15.1819 1.49353 15.236 1.35045C15.2902 1.20738 15.3093 1.05316 15.2919 0.900953C15.2757 0.641272 15.1592 0.398534 14.9676 0.22537C14.776 0.0522062 14.5247 -0.0374253 14.2683 -0.02409C14.0119 -0.0107547 13.7711 0.104472 13.598 0.296607C13.4248 0.488742 13.3334 0.742297 13.3435 1.0023C13.3428 1.16304 13.3802 1.32161 13.4527 1.46462C13.5251 1.60763 13.6304 1.73089 13.7597 1.824C13.7597 2.42384 13.8029 3.02368 13.811 3.62352C13.1892 4.10483 12.7112 4.75144 12.4301 5.49152C12.2354 6.11981 12.2602 6.7969 12.5004 7.40882C12.8405 8.21956 13.3419 8.95055 13.9732 9.55619C14.0002 9.88487 13.9948 10.2163 14.0083 10.5477C14.0624 12.5216 14.1137 14.4964 14.1623 16.4722C13.2671 17.2153 12.5314 18.1362 12.0004 19.1783C11.6599 19.8948 11.525 20.694 11.6113 21.4845C11.5357 22.4749 11.7253 23.4675 12.1599 24.3577C12.6769 25.2971 13.4772 26.0439 14.4434 26.4887C14.4776 27.7212 14.5083 28.9547 14.5353 30.1891C14.6145 30.1932 14.6939 30.1932 14.7731 30.1891C14.7731 29.0086 14.7731 27.8281 14.792 26.6503C15.0076 26.6377 15.217 26.5729 15.4027 26.4613C15.4527 26.4251 15.4903 26.3739 15.5102 26.315C15.53 26.256 15.5312 26.1923 15.5135 26.1326C15.464 25.9805 15.3808 25.8418 15.2703 25.7272C15.1136 25.615 14.9406 25.53 14.792 25.4013C14.8055 22.7801 14.8055 20.1589 14.8163 17.5376C15.8601 16.4482 16.5243 15.0431 16.708 13.536C16.6512 12.1665 16.2459 10.7586 15.3325 9.71779C15.1808 9.55361 15.0202 9.39815 14.8515 9.25216L14.8623 3.83442C15.3109 3.53587 15.8297 3.34414 16.2297 2.96616C16.3914 2.99509 16.558 2.96501 16.6999 2.88125C16.8976 2.74136 17.0395 2.53444 17.0998 2.29784C17.1596 2.15044 17.1596 1.98509 17.0998 1.83769ZM13.0084 6.19818C13.0201 5.88149 13.0985 5.57099 13.2383 5.28754C13.3781 5.00409 13.5762 4.75424 13.8191 4.55478C13.8543 5.79828 13.8921 7.04453 13.9245 8.28804C13.4489 7.68819 13.0219 6.98427 13.0084 6.19818ZM12.8868 23.6483C12.566 23.2171 12.3477 22.7165 12.2491 22.1857C12.1579 21.6016 12.2319 21.0033 12.4625 20.4602C12.7679 19.7591 13.1995 19.1219 13.7354 18.5812C13.8818 18.42 14.0379 18.2682 14.2029 18.1265C14.2704 20.4629 14.3407 22.8047 14.4029 25.1384C13.8256 24.7229 13.3143 24.2204 12.8868 23.6483ZM15.7595 12.2651C15.9066 12.8683 15.8954 13.5 15.727 14.0975C15.5406 14.7229 15.2338 15.3047 14.8244 15.8093C14.8244 14.018 14.8298 12.2267 14.8406 10.4354C15.2686 10.9742 15.5815 11.5973 15.7595 12.2651Z" fill="#A72A24"/>
<path d="M0.000190608 15.8427C0.000190608 11.1152 0.000190608 6.38767 0.000190608 1.66016H11.8015C11.8069 1.74132 11.8069 1.82276 11.8015 1.90393C10.418 2.13748 9.07983 2.59235 7.83712 3.25152C6.74989 3.8343 5.74088 4.55598 4.83476 5.39889C3.88386 6.26683 3.04 7.24812 2.32154 8.3214C1.56514 9.46412 0.983843 10.7163 0.597418 12.0355C0.293111 13.0745 0.10457 14.1448 0.0353216 15.2264C0.0100676 15.4345 -0.00166801 15.644 0.000190608 15.8537" fill="#A72A24"/>
<path d="M17.2188 1.66016H28.9444C28.9444 5.61892 28.9444 9.57678 28.9444 13.5337C28.9444 14.2979 28.9444 15.0621 28.9444 15.829C28.9126 14.3366 28.6528 12.8583 28.1742 11.4466C27.6958 10.0678 27.0063 8.77375 26.1312 7.612C25.4212 6.67286 24.615 5.81258 23.7261 5.04556C22.6323 4.08841 21.3978 3.31028 20.0671 2.73932C19.1541 2.35994 18.2025 2.08435 17.2296 1.91762C17.2296 1.83545 17.2296 1.75602 17.2296 1.67385" fill="#00923F"/>
<path d="M0 19.357C0 18.5353 0 17.6862 0 16.8535C0.0410833 18.4669 0.34798 20.062 0.908002 21.5728C1.40943 22.8932 2.10556 24.1288 2.97263 25.2376C4.43314 27.1489 6.31707 28.6849 8.47199 29.7213C10.1838 30.5125 12.0364 30.943 13.9173 30.9868C13.4471 31.0059 12.9742 30.9868 12.5012 31.0005H0V19.357Z" fill="#0093DD"/>
<path d="M27.8178 22.1506C28.5134 20.4948 28.8947 18.7209 28.942 16.9219C28.9555 19.1925 28.942 21.4631 28.942 23.731V30.9976C24.9532 30.9976 20.9654 30.9976 16.9785 30.9976C16.3407 30.9976 15.7003 30.9976 15.0625 30.9976C17.0944 30.9507 19.0911 30.4503 20.9105 29.5322C22.4003 28.7652 23.7501 27.7463 24.9019 26.5193C26.126 25.2566 27.1123 23.7779 27.8124 22.1561" fill="#C8AC59"/>
<path d="M95.9812 21.5173C95.5191 20.5012 95.1299 19.4494 94.6813 18.4277L94.5597 18.4579C94.2219 19.2385 93.9003 20.0246 93.5652 20.8079C93.3734 21.2297 93.2572 21.7611 92.7734 21.9337C93.1627 21.9693 93.5543 21.9693 93.9436 21.9337C93.7949 21.846 93.5544 21.846 93.4977 21.6598C93.565 21.3529 93.6761 21.0577 93.8274 20.7833H95.1488C95.2839 21.0597 95.3837 21.3524 95.4461 21.6543C95.4245 21.8487 95.1759 21.8159 95.0516 21.8953C95.5366 21.9747 96.0312 21.9747 96.5162 21.8953C96.3001 21.8378 96.0623 21.7556 95.9812 21.5173ZM93.8976 20.6107H93.8814C94.0611 20.1432 94.2659 19.686 94.4949 19.2412C94.6921 19.6877 94.8732 20.1423 95.0624 20.6107H93.8976Z" fill="#A72A24"/>
<path d="M105.375 18.4969C105.686 18.475 105.997 18.4969 106.307 18.4969C107.005 19.346 107.659 20.2335 108.394 21.0579C108.394 20.3156 108.426 19.5706 108.377 18.8284C108.377 18.6092 108.107 18.5983 107.958 18.5791V18.4586C108.34 18.4586 108.723 18.4586 109.11 18.475C108.948 18.5983 108.621 18.5764 108.642 18.8558C108.604 19.913 108.642 20.973 108.621 22.033C108.185 21.5764 107.776 21.0944 107.396 20.5895L106.278 19.2036V21.1812C106.264 21.3735 106.286 21.5668 106.342 21.7509C106.496 21.8166 106.653 21.8632 106.81 21.9207C106.38 21.9508 105.948 21.9508 105.518 21.9207C105.653 21.8741 105.788 21.8221 105.921 21.7701C106.053 21.718 106.032 21.4962 106.051 21.3647C106.051 20.543 106.067 19.7213 106.051 18.8996C105.921 18.6257 105.602 18.6092 105.389 18.4531" fill="#A72A24"/>
<path d="M101.724 27.3135C101.27 26.2781 100.859 25.2264 100.421 24.1855C100.263 24.3949 100.143 24.6315 100.067 24.884L100.046 24.9004C99.6889 25.7413 99.3646 26.6096 98.9646 27.4313C98.9187 27.5901 98.6944 27.5929 98.6484 27.7326C98.9727 27.8668 99.3403 27.7791 99.6835 27.7791C99.5321 27.7024 99.3835 27.6339 99.2322 27.571C99.2996 27.2421 99.4133 26.9248 99.57 26.6287H100.889C101.047 26.9172 101.152 27.233 101.197 27.56C101.081 27.6291 100.97 27.7041 100.862 27.7846H102.213V27.7024C102.105 27.6871 102.003 27.643 101.917 27.5747C101.831 27.5064 101.764 27.4163 101.724 27.3135ZM99.6402 26.4425C99.8267 26.0015 99.9969 25.5523 100.202 25.1223L100.254 25.1004C100.451 25.5386 100.627 25.9905 100.808 26.4425H99.6402Z" fill="#A72A24"/>
<path d="M37.6302 6.7865C38.2424 5.94837 39.1172 5.34582 40.1114 5.0776C41.1057 4.80938 42.1603 4.89138 43.1025 5.31018C43.3728 5.42248 43.7295 5.7046 44.0187 5.46357C44.2565 5.31292 44.1916 4.80621 44.5591 4.91577C44.6105 5.98124 44.6997 7.04123 44.7618 8.1067L44.5294 8.04918C44.3405 7.35678 43.9913 6.7201 43.5106 6.19214C42.3026 5.00889 40.0732 5.15132 39.076 6.53725C38.295 7.61916 38.1545 9.02153 38.1977 10.3253C38.2518 11.3223 38.5112 12.3768 39.2219 13.1109C39.6853 13.5546 40.2591 13.8622 40.8817 14.0007C41.5044 14.1392 42.1525 14.1033 42.7566 13.8969C43.6214 13.6066 44.2105 12.8561 44.7267 12.1412C44.8023 12.1878 44.878 12.2316 44.951 12.2809C44.4646 13.1465 43.7808 13.9682 42.8458 14.3571C41.8246 14.7522 40.7028 14.7918 39.657 14.4694C38.2707 14.075 37.2249 12.8096 36.8465 11.4154C36.6321 10.633 36.5912 9.81226 36.7266 9.01196C36.8621 8.21165 37.1707 7.45166 37.6302 6.7865Z" fill="#A72A24"/>
<path d="M54.8792 8.66787C54.7377 7.94254 54.4323 7.26032 53.9868 6.67482C53.5414 6.08931 52.968 5.61646 52.3119 5.29342C51.5006 4.92441 50.5984 4.81178 49.723 4.97022C49.1056 5.07998 48.5172 5.31729 47.9941 5.66739C47.4711 6.01749 47.0248 6.47289 46.6828 7.00529C46.0887 7.97023 45.8309 9.10914 45.9505 10.2401C45.9746 10.8732 46.1235 11.4951 46.3886 12.069C46.6536 12.6429 47.0293 13.1572 47.4935 13.5816C48.0674 14.0908 48.7606 14.4421 49.5068 14.6018C50.2531 14.7615 51.0272 14.7243 51.7552 14.4937C52.8428 14.1314 53.7606 13.3757 54.3333 12.371C54.9367 11.2392 55.1299 9.92897 54.8792 8.66787ZM53.3739 10.8043C53.2847 11.7629 53.0226 12.7846 52.293 13.4584C51.3174 14.4252 49.5365 14.4745 48.5988 13.4255C47.7611 12.4888 47.5178 11.1768 47.4908 9.95246C47.4692 8.77469 47.607 7.5257 48.2799 6.53145C48.6099 6.02004 49.1155 5.65107 49.6987 5.49611C50.1192 5.38202 50.5602 5.36891 50.9867 5.45783C51.4131 5.54674 51.8132 5.73522 52.1551 6.0083C52.7066 6.54519 53.0789 7.24328 53.2199 8.00503C53.4061 8.92545 53.458 9.86859 53.3739 10.8043Z" fill="#A72A24"/>
<path d="M75.3569 14.1962C75.0274 14.1663 74.7218 14.0094 74.503 13.7579C74.2245 13.35 73.9976 12.9083 73.8274 12.4432C72.7951 9.93153 71.7493 7.42534 70.7223 4.9082H70.4521L67.5011 11.8981C67.2119 12.5528 66.9849 13.243 66.558 13.8154C66.3634 14.0893 66.0175 14.1523 65.704 14.2181L65.6797 14.492H68.1956C68.3291 14.5048 68.4637 14.4927 68.5929 14.4564C68.6983 14.1249 68.2767 14.2372 68.0956 14.1633C67.7767 14.1386 67.4362 13.8401 67.5551 13.4813C67.7389 12.7417 68.1172 12.0679 68.3875 11.3558H71.9817C72.1654 11.8132 72.3627 12.2652 72.5465 12.7253C72.6708 13.0677 72.8653 13.4402 72.7789 13.8209C72.6275 14.1825 72.187 14.1907 71.8628 14.2318C71.8628 14.2975 71.8925 14.4235 71.8925 14.4837H75.5218C75.5083 14.3523 75.538 14.1688 75.3569 14.1962ZM68.601 10.8327C69.1414 9.5782 69.6495 8.31004 70.2224 7.07475C70.7332 8.32921 71.2682 9.57546 71.7682 10.8354L68.601 10.8327Z" fill="#A72A24"/>
<path d="M100.339 5.14591C101.511 4.77457 102.775 4.83274 103.909 5.31025C104.179 5.37051 104.528 5.63893 104.763 5.37873C104.823 5.2265 104.865 5.06737 104.887 4.90488H105.119C105.201 5.8964 105.28 6.88701 105.357 7.8767C105.28 7.86764 105.203 7.853 105.128 7.83287C104.882 7.21386 104.62 6.56746 104.103 6.11826C103.352 5.41434 102.241 5.26643 101.266 5.46638C100.517 5.63486 99.8632 6.09405 99.4445 6.74549C98.7067 7.84109 98.523 9.2325 98.6959 10.5253C98.8113 11.4667 99.1859 12.3561 99.7769 13.0918C100.103 13.4703 100.511 13.7679 100.969 13.9616C101.427 14.1553 101.922 14.2401 102.417 14.2093C103 14.1651 103.567 13.9952 104.079 13.7108V10.7965C104.06 10.476 104.079 10.0898 103.809 9.857C103.539 9.62418 103.182 9.64609 102.86 9.6187V9.36397H106.446V9.6187C106.301 9.5983 106.154 9.61029 106.014 9.65382C105.873 9.69734 105.745 9.77136 105.636 9.87069C105.438 10.109 105.446 10.4924 105.422 10.8129V13.8559C104.548 14.343 103.576 14.6245 102.58 14.6795C101.583 14.7345 100.588 14.5616 99.6661 14.1737C98.9252 13.8152 98.2938 13.2605 97.8385 12.5681C97.3832 11.8757 97.1211 11.0715 97.0799 10.2405C96.9421 8.08212 98.3041 5.85805 100.35 5.15139" fill="#A72A24"/>
<path d="M55.3362 5.11914H57.8305C59.506 7.1953 61.1788 9.2742 62.8489 11.3558C63.0373 11.612 63.2432 11.8546 63.465 12.0817C63.465 10.2904 63.465 8.49907 63.465 6.70776C63.4923 6.35588 63.4319 6.00268 63.2894 5.68064C63.0191 5.33826 62.5435 5.38208 62.1571 5.36291V5.11914H65.354V5.36291C64.9865 5.37661 64.5568 5.341 64.273 5.63681C64.0379 5.91071 64.0622 6.28595 64.0433 6.62011V14.6509C63.9735 14.6585 63.9029 14.6476 63.8385 14.6193C63.7741 14.591 63.718 14.5462 63.6758 14.4893L59.1979 8.888C58.7088 8.31281 58.2737 7.69106 57.7549 7.146C57.7332 9.03317 57.7549 10.9231 57.7549 12.8103C57.7272 13.1839 57.7855 13.5589 57.9251 13.9059C58.1954 14.2482 58.6548 14.2236 59.0385 14.2208C59.0629 14.3099 59.0711 14.4027 59.0628 14.4947H55.847C55.847 14.4372 55.8308 14.3222 55.8281 14.2674C56.1821 14.2154 56.5901 14.2674 56.8766 14.0182C57.163 13.7689 57.1225 13.3581 57.1468 13.0212V6.35991C56.9091 6.03433 56.6025 5.7667 56.2496 5.57655C55.9581 5.45085 55.6449 5.38476 55.3281 5.38208V5.13831" fill="#A72A24"/>
<path d="M75.8868 5.13867H78.4946C79.5431 7.44491 80.6106 9.74567 81.6537 12.0546C81.7023 12.1533 81.8158 12.4956 81.9239 12.2601C83.0049 9.88627 84.0732 7.51247 85.129 5.13867H87.7476V5.38244C87.3801 5.39614 86.9531 5.36053 86.6666 5.65634C86.4288 5.93024 86.4558 6.30549 86.4342 6.6369V12.9366C86.4108 13.2867 86.4749 13.6372 86.6207 13.9555C86.8909 14.2897 87.3639 14.2294 87.7503 14.2568C87.7503 14.3225 87.7233 14.4513 87.7152 14.5307C86.4153 14.5143 85.1155 14.5307 83.8129 14.5307C83.8114 14.4386 83.8204 14.3467 83.8399 14.2568C84.2048 14.2568 84.6371 14.2897 84.9209 13.9829C85.1506 13.6926 85.1128 13.2872 85.1371 12.9393C85.1371 10.8687 85.1533 8.79798 85.1236 6.73003C83.8859 9.30195 82.7779 11.9341 81.5564 14.5225L81.3429 14.517C80.1458 11.9122 78.9783 9.29374 77.7866 6.68621C77.765 8.74593 77.7866 10.7947 77.7866 12.8681C77.7628 13.2308 77.8134 13.5945 77.9352 13.9363C78.2055 14.3088 78.6919 14.265 79.0891 14.2732C79.0911 14.3647 79.0866 14.4563 79.0756 14.5471H75.9084C75.9084 14.4841 75.8814 14.3527 75.876 14.2897C76.2246 14.2897 76.6192 14.3225 76.9029 14.076C77.1867 13.8295 77.1731 13.4105 77.1867 13.0681V6.76838C77.1867 6.41231 77.1867 6.00146 76.9164 5.72756C76.6462 5.45366 76.2273 5.45366 75.8679 5.41805C75.8651 5.33554 75.8705 5.25295 75.8841 5.17154" fill="#A72A24"/>
<path d="M88.3311 5.1582H95.4357C95.4843 5.84295 95.5087 6.5277 95.533 7.20971H95.2817C95.1709 6.77147 95.1087 6.25928 94.7412 5.95525C94.4495 5.75548 94.1008 5.65917 93.7494 5.68135C92.8252 5.66492 91.901 5.68135 90.9768 5.68135C90.947 6.91664 90.9551 8.14645 90.9768 9.3927C91.7469 9.37352 92.5198 9.40639 93.29 9.37352C93.4441 9.38038 93.5981 9.35606 93.7428 9.30198C93.8876 9.2479 94.0203 9.16514 94.1331 9.05854C94.3336 8.75299 94.4433 8.39556 94.4493 8.02868H94.6925V11.2963L94.479 11.2826C94.3277 10.9676 94.3953 10.5622 94.1656 10.2747C93.9359 9.98706 93.4846 9.90215 93.1062 9.8912H90.9659C90.9659 11.0717 90.9497 12.2495 90.9659 13.43C90.9479 13.5476 90.9725 13.6678 91.035 13.7685C91.0976 13.8692 91.194 13.9435 91.3064 13.9778C91.8057 14.0266 92.3077 14.0413 92.809 14.0216C93.3873 14.0216 93.9872 14.06 94.5385 13.8627C95.1763 13.5888 95.5438 12.937 95.8735 12.3481C95.9275 12.1837 96.0843 12.1591 96.2383 12.17C95.9681 12.9616 95.714 13.7532 95.4276 14.5338H88.3257V14.2873C88.7068 14.2873 89.1364 14.2873 89.431 14.0134C89.6526 13.7915 89.6202 13.4437 89.6472 13.1561V6.9632C89.6752 6.5531 89.6219 6.14146 89.4904 5.75257C89.2202 5.39102 88.7203 5.44854 88.3203 5.42663V5.18285" fill="#A72A24"/>
<path d="M75.5462 18.457H78.3351C78.3626 18.7428 78.3725 19.03 78.3648 19.3171C78.2243 19.1226 78.2027 18.8213 77.9541 18.7309C77.701 18.6768 77.4421 18.6565 77.1839 18.6707C77.165 19.6293 77.1623 20.588 77.1839 21.5494C77.1839 21.8452 77.5244 21.8233 77.7244 21.9164C77.2162 21.952 76.7063 21.9575 76.1975 21.9328V21.8671C76.3867 21.8315 76.6812 21.8287 76.6731 21.5603C76.711 20.5989 76.6731 19.643 76.6893 18.6762C76.4317 18.6601 76.1731 18.6757 75.9192 18.7227C75.703 18.8049 75.6354 19.0487 75.5868 19.2705H75.4922C75.5111 18.9966 75.5246 18.7227 75.5489 18.4707" fill="#A72A24"/>
<path d="M106.937 5.11719H114.044C114.082 5.7992 114.117 6.48669 114.144 7.16322H113.874C113.763 6.72772 113.709 6.21827 113.333 5.91424C113.015 5.69833 112.633 5.60147 112.252 5.64034H109.534C109.51 6.87289 109.534 8.10544 109.534 9.33799H111.696C112.028 9.31607 112.409 9.30786 112.663 9.06409C112.917 8.82032 112.971 8.36564 113.015 7.99314H113.263C113.263 9.06409 113.277 10.135 113.263 11.206L113.02 11.2553C112.995 10.9238 112.915 10.5989 112.785 10.2939C112.55 9.93783 112.098 9.86114 111.704 9.85292H109.542C109.542 11.0389 109.515 12.2249 109.542 13.4136C109.52 13.5344 109.545 13.6593 109.612 13.7616C109.679 13.864 109.783 13.9357 109.901 13.9614C110.523 14.0381 111.155 13.9833 111.793 13.9998C112.352 13.9806 112.974 14.0189 113.442 13.6546C113.903 13.2456 114.272 12.7401 114.522 12.1729L114.793 12.1564C114.541 12.9452 114.271 13.7313 114.001 14.512H106.904C106.907 14.4249 106.902 14.3378 106.888 14.2518C107.269 14.2518 107.699 14.2518 107.999 13.9779C108.229 13.7259 108.183 13.3479 108.207 13.0302V6.74689C108.18 6.39082 108.207 5.99915 108.023 5.68142C107.731 5.37191 107.269 5.40752 106.883 5.40752V5.15827" fill="#A72A24"/>
<path d="M53.712 17.3398H54.2795C54.0311 17.6674 53.7601 17.9767 53.4688 18.2656C53.5431 17.9525 53.6333 17.6435 53.739 17.3398" fill="#A72A24"/>
<path d="M36.1948 18.842C36.3653 18.687 36.5643 18.5678 36.7804 18.4912C36.9966 18.4146 37.2255 18.3821 37.4541 18.3956C37.7454 18.4445 38.0301 18.5272 38.3027 18.6421C38.3723 18.5533 38.4521 18.4733 38.5405 18.4038C38.5702 18.8037 38.6108 19.2063 38.6081 19.6117C38.4405 19.3734 38.3756 19.0639 38.1568 18.8694C37.9299 18.6679 37.6333 18.5659 37.3323 18.5859C37.0313 18.606 36.7505 18.7464 36.5515 18.9762L36.5353 18.9954C36.3004 19.3617 36.1868 19.7944 36.211 20.2307C36.1866 20.6185 36.2892 21.0036 36.5029 21.3263C36.6837 21.5497 36.9334 21.7049 37.2118 21.767C37.4903 21.8291 37.7812 21.7945 38.0378 21.6687C38.3216 21.5317 38.4702 21.2332 38.7216 21.0551C38.3892 22.0795 36.9596 22.3205 36.2056 21.6276C35.8435 21.2542 35.6406 20.7515 35.6406 20.2279C35.6406 19.7044 35.8435 19.2017 36.2056 18.8283M78.6385 18.4585C79.1358 18.5024 79.66 18.3791 80.1411 18.5188C79.9627 18.5791 79.6843 18.5188 79.633 18.7735C79.5763 19.2857 79.633 19.8061 79.606 20.3238C79.5897 20.7723 79.6006 21.2215 79.6384 21.6687C79.7357 21.8604 79.987 21.8166 80.1573 21.896C79.6325 21.9782 79.0984 21.9782 78.5737 21.896C78.7237 21.8651 78.8717 21.8249 79.0169 21.7755C79.1601 21.5783 79.106 21.3153 79.1223 21.0907C79.106 20.3265 79.152 19.5596 79.1006 18.7954C79.0682 18.5708 78.8088 18.5736 78.6412 18.5462V18.4613M100.044 18.4914C100.544 18.4339 101.049 18.4914 101.552 18.4613V18.5489C101.412 18.5442 101.274 18.5865 101.16 18.6695C101.087 18.96 101.063 19.2609 101.087 19.5596C101.103 20.2279 101.063 20.899 101.106 21.5673C101.106 21.8576 101.452 21.8166 101.633 21.9015C101.13 21.9571 100.623 21.969 100.117 21.9371V21.8659C100.243 21.8525 100.367 21.8268 100.487 21.7892C100.641 21.6714 100.59 21.4495 100.612 21.2797C100.612 20.458 100.631 19.6363 100.595 18.8146C100.595 18.5407 100.247 18.5791 100.055 18.4805" fill="#A72A24"/>
<path d="M40.236 18.4736C40.5028 18.3825 40.7883 18.3634 41.0646 18.4182C41.3408 18.4729 41.5982 18.5996 41.8115 18.7858C41.9956 18.955 42.1449 19.1593 42.2511 19.387C42.3572 19.6148 42.418 19.8614 42.4301 20.113C42.4421 20.3646 42.4052 20.6161 42.3213 20.8531C42.2374 21.0902 42.1083 21.3082 41.9412 21.4947C41.9034 21.5348 41.8656 21.5732 41.8277 21.6097C41.5476 21.8622 41.191 22.0103 40.8166 22.0297C40.4423 22.0491 40.0726 21.9387 39.7685 21.7165C39.0389 21.1879 38.8794 20.095 39.2686 19.309C39.4774 18.9223 39.8216 18.6292 40.2333 18.4873M40.3144 18.679C39.6631 19.0268 39.6118 19.8814 39.6631 20.5415C39.6656 20.7815 39.7251 21.0173 39.8366 21.229C39.9481 21.4407 40.1083 21.622 40.3036 21.7576C40.4976 21.85 40.7152 21.8786 40.9261 21.8393C41.1369 21.8 41.3303 21.6948 41.4791 21.5385C41.7461 21.2007 41.8773 20.7732 41.8467 20.3416C41.8921 19.8436 41.7681 19.3449 41.4953 18.9282C41.3507 18.765 41.1588 18.6525 40.9471 18.6067C40.7354 18.561 40.5149 18.5843 40.3171 18.6735M49.1701 18.479H51.9752C51.9752 18.7529 52.0049 19.046 51.9941 19.3309C51.8482 19.1556 51.8509 18.8735 51.6293 18.7666C51.3631 18.6866 51.0846 18.6569 50.8078 18.679V21.3632C50.8267 21.4919 50.8078 21.6618 50.9078 21.7631C51.0537 21.8124 51.1969 21.8644 51.3401 21.922C50.8402 21.9548 50.3376 21.922 49.8376 21.9384V21.8617C50.0268 21.837 50.324 21.8097 50.3105 21.544C50.3349 20.5853 50.3295 19.6267 50.3105 18.6625C50.0485 18.6501 49.786 18.6722 49.5295 18.7283C49.3025 18.8351 49.289 19.1254 49.1566 19.3199C49.1462 19.0312 49.1534 18.7422 49.1782 18.4544M61.6714 18.4708C61.9493 18.3674 62.2499 18.3431 62.5405 18.4006C62.8311 18.4581 63.1006 18.5951 63.3198 18.7968C63.5002 18.9701 63.6451 19.1777 63.7463 19.4078C63.8474 19.6379 63.9028 19.886 63.9094 20.1378C63.9159 20.3896 63.8734 20.6403 63.7843 20.8755C63.6952 21.1106 63.5612 21.3257 63.3901 21.5084C63.3396 21.5614 63.2864 21.6117 63.2307 21.659C62.9005 21.9208 62.4845 22.0455 62.0669 22.0079C61.6494 21.9703 61.2616 21.7731 60.9823 21.4563C60.1715 20.5552 60.4931 18.8707 61.6714 18.4708ZM61.8389 18.6297C61.2984 18.857 61.139 19.5007 61.1255 20.0348C61.0717 20.5553 61.2061 21.078 61.5038 21.5056C61.5902 21.6026 61.6946 21.6814 61.811 21.7375C61.9275 21.7936 62.0537 21.8259 62.1824 21.8325C62.3112 21.8391 62.44 21.8199 62.5614 21.7761C62.6828 21.7322 62.7945 21.6645 62.8902 21.5768C62.9012 21.5643 62.9129 21.5524 62.9253 21.5412C63.212 21.2012 63.3547 20.7603 63.3225 20.3142C63.3225 19.8211 63.2793 19.2788 62.9577 18.8871C62.8179 18.7359 62.6366 18.6306 62.4372 18.5847C62.2378 18.5389 62.0295 18.5545 61.8389 18.6297ZM67.6599 18.4544H68.6246C69.0327 19.3309 69.4191 20.2156 69.8353 21.0838L69.9218 21.0427C70.3298 20.1882 70.7001 19.3172 71.0946 18.4544C71.4297 18.4544 71.7648 18.4544 72.0972 18.4544C71.9675 18.5585 71.7837 18.5448 71.6513 18.6434C71.5916 18.8079 71.5676 18.9835 71.581 19.1583V21.2564C71.5645 21.4257 71.5974 21.5962 71.6756 21.7467C71.8242 21.7932 71.9702 21.848 72.1188 21.9028C71.6005 21.9384 71.0805 21.9384 70.5622 21.9028C70.7001 21.859 70.8325 21.8151 70.9676 21.7631C71.1027 21.7111 71.0784 21.4892 71.0919 21.3687V19.0707C70.6676 19.9444 70.2812 20.8428 69.8812 21.7275C69.8272 21.8042 69.8191 22.0014 69.684 21.9192C69.2327 20.977 68.8435 20.0019 68.3706 19.0761C68.3706 19.9143 68.3436 20.7524 68.3706 21.5905C68.3706 21.8644 68.7138 21.8288 68.9111 21.9055C68.5838 21.9548 68.2525 21.9713 67.922 21.9548C67.7993 21.9667 67.6763 21.9358 67.5734 21.8672C67.768 21.837 68.1355 21.8672 68.1139 21.5741C68.1598 20.8757 68.1139 20.1745 68.1382 19.4733C68.166 19.2058 68.1347 18.9354 68.0463 18.6817C67.9319 18.6031 67.798 18.5585 67.6599 18.553V18.4681M73.8754 18.6489C73.924 18.5502 73.9456 18.375 74.0943 18.4462C74.5266 19.4486 74.905 20.473 75.359 21.4591C75.4427 21.7083 75.6914 21.8206 75.8994 21.9274C75.4187 21.9521 74.9371 21.9521 74.4564 21.9274C74.578 21.837 74.7969 21.8179 74.8401 21.6535C74.7787 21.3461 74.6721 21.0497 74.5239 20.7743H73.2376C73.0164 21.0437 72.8992 21.3853 72.9079 21.7357C73.0457 21.7932 73.1781 21.8617 73.3241 21.9137C72.93 21.9425 72.5345 21.9425 72.1404 21.9137C72.3215 21.7932 72.5512 21.7111 72.6323 21.4865C73.0592 20.5442 73.443 19.5692 73.851 18.6242M73.851 19.172C73.6619 19.6349 73.4646 20.0978 73.2646 20.5579H74.4456C74.2429 20.0978 74.078 19.6185 73.851 19.172ZM85.3308 18.4599C85.7208 18.3321 86.1436 18.3551 86.5178 18.5245C86.8921 18.694 87.1912 18.9978 87.3576 19.3774C87.5119 19.7279 87.5622 20.1163 87.5022 20.4953C87.4422 20.8742 87.2745 21.2272 87.0198 21.5111C86.8358 21.7072 86.6077 21.8552 86.3549 21.9425C86.1022 22.0297 85.8324 22.0537 85.5686 22.0123C85.1923 21.9498 84.8481 21.7597 84.5924 21.4731C84.3366 21.1865 84.1844 20.8204 84.1606 20.4347C84.1006 20.0217 84.184 19.6003 84.3964 19.2426C84.6088 18.885 84.9372 18.6131 85.3254 18.4736M85.42 18.6571C85.2389 18.759 85.0853 18.9045 84.9726 19.0808C84.86 19.257 84.7918 19.4586 84.7741 19.6678C84.6822 20.1746 84.728 20.6972 84.9065 21.1797C84.9653 21.3472 85.0667 21.496 85.2006 21.611C85.3344 21.726 85.4959 21.803 85.6686 21.8343C85.8335 21.8625 86.0028 21.8492 86.1616 21.7957C86.3203 21.7423 86.4637 21.6502 86.5793 21.5275C86.8955 21.1852 86.9441 20.6839 86.9441 20.2375C86.9739 19.7735 86.8523 19.3125 86.5982 18.9255C86.4571 18.7616 86.2686 18.6469 86.0595 18.5978C85.8504 18.5486 85.6314 18.5674 85.4335 18.6516M88.9871 18.4571H89.8897C90.6004 19.3035 91.2409 20.1964 91.9868 21.0236C92.0057 20.4402 91.9868 19.854 91.9868 19.2733C91.9982 19.0673 91.9754 18.8609 91.9192 18.6625C91.801 18.5776 91.6586 18.5343 91.5138 18.5393V18.4571H92.6948V18.5311C92.5056 18.553 92.2219 18.5667 92.2219 18.8296C92.1786 19.8951 92.2219 20.9633 92.1948 22.0288C91.3517 21.1578 90.6869 20.1115 89.8546 19.2432V21.2756C89.8708 21.4399 89.8275 21.6481 89.9654 21.7768C90.1113 21.8288 90.2653 21.8507 90.414 21.9C89.9752 21.9498 89.5327 21.9571 89.0925 21.922C89.2736 21.8234 89.6114 21.8371 89.6087 21.5632C89.66 20.7415 89.6087 19.9033 89.6303 19.0761C89.6438 18.7338 89.2654 18.5722 88.9844 18.5283V18.4434M97.4969 18.6543C97.7431 18.49 98.027 18.3931 98.3211 18.3729C98.6152 18.3527 98.9094 18.4101 99.1751 18.5393C99.3643 18.6708 99.5102 18.4927 99.6426 18.3804C99.6615 18.7803 99.7102 19.1775 99.7102 19.5774C99.5345 19.3446 99.4751 19.0296 99.2508 18.8406C99.1404 18.7405 99.0117 18.6635 98.872 18.6139C98.7323 18.5643 98.5843 18.5431 98.4364 18.5515C98.2886 18.5599 98.1439 18.5977 98.0105 18.6628C97.8771 18.728 97.7577 18.8191 97.6591 18.931C97.6192 18.9763 97.5831 19.0249 97.551 19.0761C97.3818 19.4006 97.2891 19.7604 97.2802 20.1273C97.2713 20.4942 97.3464 20.8581 97.4996 21.1906C97.6722 21.4669 97.9427 21.6655 98.2554 21.7455C98.5682 21.8255 98.8993 21.7808 99.1805 21.6207C99.4291 21.4755 99.5616 21.2016 99.7967 21.0455C99.4616 22.0699 98.0266 22.3082 97.278 21.6125C96.4241 20.851 96.5484 19.287 97.4942 18.6543M103.015 18.4653C103.294 18.3609 103.596 18.336 103.887 18.3935C104.179 18.451 104.449 18.5886 104.669 18.7913C104.849 18.965 104.994 19.1729 105.094 19.4032C105.195 19.6335 105.25 19.8816 105.256 20.1335C105.262 20.3853 105.219 20.6358 105.129 20.8708C105.04 21.1058 104.905 21.3206 104.734 21.5029C104.701 21.5385 104.664 21.5741 104.629 21.607C104.356 21.8483 104.014 21.9924 103.653 22.0171C103.292 22.0419 102.933 21.9459 102.631 21.7439C101.902 21.2427 101.718 20.1772 102.067 19.3911C102.259 18.9771 102.603 18.6557 103.026 18.4955M103.191 18.6543C102.629 18.9008 102.48 19.5938 102.477 20.1553C102.477 20.6675 102.561 21.2509 102.942 21.6152C103.133 21.7798 103.378 21.8656 103.628 21.8554C103.879 21.8453 104.116 21.7399 104.293 21.5604C104.615 21.2454 104.674 20.7634 104.683 20.3333C104.683 19.8376 104.645 19.2925 104.312 18.9008C104.172 18.752 103.991 18.649 103.793 18.605C103.594 18.5611 103.388 18.5783 103.199 18.6543M68.4192 24.65C68.6207 24.4872 68.8558 24.3724 69.107 24.314C69.3582 24.2557 69.6191 24.2554 69.8704 24.3131C70.0661 24.3899 70.2677 24.4503 70.473 24.4939C70.529 24.3929 70.5991 24.3006 70.6811 24.22C70.7271 24.6401 70.7433 25.063 70.7298 25.4854C70.6402 25.2426 70.5204 25.0125 70.3731 24.8006C70.1716 24.577 69.8908 24.4435 69.5923 24.4296C69.2938 24.4158 69.0021 24.5226 68.7814 24.7267C68.7333 24.7694 68.6898 24.8172 68.6516 24.8691C68.4006 25.278 68.2895 25.7593 68.3355 26.2386C68.3268 26.6366 68.469 27.0228 68.7327 27.3178C68.9045 27.474 69.1138 27.5815 69.3396 27.6296C69.5655 27.6777 69.7998 27.6646 70.019 27.5917C70.3785 27.4821 70.5595 27.1288 70.8487 26.9069C70.5298 27.9039 69.1705 28.1751 68.4003 27.5506C67.5139 26.8522 67.5545 25.332 68.4003 24.6254M78.1965 24.4802C78.2532 24.4035 78.2505 24.1871 78.391 24.2611C78.8396 25.2855 79.2288 26.3345 79.6882 27.3561C79.7666 27.5807 80.0017 27.6519 80.1638 27.7971C79.7206 27.8135 79.2774 27.7971 78.8342 27.7971V27.7177C78.9464 27.6901 79.0538 27.6458 79.1531 27.5862C79.191 27.2438 78.964 26.9453 78.8613 26.6358H77.529C77.3979 26.8976 77.2955 27.1731 77.2236 27.4575C77.1885 27.6739 77.4506 27.6602 77.5857 27.7149V27.8026H76.5345C76.6642 27.6492 76.8858 27.589 76.9561 27.3835C77.3966 26.4304 77.783 25.4662 78.1938 24.4857M78.1938 25.0718C77.9965 25.532 77.7911 25.9866 77.6155 26.4413H78.7856C78.5856 25.9812 78.4262 25.5073 78.1938 25.0718ZM81.4366 26.329C81.3204 25.3621 82.0501 24.3158 83.0419 24.2583C83.4378 24.237 83.8333 24.3072 84.1985 24.4638C84.3039 24.4172 84.339 24.2939 84.4147 24.2118C84.4709 24.6063 84.4962 25.0047 84.4903 25.4032C84.3798 25.1608 84.241 24.9328 84.0769 24.724C83.8366 24.5123 83.5233 24.4058 83.2057 24.4278C82.888 24.4499 82.592 24.5988 82.3825 24.8417C82.3444 24.8853 82.31 24.932 82.2798 24.9814C82.0738 25.3431 81.9804 25.7594 82.0117 26.1758C82.043 26.5921 82.1977 26.9892 82.4554 27.3151C82.6572 27.5286 82.9256 27.665 83.2152 27.7009C83.5048 27.7368 83.7978 27.6702 84.0444 27.5123C84.0201 27.085 84.0607 26.6577 84.0174 26.2304C83.9796 26.0222 83.7472 26.0332 83.585 25.9729C83.7553 25.8469 83.985 25.9264 84.1823 25.9072C84.4401 25.8821 84.7002 25.8996 84.9524 25.9592C84.8092 26.0277 84.5633 26.0222 84.5525 26.2331C84.4984 26.6851 84.5525 27.1425 84.5174 27.6026C84.2072 27.7615 83.8689 27.8559 83.5222 27.8804C83.1755 27.9049 82.8275 27.8589 82.4987 27.7451C82.211 27.6305 81.9599 27.4382 81.7726 27.189C81.5853 26.9398 81.4691 26.6433 81.4366 26.3317M54.3452 24.3405C54.6803 24.3405 55.0667 24.2611 55.3748 24.3788C55.7964 25.2581 56.1855 26.151 56.5963 27.0329C57.0368 26.1619 57.407 25.2526 57.8178 24.3734C58.1574 24.294 58.5104 24.294 58.8501 24.3734C58.6609 24.4446 58.3312 24.4144 58.3339 24.7048C58.2988 25.595 58.3096 26.4933 58.3339 27.3863C58.3042 27.6602 58.5771 27.7259 58.7906 27.7259C58.7879 27.7541 58.7879 27.7826 58.7906 27.8108H57.3962V27.7259C57.5664 27.7095 57.8016 27.6602 57.8016 27.452C57.8367 26.6056 57.8016 25.7566 57.8016 24.9102C57.334 25.8908 56.926 26.9015 56.4504 27.8683C55.9747 26.8905 55.5532 25.8853 55.0992 24.902V27.2055C55.0851 27.3529 55.1132 27.5012 55.1802 27.6328C55.2937 27.7259 55.4505 27.7067 55.5856 27.7369V27.8163H54.4074V27.7314C54.5452 27.7067 54.7019 27.7314 54.8073 27.6109C54.8557 27.4505 54.874 27.2823 54.8614 27.1151V25.0061C54.8424 24.8445 54.8614 24.639 54.7397 24.524C54.6019 24.4638 54.4695 24.4117 54.3317 24.346M88.0332 24.3734C88.3382 24.3186 88.6493 24.3076 88.9574 24.3405C89.0763 24.3651 89.1249 24.4911 89.2033 24.5678C89.833 25.3594 90.4707 26.1455 91.095 26.9343V25.017C91.1052 24.856 91.0822 24.6946 91.0274 24.5432C90.8977 24.4336 90.7085 24.4446 90.5599 24.3816C90.9912 24.3273 91.4271 24.3208 91.8597 24.3624C91.7192 24.4035 91.5811 24.4529 91.4463 24.5103C91.3058 24.5925 91.3382 24.7842 91.3247 24.9184V27.9313C90.9254 27.5186 90.5526 27.0804 90.2086 26.6193C89.7951 26.1126 89.3979 25.6059 88.979 25.1047C88.979 25.8962 88.9547 26.6933 88.9952 27.4849C88.9952 27.7122 89.2492 27.7423 89.4195 27.7588V27.8464C89.0358 27.8464 88.6493 27.8464 88.2656 27.83C88.4142 27.7012 88.7277 27.7451 88.7358 27.4903C88.779 26.6686 88.7358 25.8469 88.7547 25.0252C88.8088 24.6171 88.3331 24.4774 88.0332 24.4008M95.1026 24.4008C95.4976 24.3478 95.8966 24.3332 96.2944 24.3569C96.7105 24.3816 97.1943 24.3268 97.5375 24.6308C97.6987 24.7654 97.8025 24.9579 97.8272 25.1681C97.8518 25.3784 97.7955 25.5901 97.6699 25.7593C97.4938 25.9544 97.2687 26.0974 97.0186 26.1729C97.3148 26.6386 97.6407 27.0842 97.9942 27.5068C98.1185 27.6684 98.3536 27.641 98.4833 27.7807C98.2455 27.9094 97.9131 27.819 97.6375 27.8272C97.2753 27.2794 96.8754 26.7618 96.5079 26.2222H96.1403C96.1209 26.6726 96.1327 27.1238 96.1755 27.5725C96.2484 27.7752 96.5106 27.7369 96.6781 27.7889C96.1998 27.9286 95.6782 27.8108 95.181 27.8492V27.7642C95.3864 27.7642 95.6647 27.6876 95.6377 27.4246C95.6593 26.5344 95.6701 25.6415 95.6377 24.7513C95.6377 24.4555 95.3026 24.4774 95.1107 24.409M96.1403 24.6007V26.0688C96.447 26.0934 96.7533 26.0165 97.0132 25.8497C97.0869 25.7865 97.1475 25.7092 97.1916 25.6223C97.2357 25.5353 97.2625 25.4403 97.2702 25.3428C97.278 25.2453 97.2667 25.1473 97.237 25.0542C97.2073 24.9612 97.1597 24.875 97.097 24.8006C97.0719 24.7688 97.0438 24.7394 97.0132 24.713C96.77 24.5103 96.4376 24.576 96.1484 24.6007" fill="#A72A24"/>
<path d="M42.7016 18.486C43.0331 18.4696 43.3655 18.4696 43.6988 18.486C44.115 19.3844 44.5095 20.302 44.95 21.184C45.3445 20.2746 45.7607 19.3817 46.1634 18.4778H47.1281V18.56C46.993 18.5874 46.8336 18.56 46.7282 18.6723C46.6494 18.8692 46.6206 19.083 46.6444 19.294C46.6444 20.0555 46.6228 20.8197 46.6633 21.5838C46.6633 21.8577 47.0011 21.8577 47.1849 21.9372C46.661 21.9815 46.1341 21.9724 45.6121 21.9098C45.8093 21.8413 46.1526 21.855 46.1526 21.5647C46.1796 20.743 46.1526 19.9213 46.1526 19.0996C45.6823 20.0281 45.2905 21.0004 44.8419 21.9427H44.7473C44.2987 20.9977 43.9015 20.0254 43.4312 19.0886V21.3949C43.4448 21.5318 43.4312 21.7098 43.5502 21.803C43.6691 21.8961 43.8393 21.8714 43.9825 21.9207C43.5471 21.9714 43.1073 21.9714 42.6719 21.9207C42.8259 21.8441 43.0313 21.8441 43.1502 21.7153C43.2051 21.3815 43.2223 21.0424 43.2015 20.7046C43.1853 20.0801 43.234 19.4474 43.1772 18.8229C43.1556 18.5737 42.8475 18.6148 42.7016 18.4778M64.1451 18.4778C64.6207 18.445 65.099 18.4614 65.5746 18.4614C65.9394 18.4614 66.3583 18.486 66.6285 18.7791C66.7822 18.9314 66.8699 19.1392 66.8724 19.3569C66.875 19.5747 66.7921 19.7846 66.6421 19.9404L66.6285 19.9541C66.457 20.0965 66.2569 20.1994 66.0421 20.2554C66.3367 20.68 66.6231 21.11 66.9501 21.5099C67.0231 21.6008 67.1134 21.6759 67.2155 21.731C67.3176 21.786 67.4295 21.8198 67.5447 21.8304C67.5523 21.8749 67.5631 21.9189 67.5771 21.9618C67.2879 21.9344 66.9988 21.9618 66.7096 21.9344C66.2772 21.4168 65.9367 20.8388 65.5098 20.291L65.172 20.3047C65.1557 20.7514 65.1666 21.1987 65.2044 21.6441C65.2692 21.8468 65.5152 21.8057 65.6773 21.8605V21.9207C65.1675 21.95 64.6562 21.9408 64.1478 21.8934C64.318 21.8084 64.5909 21.855 64.6666 21.6195C64.7261 21.1182 64.6801 20.6088 64.6936 20.1048C64.7126 19.6315 64.699 19.1574 64.6531 18.686C64.545 18.5107 64.3072 18.5655 64.1586 18.4504M65.1774 18.6641V20.1377C65.4875 20.1599 65.7964 20.0801 66.0583 19.9103C66.2036 19.7802 66.292 19.5969 66.3042 19.4008C66.3163 19.2046 66.2512 19.0116 66.1232 18.864C66.0837 18.8189 66.0393 18.7785 65.9908 18.7435C65.7476 18.5764 65.4503 18.6422 65.1801 18.6641M80.3134 18.4422C80.7593 18.423 81.2025 18.4422 81.6457 18.4285V18.5162L81.2998 18.6613C81.3971 19.0937 81.5487 19.5116 81.7511 19.9048C81.9322 20.313 82.097 20.7265 82.2916 21.1401C82.5294 20.8662 82.5943 20.4225 82.7672 20.0801C82.9158 19.6227 83.2104 19.1927 83.2347 18.7106C83.1185 18.6066 82.9645 18.5545 82.8564 18.4367C83.2167 18.4221 83.5815 18.4221 83.9509 18.4367C83.4536 18.7106 83.3374 19.2776 83.1401 19.7569C82.8294 20.5129 82.5348 21.2771 82.2132 22.0303C82.0506 21.7874 81.9198 21.524 81.8241 21.247C81.4728 20.4417 81.1404 19.6255 80.7782 18.8257C80.7053 18.6148 80.4675 18.5764 80.3242 18.4367" fill="#A72A24"/>
<path d="M47.3203 18.4934C47.823 18.4468 48.3256 18.4934 48.8282 18.4688V18.5564C48.6904 18.5783 48.531 18.5564 48.4229 18.6742C48.3497 18.9019 48.323 19.1423 48.3445 19.3808C48.3607 20.1122 48.3229 20.8489 48.3634 21.572C48.3634 21.8459 48.712 21.8103 48.9039 21.9199C48.3776 21.9582 47.8493 21.9582 47.323 21.9199C47.5203 21.835 47.8635 21.8432 47.8635 21.5529C47.8824 20.6435 47.8851 19.7369 47.8635 18.8303C47.8635 18.5564 47.5149 18.5975 47.323 18.4852" fill="#A72A24"/>
<path d="M52.2443 18.4723H54.8953C54.9097 18.7462 54.9097 19.0201 54.8953 19.294C54.7548 19.0913 54.744 18.7654 54.471 18.6942C54.0521 18.6613 53.6316 18.6531 53.2117 18.6695V20.039C53.5525 20.0527 53.8939 20.0417 54.2332 20.0061C54.4521 19.9623 54.4575 19.6884 54.5467 19.5296C54.6213 19.9544 54.6358 20.3879 54.5899 20.8169C54.4926 20.6525 54.4818 20.4334 54.3359 20.3102C53.9819 20.1732 53.59 20.2526 53.2198 20.2362C53.2522 20.7265 53.1414 21.2633 53.2847 21.729C53.6813 21.792 54.0852 21.792 54.4818 21.729C54.8277 21.6495 54.9169 21.2496 55.1763 21.0524C55.109 21.3608 55.0027 21.659 54.8602 21.9399C54.3197 21.9673 53.7792 21.9399 53.2549 21.9399C52.8983 21.9568 52.5409 21.9394 52.1875 21.8878C52.355 21.8057 52.6199 21.8577 52.7037 21.6495C52.7658 21.1456 52.7199 20.6334 52.7334 20.1267C52.7496 19.6507 52.7388 19.1743 52.701 18.6996C52.6091 18.5298 52.4037 18.5682 52.247 18.5353V18.4531M59.0299 24.3064C59.9109 24.3201 60.7946 24.2872 61.6756 24.3283C61.6756 24.6022 61.6999 24.8569 61.6756 25.1226C61.5107 24.9363 61.527 24.5748 61.2378 24.5337C60.8219 24.4945 60.404 24.4826 59.9866 24.4981V25.8676C60.3422 25.8877 60.6988 25.8721 61.0513 25.821C61.2567 25.7526 61.2432 25.4896 61.3216 25.3253C61.4297 25.5033 61.3675 25.7252 61.3864 25.9251C61.4053 26.1251 61.4378 26.4017 61.3216 26.6099C61.2432 26.4373 61.2567 26.1771 61.0513 26.0977C60.7005 26.0479 60.3455 26.035 59.992 26.0593C59.992 26.5195 59.9704 26.9851 59.992 27.448L60.0974 27.574C60.478 27.6069 60.8609 27.6014 61.2405 27.5576C61.5945 27.4754 61.6675 27.0618 61.9431 26.8783C61.8648 27.1851 61.7485 27.4836 61.6486 27.7822C60.7487 27.7822 59.8515 27.8095 58.9462 27.763C59.1407 27.6425 59.5137 27.6781 59.4866 27.3549C59.4866 26.4674 59.5056 25.5773 59.4866 24.6898C59.511 24.4159 59.2164 24.3995 59.0164 24.3831L59.0299 24.3064Z" fill="#A72A24"/>
<path d="M56.552 18.4571H57.4627C58.1707 19.3034 58.8139 20.2018 59.5571 21.0208C59.5571 20.2758 59.6003 19.5253 59.5382 18.783C59.5219 18.5611 59.2679 18.5639 59.095 18.542V18.4571C59.5057 18.4571 59.9057 18.4406 60.3218 18.4817C60.1516 18.5885 59.8408 18.5365 59.8057 18.7885C59.7516 19.8841 59.8057 20.955 59.776 22.0369C58.9328 21.1659 58.268 20.1196 57.433 19.2486C57.433 20.0155 57.4141 20.7879 57.433 21.5549C57.433 21.8507 57.7816 21.8288 57.9735 21.9219C57.5344 21.9713 57.0908 21.9602 56.6547 21.889C56.8412 21.8233 57.1736 21.8507 57.1736 21.5713C57.2168 20.7496 57.1736 19.9087 57.1925 19.0761C57.1925 18.7337 56.8222 18.5776 56.5412 18.5283V18.4434M49.8906 24.376C50.7797 24.2747 51.685 24.3596 52.593 24.3322C52.6146 24.6061 52.6254 24.88 52.62 25.1539C52.4579 24.9841 52.4714 24.6691 52.2363 24.5842C51.8027 24.5272 51.365 24.5098 50.9283 24.5322V25.9017C51.2691 25.9149 51.6104 25.9048 51.9498 25.8715C52.1823 25.8085 52.1768 25.5155 52.2903 25.3429C52.2903 25.7729 52.3822 26.2358 52.2525 26.6521C52.1795 26.4686 52.1877 26.2029 51.9823 26.129C51.6382 26.0843 51.2911 26.0697 50.9446 26.0852C50.9252 26.5719 50.9342 27.0594 50.9716 27.5451C51.2851 27.7039 51.7012 27.5998 52.0525 27.6135C52.4849 27.6135 52.6308 27.1479 52.8957 26.8877C52.8217 27.2063 52.7232 27.5186 52.6011 27.8217H49.9933V27.7368C50.1356 27.7289 50.273 27.6815 50.3906 27.5998C50.4369 27.4082 50.4551 27.2107 50.4446 27.0137V24.9238C50.4517 24.7866 50.4267 24.6496 50.3716 24.5239C50.2227 24.4622 50.0679 24.4163 49.9095 24.387M62.1541 24.376C62.5193 24.3245 62.8886 24.3098 63.2566 24.3322C63.8214 24.3322 64.4403 24.2993 64.9483 24.6061C65.9563 25.2689 65.8861 27.0712 64.7862 27.5971C63.9755 27.9614 63.0756 27.7614 62.227 27.8135V27.7286C62.3649 27.7039 62.5216 27.7121 62.6216 27.5944C62.6762 27.4353 62.6992 27.2668 62.6891 27.0986V25.0937C62.7026 24.896 62.6731 24.6978 62.6027 24.513C62.4581 24.4519 62.3078 24.406 62.1541 24.376ZM63.1918 24.5842C63.1675 25.5785 63.1918 26.5755 63.1918 27.567C63.7539 27.7176 64.4349 27.6272 64.7889 27.1178C65.2807 26.4111 65.2105 25.2361 64.4592 24.7376C64.089 24.4829 63.6269 24.5212 63.2053 24.5842M85.0946 24.3733C85.9864 24.2774 86.8917 24.3569 87.797 24.3349C87.8224 24.608 87.8296 24.8826 87.8186 25.1566C87.67 24.9731 87.67 24.6445 87.4079 24.5732C86.9843 24.5267 86.5577 24.5157 86.1324 24.5404V25.9099C86.4523 25.9204 86.7726 25.9131 87.0917 25.888C87.3619 25.866 87.3754 25.5428 87.4971 25.3402C87.5241 25.7761 87.5241 26.2134 87.4971 26.6494C87.3754 26.4768 87.3944 26.1947 87.1728 26.1016C86.8283 26.0624 86.4813 26.0505 86.135 26.066C86.1729 26.5618 86.0459 27.1013 86.2026 27.5724C86.5788 27.6163 86.9587 27.6163 87.3349 27.5724C87.7159 27.5204 87.8403 27.1041 88.0808 26.8603C88.0153 27.1794 87.9194 27.4913 87.7943 27.7916H85.1865V27.7067C85.3258 27.7005 85.461 27.657 85.5784 27.5807C85.6322 27.4195 85.6542 27.2492 85.6432 27.0794V24.9868C85.6515 24.8183 85.6267 24.6498 85.5703 24.4911C85.4171 24.4371 85.261 24.3923 85.1027 24.3569M102.398 24.3349C102.952 24.3048 103.506 24.3048 104.06 24.3349C103.901 24.3925 103.738 24.4336 103.579 24.4911C103.42 24.5486 103.449 24.817 103.43 24.9868V27.178C103.447 27.3095 103.409 27.5368 103.601 27.5451C103.97 27.5939 104.344 27.5865 104.711 27.5231C105.068 27.4328 105.192 27.0493 105.381 26.7727C105.322 27.1237 105.225 27.4672 105.092 27.797H102.482V27.7121C102.684 27.7121 102.947 27.63 102.922 27.3752C102.938 26.4823 102.949 25.5867 102.922 24.6965C102.922 24.4226 102.584 24.4226 102.398 24.3322" fill="#A72A24"/>
<path d="M109.679 21.5167C110.168 20.4677 110.56 19.3748 111.06 18.334C111.547 19.3858 111.933 20.4868 112.411 21.5414C112.495 21.7687 112.744 21.8153 112.925 21.9412C112.443 21.9686 111.961 21.9686 111.479 21.9412C111.609 21.8563 111.822 21.8372 111.871 21.6673C111.807 21.3599 111.7 21.063 111.555 20.7854H110.282C110.115 21.0169 109.996 21.2807 109.933 21.5605C109.863 21.8344 110.204 21.8016 110.339 21.9412C109.955 21.9659 109.571 21.9659 109.188 21.9412C109.369 21.8289 109.59 21.7358 109.671 21.5222M110.314 20.5991H111.495C111.301 20.1362 111.109 19.6706 110.92 19.2077C110.698 19.6651 110.52 20.1362 110.314 20.6019" fill="#A72A24"/>
<path d="M113.052 18.4707H114.603V18.5529C114.435 18.5531 114.27 18.5964 114.122 18.6789C114.041 18.8354 114.009 19.0127 114.028 19.1883V21.3795C114.028 21.5247 114.071 21.7383 114.255 21.7164C114.626 21.7548 115.001 21.7382 115.368 21.6671C115.695 21.5603 115.76 21.1768 115.998 20.9741C115.917 21.2974 115.803 21.6151 115.728 21.941C114.817 21.9789 113.905 21.9689 112.995 21.9109C113.19 21.8315 113.536 21.8671 113.536 21.5685C113.574 20.9029 113.536 20.2374 113.552 19.5718C113.568 19.2897 113.553 19.0068 113.506 18.7282C113.439 18.5501 113.212 18.583 113.063 18.5501V18.4707M71.0706 24.376C71.5999 24.3075 72.1357 24.3075 72.665 24.376C72.5083 24.439 72.2921 24.4143 72.1732 24.5513C72.1085 24.8246 72.0866 25.1065 72.1083 25.3867C72.1245 26.0824 72.0813 26.7808 72.1299 27.4765C72.1597 27.7039 72.4245 27.7011 72.5948 27.7285V27.8162C72.0975 27.7723 71.5705 27.8956 71.0949 27.7559C71.2571 27.6984 71.476 27.734 71.5868 27.5697C71.6327 27.1285 71.6462 26.6845 71.6273 26.2412C71.6138 25.6934 71.657 25.1621 71.603 24.628C71.5192 24.4089 71.249 24.4499 71.0625 24.3678" fill="#A72A24"/>
<path d="M46.125 24.3766C46.5259 24.3296 46.93 24.3167 47.333 24.3382C47.8734 24.3519 48.4545 24.3382 48.9274 24.6121C49.9327 25.275 49.857 27.0772 48.7598 27.5976C47.9491 27.9647 47.0627 27.7592 46.2169 27.8168V27.7291C46.4223 27.7291 46.6736 27.6387 46.6493 27.3895C46.6655 26.4993 46.6736 25.6064 46.6493 24.7189C46.6682 24.4259 46.3142 24.445 46.1277 24.3684M47.1681 24.582C47.1465 25.579 47.1681 26.5732 47.1681 27.5702C47.5658 27.6805 47.9893 27.6436 48.3626 27.4662C49.1733 26.9896 49.2706 25.7461 48.7436 25.0202C48.3842 24.53 47.7275 24.4724 47.1762 24.582" fill="#A72A24"/>
<path d="M65.951 24.3274C66.4591 24.3274 66.9725 24.3082 67.4806 24.3439C67.3103 24.437 67.0455 24.4096 66.9617 24.6178C66.8995 25.1656 66.9455 25.6942 66.932 26.231C66.9135 26.6742 66.9261 27.1181 66.9698 27.5594C67.0779 27.6991 67.2644 27.6964 67.4211 27.7265V27.8032H65.9537V27.721C66.0955 27.7178 66.2345 27.6803 66.3591 27.6115C66.4272 27.4472 66.4559 27.2688 66.4428 27.0911V24.9875C66.4266 24.8204 66.4645 24.6205 66.3348 24.4918C66.2057 24.4422 66.0729 24.4037 65.9375 24.3767L65.951 24.3274Z" fill="#A72A24"/>
<path d="M72.6172 24.3383C73.0063 24.3821 73.5603 24.1438 73.8035 24.5684C74.4305 25.3572 75.0611 26.1442 75.6952 26.9294V24.8971C75.6817 24.7546 75.7114 24.5711 75.5736 24.4807C75.4561 24.4431 75.336 24.4147 75.2142 24.3958V24.3273C75.6364 24.306 76.0596 24.3225 76.4789 24.3766C76.287 24.4369 75.9384 24.4396 75.9573 24.73C75.9168 25.7927 75.9573 26.8582 75.9303 27.9209C75.1007 27.0198 74.3873 26.0036 73.59 25.086C73.59 25.8831 73.5603 26.6829 73.609 27.4799C73.609 27.699 73.8792 27.7127 74.0305 27.7347V27.8196H72.9226V27.7347C73.0901 27.7182 73.3387 27.6826 73.3387 27.4608C73.3793 26.6089 73.3522 25.7571 73.3549 24.9053C73.336 24.5382 72.8901 24.4725 72.628 24.3575" fill="#A72A24"/>
<path d="M91.9453 24.3575C92.8479 24.2973 93.7559 24.3301 94.6612 24.3411C94.6612 24.615 94.6882 24.8725 94.6774 25.1409C94.5126 24.9711 94.5396 24.6588 94.2991 24.5657C93.8635 24.5119 93.424 24.4963 92.9857 24.5191V25.8886C93.3375 25.9106 93.6906 25.8968 94.0397 25.8475C94.264 25.7845 94.2099 25.486 94.3694 25.3518C94.3829 25.7763 94.3856 26.2063 94.3694 26.6364C94.2261 26.4802 94.2613 26.1981 94.0424 26.1187C93.6949 26.0718 93.3438 26.0589 92.9938 26.0804C92.9938 26.546 92.9722 27.0116 93.0074 27.4772L93.1073 27.5978C93.4862 27.6288 93.867 27.6242 94.245 27.5841C94.6072 27.5101 94.6828 27.0856 94.9612 26.9048C94.8774 27.2088 94.7639 27.5046 94.6666 27.8059H92.0156V27.732C92.1966 27.6991 92.4912 27.6936 92.4912 27.4389C92.5182 26.535 92.5128 25.6284 92.4912 24.7245C92.5074 24.4123 92.148 24.4342 91.9507 24.3548" fill="#A72A24"/>
</g>
<defs>
<clipPath id="clip0_5660_15263">
<rect width="116" height="31" fill="white"/>
</clipPath>
</defs>
</svg>
