<svg width="115" height="25" viewBox="0 0 115 25" fill="none" xmlns="http://www.w3.org/2000/svg">
<path d="M30.1738 24.5818C29.8031 24.5818 29.4528 24.5818 29.1026 24.5818C28.4966 24.5818 27.8907 24.5767 27.2822 24.5869C27.1084 24.5895 27.0547 24.546 27.0547 24.3645C27.0598 19.6117 27.0547 14.8614 27.0547 10.1086C27.0547 7.13262 27.0547 4.15412 27.0547 1.17818C27.0547 1.09125 27.0547 1.00177 27.0547 0.907172C27.1033 0.896945 27.1339 0.886719 27.1621 0.886719C28.0825 0.886719 29.0003 0.891832 29.9207 0.886719C30.0818 0.886719 30.1431 0.940409 30.1994 1.09381C30.4167 1.68439 30.6545 2.26476 30.8846 2.85023C31.1121 3.42803 31.3422 4.00839 31.5697 4.5862C31.7998 5.17167 32.0325 5.75459 32.2626 6.34006C32.508 6.96644 32.7509 7.59538 32.9964 8.22176C33.2034 8.74843 33.4182 9.26999 33.6253 9.79666C33.8784 10.4333 34.1238 11.075 34.3744 11.7116C34.6045 12.2971 34.8448 12.8774 35.0749 13.4629C35.2922 14.0126 35.5019 14.5648 35.7192 15.1145C35.8598 15.4648 36.0081 15.8125 36.1513 16.1627C36.1692 16.1627 36.1845 16.1576 36.2024 16.1551C36.2024 16.0323 36.2024 15.9122 36.2024 15.7895C36.1794 13.2456 36.1564 10.7017 36.1308 8.15784C36.1078 5.8543 36.0848 3.55331 36.0618 1.24976C36.0592 0.889275 36.0618 0.889275 36.412 0.889275C37.3324 0.889275 38.2503 0.889275 39.1707 0.894389C39.2192 0.894389 39.2704 0.902059 39.3445 0.909729C39.3445 1.01711 39.3445 1.11682 39.3445 1.21653C39.3445 8.91973 39.3445 16.6229 39.3496 24.3261C39.3496 24.5153 39.3011 24.5792 39.1068 24.5792C38.3014 24.5741 37.4986 24.5792 36.6933 24.5895C36.522 24.5895 36.4223 24.5486 36.3532 24.3696C35.9774 23.4185 35.5888 22.4725 35.1976 21.5291C34.809 20.596 34.4051 19.673 34.019 18.7373C33.6381 17.8169 33.2827 16.8863 32.9018 15.9659C32.6563 15.3727 32.3776 14.7949 32.1322 14.2018C31.7692 13.3223 31.4266 12.4326 31.0635 11.5531C30.79 10.8858 30.4959 10.2262 30.2122 9.564L30.1661 9.57679V24.5818H30.1738Z" fill="#041449"/>
<path d="M23.3055 10.3924C23.3055 13.1663 23.3183 15.9403 23.2978 18.7117C23.2927 19.402 23.239 20.1 23.1061 20.7749C22.9373 21.634 22.5641 22.424 22.0042 23.1168C21.4494 23.802 20.7284 24.229 19.9026 24.5102C18.7112 24.9167 17.4866 24.9934 16.2568 24.817C14.6257 24.5843 13.3524 23.7892 12.5445 22.3089C11.89 21.1047 11.683 19.8085 11.6753 18.4663C11.6676 17.0806 11.6753 15.6923 11.6753 14.3066C11.6753 9.95517 11.6753 5.60375 11.6753 1.25488C11.6753 1.01285 11.7963 0.891832 12.0383 0.891832C12.9894 0.891832 13.9405 0.891832 14.8916 0.891832C15.0245 0.891832 15.1038 0.907172 15.1038 1.07335C15.0961 2.62013 15.0961 4.16435 15.0961 5.71112C15.0961 9.73019 15.091 13.7518 15.1012 17.7709C15.1012 18.4305 15.1574 19.0927 15.2393 19.7446C15.293 20.169 15.4208 20.5857 15.7301 20.9232C16.106 21.3323 16.5662 21.5752 17.1133 21.6161C17.5045 21.6442 17.911 21.6672 18.2919 21.5905C18.9796 21.4524 19.4219 20.9897 19.6725 20.3429C19.8719 19.8341 19.9767 19.3049 19.9819 18.7603C19.9946 17.3874 20.0074 16.0119 20.0074 14.639C20.0074 10.1239 20.0074 5.6063 20.0023 1.09125C20.0023 0.935295 20.0432 0.886719 20.2068 0.886719C21.1758 0.894389 22.1473 0.896945 23.1163 0.886719C23.2851 0.886719 23.3132 0.945522 23.3132 1.09636C23.3081 4.19503 23.3106 7.29114 23.3106 10.3898H23.3081L23.3055 10.3924Z" fill="#041449"/>
<path d="M61.2031 24.5818C63.9157 17.6916 66.6028 10.8628 69.3026 4.00072H62.4661C62.4814 3.77574 62.4917 3.57632 62.5096 3.3769C62.5709 2.61757 62.6349 1.85569 62.6911 1.09636C62.7013 0.953192 62.7371 0.886719 62.9059 0.886719C66.5056 0.891832 70.1054 0.891832 73.7052 0.894389C73.7563 0.894389 73.8049 0.894389 73.9199 0.894389C71.2584 7.81014 68.5791 14.6824 65.9125 21.6007H73.222C73.2041 21.8257 73.1964 22.02 73.1708 22.2118C73.0737 22.9558 72.9688 23.6972 72.8717 24.4386C72.8564 24.5665 72.7745 24.569 72.6799 24.5716C72.3936 24.5741 72.1047 24.5818 71.8184 24.5818C68.5049 24.5818 65.1941 24.5818 61.8806 24.5818C61.671 24.5818 61.4613 24.5818 61.2031 24.5818Z" fill="#041449"/>
<path d="M50.764 14.2401H46.612C46.6069 14.3015 46.5967 14.3475 46.5967 14.3961C46.5967 16.6741 46.5967 18.9495 46.5915 21.2275C46.5915 21.3885 46.6529 21.4115 46.7961 21.4115C48.3531 21.4115 49.9101 21.4115 51.4671 21.4167C51.5489 21.4167 51.6307 21.4243 51.733 21.4294C51.7023 21.7516 51.6691 22.0584 51.6409 22.3677C51.5796 23.0452 51.5157 23.7228 51.4671 24.4003C51.4569 24.5307 51.4108 24.5639 51.3009 24.5665C51.0018 24.569 50.7001 24.5792 50.401 24.5792C48.0514 24.5792 45.7044 24.5792 43.3548 24.5869C43.1631 24.5869 43.1094 24.5409 43.1094 24.344C43.1145 16.6485 43.1119 8.95041 43.1094 1.25488C43.1094 0.886719 43.1094 0.886719 43.4852 0.886719C46.1032 0.886719 48.7187 0.889275 51.3367 0.886719C51.4901 0.886719 51.531 0.937852 51.5387 1.08102C51.5924 2.01932 51.6537 2.96017 51.7176 3.89846C51.7279 4.03907 51.7023 4.09276 51.5489 4.09276C49.9587 4.08765 48.371 4.09276 46.7807 4.08765C46.6248 4.08765 46.589 4.12856 46.589 4.2794C46.5941 6.48579 46.5941 8.69474 46.589 10.9011C46.589 11.0903 46.6478 11.1312 46.8268 11.1312C48.0897 11.1261 49.3553 11.1312 50.6183 11.1312C50.7282 11.1312 50.7845 11.1568 50.7845 11.277C50.7819 12.2306 50.7793 13.1842 50.7768 14.1379C50.7768 14.1685 50.7666 14.1992 50.7614 14.2401H50.764Z" fill="#041449"/>
<path d="M0 0.888672C0.209646 0.888672 0.401395 0.888672 0.590587 0.888672C3.10633 0.888672 5.61953 0.888672 8.13527 0.888672C8.39094 0.888672 8.39094 0.888672 8.40372 1.14689C8.45485 2.06218 8.50599 2.9749 8.55712 3.89018C8.55968 3.94643 8.55712 4.00268 8.55712 4.07938C8.47531 4.08449 8.40884 4.0896 8.33981 4.0896C6.8007 4.0896 5.26415 4.0896 3.72505 4.0896C3.44893 4.0896 3.44126 4.0896 3.44381 4.3555C3.44381 6.53632 3.45148 8.7197 3.45148 10.9005C3.45148 11.0821 3.5154 11.123 3.68414 11.123C4.92923 11.1204 6.17432 11.1281 7.41941 11.123C7.58559 11.123 7.63417 11.1613 7.63417 11.3326C7.62906 12.2556 7.63928 13.176 7.6444 14.0989C7.6444 14.1373 7.63928 14.173 7.63673 14.237H3.4566C3.45148 14.3239 3.44381 14.3853 3.44381 14.4466C3.44381 16.7118 3.44893 18.977 3.44381 21.2396C3.44381 21.3854 3.50773 21.4084 3.62789 21.4084C4.25939 21.4084 4.89088 21.4084 5.52493 21.4084C6.45044 21.4084 7.37595 21.4084 8.30146 21.4084C8.38327 21.4084 8.46508 21.416 8.56991 21.4212C8.55201 21.6871 8.54178 21.9376 8.52133 22.1882C8.45997 22.9245 8.39605 23.6582 8.33469 24.392C8.32447 24.5019 8.30146 24.5633 8.16595 24.5633C5.46613 24.5633 2.7663 24.5735 0.0664728 24.5786C0.0485762 24.5786 0.0306797 24.571 0.00255647 24.5633V0.888672H0Z" fill="#041449"/>
<path d="M57.8911 24.5792C57.3874 24.5792 56.8812 24.5716 56.3775 24.5818C56.1934 24.5843 56.1219 24.5383 56.0758 24.3415C55.9429 23.7662 55.7665 23.2038 55.6156 22.6311C55.2807 21.3732 54.956 20.1128 54.6211 18.8574C54.4319 18.1467 54.2171 17.4411 54.0484 16.7252C53.987 16.4619 54.0075 16.173 54.0305 15.8968C54.1353 14.6569 54.2529 13.4169 54.3731 12.1769C54.4728 11.1517 54.5981 10.129 54.6952 9.10636C54.887 7.12751 55.0634 5.1461 55.2526 3.1647C55.3191 2.4565 55.406 1.74831 55.4776 1.04267C55.4904 0.917399 55.5466 0.886719 55.6642 0.886719C56.6843 0.889275 57.707 0.891832 58.7271 0.886719C58.8754 0.886719 58.9112 0.937852 58.8958 1.07847C58.7654 2.29799 58.6376 3.51752 58.5174 4.7396C58.4407 5.53727 58.387 6.33751 58.3103 7.13263C58.2209 8.05558 58.116 8.97853 58.0266 9.90148C57.9345 10.8577 57.8604 11.8139 57.7683 12.77C57.707 13.3964 57.6277 14.0203 57.5638 14.6466C57.5152 15.1196 57.4462 15.5951 57.4411 16.0707C57.4385 16.3494 57.5306 16.6332 57.6022 16.9067C57.8834 17.9882 58.1697 19.0671 58.4612 20.1486C58.7066 21.0562 58.9597 21.9612 59.2077 22.8688C59.3483 23.3827 59.4787 23.9017 59.6219 24.413C59.6628 24.5588 59.6142 24.5895 59.4787 24.5869C58.9495 24.5818 58.4203 24.5869 57.8885 24.5869V24.5818L57.8911 24.5792Z" fill="#041449"/>
<path d="M84.7136 20.4704C84.3787 20.4704 84.0744 20.4781 83.7727 20.4627C83.7242 20.4627 83.6654 20.3656 83.6398 20.3017C83.4123 19.7545 83.0211 19.4477 82.4177 19.3762C81.372 19.2534 80.738 19.8082 80.4644 20.6749C80.2062 21.4905 80.2931 22.2856 80.6613 23.0475C80.8888 23.5154 81.3209 23.7301 81.8067 23.8222C82.5865 23.9679 83.5963 23.5103 83.7727 22.4953C83.8136 22.2626 83.806 22.2524 83.5605 22.2524C83.1387 22.2524 82.7168 22.2498 82.2975 22.2524C82.1569 22.2524 82.0879 22.2217 82.1007 22.0581C82.1186 21.8587 82.1058 21.6541 82.1058 21.4394C82.7935 21.4394 83.4583 21.4394 84.1204 21.4394C84.2917 21.4394 84.4656 21.4445 84.6369 21.4317C84.7647 21.4215 84.8031 21.4675 84.8031 21.5928C84.798 22.0504 84.798 22.5081 84.798 22.9657C84.798 23.4361 84.7928 23.9065 84.8031 24.377C84.8056 24.5253 84.7571 24.5611 84.6164 24.5611C84.0974 24.5611 84.0974 24.5662 83.9747 24.0574C83.9594 23.9909 83.9415 23.9219 83.9159 23.8171C83.8034 23.9168 83.6986 23.9986 83.6014 24.0932C82.9904 24.6863 82.249 24.8039 81.4564 24.6352C80.2241 24.3744 79.6284 23.4975 79.3932 22.347C79.2117 21.4675 79.3344 20.6085 79.7818 19.8185C80.1397 19.1844 80.6817 18.7702 81.395 18.6015C82.2132 18.4072 83.0032 18.4711 83.7344 18.9262C84.2969 19.2764 84.5525 19.8185 84.7136 20.4755V20.4704Z" fill="#041449"/>
<path d="M80.5725 1.69596C80.5725 2.2124 80.5725 2.69305 80.5725 3.17626C80.5725 3.31943 80.6722 3.29898 80.7565 3.29898C81.3701 3.29898 81.9812 3.29898 82.5948 3.29898C82.83 3.29898 83.0678 3.30154 83.303 3.29898C83.4078 3.29898 83.4538 3.33222 83.4487 3.44215C83.4436 3.60833 83.4359 3.77452 83.4512 3.93814C83.4691 4.13245 83.3797 4.17591 83.2058 4.16824C82.7789 4.1529 82.3519 4.15034 81.9249 4.14523C81.5491 4.14012 81.1733 4.14267 80.7949 4.14012C80.7259 4.14012 80.6568 4.14779 80.5699 4.1529C80.5699 4.59265 80.5699 5.01705 80.5699 5.44146C80.5699 5.95023 80.5699 5.95279 81.0812 5.95534C81.9556 5.9579 82.83 5.96046 83.7044 5.96301C83.7734 5.96301 83.8424 5.96301 83.9421 5.96301C83.9421 6.22635 83.9472 6.46923 83.937 6.71467C83.937 6.74535 83.8629 6.79392 83.822 6.79904C83.6762 6.81182 83.528 6.80671 83.3822 6.80671C82.1832 6.80671 80.9841 6.80671 79.7825 6.81182C79.6188 6.81182 79.56 6.77092 79.5626 6.59706C79.5677 4.75883 79.5651 2.92059 79.5626 1.08492C79.5626 0.895724 79.6188 0.847147 79.8131 0.849704C81.0966 0.862487 82.3775 0.859931 83.6609 0.854817C83.8296 0.854817 83.891 0.903394 83.8808 1.06958C83.8705 1.21531 83.8705 1.36359 83.8808 1.50676C83.8884 1.65761 83.8296 1.70363 83.6814 1.70107C82.7303 1.6934 81.7792 1.69596 80.8307 1.6934C80.7565 1.6934 80.6798 1.6934 80.5776 1.6934L80.5725 1.69596Z" fill="#041449"/>
<path d="M83.1789 9.73983C83.4959 9.73983 83.7925 9.73472 84.089 9.7475C84.1223 9.7475 84.176 9.87022 84.176 9.93669C84.1811 10.6679 84.176 11.3991 84.176 12.1303C84.176 12.6186 84.1939 13.1095 84.1709 13.5978C84.1555 13.9097 84.1044 14.2293 84.0149 14.5284C83.8129 15.2111 83.3118 15.5792 82.6266 15.7122C82.1076 15.8144 81.5861 15.8144 81.0671 15.7224C80.2106 15.5741 79.6021 14.9196 79.505 14.0248C79.4666 13.6796 79.4692 13.3268 79.4692 12.9791C79.4666 11.9743 79.4768 10.9696 79.4692 9.96737C79.4692 9.77051 79.528 9.71171 79.7197 9.7296C79.9038 9.7475 80.0904 9.75006 80.2745 9.73472C80.4509 9.71938 80.4918 9.78841 80.4918 9.94948C80.4842 10.8596 80.4842 11.7673 80.4816 12.6774C80.4816 12.9766 80.479 13.2757 80.4816 13.5748C80.4816 13.7154 80.4842 13.856 80.5097 13.9915C80.6171 14.577 80.8958 14.8608 81.5068 14.9171C81.8213 14.9477 82.1511 14.8889 82.4681 14.8378C82.8082 14.7841 82.9897 14.531 83.0843 14.2268C83.1405 14.0478 83.1738 13.8535 83.1738 13.6669C83.1814 12.4397 83.1789 11.2125 83.1789 9.98527V9.73727V9.73983Z" fill="#041449"/>
<path d="M97.4238 6.28005V8.25123C97.1605 8.25123 96.9125 8.25123 96.667 8.25123C96.5418 8.25123 96.5494 8.16686 96.5494 8.07993C96.552 6.955 96.5545 5.82752 96.5545 4.70259C96.5545 4.04809 96.5571 3.39358 96.5469 2.73652C96.5469 2.56779 96.5954 2.5141 96.7667 2.52688C96.9738 2.54478 97.186 2.53199 97.4136 2.53199V3.04844C97.5056 2.97685 97.567 2.94106 97.6156 2.89248C98.2982 2.17917 99.4742 2.28144 100.126 3.03821C100.643 3.63902 100.666 4.34466 100.62 5.07075C100.594 5.47726 100.461 5.84542 100.218 6.18545C99.6046 7.0496 98.3007 7.17999 97.5977 6.41044C97.5619 6.37209 97.5107 6.34652 97.4212 6.2826L97.4238 6.28005ZM97.4545 4.66424C97.4417 4.98894 97.5337 5.29574 97.6744 5.59486C97.8533 5.97581 98.1601 6.15733 98.5692 6.17011C98.9731 6.18545 99.3208 6.03972 99.51 5.67156C99.6276 5.44658 99.7018 5.1858 99.7376 4.93269C99.8092 4.44181 99.735 3.96883 99.4282 3.55721C99.0038 2.98708 98.0348 3.04077 97.7101 3.65436C97.5465 3.96372 97.4417 4.29864 97.4545 4.66424Z" fill="#041449"/>
<path d="M105.756 3.86474C105.807 3.36108 105.994 2.97758 106.408 2.72447C107.034 2.34608 107.704 2.31796 108.379 2.53272C108.944 2.71169 109.249 3.15399 109.259 3.74202C109.272 4.39652 109.264 5.05102 109.269 5.70553C109.269 5.82569 109.284 5.94585 109.289 6.06602C109.297 6.2322 109.366 6.33702 109.548 6.36259C109.596 6.37026 109.676 6.44184 109.673 6.48019C109.665 6.59013 109.658 6.75376 109.586 6.79466C109.228 7.01198 108.643 6.83813 108.464 6.47252C108.395 6.32935 108.341 6.34725 108.244 6.44184C107.602 7.05544 106.577 6.99153 106.099 6.66683C105.659 6.37026 105.541 5.96886 105.587 5.48054C105.633 5.01523 105.907 4.71866 106.324 4.57037C106.735 4.42464 107.165 4.33261 107.587 4.215C107.763 4.16387 107.945 4.1204 108.113 4.04882C108.305 3.96956 108.387 3.80849 108.374 3.60396C108.361 3.4071 108.254 3.27159 108.065 3.21023C107.712 3.09518 107.359 3.11308 107.014 3.23324C106.797 3.30994 106.682 3.48635 106.654 3.70878C106.638 3.83406 106.585 3.86474 106.469 3.86218C106.242 3.85451 106.012 3.86218 105.756 3.86218V3.86474ZM108.39 4.58571C107.986 4.69309 107.635 4.77746 107.29 4.88484C107.091 4.9462 106.894 5.02801 106.712 5.12772C106.503 5.24277 106.464 5.45753 106.475 5.67485C106.485 5.89472 106.59 6.05323 106.807 6.14016C107.119 6.26799 107.421 6.20408 107.722 6.11204C108.062 6.00721 108.287 5.77967 108.344 5.43452C108.387 5.16863 108.374 4.89251 108.39 4.58827V4.58571Z" fill="#041449"/>
<path d="M105.143 5.50372C105.028 5.91534 104.837 6.22214 104.553 6.45224C103.878 6.99681 103.116 7.06328 102.341 6.73091C101.487 6.36531 101.104 5.65712 101.066 4.74951C101.045 4.30465 101.124 3.88024 101.329 3.47629C101.623 2.89593 102.116 2.58402 102.725 2.45363C103.144 2.36415 103.571 2.37949 103.98 2.56101C104.714 2.8857 105.064 3.46862 105.154 4.23818C105.169 4.37112 105.177 4.50407 105.187 4.63701C105.205 4.88501 105.205 4.89012 104.962 4.89012C104.082 4.89524 103.2 4.90035 102.321 4.90035C101.902 4.90035 101.879 4.92592 102.004 5.32731C102.193 5.92812 102.827 6.28094 103.461 6.14033C103.801 6.06618 104.082 5.9179 104.228 5.57786C104.244 5.54207 104.302 5.50372 104.343 5.50116C104.596 5.49349 104.849 5.49861 105.143 5.49861V5.50372ZM104.292 4.23306C104.313 4.21261 104.333 4.19216 104.353 4.1717C104.279 3.97484 104.238 3.75752 104.123 3.58879C103.804 3.12347 103.029 2.99308 102.5 3.305C102.224 3.46607 102.024 3.70128 101.96 4.03364C101.93 4.19216 101.983 4.23562 102.134 4.23562C102.727 4.23306 103.321 4.23562 103.914 4.23562C104.039 4.23562 104.167 4.23562 104.292 4.23562V4.23306Z" fill="#041449"/>
<path d="M88.1847 24.0835C88.0517 24.2062 87.9469 24.3493 87.8037 24.4286C87.2566 24.7303 86.6865 24.7916 86.0959 24.5462C85.7737 24.4107 85.559 24.1832 85.4465 23.8636C85.2036 23.1656 85.5973 22.4728 86.3592 22.2631C86.758 22.1532 87.162 22.0663 87.5634 21.9614C87.6784 21.9308 87.7909 21.8822 87.9034 21.8336C88.0671 21.7646 88.1847 21.6444 88.1847 21.4603C88.1847 21.2584 88.1003 21.0794 87.9034 21.0001C87.5174 20.8467 87.116 20.8442 86.7657 21.0666C86.6251 21.1561 86.5484 21.3683 86.4768 21.537C86.4308 21.6418 86.3924 21.6904 86.2748 21.6828C86.1035 21.6725 85.9297 21.6725 85.7584 21.6751C85.6408 21.6751 85.6076 21.6393 85.6203 21.5166C85.7021 20.7803 86.2186 20.3635 86.8296 20.2868C87.162 20.2459 87.5071 20.2229 87.8395 20.2561C88.6653 20.3405 89.059 20.7905 89.0693 21.624C89.0795 22.3168 89.0718 23.0097 89.0744 23.7051C89.0744 24.0068 89.1025 24.0298 89.3863 24.1397C89.4349 24.1576 89.4834 24.2471 89.486 24.3059C89.4886 24.403 89.5218 24.5181 89.3684 24.5692C88.8673 24.7328 88.4966 24.5897 88.1872 24.086L88.1847 24.0835ZM88.2153 22.4037C87.8267 22.4881 87.479 22.5418 87.1492 22.6441C86.9114 22.7182 86.6813 22.8358 86.4717 22.9713C86.2595 23.1068 86.2339 23.3369 86.2953 23.5696C86.3566 23.7997 86.5126 23.971 86.7478 23.9761C87.0342 23.9837 87.3359 23.9658 87.6094 23.884C87.8676 23.8073 88.0773 23.6002 88.1259 23.3165C88.1795 23.0148 88.1872 22.7029 88.2153 22.4037Z" fill="#041449"/>
<path d="M99.0946 14.376C98.8696 14.9896 98.55 15.4549 97.9594 15.6672C97.558 15.8103 97.1336 15.8103 96.7118 15.7592C95.7888 15.6493 95.0755 14.7212 95.0167 13.811C94.9758 13.177 95.0678 12.5787 95.4692 12.0623C95.9499 11.4384 96.6197 11.262 97.3586 11.3362C98.4043 11.441 98.9744 12.1262 99.1073 13.1463C99.1278 13.3048 99.1304 13.4633 99.1508 13.6218C99.1713 13.7829 99.0843 13.7931 98.9565 13.7906C98.0182 13.788 97.0799 13.788 96.1442 13.7906C95.8757 13.7906 95.8783 13.7906 95.9192 14.0488C95.9984 14.532 96.272 14.8567 96.7322 15.0203C97.1899 15.1839 97.5964 15.0638 97.962 14.7672C98.0259 14.7161 98.0949 14.6496 98.1179 14.578C98.1716 14.3991 98.2969 14.3709 98.4554 14.376C98.6574 14.3812 98.8593 14.376 99.0997 14.376H99.0946ZM95.8911 13.0824C95.9243 13.0977 95.9524 13.1207 95.9806 13.1207C96.7066 13.1233 97.4327 13.1258 98.1614 13.1207C98.1972 13.1207 98.2688 13.0312 98.2585 13.0031C98.1869 12.8037 98.1333 12.5864 98.0131 12.4202C97.6245 11.8833 96.5967 11.9038 96.1876 12.3793C96.0112 12.5838 95.9192 12.8037 95.8911 13.0824Z" fill="#041449"/>
<path d="M100.428 23.2587C100.198 23.9644 99.7892 24.422 99.0887 24.6138C97.933 24.9333 96.7033 24.3376 96.4323 23.0951C96.2661 22.3307 96.2993 21.5637 96.8337 20.9041C97.2223 20.426 97.7413 20.2521 98.3319 20.2291C98.9966 20.2035 99.5872 20.3672 100.004 20.9245C100.367 21.4077 100.477 21.9702 100.49 22.5582C100.492 22.686 100.408 22.6809 100.324 22.6809C99.8071 22.6809 99.2906 22.686 98.7742 22.686C98.3217 22.686 97.8691 22.6886 97.4166 22.6809C97.2734 22.6809 97.2274 22.7244 97.2376 22.8676C97.276 23.3508 97.6825 23.8519 98.1248 23.949C98.7179 24.0769 99.2344 23.8621 99.5054 23.384C99.5335 23.3329 99.6 23.269 99.6486 23.2664C99.8966 23.2536 100.145 23.2613 100.426 23.2613L100.428 23.2587ZM98.4214 22.0366C98.7461 22.0366 99.0708 22.0366 99.3954 22.0366C99.6332 22.0366 99.6383 22.006 99.5923 21.7656C99.4977 21.2875 98.9532 20.8938 98.4265 20.8989C97.8512 20.9041 97.345 21.2901 97.2453 21.8117C97.2095 22.006 97.2325 22.0341 97.4268 22.0366C97.7592 22.0366 98.089 22.0366 98.4214 22.0366Z" fill="#041449"/>
<path d="M93.9465 2.41514C94.8464 2.3819 95.7873 3.12078 95.9202 4.15622C95.9893 4.69312 95.9611 5.21468 95.7745 5.71322C95.5751 6.24756 95.1558 6.6055 94.624 6.78702C94.0053 6.99666 93.3789 6.98899 92.7934 6.65663C92.1747 6.30637 91.7887 5.79248 91.7196 5.06895C91.6685 4.52949 91.6787 3.9926 91.9421 3.50683C92.3486 2.75773 93.0082 2.41003 93.949 2.41514H93.9465ZM95.0689 4.59597C95.0586 4.50648 95.0484 4.32752 95.0177 4.15366C94.9206 3.61932 94.5038 3.22049 94.0078 3.17958C93.3457 3.12333 92.9341 3.31764 92.6835 3.96703C92.502 4.43745 92.5224 4.95134 92.6963 5.42944C92.998 6.25523 94.1689 6.44187 94.7442 5.77458C95.0177 5.45756 95.0561 5.07662 95.0663 4.59597H95.0689Z" fill="#041449"/>
<path d="M89.7602 23.1497C89.9929 23.1497 90.2102 23.1395 90.425 23.1548C90.4838 23.16 90.5579 23.2239 90.5937 23.2827C90.6576 23.3901 90.6755 23.5307 90.7548 23.6253C90.857 23.748 90.9823 23.8809 91.1255 23.9295C91.4553 24.042 91.803 24.0573 92.1405 23.9423C92.3603 23.8681 92.5316 23.725 92.57 23.477C92.6032 23.2673 92.5086 23.0833 92.2913 23.0117C91.8644 22.8685 91.4348 22.7304 90.9976 22.6231C90.6832 22.5464 90.4147 22.4032 90.1693 22.2063C89.7679 21.8842 89.7577 21.1428 90.1207 20.7439C90.4761 20.3502 90.9388 20.2428 91.4323 20.23C91.9692 20.2172 92.4882 20.2786 92.9075 20.68C93.1376 20.8999 93.2373 21.1709 93.2833 21.4726C93.2986 21.5697 93.2552 21.6132 93.1555 21.6106C92.9586 21.6004 92.7592 21.603 92.5649 21.5799C92.5086 21.5723 92.4396 21.5007 92.4115 21.4419C92.1533 20.9382 91.5703 20.7439 91.0539 20.9996C90.88 21.0865 90.7522 21.2092 90.7624 21.4265C90.7727 21.6439 90.9133 21.7385 91.0974 21.7896C91.5754 21.9251 92.0535 22.0555 92.5316 22.1884C93.1631 22.3648 93.5057 22.8276 93.4827 23.4642C93.4674 23.8937 93.0967 24.3539 92.6365 24.5227C91.9947 24.7604 91.353 24.7655 90.7139 24.515C90.1335 24.2874 89.8037 23.8656 89.75 23.2367C89.75 23.2136 89.7577 23.1881 89.7653 23.1446L89.7602 23.1497Z" fill="#041449"/>
<path d="M111.055 2.53409V3.03775C111.262 2.88691 111.441 2.72839 111.646 2.61079C112.262 2.2503 113.379 2.31166 113.755 3.19882C113.837 3.39312 113.88 3.61555 113.883 3.82776C113.898 4.75582 113.888 5.68389 113.896 6.61195C113.896 6.76024 113.855 6.81904 113.701 6.80881C113.522 6.79859 113.343 6.79859 113.167 6.80881C113.019 6.81648 112.985 6.75513 112.985 6.61962C112.991 5.83217 112.988 5.04217 112.985 4.25472C112.985 4.13967 112.985 4.02462 112.978 3.91213C112.947 3.51584 112.684 3.2116 112.288 3.20138C112.022 3.19371 111.743 3.25507 111.492 3.3471C111.242 3.43659 111.14 3.68714 111.096 3.94025C111.068 4.10899 111.058 4.28028 111.058 4.45158C111.053 5.17 111.058 5.88842 111.058 6.60684C111.058 6.66308 111.058 6.71933 111.058 6.80626C110.787 6.80626 110.529 6.81137 110.27 6.80115C110.237 6.80115 110.181 6.71933 110.181 6.67331C110.178 5.34385 110.181 4.01695 110.181 2.68749C110.181 2.56733 110.227 2.53153 110.339 2.53409C110.569 2.5392 110.797 2.53409 111.058 2.53409H111.055Z" fill="#041449"/>
<path d="M102.438 14.2788C102.711 14.2788 102.954 14.2737 103.194 14.2839C103.238 14.2839 103.297 14.3478 103.314 14.3938C103.55 15.0841 104.475 15.3654 105.073 14.9256C105.365 14.7109 105.347 14.2634 105.02 14.1024C104.805 13.9975 104.57 13.9157 104.337 13.8748C103.918 13.8032 103.522 13.678 103.146 13.4811C102.78 13.2894 102.586 12.9749 102.581 12.5735C102.576 12.1568 102.765 11.8142 103.135 11.6147C103.828 11.2389 104.544 11.2031 105.265 11.5406C105.674 11.7323 105.902 12.0724 106.022 12.4942C106.058 12.6246 106.022 12.686 105.879 12.6809C105.695 12.6758 105.508 12.6936 105.324 12.6758C105.255 12.6681 105.158 12.6042 105.137 12.5428C105.048 12.2616 104.856 12.0928 104.58 12.057C104.345 12.0264 104.097 12.0366 103.862 12.0775C103.624 12.1158 103.468 12.328 103.468 12.5326C103.468 12.7115 103.601 12.8598 103.849 12.9289C104.301 13.0567 104.759 13.1717 105.214 13.2945C105.227 13.297 105.24 13.3021 105.25 13.3047C106.073 13.568 106.311 14.0563 106.091 14.9409C106.004 15.2938 105.707 15.5162 105.39 15.6261C104.71 15.8665 104.012 15.8741 103.337 15.5852C102.852 15.3756 102.583 14.9767 102.461 14.4731C102.448 14.4194 102.448 14.3631 102.438 14.2788Z" fill="#041449"/>
<path d="M85.0207 15.6929V15.4986C85.0207 14.2152 85.0233 12.9292 85.0156 11.6457C85.0156 11.477 85.0642 11.4182 85.2304 11.431C85.3966 11.4438 85.5627 11.4438 85.7264 11.4361C85.8568 11.431 85.8977 11.4847 85.8926 11.6048C85.8874 11.7097 85.8926 11.817 85.8926 11.9372C86.0996 11.7838 86.2735 11.6227 86.4755 11.5179C86.9715 11.2648 87.4853 11.2392 88.0069 11.4642C88.5208 11.6866 88.7049 12.1289 88.7202 12.6326C88.7458 13.6041 88.7279 14.5782 88.733 15.5498C88.733 15.6674 88.6895 15.7032 88.5719 15.698C88.4006 15.6878 88.2268 15.6878 88.0555 15.698C87.8995 15.7083 87.8458 15.652 87.8458 15.4935C87.8509 14.7367 87.8484 13.98 87.8458 13.2232C87.8458 13.0902 87.8407 12.9547 87.8228 12.8244C87.7282 12.198 87.3345 11.9372 86.6519 12.1034C86.1712 12.221 85.9002 12.6045 85.8977 13.1005C85.8926 13.8956 85.8926 14.6907 85.8977 15.4833C85.8977 15.6546 85.8414 15.7057 85.6752 15.6955C85.4656 15.6827 85.2559 15.6929 85.0207 15.6929Z" fill="#041449"/>
<path d="M111.405 16.3855C111.535 16.3855 111.681 16.3983 111.824 16.3855C112.374 16.3292 112.652 15.8205 112.432 15.2554C112.238 14.7594 112.023 14.2686 111.826 13.7751C111.591 13.1845 111.364 12.594 111.131 12.0034C111.062 11.8295 110.988 11.6557 110.898 11.4409C111.203 11.4409 111.479 11.4332 111.755 11.4486C111.806 11.4511 111.875 11.5406 111.898 11.6045C112.031 11.9548 112.151 12.3102 112.282 12.6604C112.509 13.2664 112.739 13.8723 112.972 14.4757C112.99 14.5217 113.013 14.5677 113.049 14.6495C113.11 14.4501 113.156 14.2865 113.21 14.1228C113.488 13.2919 113.775 12.4636 114.048 11.6301C114.097 11.4844 114.156 11.4205 114.314 11.4332C114.498 11.4486 114.685 11.4435 114.869 11.4358C114.999 11.4307 115.03 11.4844 114.989 11.5969C114.869 11.9318 114.751 12.2667 114.626 12.5991C114.391 13.2306 114.161 13.8621 113.913 14.4884C113.642 15.1736 113.368 15.8562 113.072 16.5286C112.903 16.907 112.581 17.1065 112.156 17.109C111.952 17.109 111.75 17.0886 111.545 17.0809C111.44 17.0758 111.402 17.0221 111.405 16.9224C111.407 16.7511 111.405 16.5798 111.405 16.3855Z" fill="#041449"/>
<path d="M84.5651 2.53288C84.7952 2.53288 85.0202 2.5431 85.2401 2.53032C85.4012 2.52009 85.4318 2.58657 85.4293 2.72974C85.4242 3.52486 85.4216 4.31998 85.4293 5.11254C85.4293 5.28128 85.4523 5.45513 85.4983 5.61876C85.5852 5.91277 85.7949 6.08663 86.1042 6.12498C86.8738 6.22724 87.3417 5.86675 87.3647 5.12532C87.3902 4.35577 87.3698 3.58622 87.3724 2.81922C87.3724 2.72463 87.3724 2.63259 87.3724 2.53288H88.2365C88.2442 2.62492 88.257 2.70417 88.257 2.78598C88.257 4.04386 88.257 5.30429 88.257 6.56216C88.257 6.72749 88.1734 6.81016 88.0064 6.81016C87.853 6.81016 87.6996 6.80249 87.5462 6.81016C87.4184 6.81527 87.3749 6.75903 87.3826 6.63886C87.3877 6.52893 87.3826 6.41643 87.3826 6.29371C87.1883 6.43689 87.0246 6.59029 86.8329 6.69C86.2423 6.99679 85.6492 7.00958 85.0816 6.61841C84.762 6.39598 84.5805 6.06106 84.5703 5.69801C84.537 4.67024 84.5498 3.63991 84.5472 2.61213C84.5472 2.59424 84.5549 2.57634 84.5651 2.53543V2.53288Z" fill="#041449"/>
<path d="M106.307 23.8563C106.307 24.0582 106.299 24.2219 106.307 24.3855C106.317 24.5363 106.261 24.5875 106.11 24.5849C105.778 24.5747 105.446 24.5772 105.116 24.5747C104.387 24.5747 103.661 24.5696 102.932 24.5747C102.794 24.5747 102.756 24.5338 102.741 24.3932C102.702 24.0327 102.845 23.7668 103.07 23.4983C103.722 22.7109 104.354 21.903 105.021 21.0644C104.911 21.0593 104.834 21.0516 104.758 21.0516C104.195 21.0516 103.635 21.0439 103.073 21.0516C102.912 21.0516 102.856 20.9979 102.874 20.842C102.886 20.7346 102.886 20.6247 102.874 20.5173C102.856 20.3639 102.912 20.3179 103.065 20.3204C103.978 20.3281 104.891 20.323 105.803 20.3255C106.205 20.3255 106.213 20.3281 106.189 20.7371C106.184 20.842 106.141 20.9621 106.074 21.0439C105.41 21.8979 104.737 22.7467 104.067 23.5955C104.006 23.6747 103.935 23.7463 103.84 23.8563H106.302H106.307Z" fill="#041449"/>
<path d="M94.9232 11.4565C94.9027 11.5409 94.8951 11.592 94.8797 11.638C94.6726 12.2107 94.4579 12.7809 94.2559 13.3535C94.0002 14.072 93.7497 14.7904 93.5068 15.5114C93.4608 15.6494 93.4045 15.7057 93.2537 15.698C93.0236 15.6852 92.7935 15.6929 92.5659 15.698C92.4535 15.698 92.3998 15.6596 92.3614 15.5472C91.9063 14.2433 91.4436 12.9394 90.9834 11.6355C90.9655 11.5843 90.9553 11.5307 90.9297 11.4361C91.2339 11.4361 91.51 11.4335 91.7862 11.4412C91.822 11.4412 91.8756 11.4949 91.891 11.5358C91.9651 11.725 92.0367 11.9141 92.0981 12.1085C92.3461 12.901 92.5864 13.6961 92.8318 14.4913C92.8548 14.568 92.8881 14.6421 92.9597 14.7214C93.0287 14.4964 93.0952 14.2739 93.1668 14.049C93.4071 13.3075 93.6397 12.5635 93.8903 11.8247C94.0258 11.4233 94.0386 11.4258 94.4655 11.4335C94.6113 11.4335 94.7544 11.4488 94.9257 11.4565H94.9232Z" fill="#041449"/>
<path d="M108.945 10.1244C109.003 10.1167 109.06 10.1013 109.116 10.0988C109.343 10.0962 109.573 10.0988 109.829 10.0988C109.829 10.5053 109.839 10.8709 109.824 11.2365C109.819 11.3925 109.87 11.4385 110.016 11.4334C110.213 11.4257 110.407 11.4334 110.634 11.4334C110.634 11.6609 110.642 11.8552 110.627 12.0495C110.624 12.0853 110.53 12.1364 110.476 12.139C110.266 12.1492 110.057 12.1441 109.839 12.1441C109.829 12.1952 109.819 12.231 109.819 12.2668C109.819 12.9648 109.827 13.6653 109.827 14.3633C109.827 14.8235 109.947 14.959 110.417 14.9513C110.609 14.9488 110.67 15.005 110.645 15.1865C110.634 15.2556 110.645 15.3272 110.645 15.3962C110.645 15.703 110.645 15.7081 110.333 15.726C110.149 15.7362 109.96 15.7439 109.781 15.7158C109.295 15.6442 108.965 15.2632 108.955 14.7468C108.939 13.9389 108.934 13.1335 108.937 12.3256C108.937 12.185 108.893 12.1492 108.766 12.1467C108.344 12.1313 108.344 12.1288 108.336 11.712C108.333 11.528 108.421 11.4359 108.602 11.4359C108.64 11.4359 108.679 11.4308 108.717 11.4359C108.909 11.464 108.952 11.372 108.947 11.1956C108.934 10.8479 108.945 10.4976 108.945 10.1244Z" fill="#041449"/>
<path d="M95.9729 23.882C95.9729 24.0789 95.9831 24.2578 95.9677 24.4343C95.9626 24.4879 95.8834 24.5774 95.8399 24.5774C95.5229 24.5723 95.2059 24.5672 94.894 24.5289C94.6766 24.5007 94.5156 24.3473 94.4644 24.1402C94.3877 23.836 94.311 23.5215 94.2983 23.2096C94.2752 22.5551 94.2906 21.9006 94.2983 21.2436C94.2983 21.0953 94.2599 21.0441 94.1065 21.0416C93.6719 21.0365 93.6719 21.0288 93.6719 20.5942C93.6719 20.3155 93.6719 20.318 93.9659 20.3129C94.3213 20.3053 94.2906 20.3922 94.2906 19.9908C94.2906 19.7044 94.2957 19.4181 94.288 19.1318C94.2855 19.0142 94.3289 18.9758 94.444 18.9809C94.6792 18.9886 94.9118 18.9809 95.1701 18.9809C95.1701 19.3056 95.1701 19.6073 95.1701 19.9115C95.1701 19.9678 95.1777 20.0266 95.1701 20.0828C95.1496 20.2592 95.2084 20.3487 95.4027 20.318C95.4641 20.3078 95.5306 20.318 95.5945 20.318C95.9729 20.3232 95.9754 20.3232 95.9754 20.7118C95.9754 21.0876 96.0189 21.039 95.6558 21.039C95.1726 21.039 95.1726 21.039 95.1726 21.5146C95.1726 22.0668 95.1854 22.6216 95.1675 23.1738C95.1522 23.6494 95.4078 23.9025 95.8399 23.8641C95.8757 23.8616 95.9141 23.8692 95.9805 23.8769L95.9729 23.882Z" fill="#041449"/>
<path d="M102.16 11.3783V12.1683C102.094 12.1683 102.04 12.1683 101.987 12.1683C101.301 12.1376 100.68 12.6515 100.639 13.3316C100.603 13.9324 100.629 14.5383 100.626 15.1417C100.626 15.2235 100.616 15.3079 100.621 15.3897C100.649 15.7374 100.601 15.6914 100.309 15.6965C100.169 15.6965 100.028 15.6914 99.8875 15.7016C99.7597 15.7092 99.7213 15.6581 99.7239 15.5354C99.729 15.1928 99.7239 14.8477 99.7239 14.5051C99.7239 13.5565 99.729 12.6106 99.7188 11.6621C99.7188 11.4805 99.7801 11.4243 99.9488 11.4371C100.115 11.4473 100.281 11.4448 100.447 11.4422C100.565 11.4422 100.619 11.478 100.608 11.6109C100.596 11.7899 100.606 11.974 100.629 12.1785C100.964 11.5751 101.416 11.2147 102.158 11.3834L102.16 11.3783Z" fill="#041449"/>
<path d="M89.9475 3.26045C90.1239 3.05592 90.2875 2.83605 90.4818 2.64941C90.7273 2.41675 91.0469 2.40653 91.3639 2.43976C91.4022 2.44488 91.4687 2.49345 91.4687 2.52413C91.4764 2.77469 91.4738 3.02779 91.4738 3.2809C91.3894 3.2809 91.346 3.28346 91.3025 3.2809C90.4665 3.21187 89.9373 3.95586 89.9449 4.56946C89.9526 5.24953 89.9449 5.9296 89.9501 6.61222C89.9501 6.75795 89.9143 6.82187 89.7557 6.80909C89.5717 6.7963 89.385 6.81676 89.201 6.80142C89.1498 6.7963 89.0655 6.7196 89.0655 6.67614C89.0603 5.316 89.0629 3.9533 89.0655 2.59316C89.0655 2.57527 89.0757 2.55737 89.0834 2.53692C89.339 2.53692 89.5921 2.5318 89.8427 2.54459C89.8785 2.54459 89.9373 2.63407 89.9398 2.68265C89.9501 2.87695 89.9449 3.07381 89.9449 3.26301L89.9475 3.26045Z" fill="#041449"/>
<path d="M107.695 15.6959C107.449 15.6959 107.227 15.6908 107.004 15.6959C106.866 15.701 106.828 15.6397 106.828 15.5144C106.828 15.044 106.825 14.5735 106.823 14.1057C106.823 13.2747 106.823 12.4413 106.82 11.6104C106.82 11.4774 106.871 11.4288 107.002 11.434C107.186 11.4391 107.373 11.4416 107.557 11.434C107.669 11.4288 107.705 11.48 107.705 11.5797C107.705 11.7587 107.705 11.9351 107.705 12.114C107.705 13.2134 107.705 14.3127 107.705 15.4121C107.705 15.499 107.697 15.5885 107.69 15.6985L107.695 15.6959Z" fill="#041449"/>
<path d="M101.112 22.4336C101.112 21.7919 101.117 21.1502 101.109 20.5085C101.109 20.3679 101.148 20.3116 101.291 20.3167C101.483 20.327 101.674 20.3244 101.864 20.327C101.971 20.327 102.017 20.3653 102.017 20.4855C102.012 21.7894 102.012 23.0907 102.014 24.3946C102.014 24.5199 101.971 24.5659 101.848 24.5608C101.656 24.5557 101.465 24.5557 101.276 24.5608C101.15 24.5659 101.112 24.5224 101.112 24.3946C101.117 23.7401 101.114 23.0856 101.114 22.4311L101.112 22.4336Z" fill="#041449"/>
<path d="M90.4575 13.5817C90.4575 14.1979 90.4575 14.814 90.4575 15.4327C90.4575 15.6935 90.4575 15.6961 90.2018 15.6961C90.0561 15.6961 89.9078 15.6858 89.7621 15.7012C89.601 15.7165 89.5703 15.6449 89.5703 15.5043C89.5754 14.8754 89.5703 14.2464 89.5703 13.6149C89.5703 12.9528 89.5754 12.2932 89.5703 11.631C89.5703 11.4853 89.6087 11.4213 89.7672 11.4341C89.918 11.4469 90.074 11.4495 90.2248 11.4341C90.3987 11.4188 90.46 11.4725 90.4575 11.654C90.4472 12.2957 90.4524 12.9374 90.4524 13.5792L90.4575 13.5817Z" fill="#041449"/>
<path d="M90.04 10.6979C89.7179 10.6979 89.5287 10.524 89.5313 10.2351C89.5364 9.98458 89.7512 9.78516 90.0222 9.78516C90.3085 9.78516 90.5002 9.97691 90.5002 10.2633C90.5002 10.5445 90.3341 10.7004 90.04 10.6979Z" fill="#041449"/>
<path d="M107.277 10.6928C106.993 10.6928 106.784 10.5087 106.781 10.2505C106.781 10.0153 107.019 9.78516 107.27 9.78516C107.528 9.78516 107.753 9.99225 107.76 10.2428C107.768 10.4985 107.561 10.6902 107.277 10.6928Z" fill="#041449"/>
<path d="M102.06 19.1328C102.06 19.3834 101.861 19.5828 101.6 19.5879C101.329 19.593 101.086 19.3808 101.086 19.1328C101.086 18.8925 101.329 18.6752 101.6 18.6778C101.853 18.6778 102.063 18.8848 102.063 19.1303L102.06 19.1328Z" fill="#041449"/>
</svg>
