<svg width="43" height="44" viewBox="0 0 43 44" fill="none" xmlns="http://www.w3.org/2000/svg">
<g clip-path="url(#clip0_5660_15623)">
<path d="M21.4994 0C9.62587 0 0 9.84973 0 21.9994C0 34.1491 9.62587 44 21.4994 44C27.2017 44 32.6705 41.6821 36.7026 37.5562C40.7348 33.4303 43 27.8343 43 21.9994C43 9.84973 33.3741 0 21.4994 0ZM21.4994 39.1027C18.1936 39.1027 14.962 38.0996 12.2133 36.2203C9.46457 34.341 7.32222 31.6698 6.05713 28.5446C4.79204 25.4193 4.46104 21.9804 5.10598 18.6627C5.75091 15.345 7.34282 12.2975 9.6804 9.90553C12.018 7.51359 14.9962 5.88465 18.2386 5.22472C21.4809 4.56478 24.8416 4.90349 27.8958 6.198C30.95 7.49251 33.5605 9.68468 35.3971 12.4973C37.2337 15.3099 38.214 18.6167 38.214 21.9994C38.2142 24.2455 37.7819 26.4696 36.942 28.5447C36.1021 30.6199 34.8709 32.5054 33.3188 34.0936C31.7666 35.6818 29.924 36.9417 27.896 37.8011C25.868 38.6606 23.6945 39.1029 21.4994 39.1027Z" fill="#004CA6"/>
<path d="M22.9345 9.51005C21.67 9.98971 21.3618 9.9993 20.4677 9.73069C19.2349 9.35296 18.4942 9.41532 17.4208 9.97052C15.9208 10.7248 14.7653 12.3016 14.7653 13.5955C14.7653 14.1004 14.6575 14.369 14.3036 14.7791C13.7481 15.441 13.6403 16.025 13.7176 17.8968C13.7633 19.2063 13.8254 19.4737 14.2415 20.1368C14.504 20.5937 14.92 21.0194 15.2282 21.1777C15.6442 21.3983 15.8141 21.6345 16.1071 22.4392C16.3532 23.1335 16.6462 23.6071 17.0774 23.9849L17.6938 24.5532L17.0622 25.0425C16.2419 25.6888 15.5669 25.7836 14.1794 25.4994C12.268 25.0737 11.266 24.3326 10.5723 22.8025C10.2641 22.1082 10.2336 21.7617 10.2336 20.0445C10.2336 17.5359 10.4492 16.7157 11.143 16.3691C12.2071 15.8487 13.3778 14.5081 13.3778 13.7982C13.3778 13.5931 13.2852 13.5583 12.9465 13.6243C12.4684 13.719 11.9914 13.5296 12.2832 13.3569C12.575 13.1842 12.5 12.0007 12.2223 12.0007C11.436 12.0007 9.70978 13.5296 9.07696 14.8078C8.075 16.8128 7.59687 19.307 7.73398 21.7053C7.85117 23.9609 8.36563 25.3807 9.384 26.3903C9.98518 26.9731 11.5719 28.0931 11.8039 28.0931C12.2657 28.0931 11.9118 28.3773 11.1559 28.6135C10.6942 28.7718 10.277 29.008 10.2313 29.1507C10.0309 29.6544 10.6016 31.6426 11.0785 32.1786C11.4301 32.5575 11.6188 32.5095 12.7743 31.6426C14.4547 30.3967 14.9329 30.0021 15.2352 29.604C15.7743 28.9097 16.4833 28.5632 17.4395 28.5632C18.179 28.5632 18.3032 28.6099 18.3032 28.863C18.3032 29.2731 17.1923 30.5034 16.4071 30.9758C16.0555 31.1977 15.3126 31.4651 14.7876 31.5754C13.6778 31.8152 13.6321 31.9232 14.279 33.0587C14.8801 34.1308 15.9442 35.1872 16.4223 35.1872C16.7739 35.1872 16.761 35.156 16.2067 34.7303C15.1122 33.8909 14.7723 33.5156 14.4794 32.8057L14.1876 32.1114L15.4977 31.6701C16.8747 31.2145 17.8122 30.5789 18.2634 29.8103C18.4181 29.5585 18.5868 29.3534 18.6489 29.3534C18.8646 29.3534 18.7872 31.1821 18.5411 31.7817C18.2634 32.4448 18.4638 32.5395 18.8493 31.9244C19.0954 31.5454 19.1118 31.2301 19.0345 29.2419L18.9419 26.9707L19.5126 27.4288C20.3599 28.0751 20.838 28.249 21.9009 28.249C22.8804 28.2722 23.8326 27.9173 24.5681 27.2549L25.031 26.8448L24.9689 29.1004C24.9068 31.0718 24.9384 31.356 25.1693 31.561C25.4002 31.7661 25.4318 31.7349 25.3849 31.1509C25.3697 30.8199 25.3545 30.2516 25.3697 29.905L25.4002 29.2898L26.1408 30.0945C26.5416 30.5202 27.158 31.0094 27.5271 31.1821C27.8963 31.3548 28.1752 31.4975 28.1752 31.5418C28.1752 31.7157 25.8009 32.4879 24.7533 32.6774C22.672 33.024 21.1614 33.7494 20.5603 34.6644C20.129 35.3119 20.1747 35.6237 20.6681 35.2951C22.5431 34.0336 22.9181 33.9545 27.2506 33.6871L29.0225 33.5768L28.6369 34.018C28.4213 34.2699 28.0826 34.6332 27.867 34.8383L27.4814 35.198L28.1283 34.8503C28.5476 34.6074 28.9229 34.2926 29.2381 33.9197C29.5897 33.4628 29.8557 33.3046 30.5799 33.1475C32.5721 32.6894 33.9245 31.7433 34.5877 30.3715C35.5897 28.2418 34.7565 26.3963 32.2604 25.2452C30.5951 24.4717 28.6064 24.1563 27.0654 24.4249C26.0482 24.582 25.8631 24.377 26.6799 23.9825C27.0314 23.8098 27.2963 23.4944 27.6174 22.7677L28.0803 21.7748L29.7654 20.9139C32.3834 19.5468 33.6784 18.4376 34.7108 16.6689C35.5581 15.218 35.4667 13.9241 34.4647 13.1039C34.1928 12.9064 33.8718 12.7917 33.5389 12.7729C33.2623 12.7729 32.4291 12.7885 31.6897 12.8041C30.3947 12.8209 30.3174 12.8365 29.9482 13.2777C29.7092 13.595 29.4975 13.9328 29.3154 14.2874C29.1771 14.5872 29.0072 14.839 28.9299 14.839C28.7295 14.839 28.3287 14.1771 28.3287 13.8293C28.3287 13.6723 28.16 13.3725 27.9443 13.1674C27.8259 13.0606 27.7305 12.9297 27.6641 12.7832C27.5977 12.6366 27.5619 12.4775 27.5588 12.316C27.5588 10.8963 25.6838 9.12992 24.1826 9.17669C23.9669 9.17909 23.3962 9.32059 22.9345 9.51005ZM25.2619 10.0149C25.6171 10.1708 25.9349 10.4039 26.1931 10.6982C26.4513 10.9925 26.6438 11.3408 26.7572 11.7189C26.926 12.334 26.8744 12.5067 26.5873 12.3808C26.4795 12.3496 25.508 12.1913 24.3982 12.0342L22.3943 11.7524V11.2932C22.3943 10.9142 22.5021 10.7727 22.9029 10.5509C23.6435 10.1912 23.7044 10.0629 23.1372 10.1408C22.8595 10.1732 22.6286 10.1576 22.6286 10.094C22.6263 9.76307 24.5529 9.71391 25.2619 10.0149ZM21.0068 10.3303C21.5622 10.5701 21.8552 10.9934 21.8552 11.545C21.8552 11.9047 21.8552 11.8915 21.424 11.4814C20.9927 11.0713 20.1126 10.6936 19.9439 10.8663C19.897 10.9142 19.9896 11.0402 20.1595 11.1661C20.6376 11.5138 20.5298 11.8136 19.897 11.9395C18.1392 12.2393 16.9989 12.5235 16.352 12.8065C15.3348 13.249 15.1497 13.0751 16.1177 12.5667C17.0552 12.0774 17.1348 11.9203 16.3637 12.0618C15.8552 12.1721 15.8247 12.1566 15.9782 11.8724C16.1634 11.5126 17.088 10.7368 17.7665 10.3746C18.356 10.0473 20.2825 10.0305 21.0068 10.3303ZM12.1438 12.6182C12.1438 12.7753 11.9434 13.1542 11.6809 13.4384C11.4184 13.7226 11.2192 14.0212 11.2192 14.0848C11.2192 14.3522 12.0664 14.4157 12.4825 14.1639C12.7168 14.0212 12.9149 13.9744 12.9149 14.0536C12.9149 14.4001 11.8356 15.5669 11.1571 15.9458C10.5406 16.2768 10.3555 16.4663 10.2324 16.9711C9.99807 17.7913 9.67697 17.886 9.67697 17.1282C9.67697 16.513 9.33829 16.4027 9.23048 16.9867C9.16837 17.3176 8.59883 18.2014 8.50625 18.1067C8.41368 18.0119 9.16837 15.3942 9.49298 14.7311C9.87736 13.9589 10.8992 12.9168 11.5895 12.5727C12.1871 12.2705 12.1438 12.2705 12.1438 12.6182ZM25.7084 12.858C26.8029 13.1578 27.8353 13.6147 27.6197 13.6974C27.5119 13.7286 26.9728 13.6507 26.4021 13.508C25.1845 13.2238 23.5357 13.1926 22.8419 13.4612C22.4564 13.6027 22.2408 13.6027 21.9478 13.4612C21.5775 13.3029 21.5775 13.3029 21.7005 13.7766C21.7825 14.0891 21.8036 14.4151 21.7626 14.7359L21.67 15.2407L22.1388 14.7359C23.0107 13.791 23.3201 13.6591 24.8435 13.6711C26.3224 13.6867 27.1709 13.9708 27.9724 14.7275L28.3111 15.0429L28.0076 15.489C27.8377 15.7408 27.5611 16.025 27.3912 16.1041C27.1287 16.2612 27.1135 16.23 27.1908 15.5201L27.2834 14.7623L27.0209 15.1568C26.6693 15.6616 26.3271 15.9458 26.0658 15.9458C25.9111 15.9458 25.8806 15.7408 25.958 15.0789C26.0341 14.5105 26.0037 14.2107 25.8959 14.2107C25.7881 14.2107 25.6802 14.3522 25.6334 14.526C25.4951 14.9517 25.249 14.9206 25.249 14.4793C25.2338 14.1471 25.2338 14.1471 24.8974 14.5572C24.4357 15.1256 24.3115 15.11 24.4357 14.4949L24.5271 13.99L23.906 14.5105C23.496 14.8307 23.0382 15.0809 22.5501 15.2515C21.7638 15.4914 19.8982 15.5357 18.8505 15.3618C18.295 15.2671 18.2645 15.2515 18.6161 15.1412C18.8994 15.0731 19.188 15.031 19.4786 15.0153C19.8302 14.9997 19.9872 14.905 20.0493 14.6687C20.1267 14.369 20.0798 14.3522 19.7259 14.4289C19.4915 14.4769 18.8001 14.5716 18.1837 14.634C17.5673 14.6963 17.0282 14.7767 16.9966 14.839C16.9649 14.9014 17.136 15.1544 17.3821 15.3918L17.8509 15.8331L16.9263 16.4639C16.3385 16.872 15.8085 17.3611 15.3512 17.9172C14.9997 18.3969 14.6727 18.7374 14.6422 18.7062C14.6118 18.6751 14.627 18.3273 14.6727 17.9328C14.7653 17.3656 14.9352 17.0814 15.5059 16.4938L16.2302 15.7744L15.6137 16.0274C15.2739 16.1689 14.8731 16.4219 14.7348 16.6102L14.4571 16.9255V16.6102C14.4571 16.2324 15.1602 15.3175 15.4743 15.3175C15.5821 15.3175 15.9524 15.0333 16.2946 14.6867C16.6368 14.3402 17.0352 14.056 17.1888 14.0392C17.436 14.0392 17.436 14.0236 17.1583 13.8977C16.6497 13.6771 16.5419 13.7082 15.9559 14.2922C15.37 14.8762 15.077 14.9865 15.077 14.6388C15.077 14.1028 16.2794 13.3929 17.8052 13.0139C18.6384 12.8257 19.0075 12.9516 18.5153 13.267C18.2985 13.4085 18.3606 13.424 18.8669 13.3617C19.5911 13.2514 19.7763 13.3617 19.4985 13.7082C19.345 13.9133 19.3907 13.9289 19.8689 13.8281C20.4396 13.7334 20.7935 13.9708 21.2095 14.7587C21.3794 15.0585 21.3794 15.0585 21.3947 14.6807C21.3947 14.1759 20.8861 13.3233 20.5157 13.1974C20.4296 13.1667 20.3551 13.1091 20.3027 13.0327C20.2504 12.9563 20.2228 12.865 20.2239 12.7717C20.2239 12.4252 20.2544 12.4252 22.5513 12.5199C23.8123 12.5703 25.2466 12.7285 25.7084 12.8544V12.858ZM34.3721 13.3785C35.0495 14.1831 34.8186 15.2084 33.5858 16.7852C32.7069 17.9208 31.7049 18.8669 30.9807 19.2459C30.2869 19.6056 30.5026 19.325 31.5819 18.3789C32.7221 17.4004 34.187 15.6976 34.187 15.3654C34.187 15.0333 34.1401 15.098 33.4932 15.9806C32.8144 16.9262 32.0101 17.7705 31.1037 18.4892C29.8393 19.5145 29.9318 19.3406 31.5045 17.7637C32.9225 16.3248 34.187 14.646 34.187 14.1831C34.187 14.0728 33.9092 14.4229 33.5858 14.9398C32.7842 16.2012 31.535 17.5898 30.6561 18.1894C30.2705 18.4568 29.7467 18.8669 29.4994 19.0888L29.0529 19.4989L29.1912 19.0252C29.2779 18.6051 29.3246 18.1774 29.3307 17.7481C29.3471 17.3069 29.408 16.8656 29.4701 16.7552C29.5322 16.6449 29.5006 16.3296 29.408 16.0142C29.0998 15.0549 29.8393 13.4264 30.5951 13.4264C30.9467 13.4264 30.9467 13.4432 30.3326 14.6891C29.9939 15.3822 29.7162 15.9818 29.7162 16.0298C29.7162 16.2696 30.0397 16.0454 30.24 15.67C30.4404 15.2947 30.4744 15.2923 30.4873 15.5597C30.5026 15.7336 30.6256 15.5441 30.7955 15.1184C31.2737 13.8725 32.2604 13.1303 33.5084 13.1147C33.9245 13.1063 34.2186 13.201 34.3721 13.3749V13.3785ZM24.9841 16.1041C25.2466 16.3248 25.4318 16.6869 25.5548 17.2397C25.6768 17.7834 25.8796 18.3046 26.156 18.7854C26.5252 19.385 26.5873 19.668 26.6025 20.662C26.6177 21.2928 26.5252 22.0662 26.4174 22.3972C26.3095 22.7282 26.0482 23.4536 25.8631 24.0688C25.3697 25.5521 24.4755 27.0031 23.6587 27.5547C21.7626 28.8642 18.6642 27.129 18.0935 24.4477C18.0611 24.3267 18.0048 24.2138 17.9279 24.116C17.8511 24.0183 17.7555 23.9377 17.647 23.8793C17.5343 23.8229 17.4355 23.7412 17.358 23.6403C17.2805 23.5394 17.2262 23.4219 17.1993 23.2966C17.1536 23.0747 17.1841 22.9368 17.2462 22.98C17.2909 23.0188 17.3266 23.0674 17.3505 23.1222C17.3745 23.177 17.3861 23.2366 17.3845 23.2966C17.3788 23.3488 17.3935 23.4012 17.4253 23.4425C17.4571 23.4837 17.5034 23.5106 17.5544 23.5172C17.6622 23.5172 17.6716 23.4069 17.6165 23.233C16.9837 21.7341 16.8302 20.126 17.2649 19.6212C17.4176 19.4162 17.5364 19.1869 17.6165 18.9425C17.8005 18.3429 18.3103 17.681 18.711 17.5227C19.0192 17.3968 19.0802 17.2553 19.0802 16.7349V16.1041L20.5134 16.0873C21.1939 16.0915 21.8739 16.0494 22.549 15.9614C23.7044 15.7096 24.5529 15.772 24.9841 16.1041ZM28.9463 16.0873C29.1924 16.561 28.8842 17.1761 28.2361 17.4915L27.6666 17.7601L28.2678 17.8381C28.7295 17.9016 28.8842 17.9964 28.9146 18.265C28.9463 18.4856 28.8689 18.6247 28.6685 18.6907C28.4682 18.7566 28.3908 18.8957 28.4342 19.1164C28.4963 19.3058 28.3885 19.5732 28.1728 19.8107C27.9357 20.093 27.7524 20.4184 27.6326 20.77C27.3865 21.5266 27.1556 21.6214 27.0162 21.0098C26.8767 20.3982 27.0631 19.5588 27.3865 19.307C27.6209 19.1331 27.6021 19.1176 27.3713 19.102C26.94 19.102 27.0478 18.7074 27.5248 18.5336C27.9256 18.3765 27.9103 18.3597 27.2166 18.2494C26.8158 18.187 26.4467 18.0767 26.3963 17.9976C26.3459 17.9184 26.6306 17.7289 26.9974 17.5395C27.9349 17.0982 28.1846 16.7193 27.3373 17.0514C27.1029 17.1294 26.9365 17.1462 26.9365 17.0514C26.9365 16.9567 27.0595 16.8776 27.2283 16.8116C27.3971 16.7457 27.6912 16.5118 27.9221 16.26C28.3908 15.7096 28.7107 15.6616 28.9451 16.0873H28.9463ZM18.3864 17.0466C18.3864 17.1666 18.186 17.314 17.9095 17.3776C17.4161 17.4723 16.6298 17.9772 16.6145 18.1822C16.6145 18.2614 16.8149 18.3021 17.061 18.3021C17.4313 18.3021 17.4923 18.3657 17.4313 18.6019C17.329 18.8522 17.1765 19.0777 16.9837 19.2638C16.6755 19.5636 16.6145 19.7687 16.6145 20.5733C16.6145 21.6525 16.4751 21.6142 16.0438 20.4318C15.7813 19.7219 15.7051 19.6428 15.3407 19.6907C14.7852 19.7531 14.8005 19.4689 15.4333 18.5228C16.0649 17.5455 17.2673 16.6929 17.9153 16.7564C18.2013 16.7972 18.3864 16.9087 18.3864 17.0502V17.0466ZM9.89377 17.9772C10.0321 18.1978 9.81642 18.6235 9.56916 18.6235C9.41564 18.6235 9.36876 18.5288 9.43087 18.3717C9.47645 18.2443 9.50751 18.1119 9.52345 17.9772C9.52345 17.7913 9.78595 17.7913 9.89377 17.9808V17.9772ZM9.83166 19.1595C9.83166 19.3993 9.72384 19.5696 9.52345 19.6176C9.27618 19.6799 9.21525 19.6176 9.21525 19.3334C9.20743 19.2394 9.23036 19.1454 9.28041 19.0662C9.33047 18.987 9.40483 18.927 9.49181 18.8957C9.63009 18.8477 9.76838 18.8166 9.80002 18.801C9.83002 18.9191 9.84071 19.0414 9.83166 19.1631V19.1595ZM8.41368 20.2483C8.09024 20.5325 8.06211 20.5325 8.01289 20.2795C7.98242 20.138 8.12071 19.8382 8.3211 19.6176L8.67266 19.2231L8.71837 19.5828C8.76759 19.8262 8.65977 20.0625 8.41368 20.2519V20.2483ZM9.83166 20.3431C9.83166 20.6105 9.55392 20.8323 9.20001 20.8323C9.04532 20.8323 9.01485 20.3119 9.16837 20.1536C9.38517 19.921 9.83166 20.0469 9.83166 20.3467V20.3431ZM9.98635 21.4655C9.98635 21.6381 9.81642 21.812 9.51759 21.9223C9.08634 22.065 9.04884 22.0482 9.04884 21.6825C9.04421 21.5685 9.07602 21.456 9.13945 21.3621C9.20289 21.2682 9.29449 21.198 9.4004 21.1621C9.83166 20.993 9.98635 21.0721 9.98635 21.4655ZM8.59883 22.0327C8.49102 22.143 8.35157 22.2533 8.27539 22.2533C8.04102 22.2533 8.12071 21.7485 8.41368 21.4139C8.67618 21.1141 8.67618 21.1141 8.72188 21.4463C8.7484 21.6508 8.70493 21.8584 8.59883 22.0339V22.0327ZM10.1399 22.727C10.1399 22.8529 9.98635 23.0579 9.81642 23.1838C9.53869 23.3577 9.46486 23.3577 9.34767 23.1682C9.11329 22.8085 9.19415 22.4584 9.5633 22.3013C9.93244 22.1442 10.1399 22.2869 10.1399 22.7282V22.727ZM26.8498 23.2642C26.7572 23.6587 26.4795 23.8482 26.4795 23.504C26.4795 23.2642 26.8029 22.6838 26.8803 22.7773C26.926 22.8229 26.9107 23.0243 26.8498 23.2642ZM9.06056 23.2486C9.06056 23.5484 8.64454 24.088 8.50625 23.9585C8.3668 23.8002 8.69141 23.0435 8.90704 23.0435C8.95274 23.0525 8.99363 23.0784 9.02193 23.1162C9.05023 23.154 9.06398 23.2011 9.06056 23.2486ZM10.618 23.6899C10.7563 23.9741 10.7258 24.0844 10.4785 24.3374C10.1703 24.6528 10.1703 24.6528 9.8926 24.2271C9.61486 23.8014 9.63009 23.7846 9.90783 23.5795C10.2946 23.2798 10.4024 23.2966 10.618 23.6899ZM11.4383 24.6048C11.6539 24.8446 11.6727 24.9837 11.5309 25.2356C11.3305 25.6457 11.1922 25.6457 10.8524 25.2679C10.618 25.0149 10.618 24.9202 10.7914 24.6372C11.034 24.2235 11.0961 24.2235 11.4348 24.6048H11.4383ZM9.52697 25.1732C9.41915 25.2991 9.2797 25.413 9.20353 25.413C8.96915 25.413 9.04884 25.0665 9.34181 24.7355C9.57619 24.4669 9.60431 24.4669 9.65002 24.6876C9.66812 24.8599 9.62302 25.033 9.52345 25.1732H9.52697ZM31.2303 25.1096C31.7084 25.3147 31.6463 25.3303 30.1522 25.2835C28.9182 25.2356 28.256 25.2991 27.192 25.5677C26.4525 25.7404 25.7857 25.8675 25.7435 25.8195C25.5431 25.5989 26.0353 24.9526 26.4361 24.889C27.3431 24.7319 30.7182 24.889 31.2268 25.1096H31.2303ZM12.5973 25.2679C13.1059 25.4574 13.1833 25.678 12.8891 26.0881C12.7051 26.3088 12.6278 26.3088 12.186 26.1193C11.7442 25.9299 11.709 25.8675 11.8778 25.4886C11.9282 25.349 11.9955 25.2165 12.0782 25.0941C12.0817 25.0941 12.3137 25.1732 12.5914 25.2679H12.5973ZM17.8708 25.678C18.0255 26.0881 17.9786 26.1673 17.1466 26.9395C16.3145 27.7118 15.8516 27.9492 16.3145 27.3964C16.4045 27.2746 16.4464 27.1226 16.4317 26.9707C16.4001 26.876 15.8915 27.2549 15.3067 27.8233C14.2579 28.8318 14.2274 28.8642 14.5356 29.116C14.77 29.3054 14.7817 29.4002 14.6434 29.4637C14.4219 29.5859 14.2151 29.734 14.027 29.905C13.5489 30.3151 12.7016 30.772 12.4391 30.772C12.3313 30.772 12.3465 30.6305 12.5164 30.3787C12.7625 29.9841 12.7016 29.8738 12.3618 30.1101C12.2072 30.2516 12.0817 30.4232 11.9926 30.6149L11.7922 31.0094L11.5578 30.4566C11.4487 30.1625 11.2983 29.8862 11.1114 29.6364C10.877 29.369 10.9719 29.3054 12.3911 28.6267C13.8102 27.948 14.7794 27.3496 16.768 25.8987C17.0548 25.6722 17.3533 25.4616 17.6622 25.2679C17.6774 25.2523 17.77 25.4406 17.8626 25.678H17.8708ZM10.5641 25.8195C10.611 26.009 10.1785 26.593 10.0707 26.4827C9.91721 26.3244 10.1785 25.5521 10.3485 25.6145C10.3952 25.6317 10.4379 25.6589 10.4737 25.6942C10.5094 25.7296 10.5374 25.7723 10.5559 25.8195H10.5641ZM29.2311 26.0881C29.6471 26.7345 29.6635 26.8292 29.2627 26.7189C28.7998 26.593 28.276 25.8675 28.5221 25.6936C28.8068 25.5042 28.8373 25.5198 29.2229 26.0881H29.2311ZM30.7545 25.6936C30.9701 25.8351 31.2936 27.1446 31.1061 27.1446C30.9186 27.1446 30.6748 26.7848 30.4123 26.1505C30.1639 25.5521 30.2869 25.3938 30.7498 25.6936H30.7545ZM14.5825 26.2296C14.6294 26.5774 14.5672 26.6709 14.3481 26.6709C13.7938 26.6709 13.3766 26.4659 13.3766 26.2141C13.3766 25.804 13.5465 25.7092 14.0704 25.7572C14.4407 25.7884 14.5485 25.8831 14.579 26.2296H14.5825ZM15.7087 26.1985C15.2915 26.5582 15.0758 26.593 15.0758 26.3088C15.0758 25.9934 15.2305 25.8831 15.677 25.8831L16.0778 25.8987L15.7087 26.1985ZM27.731 26.7033C27.8553 26.9431 27.8236 26.9875 27.5154 26.9875C27.0373 26.9875 26.483 26.2296 26.8064 26.0282C27.0185 25.8831 27.4814 26.2296 27.7275 26.7033H27.731ZM32.4948 26.8232C32.4948 27.6434 32.2944 27.8797 32.1244 27.2489C31.9545 26.6182 32.0166 26.0342 32.2639 26.0342C32.4291 26.0402 32.4912 26.2296 32.4912 26.8292L32.4948 26.8232ZM11.4196 26.8616C11.3727 27.1146 11.2801 27.3041 11.2039 27.3041C11.0477 27.3041 11.0321 27.0515 11.1571 26.5462C11.2965 26.0402 11.5274 26.3244 11.4196 26.8616ZM12.452 27.1614C12.452 27.4612 12.3747 27.6194 12.2176 27.6194C12.0606 27.6194 11.9832 27.4456 11.9832 27.0666C11.9832 26.6565 12.0289 26.5462 12.2176 26.6098C12.3594 26.6709 12.452 26.9084 12.452 27.1602V27.1614ZM25.7705 27.3197C25.6533 27.5247 25.4002 27.3352 25.4002 27.0355C25.4002 26.8304 25.447 26.8304 25.6345 26.9887C25.7552 27.1014 25.8162 27.2393 25.7705 27.3185V27.3197ZM33.4627 27.9192C33.1381 28.7394 33.0455 28.7227 33.1698 27.8869C33.2776 26.9407 33.4311 26.6565 33.5858 27.0822C33.6327 27.2393 33.5858 27.6338 33.4627 27.918V27.9192ZM13.5313 27.3041C13.5313 27.4767 13.4235 27.6194 13.2969 27.6194C13.1704 27.6194 13.0625 27.4767 13.0625 27.3041C13.0625 27.1314 13.1704 26.9887 13.2969 26.9887C13.4235 26.9887 13.5313 27.129 13.5313 27.3029V27.3041ZM18.1556 27.8869C18.1556 28.4708 17.8778 28.4397 17.8169 27.8557C17.7852 27.5403 17.7852 27.2561 17.8321 27.2249C17.9552 27.1014 18.1556 27.5079 18.1556 27.8857V27.8869ZM30.9186 27.5403C32.1057 28.0451 32.4912 28.9121 31.8432 29.7479C31.4588 30.2528 30.0854 31.1869 29.5158 31.326C28.9768 31.4675 26.9728 30.5849 26.3717 29.9374C25.9088 29.4649 25.4002 28.4397 25.4002 28.0188C25.4002 27.8617 26.1713 27.5463 27.3267 27.2465C27.9596 27.081 30.2717 27.2705 30.9186 27.5391V27.5403ZM17.1688 28.2022C16.9989 28.3761 16.8759 28.1075 16.9989 27.8245C17.122 27.5415 17.1231 27.5559 17.1841 27.8245C17.2263 27.9804 17.2157 28.1543 17.1688 28.201V28.2022ZM34.3358 28.6267C34.3358 29.0057 33.4885 29.9518 33.3034 29.7791C33.2577 29.7155 33.3491 29.4637 33.519 29.2263C33.6929 28.9849 33.833 28.7197 33.935 28.4385C34.0791 28.0116 34.3358 28.1387 34.3358 28.6267ZM32.6096 29.6688C32.5018 30.772 31.9463 31.4675 30.9139 31.7817C30.4674 31.9244 29.7889 32.1414 29.4033 32.2709C29.0178 32.4004 27.9853 32.6306 27.0912 32.8225C24.2084 33.4065 22.2513 33.9581 21.5575 34.3526C21.1872 34.5733 20.9259 34.668 20.9868 34.5733C21.2798 34.0852 23.4689 33.2806 26.0892 32.6654C30.0666 31.7505 31.7459 30.9147 32.2709 29.6052C32.4397 29.2107 32.5944 28.8857 32.6225 28.8857C32.6506 28.8857 32.6448 29.2263 32.6143 29.6688H32.6096ZM11.4196 30.8355C11.5121 31.1197 11.5121 31.3248 11.4043 31.4351C11.1418 31.7025 10.911 31.4195 10.911 30.8355C10.911 30.1736 11.2039 30.1736 11.4196 30.8355ZM34.2479 30.5358C34.187 30.694 33.9397 30.7756 33.478 30.7756C32.3213 30.7756 32.7069 30.3823 33.9092 30.3187C34.2327 30.2995 34.31 30.3619 34.2479 30.5358ZM33.2623 31.5454C33.2623 31.6246 33.1534 31.7349 33.0151 31.7853C32.6916 31.9112 32.0131 31.7229 32.1209 31.5454C32.2287 31.368 33.2623 31.356 33.2623 31.5454ZM31.8748 32.35C31.8748 32.4292 31.6276 32.5071 31.3194 32.5071C31.0111 32.5071 30.8108 32.4448 30.8729 32.35C30.935 32.2553 31.1658 32.1918 31.4272 32.1918C31.6885 32.1918 31.8748 32.2577 31.8748 32.35ZM29.7936 32.9772C29.7479 33.0563 29.5311 33.1343 29.3248 33.1343C29.1186 33.1343 28.9088 33.0563 28.8631 32.9772C28.8174 32.8981 28.9861 32.8189 29.3248 32.8189C29.6635 32.8189 29.8557 32.8861 29.7936 32.9772ZM27.7123 33.2926C27.7123 33.3717 27.5271 33.4497 27.3115 33.4497C27.0959 33.4497 26.9599 33.3873 27.0185 33.2926C27.0771 33.1978 27.2529 33.1343 27.4193 33.1343C27.5857 33.1343 27.7123 33.2014 27.7123 33.2962V33.2926Z" fill="#004CA6"/>
<path d="M9.94375 14.4784C9.88164 14.5252 9.83594 14.7302 9.83594 14.9041C9.85117 15.2351 9.85117 15.2351 10.0703 14.9353C10.1945 14.7614 10.3047 14.5755 10.3047 14.494C10.2988 14.3357 10.082 14.3201 9.94375 14.4784Z" fill="#004CA6"/>
<path d="M19.0055 19.0516C18.4195 19.1307 17.6953 19.4113 17.6953 19.572C17.6953 19.6355 17.973 19.6044 18.3129 19.5252C18.8988 19.3513 19.6231 19.4461 20.7481 19.8094C20.9942 19.8874 21.0868 19.8562 21.0868 19.6823C21.0706 19.5334 21.0053 19.3947 20.9016 19.289C20.6555 19.0995 19.6231 18.9568 19.0055 19.0516Z" fill="#004CA6"/>
<path d="M23.333 19.0654C22.8854 19.1758 22.4693 19.6338 22.6545 19.8077C22.7002 19.8701 23.0705 19.7909 23.4561 19.665C24.2881 19.3808 25.2901 19.334 25.7213 19.5703C25.9065 19.6806 26.0143 19.6806 26.0143 19.5859C26.0143 19.4911 25.8971 19.3652 25.753 19.2873C25.3674 19.0834 23.8721 18.9563 23.333 19.0654Z" fill="#004CA6"/>
<path d="M17.9119 20.2502C17.7724 20.6603 17.9728 20.8654 18.3279 20.6603C18.404 20.6148 18.4904 20.5906 18.5785 20.5902C18.6667 20.5897 18.7533 20.613 18.8299 20.6578C18.9064 20.7025 18.97 20.7671 19.0144 20.845C19.0587 20.9229 19.0823 21.0114 19.0826 21.1016C19.0826 21.3702 19.6228 21.2443 20.0201 20.8966C20.1659 20.7655 20.3502 20.6878 20.5439 20.6759C20.8216 20.6759 20.8216 20.6603 20.6048 20.4241C20.4361 20.2658 19.9427 20.1555 19.1869 20.0919C18.2037 20.014 17.988 20.0452 17.9119 20.2502ZM19.699 20.5968C19.699 20.7239 19.638 20.8366 19.5455 20.8366C19.4529 20.8366 19.3908 20.7263 19.3908 20.5968C19.3908 20.4673 19.4681 20.3569 19.5455 20.3569C19.6228 20.3569 19.699 20.4709 19.699 20.5968Z" fill="#004CA6"/>
<path d="M23.7029 20.1878C23.3795 20.2514 23.1486 20.3773 23.117 20.5475C23.0853 20.7178 23.1486 20.7874 23.3795 20.7214C23.5646 20.6735 23.7029 20.7046 23.7029 20.7994C23.7029 20.8941 23.9185 21.0392 24.1658 21.1315C24.5971 21.273 24.6592 21.2574 24.7822 20.9097C24.9369 20.484 25.2299 20.4048 25.5217 20.7046C25.8135 21.0044 26.1393 20.6099 25.8615 20.2789C25.6623 20.0259 24.767 19.9983 23.7029 20.1878ZM24.474 20.4876C24.474 20.6926 24.2889 20.8353 24.1353 20.7406C23.9818 20.6459 24.1189 20.3617 24.3357 20.3617C24.3701 20.3609 24.4034 20.3735 24.4291 20.3968C24.4547 20.4202 24.4708 20.4526 24.474 20.4876Z" fill="#004CA6"/>
<path d="M21.1927 20.864C21.3099 21.5583 21.3931 21.6207 21.3931 21.0211C21.3931 20.7537 21.3322 20.4851 21.2396 20.4383C21.147 20.3916 21.1318 20.5343 21.1927 20.864Z" fill="#004CA6"/>
<path d="M22.257 21.1818C22.2099 21.4049 22.184 21.6322 22.1797 21.8605C22.1949 22.0332 22.257 21.8917 22.3344 21.5607C22.4879 20.8976 22.427 20.5822 22.257 21.1818Z" fill="#004CA6"/>
<path d="M23.0308 23.2788C23.1538 23.8628 23.2464 23.9887 23.2464 23.5786C23.2352 23.3902 23.1823 23.207 23.0917 23.0426C22.9722 22.8687 22.9534 22.9323 23.0308 23.2788Z" fill="#004CA6"/>
<path d="M20.686 23.2782C20.6386 23.4151 20.6281 23.5625 20.6555 23.7051C20.7012 23.8154 20.7633 23.7206 20.809 23.4652C20.9016 23.0108 20.8255 22.9028 20.686 23.2782Z" fill="#004CA6"/>
<path d="M21.3494 23.4523C21.1642 23.6574 21.2416 23.7677 21.5498 23.7677C21.7185 23.7677 21.8428 23.6885 21.8111 23.6106C21.797 23.5641 21.7723 23.5217 21.7391 23.4869C21.7058 23.4521 21.665 23.4259 21.6199 23.4104C21.5748 23.395 21.5267 23.3907 21.4797 23.398C21.4327 23.4053 21.388 23.4239 21.3494 23.4523Z" fill="#004CA6"/>
<path d="M22.2744 23.4531C22.0892 23.6581 22.1513 23.7685 22.49 23.7841C22.6599 23.7996 22.783 23.7373 22.7525 23.6426C22.6752 23.4063 22.4127 23.3116 22.2744 23.4531Z" fill="#004CA6"/>
<path d="M20.7106 24.8718C20.4023 25.0924 20.1562 25.3131 20.1562 25.3766C20.1562 25.4402 20.4492 25.692 20.8031 25.9282C21.6973 26.5122 22.391 26.4966 23.1926 25.8659L23.8254 25.361L23.3778 24.9665C23.0391 24.6823 22.8071 24.6068 22.4227 24.6667C22.1602 24.6979 21.7746 24.6823 21.6024 24.6032C21.3586 24.5252 21.1277 24.5876 20.7106 24.8718ZM22.8692 25.1116C22.9149 25.1908 22.5762 25.2543 22.0981 25.2543C21.6199 25.2543 21.2203 25.1908 21.1734 25.1116C21.1266 25.0325 21.4664 24.9701 21.9293 24.9701C22.3922 24.9701 22.8071 25.0289 22.8692 25.108V25.1116ZM22.6992 25.5913C22.7461 25.6536 22.5914 25.7807 22.3477 25.8755C21.9 26.0637 21.0832 25.8911 21.0832 25.6069C21.0809 25.439 22.5457 25.439 22.6992 25.5817V25.5913Z" fill="#004CA6"/>
<path d="M13.3905 29.3349C13.3384 29.3672 13.2962 29.414 13.2689 29.4698C13.2415 29.5256 13.2301 29.5881 13.2358 29.6502C13.2815 29.7618 13.4702 29.6982 13.7597 29.5087C14.1452 29.2569 14.1757 29.1934 13.9144 29.1934C13.7313 29.1975 13.5517 29.246 13.3905 29.3349Z" fill="#004CA6"/>
<path d="M20.6416 29.4296C20.6263 29.9032 20.7951 30.4548 20.965 30.4548C21.0424 30.4548 21.0576 30.3769 20.9955 30.2654C20.8902 30.0558 20.8115 29.8334 20.7611 29.6034C20.7025 29.3037 20.6568 29.2401 20.6416 29.4296Z" fill="#004CA6"/>
<path d="M23.1837 29.6183C23.1216 29.8581 23.0454 30.1866 22.9985 30.3281C22.9516 30.4696 22.9833 30.6123 23.0606 30.6123C23.138 30.6123 23.261 30.3281 23.322 29.966C23.4462 29.2405 23.3384 28.9575 23.1837 29.6183Z" fill="#004CA6"/>
<path d="M27.7122 40.224C27.7122 40.1328 27.5294 38.9193 27.3947 38.2598C25.5982 39.1447 23.497 39.5177 21.37 39.5177C19.2243 39.5177 17.177 39.1579 15.3688 38.2598C15.2363 38.9097 14.9762 40.1316 14.9762 40.224C14.9762 40.3163 14.082 41.2756 13.5078 41.9219C15.8258 43.0695 18.6219 43.5336 21.37 43.5336C24.1181 43.5336 26.8029 43.0539 29.1126 41.9219C28.5349 41.272 27.7122 40.3019 27.7122 40.224Z" fill="white"/>
<path d="M18.6715 40.0857C18.6309 40.0946 18.5915 40.1087 18.5543 40.1277C18.5314 40.1404 18.5117 40.1584 18.4969 40.1805C18.479 40.2085 18.4681 40.2406 18.4653 40.274C18.4569 40.3384 18.4533 40.4033 18.4547 40.4682V42.1147C18.4533 42.1767 18.4561 42.2388 18.4629 42.3005C18.4666 42.3332 18.4762 42.3649 18.491 42.3941C18.5049 42.4181 18.5247 42.4379 18.5485 42.4516C18.5881 42.4715 18.6297 42.4868 18.6727 42.4972V42.5907H17.8969V42.4972C17.9493 42.4872 17.9991 42.4663 18.0434 42.436C18.0724 42.4097 18.0922 42.3743 18.0996 42.3353C18.1111 42.2624 18.1158 42.1885 18.1137 42.1147V41.3856C18.1137 41.1937 18.1137 41.0007 18.1231 40.804C18.1324 40.6073 18.1348 40.4742 18.1418 40.4011H18.1102L17.3742 42.2873H17.1598L16.4754 40.3687H16.4438C16.4496 40.4467 16.4566 40.587 16.4613 40.7896C16.466 40.9923 16.4695 41.2009 16.4695 41.4156V42.1123C16.4684 42.1744 16.4715 42.2365 16.4789 42.2981C16.4817 42.3308 16.4909 42.3626 16.5059 42.3917C16.5202 42.4157 16.5404 42.4355 16.5645 42.4492C16.6017 42.4689 16.641 42.4842 16.6816 42.4948V42.5883H16.0078V42.4948C16.0636 42.4839 16.1165 42.4605 16.1625 42.4264C16.1901 42.3979 16.2078 42.3608 16.2129 42.3209C16.2224 42.2518 16.2263 42.182 16.2246 42.1123V40.4682C16.2259 40.4042 16.2232 40.3401 16.2164 40.2764C16.2124 40.2436 16.2017 40.2122 16.1848 40.1841C16.1708 40.1614 16.1515 40.1428 16.1285 40.1301C16.0909 40.1117 16.0516 40.0968 16.0113 40.0857V39.9922H16.6746L17.3274 41.8437L18.0469 39.9922H18.6762L18.6715 40.0857Z" fill="#004CA6"/>
<path d="M20.4813 39.9922V40.5678H20.2985C20.2823 40.512 20.2631 40.4571 20.241 40.4035C20.2242 40.3616 20.2034 40.3214 20.1789 40.2836C20.1606 40.254 20.1371 40.228 20.1098 40.2068C20.0831 40.1869 20.0522 40.1738 20.0195 40.1685C19.9786 40.1607 19.937 40.1571 19.8953 40.1577H19.3094V41.1554H19.7078C19.7516 41.1573 19.7953 41.1491 19.8356 41.1314C19.869 41.1131 19.8961 41.0846 19.9129 41.0498C19.9401 40.9932 19.9599 40.9331 19.9715 40.8712H20.1461V41.611H19.9715C19.9599 41.5511 19.9406 41.4931 19.9141 41.4383C19.8967 41.4045 19.8708 41.3759 19.8391 41.3556C19.798 41.3364 19.7529 41.3278 19.7078 41.3304H19.3094V42.4288H19.8883C19.9379 42.4296 19.9875 42.4244 20.036 42.4132C20.0722 42.4025 20.1055 42.3832 20.1332 42.3569C20.1631 42.3276 20.1877 42.2931 20.2059 42.255C20.227 42.2134 20.2447 42.1701 20.2586 42.1255C20.2727 42.0799 20.2926 42.0139 20.3172 41.9288H20.5012L20.466 42.5967H18.7422V42.5032C18.7978 42.4926 18.8503 42.4692 18.8957 42.4348C18.9241 42.4067 18.9423 42.3695 18.9473 42.3293C18.9568 42.2602 18.9607 42.1904 18.959 42.1207V40.4682C18.9607 40.4041 18.9575 40.34 18.9496 40.2764C18.946 40.2437 18.9356 40.2123 18.9191 40.1841C18.9052 40.1614 18.8859 40.1428 18.8629 40.1301C18.8252 40.1117 18.786 40.0968 18.7457 40.0857V39.9922H20.4813Z" fill="#004CA6"/>
<path d="M21.2223 39.9911V40.0847C21.1756 40.0879 21.1308 40.105 21.0934 40.1338C21.0803 40.1466 21.0701 40.1621 21.0634 40.1793C21.0567 40.1964 21.0538 40.2149 21.0547 40.2334C21.0576 40.2797 21.0695 40.3249 21.0898 40.3665C21.1196 40.432 21.1533 40.4957 21.1906 40.5571L21.4602 41.0188L21.7262 40.5799C21.7649 40.514 21.7953 40.46 21.8152 40.4216C21.8321 40.3898 21.8462 40.3565 21.8574 40.3221C21.8649 40.2956 21.8688 40.2681 21.8692 40.2405C21.87 40.2043 21.8579 40.1689 21.8352 40.141C21.8057 40.1094 21.7663 40.0895 21.7238 40.0847V39.9911H22.4141V40.0847C22.3692 40.0995 22.3272 40.1222 22.2899 40.1518C22.2457 40.189 22.2063 40.2317 22.1727 40.2789C22.1317 40.3341 22.0719 40.4228 21.9957 40.5427L21.575 41.2095L22.0438 42.0045C22.1106 42.1184 22.161 42.1963 22.1879 42.2443C22.2128 42.286 22.2402 42.326 22.2699 42.3642C22.2943 42.3944 22.3218 42.4217 22.352 42.4458C22.3854 42.4706 22.4221 42.4904 22.461 42.5045V42.5981H21.6406V42.5045C21.6861 42.499 21.7296 42.4821 21.7672 42.4554C21.7812 42.4432 21.7922 42.4279 21.7993 42.4106C21.8064 42.3933 21.8095 42.3745 21.8082 42.3558C21.8072 42.3144 21.798 42.2736 21.7813 42.2359C21.7568 42.1806 21.729 42.127 21.6981 42.0752L21.3688 41.49L21.0172 42.0896C20.9667 42.1625 20.936 42.2477 20.9281 42.3366C20.9263 42.374 20.938 42.4107 20.9609 42.4398C20.9927 42.4713 21.0341 42.4907 21.0781 42.4949V42.5885H20.375V42.4949C20.4524 42.4747 20.5219 42.4308 20.5742 42.369C20.607 42.331 20.6375 42.2909 20.6656 42.2491C20.6996 42.2023 20.7523 42.1208 20.8262 42.0033L21.2645 41.303L20.7406 40.4204C20.6902 40.3389 20.6527 40.2801 20.6234 40.2429C20.6025 40.2114 20.579 40.1817 20.5531 40.1542C20.5362 40.1348 20.5164 40.1182 20.4945 40.105C20.4754 40.0948 20.4554 40.0864 20.4348 40.0799V39.9863L21.2223 39.9911Z" fill="#004CA6"/>
<path d="M22.9109 42.1147C22.9096 42.1767 22.9123 42.2388 22.9191 42.3005C22.9229 42.3332 22.9324 42.3649 22.9473 42.3941C22.9615 42.4178 22.9812 42.4376 23.0047 42.4516C23.0443 42.4715 23.086 42.4868 23.1289 42.4972V42.5907H22.3438V42.4972C22.3997 42.4868 22.4527 42.4634 22.4984 42.4288C22.5261 42.4003 22.5438 42.3632 22.5488 42.3233C22.5588 42.2543 22.5632 42.1845 22.5617 42.1147V40.4682C22.5628 40.4041 22.5597 40.34 22.5523 40.2764C22.5482 40.2439 22.5378 40.2125 22.5219 40.1841C22.5072 40.1616 22.4875 40.1431 22.4645 40.1301C22.4269 40.1115 22.3876 40.0966 22.3473 40.0857V39.9922H23.1324V40.0857C23.0918 40.0948 23.0525 40.1089 23.0152 40.1277C22.9923 40.1404 22.9726 40.1584 22.9578 40.1805C22.941 40.209 22.9303 40.2409 22.9262 40.274C22.9178 40.3384 22.9143 40.4033 22.9156 40.4682L22.9109 42.1147Z" fill="#004CA6"/>
<path d="M24.9094 40.0518V40.5794H24.723C24.6992 40.4852 24.6596 40.3959 24.6059 40.3156C24.5649 40.2556 24.5096 40.2074 24.4453 40.1753C24.3759 40.1458 24.3013 40.1315 24.2262 40.1333C24.1007 40.1329 23.9794 40.1794 23.8852 40.2641C23.7737 40.3706 23.6927 40.5061 23.6508 40.6562C23.5893 40.8612 23.5604 41.0749 23.5652 41.2893C23.5613 41.5038 23.585 41.7179 23.6355 41.9261C23.6684 42.0753 23.7405 42.2126 23.8441 42.323C23.889 42.3673 23.9421 42.402 24.0002 42.4251C24.0584 42.4481 24.1205 42.4591 24.1828 42.4573C24.2678 42.4606 24.3524 42.4455 24.4312 42.4129C24.4973 42.3821 24.5537 42.3331 24.5941 42.2714C24.6496 42.1832 24.6918 42.087 24.7195 41.986H24.9047V42.5304C24.7868 42.5619 24.667 42.5856 24.5461 42.6012C24.4123 42.6177 24.2777 42.6257 24.143 42.6252C24.007 42.6339 23.871 42.6087 23.7466 42.5516C23.6223 42.4946 23.5134 42.4075 23.4293 42.2978C23.2676 42.0795 23.1879 41.7546 23.1879 41.3217C23.1829 41.0758 23.2268 40.8314 23.3168 40.6034C23.3893 40.4077 23.5203 40.2403 23.6911 40.1251C23.862 40.0099 24.064 39.9528 24.2684 39.9619C24.3725 39.9614 24.4766 39.9674 24.5801 39.9799C24.6912 39.9966 24.8012 40.0206 24.9094 40.0518Z" fill="#004CA6"/>
<path d="M25.933 42.6202C25.794 42.6221 25.6559 42.5964 25.5264 42.5447C25.4037 42.4929 25.2957 42.4105 25.2123 42.3048C25.1177 42.1853 25.0486 42.0468 25.0096 41.8983C24.9582 41.7058 24.9341 41.5067 24.9381 41.3071C24.932 41.0579 24.975 40.8099 25.0646 40.5781C25.1375 40.39 25.2636 40.2284 25.4267 40.114C25.5889 40.0068 25.7787 39.9516 25.9717 39.9557C26.1678 39.9487 26.3617 40.0003 26.5295 40.1044C26.6847 40.2114 26.8035 40.3652 26.8693 40.5445C27.0275 41.018 27.0221 41.5327 26.8541 42.0026C26.7805 42.1908 26.652 42.3512 26.4861 42.4619C26.3205 42.5681 26.1284 42.623 25.933 42.6202ZM25.3213 41.2592C25.3213 41.6493 25.3767 41.9455 25.4877 42.1477C25.5317 42.2409 25.6009 42.3191 25.6871 42.3731C25.7734 42.4271 25.8729 42.4546 25.974 42.4523C26.1012 42.4556 26.2247 42.4083 26.3185 42.3204C26.4226 42.2138 26.4956 42.0797 26.5295 41.9331C26.5807 41.7377 26.6047 41.5358 26.601 41.3335C26.6065 41.1015 26.5784 40.87 26.5178 40.6464C26.4811 40.4947 26.4026 40.3569 26.2916 40.2495C26.1987 40.1693 26.0803 40.1267 25.9588 40.1296C25.8575 40.127 25.7576 40.155 25.6717 40.2099C25.588 40.268 25.5195 40.3462 25.4724 40.4378C25.414 40.5502 25.3744 40.6717 25.3553 40.7975C25.3308 40.9501 25.3194 41.1046 25.3213 41.2592Z" fill="#004CA6"/>
<path d="M10.6176 36.9535C10.6771 36.8416 10.7168 36.7199 10.7348 36.5938C10.7448 36.4939 10.7265 36.3931 10.6821 36.3036C10.6235 36.1977 10.5436 36.1057 10.4477 36.0338C10.3885 35.9775 10.3189 35.9339 10.2431 35.9055C10.1672 35.8771 10.0866 35.8644 10.0059 35.8683C9.92621 35.8799 9.84971 35.9081 9.78116 35.9512C9.71261 35.9943 9.65348 36.0514 9.60744 36.1189C9.53705 36.2029 9.48723 36.3028 9.46213 36.4103C9.44251 36.5183 9.44732 36.6295 9.47619 36.7353C9.52301 36.9051 9.58417 37.0704 9.659 37.2293C9.737 37.3954 9.7975 37.5694 9.83947 37.7486C9.86835 37.8802 9.87114 38.0164 9.84768 38.1491C9.82233 38.2715 9.76846 38.3859 9.69064 38.4824C9.58627 38.6203 9.44559 38.7247 9.28517 38.7834C9.12363 38.834 8.951 38.834 8.78946 38.7834C8.59895 38.728 8.42204 38.6319 8.27032 38.5016C8.17485 38.4242 8.08369 38.3413 7.99727 38.2534C7.89071 38.1411 7.79239 38.0208 7.70312 37.8937L8.12383 37.3612L8.31485 37.5195C8.26034 37.6323 8.22582 37.7541 8.2129 37.8793C8.20527 37.9712 8.22314 38.0635 8.26446 38.1455C8.31764 38.2361 8.38725 38.3154 8.46954 38.3793C8.54605 38.4445 8.63569 38.4916 8.73204 38.5172C8.8211 38.5411 8.91515 38.5365 9.00157 38.504C9.09467 38.4678 9.17591 38.4055 9.23595 38.3242C9.30466 38.2451 9.35335 38.15 9.37775 38.0472C9.39579 37.9452 9.39179 37.8404 9.36603 37.7402C9.32647 37.5864 9.2723 37.437 9.20431 37.2941C9.12168 37.1171 9.05576 36.9324 9.00743 36.7425C8.97415 36.604 8.96857 36.46 8.99103 36.3192C9.01701 36.1761 9.07924 36.0426 9.1715 35.9319C9.26282 35.8088 9.37866 35.707 9.51134 35.6333C9.62298 35.5748 9.74689 35.5452 9.87229 35.547C10.0016 35.5509 10.1286 35.5827 10.2449 35.6405C10.3798 35.7038 10.5062 35.7844 10.6211 35.8803C10.8538 36.0807 11.061 36.3104 11.2375 36.5638L10.8098 37.1046L10.6176 36.9535Z" fill="white"/>
<path d="M8.64765 34.0009C8.77468 34.1399 8.87417 34.3028 8.94062 34.4806C9.00161 34.649 9.02094 34.8303 8.99687 35.0082C8.96593 35.21 8.89451 35.4032 8.7871 35.5754C8.64743 35.7991 8.47692 36.0011 8.28085 36.175C8.0448 36.4054 7.76582 36.5848 7.46053 36.7026C7.21385 36.7982 6.94479 36.8157 6.68825 36.7529C6.43877 36.686 6.21465 36.5439 6.04489 36.3452C5.86445 36.1526 5.74235 35.9106 5.69332 35.6485C5.65561 35.3958 5.69661 35.1374 5.81051 34.9099C5.95498 34.6245 6.15149 34.3701 6.38942 34.1604C6.63056 33.922 6.91693 33.7367 7.23084 33.616C7.47812 33.5219 7.74767 33.5076 8.00311 33.5752C8.25369 33.6503 8.47759 33.7982 8.64765 34.0009ZM7.88592 35.8404C8.26092 35.4902 8.4953 35.1681 8.58905 34.8739C8.63925 34.7459 8.65247 34.6059 8.62712 34.4705C8.60178 34.3351 8.53894 34.21 8.44608 34.11C8.33535 33.9787 8.17901 33.8965 8.01014 33.881C7.81369 33.8711 7.61844 33.9176 7.44646 34.0153C7.21372 34.1387 6.99879 34.2945 6.80779 34.4782C6.57976 34.6812 6.38231 34.9176 6.22184 35.1797C6.10873 35.3528 6.04651 35.5555 6.04254 35.7637C6.04627 35.9312 6.11057 36.0914 6.22301 36.2133C6.31199 36.3181 6.42952 36.3932 6.56052 36.4292C6.69084 36.4633 6.82747 36.4633 6.95779 36.4292C7.11678 36.3864 7.26795 36.3175 7.40545 36.2253C7.57605 36.1113 7.7368 35.9825 7.88592 35.8404Z" fill="white"/>
<path d="M3.46094 32.5689L4.03633 32.1851L4.1711 32.3962C4.08426 32.4899 4.01442 32.5988 3.96485 32.7175C3.92765 32.8075 3.9151 32.9062 3.92852 33.0029C3.94758 33.1043 3.98753 33.2004 4.04571 33.2847C4.13604 33.4262 4.27344 33.5293 4.43243 33.5749C4.63003 33.6263 4.83764 33.6209 5.03244 33.5593C5.30078 33.4814 5.55519 33.36 5.78596 33.1996C6.02353 33.0488 6.2403 32.8661 6.4305 32.6564C6.56889 32.5121 6.66684 32.3323 6.71409 32.136C6.74375 31.9689 6.70797 31.7966 6.61448 31.6563C6.55492 31.5558 6.475 31.4695 6.3801 31.4033C6.29828 31.3505 6.20378 31.3219 6.10706 31.3206C5.97042 31.3221 5.83468 31.3435 5.70393 31.3841L5.56916 31.1731L6.16448 30.7773C6.28501 30.8895 6.39815 31.0096 6.50315 31.1371C6.61817 31.2782 6.72462 31.4263 6.82191 31.5808C7.05081 31.9405 7.10433 32.2923 6.98245 32.636C6.86058 32.9798 6.56409 33.3047 6.09299 33.6109C5.83012 33.7942 5.53408 33.9218 5.22228 33.9862C4.95546 34.045 4.67733 34.0164 4.42726 33.9045C4.1772 33.7926 3.96787 33.6031 3.82891 33.3627C3.75206 33.2441 3.68316 33.1203 3.62266 32.9922C3.55944 32.855 3.5054 32.7135 3.46094 32.5689Z" fill="white"/>
<path d="M5.20901 29.9784C5.28257 29.9432 5.35381 29.9032 5.42229 29.8585C5.45874 29.8352 5.49023 29.8046 5.51487 29.7686C5.53475 29.7375 5.54608 29.7014 5.54768 29.6643C5.54841 29.6045 5.54172 29.5449 5.52776 29.4868L5.63675 29.4316L6.1055 30.391L5.99652 30.4473C5.9514 30.3851 5.89336 30.3339 5.82659 30.2974C5.77674 30.2806 5.72292 30.2806 5.67307 30.2974C5.58625 30.3265 5.50197 30.363 5.42112 30.4065L3.49688 31.3802C3.42162 31.415 3.34879 31.4551 3.27891 31.5002C3.2432 31.5246 3.21254 31.5559 3.18868 31.5925C3.17141 31.6233 3.16138 31.6578 3.15938 31.6932C3.16012 31.7521 3.16679 31.8108 3.1793 31.8683L3.07032 31.9235L2.60156 30.9641L2.71055 30.909C2.74461 30.9538 2.78398 30.994 2.82774 31.0289C2.85614 31.0491 2.88855 31.0626 2.92266 31.0685C2.96639 31.0719 3.01034 31.0658 3.05157 31.0505C3.13221 31.0229 3.21059 30.9888 3.28594 30.9486L5.20901 29.9784Z" fill="white"/>
<path d="M1.49219 28.0125L2.19532 27.7571L2.27735 27.9969C2.21626 28.0425 2.15758 28.0913 2.10157 28.1432C2.05894 28.1838 2.01974 28.2279 1.98438 28.2751C1.95722 28.3113 1.93622 28.3518 1.92227 28.3951C1.91 28.4383 1.9072 28.4837 1.91407 28.5282C1.9231 28.5847 1.93762 28.6401 1.95743 28.6936L2.21876 29.4503L3.44455 29.0066L3.26759 28.4946C3.25042 28.437 3.22078 28.3841 3.18087 28.3399C3.14424 28.305 3.09802 28.2824 3.04845 28.2751C2.96675 28.2645 2.88406 28.2645 2.80236 28.2751L2.72501 28.0593L3.62268 27.7343L3.70002 27.9586C3.63307 27.9989 3.5716 28.0481 3.51721 28.1049C3.48239 28.1422 3.45844 28.1887 3.44806 28.2392C3.44338 28.3006 3.45302 28.3622 3.47619 28.419L3.65314 28.9311L5.00316 28.443L4.743 27.6996C4.72251 27.6348 4.69374 27.5731 4.65745 27.5161C4.62922 27.4735 4.59093 27.4388 4.54612 27.4154C4.49702 27.3899 4.44382 27.3736 4.38909 27.3674C4.32812 27.359 4.26661 27.3554 4.2051 27.3566L3.93791 27.3686L3.85588 27.1288L4.69261 26.877L5.45785 29.093L5.34066 29.1349C5.30327 29.0677 5.25161 29.0099 5.18949 28.9659C5.14198 28.9431 5.08863 28.9364 5.03714 28.9467C4.94778 28.9656 4.86001 28.9916 4.77464 29.0246L2.75079 29.7573C2.67024 29.7832 2.59186 29.8156 2.51642 29.8544C2.47745 29.8733 2.44304 29.9007 2.41563 29.9348C2.39425 29.9631 2.38015 29.9965 2.37462 30.0319C2.36899 30.0901 2.36899 30.1487 2.37462 30.207L2.25743 30.2489L1.49219 28.0125Z" fill="white"/>
<path d="M4.58167 26.5305L4.46448 26.5521C4.44202 26.4975 4.41372 26.4457 4.3801 26.3974C4.35909 26.3683 4.33074 26.3455 4.29807 26.3315C4.25753 26.3167 4.21445 26.3106 4.17151 26.3135C4.08808 26.3179 4.00506 26.3283 3.92307 26.3447L1.81367 26.7224C1.73039 26.7355 1.64814 26.7547 1.56758 26.78C1.52434 26.7912 1.48423 26.8126 1.45039 26.8423C1.42571 26.8666 1.40721 26.8966 1.39648 26.9299C1.38047 26.9874 1.37064 27.0465 1.36718 27.1061L1.25 27.1277L1.05664 26.0317C1.00421 25.771 0.993922 25.5032 1.02617 25.2391C1.05474 25.0377 1.12724 24.8455 1.23828 24.6767C1.35172 24.5101 1.50238 24.3736 1.67773 24.2786C1.89276 24.1653 2.12427 24.0884 2.36329 24.0507C2.60807 24.003 2.85832 23.9917 3.10626 24.0172C3.30841 24.0374 3.5041 24.1012 3.68049 24.2042C3.82567 24.2901 3.95242 24.4052 4.05315 24.5424C4.14641 24.6696 4.21921 24.8113 4.26877 24.9621C4.33798 25.1785 4.3901 25.4002 4.42464 25.6252L4.58167 26.5305ZM4.2301 25.8111C4.2301 25.7427 4.21135 25.6444 4.18909 25.5137C4.1691 25.3875 4.13651 25.2637 4.09182 25.1443C4.0524 25.0433 3.9987 24.9488 3.93244 24.8637C3.86446 24.7796 3.78131 24.7096 3.68752 24.6575C3.58376 24.601 3.47239 24.5606 3.35705 24.5376C3.22688 24.5127 3.09448 24.5023 2.96212 24.5064C2.80759 24.5114 2.65364 24.5282 2.50157 24.5568C2.22107 24.5962 1.95189 24.6959 1.71172 24.8494C1.53079 24.9659 1.3921 25.1398 1.31679 25.3446C1.24859 25.5586 1.23567 25.7871 1.27929 26.0077C1.29804 26.1204 1.32031 26.2284 1.34375 26.3279L4.2301 25.8111Z" fill="white"/>
<path d="M4.07464 21.8317H3.95745C3.9458 21.7668 3.92652 21.7036 3.90003 21.6435C3.88153 21.6051 3.85212 21.5733 3.81565 21.5523C3.77123 21.5303 3.72197 21.5203 3.67268 21.5235C3.6111 21.525 3.54983 21.5331 3.48987 21.5475C3.42581 21.5619 3.35315 21.5823 3.2719 21.6087L2.95315 21.7082L2.9719 22.8918L3.21682 22.9733C3.30804 23.0064 3.40119 23.0336 3.49573 23.0548C3.55193 23.0673 3.60932 23.0734 3.66682 23.0728C3.70656 23.0759 3.74649 23.0703 3.7839 23.0562C3.82131 23.0421 3.85532 23.02 3.88362 22.9913C3.93599 22.9222 3.96701 22.8387 3.97269 22.7515H4.08987L4.10745 23.8307H3.99026C3.97957 23.7815 3.95945 23.735 3.93109 23.6939C3.90273 23.6527 3.86668 23.6177 3.82503 23.5909C3.70088 23.5073 3.56652 23.4407 3.42542 23.393L0.65625 22.3833V21.9828L3.40784 21.0739C3.50787 21.0419 3.60607 21.0043 3.70198 20.9611C3.76218 20.9333 3.81576 20.8923 3.85901 20.8412C3.90034 20.7887 3.92815 20.7265 3.93987 20.6602H4.05706L4.07464 21.8317ZM2.75041 22.8294L2.734 21.7682L1.14141 22.2766L2.75041 22.8294Z" fill="white"/>
<path d="M4.08636 20.5873L3.96917 20.5681C3.96548 20.5089 3.95566 20.4502 3.93987 20.3931C3.92847 20.3592 3.90916 20.3288 3.88362 20.3043C3.84917 20.2761 3.80922 20.2556 3.76643 20.2444C3.68591 20.2198 3.60362 20.2018 3.52034 20.1904L1.40626 19.8379C1.32345 19.8221 1.23963 19.8125 1.15547 19.8091C1.1126 19.806 1.06962 19.8134 1.03008 19.8307C0.998874 19.8455 0.971558 19.8677 0.950392 19.8954C0.916978 19.944 0.889064 19.9963 0.867189 20.0513L0.75 20.0309L0.924611 18.9337C0.959284 18.67 1.03526 18.4137 1.14961 18.1747C1.23965 17.9953 1.36731 17.8385 1.52344 17.7154C1.68407 17.5962 1.87002 17.5178 2.06603 17.4864C2.30542 17.4508 2.54888 17.4557 2.78674 17.5008C3.03375 17.5375 3.27418 17.6111 3.50042 17.719C3.68522 17.8061 3.8501 17.9319 3.9844 18.0883C4.09317 18.219 4.17596 18.3701 4.22816 18.5332C4.2744 18.685 4.29733 18.8431 4.29613 19.0021C4.29261 19.2297 4.27106 19.4567 4.23167 19.6808L4.08636 20.5873ZM3.9844 19.7863C4.00823 19.6895 4.02701 19.5914 4.04065 19.4925C4.06237 19.3667 4.07101 19.2389 4.06644 19.1112C4.06274 19.0023 4.04258 18.8948 4.00667 18.7922C3.96922 18.69 3.91315 18.596 3.84143 18.5152C3.762 18.426 3.66949 18.3499 3.56721 18.2898C3.45267 18.2224 3.33124 18.1681 3.2051 18.1279C3.05761 18.0805 2.90677 18.0449 2.75392 18.0212C2.47658 17.9651 2.1909 17.9684 1.91485 18.0308C1.70628 18.0807 1.51916 18.1985 1.38165 18.3665C1.24876 18.5459 1.16357 18.7574 1.13438 18.9805C1.11563 19.0944 1.10157 19.2023 1.09219 19.3055L3.9844 19.7863Z" fill="white"/>
<path d="M3.28634 11.8785C3.27486 11.9344 3.27013 11.9916 3.27228 12.0488C3.27554 12.0839 3.28634 12.1179 3.30392 12.1483C3.32891 12.1849 3.36128 12.2155 3.39884 12.2382C3.47138 12.2836 3.54696 12.3237 3.62502 12.3581L5.58793 13.2467C5.66142 13.2815 5.73696 13.3115 5.8141 13.3366C5.85501 13.3497 5.8979 13.355 5.94066 13.3522C5.97694 13.3476 6.01135 13.3331 6.04027 13.3103C6.0849 13.2727 6.12432 13.2292 6.15746 13.1808L6.26879 13.2311L5.85746 14.1988L5.74027 14.1497C5.75687 14.0785 5.75926 14.0047 5.7473 13.9326C5.73066 13.8837 5.69901 13.8417 5.65707 13.8127C5.5778 13.7562 5.49296 13.7084 5.40394 13.67L4.53557 13.2767C4.30745 13.172 4.07776 13.0636 3.8465 12.9517C3.61213 12.839 3.45978 12.7587 3.37775 12.7119L3.36134 12.7515L5.21175 14.6881L5.09456 14.9555L2.44024 14.7756L2.42266 14.8152C2.51876 14.8488 2.68907 14.9171 2.9336 15.0202C3.17814 15.1234 3.42892 15.2329 3.68596 15.3488L4.51682 15.7241C4.59013 15.7597 4.66569 15.7901 4.743 15.8153C4.7839 15.8283 4.8268 15.8336 4.86956 15.8309C4.9057 15.8257 4.93997 15.8113 4.96917 15.7889C5.01351 15.751 5.0529 15.7075 5.08636 15.6594L5.19769 15.7097L4.83089 16.5575L4.7137 16.5072C4.73028 16.4318 4.73028 16.3535 4.7137 16.2781C4.69492 16.228 4.66026 16.1858 4.61526 16.1582C4.53795 16.1088 4.45682 16.0658 4.37268 16.0299L2.40977 15.1413C2.33387 15.1053 2.25554 15.0748 2.17539 15.0502C2.1341 15.0372 2.09067 15.0327 2.04766 15.037C2.01335 15.0431 1.9811 15.0579 1.95391 15.0802C1.91091 15.1159 1.87164 15.1561 1.83672 15.2001L1.72656 15.1497L2.07813 14.3211L4.65628 14.5094L2.83634 12.6124L3.17501 11.8281L3.28634 11.8785Z" fill="white"/>
<path d="M5.01368 9.04688L5.6301 9.48216L5.49181 9.68722C5.41993 9.66302 5.34676 9.643 5.27267 9.62726C5.21562 9.61482 5.15755 9.608 5.09923 9.60687C5.05392 9.60637 5.00883 9.61325 4.96564 9.62726C4.92411 9.64249 4.88646 9.66708 4.85548 9.69921C4.81613 9.73981 4.78044 9.78396 4.74884 9.83111L4.30352 10.4918L5.37345 11.2473L5.6758 10.8C5.71097 10.7521 5.73537 10.6968 5.74728 10.6381C5.75236 10.5872 5.74257 10.5359 5.71916 10.4906C5.67859 10.4173 5.62896 10.3496 5.5715 10.2892L5.70392 10.0925L6.48792 10.6465L6.35549 10.8432C6.28059 10.8106 6.20177 10.7884 6.12112 10.7772C6.07127 10.77 6.02046 10.7775 5.97463 10.7988C5.92696 10.832 5.88729 10.8759 5.85861 10.9271L5.55627 11.3744L6.73518 12.2066L7.17347 11.5567C7.21097 11.5016 7.24167 11.442 7.26488 11.3792C7.28108 11.3302 7.28589 11.2781 7.27894 11.2269C7.27033 11.1713 7.25208 11.1177 7.22503 11.0686C7.19579 11.0137 7.16249 10.9612 7.12542 10.9115C7.08792 10.8612 7.03167 10.7916 6.95784 10.6957L7.09847 10.4894L7.78754 11.0314L6.48206 12.9693L6.38245 12.8985C6.41346 12.8277 6.42867 12.7507 6.42698 12.6731C6.41765 12.6202 6.39124 12.5721 6.35198 12.5364C6.28547 12.4726 6.21372 12.4148 6.13752 12.3637L4.37149 11.1166C4.30352 11.0665 4.23225 11.0212 4.15821 10.9811C4.11998 10.9607 4.07812 10.9485 4.03516 10.9451C4.00055 10.9448 3.96637 10.953 3.93555 10.9691C3.88551 10.9977 3.83874 11.0319 3.79609 11.071L3.69531 11.0003L5.01368 9.04688Z" fill="white"/>
<path d="M8.00119 10.7414L7.91447 10.6538C7.94484 10.6034 7.96923 10.5495 7.98713 10.4931C7.99647 10.4586 7.99647 10.4222 7.98713 10.3876C7.97594 10.3437 7.95555 10.3028 7.92737 10.2677C7.87462 10.2014 7.81746 10.1389 7.75627 10.0806L6.21407 8.55654C6.15491 8.49551 6.09145 8.439 6.02422 8.38746C5.98954 8.36033 5.94958 8.34112 5.90703 8.3311C5.87298 8.32511 5.83801 8.32757 5.80508 8.3383C5.75068 8.35929 5.69846 8.38581 5.64922 8.41744L5.5625 8.3311L6.31837 7.53128C6.4934 7.33521 6.69842 7.16956 6.9254 7.04083C7.10401 6.9449 7.30153 6.89161 7.50314 6.88494C7.70181 6.88161 7.89848 6.92596 8.07737 7.01445C8.29442 7.12513 8.49234 7.27135 8.66331 7.44734C8.84759 7.62246 9.00555 7.8245 9.13206 8.04691C9.23162 8.22765 9.29272 8.42789 9.31136 8.63448C9.32695 8.80333 9.30983 8.97366 9.26097 9.13572C9.21499 9.28781 9.14577 9.43148 9.05589 9.56142C8.92525 9.7458 8.78066 9.91941 8.62347 10.0806L8.00119 10.7414ZM8.36214 10.0219C8.41292 9.97712 8.48323 9.90757 8.57307 9.81324C8.66136 9.72253 8.73993 9.62243 8.80745 9.51465C8.86501 9.42327 8.90849 9.32337 8.93636 9.21847C8.96327 9.11243 8.96964 9.00203 8.95511 8.8935C8.93993 8.77425 8.90673 8.65815 8.85667 8.54935C8.80053 8.42656 8.73094 8.3107 8.64925 8.20399C8.55436 8.07919 8.45056 7.96175 8.3387 7.85265C8.14204 7.64521 7.90539 7.48187 7.64377 7.37299C7.44474 7.29247 7.22554 7.28027 7.01915 7.33821C6.80969 7.40758 6.62148 7.53156 6.47306 7.69796C6.39454 7.7807 6.32305 7.86104 6.25743 7.93778L8.36214 10.0219Z" fill="white"/>
<path d="M10.4395 7.51786C10.489 7.58371 10.5422 7.64656 10.5989 7.70613C10.6294 7.73688 10.6651 7.76167 10.7043 7.77928C10.7383 7.79265 10.7751 7.79638 10.811 7.79007C10.8685 7.77772 10.9243 7.75839 10.9774 7.73251L11.0524 7.82964L10.2321 8.49636L10.1559 8.39923C10.2059 8.34123 10.2424 8.27234 10.2625 8.19778C10.2687 8.14429 10.2572 8.09023 10.2297 8.04428C10.1838 7.96351 10.1313 7.88689 10.0727 7.81525L8.73907 6.09568C8.68802 6.02821 8.63283 5.96412 8.57383 5.90382C8.54307 5.87286 8.50636 5.84877 8.46602 5.83307C8.43321 5.8217 8.39809 5.81922 8.36406 5.82588C8.30798 5.8382 8.25337 5.8567 8.20117 5.88104L8.125 5.78391L8.94532 5.11719L9.02032 5.21432C8.98511 5.25846 8.9552 5.30677 8.93126 5.35821C8.9176 5.39113 8.91158 5.42684 8.91368 5.46254C8.91995 5.50513 8.93471 5.54595 8.95704 5.58245C9.00064 5.65645 9.04961 5.727 9.10353 5.7935L10.4395 7.51786Z" fill="white"/>
<path d="M11.536 3.46484L11.8981 4.06441L11.6895 4.19752C11.5999 4.10683 11.4951 4.03332 11.3801 3.98047C11.2931 3.9403 11.1972 3.92497 11.1024 3.93611C11.0033 3.95265 10.9087 3.99023 10.8246 4.04643C10.6825 4.13539 10.5771 4.27441 10.5282 4.43735C10.4734 4.63817 10.4734 4.85048 10.5282 5.0513C10.5993 5.32788 10.7132 5.59102 10.8657 5.83074C11.0086 6.07662 11.1828 6.30202 11.3836 6.50106C11.5231 6.64704 11.699 6.75114 11.8922 6.80205C11.9737 6.81984 12.0578 6.82095 12.1396 6.80531C12.2215 6.78967 12.2995 6.75758 12.3692 6.71091C12.4689 6.65183 12.5552 6.57171 12.6223 6.47588C12.6759 6.39354 12.7063 6.29771 12.7102 6.19888C12.7109 6.05871 12.6927 5.91911 12.6563 5.78398L12.8649 5.65207L13.2387 6.26963C13.1289 6.39012 13.0115 6.50308 12.8872 6.60779C12.7466 6.72225 12.5995 6.82797 12.4465 6.92436C12.0887 7.1514 11.7438 7.19896 11.4118 7.06706C11.0797 6.93515 10.7649 6.62418 10.4672 6.13413C10.293 5.86112 10.1735 5.55542 10.1156 5.23477C10.0672 4.96352 10.0995 4.68364 10.2082 4.43135C10.3257 4.17702 10.5157 3.96505 10.7532 3.82339C10.8712 3.74745 10.9937 3.67897 11.12 3.61833C11.2553 3.55825 11.3943 3.50699 11.536 3.46484Z" fill="white"/>
<path d="M15.0973 5.5288L15.0504 5.40889C15.1043 5.37477 15.1542 5.33455 15.1992 5.28897C15.2277 5.25749 15.2458 5.21763 15.2508 5.17505C15.2539 5.12475 15.2446 5.07446 15.2238 5.02876C15.1993 4.97084 15.1695 4.91543 15.1348 4.86328C15.0973 4.80692 15.0516 4.74336 14.9977 4.67861L14.7891 4.4136L13.7227 4.86927L13.7391 5.13308C13.7424 5.23197 13.7522 5.33051 13.7684 5.42807C13.778 5.486 13.7937 5.54269 13.8152 5.59715C13.8272 5.63615 13.8472 5.67208 13.8739 5.70249C13.9006 5.7329 13.9333 5.75709 13.9699 5.77342C14.0512 5.79919 14.1382 5.79919 14.2195 5.77342L14.2664 5.89334L13.2891 6.31184L13.2422 6.19192C13.2836 6.16366 13.3191 6.12728 13.3467 6.08487C13.3742 6.04247 13.3933 5.99489 13.4027 5.9449C13.4325 5.79545 13.4427 5.64263 13.4332 5.49043L13.3289 2.49258L13.6898 2.33789L15.5356 4.61625C15.6012 4.70037 15.6717 4.78045 15.7465 4.85608C15.7934 4.90286 15.8493 4.9392 15.9106 4.96281C15.9737 4.98213 16.0405 4.98542 16.1051 4.9724L16.152 5.09231L15.0973 5.5288ZM13.7016 4.64024L14.6578 4.23133L13.6031 2.91228L13.7016 4.64024Z" fill="white"/>
<path d="M17.143 4.80445L17.1231 4.68454C17.1764 4.66156 17.2271 4.6326 17.2742 4.5982C17.3025 4.57691 17.3247 4.54837 17.3387 4.51546C17.3541 4.47422 17.3605 4.43001 17.3574 4.38595C17.3537 4.3002 17.3439 4.21484 17.3281 4.13054L16.9695 1.97209C16.9576 1.88692 16.9395 1.80276 16.9156 1.72027C16.9043 1.6764 16.8839 1.63552 16.8559 1.60036C16.8315 1.57531 16.8019 1.55642 16.7691 1.5452C16.7135 1.52812 16.6561 1.51765 16.598 1.51402L16.5781 1.3941L17.6492 1.19984C17.9043 1.14774 18.1659 1.13843 18.4238 1.17226C18.6205 1.20304 18.8078 1.27843 18.9723 1.3929C19.1342 1.51029 19.2667 1.6652 19.359 1.84498C19.4688 2.0651 19.5428 2.30203 19.5782 2.54648C19.6238 2.79752 19.6336 3.05399 19.6074 3.30793C19.5863 3.515 19.5228 3.7152 19.4211 3.89551C19.3356 4.04264 19.223 4.17134 19.0895 4.27443C18.9639 4.36862 18.8247 4.44225 18.677 4.49268C18.4653 4.56218 18.2486 4.61431 18.0289 4.64857L17.143 4.80445ZM17.8461 4.44471C17.9129 4.44471 18.009 4.42673 18.1367 4.40514C18.2602 4.38526 18.3812 4.35189 18.4977 4.30561C18.5969 4.26655 18.6897 4.21238 18.7731 4.14493C18.8595 4.0763 18.9316 3.99068 18.9852 3.89311C19.0408 3.78715 19.0803 3.67311 19.1024 3.55495C19.1287 3.42243 19.1397 3.2872 19.1352 3.15204C19.1311 2.99403 19.1158 2.83653 19.0895 2.68078C19.0519 2.39385 18.9561 2.11813 18.8082 1.87136C18.6949 1.68532 18.5254 1.54218 18.3254 1.46365C18.1166 1.39256 17.8933 1.3781 17.6774 1.42168C17.5672 1.44087 17.4617 1.46245 17.3645 1.48644L17.8461 4.44471Z" fill="white"/>
<path d="M22.4594 0.839844L22.4711 1.60609H22.2285C22.206 1.53212 22.179 1.45963 22.1477 1.38905C22.1248 1.3343 22.0965 1.28207 22.0633 1.23316C22.0379 1.19434 22.0062 1.16027 21.9695 1.13243C21.9342 1.10804 21.8943 1.09131 21.8524 1.08327C21.7975 1.07325 21.7417 1.06923 21.686 1.07128L20.8973 1.07967L20.9184 2.40952L21.4492 2.40112C21.5081 2.40277 21.5666 2.39088 21.6203 2.36635C21.6642 2.34155 21.6994 2.30342 21.7211 2.25723C21.7558 2.18082 21.781 2.10024 21.7961 2.0174H22.0305L22.0457 2.9923H21.8113C21.7946 2.91256 21.7674 2.83551 21.7305 2.76326C21.707 2.71797 21.6717 2.6802 21.6285 2.65414C21.5732 2.6297 21.5128 2.61941 21.4527 2.62416L20.9219 2.63376L20.9453 4.0979L21.7164 4.08471C21.7828 4.08519 21.8489 4.07713 21.9133 4.06073C21.9621 4.04629 22.0067 4.01995 22.0434 3.98399C22.0822 3.94438 22.1139 3.89811 22.1371 3.84728C22.1644 3.79091 22.1871 3.73236 22.2051 3.67221C22.2238 3.61225 22.2485 3.52352 22.2789 3.4084H22.525L22.4969 4.29936L20.2 4.33773V4.21782C20.274 4.20265 20.3436 4.17068 20.4039 4.12428C20.4406 4.08582 20.4641 4.03614 20.4707 3.98279C20.4814 3.89008 20.4853 3.79669 20.4824 3.70339L20.4473 1.50656C20.4475 1.42154 20.4421 1.3366 20.4309 1.25235C20.4246 1.20976 20.4098 1.16894 20.3875 1.13243C20.3684 1.10265 20.3422 1.07831 20.3113 1.06168C20.2591 1.03726 20.2045 1.01837 20.1484 1.00532V0.885411L22.4594 0.839844Z" fill="white"/>
<path d="M23.6543 4.22581L24.2977 4.32054C24.3569 4.33049 24.4169 4.33531 24.477 4.33493C24.5206 4.33603 24.5641 4.32996 24.6059 4.31695C24.6429 4.30426 24.6771 4.2843 24.7067 4.25819C24.7428 4.22578 24.7747 4.1887 24.8016 4.14787C24.839 4.09087 24.8715 4.03069 24.8988 3.968C24.9317 3.89485 24.975 3.78573 25.0289 3.63703L25.2774 3.67421L25.0828 4.67669L22.875 4.34932L22.8926 4.22941C22.9681 4.22588 23.042 4.20585 23.1094 4.17065C23.1517 4.13866 23.1822 4.09305 23.1961 4.04114C23.2225 3.95143 23.2413 3.85956 23.2523 3.76654L23.5594 1.5937C23.5733 1.50966 23.5811 1.4247 23.5828 1.33948C23.5842 1.29521 23.5766 1.25111 23.5606 1.20998C23.5455 1.17773 23.523 1.14974 23.4949 1.12844C23.4475 1.09545 23.3969 1.06772 23.3438 1.0457L23.3613 0.925781L24.3949 1.07927L24.3774 1.19918C24.323 1.20425 24.2692 1.21469 24.2168 1.23036C24.185 1.24078 24.156 1.25887 24.1324 1.28312C24.1034 1.31778 24.0825 1.35881 24.0715 1.40304C24.0482 1.48555 24.031 1.56972 24.0199 1.65486L23.6543 4.22581Z" fill="white"/>
<path d="M28.8895 5.29832C28.8555 5.39065 28.8321 5.4602 28.8192 5.50816C28.8081 5.54715 28.8022 5.58748 28.8016 5.62808C28.8009 5.65634 28.8057 5.68446 28.8156 5.71082C28.8274 5.73789 28.8436 5.76265 28.8637 5.78397C28.8991 5.82066 28.9384 5.85323 28.9809 5.8811L28.9375 6.00101L27.966 5.62328L28.0094 5.50337C28.0775 5.51692 28.1475 5.51692 28.2156 5.50337C28.2641 5.48636 28.3054 5.45295 28.3328 5.40864C28.3833 5.32252 28.4249 5.2313 28.4571 5.13643L28.8262 4.14115L27.5371 3.63991L27.168 4.63399C27.1369 4.71193 27.1114 4.79209 27.0918 4.87382C27.081 4.91605 27.0779 4.95993 27.0824 5.00333C27.0891 5.03997 27.1048 5.07424 27.1281 5.10286C27.1675 5.14845 27.2124 5.18874 27.2617 5.22277L27.2184 5.34268L26.2422 4.96256L26.2855 4.84264C26.36 4.85574 26.4363 4.85247 26.5094 4.83305C26.5589 4.81166 26.6001 4.77414 26.6266 4.72633C26.6713 4.64406 26.7105 4.55872 26.7438 4.47091L27.5067 2.41798C27.5381 2.34008 27.564 2.25993 27.584 2.17816C27.5926 2.13462 27.5926 2.08978 27.584 2.04625C27.5768 2.01161 27.561 1.97942 27.5383 1.95272C27.4987 1.90868 27.4551 1.86854 27.4082 1.8328L27.4516 1.71289L28.4278 2.09302L28.3844 2.21293C28.3294 2.2042 28.2735 2.20218 28.218 2.20694C28.1836 2.21158 28.1507 2.2243 28.1219 2.24411C28.0875 2.27171 28.0591 2.30644 28.0387 2.34604C27.9986 2.42327 27.9641 2.50343 27.9356 2.58586L27.6227 3.42526L28.9117 3.9265L29.2235 3.0871C29.2624 2.9939 29.2911 2.89658 29.309 2.79691C29.3155 2.7484 29.3073 2.69903 29.2856 2.65541C29.2449 2.59528 29.1927 2.54427 29.1321 2.50552L29.1754 2.38561L30.1422 2.75734L30.0989 2.87725C30.03 2.86366 29.9592 2.86366 29.8903 2.87725C29.8413 2.89461 29.7998 2.92898 29.7731 2.97438C29.7254 3.06057 29.6862 3.15134 29.6559 3.24539L28.8895 5.29832Z" fill="white"/>
<path d="M30.3381 6.88746C30.1784 6.79113 30.038 6.66457 29.9245 6.51453C29.8189 6.37104 29.75 6.20288 29.7241 6.02528C29.6971 5.82174 29.7118 5.61468 29.7674 5.41731C29.8393 5.16325 29.9462 4.92098 30.085 4.69783C30.2462 4.40919 30.4627 4.15674 30.7213 3.95556C30.9314 3.79215 31.1845 3.69691 31.4479 3.68216C31.7058 3.67478 31.9599 3.74617 32.178 3.88721C32.4064 4.01782 32.5922 4.21422 32.7124 4.45201C32.8182 4.68305 32.8502 4.94236 32.8038 5.19307C32.7433 5.50956 32.6239 5.81122 32.4522 6.08164C32.2866 6.37971 32.0633 6.64004 31.796 6.84669C31.5856 7.00984 31.3309 7.10204 31.067 7.1105C30.8082 7.10899 30.5553 7.03159 30.3381 6.88746ZM30.5584 4.90168C30.2959 5.34696 30.1592 5.72429 30.1483 6.03367C30.1357 6.17138 30.1622 6.30988 30.2245 6.43259C30.2869 6.5553 30.3825 6.65702 30.4999 6.72557C30.643 6.81825 30.8153 6.85129 30.9815 6.81791C31.1727 6.76989 31.3471 6.66861 31.4854 6.52532C31.6738 6.33908 31.8362 6.12725 31.9682 5.89577C32.1311 5.63601 32.2559 5.3532 32.3385 5.05637C32.3978 4.8544 32.3994 4.63931 32.3432 4.43642C32.2925 4.27814 32.1871 4.14424 32.0467 4.05989C31.9329 3.98498 31.8001 3.9458 31.6647 3.94717C31.5301 3.9545 31.3992 3.99569 31.2838 4.06708C31.1432 4.1545 31.0174 4.26465 30.9112 4.39325C30.7793 4.55185 30.6613 4.72198 30.5584 4.90168Z" fill="white"/>
<path d="M32.4863 7.3671C32.4265 7.47883 32.3868 7.60069 32.3691 7.72684C32.3566 7.82618 32.3729 7.92712 32.416 8.01703C32.471 8.12394 32.5477 8.21758 32.641 8.29163C32.6991 8.34892 32.7678 8.3938 32.8431 8.42365C32.9183 8.4535 32.9986 8.46773 33.0793 8.46551C33.159 8.4559 33.2358 8.42965 33.3052 8.3884C33.3745 8.34714 33.4349 8.29176 33.4824 8.22568C33.554 8.14308 33.6058 8.04454 33.6336 7.93789C33.6542 7.82981 33.651 7.71837 33.6242 7.61172C33.5809 7.44077 33.5225 7.2742 33.4496 7.11408C33.3753 6.94503 33.3195 6.76808 33.2832 6.58646C33.2568 6.45472 33.2568 6.31888 33.2832 6.18714C33.3105 6.06495 33.3664 5.95137 33.4461 5.85618C33.5519 5.71972 33.6945 5.61799 33.8563 5.56359C34.0178 5.51266 34.1905 5.51266 34.352 5.56359C34.5414 5.62215 34.7164 5.72151 34.8653 5.85498C34.9576 5.93733 35.0456 6.02458 35.1289 6.1164C35.2327 6.22937 35.3286 6.34957 35.416 6.47614L34.986 7.00256L34.7973 6.84068C34.8538 6.72818 34.8907 6.60643 34.9063 6.48093C34.9153 6.38907 34.899 6.29647 34.8594 6.21353C34.8077 6.12123 34.7393 6.03985 34.6578 5.9737C34.5822 5.90743 34.4935 5.85874 34.3977 5.831C34.309 5.80614 34.2151 5.80907 34.1281 5.83939C34.0331 5.87328 33.9495 5.93397 33.8867 6.01447C33.818 6.09321 33.7689 6.18785 33.7438 6.29027C33.7241 6.39184 33.7261 6.49655 33.7496 6.59725C33.7879 6.74966 33.8396 6.89817 33.9043 7.04093C33.9847 7.21918 34.0475 7.40516 34.0918 7.59613C34.1235 7.73505 34.1267 7.87918 34.1012 8.01943C34.0728 8.1621 34.0085 8.29475 33.9149 8.40435C33.8208 8.52515 33.703 8.62442 33.5692 8.69574C33.4566 8.75215 33.3323 8.77972 33.207 8.77609C33.0778 8.76949 32.9513 8.73561 32.8356 8.67656C32.702 8.61041 32.5769 8.52786 32.4629 8.43073C32.2346 8.22604 32.0319 7.99324 31.8594 7.73763L32.2965 7.20401L32.4863 7.3671Z" fill="white"/>
<path d="M34.5262 9.47413C34.467 9.52582 34.4128 9.58325 34.3645 9.64561C34.3326 9.68413 34.3091 9.72907 34.2953 9.77751C34.2849 9.81677 34.2849 9.85817 34.2953 9.89743C34.3152 9.95795 34.3411 10.0162 34.3727 10.0713L34.2824 10.154L33.5547 9.32544L33.6449 9.2427C33.7044 9.29011 33.7738 9.32293 33.8477 9.33863C33.9005 9.34224 33.9529 9.32745 33.9965 9.29666C34.0719 9.244 34.1432 9.18547 34.2098 9.12158L35.8059 7.65384C35.8687 7.59792 35.9278 7.53783 35.9828 7.47397C36.0119 7.43917 36.0331 7.39822 36.0449 7.35405C36.0537 7.31986 36.0537 7.28392 36.0449 7.24973C36.0292 7.19318 36.0076 7.13851 35.9805 7.08665L36.0719 7.00391L36.8922 7.93923C37.1516 8.23422 37.2891 8.50443 37.3047 8.74985C37.3086 8.88022 37.2823 9.00969 37.2279 9.12766C37.1735 9.24562 37.0926 9.34874 36.9918 9.42857C36.8751 9.53913 36.7375 9.62402 36.5875 9.67799C36.4528 9.72548 36.3088 9.73865 36.168 9.71636C36.0246 9.69156 35.8883 9.63509 35.7684 9.55088C35.6389 9.46006 35.5209 9.35334 35.4168 9.2331C35.2996 9.09281 35.2012 8.98249 35.1391 8.90094L34.5262 9.47413ZM35.2926 8.76904L35.4848 8.99448C35.5865 9.11705 35.7097 9.21913 35.8481 9.29546C35.9617 9.35429 36.0918 9.37083 36.216 9.34223C36.3672 9.29893 36.5049 9.2163 36.6157 9.1024C36.7081 9.02236 36.7848 8.92511 36.8418 8.8158C36.8851 8.73021 36.9077 8.63519 36.9075 8.5388C36.9049 8.44578 36.8812 8.35464 36.8383 8.2726C36.791 8.17988 36.7319 8.094 36.6625 8.01718C36.5535 7.89726 36.468 7.80133 36.4082 7.74258L35.2926 8.76904Z" fill="white"/>
<path d="M36.2324 11.6558C36.1652 11.7026 36.101 11.7539 36.0402 11.8093C36.0081 11.8382 35.9818 11.8732 35.9629 11.9124C35.9483 11.9463 35.9427 11.9835 35.9465 12.0203C35.955 12.0797 35.9707 12.1377 35.9934 12.193L35.8938 12.265L35.2891 11.392L35.3887 11.32C35.4431 11.3737 35.5083 11.4146 35.5797 11.44C35.6314 11.4491 35.6847 11.4403 35.7309 11.4148C35.8133 11.3731 35.8918 11.3238 35.9652 11.2673L37.7231 9.99979C37.7921 9.95212 37.8575 9.89921 37.9188 9.8415C37.9512 9.81225 37.9772 9.77628 37.9949 9.73598C38.0074 9.70277 38.0118 9.66698 38.0078 9.63165C37.9989 9.5737 37.9836 9.51697 37.9621 9.46257L38.0617 9.39062L38.6664 10.2648L38.5668 10.3367C38.5253 10.2985 38.4797 10.2651 38.4309 10.2372C38.3998 10.2218 38.3658 10.2136 38.3313 10.2132C38.2877 10.2169 38.2454 10.23 38.2071 10.2516C38.1321 10.2916 38.0603 10.3377 37.9926 10.3895L36.2324 11.6558Z" fill="white"/>
<path d="M39.043 10.7988L40.3157 13.2175L39.5551 13.6372L39.4379 13.4177C39.526 13.3371 39.6078 13.2497 39.6828 13.1563C39.7323 13.0993 39.772 13.034 39.8 12.9633C39.8187 12.9124 39.826 12.8579 39.8211 12.8038C39.8082 12.7339 39.7832 12.6669 39.7473 12.6059L39.5985 12.3217L37.3613 13.5556C37.2922 13.5924 37.2263 13.6354 37.1645 13.684C37.1245 13.7138 37.091 13.7518 37.066 13.7955C37.047 13.8324 37.0377 13.8737 37.0391 13.9154C37.0444 13.9793 37.0566 14.0425 37.0754 14.1037L36.9676 14.1624L36.4297 13.1407L36.5375 13.082C36.5668 13.1178 36.5985 13.1515 36.6324 13.1827C36.6578 13.2077 36.6871 13.2279 36.7191 13.2427C36.7485 13.255 36.78 13.2611 36.8117 13.2607C36.8542 13.259 36.8961 13.2505 36.9359 13.2355C37.0068 13.2088 37.0753 13.1763 37.141 13.1383L39.3782 11.9044L39.2293 11.6226C39.2 11.5638 39.163 11.5093 39.1192 11.4608C39.0779 11.42 39.0264 11.3917 38.9703 11.3792C38.8933 11.3624 38.814 11.3596 38.736 11.3708C38.6223 11.3851 38.5098 11.4083 38.3996 11.4404L38.2824 11.2185L39.043 10.7988Z" fill="white"/>
<path d="M37.8344 16.3083L37.9516 16.2652C37.9842 16.3226 38.0235 16.3758 38.0688 16.4234C38.0982 16.454 38.1364 16.4742 38.1777 16.481C38.2268 16.4859 38.2763 16.4785 38.3219 16.4594C38.3794 16.4368 38.4347 16.4087 38.4871 16.3755C38.5434 16.3395 38.6043 16.2951 38.6735 16.2436L38.9418 16.0421L38.5422 14.9317H38.2844C38.1876 14.9319 38.091 14.9379 37.9949 14.9497C37.9377 14.9568 37.8815 14.9705 37.8274 14.9905C37.7889 15.0012 37.753 15.0201 37.7221 15.0459C37.6913 15.0717 37.666 15.1039 37.6481 15.1404C37.6232 15.2236 37.6232 15.3125 37.6481 15.3958L37.5309 15.4389L37.1641 14.4209L37.2813 14.3789C37.3071 14.4224 37.3412 14.4603 37.3814 14.4903C37.4216 14.5204 37.4672 14.542 37.5156 14.554C37.66 14.5909 37.8086 14.6083 37.9574 14.6055L40.8871 14.6271L41.0231 15.0037L38.7133 16.788C38.6289 16.8518 38.5483 16.9207 38.4719 16.9942C38.4243 17.0396 38.3868 17.0948 38.3617 17.1561C38.3399 17.2199 38.3335 17.2882 38.343 17.3552L38.2258 17.3983L37.8344 16.3083ZM38.7613 14.9197L39.1199 15.915L40.4594 14.8969L38.7613 14.9197Z" fill="white"/>
<path d="M38.5902 18.2139L38.7168 18.8662C38.7274 18.9262 38.7431 18.9852 38.7637 19.0425C38.7785 19.0854 38.7994 19.1258 38.8258 19.1624C38.8505 19.1939 38.8807 19.2203 38.9149 19.2403C38.9568 19.2635 39.0013 19.2816 39.0473 19.2943C39.1123 19.3111 39.1785 19.3223 39.2453 19.3279C39.3238 19.3351 39.4399 19.3399 39.5969 19.3435L39.6461 19.5953L38.6582 19.7452L38.2188 17.5076L38.3359 17.4836C38.3644 17.555 38.4076 17.6192 38.4625 17.6719C38.5062 17.7022 38.5587 17.7166 38.6113 17.7126C38.7025 17.7078 38.793 17.695 38.882 17.6743L40.9914 17.245C41.0737 17.2302 41.1547 17.2094 41.234 17.1826C41.275 17.1684 41.3128 17.146 41.3453 17.1167C41.3701 17.0922 41.3883 17.0617 41.3981 17.0279C41.4123 16.971 41.421 16.9128 41.4239 16.8541L41.541 16.8301L41.745 17.8781L41.6278 17.9021C41.6052 17.8511 41.5777 17.8025 41.5457 17.757C41.525 17.7301 41.4986 17.7083 41.4684 17.6935C41.4278 17.677 41.3842 17.67 41.3407 17.6731C41.2539 17.6783 41.1677 17.6908 41.0828 17.7102L38.5902 18.2139Z" fill="white"/>
<path d="M38.7523 23.3741L38.7031 23.175L38.9 22.9928C38.8367 22.8845 38.7893 22.7674 38.7594 22.645C38.7278 22.5092 38.714 22.3697 38.7184 22.2301C38.7254 21.802 38.873 21.4831 39.1637 21.2708C39.4543 21.0586 39.882 20.9578 40.4527 20.9674C40.7707 20.965 41.0857 21.0308 41.3774 21.1605C41.6274 21.2661 41.8394 21.4483 41.9841 21.6821C42.1289 21.916 42.1994 22.1899 42.186 22.4663C42.1838 22.618 42.1725 22.7694 42.152 22.9196C42.1294 23.0814 42.0969 23.2416 42.0547 23.3993L41.3715 23.3885V23.1367C41.4965 23.105 41.6154 23.0519 41.7231 22.9796C41.8023 22.9245 41.8651 22.8482 41.9047 22.7589C41.9447 22.6534 41.9646 22.5411 41.9633 22.428C41.968 22.25 41.9088 22.0764 41.7969 21.9399C41.6605 21.7845 41.4856 21.6698 41.2906 21.6078C41.0257 21.5204 40.7487 21.4771 40.4703 21.4795C40.1902 21.4691 39.9099 21.4974 39.6371 21.5634C39.4403 21.6056 39.2588 21.7032 39.1133 21.8452C38.9949 21.9721 38.9294 22.1411 38.9305 22.3165C38.9145 22.4752 38.9563 22.6344 39.0477 22.7637C39.0987 22.8158 39.16 22.8562 39.2275 22.8823C39.295 22.9083 39.3671 22.9194 39.4391 22.9148H39.5879C39.6957 22.9203 39.8037 22.9139 39.9102 22.8956C39.9693 22.8853 40.0237 22.8564 40.066 22.8129C40.1114 22.7547 40.143 22.6866 40.1586 22.6138H40.2758L40.2594 23.6391H40.1422C40.1289 23.5888 40.1062 23.5415 40.0754 23.5C40.0499 23.4693 40.0178 23.4451 39.9817 23.4293C39.937 23.4108 39.8901 23.3987 39.8422 23.3933C39.7859 23.3873 39.7074 23.3825 39.6078 23.3813L38.7523 23.3741Z" fill="white"/>
<path d="M41.6641 26.7844L40.9258 26.6561L40.9656 26.4162C41.0409 26.4063 41.1156 26.3923 41.1895 26.3743C41.2462 26.3611 41.3016 26.3423 41.3547 26.3179C41.3978 26.2995 41.4375 26.2736 41.4719 26.2412C41.5035 26.2096 41.5276 26.1711 41.5422 26.1285C41.5614 26.0749 41.5752 26.0194 41.5832 25.963L41.7145 25.1715L40.4289 24.9425L40.3399 25.4773C40.3272 25.5362 40.3272 25.5971 40.3399 25.656C40.3564 25.7039 40.3866 25.7457 40.4266 25.7759C40.494 25.8251 40.5672 25.8654 40.6446 25.8958L40.6047 26.1356L39.6672 25.9738L39.7059 25.7339C39.7853 25.7313 39.8641 25.718 39.9402 25.6944C39.9879 25.6788 40.0305 25.6502 40.0633 25.6116C40.0966 25.5602 40.1175 25.5014 40.1242 25.4401L40.2121 24.9041L38.8059 24.6643L38.677 25.4425C38.6644 25.5093 38.6605 25.5774 38.6652 25.6452C38.6691 25.6967 38.6861 25.7463 38.7145 25.7891C38.7462 25.8359 38.7859 25.8765 38.8316 25.909C38.8805 25.9473 38.9327 25.981 38.9875 26.0097C39.0414 26.0385 39.1223 26.0793 39.2277 26.1297L39.1867 26.3779L38.3359 26.1812L38.7109 23.8633L38.8281 23.8849C38.8286 23.9619 38.8462 24.0378 38.8797 24.1067C38.9101 24.1511 38.9543 24.1836 39.0051 24.199C39.0919 24.2277 39.1809 24.249 39.2711 24.2626L41.3875 24.6283C41.4692 24.6438 41.5518 24.6538 41.6348 24.6583C41.6779 24.6598 41.7208 24.6528 41.7614 24.6379C41.7931 24.6234 41.8209 24.6012 41.8422 24.5732C41.8762 24.5254 41.9049 24.4739 41.9278 24.4197L42.045 24.4413L41.6641 26.7844Z" fill="white"/>
<path d="M38.8742 28.9237C38.757 28.9477 38.6633 28.9657 38.5789 28.9801C38.4945 28.9945 38.4031 29.0064 38.3012 29.016L38.2906 29.0472C38.3891 29.0736 38.5801 29.1336 38.866 29.2295C39.152 29.3254 39.4086 29.413 39.636 29.4945L40.1282 29.6708C40.2048 29.7001 40.2831 29.725 40.3625 29.7451C40.4041 29.7566 40.4477 29.7591 40.4903 29.7523C40.5229 29.7445 40.5532 29.7285 40.5782 29.7055C40.6183 29.6645 40.6544 29.6195 40.686 29.5712L40.8032 29.612L40.5078 30.4742L40.3907 30.4334C40.3967 30.3768 40.3967 30.3197 40.3907 30.2631C40.3863 30.2296 40.3743 30.1975 40.3555 30.1696C40.3288 30.1352 40.2953 30.107 40.2571 30.0869C40.1794 30.0463 40.0987 30.0122 40.0157 29.9849L37.3906 29.0448L37.4938 28.745L40.1375 28.1934C40.3016 28.1587 40.4211 28.1359 40.495 28.1227C40.5688 28.1095 40.6426 28.0987 40.7141 28.0903L40.7282 28.0495C40.6039 28.0184 40.3836 27.9484 40.0672 27.8397C39.7508 27.733 39.4367 27.6226 39.1297 27.5111L38.6516 27.3408C38.5749 27.3122 38.4966 27.2882 38.4172 27.2689C38.3753 27.2613 38.3325 27.2613 38.2906 27.2689C38.255 27.2766 38.2219 27.2935 38.1945 27.3181C38.152 27.3592 38.1149 27.406 38.0844 27.4572L37.9672 27.4164L38.266 26.541L38.3832 26.583C38.3714 26.6591 38.3766 26.737 38.3984 26.8108C38.4206 26.8596 38.4582 26.8993 38.5051 26.9235C38.5862 26.9671 38.6709 27.0032 38.7582 27.0315L40.7832 27.7509C40.8599 27.7801 40.9381 27.8045 41.0176 27.8241C41.0601 27.8331 41.104 27.8331 41.1465 27.8241C41.1803 27.8156 41.2114 27.7982 41.2368 27.7737C41.2776 27.7326 41.3141 27.6872 41.3457 27.6382L41.4629 27.679L41.2063 28.4297L38.8742 28.9237Z" fill="white"/>
<path d="M39.0035 33.364L38.3485 32.9935L38.4656 32.7752C38.54 32.7916 38.6151 32.804 38.6907 32.8124C38.7483 32.8177 38.8064 32.8177 38.8641 32.8124C38.9098 32.8089 38.9545 32.7976 38.9965 32.7788C39.0362 32.7596 39.0711 32.7313 39.0985 32.6961C39.1339 32.6522 39.1649 32.6048 39.191 32.5546L39.5719 31.8519L38.434 31.208L38.1774 31.6876C38.1465 31.739 38.1273 31.7967 38.1211 31.8567C38.1198 31.908 38.1345 31.9585 38.1633 32.0006C38.2108 32.0696 38.2667 32.132 38.3297 32.1865L38.2125 32.3951L37.3863 31.9203L37.5035 31.7116C37.5793 31.7369 37.6582 31.751 37.7379 31.7536C37.7879 31.7556 37.8375 31.7431 37.8809 31.7176C37.9306 31.6814 37.9709 31.6332 37.9981 31.5773L38.2547 31.0976L37.0031 30.3878L36.6293 31.0773C36.5954 31.1358 36.5694 31.1987 36.552 31.2643C36.539 31.3142 36.539 31.3667 36.552 31.4166C36.5659 31.4712 36.5893 31.5228 36.6211 31.5689C36.6561 31.6217 36.6953 31.6714 36.7383 31.7176C36.7805 31.7632 36.8426 31.8291 36.9258 31.9143L36.8086 32.1337L36.0703 31.66L37.1836 29.6035L37.2891 29.6647C37.2653 29.738 37.2577 29.8158 37.2668 29.8925C37.2818 29.9442 37.3126 29.9896 37.3547 30.022C37.4286 30.0782 37.507 30.1279 37.5891 30.1707L39.4641 31.2355C39.5361 31.2782 39.6109 31.3159 39.6879 31.3483C39.7277 31.3647 39.7704 31.3729 39.8133 31.3722C39.8482 31.3687 39.8818 31.3572 39.9118 31.3387C39.9584 31.303 40.0016 31.2629 40.0407 31.2188L40.1473 31.2787L39.0035 33.364Z" fill="white"/>
<path d="M36.5434 33.5224L35.8801 32.9888C35.8131 32.9329 35.7422 32.882 35.668 32.8365C35.6321 32.814 35.5923 32.799 35.5508 32.7921C35.517 32.7899 35.4833 32.7961 35.4524 32.8101C35.4009 32.8357 35.3522 32.8666 35.307 32.9025L35.2109 32.8257L35.8578 31.9863L35.9528 32.0631C35.918 32.1314 35.8984 32.2067 35.8953 32.2837C35.9009 32.3375 35.924 32.3878 35.961 32.4264C36.0246 32.4932 36.0932 32.555 36.166 32.6111L37.8512 33.9661C37.9159 34.0198 37.984 34.0691 38.0551 34.1136C38.0908 34.1363 38.1307 34.151 38.1723 34.1568C38.2071 34.1602 38.2422 34.1544 38.2743 34.14C38.3256 34.1143 38.3743 34.0834 38.4196 34.0476L38.5145 34.1244L37.7563 35.1125C37.5172 35.4243 37.2828 35.6129 37.0532 35.6785C36.9319 35.7088 36.8052 35.7079 36.6843 35.6759C36.5634 35.6439 36.4522 35.5817 36.3606 35.495C36.1925 35.3684 36.0724 35.1863 36.0207 34.9794C35.9754 34.7496 35.9945 34.5114 36.0758 34.2923L36.0606 34.2791C35.9686 34.3332 35.8662 34.3663 35.7606 34.3762C35.6164 34.3822 35.472 34.3705 35.3305 34.3414L34.8723 34.2647C34.7678 34.2442 34.6621 34.231 34.5559 34.2251C34.4879 34.2219 34.4199 34.2296 34.3543 34.2479C34.29 34.2719 34.2313 34.3095 34.182 34.3582L34.0859 34.2815L34.5113 33.7287C34.6228 33.7335 34.734 33.7451 34.8441 33.7635C34.9574 33.7818 35.0723 33.8022 35.1887 33.8246L35.6492 33.9109C35.7546 33.9319 35.861 33.9467 35.968 33.9553C36.0254 33.9604 36.0832 33.9555 36.1391 33.9409C36.179 33.928 36.216 33.9072 36.2481 33.8798C36.2922 33.8386 36.3315 33.7923 36.3653 33.7419L36.5434 33.5224ZM37.87 34.5885L36.711 33.6567L36.5387 33.8834C36.4637 33.976 36.3993 34.0769 36.3465 34.1843C36.3079 34.2702 36.2871 34.3633 36.2856 34.4578C36.286 34.5629 36.3131 34.6662 36.3641 34.7575C36.4288 34.8733 36.5161 34.9741 36.6207 35.0537C36.7243 35.1429 36.8473 35.2054 36.9793 35.236C37.0937 35.2587 37.2121 35.2427 37.3168 35.1904C37.4503 35.1167 37.5657 35.013 37.6543 34.887C37.7469 34.7671 37.8184 34.6676 37.87 34.5885Z" fill="white"/>
<path d="M32.8117 35.4465L32.8938 35.5388C32.8538 35.5907 32.8203 35.6475 32.7942 35.7079C32.7791 35.7459 32.7751 35.7875 32.7824 35.8278C32.796 35.8766 32.8219 35.9209 32.8574 35.9562C32.899 36.0008 32.945 36.041 32.9945 36.0761C33.0484 36.1152 33.1117 36.1572 33.1844 36.202L33.468 36.3806L34.3223 35.5844L34.2215 35.3446C34.1848 35.2527 34.1429 35.163 34.0961 35.076C34.0676 35.0249 34.0338 34.977 33.9953 34.9333C33.9713 34.9008 33.9408 34.874 33.9058 34.8546C33.8709 34.8351 33.8323 34.8235 33.7926 34.8206C33.7074 34.8257 33.6257 34.8571 33.5582 34.9105L33.4762 34.8182L34.259 34.0879L34.341 34.1802C34.3111 34.2212 34.2894 34.2678 34.2774 34.3175C34.2653 34.3671 34.263 34.4187 34.2707 34.4692C34.2906 34.6198 34.33 34.767 34.3879 34.9069L35.4743 37.6973L35.1848 37.9671L32.6945 36.4646C32.6054 36.4085 32.5131 36.358 32.418 36.3135C32.3587 36.2858 32.2945 36.2707 32.2293 36.2691C32.1636 36.2728 32.0997 36.2925 32.043 36.3267L31.9609 36.2355L32.8117 35.4465ZM34.4184 35.8063L33.652 36.5257L35.0782 37.4107L34.4184 35.8063Z" fill="white"/>
<path d="M31.3672 36.8868L30.8234 37.2537C30.7731 37.2866 30.7256 37.3239 30.6816 37.3652C30.6492 37.3946 30.6215 37.429 30.5996 37.4672C30.5814 37.5028 30.5691 37.5413 30.5633 37.5811C30.5569 37.6296 30.5569 37.6788 30.5633 37.7274C30.5724 37.7953 30.5873 37.8623 30.6078 37.9276C30.6313 38.0044 30.6699 38.1159 30.725 38.2634L30.5164 38.4049L30.0078 37.5259L31.8676 36.2656L31.9344 36.3699C31.8796 36.423 31.8375 36.4883 31.8113 36.5606C31.8003 36.6133 31.8069 36.6682 31.8301 36.7165C31.8698 36.7999 31.9156 36.8801 31.9672 36.9563L33.152 38.7874C33.1964 38.8596 33.2458 38.9285 33.2996 38.9937C33.3282 39.027 33.3628 39.0543 33.4016 39.074C33.4333 39.088 33.4679 39.0937 33.5024 39.0908C33.5595 39.0825 33.6156 39.0685 33.67 39.0488L33.7367 39.1532L32.866 39.7431L32.7981 39.6388C32.8357 39.5978 32.8695 39.5533 32.8989 39.5057C32.915 39.4762 32.9246 39.4435 32.927 39.4098C32.9261 39.3649 32.9157 39.3207 32.8965 39.2803C32.8589 39.2 32.8151 39.123 32.7653 39.05L31.3672 36.8868Z" fill="white"/>
</g>
<defs>
<clipPath id="clip0_5660_15623">
<rect width="43" height="44" fill="white"/>
</clipPath>
</defs>
</svg>
