<svg width="124" height="41" viewBox="0 0 124 41" fill="none" xmlns="http://www.w3.org/2000/svg">
<path d="M40.9488 20.4748C40.9488 31.7827 31.7819 40.9496 20.474 40.9496C9.16617 40.9496 0 31.7827 0 20.4748C0 9.16697 9.16697 0 20.4748 0C31.7827 0 40.9496 9.16697 40.9496 20.4748H40.9488ZM20.4748 0.899966C9.66413 0.899966 0.899966 9.66413 0.899966 20.4748C0.899966 31.2855 9.66413 40.0497 20.4748 40.0497C31.2855 40.0497 40.0497 31.2855 40.0497 20.4748C40.0497 9.66413 31.2855 0.899966 20.4748 0.899966Z" fill="#0093DD"/>
<path d="M28.1325 37.3711C28.1325 37.3711 28.1278 37.373 28.125 37.3749C28.1278 37.3739 28.1297 37.373 28.1325 37.3711Z" fill="#0093DD"/>
<path d="M39.0965 20.3733C39.0965 10.0741 30.747 1.72461 20.4477 1.72461C15.7592 1.72461 11.475 3.45556 8.19869 6.31245C7.20992 7.74843 5.15625 11.476 5.15625 17.6742C5.15625 26.7151 11.1698 29.415 12.1514 29.9875C12.1514 29.9875 16.6925 32.0126 20.0981 30.3863C28.7544 26.2528 23.2277 21.4469 23.2277 21.4469L20.8038 24.2198L21.029 15.056L28.8012 10.9241L27.5737 13.2561C27.5737 13.2561 33.7918 17.1017 33.7918 22.6649C33.7918 29.8646 28.2406 33.1425 28.2406 33.1425C17.6218 42.4261 6.78095 32.7826 5.65183 31.724C7.73404 34.4342 10.5426 36.5553 13.788 37.797L13.8831 36.9089C13.8831 36.9089 15.6855 37.6321 17.5821 37.6154L17.6059 38.808C18.5328 38.9499 19.482 39.0236 20.4485 39.0236C21.9638 39.0236 23.4371 38.8413 24.8477 38.5003L23.9493 36.277C23.9493 36.277 26.0101 35.3873 27.2272 34.5127L28.2342 37.3244C34.6458 34.3747 39.098 27.895 39.098 20.3741L39.0965 20.3733ZM20.6476 14.8142L20.489 25.1126L23.2468 21.983C23.2468 21.983 25.4043 23.9581 24.3465 26.3345C23.4926 28.2518 21.182 29.3936 21.182 29.3936L20.2035 26.907C20.2035 26.907 19.1585 30.2484 18.9539 30.4323C18.9539 30.4323 17.0604 30.9216 15.0178 30.4744C15.0178 30.4744 15.2803 28.8465 15.894 24.9501C16.5077 21.0537 16.4205 18.2055 15.94 15.9726C15.7021 14.8681 14.7538 14.9497 13.9815 15.4287C12.0888 16.6022 6.09586 22.0654 6.09586 22.0654C6.09586 22.0654 5.789 21.1425 5.63597 20.0633C5.63597 20.0633 12.7905 12.2491 15.8076 11.4006C16.9668 11.0747 18.2664 11.2801 18.7073 10.8178C18.9459 10.5673 19.0038 9.92183 19.0038 9.57533L18.9888 8.55801C18.9888 8.55801 18.8659 8.38356 18.7231 8.23608C18.4218 7.92526 17.9366 6.98882 17.9667 5.54491C17.9921 4.29923 18.7493 3.12491 20.324 3.1257C21.9051 3.1257 22.5688 4.47129 22.5688 5.66781C22.5688 6.86433 22.2366 7.89116 21.7561 8.30665C21.6403 8.40656 21.6791 8.79747 21.6791 8.90531C21.6791 9.01314 21.7251 9.78624 21.7862 9.95514C21.8472 10.124 22.3079 10.6608 23.6321 10.8908C25.1529 11.1548 26.0101 11.9644 26.0101 11.9644L20.6499 14.815L20.6476 14.8142Z" fill="#0093DD"/>
<path d="M13.7891 37.7965C14.938 38.2461 16.3106 38.6521 17.607 38.8059C16.2828 38.6037 15.0054 38.2604 13.7891 37.7949V37.7965Z" fill="#0093DD"/>
<path d="M24.8524 38.4994C25.895 38.267 27.0773 37.8515 28.1255 37.375C27.0821 37.8468 25.987 38.2234 24.8516 38.4978V38.4994H24.8524Z" fill="#0093DD"/>
<path d="M28.2391 37.3223C28.2034 37.3373 28.1685 37.3548 28.1328 37.3706C28.1685 37.3548 28.2042 37.3381 28.2399 37.3223H28.2391Z" fill="#0093DD"/>
<path d="M8.20158 6.31081C8.51558 5.85567 8.96041 5.70898 8.96041 5.70898C4.66436 9.12568 1.67188 14.3185 1.67188 20.2345C1.67188 24.5258 3.12134 28.4785 5.55719 31.6304C5.55719 31.6304 5.59049 31.6629 5.65393 31.7232C3.23869 28.5792 1.72262 24.644 1.72262 20.3733C1.72262 14.7626 4.28059 9.73068 8.20158 6.3116V6.31081Z" fill="#0093DD"/>
<path d="M43.5555 17.6066L44.5641 17.5082C44.6251 17.8468 44.748 18.095 44.9336 18.2536C45.1191 18.4122 45.3697 18.4915 45.6845 18.4915C46.0183 18.4915 46.2697 18.4209 46.4385 18.2797C46.6074 18.1386 46.6923 17.9729 46.6923 17.7842C46.6923 17.6628 46.6566 17.5598 46.5852 17.4749C46.5139 17.3901 46.3894 17.3155 46.2126 17.2521C46.0912 17.2101 45.8145 17.1356 45.3832 17.0277C44.8273 16.8897 44.438 16.7209 44.2136 16.5202C43.8988 16.238 43.741 15.8938 43.741 15.4879C43.741 15.2262 43.8148 14.982 43.963 14.7544C44.1113 14.5276 44.3246 14.354 44.6037 14.235C44.8828 14.1161 45.219 14.0566 45.6139 14.0566C46.2578 14.0566 46.743 14.1978 47.0681 14.4801C47.394 14.7623 47.5645 15.139 47.5811 15.6108L46.5448 15.656C46.5004 15.3919 46.4052 15.2024 46.2593 15.0874C46.1134 14.9717 45.8946 14.9138 45.6028 14.9138C45.311 14.9138 45.066 14.9756 44.8955 15.0993C44.7861 15.1786 44.7306 15.2849 44.7306 15.4181C44.7306 15.5394 44.7821 15.6433 44.8844 15.7297C45.0153 15.8391 45.3324 15.9541 45.8367 16.073C46.341 16.192 46.7137 16.3157 46.9555 16.4425C47.1974 16.5702 47.3861 16.7439 47.5225 16.9643C47.6589 17.1847 47.727 17.4575 47.727 17.7818C47.727 18.076 47.6454 18.3511 47.482 18.608C47.3187 18.8649 47.0879 19.056 46.789 19.1805C46.4901 19.305 46.1182 19.3676 45.6726 19.3676C45.024 19.3676 44.5252 19.2178 44.1779 18.918C43.8298 18.6183 43.6221 18.1806 43.5547 17.6066H43.5555Z" fill="#0C80BE"/>
<path d="M48.3906 16.7415C48.3906 16.2189 48.4691 15.7797 48.6253 15.4252C48.7419 15.1636 48.9013 14.9296 49.1035 14.7219C49.3057 14.5142 49.5261 14.3603 49.7671 14.2596C50.0867 14.124 50.4554 14.0566 50.8733 14.0566C51.6297 14.0566 52.2347 14.2913 52.6883 14.76C53.1418 15.2286 53.3694 15.8812 53.3694 16.7169C53.3694 17.5526 53.1442 18.1941 52.6938 18.6611C52.2434 19.1298 51.6416 19.3629 50.8875 19.3629C50.1335 19.3629 49.5174 19.1298 49.067 18.6643C48.6166 18.1981 48.3914 17.5574 48.3914 16.7407L48.3906 16.7415ZM49.4579 16.7066C49.4579 17.2878 49.5919 17.7287 49.8607 18.0284C50.1287 18.3281 50.4697 18.478 50.8828 18.478C51.2959 18.478 51.6345 18.3297 51.9001 18.0316C52.1649 17.7342 52.2974 17.2878 52.2974 16.6931C52.2974 16.0984 52.1681 15.6663 51.9104 15.3769C51.6527 15.0874 51.3102 14.9431 50.8828 14.9431C50.4554 14.9431 50.1113 15.0898 49.8504 15.3824C49.5887 15.675 49.4587 16.1167 49.4587 16.7074L49.4579 16.7066Z" fill="#0C80BE"/>
<path d="M57.4659 17.3893L58.4705 17.708C58.3167 18.2678 58.0606 18.6841 57.7022 18.9561C57.3438 19.2281 56.8894 19.3645 56.3383 19.3645C55.6572 19.3645 55.0966 19.1313 54.6581 18.6659C54.2196 18.1997 54 17.5637 54 16.7557C54 15.9018 54.2204 15.2381 54.6613 14.7655C55.1022 14.2921 55.6826 14.0566 56.401 14.0566C57.029 14.0566 57.5388 14.2422 57.9305 14.6133C58.1636 14.8329 58.3389 15.1477 58.4554 15.5584L57.4294 15.8034C57.3683 15.537 57.2423 15.3277 57.0496 15.1731C56.8569 15.0192 56.623 14.9423 56.3478 14.9423C55.9672 14.9423 55.6588 15.0787 55.4217 15.3523C55.1846 15.625 55.0665 16.0675 55.0665 16.6788C55.0665 17.3274 55.183 17.7897 55.417 18.0649C55.6501 18.34 55.9538 18.478 56.3272 18.478C56.6024 18.478 56.8395 18.3907 57.0377 18.2155C57.2359 18.0403 57.3786 17.7651 57.4651 17.3893H57.4659Z" fill="#0C80BE"/>
<path d="M59.3203 19.2763V14.1445H60.3567V19.2763H59.3203Z" fill="#0C80BE"/>
<path d="M61.3438 19.2763V14.1445H65.149V15.0128H62.3801V16.1506H64.9563V17.0157H62.3801V18.4128H65.2473V19.2779H61.3438V19.2763Z" fill="#0C80BE"/>
<path d="M66.125 14.1445H68.0193C68.4467 14.1445 68.7718 14.177 68.9962 14.2429C69.2975 14.3317 69.5552 14.4895 69.7701 14.7154C69.9849 14.9414 70.1483 15.2189 70.2601 15.5464C70.3719 15.8747 70.4282 16.2791 70.4282 16.7596C70.4282 17.1822 70.3758 17.5462 70.2704 17.8514C70.1419 18.2249 69.9588 18.527 69.7209 18.7577C69.5409 18.933 69.2983 19.0694 68.993 19.1677C68.7646 19.2398 68.4586 19.2763 68.0756 19.2763H66.1258V14.1445H66.125ZM67.1613 15.0128V18.412H67.9352C68.2247 18.412 68.4332 18.3954 68.5616 18.3629C68.7297 18.3208 68.8693 18.2495 68.9803 18.1496C69.0913 18.0497 69.1817 17.8839 69.2515 17.654C69.3213 17.4248 69.3562 17.1109 69.3562 16.7144C69.3562 16.3179 69.3213 16.0134 69.2515 15.8009C69.1817 15.5884 69.0834 15.4227 68.9573 15.3038C68.8312 15.1848 68.6711 15.104 68.4776 15.0619C68.3333 15.0294 68.0494 15.0128 67.6268 15.0128H67.1613Z" fill="#0C80BE"/>
<path d="M75.9305 19.2763H74.8029L74.3549 18.1107H72.3037L71.8802 19.2763H70.7812L72.7802 14.1445H73.876L75.9313 19.2763H75.9305ZM74.0227 17.2464L73.3154 15.3418L72.6224 17.2464H74.0227Z" fill="#0C80BE"/>
<path d="M76.4844 14.1445H78.3787C78.8061 14.1445 79.1311 14.177 79.3555 14.2429C79.6569 14.3317 79.9146 14.4895 80.1294 14.7154C80.3443 14.9422 80.5077 15.2189 80.6195 15.5464C80.7313 15.8747 80.7876 16.2791 80.7876 16.7596C80.7876 17.1822 80.7352 17.5462 80.6298 17.8514C80.5013 18.2249 80.3182 18.527 80.0803 18.7577C79.9003 18.933 79.6577 19.0694 79.3524 19.1677C79.124 19.2398 78.8179 19.2763 78.435 19.2763H76.4852V14.1445H76.4844ZM77.5199 15.0128V18.412H78.2938C78.5832 18.412 78.7918 18.3954 78.9202 18.3629C79.0883 18.3208 79.2279 18.2495 79.3389 18.1496C79.4499 18.0497 79.5403 17.8839 79.6101 17.654C79.6799 17.4248 79.7147 17.1109 79.7147 16.7144C79.7147 16.3179 79.6799 16.0134 79.6101 15.8009C79.5403 15.5884 79.442 15.4227 79.3159 15.3038C79.1898 15.1848 79.0297 15.104 78.8362 15.0619C78.6919 15.0294 78.408 15.0128 77.9854 15.0128H77.5199Z" fill="#0C80BE"/>
<path d="M83.6484 19.2763V14.1445H85.3112C85.9416 14.1445 86.3523 14.1699 86.5434 14.2214C86.8376 14.2984 87.0834 14.4665 87.2824 14.7242C87.4814 14.9819 87.5797 15.3149 87.5797 15.7232C87.5797 16.038 87.5227 16.3029 87.4085 16.5177C87.2943 16.7326 87.1484 16.9015 86.9724 17.0236C86.7963 17.1465 86.6171 17.2274 86.4356 17.2671C86.1882 17.3162 85.8298 17.3408 85.3612 17.3408H84.6856V19.2763H83.6492H83.6484ZM84.6848 15.0128V16.4694H85.2517C85.6601 16.4694 85.9328 16.4424 86.0708 16.3885C86.2088 16.3346 86.3166 16.2505 86.3943 16.1364C86.472 16.0222 86.5117 15.889 86.5117 15.7375C86.5117 15.5512 86.457 15.3966 86.3468 15.2752C86.2365 15.1539 86.0986 15.0778 85.9305 15.0477C85.8068 15.0247 85.5586 15.0128 85.1851 15.0128H84.6848Z" fill="#0C80BE"/>
<path d="M88.4375 19.2763V14.1445H92.2427V15.0128H89.4738V16.1506H92.0501V17.0157H89.4738V18.4128H92.3411V19.2779H88.4375V19.2763Z" fill="#0C80BE"/>
<path d="M93.2188 19.2763V14.1445H95.4001C95.9488 14.1445 96.3468 14.1905 96.595 14.2833C96.8432 14.3761 97.043 14.5394 97.1921 14.7749C97.3411 15.0104 97.4165 15.28 97.4165 15.5837C97.4165 15.969 97.3031 16.287 97.0771 16.5376C96.8503 16.7881 96.5125 16.9467 96.0622 17.0117C96.2866 17.1426 96.4713 17.2861 96.6172 17.4423C96.7631 17.5985 96.9598 17.876 97.2071 18.2757L97.8336 19.2771H96.5942L95.8449 18.1607C95.5785 17.7618 95.3969 17.5105 95.2986 17.4066C95.2003 17.3027 95.0964 17.2314 94.987 17.1925C94.8775 17.1545 94.7031 17.1346 94.4652 17.1346H94.2551V19.2771H93.2188V19.2763ZM94.2551 16.3148H95.0219C95.519 16.3148 95.829 16.2941 95.9527 16.2521C96.0764 16.2101 96.1732 16.1379 96.243 16.0349C96.3127 15.9318 96.3476 15.8041 96.3476 15.6495C96.3476 15.4766 96.3016 15.3379 96.2089 15.2308C96.1169 15.1254 95.9868 15.058 95.8187 15.0294C95.7347 15.0175 95.4825 15.012 95.0623 15.012H94.2535V16.314L94.2551 16.3148Z" fill="#0C80BE"/>
<path d="M98.3906 14.1445H99.427V16.9245C99.427 17.3654 99.4397 17.6516 99.4658 17.7825C99.5102 17.9926 99.6157 18.1615 99.7822 18.2883C99.9487 18.4152 100.177 18.4786 100.466 18.4786C100.756 18.4786 100.982 18.4184 101.132 18.2979C101.281 18.1781 101.371 18.0298 101.401 17.8554C101.431 17.681 101.447 17.39 101.447 16.984V14.1445H102.483V16.8405C102.483 17.4566 102.455 17.8919 102.399 18.1464C102.343 18.4009 102.239 18.6158 102.089 18.7903C101.938 18.9655 101.738 19.105 101.485 19.2081C101.233 19.312 100.904 19.3643 100.498 19.3643C100.008 19.3643 99.6363 19.3072 99.3834 19.1946C99.1304 19.0821 98.9306 18.9346 98.7831 18.7538C98.6364 18.573 98.5389 18.3835 98.4929 18.1853C98.4255 17.8911 98.3914 17.4574 98.3914 16.8833V14.1453L98.3906 14.1445Z" fill="#0C80BE"/>
<path d="M108.204 19.2763H107.076L106.628 18.1107H104.577L104.154 19.2763H103.055L105.054 14.1445H106.149L108.205 19.2763H108.204ZM106.296 17.2464L105.589 15.3418L104.896 17.2464H106.296Z" fill="#0C80BE"/>
<path d="M108.758 19.2763V14.1445H109.766L111.867 17.5715V14.1445H112.829V19.2763H111.79L109.721 15.9294V19.2763H108.759H108.758Z" fill="#0C80BE"/>
<path d="M118.555 19.2763H117.428L116.98 18.1107H114.929L114.505 19.2763H113.406L115.405 14.1445H116.501L118.556 19.2763H118.555ZM116.648 17.2464L115.94 15.3418L115.247 17.2464H116.648Z" fill="#0C80BE"/>
<path d="M43.5547 22.1113H45.449C45.8764 22.1113 46.2015 22.1438 46.4259 22.2096C46.7272 22.2985 46.9849 22.4562 47.1997 22.6822C47.4146 22.9082 47.578 23.1857 47.6898 23.5132C47.8016 23.8415 47.8579 24.2459 47.8579 24.7264C47.8579 25.149 47.8055 25.513 47.7001 25.8182C47.5716 26.1917 47.3885 26.4938 47.1506 26.7245C46.9706 26.8998 46.728 27.0362 46.4227 27.1345C46.1943 27.2066 45.8883 27.2431 45.5053 27.2431H43.5555V22.1113H43.5547ZM44.5902 22.9796V26.3788H45.3641C45.6536 26.3788 45.8621 26.3622 45.9905 26.3297C46.1586 26.2876 46.2982 26.2163 46.4092 26.1164C46.5202 26.0165 46.6106 25.8507 46.6804 25.6208C46.7502 25.3916 46.785 25.0776 46.785 24.6812C46.785 24.2847 46.7502 23.9802 46.6804 23.7677C46.6106 23.5552 46.5123 23.3895 46.3862 23.2706C46.2601 23.1516 46.1 23.0708 45.9065 23.0287C45.7622 22.9962 45.4783 22.9796 45.0557 22.9796H44.5902Z" fill="#0C80BE"/>
<path d="M48.7422 27.2431V22.1113H52.5474V22.9796H49.7785V24.1174H52.3547V24.9825H49.7785V26.3796H52.6457V27.2447H48.7422V27.2431Z" fill="#0C80BE"/>
<path d="M55.4922 27.2431V22.1113H57.0431L57.974 25.6121L58.8946 22.1113H60.4487V27.2431H59.4861V23.2032L58.4672 27.2431H57.4697L56.4548 23.2032V27.2431H55.4922Z" fill="#0C80BE"/>
<path d="M61.4766 27.2431V22.1113H65.2818V22.9796H62.5129V24.1174H65.0891V24.9825H62.5129V26.3796H65.3801V27.2447H61.4766V27.2431Z" fill="#0C80BE"/>
<path d="M66.2578 22.1113H68.1521C68.5795 22.1113 68.9046 22.1438 69.129 22.2096C69.4303 22.2985 69.688 22.4562 69.9029 22.6822C70.1178 22.9082 70.2811 23.1857 70.3929 23.5132C70.5047 23.8415 70.561 24.2459 70.561 24.7264C70.561 25.149 70.5087 25.513 70.4032 25.8182C70.2748 26.1917 70.0916 26.4938 69.8537 26.7245C69.6737 26.8998 69.4311 27.0362 69.1258 27.1345C68.8975 27.2066 68.5914 27.2431 68.2084 27.2431H66.2586V22.1113H66.2578ZM67.2942 22.9796V26.3788H68.0681C68.3575 26.3788 68.566 26.3622 68.6945 26.3297C68.8626 26.2876 69.0021 26.2163 69.1131 26.1164C69.2241 26.0165 69.3145 25.8507 69.3843 25.6208C69.4541 25.3916 69.489 25.0776 69.489 24.6812C69.489 24.2847 69.4541 23.9802 69.3843 23.7677C69.3145 23.5552 69.2162 23.3895 69.0901 23.2706C68.9641 23.1516 68.8039 23.0708 68.6104 23.0287C68.4661 22.9962 68.1822 22.9796 67.7596 22.9796H67.2942Z" fill="#0C80BE"/>
<path d="M71.4141 27.2431V22.1113H72.4504V27.2431H71.4141Z" fill="#0C80BE"/>
<path d="M76.7159 25.3561L77.7205 25.6748C77.5667 26.2346 77.3106 26.6509 76.9522 26.9229C76.5938 27.1949 76.1394 27.3313 75.5883 27.3313C74.9072 27.3313 74.3466 27.0981 73.9081 26.6327C73.4696 26.1665 73.25 25.5305 73.25 24.7225C73.25 23.8686 73.4704 23.2049 73.9113 22.7323C74.3522 22.2589 74.9326 22.0234 75.651 22.0234C76.279 22.0234 76.7888 22.209 77.1805 22.5801C77.4136 22.7997 77.5889 23.1145 77.7054 23.5252L76.6794 23.7702C76.6183 23.5038 76.4923 23.2945 76.2996 23.1399C76.1069 22.9853 75.873 22.9091 75.5978 22.9091C75.2172 22.9091 74.9088 23.0455 74.6717 23.3191C74.4346 23.5918 74.3165 24.0343 74.3165 24.6456C74.3165 25.2942 74.433 25.7565 74.667 26.0317C74.9001 26.3068 75.2038 26.4448 75.5772 26.4448C75.8524 26.4448 76.0895 26.3575 76.2877 26.1823C76.4859 26.0071 76.6286 25.7319 76.7151 25.3561H76.7159Z" fill="#0C80BE"/>
<path d="M78.5859 27.2431V22.1113H79.6223V27.2431H78.5859Z" fill="#0C80BE"/>
<path d="M80.6172 27.2431V22.1113H81.6258L83.7262 25.5383V22.1113H84.6888V27.2431H83.6493L81.5806 23.8962V27.2431H80.618H80.6172Z" fill="#0C80BE"/>
<path d="M90.4149 27.2431H89.2873L88.8393 26.0775H86.788L86.3646 27.2431H85.2656L87.2646 22.1113H88.3604L90.4157 27.2431H90.4149ZM88.5071 25.2124L87.7998 23.3078L87.1068 25.2124H88.5071Z" fill="#0C80BE"/>
<path d="M92.6562 27.2431V22.1113H93.6926V27.2431H92.6562Z" fill="#0C80BE"/>
<path d="M94.6875 27.2431V22.1113H95.6961L97.7966 25.5383V22.1113H98.7592V27.2431H97.7196L95.6509 23.8962V27.2431H94.6883H94.6875Z" fill="#0C80BE"/>
<path d="M101.008 27.2431V22.9796H99.4844V22.1113H103.562V22.9796H102.043V27.2431H101.007H101.008Z" fill="#0C80BE"/>
<path d="M104.234 27.2431V22.1113H108.04V22.9796H105.271V24.1174H107.847V24.9825H105.271V26.3796H108.138V27.2447H104.234V27.2431Z" fill="#0C80BE"/>
<path d="M109.016 27.2431V22.1113H111.197C111.746 22.1113 112.144 22.1573 112.393 22.2501C112.641 22.3429 112.84 22.5062 112.99 22.7417C113.14 22.9772 113.214 23.2468 113.214 23.5505C113.214 23.9358 113.101 24.2538 112.875 24.5044C112.648 24.7549 112.31 24.9135 111.86 24.9785C112.084 25.1094 112.269 25.2529 112.415 25.4091C112.561 25.5653 112.757 25.8428 113.005 26.2424L113.631 27.2439H112.392L111.643 26.1275C111.376 25.7286 111.195 25.4773 111.096 25.3734C110.998 25.2695 110.894 25.1982 110.785 25.1593C110.675 25.1213 110.501 25.1014 110.263 25.1014H110.053V27.2439H109.016L109.016 27.2431ZM110.052 24.2816H110.819C111.316 24.2816 111.626 24.2609 111.75 24.2189C111.873 24.1769 111.97 24.1047 112.04 24.0017C112.11 23.8986 112.144 23.7709 112.144 23.6163C112.144 23.4434 112.099 23.3047 112.007 23.1976C111.915 23.0922 111.784 23.0248 111.616 22.9962C111.532 22.9843 111.279 22.9788 110.859 22.9788H110.05V24.2808L110.052 24.2816Z" fill="#0C80BE"/>
<path d="M114.211 27.2431V22.1113H115.22L117.32 25.5383V22.1113H118.283V27.2431H117.243L115.174 23.8962V27.2431H114.212H114.211Z" fill="#0C80BE"/>
<path d="M124.001 27.2431H122.873L122.425 26.0775H120.374L119.951 27.2431H118.852L120.851 22.1113H121.946L124.002 27.2431H124.001ZM122.093 25.2124L121.386 23.3078L120.693 25.2124H122.093Z" fill="#0C80BE"/>
</svg>
