<svg width="179" height="179" viewBox="0 0 179 179" fill="none" xmlns="http://www.w3.org/2000/svg">
<circle cx="89.7612" cy="89.7751" r="89.0112" fill="#FCEAFF"/>
<circle cx="89.7615" cy="89.7751" r="65.3767" fill="#F6C5FF"/>
<path d="M123.012 110.775L99.7617 89.7754M79.7617 89.7754L56.5118 110.775M54.7617 72.2754L83.3389 92.2794C85.653 93.8993 86.8101 94.7093 88.0686 95.023C89.1804 95.3001 90.3431 95.3001 91.4548 95.023C92.7134 94.7093 93.8704 93.8993 96.1845 92.2794L124.762 72.2754M71.5617 117.775H107.962C113.842 117.775 116.783 117.775 119.029 116.631C121.004 115.624 122.611 114.018 123.617 112.042C124.762 109.796 124.762 106.856 124.762 100.975V78.5754C124.762 72.6948 124.762 69.7546 123.617 67.5085C122.611 65.5328 121.004 63.9265 119.029 62.9198C116.783 61.7754 113.842 61.7754 107.962 61.7754H71.5617C65.6812 61.7754 62.7409 61.7754 60.4948 62.9198C58.5191 63.9265 56.9128 65.5328 55.9062 67.5085C54.7617 69.7546 54.7617 72.6948 54.7617 78.5754V100.975C54.7617 106.856 54.7617 109.796 55.9062 112.042C56.9128 114.018 58.5191 115.624 60.4948 116.631C62.7409 117.775 65.6812 117.775 71.5617 117.775Z" stroke="#4D005B" strokeWidth="3" strokeLinecap="round" strokeLinejoin="round"/>
</svg>
