<svg width="180" height="179" viewBox="0 0 180 179" fill="none" xmlns="http://www.w3.org/2000/svg">
<circle cx="89.9995" cy="89.437" r="89.0112" fill="#FCEAFF"/>
<circle cx="89.9998" cy="89.4373" r="65.3767" fill="#F6C5FF"/>
<path d="M123.25 110.438L100 89.4375M80 89.4375L56.7501 110.438M55 71.9375L83.5772 91.9416C85.8913 93.5614 87.0484 94.3714 88.3069 94.6851C89.4186 94.9622 90.5814 94.9622 91.6931 94.6851C92.9516 94.3714 94.1087 93.5614 96.4228 91.9416L125 71.9375M71.8 117.438H108.2C114.081 117.438 117.021 117.438 119.267 116.293C121.243 115.286 122.849 113.68 123.856 111.704C125 109.458 125 106.518 125 100.638V78.2375C125 72.3569 125 69.4167 123.856 67.1706C122.849 65.1949 121.243 63.5886 119.267 62.5819C117.021 61.4375 114.081 61.4375 108.2 61.4375H71.8C65.9195 61.4375 62.9792 61.4375 60.7331 62.5819C58.7574 63.5886 57.1511 65.1949 56.1444 67.1706C55 69.4167 55 72.3569 55 78.2375V100.638C55 106.518 55 109.458 56.1444 111.704C57.1511 113.68 58.7574 115.286 60.7331 116.293C62.9792 117.438 65.9195 117.438 71.8 117.438Z" stroke="#4D005B" stroke-width="3" stroke-linecap="round" stroke-linejoin="round"/>
<rect x="105" y="95.9727" width="29.29" height="29.29" rx="14.645" fill="#9200AD"/>
<path d="M126.706 105.322L116.998 115.031L112.585 110.618" stroke="white" stroke-width="2" stroke-linecap="round" stroke-linejoin="round"/>
</svg>
