<svg width="156" height="45" viewBox="0 0 156 45" fill="none" xmlns="http://www.w3.org/2000/svg">
<path d="M25.6927 37.7105C29.8257 37.4187 33.9034 36.5918 37.8241 35.2505C41.9858 33.8408 45.9257 31.845 49.5254 29.3233C52.0537 27.6839 54.289 25.6309 56.1379 23.25C57.6215 21.2746 58.7898 19.0805 59.6009 16.7461C59.716 18.5126 59.4679 20.284 58.8719 21.9507C58.624 22.6807 57.9606 24.6004 54.5413 27.7393C52.1132 29.9372 49.3922 31.787 46.4561 33.2359C42.9837 34.9501 39.2876 36.1665 35.4766 36.8492C32.2421 37.4789 28.9509 37.77 25.6562 37.7178L25.6927 37.7105Z" fill="#088543"/>
<path d="M65.1875 15.906V23.4757H68.1037V18.7966H78.3688V23.4757H81.285V11.2051H69.8899C68.6447 11.2051 67.4505 11.7004 66.5699 12.5819C65.6894 13.4635 65.1948 14.6592 65.1948 15.906H65.1875ZM68.1037 15.906C68.1037 15.4375 68.2896 14.9882 68.6205 14.6569C68.9513 14.3256 69.4001 14.1395 69.868 14.1395H78.3688V15.906H68.1037Z" fill="#088543"/>
<path d="M83.5698 15.1093V23.3579H86.6318V18.7445H97.6915V15.6349H86.6318C86.6318 15.2787 86.7731 14.9371 87.0247 14.6852C87.2763 14.4333 87.6175 14.2918 87.9733 14.2918H98.581V11.1895H87.4629C86.4291 11.1914 85.4381 11.6035 84.707 12.3354C83.976 13.0674 83.5644 14.0596 83.5625 15.0947L83.5698 15.1093Z" fill="#088543"/>
<path d="M104.255 14.2918H114.87V11.1895H103.752C102.718 11.1914 101.727 11.6035 100.996 12.3354C100.265 13.0674 99.8535 14.0596 99.8516 15.0947V23.3579H114.87V20.7227H102.884V18.7445H113.93V15.6422H102.884C102.883 15.4631 102.918 15.2855 102.987 15.1202C103.056 14.9548 103.157 14.805 103.285 14.6797C103.413 14.5544 103.565 14.4561 103.732 14.3907C103.898 14.3254 104.076 14.2942 104.255 14.2991V14.2918Z" fill="#088543"/>
<path d="M144.677 14.2918H155.292V11.1895H144.174C143.14 11.1914 142.149 11.6035 141.418 12.3354C140.687 13.0674 140.275 14.0596 140.273 15.0947V23.3579H155.292V20.7227H143.343V18.7445H154.388V15.6422H143.343C143.342 15.4662 143.376 15.2917 143.442 15.1288C143.509 14.9658 143.607 14.8177 143.731 14.6929C143.855 14.5681 144.002 14.469 144.165 14.4015C144.327 14.3339 144.501 14.2991 144.677 14.2991V14.2918Z" fill="#088543"/>
<path d="M127.862 15.3281H124.945V23.3577H127.862V15.3281Z" fill="#088543"/>
<path d="M133.037 12.6865C132.79 12.2577 132.438 11.8988 132.015 11.6434C131.591 11.388 131.11 11.2446 130.616 11.2266H117.289V23.3585H120.205V14.1245H130.499L135.603 23.2782L138.92 23.3293L133.088 12.6938L133.037 12.6865Z" fill="#088543"/>
<path d="M69.4062 31.5333L70.2228 28.3652H71.0758L71.8923 31.5333H71.2945L71.1341 30.8544H70.1426L69.9895 31.5333H69.4062ZM70.2228 30.4237H71.0466L70.6529 28.7886L70.2447 30.4237H70.2228Z" fill="#0457A4"/>
<path d="M72.4573 31.5041C72.395 31.4871 72.3376 31.4559 72.2895 31.4128C72.2414 31.3697 72.204 31.316 72.1802 31.2559C72.1214 31.0798 72.0966 30.894 72.1073 30.7085V30.5406H72.625V30.6574C72.6098 30.7517 72.6098 30.8478 72.625 30.9421C72.6348 30.972 72.652 30.9991 72.6749 31.0208C72.6978 31.0424 72.7257 31.058 72.7562 31.0662C72.8575 31.0979 72.9638 31.1103 73.0697 31.1027H73.1426C73.2413 31.1104 73.3405 31.098 73.4342 31.0662C73.4628 31.0583 73.489 31.0435 73.5106 31.0231C73.5322 31.0028 73.5485 30.9775 73.5581 30.9494C73.5728 30.8599 73.5728 30.7687 73.5581 30.6793V30.5771C73.5671 30.4942 73.5519 30.4106 73.5144 30.3362C73.4762 30.2751 73.4163 30.2307 73.3467 30.2121C73.211 30.1691 73.072 30.1373 72.9312 30.1172C72.7394 30.0965 72.5522 30.0448 72.3771 29.9639C72.2652 29.9095 72.1771 29.816 72.1292 29.7011C72.0737 29.5494 72.0489 29.3881 72.0563 29.2267V29.1318C72.0472 28.9665 72.0771 28.8015 72.1438 28.65C72.1705 28.5918 72.2089 28.5398 72.2565 28.4971C72.3042 28.4544 72.3601 28.422 72.4208 28.4018C72.594 28.3413 72.777 28.3141 72.9603 28.3215H73.0624C73.2714 28.3148 73.4803 28.3394 73.6821 28.3945C73.7429 28.4122 73.7992 28.4429 73.847 28.4845C73.8949 28.5261 73.9331 28.5776 73.9591 28.6354C74.0165 28.7993 74.0413 28.9729 74.032 29.1464V29.2924H73.5217V29.1975C73.5367 29.113 73.5367 29.0265 73.5217 28.942C73.5111 28.9145 73.4944 28.8897 73.473 28.8695C73.4515 28.8493 73.4258 28.8341 73.3977 28.8252C73.306 28.8099 73.2124 28.8099 73.1207 28.8252H73.0478C72.961 28.8102 72.8722 28.8102 72.7853 28.8252C72.7575 28.8324 72.7318 28.846 72.7103 28.8651C72.6887 28.8841 72.672 28.9079 72.6614 28.9347C72.6473 29.0119 72.6473 29.091 72.6614 29.1683V29.2486C72.6437 29.323 72.6437 29.4005 72.6614 29.4748C72.7007 29.5365 72.7599 29.5828 72.8291 29.6062C72.9553 29.6459 73.0845 29.6752 73.2155 29.6938C73.4165 29.7152 73.6131 29.7669 73.7987 29.8471C73.9131 29.9029 74.0055 29.9954 74.0612 30.1099C74.1139 30.2573 74.1386 30.4133 74.1341 30.5698V30.6574C74.144 30.8488 74.1142 31.0402 74.0466 31.2195C74.0224 31.2808 73.985 31.3362 73.9371 31.3816C73.8893 31.4269 73.8321 31.4613 73.7696 31.4822C73.5832 31.5395 73.3884 31.5642 73.1936 31.5552H73.0843C72.8612 31.5634 72.638 31.5413 72.4208 31.4895L72.4573 31.5041Z" fill="#0457A4"/>
<path d="M74.95 31.4604C74.8738 31.425 74.8063 31.3734 74.7521 31.309C74.698 31.2447 74.6585 31.1693 74.6365 31.0881C74.5744 30.8203 74.5474 30.5454 74.5563 30.2706V29.6063C74.548 29.3411 74.5749 29.076 74.6365 28.818C74.6605 28.7368 74.7007 28.6614 74.7546 28.5961C74.8084 28.5309 74.8749 28.4772 74.95 28.4384C75.1831 28.3526 75.4312 28.3153 75.6791 28.3289H75.7666C76.0145 28.3153 76.2626 28.3526 76.4956 28.4384C76.5713 28.4765 76.6382 28.53 76.6921 28.5953C76.7461 28.6606 76.7859 28.7364 76.8091 28.818C76.8707 29.076 76.8977 29.3411 76.8893 29.6063V30.2706C76.8977 30.5454 76.8708 30.8202 76.8091 31.0881C76.7858 31.1687 76.7459 31.2435 76.6919 31.3076C76.6379 31.3718 76.571 31.4238 76.4956 31.4604C76.2641 31.5518 76.0147 31.5893 75.7666 31.5699H75.6864C75.4382 31.5893 75.1889 31.5518 74.9573 31.4604H74.95ZM75.7301 31.1027C75.8425 31.1089 75.9548 31.0889 76.0582 31.0444C76.0961 31.0187 76.128 30.9852 76.1519 30.9462C76.1758 30.9072 76.1911 30.8635 76.1967 30.8181C76.2125 30.6481 76.2125 30.4771 76.1967 30.3071V29.5771C76.2123 29.412 76.2123 29.2459 76.1967 29.0808C76.1893 29.0369 76.1732 28.9949 76.1494 28.9573C76.1256 28.9198 76.0946 28.8873 76.0582 28.8618C75.9548 28.8172 75.8425 28.7972 75.7301 28.8034H75.6499C75.5352 28.7974 75.4206 28.8174 75.3146 28.8618C75.2766 28.8855 75.2444 28.9176 75.2204 28.9555C75.1964 28.9934 75.1813 29.0362 75.176 29.0808C75.1409 29.2438 75.1262 29.4105 75.1323 29.5771V30.3071C75.1264 30.4786 75.1411 30.6501 75.176 30.8181C75.1812 30.8636 75.1963 30.9075 75.2202 30.9466C75.2442 30.9857 75.2764 31.0191 75.3146 31.0444C75.418 31.0889 75.5302 31.1089 75.6426 31.1027H75.7301Z" fill="#0457A4"/>
<path d="M77.5918 31.4682C77.5179 31.4335 77.4528 31.3827 77.401 31.3196C77.3493 31.2564 77.3124 31.1825 77.2929 31.1032C77.2308 30.8328 77.2039 30.5556 77.2127 30.2783V29.6068C77.2035 29.3416 77.2305 29.0763 77.2929 28.8184C77.3131 28.7375 77.3511 28.6621 77.4041 28.5977C77.457 28.5333 77.5237 28.4816 77.5991 28.4461C77.8144 28.3606 78.0458 28.3232 78.2771 28.3366H78.3427C78.5595 28.3287 78.7761 28.3559 78.9843 28.4169C79.0516 28.438 79.1133 28.4738 79.165 28.5218C79.2168 28.5698 79.2571 28.6287 79.2832 28.6943C79.347 28.8795 79.3742 29.0754 79.3634 29.271V29.417H78.8166V29.2929C78.8357 29.1916 78.8357 29.0876 78.8166 28.9863C78.8076 28.9526 78.7911 28.9213 78.7684 28.8947C78.7457 28.8682 78.7173 28.8471 78.6854 28.833C78.5887 28.818 78.4904 28.818 78.3937 28.833H78.3354C78.2236 28.8246 78.1113 28.842 78.0073 28.8841C77.9695 28.9063 77.9373 28.937 77.9133 28.9737C77.8893 29.0104 77.8741 29.0522 77.8688 29.0958C77.8405 29.2621 77.8283 29.4308 77.8324 29.5995V30.3294C77.8287 30.5054 77.8409 30.6813 77.8688 30.855C77.8732 30.8979 77.8874 30.9393 77.9101 30.976C77.9328 31.0127 77.9636 31.0437 78.0001 31.0667C78.104 31.1088 78.2163 31.1262 78.3281 31.1178H78.3937C78.4928 31.1333 78.5936 31.1333 78.6927 31.1178C78.725 31.1064 78.754 31.0871 78.7769 31.0616C78.7999 31.0361 78.816 31.0052 78.8239 30.9718C78.8583 30.8609 78.8731 30.7448 78.8676 30.6287V30.5046H79.4144V30.6579C79.4241 30.8636 79.3944 31.0693 79.3269 31.2638C79.2988 31.3281 79.2578 31.3859 79.2063 31.4336C79.1549 31.4814 79.0942 31.518 79.028 31.5412C78.8175 31.6027 78.5984 31.6298 78.3792 31.6215H78.3136C78.0799 31.6355 77.846 31.5981 77.6282 31.512L77.5918 31.4682Z" fill="#0457A4"/>
<path d="M79.8203 31.5333V28.3652H80.3963V31.5333H79.8203Z" fill="#0457A4"/>
<path d="M80.6797 31.5333L81.4962 28.3652H82.3857L83.1949 31.5333H82.5971L82.4367 30.8544H81.4452L81.2848 31.5333H80.6797ZM81.4962 30.4237H82.3273L81.9264 28.7886L81.5181 30.4237H81.4962Z" fill="#0457A4"/>
<path d="M83.757 31.4684C83.684 31.4325 83.6195 31.3813 83.568 31.3184C83.5164 31.2554 83.4789 31.1821 83.458 31.1034C83.3992 30.8326 83.3748 30.5555 83.3851 30.2785V29.607C83.3747 29.3421 83.3992 29.0771 83.458 28.8186C83.4809 28.7389 83.5199 28.6647 83.5726 28.6007C83.6252 28.5366 83.6905 28.4841 83.7642 28.4464C83.982 28.3602 84.2159 28.3228 84.4496 28.3369H84.5152C84.7296 28.3288 84.9438 28.356 85.1495 28.4172C85.2167 28.4382 85.2785 28.474 85.3302 28.522C85.3819 28.57 85.4223 28.629 85.4484 28.6945C85.516 28.8789 85.5457 29.075 85.5358 29.2712V29.4172H84.9818V29.2931C84.9964 29.1914 84.9964 29.0882 84.9818 28.9865C84.9702 28.9529 84.952 28.922 84.9282 28.8957C84.9044 28.8693 84.8755 28.8481 84.8433 28.8332C84.7467 28.8176 84.6482 28.8176 84.5516 28.8332H84.5006C84.3863 28.8236 84.2715 28.8411 84.1652 28.8843C84.1284 28.9077 84.097 28.9387 84.0731 28.9752C84.0492 29.0117 84.0334 29.0529 84.0267 29.096C84.0115 29.2636 84.0115 29.4321 84.0267 29.5997V30.3296C84.0117 30.5045 84.0117 30.6803 84.0267 30.8552C84.0325 30.8986 84.0479 30.9402 84.0719 30.9769C84.0959 31.0135 84.1278 31.0443 84.1652 31.0669C84.2688 31.1106 84.3814 31.1281 84.4933 31.118H84.5516C84.6507 31.1335 84.7515 31.1335 84.8505 31.118C84.883 31.1056 84.9123 31.086 84.9363 31.0607C84.9603 31.0355 84.9783 31.0051 84.9891 30.972C85.0045 30.8582 85.0045 30.7428 84.9891 30.6289V30.5048H85.5358V30.6581C85.5456 30.8638 85.5159 31.0695 85.4484 31.264C85.4214 31.3291 85.3808 31.3875 85.3292 31.4354C85.2776 31.4833 85.2163 31.5194 85.1495 31.5414C84.9413 31.6025 84.7247 31.6296 84.5079 31.6217H84.4423C84.1941 31.641 83.9448 31.6036 83.7132 31.5122L83.757 31.4684Z" fill="#0457A4"/>
<path d="M85.9766 31.5333V28.3652H86.5525V31.5333H85.9766Z" fill="#0457A4"/>
<path d="M87.4032 31.4605C87.327 31.4251 87.2594 31.3734 87.2052 31.3091C87.1511 31.2448 87.1116 31.1694 87.0897 31.0882C87.0275 30.8204 87.0006 30.5455 87.0095 30.2707V29.6064C87.0011 29.3412 87.0281 29.0761 87.0897 28.818C87.1129 28.7375 87.1529 28.6627 87.2069 28.5985C87.2609 28.5344 87.3278 28.4824 87.4032 28.4458C87.6352 28.356 87.8841 28.3187 88.1322 28.3363H88.2124C88.4605 28.3187 88.7094 28.356 88.9415 28.4458C89.0177 28.4812 89.0852 28.5328 89.1394 28.5972C89.1935 28.6615 89.233 28.7369 89.255 28.818C89.3166 29.0761 89.3435 29.3412 89.3352 29.6064V30.2707C89.3436 30.5455 89.3166 30.8203 89.255 31.0882C89.2321 31.168 89.1931 31.2421 89.1404 31.3062C89.0878 31.3702 89.0225 31.4227 88.9488 31.4605C88.7166 31.5498 88.4678 31.5871 88.2197 31.57H88.1395C87.9035 31.5839 87.6672 31.5466 87.4469 31.4605H87.4032ZM88.1832 31.1028C88.2956 31.109 88.4079 31.089 88.5113 31.0444C88.5492 31.0188 88.5811 30.9853 88.605 30.9463C88.6289 30.9072 88.6442 30.8636 88.6498 30.8181C88.6777 30.6493 88.69 30.4783 88.6863 30.3072V29.5772C88.6898 29.411 88.6776 29.2448 88.6498 29.0808C88.6431 29.0377 88.6273 28.9965 88.6034 28.96C88.5795 28.9235 88.5481 28.8925 88.5113 28.8691C88.4087 28.8221 88.2958 28.802 88.1832 28.8108H88.1031C87.9881 28.801 87.8726 28.8211 87.7677 28.8691C87.7309 28.8925 87.6995 28.9235 87.6756 28.96C87.6517 28.9965 87.6359 29.0377 87.6292 29.0808C87.5941 29.2438 87.5794 29.4106 87.5854 29.5772V30.3072C87.5796 30.4786 87.5942 30.6502 87.6292 30.8181C87.6357 30.8633 87.6513 30.9067 87.6751 30.9456C87.699 30.9845 87.7305 31.0181 87.7677 31.0444C87.8711 31.089 87.9834 31.109 88.0958 31.1028H88.2124H88.1832ZM87.7896 28.1246L87.6875 27.9275L88.4749 27.4238L88.6571 27.7815L87.7896 28.1246Z" fill="#0457A4"/>
<path d="M89.7344 31.5333V28.3652H90.5728L91.6007 31.0223V28.3652H92.1257V31.5333H91.2945L90.2666 28.8689V31.5333H89.7635H89.7344Z" fill="#0457A4"/>
<path d="M93.6172 28.367H94.6816C94.9282 28.3572 95.1747 28.3893 95.4107 28.4618C95.4892 28.4893 95.5603 28.5345 95.6185 28.594C95.6767 28.6536 95.7203 28.7257 95.746 28.8049C95.8227 29.0628 95.8548 29.3319 95.8408 29.6006V30.2794C95.8501 30.5543 95.8232 30.8292 95.7606 31.097C95.7355 31.1751 95.6938 31.2468 95.6385 31.3073C95.5831 31.3678 95.5153 31.4156 95.4398 31.4474C95.2026 31.5134 94.9568 31.543 94.7108 31.535H93.6536V28.367H93.6172ZM94.6816 31.0897C94.8147 31.0938 94.9476 31.0766 95.0753 31.0386C95.1159 31.0172 95.1512 30.9872 95.179 30.9506C95.2067 30.914 95.226 30.8718 95.2357 30.8269C95.2642 30.6557 95.2764 30.4822 95.2721 30.3086V29.5787C95.2787 29.4145 95.264 29.2501 95.2284 29.0896C95.2192 29.0455 95.2 29.004 95.1722 28.9686C95.1443 28.9331 95.1087 28.9046 95.068 28.8852C94.9412 28.8431 94.8076 28.8258 94.6743 28.8341H94.1931V31.1043H94.6816V31.0897Z" fill="#0457A4"/>
<path d="M96.3125 31.5333V28.3652H98.0404V28.8178H96.8884V29.6865H97.9602V30.1171H96.8884V31.0807H98.0695V31.5333H96.3125Z" fill="#0457A4"/>
<path d="M99.4531 31.5333V28.3652H101.137V28.8324H100.029V29.8179H101.057V30.2704H100.029V31.5406H99.4531V31.5333Z" fill="#0457A4"/>
<path d="M101.055 31.5333L101.871 28.3652H102.732L103.526 31.5333H102.928L102.775 30.8544H101.776L101.616 31.5333H101.055ZM101.871 30.4237H102.702L102.301 28.7886L101.893 30.4237H101.871Z" fill="#0457A4"/>
<path d="M104.133 31.4681C104.06 31.433 103.996 31.382 103.945 31.3189C103.895 31.2557 103.859 31.182 103.841 31.1032C103.775 30.8334 103.748 30.5557 103.761 30.2783V29.6067C103.748 29.3414 103.775 29.0757 103.841 28.8184C103.861 28.7386 103.899 28.664 103.95 28.5998C104.002 28.5356 104.066 28.4832 104.14 28.4461C104.358 28.3607 104.592 28.3233 104.825 28.3366H104.891C105.105 28.3286 105.319 28.3557 105.525 28.4169C105.592 28.438 105.654 28.4738 105.706 28.5218C105.758 28.5698 105.798 28.6287 105.824 28.6943C105.892 28.8787 105.921 29.0748 105.912 29.271V29.417H105.357V29.2929C105.372 29.1912 105.372 29.0879 105.357 28.9863C105.334 28.9205 105.288 28.8658 105.226 28.833C105.127 28.818 105.026 28.818 104.927 28.833H104.876C104.762 28.8234 104.647 28.8409 104.541 28.8841C104.504 28.9075 104.473 28.9384 104.449 28.9749C104.425 29.0115 104.409 29.0526 104.402 29.0958C104.387 29.2633 104.387 29.4319 104.402 29.5994V30.3294C104.387 30.5043 104.387 30.6801 104.402 30.855C104.408 30.8984 104.424 30.94 104.448 30.9766C104.472 31.0133 104.503 31.044 104.541 31.0667C104.645 31.1087 104.757 31.1262 104.869 31.1178H104.927C105.026 31.1338 105.127 31.1338 105.226 31.1178C105.259 31.1053 105.288 31.0857 105.312 31.0605C105.336 31.0352 105.354 31.0049 105.365 30.9718C105.392 30.8596 105.405 30.7442 105.401 30.6287V30.5046H105.948V30.6579C105.958 30.8636 105.928 31.0692 105.86 31.2637C105.834 31.3288 105.793 31.3873 105.741 31.4351C105.69 31.483 105.628 31.5192 105.562 31.5411C105.353 31.6022 105.137 31.6293 104.92 31.6214H104.854C104.618 31.6353 104.382 31.598 104.162 31.5119L104.133 31.4681Z" fill="#0457A4"/>
<path d="M106.717 31.4822C106.649 31.4537 106.588 31.411 106.537 31.3568C106.487 31.3027 106.449 31.2384 106.425 31.1683C106.357 30.9463 106.328 30.7142 106.338 30.4821V28.3652H106.914V30.504C106.898 30.6325 106.898 30.7624 106.914 30.8909C106.92 30.9275 106.936 30.962 106.959 30.9913C106.981 31.0206 107.011 31.0437 107.045 31.0588C107.142 31.0998 107.247 31.1173 107.351 31.1099H107.424C107.529 31.1173 107.634 31.0998 107.73 31.0588C107.764 31.0437 107.794 31.0206 107.817 30.9913C107.84 30.962 107.855 30.9275 107.862 30.8909C107.896 30.765 107.911 30.6345 107.905 30.504V28.3652H108.474V30.4821C108.482 30.7136 108.455 30.945 108.394 31.1683C108.37 31.2393 108.331 31.3043 108.279 31.3585C108.228 31.4128 108.165 31.455 108.095 31.4822C107.878 31.5512 107.651 31.5809 107.424 31.5698H107.344C107.119 31.5805 106.895 31.5508 106.681 31.4822H106.717Z" fill="#0457A4"/>
<path d="M109.016 31.5333V28.3652H109.584V31.0807H110.612V31.5333H109.016Z" fill="#0457A4"/>
<path d="M111.096 31.5333V28.8251H110.367V28.3652H112.394V28.8251H111.665V31.5333H111.096Z" fill="#0457A4"/>
<path d="M112.219 31.5333L113.006 28.3652H113.859L114.676 31.5333H114.078L113.917 30.8544H112.926L112.766 31.5333H112.219ZM113.006 30.4237H113.837L113.436 28.7886L113.006 30.4237Z" fill="#0457A4"/>
<path d="M114.992 28.3664H116.049C116.296 28.3586 116.542 28.3906 116.778 28.4613C116.855 28.4901 116.925 28.5359 116.981 28.5953C117.038 28.6547 117.081 28.7262 117.106 28.8043C117.183 29.0622 117.215 29.3313 117.201 29.6V30.2789C117.214 30.5538 117.187 30.8292 117.121 31.0964C117.098 31.1757 117.057 31.2486 117.002 31.3094C116.946 31.3702 116.877 31.4172 116.8 31.4468C116.563 31.5132 116.317 31.5427 116.071 31.5344H115.007V28.3664H114.992ZM116.049 31.0891C116.182 31.0938 116.315 31.0765 116.443 31.038C116.485 31.018 116.521 30.9883 116.549 30.9515C116.577 30.9147 116.595 30.8718 116.603 30.8263C116.639 30.656 116.654 30.482 116.647 30.3081V29.5781C116.656 29.4134 116.639 29.2483 116.596 29.089C116.587 29.0449 116.568 29.0034 116.54 28.968C116.512 28.9325 116.476 28.904 116.436 28.8846C116.309 28.8425 116.175 28.8252 116.042 28.8335H115.561V31.1037H116.049V31.0891Z" fill="#0457A4"/>
<path d="M117.695 31.5333V28.3652H119.423V28.8178H118.264V29.6865H119.336V30.1171H118.264V31.0807H119.445V31.5333H117.695Z" fill="#0457A4"/>
<path d="M120.11 31.5058C120.048 31.4878 119.991 31.4562 119.944 31.4132C119.896 31.3703 119.858 31.3171 119.833 31.2576C119.774 31.0814 119.75 30.8956 119.76 30.7102V30.5423H120.292V30.6591C120.289 30.7553 120.302 30.8514 120.329 30.9437C120.34 30.9743 120.358 31.0015 120.383 31.0232C120.407 31.0448 120.436 31.0602 120.467 31.0678C120.566 31.1003 120.67 31.1127 120.774 31.1043H120.854C120.95 31.1111 121.047 31.0987 121.138 31.0678C121.167 31.0599 121.193 31.0452 121.215 31.0248C121.236 31.0045 121.252 30.9791 121.262 30.951C121.277 30.8616 121.277 30.7704 121.262 30.681V30.5788C121.268 30.4961 121.252 30.4134 121.218 30.3379C121.179 30.2781 121.119 30.2342 121.051 30.2138C120.913 30.1701 120.771 30.1384 120.628 30.1189C120.439 30.0974 120.254 30.0457 120.081 29.9656C119.969 29.9095 119.879 29.8168 119.826 29.7028C119.777 29.5496 119.755 29.3891 119.76 29.2283V29.1334C119.753 28.969 119.78 28.8049 119.84 28.6517C119.897 28.5356 119.996 28.4464 120.117 28.4035C120.293 28.3441 120.479 28.3169 120.664 28.3232H120.766C120.975 28.317 121.184 28.3416 121.386 28.3962C121.446 28.4151 121.502 28.4463 121.55 28.4877C121.597 28.5292 121.636 28.58 121.663 28.6371C121.721 28.801 121.745 28.9746 121.736 29.148V29.294H121.218V29.1991C121.233 29.1146 121.233 29.0282 121.218 28.9437C121.193 28.8909 121.149 28.8494 121.094 28.8269C121.003 28.8121 120.909 28.8121 120.817 28.8269H120.737C120.65 28.8126 120.562 28.8126 120.475 28.8269C120.447 28.8333 120.422 28.8468 120.402 28.866C120.381 28.8852 120.366 28.9095 120.358 28.9364C120.343 29.0135 120.343 29.0928 120.358 29.1699V29.2502C120.354 29.3281 120.369 29.4058 120.402 29.4765C120.438 29.5381 120.495 29.5847 120.562 29.6079C120.691 29.6474 120.823 29.6767 120.956 29.6955C121.155 29.7156 121.349 29.7674 121.532 29.8488C121.649 29.9003 121.743 29.9941 121.794 30.1116C121.851 30.2581 121.875 30.4148 121.867 30.5715V30.6591C121.879 30.8499 121.852 31.0412 121.787 31.2211C121.763 31.2825 121.725 31.3378 121.678 31.3832C121.63 31.4286 121.572 31.463 121.51 31.4839C121.321 31.541 121.124 31.5657 120.927 31.5569H120.825C120.602 31.566 120.378 31.5439 120.161 31.4912L120.11 31.5058Z" fill="#0457A4"/>
<path d="M123.266 31.5333V28.3652H124.986V28.8178H123.834V29.6865H124.906V30.1171H123.834V31.0807H125.015V31.5333H123.266Z" fill="#0457A4"/>
<path d="M125.717 31.4679C125.642 31.4346 125.576 31.3843 125.524 31.3209C125.472 31.2575 125.436 31.1829 125.418 31.1029C125.355 30.8326 125.328 30.5553 125.338 30.2781V29.6065C125.329 29.3413 125.356 29.0761 125.418 28.8182C125.438 28.7383 125.475 28.6638 125.527 28.5996C125.579 28.5354 125.643 28.4829 125.717 28.4459C125.935 28.3611 126.169 28.3238 126.402 28.3364H126.468C126.685 28.3285 126.901 28.3556 127.109 28.4167C127.176 28.4386 127.237 28.4748 127.289 28.5227C127.341 28.5705 127.381 28.629 127.408 28.6941C127.468 28.8801 127.496 29.0753 127.488 29.2707V29.4167H126.942V29.2926C126.945 29.1892 126.933 29.0858 126.905 28.986C126.896 28.9523 126.88 28.921 126.857 28.8945C126.834 28.8679 126.806 28.8469 126.774 28.8328C126.675 28.8177 126.574 28.8177 126.475 28.8328H126.424C126.31 28.8252 126.195 28.8426 126.089 28.8839C126.053 28.9076 126.023 28.9388 126 28.9754C125.977 29.0119 125.963 29.0529 125.957 29.0955C125.925 29.2614 125.913 29.4305 125.921 29.5992V30.3292C125.913 30.5052 125.926 30.6815 125.957 30.8547C125.962 30.8977 125.976 30.939 125.999 30.9757C126.021 31.0124 126.052 31.0434 126.089 31.0664C126.193 31.1085 126.305 31.126 126.417 31.1175H126.475C126.577 31.1329 126.68 31.1329 126.781 31.1175C126.813 31.1051 126.841 31.0854 126.864 31.0601C126.887 31.0347 126.903 31.0044 126.912 30.9715C126.928 30.8577 126.928 30.7423 126.912 30.6285V30.5044H127.459V30.6577C127.471 30.8629 127.444 31.0684 127.379 31.2635C127.351 31.3288 127.308 31.3873 127.256 31.4351C127.203 31.4829 127.141 31.519 127.073 31.5409C126.865 31.6025 126.648 31.6296 126.431 31.6212H126.366C126.132 31.6359 125.898 31.5985 125.68 31.5117L125.717 31.4679Z" fill="#0457A4"/>
<path d="M128.312 31.4822C128.243 31.4537 128.18 31.4111 128.129 31.357C128.077 31.303 128.038 31.2387 128.013 31.1683C127.948 30.9457 127.92 30.7137 127.932 30.4821V28.3652H128.501V30.504C128.485 30.6325 128.485 30.7624 128.501 30.8909C128.51 30.9274 128.528 30.9613 128.552 30.9904C128.576 31.0194 128.606 31.0427 128.64 31.0588C128.736 31.1007 128.841 31.1182 128.946 31.1099H129.041C129.148 31.1161 129.255 31.0987 129.354 31.0588C129.387 31.0423 129.416 31.0187 129.439 30.9897C129.461 30.9606 129.477 30.9269 129.485 30.8909C129.513 30.7639 129.525 30.634 129.522 30.504V28.3652H130.09V30.4821C130.103 30.7137 130.075 30.9457 130.01 31.1683C129.988 31.2401 129.949 31.3058 129.897 31.3602C129.846 31.4146 129.782 31.4564 129.711 31.4822C129.497 31.5513 129.273 31.581 129.048 31.5698H128.968C128.741 31.5803 128.514 31.5506 128.297 31.4822H128.312Z" fill="#0457A4"/>
<path d="M130.297 31.5333L131.106 28.3652H131.959L132.768 31.5333H132.171L132.017 30.8544H131.026L130.858 31.5333H130.297ZM131.106 30.4237H131.959L131.565 28.7886L131.157 30.4237H131.106Z" fill="#0457A4"/>
<path d="M133.338 31.5333V28.8251H132.609V28.3652H134.636V28.8251H133.907V31.5333H133.338Z" fill="#0457A4"/>
<path d="M135.177 31.4622C135.101 31.4277 135.034 31.3762 134.981 31.3117C134.928 31.2471 134.89 31.1713 134.871 31.09C134.802 30.8232 134.773 30.5477 134.783 30.2724V29.6081C134.773 29.3425 134.803 29.0767 134.871 28.8198C134.894 28.7391 134.933 28.6638 134.985 28.5986C135.038 28.5334 135.103 28.4795 135.177 28.4402C135.41 28.3548 135.658 28.3175 135.906 28.3307H135.986C136.222 28.3212 136.458 28.3584 136.679 28.4402C136.755 28.4783 136.822 28.5318 136.875 28.5971C136.929 28.6624 136.969 28.7383 136.992 28.8198C137.058 29.0772 137.085 29.3428 137.073 29.6081V30.2724C137.085 30.5473 137.058 30.8226 136.992 31.09C136.97 31.1697 136.931 31.2439 136.878 31.3079C136.825 31.372 136.76 31.4245 136.686 31.4622C136.454 31.5515 136.205 31.5889 135.957 31.5717H135.877C135.641 31.5856 135.405 31.5483 135.184 31.4622H135.177ZM135.957 31.1046C136.07 31.1107 136.182 31.0907 136.285 31.0462C136.323 31.0205 136.355 30.987 136.379 30.948C136.403 30.909 136.418 30.8653 136.424 30.8199C136.455 30.6515 136.468 30.4801 136.46 30.3089V29.5789C136.468 29.4126 136.455 29.246 136.424 29.0826C136.416 29.0387 136.4 28.9968 136.377 28.9592C136.353 28.9216 136.322 28.8891 136.285 28.8636C136.182 28.819 136.07 28.799 135.957 28.8052H135.877C135.765 28.799 135.652 28.819 135.549 28.8636C135.51 28.887 135.477 28.9187 135.451 28.9566C135.426 28.9945 135.41 29.0375 135.403 29.0826C135.387 29.2476 135.387 29.4139 135.403 29.5789V30.3089C135.387 30.4789 135.387 30.6499 135.403 30.8199C135.41 30.865 135.425 30.9084 135.449 30.9473C135.473 30.9862 135.504 31.0198 135.542 31.0462C135.648 31.0906 135.762 31.1105 135.877 31.1046H135.957Z" fill="#0457A4"/>
<path d="M137.506 28.3656H138.585C138.792 28.3551 138.999 28.3798 139.197 28.4386C139.259 28.4579 139.317 28.4908 139.365 28.535C139.412 28.5792 139.45 28.6336 139.474 28.6941C139.536 28.8721 139.564 29.0605 139.554 29.2489V29.3584C139.558 29.496 139.543 29.6335 139.511 29.7672C139.488 29.8573 139.443 29.9402 139.379 30.0081C139.312 30.0631 139.232 30.1007 139.146 30.1175C139.24 30.1301 139.328 30.168 139.401 30.227C139.464 30.2962 139.505 30.3827 139.518 30.4752C139.537 30.6377 139.537 30.8018 139.518 30.9643V31.5191H138.957V31.0154C138.965 30.8708 138.952 30.7259 138.92 30.5847C138.913 30.5485 138.897 30.5146 138.874 30.4854C138.851 30.4563 138.822 30.4329 138.789 30.4168C138.683 30.3816 138.572 30.3668 138.461 30.373H138.038V31.5337H137.477V28.3656H137.506ZM138.592 29.9278C138.671 29.9459 138.753 29.9459 138.833 29.9278C138.862 29.9144 138.888 29.8952 138.909 29.8713C138.93 29.8474 138.946 29.8195 138.957 29.7891C138.983 29.6966 138.996 29.6006 138.993 29.5044V29.2927C138.996 29.1892 138.984 29.0859 138.957 28.9861C138.945 28.9555 138.927 28.9274 138.905 28.9036C138.882 28.8798 138.855 28.8607 138.825 28.8474C138.721 28.8328 138.616 28.8328 138.512 28.8474H138.074V29.9278H138.592Z" fill="#0457A4"/>
<path d="M140.039 31.5333V28.3652H140.608V31.5333H140.039Z" fill="#0457A4"/>
<path d="M140.906 31.5333L141.723 28.3652H142.576L143.392 31.5333H142.787L142.634 30.8544H141.643L141.475 31.5333H140.906ZM141.723 30.4237H142.547L142.168 28.7886L141.759 30.4237H141.723Z" fill="#0457A4"/>
<path d="M143.672 31.5333V28.3652H144.518L145.538 31.0223V28.3652H146.056V31.5333H145.232L144.204 28.8689V31.5333H143.672Z" fill="#0457A4"/>
<path d="M146.336 31.5333L147.152 28.3652H147.998L148.815 31.5333H148.217L148.057 30.8544H147.065L146.905 31.5333H146.336ZM147.152 30.4237H147.998L147.597 28.7886L147.182 30.4237H147.152Z" fill="#0457A4"/>
<path d="M149.395 31.5058C149.333 31.4888 149.276 31.4575 149.228 31.4145C149.18 31.3714 149.142 31.3177 149.118 31.2576C149.06 31.0814 149.035 30.8956 149.046 30.7102V30.5423H149.563V30.6591C149.545 30.753 149.545 30.8498 149.563 30.9437C149.573 30.9737 149.59 31.0008 149.613 31.0224C149.636 31.0441 149.664 31.0597 149.694 31.0678C149.796 31.0996 149.902 31.112 150.008 31.1043H150.081C150.179 31.1121 150.279 31.0997 150.372 31.0678C150.401 31.0599 150.427 31.0452 150.449 31.0248C150.47 31.0045 150.487 30.9791 150.496 30.951C150.507 30.8614 150.507 30.7707 150.496 30.681V30.5788C150.502 30.4961 150.487 30.4134 150.453 30.3379C150.41 30.2781 150.348 30.2344 150.278 30.2138C150.142 30.1699 150.003 30.1382 149.862 30.1189C149.673 30.0974 149.488 30.0457 149.315 29.9656C149.203 29.9095 149.113 29.8168 149.06 29.7028C149.008 29.5505 148.985 29.3893 148.995 29.2283V29.1334C148.984 28.9688 149.011 28.8039 149.075 28.6517C149.101 28.5935 149.14 28.5415 149.187 28.4988C149.235 28.4561 149.291 28.4236 149.352 28.4035C149.528 28.3441 149.713 28.3169 149.899 28.3232H150.001C150.21 28.317 150.418 28.3416 150.62 28.3962C150.741 28.4367 150.84 28.5233 150.897 28.6371C150.952 28.8017 150.976 28.9747 150.97 29.148V29.294H150.453V29.1991C150.459 29.1123 150.447 29.0251 150.416 28.9437C150.406 28.9161 150.389 28.8914 150.367 28.8712C150.346 28.8509 150.32 28.8358 150.292 28.8269C150.201 28.8116 150.107 28.8116 150.015 28.8269H149.942C149.855 28.8119 149.767 28.8119 149.68 28.8269C149.653 28.8333 149.627 28.8468 149.607 28.866C149.586 28.8852 149.571 28.9095 149.563 28.9364C149.536 29.0112 149.524 29.0905 149.527 29.1699V29.2502C149.524 29.3273 149.537 29.4041 149.563 29.4765C149.602 29.5386 149.661 29.5851 149.731 29.6079C149.859 29.6483 149.991 29.6776 150.125 29.6955C150.323 29.7156 150.518 29.7674 150.701 29.8488C150.815 29.9045 150.907 29.9971 150.963 30.1116C151.019 30.2581 151.044 30.4148 151.036 30.5715V30.6591C151.044 30.8498 151.017 31.0403 150.956 31.2211C150.929 31.2823 150.89 31.3372 150.841 31.3824C150.792 31.4276 150.734 31.4622 150.671 31.4839C150.485 31.5417 150.29 31.5664 150.095 31.5569H149.986C149.765 31.5657 149.544 31.5436 149.33 31.4912L149.395 31.5058Z" fill="#0457A4"/>
<path d="M76.1406 33.2052H77.205C77.4512 33.1948 77.6974 33.2243 77.9341 33.2927C78.0118 33.3216 78.0822 33.3673 78.1402 33.4266C78.1982 33.486 78.2423 33.5574 78.2695 33.6358C78.346 33.8962 78.378 34.1677 78.3642 34.4388V35.1176C78.3757 35.393 78.3462 35.6685 78.2768 35.9352C78.2552 36.0142 78.2147 36.0867 78.1588 36.1465C78.1029 36.2063 78.0333 36.2515 77.956 36.2783C77.7202 36.3517 77.4736 36.3838 77.2269 36.3732H76.1698V33.2052H76.1406ZM77.1977 35.9279C77.3309 35.9325 77.4639 35.9153 77.5914 35.8768C77.6323 35.8558 77.668 35.8259 77.6957 35.7893C77.7235 35.7526 77.7427 35.7102 77.7518 35.6651C77.7869 35.4947 77.8016 35.3207 77.7956 35.1468V34.4169C77.8021 34.2527 77.7874 34.0883 77.7518 33.9278C77.7414 33.8832 77.7208 33.8415 77.6918 33.8061C77.6627 33.7706 77.6259 33.7424 77.5841 33.7234C77.4599 33.6812 77.3287 33.6638 77.1977 33.6723H76.7093V35.9425L77.1977 35.9279Z" fill="#0457A4"/>
<path d="M78.8359 36.3731V33.2051H80.5638V33.6577H79.4119V34.5263H80.4836V34.957H79.4119V35.9205H80.593V36.3731H78.8359Z" fill="#0457A4"/>
<path d="M82.2949 36.3078C82.2206 36.2719 82.1551 36.2199 82.1034 36.1555C82.0517 36.0911 82.015 36.0159 81.996 35.9355C81.9336 35.6652 81.9066 35.3879 81.9158 35.1106V34.4464C81.9076 34.1788 81.9345 33.9112 81.996 33.6507C82.0155 33.5714 82.0524 33.4975 82.1042 33.4343C82.1559 33.3711 82.2211 33.3204 82.2949 33.2857C82.513 33.2009 82.7466 33.1636 82.9802 33.1762H83.0459C83.2626 33.1689 83.4791 33.196 83.6874 33.2565C83.7536 33.2797 83.8143 33.3163 83.8657 33.364C83.9172 33.4118 83.9582 33.4696 83.9863 33.5339C84.0471 33.7198 84.0743 33.9151 84.0665 34.1106V34.2566H83.5197V34.1325C83.5345 34.0284 83.5345 33.9227 83.5197 33.8186C83.5098 33.7862 83.4929 33.7563 83.4702 33.7311C83.4475 33.7059 83.4197 33.6859 83.3885 33.6726C83.2927 33.6386 83.1911 33.6238 83.0896 33.6288H83.0386C82.9238 33.6228 82.8092 33.6428 82.7032 33.6872C82.6673 33.7116 82.6365 33.7428 82.6128 33.7791C82.589 33.8155 82.5726 33.8562 82.5647 33.8989C82.5495 34.0664 82.5495 34.235 82.5647 34.4026V35.1325C82.5494 35.3098 82.5494 35.4881 82.5647 35.6654C82.5726 35.7081 82.589 35.7488 82.6128 35.7851C82.6365 35.8215 82.6673 35.8527 82.7032 35.8771C82.8072 35.9191 82.9194 35.9366 83.0313 35.9282H83.0896C83.1929 35.9316 83.2962 35.9193 83.3958 35.8917C83.4262 35.8772 83.4535 35.8569 83.476 35.8318C83.4985 35.8068 83.5159 35.7775 83.527 35.7457C83.5424 35.6318 83.5424 35.5164 83.527 35.4026V35.2785H84.0738V35.4245C84.0843 35.6302 84.0546 35.836 83.9863 36.0304C83.9616 36.0976 83.9218 36.1582 83.87 36.2076C83.8182 36.2569 83.7557 36.2937 83.6874 36.315C83.4787 36.3731 83.2622 36.3977 83.0459 36.388H82.9802C82.7471 36.4044 82.5132 36.3695 82.2949 36.2859V36.3078Z" fill="#0457A4"/>
<path d="M84.5156 36.3731V33.2051H85.0843V36.3731H84.5156Z" fill="#0457A4"/>
<path d="M85.6016 36.3731V33.2051H87.3294V33.6577H86.1702V34.5263H87.2419V34.957H86.1702V35.9205H87.3513V36.3731H85.6016Z" fill="#0457A4"/>
<path d="M87.7333 36.3731V33.2051H88.579L89.5997 35.8621L89.5633 33.2051H90.0809V36.3731H89.2571L88.2291 33.7014V36.3731H87.7188H87.7333Z" fill="#0457A4"/>
<path d="M90.9435 36.3082C90.87 36.2712 90.8053 36.2187 90.7538 36.1545C90.7022 36.0903 90.665 36.0158 90.6446 35.9359C90.5817 35.6657 90.5547 35.3884 90.5644 35.1111V34.4468C90.5562 34.1792 90.5831 33.9117 90.6446 33.6512C90.6644 33.5709 90.7023 33.4963 90.7553 33.433C90.8084 33.3698 90.8753 33.3195 90.9508 33.2862C91.1685 33.2001 91.4025 33.1627 91.6361 33.1767H91.6945C91.9112 33.1688 92.1279 33.1959 92.336 33.257C92.4033 33.2781 92.4651 33.3139 92.5168 33.3619C92.5685 33.4099 92.6089 33.4688 92.6349 33.5344C92.7001 33.7193 92.7273 33.9154 92.7151 34.111V34.257H92.1683V34.1329C92.1825 34.0288 92.1825 33.9232 92.1683 33.8191C92.1427 33.7543 92.0931 33.702 92.0298 33.6731C91.9366 33.6387 91.8374 33.6238 91.7382 33.6293H91.6799C91.5675 33.6231 91.4552 33.6431 91.3518 33.6877C91.314 33.7099 91.2818 33.7405 91.2578 33.7773C91.2337 33.814 91.2185 33.8558 91.2133 33.8994C91.1971 34.0669 91.1971 34.2355 91.2133 34.403V35.133C91.1971 35.3102 91.1971 35.4886 91.2133 35.6659C91.2187 35.7085 91.2332 35.7495 91.2559 35.786C91.2785 35.8226 91.3087 35.8538 91.3445 35.8775C91.4485 35.9196 91.5608 35.9371 91.6726 35.9286H91.7382C91.8391 35.9321 91.94 35.9198 92.0371 35.8921C92.0683 35.8788 92.0961 35.8588 92.1188 35.8336C92.1415 35.8084 92.1584 35.7786 92.1683 35.7462C92.2027 35.6352 92.2175 35.5191 92.2121 35.4031V35.279H92.7589V35.425C92.7693 35.6307 92.7396 35.8365 92.6714 36.0308C92.6445 36.0967 92.6039 36.1562 92.5524 36.2053C92.5009 36.2543 92.4396 36.2919 92.3725 36.3155C92.1614 36.3739 91.9424 36.3986 91.7236 36.3885H91.6653C91.4177 36.4102 91.1684 36.3753 90.9362 36.2863L90.9435 36.3082Z" fill="#0457A4"/>
<path d="M93.1641 36.3731V33.2051H93.74V36.3731H93.1641Z" fill="#0457A4"/>
<path d="M94.0469 36.3731L94.8634 33.2051H95.7237L96.5329 36.3731H95.9351L95.782 35.6942H94.7759L94.6155 36.3731H94.0469ZM94.8634 35.2636H95.6945L95.2936 33.6285L94.8853 35.2636H94.8634Z" fill="#0457A4"/>
<path d="M97.0916 36.3369C97.0293 36.3207 96.9713 36.2906 96.9221 36.2489C96.8729 36.2072 96.8337 36.1549 96.8073 36.096C96.7555 35.9184 96.7333 35.7334 96.7417 35.5486V35.3807H97.2593V35.5048C97.2397 35.6011 97.2397 35.7004 97.2593 35.7967C97.2702 35.8261 97.2877 35.8526 97.3105 35.8741C97.3333 35.8956 97.3607 35.9116 97.3906 35.9208C97.4945 35.9367 97.6002 35.9367 97.7041 35.9208H97.777C97.8711 35.9366 97.9672 35.9366 98.0613 35.9208C98.0905 35.9142 98.1174 35.8999 98.1392 35.8794C98.161 35.8588 98.1769 35.8328 98.1852 35.804C98.2123 35.7167 98.2246 35.6254 98.2217 35.534V35.4318C98.2289 35.3482 98.2111 35.2643 98.1706 35.1909C98.1325 35.1297 98.0725 35.0854 98.003 35.0668C97.8673 35.0238 97.7283 34.992 97.5874 34.9719C97.3993 34.9448 97.2155 34.8933 97.0406 34.8186C96.9268 34.7645 96.8363 34.6712 96.7854 34.5558C96.73 34.4041 96.7052 34.2428 96.7125 34.0813V33.9864C96.7034 33.8212 96.7334 33.6561 96.8 33.5047C96.8267 33.4456 96.8649 33.3926 96.9125 33.3487C96.9601 33.3048 97.0161 33.2709 97.0771 33.2492C97.2511 33.1926 97.4338 33.1679 97.6166 33.1762H97.7259C97.9327 33.1657 98.1398 33.1903 98.3383 33.2492C98.4001 33.2668 98.4574 33.2974 98.5064 33.3389C98.5555 33.3805 98.5951 33.432 98.6227 33.4901C98.6734 33.6554 98.6956 33.8282 98.6883 34.001V34.1397H98.1779V34.0229C98.1841 33.9385 98.1717 33.8538 98.1415 33.7748C98.1309 33.7472 98.1142 33.7225 98.0928 33.7023C98.0713 33.682 98.0456 33.6669 98.0175 33.658C97.9262 33.6391 97.8319 33.6391 97.7405 33.658H97.6968C97.6099 33.6437 97.5212 33.6437 97.4343 33.658C97.3807 33.6775 97.3364 33.7166 97.3104 33.7675C97.3 33.8474 97.3 33.9284 97.3104 34.0083V34.0886C97.3087 34.1657 97.3211 34.2423 97.3468 34.3149C97.3865 34.3747 97.4458 34.4186 97.5145 34.439C97.6392 34.4854 97.7689 34.5172 97.9009 34.5339C98.1021 34.5543 98.2989 34.606 98.4841 34.6872C98.5964 34.7424 98.6884 34.8318 98.7466 34.9427C98.7992 35.0926 98.8239 35.251 98.8195 35.4099V35.5194C98.8268 35.71 98.7996 35.9004 98.7393 36.0814C98.7116 36.1419 98.6722 36.1962 98.6234 36.2413C98.5746 36.2864 98.5173 36.3214 98.455 36.3442C98.2678 36.3978 98.0736 36.4224 97.879 36.4172H97.7697C97.5466 36.4254 97.3234 36.4033 97.1062 36.3515L97.0916 36.3369Z" fill="#0457A4"/>
<path d="M100.242 36.3731V33.2051H101.117L101.795 35.7891L102.466 33.2051H103.333V36.3731H102.794V33.6795L102.065 36.3731H101.474L100.745 33.6795V36.3731H100.242Z" fill="#0457A4"/>
<path d="M103.867 36.3733V33.2053H105.595V33.6579H104.443V34.5265H105.515V34.9572H104.443V35.9208H105.624V36.3733H103.867ZM104.37 32.9644L104.268 32.7673L105.056 32.2637L105.238 32.6287L104.37 32.9644Z" fill="#0457A4"/>
<path d="M106 33.2053H107.064C107.311 33.1944 107.557 33.224 107.793 33.2929C107.871 33.3218 107.942 33.3675 108 33.4268C108.058 33.4861 108.102 33.5576 108.129 33.636C108.205 33.8964 108.237 34.1679 108.224 34.439V35.1178C108.233 35.3927 108.206 35.6676 108.143 35.9354C108.119 36.0131 108.078 36.0843 108.022 36.1437C107.967 36.2031 107.898 36.2492 107.823 36.2785C107.575 36.3552 107.316 36.3874 107.057 36.3734H106.007V33.2053H106ZM107.057 35.9281C107.19 35.9334 107.323 35.9161 107.451 35.877C107.492 35.8569 107.529 35.8273 107.556 35.7905C107.584 35.7537 107.603 35.7108 107.611 35.6653C107.646 35.4949 107.661 35.3209 107.655 35.147V34.4171C107.662 34.2528 107.647 34.0884 107.611 33.928C107.602 33.8829 107.582 33.8407 107.553 33.8051C107.523 33.7695 107.486 33.7415 107.444 33.7236C107.319 33.6808 107.188 33.6634 107.057 33.6725H106.576V35.9427L107.057 35.9281Z" fill="#0457A4"/>
<path d="M108.703 36.3731V33.2051H109.272V36.3731H108.703Z" fill="#0457A4"/>
<path d="M110.084 36.3078C110.01 36.2719 109.944 36.2199 109.893 36.1555C109.841 36.0911 109.804 36.0159 109.785 35.9355C109.722 35.6653 109.695 35.3879 109.705 35.1106V34.4464C109.697 34.1788 109.724 33.9112 109.785 33.6507C109.805 33.5714 109.842 33.4975 109.893 33.4343C109.945 33.3711 110.01 33.3204 110.084 33.2857C110.302 33.2009 110.536 33.1636 110.769 33.1762H110.835C111.052 33.1689 111.268 33.196 111.477 33.2565C111.543 33.2797 111.604 33.3163 111.655 33.364C111.706 33.4118 111.747 33.4696 111.776 33.5339C111.836 33.7198 111.864 33.9151 111.856 34.1106V34.2566H111.309V34.1325C111.312 34.0266 111.299 33.921 111.273 33.8186C111.263 33.7862 111.246 33.7563 111.223 33.7311C111.2 33.7059 111.172 33.6859 111.141 33.6726C111.045 33.6386 110.944 33.6238 110.842 33.6288H110.813C110.698 33.6228 110.584 33.6428 110.478 33.6872C110.442 33.711 110.412 33.7422 110.389 33.7787C110.367 33.8152 110.352 33.8562 110.347 33.8989C110.315 34.0647 110.302 34.2338 110.31 34.4026V35.1325C110.302 35.3109 110.315 35.4897 110.347 35.6654C110.352 35.708 110.367 35.749 110.389 35.7856C110.412 35.8221 110.442 35.8533 110.478 35.8771C110.582 35.9191 110.694 35.9366 110.806 35.9282H110.864C110.968 35.9316 111.071 35.9193 111.17 35.8917C111.201 35.8772 111.228 35.8569 111.251 35.8318C111.273 35.8068 111.291 35.7775 111.302 35.7457C111.329 35.6335 111.342 35.5181 111.338 35.4026V35.2785H111.885V35.4245C111.895 35.6302 111.866 35.836 111.797 36.0304C111.773 36.0976 111.733 36.1582 111.681 36.2076C111.629 36.2569 111.567 36.2937 111.499 36.315C111.29 36.3731 111.073 36.3977 110.857 36.388H110.813C110.58 36.4044 110.346 36.3695 110.128 36.2859L110.084 36.3078Z" fill="#0457A4"/>
<path d="M112.039 36.3731L112.856 33.2051H113.73L114.547 36.3731H113.949L113.789 35.6942H112.797L112.637 36.3731H112.039ZM112.856 35.2636H113.687L113.286 33.6285L112.877 35.2636H112.856Z" fill="#0457A4"/>
<path d="M115.092 36.3367C115.03 36.3215 114.973 36.2917 114.925 36.2499C114.876 36.208 114.839 36.1551 114.815 36.0958C114.756 35.9196 114.732 35.7338 114.742 35.5484V35.3805H115.26V35.5046C115.257 35.6032 115.269 35.7017 115.296 35.7965C115.307 35.8259 115.325 35.8524 115.348 35.8739C115.37 35.8954 115.398 35.9114 115.428 35.9206C115.532 35.9364 115.637 35.9364 115.741 35.9206H115.814C115.911 35.9357 116.009 35.9357 116.106 35.9206C116.134 35.9117 116.159 35.8966 116.181 35.8763C116.202 35.8561 116.219 35.8313 116.23 35.8038C116.244 35.7144 116.244 35.6232 116.23 35.5338V35.4316C116.235 35.3489 116.22 35.2661 116.186 35.1907C116.144 35.1295 116.082 35.0855 116.011 35.0666C115.876 35.0218 115.736 34.99 115.595 34.9717C115.407 34.9431 115.224 34.8917 115.048 34.8184C114.936 34.7623 114.846 34.6696 114.793 34.5556C114.744 34.4024 114.722 34.2419 114.728 34.0811V33.9862C114.72 33.8218 114.748 33.6577 114.808 33.5045C114.864 33.3866 114.963 33.295 115.085 33.249C115.261 33.1925 115.447 33.1678 115.632 33.176H115.734C115.943 33.166 116.152 33.1907 116.354 33.249C116.414 33.2667 116.471 33.2973 116.518 33.3389C116.566 33.3805 116.605 33.432 116.631 33.4899C116.685 33.6545 116.71 33.8275 116.703 34.0008V34.1395H116.186V34.0227C116.2 33.9406 116.2 33.8567 116.186 33.7746C116.16 33.7218 116.116 33.6803 116.062 33.6578C115.97 33.64 115.876 33.64 115.785 33.6578H115.705C115.618 33.6435 115.529 33.6435 115.442 33.6578C115.416 33.6664 115.392 33.6807 115.372 33.6996C115.352 33.7185 115.336 33.7416 115.326 33.7673C115.299 33.8446 115.286 33.9263 115.289 34.0081V34.0884C115.286 34.1663 115.301 34.2438 115.333 34.3147C115.35 34.345 115.373 34.3716 115.401 34.3929C115.428 34.4142 115.46 34.4298 115.493 34.4388C115.621 34.485 115.753 34.5168 115.887 34.5337C116.086 34.5538 116.28 34.6056 116.463 34.687C116.578 34.7379 116.671 34.8285 116.725 34.9425C116.781 35.0915 116.806 35.2506 116.798 35.4097V35.5192C116.806 35.7098 116.778 35.9002 116.718 36.0812C116.691 36.1423 116.652 36.1973 116.603 36.2425C116.554 36.2877 116.497 36.3223 116.434 36.344C116.247 36.3982 116.052 36.4228 115.858 36.417H115.756C115.533 36.4261 115.309 36.404 115.092 36.3513V36.3367Z" fill="#0457A4"/>
<path d="M118.837 36.3731V35.3366L117.984 33.2051H118.568L119.136 34.8037L119.69 33.2051H120.295L119.442 35.3366V36.3731H118.837Z" fill="#0457A4"/>
<path d="M121.562 33.2053H122.627C122.873 33.1944 123.119 33.224 123.356 33.2929C123.434 33.3218 123.504 33.3675 123.562 33.4268C123.62 33.4861 123.664 33.5576 123.691 33.636C123.768 33.8964 123.8 34.1679 123.786 34.439V35.1178C123.795 35.3927 123.768 35.6676 123.706 35.9354C123.682 36.0131 123.64 36.0843 123.585 36.1437C123.529 36.2031 123.461 36.2492 123.385 36.2785C123.138 36.3552 122.878 36.3874 122.62 36.3734H121.562V33.2053ZM122.62 35.9281C122.753 35.9334 122.886 35.9161 123.013 35.877C123.055 35.8564 123.092 35.8268 123.121 35.7901C123.15 35.7535 123.171 35.7109 123.181 35.6653C123.197 35.4929 123.197 35.3194 123.181 35.147V34.4171C123.188 34.2528 123.173 34.0884 123.137 33.928C123.128 33.8838 123.109 33.8424 123.081 33.8069C123.053 33.7715 123.018 33.743 122.977 33.7236C122.85 33.6815 122.716 33.6641 122.583 33.6725H122.102V35.9427L122.62 35.9281Z" fill="#0457A4"/>
<path d="M124.266 36.3731V33.2051H125.986V33.6577H124.834V34.5263H125.906V34.957H124.834V35.9205H126.015V36.3731H124.266Z" fill="#0457A4"/>
<path d="M127.398 36.3731V33.2051H127.967V35.9205H128.995V36.3731H127.398Z" fill="#0457A4"/>
<path d="M129.039 36.3731L129.848 33.2051H130.709L131.525 36.3731H130.92L130.767 35.6942H129.775L129.608 36.3731H129.039ZM129.848 35.2636H130.679L130.286 33.6285L129.877 35.2636H129.848Z" fill="#0457A4"/>
<path d="M133.14 36.3367C133.078 36.3215 133.021 36.2917 132.973 36.2499C132.924 36.208 132.887 36.1551 132.863 36.0958C132.804 35.9196 132.78 35.7338 132.79 35.5484V35.3805H133.308V35.5046C133.305 35.6032 133.317 35.7017 133.344 35.7965C133.355 35.8259 133.373 35.8524 133.396 35.8739C133.418 35.8954 133.446 35.9114 133.476 35.9206C133.58 35.9364 133.685 35.9364 133.789 35.9206H133.862C133.959 35.9357 134.057 35.9357 134.154 35.9206C134.182 35.9117 134.207 35.8966 134.229 35.8763C134.25 35.8561 134.267 35.8313 134.278 35.8038C134.288 35.7141 134.288 35.6235 134.278 35.5338V35.4316C134.283 35.3489 134.268 35.2661 134.234 35.1907C134.191 35.1309 134.129 35.0872 134.059 35.0666C133.923 35.0227 133.784 34.9909 133.643 34.9717C133.455 34.9446 133.271 34.8931 133.097 34.8184C132.984 34.7623 132.894 34.6696 132.841 34.5556C132.789 34.4033 132.766 34.2421 132.776 34.0811V33.9862C132.765 33.8216 132.792 33.6567 132.856 33.5045C132.883 33.4454 132.921 33.3924 132.968 33.3485C133.016 33.3046 133.072 33.2707 133.133 33.249C133.31 33.1925 133.495 33.1678 133.68 33.176H133.782C133.991 33.166 134.2 33.1907 134.402 33.249C134.462 33.2679 134.517 33.2991 134.565 33.3405C134.613 33.382 134.651 33.4328 134.679 33.4899C134.733 33.6545 134.758 33.8275 134.751 34.0008V34.1395H134.234V34.0227C134.252 33.941 134.252 33.8563 134.234 33.7746C134.224 33.748 134.208 33.7239 134.188 33.7038C134.168 33.6837 134.144 33.668 134.117 33.6578C134.023 33.6391 133.927 33.6391 133.833 33.6578H133.76C133.673 33.6435 133.584 33.6435 133.498 33.6578C133.471 33.6664 133.447 33.6807 133.427 33.6996C133.407 33.7185 133.391 33.7416 133.381 33.7673C133.354 33.8446 133.342 33.9263 133.344 34.0081V34.0884C133.351 34.1662 133.376 34.2412 133.417 34.3074C133.435 34.3377 133.458 34.3643 133.485 34.3856C133.513 34.4069 133.544 34.4225 133.578 34.4315C133.705 34.4786 133.837 34.5105 133.971 34.5264C134.17 34.5476 134.364 34.5993 134.547 34.6797C134.661 34.7326 134.754 34.8227 134.81 34.9352C134.866 35.0843 134.891 35.2433 134.883 35.4024V35.5119C134.89 35.7025 134.863 35.8929 134.803 36.0739C134.775 36.1343 134.735 36.1887 134.687 36.2338C134.638 36.2789 134.581 36.3139 134.518 36.3367C134.331 36.3908 134.137 36.4155 133.942 36.4097H133.833C133.612 36.4185 133.391 36.3964 133.177 36.344L133.14 36.3367Z" fill="#0457A4"/>
<path d="M135.055 36.3731L135.871 33.2051H136.724L137.541 36.3731H136.943L136.783 35.6942H135.791L135.623 36.3731H135.055ZM135.871 35.2636H136.695L136.331 33.6285L135.915 35.2636H135.871Z" fill="#0457A4"/>
<path d="M137.836 36.3731V33.2051H138.412V35.9205H139.433V36.3731H137.836Z" fill="#0457A4"/>
<path d="M140.045 36.322C139.975 36.2924 139.913 36.2485 139.861 36.1932C139.81 36.1379 139.771 36.0723 139.746 36.0008C139.684 35.7801 139.657 35.5511 139.666 35.322V33.2051H140.242V35.3439C140.226 35.4723 140.226 35.6023 140.242 35.7307C140.248 35.7674 140.263 35.8018 140.286 35.8311C140.309 35.8604 140.339 35.8836 140.373 35.8986C140.47 35.9367 140.575 35.9516 140.679 35.9424H140.752C140.856 35.9516 140.961 35.9367 141.058 35.8986C141.092 35.8836 141.122 35.8604 141.145 35.8311C141.168 35.8018 141.183 35.7674 141.189 35.7307C141.224 35.6049 141.239 35.4743 141.233 35.3439V33.2051H141.802V35.3147C141.811 35.5486 141.783 35.7824 141.722 36.0081C141.697 36.0785 141.657 36.1428 141.606 36.1969C141.554 36.251 141.492 36.2936 141.423 36.322C141.206 36.3911 140.979 36.4207 140.752 36.4096H140.708C140.484 36.4203 140.259 36.3907 140.045 36.322Z" fill="#0457A4"/>
<path d="M142.344 33.2053H143.408C143.654 33.1944 143.901 33.224 144.137 33.2929C144.215 33.3218 144.285 33.3675 144.343 33.4268C144.401 33.4861 144.445 33.5576 144.473 33.636C144.549 33.8964 144.581 34.1679 144.567 34.439V35.1178C144.577 35.3927 144.55 35.6676 144.487 35.9354C144.463 36.0141 144.42 36.086 144.363 36.1455C144.306 36.2051 144.237 36.2506 144.159 36.2785C143.923 36.3519 143.677 36.384 143.43 36.3734H142.373V33.2053H142.344ZM143.401 35.9281C143.534 35.9327 143.667 35.9155 143.795 35.877C143.836 35.8569 143.872 35.8273 143.9 35.7905C143.928 35.7537 143.947 35.7108 143.955 35.6653C143.99 35.4949 144.005 35.3209 143.999 35.147V34.4171C144.005 34.2528 143.991 34.0884 143.955 33.928C143.946 33.8829 143.925 33.8407 143.896 33.8051C143.867 33.7695 143.83 33.7415 143.787 33.7236C143.663 33.6813 143.532 33.664 143.401 33.6725H142.898V35.9427L143.401 35.9281Z" fill="#0457A4"/>
<path d="M147.563 40.4107H68.4609L72.7842 38.5566H151.886L147.563 40.4107Z" fill="#0457A4"/>
<path d="M101.881 40.4107H68.4609L72.7842 38.5566H106.204L101.881 40.4107Z" fill="#F8DF00"/>
<path d="M147.557 40.4107H124.023L128.354 38.5566H151.881L147.557 40.4107Z" fill="#EB242D"/>
<path d="M54.679 16.6431L54.73 15.9642L54.4894 15.8985V15.6357L54.3509 15.5335V15.2561L54.1176 15.1101L54.329 14.9642L54.154 14.643L54.227 14.5554H54.4311L54.5259 14.4459V14.278L54.4311 14.205V14.0298L54.5404 13.9714L54.4311 13.7305L54.2634 13.6575L54.0957 13.6137L53.9499 13.4531H53.7093L53.5927 13.3947V13.256L53.4469 13.1904H53.2063L53.0969 13.0371L52.9292 12.9568L52.7761 12.5918L52.6449 12.4458L52.4481 12.4093H51.719L51.3836 12.256L50.8587 11.9129V10.9494H52.1419L52.8709 11.1976L53.2063 11.1611L53.3011 11.0078L53.3885 11.1319L53.8333 11.0589L53.9499 11.0078V10.7961L53.6145 10.745H53.2427L52.9292 10.6793L52.5355 10.5625L52.0179 10.3873L51.8284 10.2778L51.5295 10.1975L51.5878 10.0442L51.2743 9.84714L51.1066 9.71575L50.8441 9.64275H50.1151H49.6266L49.2913 9.48946L48.883 9.21208L48.38 8.94199L47.9863 8.65001L47.6509 8.21933L47.3374 7.90545L47.1478 7.76676L46.8562 7.65727H46.3678L46.0907 7.32878H45.4783L45.1211 7.25579L44.9169 7.1098L44.6035 7.0076L44.1587 7.0952H43.8598L43.6192 7.26309L43.5245 7.41638V8.33613L43.0943 8.25583H42.9266L42.7444 8.33613H42.5184L42.4236 8.21203H42.2413L42.0153 8.27773L41.906 8.35073L41.6654 8.38722L41.4977 8.29233L41.2571 8.19743H40.9436L40.7759 8.15364L40.4989 8.07334H40.2364L40.1417 8.24123H39.5511L39.347 8.33613L38.8221 8.29233L38.545 8.22663L38.1368 8.10254L37.7285 8.02954H37.3713L36.9994 7.95655L36.7224 7.47478L36.3506 7.37988L36.0517 7.44558L35.7746 7.50397H35.4757H35.1039L34.7539 7.38718L34.4405 7.35068H34.2509L34.1197 7.47478L33.7479 7.33608L33.4562 7.21199L33.376 6.96381L33.3031 6.74482V6.56233L33.2229 6.37254L33.376 5.98566L33.1209 5.83967L32.7491 5.67178L32.4283 5.51119L32.0783 5.39439L31.6336 5.04401L31.393 4.97832V4.78853L31.6992 4.62794V4.48925L31.5315 4.37975L31.2035 4.19726L30.4307 4.37975L29.9568 4.51844L29.585 4.46735L28.6664 4.37975L28.1998 4.06587L27.755 3.94908L27.303 3.64979L26.7708 3.39431V3.25562L26.5302 3.04393L25.8814 2.91983L25.4367 2.79574L25.1013 2.67165L24.6347 2.40156L24.518 2.10228L23.9275 1.8176L23.6942 1.7665L23.3297 1.7081L22.6663 1.36502L22.4257 1.27013L22.1632 1.11684L21.9664 0.89055L21.3977 0.335781L20.5666 0L20.4135 0.0583967L19.9542 0.729959L19.4293 1.04384L18.846 1.35772L18.2263 1.7081L18.1534 2.03658L17.6722 2.29937L17.366 2.47456L17.1109 2.52566L16.7974 2.48186H16.3527H16.0246L15.6746 2.55486H14.88L14.3842 2.73005L13.852 2.91983L13.5166 3.09502L13.2396 3.13152H12.8824L12.4595 3.31401L11.92 3.4746L11.5919 3.6133L11.3586 3.78119L11.191 4.00747L10.841 4.09507L10.3453 4.25566L9.78389 4.51114L9.20065 4.44545H8.79967L8.52263 4.72283L8.47159 4.93452L8.33307 5.2849L8.56637 5.52579L8.76322 5.58418L8.90174 5.72288L9.22252 5.92726V6.15355V6.35794L9.05484 6.67182L8.87257 6.90541L8.95277 7.0441L9.01109 7.33608L9.33188 7.44558L9.27355 7.61347L9.22981 7.64997L9.03296 7.57697V7.94195L9.084 8.20473L9.03296 8.43102V8.70841L8.93819 8.92009L8.82883 9.13178L8.60282 9.62815L8.19455 10.0442L7.94668 10.2705L7.10827 11.0735L6.83123 11.2122L6.50315 11.3217L6.26986 11.4239L5.91262 11.6136L5.65745 11.7961L5.51893 12.2341L4.71697 12.7743L4.76072 13.2269L5.25647 13.7962L5.45332 14.0371L5.13982 14.2123L4.73884 14.6868L4.60032 15.0152L4.37432 15.3291L4.25767 15.8182L3.95147 16.3365L3.37551 16.5336H2.52252L2.14342 16.4752L1.5383 16.592L0.605114 17.3V17.4533L0.845701 17.9935L1.15919 18.5191L1.61121 18.7745L2.26006 19.4607L1.97573 20.3147L1.7716 20.4388L1.45811 20.5337L1.22481 20.9644L1.14461 21.2053L1.21023 21.3732L1.47269 21.7893L1.80076 22.1761L1.91012 22.3732L2.30381 23.439V23.6069L2.08509 24.5777L1.91741 24.7967L1.76431 24.9281L1.13003 25.2712L0.459303 25.4902L0 25.3369V25.5486L0.809249 26.2785L1.5383 26.607L1.83721 26.7019H2.32568L2.80685 26.8187L2.99641 26.9355L3.3901 27.1764L3.74004 27.4902L3.88585 27.6289L5.10337 28.5487L5.73036 28.6582L6.3136 29.0889L6.51044 29.1399H6.87497V28.5633L7.17388 28.3881L7.58944 28.118L8.2383 27.5924L8.53721 27.1764L8.67573 26.8917L8.99651 26.4026L9.65995 26.2201L9.46311 26.4391L9.18607 26.5194L8.96735 26.9866L8.6247 28.0158L8.68302 28.2713L9.14961 28.4465L9.76202 28.5268L9.89325 28.0742L10.1338 27.9209L10.2869 27.7384L10.4911 27.7968L10.3744 28.1326L10.2578 28.5122H10.8702L11.0087 27.7822L11.242 27.8625L11.0816 28.4027L11.6648 28.4684L11.4534 28.5633L11.3441 28.6728L10.8629 29.6801L10.6004 30.4539L10.4255 31.1838L10.3671 31.3225L10.2869 31.4685L10.0172 31.6802L9.57246 32.0087L9.12774 32.2715L8.79967 32.4978L8.49347 33.0014L7.91022 33.4029H6.7L6.49586 33.3299L6.19695 33.5781L6.03656 33.7168L6.80935 33.9796L7.04265 34.5416L7.25408 35.2278L7.3124 35.5125V36.0819V36.2351L7.64776 37.0746L7.86648 37.2498L7.65506 37.3812L7.0062 37.5345L6.54689 38.0308L6.29173 38.1403L6.04385 38.0527L5.62829 37.9141H5.27834L4.85549 37.9578L4.50555 38.4104L4.67323 38.8265V39.2426L4.82633 39.4762L5.00859 39.5784L5.33667 39.4981L5.63558 39.4178H6.04385L5.63558 39.863L5.48248 39.9944L5.17628 40.228L4.71697 40.739L4.81904 40.9507L4.87007 41.1186L5.38041 41.323L5.56267 41.3741L5.86888 41.2792L6.09488 41.1916L6.78019 40.8047L7.12285 40.5711L7.50195 40.2718L7.61131 40.1112L7.99042 40.009L8.52992 40.1258L9.03296 40.5054L9.29542 40.6368L9.79118 40.6879L10.163 40.7609L10.4984 41.1259L11.0233 41.3741H11.3222L12.0512 41.1989L12.4085 41.0383H12.6418L12.8532 41.1259L13.1813 41.4617L13.4583 41.6368L13.852 41.6076L13.9249 41.8704L13.8301 42.0894L13.8739 42.3668L14.2457 42.4836L14.3478 42.8851L14.479 43.396L14.5373 43.6077L14.7706 43.8048H15.1862V44.1698L15.6819 44.272L16.0319 44.783H17.0015H17.6285L18.0295 44.9728H18.3284L18.5908 44.8341V44.491L18.9408 44.0676L19.247 43.7975L19.3199 43.3449L19.5022 43.0165L19.9396 42.7829L20.1 42.6734H20.1875C20.0781 39.6514 19.9688 36.6731 19.8594 33.6803L19.7282 33.5781L19.8594 33.6949C19.8594 33.3591 19.8594 33.016 19.8594 32.6802L22.1778 31.9503C22.1778 32.1693 22.1778 32.3226 22.1778 32.4759C22.066 35.5271 21.9615 38.5783 21.8643 41.6295L21.8716 41.6076L22.0611 41.4033V41.0091L21.9882 40.6514V40.1477L22.1559 39.9944L22.5715 39.6879V38.9068L22.7319 38.7024V38.6002C22.7243 38.5445 22.7243 38.488 22.7319 38.4323C22.7319 37.9432 22.7319 37.4542 22.7319 36.8848C22.9943 36.9943 23.1547 37.0527 23.3005 37.133L23.5994 37.2936L24.0223 36.9432L24.4014 36.5417L24.6128 36.2643L24.7878 35.987V35.4833L24.8826 35.0453V34.8117V34.5927V34.2424L24.9409 34.0891L25.1013 33.965L25.3638 33.8993H25.5752L25.7429 34.0015L25.8231 34.1913V34.6438H25.9032L26.3188 34.5416L26.7198 34.6657L26.9312 34.3519L26.6323 34.1694L26.5229 33.8993L26.3188 33.7533L26.2459 33.5781L26.3917 33.3956L26.625 33.2569L26.9458 33.1182L27.1864 32.9868V32.4905H27.704L27.9665 32.1474L29.0017 31.3371L29.585 31.1327L30.3796 30.9356L33.6604 30.067L35.658 29.5779L37.466 29.0743L38.7273 28.7312L41.2134 28.118H41.2936L43.4807 26.8698L46.5354 25.0084L49.3131 22.5703L50.7712 21.271L51.1431 20.979V20.7819V20.9863L51.3618 20.8768L51.4566 20.6943L51.9159 20.0885L52.3606 18.9205L52.7834 17.9497L52.973 17.5482L53.1844 17.2708V16.7963L53.4614 16.7453L53.651 16.9423H54.8904L54.679 16.6431ZM6.2334 21.8404L6.4667 21.9426L6.79477 21.9937L6.4667 21.8988L6.2334 21.7966V21.8404ZM7.4655 20.8987L7.04265 21.0447L7.4655 20.906L7.62589 20.8403L7.4655 20.8987ZM36.4526 10.6574L36.6422 10.6939H36.4526H36.0517L36.4526 10.6574ZM35.8548 15.716L36.1537 15.5262L35.8548 15.7087V15.716ZM34.4988 10.9859L34.7831 10.8107L34.5061 10.9859H34.4332H34.4988ZM33.726 13.4166L33.8208 13.2341H34.1707L34.3165 12.8619L34.1707 13.2269H33.8208L33.726 13.4093L33.2813 13.4823L33.726 13.4166ZM32.6105 10.599L32.6543 10.5114V10.5917L32.5887 10.672L32.6105 10.599ZM32.1585 13.1612L32.5595 13.1247L32.8001 13.3509L33.2521 13.3874L32.8074 13.3655L32.5668 13.1466H32.1658L32.1585 13.1612ZM30.4963 6.80321L30.7442 6.56963L31.167 6.16815L30.4963 6.82511H30.438L30.4963 6.80321ZM29.4975 7.37258L29.7672 7.40908H30.1026L30.1901 7.0879L30.2557 6.94191L30.1828 7.1171L30.1099 7.40908L29.9495 7.69376L30.1026 7.40908H29.7672L29.4975 7.37258ZM28.7757 8.92739H28.9288H28.7101H28.7757ZM25.1305 4.27756L25.5169 4.37975L25.6189 4.46005L25.9032 4.51844L26.2095 4.78123L26.5375 5.12431L26.9604 5.38709L27.2885 5.73747L27.3322 6.00026L27.2812 5.73747L26.9604 5.38709L26.5011 5.10971L26.173 4.76663L25.8668 4.50384L25.5825 4.44545L25.5169 4.37975L25.1815 4.24106L25.1305 4.27756ZM20.9749 4.95642C21.4005 4.95831 21.8216 5.04461 22.2137 5.21035C22.6059 5.37608 22.9613 5.61797 23.2596 5.92203C23.5579 6.22609 23.793 6.5863 23.9514 6.98186C24.1099 7.37742 24.1885 7.80049 24.1827 8.22663C24.1827 8.27773 24.1827 8.32153 24.1827 8.36533C24.1498 9 23.9312 9.61098 23.5542 10.1223C23.1772 10.6335 22.6583 11.0225 22.0622 11.2409C21.4661 11.4593 20.8191 11.4973 20.2015 11.3504C19.584 11.2034 19.0232 10.8779 18.589 10.4144C18.1548 9.95082 17.8663 9.36967 17.7593 8.74323C17.6524 8.11678 17.7318 7.47268 17.9876 6.89104C18.2434 6.30941 18.6643 5.81591 19.198 5.47193C19.7318 5.12796 20.3547 4.94869 20.9894 4.95642H20.9749ZM17.2129 7.75946L17.5046 7.83976L17.2202 7.75946L16.6151 7.65727L17.2129 7.75946ZM13.4875 9.33617L13.1959 9.62815L13.1521 9.90554V10.0296V10.307L13.2469 10.7742L13.123 10.2924V9.89094L13.1667 9.61356L13.4875 9.33617ZM11.7232 7.36528H12.0294L12.2116 7.60617V7.71566L12.1169 7.85435V8.02954L12.2554 8.08064L12.4887 8.14634L12.5397 8.40912H12.4449H12.5324L12.4887 8.14634L12.2554 8.08064L12.1241 8.02954V7.85435L12.2189 7.71566V7.60617L12.0367 7.36528H11.7305H11.7232ZM10.5786 20.4388L10.6733 21.1323L10.5786 20.4023V20.198V19.9425L10.6733 19.7308L10.5858 19.9425V20.198L10.5786 20.4388ZM11.5555 22.3659L11.4826 22.1396L10.9722 22.0885L10.8264 22.001L10.7317 21.6871L10.5713 21.5484V21.3513V21.5411L10.7389 21.6798L10.8337 21.9937L10.9722 22.0812L11.4899 22.1323L11.5555 22.3586L11.7961 22.6068L11.8617 22.8988L12.0731 23.074L12.5178 23.4025H12.824L12.9188 23.3149L13.0282 23.2419L13.3854 23.1178H13.8083L13.903 23.22H14.027L14.3259 23.3076L14.9602 23.6945L15.3174 23.9864L15.4997 24.1981L15.6309 24.4098L15.7548 24.5558L16.0319 24.7383H16.0829L16.1996 24.5704H16.3162L16.4985 24.7237L16.8047 24.8843V25.023L17.0744 25.1252L16.8047 25.0303V24.8843L16.5058 24.731L16.3162 24.5704H16.1996L16.0829 24.7456H16.0392L15.7548 24.5558L15.6309 24.4098L15.4997 24.1981L15.3174 23.9937L14.9602 23.6945L14.3259 23.3076L14.027 23.2273H13.903L13.852 23.1324H13.4292L13.0792 23.2565L12.9699 23.3295L12.8751 23.4244H12.5689L12.1241 23.0886L11.9127 22.9134L11.8398 22.6214L11.5555 22.3659ZM17.7743 24.8186L17.4973 24.8916H17.264V25.0303V24.9865V24.8478H17.4973L17.8035 24.7967L17.7743 24.8186ZM18.0513 25.096L17.6795 25.3004L17.5702 25.1909L17.6868 25.2931L18.0513 25.096ZM15.2518 26.4099H15.0841L14.9237 26.3588L15.0914 26.4099H15.2518ZM14.2603 27.5632H14.4863H14.3915H14.2603ZM12.2627 30.5707L12.0877 30.8043H11.971L11.7305 31.2057L11.6138 31.432L11.4826 31.3882L11.4243 31.505L11.4899 31.3809L11.6576 31.4831L11.7742 31.2568L12.0148 30.8554H12.1314L12.3064 30.6218L12.4522 30.2495L12.2627 30.5707ZM26.7781 29.7531C25.7131 30.3504 24.5796 30.8161 23.4026 31.14C22.1632 31.505 20.9092 31.87 19.6844 32.235C19.0885 32.4271 18.5043 32.6537 17.9347 32.9138C17.4949 33.0834 17.1216 33.3906 16.8703 33.7898C16.8184 33.8786 16.7859 33.9774 16.7748 34.0797C16.7637 34.1819 16.7744 34.2854 16.806 34.3833C16.8377 34.4812 16.8897 34.5712 16.9585 34.6476C17.0274 34.7239 17.1116 34.7848 17.2056 34.8263C17.6562 35.0829 18.1268 35.3026 18.6127 35.4833C18.9481 35.6147 19.1012 35.7534 19.0866 36.0016C19.0866 36.4833 19.0866 36.9651 19.0866 37.4615C17.6688 37.1687 16.3123 36.6329 15.0768 35.8775C14.6323 35.6429 14.289 35.2535 14.1117 34.7828C13.9344 34.3121 13.9354 33.7926 14.1145 33.3226H14.0707H13.8447L13.3708 33.2861L14.0999 33.3445H14.1436C14.2256 33.1155 14.3438 32.9011 14.4936 32.7094C15.0111 32.0653 15.6834 31.563 16.4474 31.2495C17.3296 30.8699 18.2701 30.5196 19.2178 30.2057C20.1656 29.8918 21.3248 29.5706 22.3528 29.2275L22.4986 29.1764C23.2006 28.9291 23.883 28.6289 24.5399 28.2786C24.834 28.1545 25.0894 27.9535 25.2792 27.6967C25.4691 27.4398 25.5864 27.1366 25.6189 26.8187C25.6285 26.6391 25.5896 26.4602 25.5062 26.3009C25.4228 26.1416 25.298 26.0078 25.145 25.9135C24.704 25.6156 24.2437 25.3474 23.7671 25.1106C23.6641 25.0655 23.5663 25.0092 23.4755 24.9427H23.2859L23.3807 25.1179L23.5922 25.3442V25.6726L23.2859 25.7967L23.3661 25.9938L23.0599 26.2347L22.987 26.3077H23.0235L23.0599 26.2712L23.3661 26.0303L23.3297 25.8186L23.6359 25.6945V25.3661L23.4245 25.1398L23.3297 24.9646H23.5192C23.4666 24.9317 23.4239 24.8851 23.3957 24.8299C23.3675 24.7746 23.3547 24.7127 23.3589 24.6507C23.4099 23.9207 23.4682 23.1908 23.5265 22.4097L24.3212 22.6871L24.0587 22.4754L23.8036 22.2491L24.0587 22.0448L23.8473 22.2491L24.1025 22.4754L24.2993 22.6652C25.3738 23.0124 26.3965 23.5034 27.3395 24.1251C27.7631 24.3738 28.1261 24.7137 28.4023 25.1203C28.6784 25.5268 28.8608 25.9898 28.9361 26.4756C29.0236 27.7968 28.2508 28.8626 26.7781 29.7385V29.7531ZM19.1303 15.8036C20.331 15.5673 21.552 15.4499 22.7756 15.4532C22.71 17.0883 22.6517 18.7088 22.5861 20.3366C22.484 23.1543 22.3746 25.9646 22.2653 28.7896L19.6844 29.5925C19.5386 25.8405 19.4001 22.1323 19.2543 18.4315C19.2178 17.5555 19.1887 16.6796 19.1522 15.8036H19.1303ZM23.6796 17.7088H23.6432L23.5411 17.592L23.0308 17.519L23.5192 17.6066L23.6213 17.7234H23.6578L23.6796 17.7088ZM25.7574 20.6724L26.5157 20.4388L25.721 20.6943L25.1232 20.7308L25.7574 20.6724ZM32.2825 16.2051L32.1367 16.4898L32.2898 16.1978L32.5887 15.9423L32.6543 15.6576C32.3432 15.83 31.9962 15.9275 31.6409 15.9423C30.1614 16.092 28.6699 16.0773 27.1937 15.8985C26.7854 15.8547 26.3844 15.789 25.9762 15.7306C25.4678 15.6688 24.9743 15.5181 24.518 15.2853L24.5982 15.3364V15.3948V15.3291L24.518 15.278L24.241 15.1101C23.9531 14.9251 23.6123 14.8404 23.2714 14.8693C21.9597 14.8496 20.649 14.9523 19.3564 15.1758C18.761 15.2861 18.1739 15.4373 17.5993 15.6284C15.2882 16.4314 14.6831 18.2271 16.3454 19.5483C16.8464 19.9223 17.3867 20.2405 17.9566 20.4972C18.2919 20.6578 18.4815 20.8184 18.4815 21.1031C18.4815 21.8331 18.5325 22.563 18.5544 23.2565C18.5528 23.3166 18.5404 23.3759 18.5179 23.4317C18.4671 23.4383 18.4157 23.4383 18.3648 23.4317C16.9713 23.0848 15.6249 22.5701 14.3551 21.8988C13.1129 21.3046 12.1248 20.2842 11.5701 19.0227L11.3368 19.249L11.5628 19.03C11.4638 18.7516 11.3978 18.4625 11.3659 18.1687C11.3395 17.7796 11.3689 17.3887 11.4534 17.008L11.2201 17.1029L11.1764 17.446H10.9868L10.7973 17.5336V17.7088L10.6369 17.8694L10.3598 17.9716V18.0373H10.2286L10.1338 18.1103L10.2286 18.0446H10.3598V17.9789L10.6369 17.8694L10.7973 17.7161V17.5409L10.9868 17.4533H11.1764L11.2201 17.1102L11.4534 17.0153C11.7378 15.6722 12.7584 14.5335 14.654 13.6648C16.3908 12.9465 18.2325 12.5151 20.1073 12.3874C21.7088 12.2339 23.3189 12.19 24.9263 12.256C25.3673 12.2615 25.8082 12.2371 26.2459 12.183H26.5594L27.1353 11.2998L27.6238 11.2487L28.1633 11.1538L28.4331 11.0224L28.1342 11.1319L27.5947 11.2268L27.1062 11.2779L26.5302 12.1611C27.7911 12.0285 29.0625 12.2831 30.1755 12.8911C31.0556 13.3674 31.8433 13.9978 32.5012 14.7525C32.5855 14.8591 32.6588 14.9741 32.7199 15.0955L32.9022 14.9788L32.7199 15.1028C32.8365 15.3437 32.8147 15.5189 32.6251 15.6503L32.5595 15.935L32.2825 16.2051ZM16.1339 18.4388L15.9444 18.5336L16.1266 18.4388H16.1339ZM37.8597 27.9939L37.5681 27.7384H37.4004L37.5681 27.7749L37.8524 28.0158L38.4575 28.0669L37.8597 27.9939ZM41.4248 12.9933L41.2279 12.8692L41.0894 12.6794L40.6228 12.5188L40.3166 12.3655L39.9156 11.8983L39.5657 11.6355L39.3689 11.4239L39.0845 11.1976L38.997 11.0078L38.8877 10.9494L38.5086 10.6355L38.0857 10.599L37.7358 10.7012L37.4296 10.8399L37.7431 10.7012L38.093 10.5917L38.5159 10.6282L38.895 10.9421L38.9897 11.0151L39.0845 11.2049L39.3616 11.4312L39.573 11.6428L39.9229 11.8983L40.3239 12.3728L40.6301 12.5261L41.0967 12.6867L41.2352 12.8765L41.4321 13.0006L41.4248 12.9933ZM44.3118 13.5918L44.0567 13.7524H43.7432L43.5026 13.6502L42.7735 13.4823L42.5475 13.2196L42.2851 13.059L42.0736 12.9568H41.8622H41.7966L41.7091 12.9057H41.5341H41.7164L41.7966 12.9495H41.8622H42.0736L42.2851 13.0517L42.4746 13.2123L42.6933 13.4677L43.4224 13.6429L43.663 13.7378H43.9911L44.2462 13.5845L44.5378 13.3582L44.3118 13.5918ZM46.5573 13.3144H46.3678L44.6035 13.3509H46.2147H46.55L46.7177 13.5845L46.5573 13.3144ZM48.1029 14.2196L47.7967 14.1685L47.2791 14.1101L47.8259 14.1685L48.0956 14.2123L48.1029 14.2196ZM51.5003 13.8692H51.4566L51.0337 13.5553L50.3046 13.4531H49.335L49.1819 13.4896L49.0215 13.3801L48.8465 13.2633L48.4456 13.1758L48.1175 13.1393H48.4018L48.8028 13.2269L49.0142 13.3509L49.1746 13.4531H49.3277H50.3046L51.0337 13.5553L51.4638 13.8765H51.5076L51.5951 14.0663L51.5003 13.8692Z" fill="#1053A0"/>
<path d="M28.956 13.4386C28.6936 13.4386 28.4457 13.6284 28.4894 13.789C28.5332 13.9496 28.7008 14.0664 28.9852 14.0737C29.2695 14.081 29.4955 13.935 29.4809 13.7452C29.4663 13.5554 29.2258 13.424 28.956 13.4386Z" fill="#1053A0"/>
</svg>
