<svg width="75" height="36" viewBox="0 0 75 36" fill="none" xmlns="http://www.w3.org/2000/svg">
<path d="M55.0837 1.5532e-05H53.5791C53.8771 0.870634 53.708 1.76872 53.0783 2.23784C52.2457 2.85911 50.9271 2.49987 50.1199 1.43273C49.8062 1.01547 49.6139 0.519661 49.5641 1.5532e-05H45.7605C46.0584 0.870634 45.8894 1.76872 45.2596 2.23784C44.4271 2.85911 43.1085 2.49987 42.3012 1.43273C41.9876 1.01547 41.7952 0.519661 41.7455 1.5532e-05H37.5192C36.5051 -0.00258729 35.5172 0.322006 34.7023 0.925576C33.2559 1.98308 32.238 3.52554 31.8345 5.27133C31.431 7.01713 31.6689 8.8498 32.5047 10.4348L36.395 17.873C36.4734 18.0217 36.5119 18.1881 36.507 18.3561C36.502 18.524 36.4537 18.6879 36.3667 18.8317C36.2797 18.9754 36.157 19.0943 36.0105 19.1766C35.8641 19.2589 35.6987 19.302 35.5307 19.3015H19.0481V5.07158H25.1763C25.8488 5.07158 26.4938 4.80442 26.9693 4.32887C27.4449 3.85331 27.712 3.20833 27.712 2.5358C27.712 1.86327 27.4449 1.21828 26.9693 0.742729C26.4938 0.267177 25.8488 1.5532e-05 25.1763 1.5532e-05H18.7248C17.466 0.00169282 16.2593 0.502492 15.3691 1.3926C14.479 2.2827 13.9782 3.48947 13.9766 4.74827V19.6333C13.9782 20.8921 14.479 22.0989 15.3691 22.989C16.2593 23.8791 17.466 24.3799 18.7248 24.3816H26.9112C26.5646 23.4813 26.721 22.5325 27.3739 22.0444C28.2065 21.4231 29.5272 21.7845 30.3324 22.8495C30.67 23.2926 30.8692 23.8256 30.905 24.3816H35.5539C36.5926 24.3785 37.613 24.1081 38.5168 23.5962C39.4206 23.0844 40.1773 22.3484 40.7141 21.4591C41.2509 20.5699 41.5496 19.5574 41.5814 18.5192C41.6133 17.481 41.3772 16.4521 40.896 15.5317L37.0057 8.09338C36.7428 7.59472 36.6623 7.01992 36.778 6.46822C36.8937 5.91652 37.1985 5.42254 37.6396 5.07158H54.7562V21.8458C54.7562 22.5183 55.0233 23.1633 55.4989 23.6388C55.9744 24.1144 56.6194 24.3816 57.2919 24.3816C57.9645 24.3816 58.6095 24.1144 59.085 23.6388C59.5606 23.1633 59.8277 22.5183 59.8277 21.8458V4.74827C59.826 3.4902 59.3258 2.28407 58.4366 1.39409C57.5474 0.504103 56.3418 0.00281013 55.0837 1.5532e-05Z" fill="#34C1D5"/>
<path d="M3.3914 33.4529C3.3914 33.512 3.3914 33.5606 3.3914 33.6029C3.38884 33.6385 3.38319 33.6739 3.37449 33.7086C3.3686 33.735 3.35937 33.7605 3.34702 33.7846C3.33052 33.8111 3.31141 33.8359 3.28997 33.8586C3.24473 33.8996 3.19429 33.9344 3.13993 33.9621C3.05251 34.0102 2.96135 34.0512 2.86734 34.0847C2.74716 34.1279 2.62342 34.1604 2.49754 34.1819C2.34988 34.2099 2.19983 34.2234 2.04955 34.222C1.76125 34.2255 1.47477 34.1761 1.20429 34.0762C0.954485 33.9852 0.729942 33.8359 0.54921 33.6409C0.362717 33.4331 0.223567 33.1872 0.141372 32.9203C-0.0520336 32.2515 -0.0468945 31.5408 0.156164 30.8748C0.248137 30.5937 0.396232 30.3342 0.591473 30.112C0.778061 29.9065 1.00943 29.7467 1.26768 29.645C1.54214 29.537 1.83492 29.4831 2.12985 29.4865C2.25381 29.4861 2.37756 29.4967 2.49965 29.5182C2.61074 29.5374 2.72023 29.5649 2.82719 29.6006C2.9208 29.6316 3.01134 29.6712 3.09767 29.7189C3.15831 29.751 3.21504 29.79 3.26672 29.8351C3.29279 29.8582 3.31492 29.8853 3.33223 29.9154C3.34599 29.9406 3.35596 29.9677 3.36181 29.9957C3.36181 30.0296 3.36181 30.0676 3.37661 30.112C3.3914 30.1563 3.37661 30.2134 3.37661 30.2789C3.38028 30.3394 3.38028 30.4001 3.37661 30.4606C3.37356 30.5016 3.36576 30.542 3.35336 30.5811C3.34418 30.6068 3.32897 30.63 3.30899 30.6487C3.30176 30.6558 3.29316 30.6613 3.28371 30.665C3.27426 30.6686 3.26416 30.6703 3.25404 30.6698C3.20347 30.6633 3.15619 30.6411 3.1188 30.6064C3.05072 30.5571 2.9802 30.5113 2.90749 30.4691C2.8097 30.4127 2.7063 30.3667 2.59897 30.3317C2.46264 30.287 2.31977 30.2656 2.17634 30.2683C2.007 30.266 1.83958 30.3044 1.6882 30.3803C1.54354 30.4573 1.41847 30.5665 1.32262 30.6994C1.21708 30.8521 1.13978 31.0224 1.0944 31.2024C0.985945 31.6495 0.985945 32.1161 1.0944 32.5632C1.13946 32.7403 1.21998 32.9063 1.33108 33.0514C1.42581 33.1743 1.54913 33.2722 1.69031 33.3366C1.84613 33.4019 2.01375 33.4343 2.18268 33.4317C2.32572 33.4332 2.46818 33.4133 2.60531 33.3726C2.71209 33.3397 2.81542 33.2966 2.91383 33.2437C3.00047 33.1951 3.07231 33.1528 3.12514 33.1148C3.16215 33.0848 3.2068 33.0658 3.25404 33.0598C3.27384 33.059 3.2935 33.0634 3.3111 33.0725C3.32826 33.0877 3.34072 33.1075 3.34702 33.1295C3.35798 33.1682 3.36506 33.2078 3.36815 33.2479C3.38083 33.2986 3.3914 33.3662 3.3914 33.4529Z" fill="black"/>
<path d="M7.20385 32.4144C7.2075 32.6642 7.17185 32.9131 7.09819 33.1518C7.03203 33.364 6.92187 33.5599 6.77488 33.7266C6.62619 33.8913 6.44088 34.0187 6.23391 34.0985C5.99025 34.1902 5.73136 34.2347 5.47107 34.2295C5.22165 34.2352 4.97326 34.1958 4.7378 34.1133C4.54232 34.0418 4.36642 33.9252 4.22431 33.7731C4.08236 33.6155 3.97828 33.4276 3.92001 33.2237C3.84977 32.9814 3.8163 32.73 3.8207 32.4777C3.81787 32.2278 3.85423 31.9789 3.92847 31.7403C3.99367 31.5277 4.10394 31.3316 4.25178 31.1655C4.40096 31.0019 4.58617 30.8753 4.79275 30.7957C5.03535 30.7028 5.29378 30.6583 5.55348 30.6647C5.80408 30.6595 6.05364 30.6981 6.29097 30.7788C6.48762 30.8482 6.66454 30.9642 6.80658 31.1169C6.9471 31.2751 7.05036 31.4629 7.10876 31.6663C7.17756 31.9095 7.20961 32.1617 7.20385 32.4144ZM6.28674 32.4503C6.28728 32.3085 6.27454 32.167 6.24871 32.0276C6.22952 31.9042 6.18799 31.7854 6.12614 31.6769C6.06841 31.5821 5.98679 31.5041 5.88947 31.4508C5.77532 31.392 5.64797 31.3636 5.51967 31.3683C5.39931 31.3659 5.28 31.3912 5.171 31.4423C5.07272 31.49 4.98886 31.5629 4.92799 31.6536C4.8597 31.7565 4.81098 31.8711 4.78429 31.9917C4.75051 32.1386 4.7342 32.289 4.73569 32.4397C4.73485 32.5816 4.7483 32.7232 4.77584 32.8623C4.79763 32.9827 4.83979 33.0985 4.90052 33.2047C4.95741 33.2996 5.03928 33.3771 5.13719 33.4287C5.2513 33.4852 5.37758 33.5128 5.50488 33.509C5.62593 33.5116 5.74597 33.4863 5.85566 33.435C5.95472 33.3876 6.03933 33.3147 6.10079 33.2237C6.16789 33.1212 6.21586 33.0073 6.24237 32.8877C6.27385 32.7441 6.28874 32.5973 6.28674 32.4503Z" fill="black"/>
<path d="M10.9283 34.0214C10.9292 34.0444 10.9217 34.0669 10.9072 34.0848C10.8881 34.1053 10.8641 34.1206 10.8374 34.1292C10.7926 34.142 10.7466 34.1505 10.7001 34.1546C10.6297 34.1584 10.5592 34.1584 10.4888 34.1546C10.4184 34.1582 10.3479 34.1582 10.2775 34.1546C10.2317 34.1503 10.1864 34.1418 10.1422 34.1292C10.115 34.1205 10.0904 34.1053 10.0704 34.0848C10.0568 34.0665 10.0494 34.0443 10.0492 34.0214V32.2189C10.0528 32.0975 10.0415 31.9762 10.0154 31.8576C9.99682 31.777 9.9639 31.7004 9.91823 31.6315C9.87713 31.5692 9.82026 31.5188 9.7534 31.4857C9.68027 31.4506 9.59992 31.4332 9.51884 31.4349C9.39359 31.4383 9.27277 31.482 9.1744 31.5596C9.03751 31.6624 8.91586 31.7841 8.81305 31.921V34.0214C8.8129 34.0443 8.8055 34.0665 8.79192 34.0848C8.77146 34.1057 8.746 34.121 8.71796 34.1292C8.67376 34.1418 8.62849 34.1503 8.58272 34.1546C8.44216 34.168 8.30064 34.168 8.16009 34.1546C8.11432 34.1503 8.06904 34.1418 8.02485 34.1292C7.99681 34.121 7.97135 34.1057 7.95088 34.0848C7.9364 34.0669 7.9289 34.0444 7.92975 34.0214V30.8517C7.92958 30.8301 7.93544 30.8089 7.94666 30.7904C7.96287 30.7687 7.98596 30.753 8.01217 30.746C8.05025 30.7318 8.09003 30.7225 8.1305 30.7186C8.19102 30.7149 8.25171 30.7149 8.31223 30.7186C8.37487 30.7148 8.43767 30.7148 8.5003 30.7186C8.54018 30.722 8.57934 30.7312 8.61653 30.746C8.64017 30.7537 8.66037 30.7694 8.67358 30.7904C8.68639 30.8083 8.69306 30.8298 8.6926 30.8517V31.2173C8.84432 31.0467 9.0245 30.9037 9.22511 30.7947C9.39939 30.7017 9.5939 30.653 9.79144 30.6531C9.97814 30.6467 10.1638 30.6828 10.3345 30.7587C10.4765 30.8237 10.6 30.9233 10.6938 31.0482C10.787 31.1744 10.8539 31.3182 10.8903 31.4709C10.9332 31.6636 10.9531 31.8608 10.9494 32.0583L10.9283 34.0214Z" fill="black"/>
<path d="M14.0367 33.1349C14.04 33.2984 14.0053 33.4605 13.9353 33.6083C13.8693 33.7444 13.7714 33.8625 13.65 33.9527C13.5202 34.051 13.3723 34.1228 13.2147 34.164C13.037 34.2118 12.8536 34.2353 12.6695 34.2338C12.5555 34.2345 12.4417 34.2253 12.3293 34.2063C12.2321 34.191 12.1361 34.1691 12.0419 34.1408C11.9692 34.1186 11.8985 34.0903 11.8306 34.0563C11.7853 34.0357 11.7433 34.0087 11.7059 33.976C11.6754 33.9437 11.6549 33.9034 11.6467 33.8597C11.6299 33.7827 11.6228 33.7039 11.6256 33.6252C11.6256 33.5561 11.6256 33.5012 11.6256 33.4603C11.6286 33.4265 11.6357 33.3932 11.6467 33.361C11.6528 33.3406 11.6655 33.3228 11.6827 33.3103C11.6988 33.3015 11.7171 33.2971 11.7355 33.2976C11.7772 33.3032 11.8169 33.3184 11.8517 33.342C11.9024 33.3716 11.9658 33.4054 12.0398 33.4392C12.1252 33.4789 12.2135 33.5121 12.3039 33.5385C12.415 33.5712 12.5305 33.5869 12.6463 33.585C12.7175 33.5855 12.7885 33.577 12.8576 33.5597C12.915 33.5446 12.9698 33.5211 13.0203 33.4899C13.0649 33.4606 13.1007 33.4197 13.1238 33.3716C13.1493 33.3212 13.1616 33.2653 13.1598 33.2089C13.1614 33.1422 13.1381 33.0774 13.0942 33.0272C13.0452 32.9725 12.9864 32.9274 12.921 32.894C12.842 32.8527 12.7601 32.8174 12.6758 32.7884C12.585 32.7546 12.492 32.7186 12.3969 32.6785C12.3002 32.6384 12.2063 32.5918 12.1159 32.539C12.0254 32.4878 11.9428 32.4238 11.8707 32.3488C11.7965 32.2688 11.7377 32.1756 11.6975 32.0741C11.6505 31.9522 11.6282 31.8222 11.6319 31.6916C11.6295 31.5459 11.6599 31.4015 11.7207 31.269C11.7792 31.1426 11.8669 31.0318 11.9764 30.9457C12.0961 30.8488 12.2341 30.777 12.3821 30.7344C12.5561 30.6822 12.7372 30.6573 12.9189 30.6604C13.0158 30.6599 13.1126 30.6669 13.2084 30.6816C13.294 30.6934 13.3787 30.711 13.4619 30.7344C13.5269 30.7523 13.5905 30.7749 13.6521 30.802C13.6918 30.8196 13.7294 30.8416 13.7641 30.8675C13.7841 30.8812 13.8007 30.8993 13.8127 30.9203C13.8229 30.9403 13.83 30.9617 13.8338 30.9837C13.8338 31.0091 13.8339 31.0387 13.8465 31.0767C13.8592 31.1148 13.8465 31.157 13.8465 31.212C13.8465 31.2669 13.8465 31.3282 13.8465 31.3683C13.8439 31.4007 13.8375 31.4326 13.8275 31.4634C13.8228 31.4833 13.8108 31.5007 13.7937 31.512C13.7791 31.521 13.7622 31.5254 13.7451 31.5247C13.7095 31.5197 13.6756 31.5067 13.6458 31.4867C13.6014 31.4613 13.5443 31.4359 13.4767 31.4064C13.4009 31.3755 13.3233 31.3494 13.2443 31.3282C13.1451 31.3015 13.0427 31.2887 12.94 31.2901C12.8687 31.2887 12.7976 31.2973 12.7287 31.3155C12.676 31.3291 12.6265 31.3528 12.5829 31.3852C12.5473 31.4144 12.5188 31.4512 12.4994 31.4929C12.48 31.5346 12.4703 31.5801 12.4709 31.6261C12.4682 31.6946 12.4925 31.7613 12.5385 31.8121C12.5889 31.8656 12.6483 31.9099 12.7139 31.9431C12.7953 31.9839 12.8793 32.0192 12.9653 32.0488L13.2485 32.1565C13.3455 32.1967 13.4401 32.2426 13.5317 32.2939C13.6238 32.3445 13.7078 32.4086 13.781 32.4841C13.8568 32.5629 13.9171 32.6554 13.9585 32.7567C14.0099 32.8762 14.0365 33.0048 14.0367 33.1349Z" fill="black"/>
<path d="M17.6246 32.3554C17.6316 32.4418 17.606 32.5278 17.5527 32.5963C17.5253 32.624 17.4922 32.6453 17.4557 32.6588C17.4192 32.6723 17.3802 32.6777 17.3414 32.6745H15.4269C15.4259 32.798 15.4422 32.9211 15.4755 33.04C15.5042 33.1441 15.5562 33.2402 15.6276 33.3211C15.7023 33.4005 15.7951 33.4607 15.8981 33.4965C16.0254 33.539 16.1591 33.5591 16.2933 33.5556C16.4307 33.5575 16.568 33.5462 16.7032 33.5218C16.8069 33.5039 16.9092 33.4791 17.0096 33.4479C17.0963 33.4204 17.1681 33.3972 17.2209 33.3739C17.2642 33.3541 17.3108 33.3426 17.3583 33.3401C17.3768 33.3392 17.3951 33.3436 17.4111 33.3528C17.4278 33.3631 17.4404 33.3787 17.4471 33.3972C17.4594 33.4259 17.4658 33.4568 17.4661 33.488C17.4687 33.5366 17.4687 33.5853 17.4661 33.6338C17.4661 33.6867 17.4661 33.731 17.4661 33.767C17.4661 33.8029 17.4661 33.8346 17.4555 33.8621C17.4523 33.885 17.4452 33.9071 17.4344 33.9276C17.4246 33.9459 17.4125 33.9629 17.3984 33.9783C17.3596 34.0067 17.3169 34.0295 17.2717 34.0459C17.1861 34.0788 17.0986 34.1064 17.0096 34.1283C16.904 34.1558 16.7814 34.179 16.6441 34.2002C16.4984 34.2201 16.3515 34.23 16.2045 34.2297C15.9539 34.2339 15.7043 34.1983 15.4649 34.1241C15.2634 34.06 15.0809 33.9473 14.9334 33.7958C14.786 33.6443 14.6782 33.4587 14.6197 33.2556C14.5459 33.0046 14.511 32.7437 14.5161 32.4822C14.5123 32.2244 14.5494 31.9676 14.626 31.7214C14.6918 31.51 14.8004 31.3143 14.9451 31.1467C15.085 30.9894 15.2592 30.8664 15.4543 30.7874C15.8911 30.6282 16.37 30.6282 16.8068 30.7874C16.9839 30.858 17.1423 30.9687 17.2695 31.1107C17.3931 31.2517 17.4853 31.4174 17.54 31.5968C17.5985 31.7971 17.627 32.0051 17.6246 32.2138V32.3554ZM16.7603 32.0997C16.779 31.8918 16.726 31.6838 16.6102 31.5101C16.5504 31.4372 16.4738 31.3799 16.3869 31.3431C16.3 31.3063 16.2056 31.2911 16.1115 31.2988C16.0093 31.2963 15.9079 31.318 15.8157 31.3622C15.7328 31.4029 15.6605 31.4622 15.6044 31.5355C15.5472 31.6117 15.5043 31.6976 15.4776 31.7891C15.4488 31.8903 15.4317 31.9945 15.4269 32.0997H16.7603Z" fill="black"/>
<path d="M19.3205 34.1337C19.3255 34.3364 19.3042 34.5388 19.2571 34.736C19.2205 34.8775 19.1551 35.0099 19.0648 35.1248C18.9778 35.2296 18.8659 35.311 18.7393 35.3615C18.5938 35.4175 18.4388 35.4447 18.2829 35.4418C18.1993 35.4433 18.1157 35.4362 18.0335 35.4206C17.9828 35.4133 17.9331 35.3998 17.8856 35.3805C17.8587 35.3712 17.8362 35.3524 17.8222 35.3277C17.8095 35.3054 17.8009 35.2811 17.7969 35.2558C17.7969 35.2283 17.7969 35.1966 17.7969 35.1628C17.7969 35.129 17.7969 35.0846 17.7969 35.0297C17.7969 34.9748 17.7969 34.9093 17.7969 34.8649C17.7973 34.8295 17.8037 34.7945 17.8159 34.7613C17.8209 34.7397 17.8319 34.7199 17.8476 34.7043C17.8536 34.698 17.8608 34.6931 17.8688 34.6898C17.8768 34.6865 17.8854 34.685 17.8941 34.6853L17.9659 34.6958C18.0053 34.6981 18.0449 34.6981 18.0843 34.6958C18.1392 34.6968 18.1939 34.6868 18.2449 34.6662C18.2889 34.6472 18.3269 34.6165 18.3547 34.5775C18.3852 34.5281 18.4067 34.4737 18.4181 34.4169C18.4354 34.3143 18.4425 34.2102 18.4393 34.1063V30.871C18.4385 30.8487 18.4461 30.8269 18.4604 30.8097C18.4801 30.7885 18.5048 30.7726 18.5323 30.7633C18.5752 30.7479 18.6199 30.7379 18.6654 30.7337C18.8059 30.7203 18.9475 30.7203 19.088 30.7337C19.1348 30.7382 19.1809 30.7482 19.2254 30.7633C19.2528 30.7726 19.2775 30.7885 19.2972 30.8097C19.3116 30.8269 19.3191 30.8487 19.3183 30.871L19.3205 34.1337ZM19.3881 29.7954C19.4028 29.9288 19.364 30.0625 19.2803 30.1673C19.16 30.2487 19.0147 30.2846 18.8704 30.2688C18.7282 30.2854 18.5849 30.2501 18.4667 30.1695C18.4258 30.1202 18.3953 30.0632 18.3771 30.0018C18.359 29.9404 18.3535 29.8759 18.3611 29.8123C18.3536 29.7458 18.3594 29.6785 18.3783 29.6142C18.3972 29.55 18.4287 29.4902 18.471 29.4383C18.5956 29.3699 18.7355 29.334 18.8778 29.334C19.02 29.334 19.1599 29.3699 19.2845 29.4383C19.364 29.5394 19.4011 29.6675 19.3881 29.7954Z" fill="black"/>
<path d="M23.4132 32.4144C23.4158 32.6641 23.3802 32.9128 23.3075 33.1518C23.2413 33.364 23.1312 33.5599 22.9842 33.7266C22.8347 33.8913 22.6487 34.0187 22.4411 34.0985C22.1981 34.19 21.94 34.2345 21.6804 34.2295C21.4303 34.235 21.1812 34.1956 20.945 34.1133C20.7486 34.0423 20.5719 33.9257 20.4294 33.7731C20.2875 33.6151 20.1828 33.4274 20.123 33.2237C20.0538 32.9812 20.0203 32.7299 20.0237 32.4777C20.0208 32.2278 20.0572 31.9789 20.1314 31.7403C20.1982 31.5279 20.3091 31.332 20.4569 31.1655C20.6057 31.0015 20.791 30.8748 20.9978 30.7957C21.2404 30.7028 21.4989 30.6583 21.7586 30.6647C22.0092 30.6595 22.2587 30.6981 22.4961 30.7788C22.6924 30.8487 22.8692 30.9646 23.0117 31.1169C23.1522 31.2751 23.2554 31.4629 23.3138 31.6663C23.3832 31.9095 23.4167 32.1615 23.4132 32.4144ZM22.4961 32.4503C22.4966 32.3085 22.4839 32.167 22.458 32.0276C22.4365 31.9069 22.3936 31.791 22.3312 31.6853C22.2741 31.5908 22.1932 31.5129 22.0967 31.4592C21.9824 31.4007 21.8551 31.3724 21.7269 31.3768C21.6065 31.3744 21.4872 31.3997 21.3782 31.4508C21.2796 31.4988 21.1951 31.5716 21.1331 31.6621C21.0665 31.7659 21.0179 31.8802 20.9894 32.0002C20.9564 32.1472 20.9408 32.2975 20.9429 32.4482C20.9424 32.5899 20.9551 32.7314 20.9809 32.8708C21.0034 32.9913 21.0463 33.1071 21.1077 33.2131C21.1638 33.308 21.2449 33.3855 21.3423 33.4371C21.457 33.4939 21.5841 33.5215 21.7121 33.5174C21.8331 33.52 21.9532 33.4947 22.0629 33.4435C22.1615 33.3954 22.2459 33.3226 22.308 33.2321C22.3751 33.1296 22.4231 33.0158 22.4496 32.8962C22.4814 32.7497 22.497 32.6002 22.4961 32.4503Z" fill="black"/>
<path d="M28.5275 32.7731C28.5326 32.9921 28.4863 33.2092 28.3922 33.4071C28.3069 33.584 28.1827 33.7393 28.0288 33.8614C27.8685 33.9867 27.6855 34.08 27.4899 34.1361C27.278 34.1996 27.0581 34.2323 26.837 34.2333C26.6889 34.2342 26.541 34.2215 26.3953 34.1953C26.2734 34.1725 26.1533 34.1407 26.0361 34.1002C25.9453 34.0707 25.8575 34.0325 25.774 33.9861C25.7197 33.9566 25.6692 33.9204 25.624 33.8783C25.5891 33.8417 25.5662 33.7952 25.5585 33.7452C25.5437 33.6629 25.5373 33.5794 25.5395 33.4958C25.5395 33.4211 25.5395 33.3599 25.5395 33.312C25.5421 33.271 25.5499 33.2305 25.5627 33.1915C25.5698 33.1659 25.5846 33.143 25.605 33.126C25.6236 33.1132 25.6458 33.1065 25.6684 33.107C25.7189 33.1141 25.7668 33.1337 25.8079 33.164C25.8827 33.2122 25.9603 33.2559 26.0403 33.2951C26.1493 33.3471 26.2624 33.3902 26.3784 33.424C26.5264 33.4642 26.6794 33.4834 26.8327 33.481C26.9363 33.4827 27.0395 33.4692 27.1391 33.4409C27.2214 33.4167 27.2987 33.378 27.3674 33.3268C27.4288 33.2765 27.478 33.2129 27.5111 33.1408C27.544 33.0641 27.5605 32.9813 27.5597 32.8978C27.563 32.8013 27.5331 32.7066 27.4751 32.6294C27.4135 32.5506 27.3384 32.4833 27.2532 32.4308C27.1539 32.3689 27.0501 32.3145 26.9426 32.2681L26.5855 32.1075C26.4625 32.0502 26.3432 31.9853 26.2284 31.9131C26.1134 31.8419 26.0089 31.7551 25.9177 31.6552C25.8241 31.5497 25.749 31.4289 25.6959 31.2981C25.5712 30.9493 25.5848 30.5659 25.7339 30.2268C25.8094 30.0622 25.9223 29.9175 26.0635 29.8041C26.2085 29.6911 26.3744 29.6078 26.5517 29.559C26.8518 29.4738 27.1668 29.4544 27.4751 29.5019C27.5781 29.5168 27.6798 29.5394 27.7794 29.5696C27.8659 29.5936 27.9501 29.6255 28.0309 29.6647C28.0835 29.6871 28.1326 29.717 28.1767 29.7534C28.2141 29.7862 28.2388 29.831 28.2464 29.8802C28.2535 29.9136 28.2578 29.9475 28.2591 29.9816C28.2591 30.0239 28.2591 30.0746 28.2591 30.1359C28.2591 30.1972 28.2591 30.2627 28.2591 30.3092C28.2557 30.3489 28.2501 30.3884 28.2422 30.4275C28.236 30.4527 28.2237 30.4759 28.2063 30.4951C28.1882 30.5093 28.1658 30.5168 28.1429 30.5163C28.0987 30.5089 28.0568 30.4916 28.0203 30.4655C27.9626 30.4331 27.8921 30.3972 27.809 30.3578C27.7159 30.3157 27.6198 30.2803 27.5216 30.2521C27.4048 30.219 27.2838 30.2027 27.1624 30.2035C27.0728 30.2017 26.9836 30.2145 26.8982 30.2416C26.8287 30.2623 26.764 30.2968 26.7081 30.343C26.6582 30.3862 26.6191 30.4405 26.5939 30.5015C26.5693 30.5633 26.5571 30.6293 26.558 30.6959C26.5551 30.7907 26.5841 30.8837 26.6404 30.96C26.7007 31.0409 26.777 31.1085 26.8644 31.1587C26.9655 31.2213 27.0715 31.2757 27.1814 31.3214C27.2997 31.3721 27.4202 31.427 27.5428 31.4841C27.6666 31.5415 27.7873 31.6057 27.9041 31.6764C28.0213 31.747 28.1274 31.8346 28.219 31.9363C28.314 32.0397 28.3898 32.1592 28.443 32.2892C28.5031 32.4433 28.5318 32.6078 28.5275 32.7731Z" fill="black"/>
<path d="M32.1879 34.0211C32.1891 34.0435 32.1832 34.0657 32.171 34.0845C32.1549 34.1045 32.1337 34.1198 32.1097 34.1289C32.0712 34.1413 32.0316 34.1498 31.9914 34.1543C31.9309 34.1582 31.8702 34.1582 31.8096 34.1543C31.7463 34.1583 31.6828 34.1583 31.6195 34.1543C31.5806 34.1502 31.5423 34.1416 31.5053 34.1289C31.4813 34.1198 31.4602 34.1045 31.4441 34.0845C31.4328 34.0653 31.4269 34.0434 31.4272 34.0211V33.6619C31.274 33.8318 31.0933 33.9747 30.8925 34.0845C30.7197 34.1774 30.5266 34.2261 30.3304 34.2261C30.1425 34.2314 29.9556 34.1954 29.7831 34.1204C29.642 34.0539 29.5194 33.9538 29.426 33.8288C29.333 33.7027 29.2668 33.5589 29.2316 33.4062C29.1881 33.2078 29.1682 33.0049 29.1724 32.8018V30.8662C29.172 30.8442 29.1786 30.8227 29.1914 30.8049C29.2095 30.7822 29.2349 30.7665 29.2633 30.7605C29.3079 30.746 29.3539 30.7368 29.4006 30.7331C29.471 30.7295 29.5416 30.7295 29.612 30.7331C29.6824 30.7294 29.7529 30.7294 29.8233 30.7331C29.8693 30.7368 29.9147 30.746 29.9585 30.7605C29.9873 30.767 30.0132 30.7826 30.0325 30.8049C30.0468 30.822 30.0543 30.8439 30.0536 30.8662V32.6539C30.0501 32.7808 30.0607 32.9077 30.0853 33.0322C30.1034 33.1129 30.1363 33.1896 30.1825 33.2583C30.2256 33.3191 30.2829 33.3684 30.3495 33.402C30.4227 33.439 30.5041 33.4571 30.5861 33.4548C30.7099 33.4504 30.8291 33.4068 30.9263 33.3301C31.0644 33.2265 31.1881 33.105 31.294 32.9688V30.8662C31.2936 30.8442 31.3002 30.8227 31.3131 30.8049C31.3314 30.7826 31.3567 30.767 31.3849 30.7605C31.4288 30.7462 31.4742 30.737 31.5201 30.7331C31.6643 30.7218 31.8092 30.7218 31.9533 30.7331C31.9994 30.7368 32.0448 30.746 32.0886 30.7605C32.1159 30.7676 32.1404 30.7831 32.1583 30.8049C32.1727 30.822 32.1802 30.8439 32.1794 30.8662L32.1879 34.0211Z" fill="black"/>
<path d="M36.2643 32.4004C36.2678 32.6562 36.2373 32.9113 36.1735 33.159C36.1226 33.3662 36.033 33.562 35.9093 33.7359C35.7998 33.8899 35.6548 34.0152 35.4867 34.1015C35.3018 34.1886 35.0994 34.232 34.895 34.2283C34.8097 34.2294 34.7245 34.2201 34.6414 34.2008C34.5637 34.1836 34.4884 34.1566 34.4174 34.1205C34.3426 34.0819 34.2718 34.0359 34.2061 33.9831C34.1316 33.9244 34.061 33.8609 33.9948 33.7929V35.2722C33.9945 35.2953 33.9863 35.3177 33.9716 35.3355C33.953 35.3586 33.928 35.3755 33.8997 35.3841C33.8553 35.3995 33.8092 35.4094 33.7624 35.4137C33.6922 35.4221 33.6216 35.4256 33.551 35.4243C33.4804 35.4256 33.4098 35.422 33.3397 35.4137C33.2929 35.4094 33.2468 35.3995 33.2024 35.3841C33.1744 35.3749 33.1495 35.3581 33.1305 35.3355C33.1164 35.3175 33.1089 35.2951 33.1094 35.2722V30.8557C33.1092 30.8341 33.1151 30.8128 33.1263 30.7944C33.1421 30.7731 33.1643 30.7576 33.1897 30.75C33.227 30.7357 33.2661 30.7265 33.3059 30.7225C33.3664 30.7188 33.4271 30.7188 33.4877 30.7225C33.5475 30.7188 33.6075 30.7188 33.6673 30.7225C33.7071 30.7265 33.7462 30.7357 33.7835 30.75C33.8089 30.7576 33.8311 30.7731 33.8469 30.7944C33.8581 30.8128 33.864 30.8341 33.8638 30.8557V31.2276C33.9496 31.1399 34.0399 31.0566 34.1343 30.9782C34.2189 30.9088 34.3102 30.8479 34.4069 30.7965C34.4973 30.7492 34.5931 30.713 34.6921 30.6887C34.7947 30.6653 34.8997 30.654 35.0049 30.6549C35.2105 30.6483 35.4143 30.6949 35.5966 30.7902C35.7588 30.8796 35.8961 31.0082 35.996 31.1642C36.1036 31.3338 36.1802 31.5213 36.2221 31.7178C36.2612 31.9431 36.2754 32.172 36.2643 32.4004ZM35.3367 32.4638C35.337 32.3335 35.3264 32.2034 35.305 32.075C35.2888 31.9597 35.2545 31.8478 35.2035 31.7432C35.1591 31.6514 35.0931 31.5716 35.0112 31.5107C34.9245 31.4508 34.8208 31.4204 34.7154 31.4241C34.6558 31.4238 34.5966 31.433 34.54 31.4516C34.477 31.4717 34.4172 31.5009 34.3625 31.5382C34.2953 31.5838 34.233 31.6362 34.1765 31.6946C34.1001 31.7679 34.0294 31.847 33.9652 31.9313V32.9646C34.0684 33.1016 34.1884 33.2251 34.3223 33.3323C34.4229 33.4137 34.5479 33.4591 34.6774 33.4612C34.7829 33.4639 34.8866 33.4328 34.9732 33.3724C35.0566 33.3108 35.1251 33.2314 35.1739 33.14C35.2271 33.0381 35.2655 32.9293 35.2881 32.8167C35.3162 32.701 35.3325 32.5828 35.3367 32.4638Z" fill="black"/>
<path d="M39.8979 32.3552C39.9043 32.442 39.8779 32.528 39.8239 32.5961C39.7978 32.6225 39.7665 32.6432 39.7319 32.6566C39.6973 32.6701 39.6603 32.6761 39.6232 32.6743H37.7002C37.6985 32.7978 37.7142 32.9208 37.7467 33.0399C37.7754 33.1439 37.8274 33.24 37.8988 33.3209C37.9735 33.4004 38.0663 33.4605 38.1693 33.4963C38.2966 33.5389 38.4303 33.5589 38.5645 33.5555C38.7019 33.5575 38.8392 33.5462 38.9744 33.5217C39.0788 33.5037 39.1818 33.479 39.283 33.4477C39.3675 33.4203 39.4393 33.397 39.4943 33.3738C39.5376 33.3542 39.5842 33.3427 39.6316 33.34C39.6507 33.3391 39.6697 33.3435 39.6866 33.3526C39.702 33.3637 39.7138 33.3792 39.7204 33.397C39.7326 33.4259 39.7397 33.4566 39.7415 33.4879C39.7415 33.5259 39.7415 33.5745 39.7415 33.6337C39.7439 33.678 39.7439 33.7225 39.7415 33.7668C39.7406 33.7988 39.737 33.8306 39.7309 33.8619C39.7278 33.8848 39.7206 33.907 39.7098 33.9274C39.7 33.9458 39.6879 33.9628 39.6739 33.9781C39.6353 34.0071 39.5926 34.0299 39.5471 34.0458C39.4616 34.0787 39.3741 34.1062 39.2851 34.1282C39.1794 34.1556 39.0568 34.1789 38.9195 34.2C38.7738 34.22 38.627 34.2299 38.48 34.2296C38.2294 34.2336 37.9798 34.198 37.7404 34.1239C37.5382 34.0613 37.3549 33.9489 37.2072 33.7972C37.0596 33.6455 36.9523 33.4593 36.8951 33.2554C36.8206 33.0045 36.785 32.7437 36.7894 32.482C36.7857 32.2242 36.8227 31.9675 36.8993 31.7213C36.9651 31.5098 37.0737 31.3142 37.2184 31.1465C37.3583 30.9892 37.5326 30.8663 37.7277 30.7873C37.9421 30.7024 38.1712 30.6607 38.4018 30.6647C38.634 30.6584 38.8652 30.6979 39.0822 30.7809C39.2588 30.8526 39.417 30.9631 39.545 31.1043C39.668 31.2471 39.7581 31.4152 39.8091 31.5966C39.8683 31.7969 39.8975 32.0048 39.8958 32.2137L39.8979 32.3552ZM39.0315 32.0995C39.0512 31.8916 38.9982 31.6832 38.8815 31.51C38.8217 31.4369 38.7451 31.3795 38.6582 31.3427C38.5713 31.3058 38.4768 31.2907 38.3828 31.2987C38.2805 31.2964 38.1792 31.3181 38.0869 31.3621C38.0047 31.4038 37.9326 31.4629 37.8756 31.5353C37.8184 31.6116 37.7755 31.6975 37.7488 31.7889C37.7187 31.8913 37.7017 31.9971 37.6981 32.1038L39.0315 32.0995Z" fill="black"/>
<path d="M42.6644 31.1591C42.6644 31.2464 42.6644 31.3168 42.6644 31.3704C42.6603 31.4138 42.6533 31.4568 42.6433 31.4993C42.6362 31.5233 42.6231 31.5451 42.6053 31.5627C42.5882 31.5752 42.5672 31.5812 42.5461 31.5796C42.5244 31.579 42.503 31.5748 42.4827 31.5669L42.4024 31.5415C42.3706 31.5306 42.3381 31.5214 42.3052 31.5141C42.2671 31.5053 42.2281 31.5011 42.189 31.5014C42.1374 31.5017 42.0863 31.5125 42.039 31.5331C41.9835 31.5568 41.9315 31.5881 41.8847 31.6261C41.8236 31.6768 41.7683 31.7343 41.7199 31.7972C41.6521 31.8803 41.5899 31.9678 41.5339 32.0593V34.0224C41.534 34.0456 41.5257 34.0681 41.5107 34.0858C41.4911 34.1067 41.4663 34.122 41.4388 34.1301C41.3939 34.1428 41.3479 34.1513 41.3015 34.1555C41.2311 34.1593 41.1605 34.1593 41.0902 34.1555C41.0198 34.1593 40.9492 34.1593 40.8788 34.1555C40.8324 34.1513 40.7864 34.1428 40.7415 34.1301C40.7143 34.1214 40.6896 34.1062 40.6696 34.0858C40.6552 34.0679 40.6476 34.0454 40.6485 34.0224V30.8527C40.6483 30.8311 40.6542 30.8098 40.6654 30.7914C40.6812 30.7701 40.7034 30.7546 40.7288 30.747C40.7677 30.733 40.8081 30.7238 40.8493 30.7195C40.9098 30.7157 40.9705 30.7157 41.031 30.7195C41.0936 30.7158 41.1564 30.7158 41.2191 30.7195C41.2583 30.7229 41.2967 30.7321 41.3332 30.747C41.3571 30.7551 41.3779 30.7706 41.3923 30.7914C41.4045 30.8094 41.4105 30.8309 41.4092 30.8527V31.2457C41.4801 31.1428 41.5585 31.0454 41.6438 30.9541C41.708 30.8866 41.7788 30.8257 41.8551 30.7724C41.915 30.7289 41.9823 30.6967 42.0537 30.6773C42.1186 30.6605 42.1854 30.652 42.2524 30.6519C42.2855 30.6499 42.3186 30.6499 42.3517 30.6519C42.3886 30.6556 42.4253 30.6613 42.4616 30.6688C42.4954 30.6762 42.5286 30.6861 42.5609 30.6984C42.5834 30.7055 42.6042 30.717 42.6222 30.7322C42.6349 30.7424 42.645 30.7554 42.6518 30.7702C42.659 30.7893 42.6639 30.8092 42.6666 30.8294C42.6689 30.8667 42.6689 30.9041 42.6666 30.9414C42.6623 31.0069 42.6644 31.0745 42.6644 31.1591Z" fill="black"/>
<path d="M44.1727 29.7954C44.1868 29.9291 44.1473 30.0628 44.0629 30.1673C43.9431 30.2482 43.7987 30.2841 43.655 30.2688C43.5122 30.2857 43.3681 30.2504 43.2493 30.1695C43.2088 30.12 43.1785 30.0629 43.1604 30.0016C43.1422 29.9402 43.1365 29.8759 43.1436 29.8123C43.1291 29.6783 43.1678 29.544 43.2514 29.4383C43.3761 29.3699 43.516 29.334 43.6582 29.334C43.8004 29.334 43.9403 29.3699 44.065 29.4383C44.1056 29.4878 44.136 29.5448 44.1545 29.6061C44.173 29.6674 44.1792 29.7317 44.1727 29.7954ZM44.1051 34.0217C44.105 34.0446 44.0976 34.0668 44.084 34.0851C44.0632 34.1056 44.0378 34.1208 44.01 34.1295C43.9658 34.1421 43.9206 34.1506 43.8748 34.1549C43.7342 34.1683 43.5927 34.1683 43.4522 34.1549C43.4057 34.1504 43.3598 34.1419 43.3148 34.1295C43.2876 34.1208 43.2629 34.1055 43.2429 34.0851C43.2285 34.0672 43.221 34.0447 43.2218 34.0217V30.871C43.2211 30.8487 43.2286 30.8269 43.2429 30.8097C43.2627 30.7885 43.2874 30.7726 43.3148 30.7633C43.3593 30.7482 43.4054 30.7382 43.4522 30.7337C43.5927 30.7203 43.7342 30.7203 43.8748 30.7337C43.9209 30.738 43.9663 30.7479 44.01 30.7633C44.038 30.7727 44.0634 30.7886 44.084 30.8097C44.0975 30.8273 44.105 30.8488 44.1051 30.871V34.0217Z" fill="black"/>
<path d="M48.1951 32.4143C48.1977 32.6641 48.162 32.9128 48.0894 33.1518C48.0207 33.3647 47.9076 33.5606 47.7576 33.7266C47.6081 33.8913 47.4221 34.0186 47.2145 34.0985C46.9716 34.19 46.7134 34.2345 46.4538 34.2295C46.2037 34.2351 45.9546 34.1957 45.7184 34.1133C45.5217 34.0418 45.3444 33.9253 45.2007 33.7731C45.0595 33.615 44.9555 33.4272 44.8964 33.2237C44.8272 32.9812 44.7938 32.7299 44.7971 32.4777C44.7943 32.2278 44.8306 31.9789 44.9049 31.7402C44.9708 31.5275 45.0818 31.3315 45.2303 31.1655C45.3791 31.0015 45.5644 30.8748 45.7713 30.7956C46.0132 30.7029 46.2709 30.6584 46.5299 30.6646C46.7805 30.6592 47.0301 30.6978 47.2674 30.7787C47.4644 30.8473 47.6416 30.9634 47.783 31.1168C47.9249 31.2744 48.029 31.4623 48.0873 31.6663C48.1595 31.909 48.1958 32.1611 48.1951 32.4143ZM47.2758 32.4502C47.277 32.3086 47.265 32.1671 47.2399 32.0276C47.2184 31.9069 47.1754 31.7909 47.1131 31.6853C47.056 31.5908 46.9751 31.5128 46.8786 31.4592C46.7636 31.4004 46.6356 31.3721 46.5066 31.3768C46.387 31.3746 46.2684 31.3999 46.1601 31.4507C46.0615 31.4988 45.977 31.5716 45.915 31.662C45.8477 31.7655 45.7991 31.8799 45.7713 32.0001C45.7383 32.1471 45.7227 32.2975 45.7248 32.4481C45.7242 32.5899 45.737 32.7314 45.7628 32.8708C45.7843 32.9915 45.8273 33.1075 45.8896 33.2131C45.9457 33.3079 46.0268 33.3855 46.1242 33.4371C46.2389 33.4939 46.366 33.5215 46.494 33.5174C46.615 33.5198 46.735 33.4945 46.8447 33.4434C46.9432 33.396 47.0271 33.323 47.0878 33.2321C47.1564 33.1302 47.2052 33.0162 47.2315 32.8961C47.2625 32.7496 47.2774 32.6 47.2758 32.4502Z" fill="black"/>
<path d="M50.9281 31.159C50.932 31.2294 50.932 31.3 50.9281 31.3703C50.9261 31.414 50.919 31.4572 50.9069 31.4992C50.9013 31.5234 50.8888 31.5454 50.871 31.5626C50.8539 31.5752 50.8329 31.5811 50.8118 31.5795C50.7901 31.579 50.7687 31.5747 50.7484 31.5669L50.6681 31.5415C50.6363 31.5305 50.6038 31.5214 50.5709 31.514C50.5328 31.5053 50.4938 31.5011 50.4547 31.5014C50.4031 31.5017 50.352 31.5125 50.3047 31.5331C50.2489 31.5563 50.197 31.5876 50.1504 31.626C50.0891 31.6773 50.0332 31.7346 49.9835 31.7972C49.917 31.8813 49.855 31.9688 49.7975 32.0592V34.0223C49.7984 34.0453 49.7909 34.0679 49.7764 34.0857C49.7568 34.1067 49.732 34.122 49.7045 34.1301C49.6596 34.1427 49.6136 34.1512 49.5672 34.1555C49.4266 34.169 49.2851 34.169 49.1446 34.1555C49.0981 34.1512 49.0521 34.1427 49.0072 34.1301C48.9797 34.122 48.9549 34.1067 48.9354 34.0857C48.9209 34.0679 48.9134 34.0453 48.9142 34.0223V30.8526C48.913 30.8309 48.9189 30.8094 48.9311 30.7913C48.9469 30.7701 48.9692 30.7545 48.9945 30.747C49.0327 30.7329 49.0724 30.7237 49.1129 30.7195C49.1741 30.7157 49.2355 30.7157 49.2967 30.7195C49.3593 30.7157 49.4221 30.7157 49.4848 30.7195C49.5239 30.7231 49.5624 30.7324 49.5989 30.747C49.6228 30.7551 49.6436 30.7706 49.6581 30.7913C49.6693 30.8098 49.6751 30.831 49.675 30.8526V31.2457C49.7452 31.1423 49.8237 31.0448 49.9095 30.9541C49.9737 30.8865 50.0445 30.8257 50.1208 30.7723C50.1807 30.7288 50.248 30.6966 50.3195 30.6772C50.3844 30.6605 50.4511 30.652 50.5181 30.6519C50.5512 30.6499 50.5843 30.6499 50.6174 30.6519C50.6543 30.6556 50.691 30.6612 50.7273 30.6688C50.761 30.6765 50.7942 30.6864 50.8266 30.6984C50.8491 30.7055 50.8699 30.717 50.8879 30.7322C50.9006 30.7423 50.9108 30.7554 50.9175 30.7702C50.9237 30.7896 50.9286 30.8094 50.9323 30.8294C50.9381 30.8665 50.9416 30.9039 50.9428 30.9414C50.9281 31.0069 50.9281 31.0745 50.9281 31.159Z" fill="black"/>
<path d="M58.5226 34.0219C58.5228 34.0444 58.5162 34.0665 58.5036 34.0853C58.4863 34.1082 58.4617 34.1246 58.4339 34.1317C58.3891 34.1458 58.3431 34.1557 58.2965 34.1613C58.2261 34.1651 58.1556 34.1651 58.0852 34.1613C58.0148 34.1652 57.9443 34.1652 57.8739 34.1613C57.8279 34.156 57.7826 34.1461 57.7386 34.1317C57.7111 34.124 57.6866 34.1077 57.6689 34.0853C57.6548 34.0672 57.6473 34.0448 57.6478 34.0219V30.2879L56.3038 34.0219C56.2961 34.0512 56.28 34.0777 56.2573 34.0979C56.2327 34.1208 56.203 34.1374 56.1707 34.1465C56.1254 34.1601 56.0785 34.168 56.0312 34.1698C55.9742 34.1698 55.9065 34.1698 55.8199 34.1698C55.7495 34.1737 55.679 34.1737 55.6086 34.1698C55.5613 34.1653 55.5146 34.1561 55.4691 34.1423C55.4374 34.1319 55.4079 34.1154 55.3825 34.0937C55.3615 34.0763 55.3467 34.0526 55.3402 34.0261L54.0575 30.2985V34.0219C54.0577 34.0444 54.0511 34.0665 54.0385 34.0853C54.0208 34.1087 53.9954 34.1252 53.9667 34.1317C53.9218 34.1456 53.8759 34.1555 53.8293 34.1613C53.7589 34.1652 53.6884 34.1652 53.618 34.1613C53.5476 34.1652 53.4771 34.1652 53.4067 34.1613C53.3601 34.1557 53.3141 34.1458 53.2693 34.1317C53.2415 34.1246 53.2169 34.1082 53.1996 34.0853C53.187 34.0665 53.1804 34.0444 53.1806 34.0219V29.9329C53.1771 29.8828 53.1838 29.8324 53.2001 29.7849C53.2164 29.7373 53.2421 29.6935 53.2757 29.6561C53.3096 29.6237 53.3497 29.5985 53.3937 29.5821C53.4377 29.5658 53.4845 29.5586 53.5314 29.561H54.1399C54.2343 29.5596 54.3285 29.5681 54.421 29.5864C54.4931 29.6025 54.5613 29.6327 54.6217 29.6751C54.6807 29.7188 54.7291 29.7751 54.7633 29.8399C54.8067 29.9186 54.8401 30.0023 54.8626 30.0893L55.8558 32.8216H55.8706L56.8976 30.0956C56.924 30.009 56.9579 29.9248 56.999 29.8442C57.0315 29.7812 57.0752 29.7246 57.1279 29.6772C57.1772 29.6341 57.2358 29.603 57.2991 29.5864C57.3745 29.5684 57.4519 29.5599 57.5294 29.561H58.1634C58.2194 29.5598 58.2752 29.5684 58.3282 29.5864C58.3718 29.6 58.4111 29.6248 58.4423 29.6582C58.4722 29.6918 58.4945 29.7314 58.5078 29.7744C58.5247 29.8255 58.5326 29.8791 58.5311 29.9329L58.5226 34.0219Z" fill="black"/>
<path d="M62.3902 32.3546C62.3972 32.4411 62.3716 32.527 62.3183 32.5955C62.2923 32.6219 62.2609 32.6425 62.2263 32.656C62.1917 32.6695 62.1547 32.6755 62.1176 32.6737H60.1925C60.1915 32.7972 60.2079 32.9203 60.2411 33.0393C60.2698 33.1433 60.3218 33.2394 60.3933 33.3203C60.468 33.3997 60.5608 33.4599 60.6637 33.4957C60.791 33.5383 60.9247 33.5583 61.0589 33.5549C61.1963 33.5568 61.3336 33.5455 61.4688 33.5211C61.5725 33.5033 61.6749 33.4786 61.7753 33.4471C61.8619 33.4196 61.9337 33.3964 61.9866 33.3731C62.0299 33.3535 62.0765 33.3421 62.1239 33.3393C62.1424 33.3385 62.1607 33.3429 62.1768 33.352C62.1934 33.3623 62.2061 33.378 62.2127 33.3964C62.225 33.4251 62.2315 33.456 62.2317 33.4873C62.2343 33.5358 62.2343 33.5845 62.2317 33.6331C62.2317 33.6859 62.2317 33.7303 62.2317 33.7662C62.2317 33.8021 62.2317 33.8338 62.2211 33.8613C62.218 33.8842 62.2108 33.9064 62.2 33.9268C62.1902 33.9451 62.1781 33.9622 62.1641 33.9775C62.1252 34.0059 62.0825 34.0287 62.0373 34.0451C61.9518 34.0781 61.8642 34.1056 61.7753 34.1275C61.6696 34.155 61.547 34.1783 61.4097 34.1994C61.264 34.2193 61.1172 34.2292 60.9701 34.229C60.7196 34.2332 60.4699 34.1975 60.2305 34.1233C60.0291 34.0593 59.8465 33.9465 59.6991 33.795C59.5516 33.6435 59.4438 33.4579 59.3853 33.2548C59.3116 33.0038 59.2766 32.743 59.2817 32.4814C59.278 32.2236 59.315 31.9668 59.3916 31.7207C59.4574 31.5092 59.566 31.3136 59.7107 31.1459C59.8506 30.9886 60.0249 30.8657 60.22 30.7867C60.6567 30.6274 61.1357 30.6274 61.5724 30.7867C61.7496 30.8572 61.908 30.9679 62.0352 31.11C62.158 31.2532 62.2488 31.4211 62.3014 31.6023C62.3599 31.8027 62.3884 32.0106 62.386 32.2194L62.3902 32.3546ZM61.5259 32.0989C61.5446 31.891 61.4917 31.683 61.3759 31.5093C61.316 31.4364 61.2394 31.3791 61.1525 31.3423C61.0657 31.3055 60.9712 31.2903 60.8772 31.298C60.7749 31.2956 60.6736 31.3173 60.5813 31.3614C60.4985 31.4021 60.4261 31.4614 60.37 31.5347C60.3129 31.6109 60.2699 31.6968 60.2432 31.7883C60.2133 31.8908 60.1956 31.9965 60.1904 32.1031L61.5259 32.0989ZM61.0272 29.3117C61.061 29.2578 61.1138 29.2186 61.1751 29.2018C61.2193 29.1894 61.2646 29.1816 61.3104 29.1785C61.3765 29.1749 61.4428 29.1749 61.509 29.1785C61.5945 29.1778 61.6799 29.1828 61.7647 29.1933C61.8118 29.1985 61.8576 29.2121 61.8999 29.2335C61.9116 29.2394 61.9213 29.2485 61.928 29.2597C61.9348 29.2709 61.9382 29.2838 61.938 29.2969C61.9336 29.3245 61.9211 29.3503 61.902 29.3708L61.2153 30.1929C61.1979 30.2141 61.1788 30.2339 61.1582 30.252C61.1362 30.2687 61.111 30.2809 61.0843 30.2879C61.0479 30.2996 61.0103 30.3067 60.9723 30.3091C60.916 30.3128 60.8595 30.3128 60.8032 30.3091C60.7375 30.3097 60.6719 30.3062 60.6067 30.2985C60.5708 30.2949 60.5361 30.2834 60.5053 30.2647C60.4961 30.2581 60.4891 30.249 60.485 30.2385C60.4809 30.228 60.4799 30.2166 60.482 30.2055C60.4889 30.1764 60.5018 30.149 60.52 30.1252L61.0272 29.3117Z" fill="black"/>
<path d="M66.118 34.022C66.1191 34.0453 66.1124 34.0683 66.099 34.0875C66.085 34.1087 66.0641 34.1243 66.0399 34.1318C66.0027 34.1466 65.9635 34.1551 65.9236 34.1572C65.875 34.1572 65.8159 34.1572 65.7461 34.1572C65.6764 34.1572 65.6088 34.1572 65.5602 34.1572C65.5211 34.1547 65.4826 34.1461 65.4461 34.1318C65.4207 34.1243 65.3985 34.1087 65.3827 34.0875C65.3693 34.0683 65.3626 34.0453 65.3636 34.022V33.6712C65.2155 33.8339 65.0421 33.9716 64.8501 34.079C64.6678 34.1774 64.4635 34.2275 64.2564 34.2248C64.0442 34.2315 63.8339 34.1835 63.6457 34.0854C63.4812 33.994 63.3413 33.8642 63.2378 33.7071C63.1278 33.5384 63.0504 33.3507 63.0096 33.1535C62.9605 32.9336 62.9364 32.7089 62.9377 32.4836C62.9344 32.2278 62.9649 31.9727 63.0286 31.725C63.08 31.5192 63.1696 31.3249 63.2928 31.1523C63.4048 30.9966 63.5536 30.871 63.726 30.7867C63.9114 30.6991 64.1147 30.6557 64.3198 30.6599C64.4866 30.6573 64.6517 30.6942 64.8016 30.7677C64.9583 30.8503 65.101 30.9573 65.2242 31.0847V29.373C65.2244 29.3496 65.2318 29.3267 65.2453 29.3075C65.2632 29.2852 65.2876 29.269 65.315 29.261C65.3596 29.2459 65.4057 29.2353 65.4524 29.2293C65.5226 29.222 65.5931 29.2185 65.6637 29.2188C65.7343 29.2185 65.8048 29.222 65.875 29.2293C65.9211 29.2349 65.9665 29.2455 66.0103 29.261C66.0381 29.2695 66.063 29.2856 66.0821 29.3075C66.0956 29.3267 66.103 29.3496 66.1032 29.373L66.118 34.022ZM65.2305 31.9088C65.1257 31.7698 65.0027 31.6454 64.8649 31.539C64.7593 31.4581 64.6303 31.4136 64.4973 31.4122C64.3907 31.4098 64.286 31.44 64.1972 31.4989C64.1122 31.5587 64.0433 31.6385 63.9964 31.7313C63.9439 31.8334 63.9056 31.9422 63.8823 32.0546C63.8576 32.1756 63.8456 32.2988 63.8464 32.4223C63.8462 32.5519 63.8568 32.6812 63.8781 32.809C63.896 32.9248 63.9309 33.0373 63.9816 33.1429C64.0261 33.2365 64.0929 33.3177 64.1761 33.3796C64.2651 33.4415 64.372 33.4726 64.4803 33.4683C64.5413 33.4687 64.6019 33.4594 64.66 33.4408C64.7226 33.4212 64.7817 33.392 64.8354 33.3542C64.903 33.3084 64.9654 33.2552 65.0213 33.1957C65.0972 33.1211 65.1678 33.0413 65.2326 32.9569L65.2305 31.9088Z" fill="black"/>
<path d="M67.9774 29.7947C67.9915 29.9283 67.952 30.0621 67.8675 30.1666C67.7478 30.2474 67.6033 30.2834 67.4597 30.268C67.3169 30.285 67.1728 30.2497 67.054 30.1687C67.0134 30.1192 66.9832 30.0622 66.9651 30.0008C66.9469 29.9395 66.9412 29.8752 66.9483 29.8116C66.9338 29.6776 66.9725 29.5433 67.0561 29.4376C67.1754 29.3539 67.3211 29.3164 67.466 29.3319C67.6084 29.3157 67.7518 29.3518 67.8696 29.4333C67.9108 29.4834 67.9415 29.5411 67.96 29.6031C67.9785 29.6652 67.9844 29.7303 67.9774 29.7947ZM67.9098 34.021C67.9107 34.044 67.9031 34.0665 67.8887 34.0844C67.8682 34.1053 67.8427 34.1205 67.8147 34.1288C67.7705 34.1414 67.7252 34.1499 67.6795 34.1541C67.5389 34.1675 67.3974 34.1675 67.2568 34.1541C67.2111 34.1499 67.1658 34.1414 67.1216 34.1288C67.0936 34.1205 67.0681 34.1053 67.0476 34.0844C67.0341 34.066 67.0267 34.0438 67.0265 34.021V30.8703C67.0267 30.8481 67.0341 30.8266 67.0476 30.809C67.0679 30.7874 67.0933 30.7714 67.1216 30.7625C67.1653 30.7472 67.2107 30.7372 67.2568 30.7329C67.3974 30.7195 67.5389 30.7195 67.6795 30.7329C67.7256 30.7372 67.771 30.7472 67.8147 30.7625C67.843 30.7714 67.8684 30.7874 67.8887 30.809C67.903 30.8261 67.9105 30.848 67.9098 30.8703V34.021Z" fill="black"/>
<path d="M71.1901 33.523C71.1901 33.5843 71.1901 33.6371 71.1901 33.6773C71.1871 33.7128 71.1821 33.748 71.1753 33.783C71.1707 33.8062 71.1637 33.8289 71.1541 33.8506C71.1397 33.876 71.1211 33.8989 71.0992 33.9182C71.0552 33.9576 71.0061 33.991 70.9534 34.0175C70.8788 34.0601 70.8002 34.0955 70.7188 34.1232C70.6257 34.1548 70.5303 34.1795 70.4336 34.1971C70.1104 34.2525 69.7785 34.2234 69.47 34.1126C69.2876 34.0401 69.1253 33.9248 68.9966 33.7766C68.8637 33.6183 68.7651 33.4341 68.7071 33.2356C68.6396 32.9986 68.6069 32.753 68.6099 32.5066C68.6042 32.2278 68.6449 31.95 68.7304 31.6846C68.7977 31.4728 68.9102 31.2782 69.06 31.114C69.2002 30.9641 69.373 30.8485 69.565 30.7759C69.7681 30.7018 69.9828 30.6646 70.199 30.6661C70.2918 30.666 70.3845 30.6745 70.4758 30.6914C70.5628 30.7067 70.6483 30.7293 70.7315 30.759C70.8046 30.7845 70.8753 30.8163 70.9428 30.8541C70.9907 30.8798 71.0354 30.911 71.0759 30.9471C71.097 30.9665 71.1155 30.9885 71.1309 31.0126C71.1421 31.0338 71.15 31.0566 71.1541 31.0802C71.161 31.1152 71.1659 31.1504 71.1689 31.1859C71.1689 31.2282 71.1689 31.2768 71.1689 31.3359C71.1742 31.4338 71.1621 31.5318 71.133 31.6254C71.1098 31.6804 71.0781 31.7078 71.04 31.7078C70.9936 31.706 70.949 31.6889 70.9132 31.6592C70.8689 31.6254 70.8139 31.5895 70.7526 31.5494C70.6861 31.5057 70.6153 31.4689 70.5413 31.4395C70.444 31.4035 70.3408 31.3863 70.237 31.3888C70.1327 31.3842 70.029 31.4065 69.9358 31.4535C69.8426 31.5005 69.7629 31.5706 69.7045 31.6571C69.5668 31.8952 69.5029 32.1688 69.5207 32.4432C69.5184 32.5946 69.534 32.7456 69.5672 32.8933C69.5914 33.0097 69.6381 33.1202 69.7045 33.2187C69.7613 33.303 69.8393 33.3708 69.9306 33.4153C70.0299 33.4611 70.1383 33.4835 70.2476 33.4808C70.3558 33.4829 70.4634 33.4643 70.5646 33.4258C70.6461 33.3931 70.724 33.3521 70.797 33.3033C70.8548 33.2654 70.9105 33.2245 70.9639 33.1807C70.995 33.1504 71.035 33.1311 71.0781 33.1258C71.0974 33.1253 71.1162 33.1321 71.1309 33.1448C71.1481 33.163 71.1598 33.1857 71.1647 33.2103C71.1746 33.2505 71.1809 33.2915 71.1837 33.3329C71.1879 33.3808 71.1901 33.4441 71.1901 33.523Z" fill="black"/>
<path d="M74.9991 32.4143C75.0017 32.6641 74.9661 32.9128 74.8934 33.1518C74.8273 33.364 74.7171 33.5599 74.5701 33.7266C74.4206 33.8913 74.2346 34.0186 74.027 34.0985C73.7841 34.19 73.5259 34.2345 73.2663 34.2295C73.0162 34.2351 72.7671 34.1957 72.5309 34.1133C72.3342 34.0418 72.1569 33.9253 72.0132 33.7731C71.872 33.615 71.768 33.4272 71.7089 33.2237C71.6397 32.9812 71.6063 32.7299 71.6096 32.4777C71.6068 32.2278 71.6431 31.9789 71.7174 31.7402C71.7833 31.5275 71.8943 31.3315 72.0428 31.1655C72.1916 31.0015 72.3769 30.8748 72.5838 30.7956C72.8257 30.7029 73.0834 30.6584 73.3424 30.6646C73.593 30.6592 73.8426 30.6978 74.0799 30.7787C74.2769 30.8473 74.4541 30.9634 74.5955 31.1168C74.7374 31.2744 74.8415 31.4623 74.8998 31.6663C74.9691 31.9095 75.0026 32.1615 74.9991 32.4143ZM74.0799 32.4502C74.0811 32.3086 74.069 32.1671 74.044 32.0276C74.0224 31.9069 73.9795 31.7909 73.9172 31.6853C73.86 31.5908 73.7792 31.5128 73.6826 31.4592C73.5677 31.4004 73.4397 31.3721 73.3107 31.3768C73.191 31.3746 73.0725 31.3999 72.9641 31.4507C72.8655 31.4988 72.7811 31.5716 72.719 31.662C72.6517 31.7655 72.6031 31.8799 72.5753 32.0001C72.5423 32.1471 72.5267 32.2975 72.5288 32.4481C72.5283 32.5899 72.541 32.7314 72.5669 32.8708C72.5884 32.9915 72.6313 33.1075 72.6937 33.2131C72.7497 33.3079 72.8309 33.3855 72.9282 33.4371C73.043 33.4939 73.17 33.5215 73.298 33.5174C73.419 33.5198 73.539 33.4945 73.6488 33.4434C73.7474 33.3954 73.8319 33.3226 73.8939 33.2321C73.961 33.1296 74.009 33.0158 74.0355 32.8961C74.0666 32.7496 74.0814 32.6 74.0799 32.4502Z" fill="black"/>
</svg>
