<svg width="594" height="264" viewBox="0 0 594 264" fill="none" xmlns="http://www.w3.org/2000/svg">
<path style="mix-blend-mode:multiply" d="M448.285 263.782L355.344 207.755L416.779 169.574L512.357 227.29L448.285 263.782Z" fill="url(#paint0_linear_6487_15034)"/>
<path d="M397.206 234.891L327.711 193.938L397.644 153.244L467.139 194.197L397.206 234.891Z" fill="url(#paint1_linear_6487_15034)"/>
<g style="mix-blend-mode:multiply">
<path d="M397.206 221.076L327.711 180.753L397.644 140.686L467.139 181.009L397.206 221.076Z" fill="#DAEEF0"/>
</g>
<path d="M399.082 219.821L328.961 179.5L399.524 139.43L469.645 179.75L399.082 219.821Z" fill="url(#paint2_linear_6487_15034)"/>
<path style="mix-blend-mode:multiply" d="M472.381 232.38L380.461 180.956L502.079 110.537L593.999 161.961L472.381 232.38Z" fill="url(#paint3_linear_6487_15034)"/>
<g style="mix-blend-mode:multiply">
<path d="M380.591 184.647C376.173 184.647 372.045 183.681 368.964 181.899L199.254 84.6933C195.417 82.4856 193.305 79.2152 193.305 75.4858C193.305 71.3362 196.042 67.3797 200.809 64.6358L303.033 6.159C307.054 3.84021 312.33 2.51172 317.508 2.51172C321.927 2.51172 326.055 3.47788 329.136 5.26045L498.846 102.466C502.683 104.678 504.819 107.958 504.819 111.673C504.819 115.828 502.082 119.779 497.31 122.528L395.087 180.981C391.046 183.319 385.766 184.647 380.591 184.647Z" fill="#DAEEF0"/>
</g>
<path d="M380.609 182.136C376.19 182.136 372.057 181.169 368.981 179.387L199.25 82.1758C195.412 79.9631 193.305 76.6923 193.305 72.9625C193.305 68.8124 196.037 64.8556 200.81 62.1065L303.043 3.64766C307.069 1.32863 312.345 0 317.525 0C321.944 0 326.072 0.966264 329.153 2.74902L498.874 99.9454C502.707 102.153 504.819 105.424 504.819 109.154C504.819 113.304 502.087 117.261 497.314 120.005L395.081 178.488C391.06 180.807 385.784 182.136 380.609 182.136Z" fill="white"/>
<path d="M380.458 177.111C376.598 177.111 373.037 176.285 370.436 174.783L201.413 77.5884C198.595 75.9606 197.07 73.6517 197.07 71.082C197.07 68.0776 199.227 65.107 202.991 62.9334L304.806 4.4873C308.358 2.43444 313.048 1.25586 317.675 1.25586C321.536 1.25586 325.092 2.08184 327.693 3.58888L496.681 100.764C499.5 102.392 501.048 104.701 501.048 107.27C501.048 110.275 498.892 113.245 495.128 115.419L393.313 173.865C389.771 175.937 385.081 177.111 380.458 177.111Z" fill="white"/>
<path d="M494.466 114.338L466.746 130.195L459.48 134.338L456.515 136.038L448.498 140.625L392.255 172.794C386.388 176.174 377.785 176.797 372.088 174.45C371.545 174.237 371.021 173.982 370.518 173.687L366.933 171.626L355.307 164.947L338.439 155.232L270.976 116.646L265.836 113.7L254.21 107.051L237.317 97.3937L200.82 76.524C195.254 73.3129 195.976 67.7116 202.38 64.0176L212.655 58.1459L230.739 47.8028L240.282 42.356L243.189 40.6901L248.663 37.5466L258.298 32.037L270.729 24.934L276.218 21.7953L304.586 5.56598C310.564 2.13276 319.391 1.53883 325.068 4.06425C325.501 4.24884 325.921 4.46011 326.328 4.69681L335.343 9.85871L459.567 80.9567L469.169 86.4567L496.035 101.836C501.602 105.047 500.904 110.649 494.466 114.338Z" fill="url(#paint4_linear_6487_15034)"/>
<path d="M429.454 81.5074L406.22 94.9842L398.949 99.1972L395.987 100.917L387.965 105.571L359.196 122.251L353.403 125.612L239.781 59.3157L245.554 55.9453L246.757 55.2398L258.104 48.6166L315.594 15.0742L429.454 81.5074Z" fill="url(#paint5_linear_6487_15034)"/>
<path d="M359.112 121.904L353.35 125.282L352.786 125.612L239.781 58.9816L240.345 58.6567L246.087 55.2695L359.112 121.904Z" fill="#B3E4FF"/>
<path d="M256.696 65.3184L257.372 67.8306L254.859 67.1576L256.696 65.3184Z" fill="white"/>
<path d="M257.315 69.0864L256.109 68.485L259.928 66.5742L261.134 67.1757L257.315 69.0864Z" fill="white"/>
<path d="M246.666 61.5491L246.062 61.2477L247.971 60.293L248.575 60.5943L246.666 61.5491Z" fill="white"/>
<path d="M248.218 62.803L247.312 62.5016L250.176 61.5469L251.081 61.8482L248.218 62.803Z" fill="white"/>
<path d="M452.723 115.564L426.938 100.395L443.86 90.4414L469.645 105.61L452.723 115.564Z" fill="url(#paint6_linear_6487_15034)"/>
<path d="M423.832 133.148L398.047 117.979L414.97 108.025L440.755 123.194L423.832 133.148Z" fill="url(#paint7_linear_6487_15034)"/>
<path d="M420.788 116.818L421.912 120.587L414.375 120.026L420.788 116.818Z" fill="white"/>
<path d="M394.444 149.478L367.898 134.309L385.317 124.355L411.862 139.524L394.444 149.478Z" fill="url(#paint8_linear_6487_15034)"/>
<path d="M391.714 133.148L393.019 138.173L384.227 137.426L391.714 133.148Z" fill="white"/>
<path d="M257.499 83.9748L227.428 66.7008C227.364 66.6649 227.311 66.6128 227.275 66.55C227.238 66.4871 227.219 66.4157 227.219 66.343C227.219 66.2703 227.238 66.1989 227.275 66.1361C227.311 66.0732 227.364 66.0211 227.428 65.9852L228.284 65.495C228.485 65.3793 228.713 65.3184 228.946 65.3184C229.178 65.3184 229.406 65.3793 229.608 65.495L259.669 82.7885C259.732 82.8245 259.785 82.8766 259.822 82.9394C259.858 83.0023 259.878 83.0737 259.878 83.1464C259.878 83.2191 259.858 83.2904 259.822 83.3533C259.785 83.4161 259.732 83.4682 259.669 83.5042L258.817 83.9944C258.615 84.1062 258.387 84.1633 258.155 84.1598C257.924 84.1564 257.698 84.0926 257.499 83.9748Z" fill="url(#paint9_linear_6487_15034)"/>
<path d="M276.39 101.573L222.4 70.4489C222.337 70.4129 222.286 70.3612 222.25 70.299C222.214 70.2368 222.195 70.1663 222.195 70.0945C222.195 70.0227 222.214 69.9522 222.25 69.89C222.286 69.8278 222.337 69.7761 222.4 69.74L223.24 69.2578C223.437 69.1439 223.662 69.084 223.89 69.084C224.118 69.084 224.342 69.1439 224.539 69.2578L278.515 100.387C278.577 100.422 278.629 100.473 278.665 100.535C278.701 100.597 278.72 100.667 278.72 100.739C278.72 100.81 278.701 100.881 278.665 100.942C278.629 101.004 278.577 101.056 278.515 101.091L277.675 101.573C277.479 101.684 277.258 101.743 277.032 101.743C276.807 101.743 276.586 101.684 276.39 101.573Z" fill="url(#paint10_linear_6487_15034)"/>
<path d="M270.188 91.5328L261.33 86.6627C261.27 86.6303 261.22 86.5832 261.186 86.5265C261.151 86.4697 261.133 86.4052 261.133 86.3396C261.133 86.2739 261.151 86.2094 261.186 86.1526C261.22 86.0958 261.27 86.0488 261.33 86.0163L262.136 85.5736C262.326 85.4691 262.541 85.4141 262.76 85.4141C262.979 85.4141 263.194 85.4691 263.383 85.5736L272.242 90.4437C272.301 90.4768 272.351 90.5242 272.385 90.5814C272.42 90.6385 272.438 90.7032 272.438 90.7691C272.438 90.835 272.42 90.8997 272.385 90.9568C272.351 91.0139 272.301 91.0614 272.242 91.0945L271.435 91.5372C271.245 91.6411 271.03 91.6954 270.811 91.6946C270.592 91.6938 270.377 91.638 270.188 91.5328Z" fill="url(#paint11_linear_6487_15034)"/>
<path d="M291.431 104.089L275.159 95.4619C275.096 95.4293 275.044 95.382 275.008 95.325C274.972 95.2679 274.953 95.2031 274.953 95.1371C274.953 95.0711 274.972 95.0063 275.008 94.9493C275.044 94.8922 275.096 94.845 275.159 94.8123L275.998 94.3674C276.196 94.2623 276.421 94.207 276.65 94.207C276.879 94.207 277.104 94.2623 277.303 94.3674L293.589 102.999C293.651 103.032 293.703 103.079 293.74 103.136C293.776 103.193 293.795 103.258 293.795 103.324C293.795 103.39 293.776 103.455 293.74 103.512C293.703 103.569 293.651 103.616 293.589 103.649L292.75 104.094C292.549 104.201 292.321 104.257 292.09 104.256C291.858 104.255 291.63 104.198 291.431 104.089Z" fill="url(#paint12_linear_6487_15034)"/>
<path d="M319.009 119.161L296.515 106.85C296.451 106.814 296.398 106.764 296.361 106.703C296.324 106.642 296.305 106.573 296.305 106.503C296.305 106.433 296.324 106.364 296.361 106.303C296.398 106.242 296.451 106.191 296.515 106.156L297.377 105.684C297.581 105.572 297.812 105.514 298.047 105.514C298.282 105.514 298.513 105.572 298.716 105.684L321.215 118C321.28 118.034 321.333 118.084 321.37 118.145C321.407 118.205 321.427 118.274 321.427 118.344C321.427 118.414 321.407 118.483 321.37 118.543C321.333 118.604 321.28 118.654 321.215 118.689L320.349 119.161C320.145 119.272 319.914 119.331 319.679 119.331C319.444 119.331 319.213 119.272 319.009 119.161Z" fill="url(#paint13_linear_6487_15034)"/>
<path d="M336.625 129.175L322.897 120.804C322.833 120.765 322.781 120.71 322.744 120.643C322.707 120.576 322.688 120.499 322.688 120.422C322.688 120.344 322.707 120.268 322.744 120.201C322.781 120.134 322.833 120.078 322.897 120.04L323.751 119.517C323.953 119.393 324.182 119.328 324.416 119.328C324.649 119.328 324.878 119.393 325.08 119.517L338.807 127.914C338.871 127.953 338.924 128.008 338.961 128.075C338.998 128.142 339.017 128.218 339.017 128.296C339.017 128.374 338.998 128.45 338.961 128.517C338.924 128.584 338.871 128.64 338.807 128.678L337.953 129.201C337.749 129.321 337.519 129.381 337.286 129.377C337.052 129.372 336.824 129.303 336.625 129.175Z" fill="url(#paint14_linear_6487_15034)"/>
<path d="M365.676 146.801L356.862 141.999C356.784 141.962 356.718 141.905 356.672 141.835C356.626 141.765 356.602 141.684 356.602 141.602C356.602 141.52 356.626 141.439 356.672 141.369C356.718 141.299 356.784 141.242 356.862 141.205L357.506 140.855C357.709 140.744 357.939 140.686 358.174 140.686C358.408 140.686 358.638 140.744 358.841 140.855L367.641 145.652C367.721 145.689 367.788 145.745 367.835 145.816C367.882 145.886 367.907 145.968 367.907 146.051C367.907 146.135 367.882 146.216 367.835 146.287C367.788 146.357 367.721 146.414 367.641 146.45L366.997 146.801C366.796 146.909 366.569 146.966 366.337 146.966C366.105 146.966 365.877 146.909 365.676 146.801Z" fill="url(#paint15_linear_6487_15034)"/>
<path d="M374.436 158.082L351.833 144.642C351.754 144.602 351.688 144.539 351.641 144.462C351.595 144.385 351.57 144.296 351.57 144.205C351.57 144.114 351.595 144.026 351.641 143.948C351.688 143.871 351.754 143.809 351.833 143.768L352.482 143.378C352.687 143.258 352.919 143.195 353.155 143.195C353.39 143.195 353.622 143.258 353.827 143.378L376.43 156.823C376.509 156.864 376.575 156.926 376.622 157.003C376.668 157.08 376.692 157.169 376.692 157.26C376.692 157.351 376.668 157.44 376.622 157.517C376.575 157.594 376.509 157.656 376.43 157.697L375.781 158.082C375.577 158.204 375.345 158.269 375.108 158.269C374.872 158.269 374.64 158.204 374.436 158.082Z" fill="url(#paint16_linear_6487_15034)"/>
<path d="M384.397 156.843L370.695 149.561C370.613 149.524 370.544 149.466 370.496 149.394C370.447 149.323 370.422 149.241 370.422 149.157C370.422 149.073 370.447 148.991 370.496 148.919C370.544 148.848 370.613 148.79 370.695 148.753L371.37 148.392C371.584 148.281 371.825 148.223 372.071 148.223C372.316 148.223 372.557 148.281 372.771 148.392L386.473 155.674C386.556 155.711 386.627 155.768 386.676 155.84C386.725 155.912 386.751 155.995 386.751 156.08C386.751 156.165 386.725 156.248 386.676 156.32C386.627 156.392 386.556 156.449 386.473 156.486L385.798 156.843C385.585 156.956 385.343 157.015 385.097 157.015C384.852 157.015 384.61 156.956 384.397 156.843Z" fill="url(#paint17_linear_6487_15034)"/>
<path d="M344.253 61.5469L347.804 74.108L323.938 72.2413L344.253 61.5469Z" fill="white"/>
<path d="M320.349 79.5641C310.061 73.4382 310.061 63.4695 320.349 57.3485C330.637 51.2274 347.372 51.2225 357.67 57.3485C367.967 63.4744 367.958 73.4382 357.67 79.5641C347.382 85.69 330.637 85.69 320.349 79.5641ZM355.769 58.4778C346.529 52.9728 331.49 52.9728 322.245 58.4778C313 63.9829 313.005 72.9297 322.245 78.4348C331.485 83.9398 346.524 83.9398 355.764 78.4348C365.004 72.9297 365.014 63.978 355.769 58.4778Z" fill="white"/>
<path style="mix-blend-mode:multiply" d="M168.685 211.45L54.9766 145.962L147.432 87.752L261.141 153.237L168.685 211.45Z" fill="url(#paint18_linear_6487_15034)"/>
<path d="M0.248456 108.896C-3.64121 117.517 39.1159 141.81 60.1085 155.134C62.4393 156.701 65.5496 151.216 65.5496 151.216L0.248456 108.896Z" fill="white"/>
<path d="M96.799 50.748L124.963 64.8273C124.963 64.8273 201.934 110.126 201.915 111.451C201.915 113.293 201.882 115.539 201.915 115.79C202.021 116.357 201.703 116.943 200.959 117.377L106.345 172.818C105.606 173.193 104.79 173.389 103.963 173.389C103.135 173.389 102.319 173.193 101.581 172.818L22.9253 127.626L22.1228 127.166L21.0711 126.562L8.57192 119.388C8.57192 119.388 -1.01773 113.705 0.0889077 109.26C1.19555 104.815 96.799 50.748 96.799 50.748Z" fill="url(#paint19_linear_6487_15034)"/>
<path d="M120.527 62.4337L20.7493 120.526C20.7493 120.526 18.1411 112.885 8.91454 108.236C1.73713 104.615 0.0411933 109.338 0.0411933 109.338C-2.19554 108.067 87.3804 49.6288 92.1151 50.6028C92.1151 50.6028 96.5554 46.1703 106.536 50.6028C115.343 54.5133 120.527 62.4337 120.527 62.4337Z" fill="white"/>
<path d="M101.549 168.579C101.549 168.579 90.557 153.163 68.0775 139.775C45.598 126.387 23.2578 123.109 23.2578 123.109L122.629 64.4922C122.629 64.4922 143.562 66.3798 166.328 79.2669C189.093 92.154 200.921 109.962 200.921 109.962C202.28 111.787 202.254 111.98 200.943 112.751L106.335 168.579C105.594 168.961 104.774 169.16 103.942 169.16C103.11 169.16 102.29 168.961 101.549 168.579Z" fill="white"/>
<path d="M181.564 107.838C181.503 107.838 181.444 107.816 181.398 107.777C179.285 106.1 177.116 104.122 174.822 102.032C169.862 97.5 164.249 92.3723 156.752 87.952C144.745 80.8924 132.888 77.6283 123.901 75.5743C123.867 75.5678 123.834 75.5541 123.806 75.5343C123.777 75.5145 123.753 75.489 123.735 75.4595C123.71 75.4201 123.696 75.3749 123.695 75.3285C123.694 75.2822 123.706 75.2364 123.73 75.196C123.753 75.1556 123.787 75.1221 123.828 75.099C123.869 75.0758 123.916 75.0639 123.964 75.0645C133.047 77.1328 144.955 80.4112 157.029 87.5103C164.592 91.9593 170.227 97.1086 175.198 101.651C177.492 103.744 179.65 105.716 181.748 107.396C181.775 107.418 181.797 107.444 181.813 107.473C181.829 107.503 181.839 107.535 181.843 107.568C181.846 107.602 181.843 107.636 181.833 107.668C181.823 107.7 181.807 107.73 181.785 107.755C181.757 107.785 181.723 107.808 181.684 107.822C181.646 107.836 181.605 107.842 181.564 107.838Z" fill="#EAEEFA"/>
<path d="M174.18 112.068C174.12 112.067 174.061 112.045 174.015 112.005C171.941 110.306 169.804 108.303 167.542 106.181C162.515 101.471 156.847 96.1614 149.312 91.5774C137.274 84.257 125.454 80.8838 116.503 78.7621C116.469 78.7543 116.436 78.7397 116.408 78.7192C116.379 78.6987 116.355 78.6728 116.337 78.6428C116.318 78.6128 116.306 78.5795 116.3 78.5447C116.295 78.5099 116.296 78.4743 116.304 78.44C116.32 78.3819 116.353 78.3305 116.401 78.2937C116.448 78.2569 116.506 78.2368 116.565 78.2363C125.612 80.3728 137.48 83.7609 149.584 91.1219C157.171 95.7319 162.86 101.064 167.88 105.766C170.161 107.906 172.294 109.902 174.349 111.591C174.392 111.626 174.422 111.674 174.436 111.727C174.451 111.78 174.449 111.837 174.43 111.889C174.412 111.941 174.378 111.986 174.333 112.018C174.288 112.05 174.235 112.068 174.18 112.068Z" fill="#EAEEFA"/>
<path d="M167.833 115.24C167.77 115.24 167.709 115.218 167.662 115.179C165.578 113.552 163.423 111.642 161.141 109.617C156.002 105.059 150.176 99.8951 142.468 95.4265C130.181 88.306 118.193 85.0343 109.103 82.9738C109.034 82.9571 108.974 82.9162 108.935 82.8591C108.901 82.7991 108.89 82.729 108.905 82.662C108.918 82.6052 108.951 82.5544 108.999 82.5185C109.047 82.4825 109.106 82.4636 109.167 82.4649C118.346 84.5362 130.394 87.8402 142.744 94.9821C150.501 99.4758 156.349 104.658 161.507 109.234C163.785 111.251 165.932 113.158 168.005 114.777C168.06 114.822 168.095 114.885 168.102 114.953C168.107 114.987 168.104 115.021 168.095 115.054C168.085 115.086 168.069 115.117 168.046 115.143C168.02 115.173 167.988 115.197 167.951 115.214C167.914 115.231 167.874 115.24 167.833 115.24Z" fill="#EAEEFA"/>
<path d="M160.459 119.465C160.398 119.465 160.339 119.444 160.291 119.406C158.282 117.751 156.192 115.815 153.982 113.768C148.877 109.046 143.095 103.693 135.49 99.0557C123.384 91.6664 111.633 88.2895 102.748 86.165C102.687 86.1474 102.635 86.1086 102.6 86.0558C102.565 86.0029 102.549 85.9392 102.556 85.876C102.563 85.8128 102.592 85.7541 102.638 85.7103C102.684 85.6665 102.743 85.6405 102.806 85.6367C111.794 87.7796 123.596 91.1787 135.742 98.5976C143.391 103.26 149.195 108.632 154.315 113.376C156.555 115.449 158.622 117.363 160.606 118.996C160.648 119.03 160.679 119.077 160.694 119.13C160.708 119.183 160.707 119.239 160.689 119.291C160.671 119.343 160.637 119.388 160.593 119.42C160.548 119.451 160.495 119.469 160.441 119.469L160.459 119.465Z" fill="#EAEEFA"/>
<path d="M154.092 123.697C154.03 123.697 153.97 123.676 153.921 123.638C151.916 122.01 149.836 120.117 147.607 118.102C142.362 113.359 136.419 107.981 128.641 103.312C116.295 95.9038 104.372 92.5117 95.3608 90.3931C95.2924 90.3752 95.2337 90.3315 95.1973 90.2712C95.1783 90.2414 95.1655 90.208 95.1597 90.1732C95.154 90.1383 95.1554 90.1026 95.1639 90.0683C95.1779 90.011 95.2107 89.9599 95.2571 89.9232C95.3035 89.8864 95.3608 89.866 95.4202 89.8652C104.531 92.0097 116.507 95.4018 128.916 102.861C136.735 107.556 142.704 112.953 147.967 117.71C150.196 119.715 152.272 121.604 154.263 123.221C154.306 123.256 154.337 123.303 154.352 123.355C154.367 123.408 154.366 123.464 154.347 123.516C154.329 123.568 154.295 123.613 154.25 123.644C154.205 123.676 154.151 123.693 154.096 123.694L154.092 123.697Z" fill="#EAEEFA"/>
<path d="M146.697 126.869C146.636 126.868 146.577 126.848 146.529 126.811C144.594 125.261 142.575 123.467 140.436 121.57C135.233 116.955 129.333 111.717 121.653 107.166C109.502 99.9563 97.8274 96.666 89.0162 94.601C88.9824 94.5935 88.9505 94.5794 88.9223 94.5596C88.8941 94.5399 88.8702 94.5148 88.8519 94.4859C88.8336 94.457 88.8214 94.4248 88.8158 94.3912C88.8103 94.3576 88.8116 94.3233 88.8197 94.2902C88.8349 94.2342 88.8684 94.1846 88.9151 94.1491C88.9617 94.1136 89.019 94.0942 89.078 94.0938C97.9875 96.173 109.709 99.4776 121.926 106.723C129.645 111.303 135.564 116.555 140.789 121.188C142.971 123.114 144.961 124.889 146.864 126.411C146.906 126.445 146.937 126.491 146.952 126.542C146.966 126.593 146.964 126.648 146.946 126.698C146.928 126.749 146.894 126.792 146.849 126.822C146.804 126.853 146.751 126.869 146.697 126.869Z" fill="#EAEEFA"/>
<path d="M140.354 131.098C140.293 131.097 140.234 131.077 140.187 131.039C138.296 129.469 136.312 127.664 134.214 125.752C128.946 120.962 122.966 115.528 115.267 110.798C103.086 103.326 91.4497 99.9219 82.6689 97.7888C82.6066 97.7735 82.5521 97.7357 82.5155 97.6823C82.479 97.629 82.463 97.5639 82.4706 97.4994C82.4782 97.4348 82.5089 97.3754 82.5568 97.3323C82.6047 97.2892 82.6665 97.2655 82.7305 97.2656C91.6057 99.4135 103.296 102.832 115.539 110.341C123.3 115.101 129.283 120.55 134.563 125.358C136.682 127.288 138.652 129.082 140.521 130.626C140.563 130.661 140.593 130.708 140.608 130.761C140.623 130.814 140.621 130.87 140.602 130.922C140.584 130.974 140.55 131.019 140.506 131.05C140.461 131.082 140.408 131.098 140.354 131.098Z" fill="#EAEEFA"/>
<path d="M132.973 135.312C132.914 135.312 132.856 135.29 132.811 135.251C130.954 133.665 129.014 131.836 126.962 129.939C121.641 124.969 115.607 119.339 107.84 114.422C95.6244 106.69 84.0205 103.173 75.2651 100.976C75.2315 100.968 75.1998 100.953 75.1717 100.932C75.1437 100.911 75.1199 100.885 75.1017 100.854C75.0835 100.823 75.0713 100.789 75.0658 100.753C75.0603 100.718 75.0616 100.681 75.0697 100.646C75.0848 100.587 75.1181 100.534 75.1645 100.496C75.211 100.459 75.2679 100.438 75.3267 100.438C84.1689 102.653 95.8271 106.185 108.101 113.955C115.908 118.888 121.959 124.544 127.284 129.53C129.35 131.457 131.287 133.263 133.115 134.841C133.157 134.877 133.187 134.925 133.202 134.98C133.216 135.035 133.214 135.093 133.196 135.146C133.178 135.199 133.144 135.246 133.1 135.278C133.055 135.31 133.002 135.327 132.948 135.327L132.973 135.312Z" fill="#EAEEFA"/>
<path d="M126.603 138.499C126.543 138.499 126.484 138.479 126.437 138.442C124.6 136.989 122.667 135.333 120.624 133.584C115.145 128.886 108.935 123.565 100.976 118.906C88.5113 111.609 76.723 108.3 67.867 106.234C67.8328 106.226 67.8005 106.211 67.7721 106.191C67.7437 106.171 67.7198 106.146 67.7017 106.116C67.6837 106.088 67.6719 106.056 67.6668 106.023C67.6618 105.99 67.6636 105.956 67.6723 105.924C67.6856 105.868 67.7182 105.817 67.765 105.781C67.8117 105.745 67.8697 105.725 67.9295 105.725C76.8957 107.808 88.7208 111.131 101.251 118.465C109.251 123.148 115.483 128.487 120.977 133.2C123.042 134.98 124.964 136.615 126.772 138.044C126.815 138.077 126.846 138.123 126.86 138.174C126.875 138.225 126.873 138.28 126.855 138.33C126.836 138.38 126.802 138.423 126.757 138.454C126.712 138.484 126.658 138.5 126.603 138.499Z" fill="#EAEEFA"/>
<path d="M120.264 142.729C120.204 142.728 120.146 142.707 120.099 142.67C118.332 141.226 116.452 139.573 114.465 137.825C108.891 132.922 102.605 127.39 94.5928 122.542C82.1019 114.979 70.3588 111.556 61.5221 109.418C61.4884 109.41 61.4566 109.395 61.4286 109.375C61.4006 109.354 61.3769 109.328 61.3588 109.299C61.3408 109.269 61.3288 109.236 61.3234 109.202C61.3181 109.167 61.3196 109.132 61.3278 109.098C61.3423 109.041 61.3754 108.99 61.4218 108.954C61.4682 108.917 61.5253 108.897 61.5844 108.896C70.52 111.053 82.3109 114.487 94.8677 122.086C102.931 126.96 109.224 132.51 114.788 137.403C116.815 139.184 118.68 140.826 120.432 142.258C120.485 142.303 120.518 142.366 120.525 142.435C120.532 142.503 120.512 142.572 120.469 142.626C120.445 142.658 120.415 142.684 120.379 142.702C120.343 142.72 120.304 142.729 120.264 142.729Z" fill="#EAEEFA"/>
<path d="M113.919 146.957C113.858 146.957 113.799 146.936 113.751 146.898C112.006 145.494 110.146 143.894 108.17 142.204C102.437 137.274 95.9632 131.706 87.7445 126.799C75.0054 119.214 63.0885 115.795 54.1257 113.646C54.0918 113.638 54.0597 113.624 54.0316 113.604C54.0035 113.584 53.9798 113.558 53.962 113.528C53.925 113.468 53.913 113.396 53.9285 113.327C53.944 113.269 53.9783 113.218 54.026 113.182C54.0737 113.145 54.1323 113.125 54.1927 113.125C63.2485 115.282 75.2175 118.722 88.0236 126.348C96.2869 131.266 103.062 137.094 108.509 141.778C110.473 143.465 112.33 145.079 114.09 146.473C114.143 146.517 114.177 146.58 114.184 146.649C114.191 146.717 114.17 146.786 114.127 146.84C114.104 146.874 114.073 146.902 114.037 146.922C114 146.943 113.96 146.955 113.919 146.957Z" fill="#EAEEFA"/>
<path d="M106.516 151.186C106.454 151.187 106.394 151.165 106.345 151.126C104.664 149.731 102.868 148.147 100.968 146.468C95.4352 141.588 88.5887 135.543 80.2986 130.443C67.5296 122.587 55.6475 119.045 46.7191 116.834C46.6508 116.816 46.5919 116.771 46.5552 116.71C46.5184 116.649 46.5067 116.575 46.5225 116.505C46.5379 116.445 46.5721 116.393 46.6197 116.355C46.6673 116.318 46.7257 116.297 46.7859 116.297C55.8107 118.524 67.7448 122.085 80.577 129.974C88.9004 135.097 95.7655 141.157 101.284 146.022C103.195 147.712 104.994 149.3 106.683 150.702C106.736 150.748 106.77 150.813 106.777 150.883C106.785 150.953 106.766 151.024 106.724 151.08C106.698 151.112 106.667 151.138 106.631 151.156C106.595 151.174 106.556 151.185 106.516 151.186Z" fill="#EAEEFA"/>
<path d="M102.288 65.5494C102.245 65.5489 102.203 65.5379 102.165 65.5174C102.127 65.4968 102.095 65.4673 102.071 65.4315C101.298 64.3036 97.3143 58.7339 92.4768 56.5112C90.0434 55.4054 86.5055 54.7382 83.5234 54.3659L84.3334 53.9199C87.9412 54.4249 90.7576 55.1326 92.7051 56.0247C98.1243 58.5275 102.465 65.0739 102.505 65.1403C102.526 65.1687 102.54 65.201 102.548 65.2353C102.555 65.2695 102.556 65.3049 102.549 65.3393C102.533 65.4105 102.491 65.4733 102.432 65.5163C102.388 65.5401 102.338 65.5516 102.288 65.5494Z" fill="#EAEEFA"/>
<path d="M95.9487 69.7788C95.9034 69.7784 95.8588 69.766 95.819 69.7427C95.7791 69.7195 95.7451 69.686 95.72 69.6452C95.6938 69.5966 91.2667 62.5609 85.8726 59.8729C83.466 58.6827 80.0473 57.9783 77.1797 57.5654L77.9294 57.0918C81.4081 57.6302 84.1557 58.3872 86.0937 59.3507C91.4054 61.9901 95.6938 68.5765 96.1661 69.3214C96.205 69.3861 96.2189 69.4646 96.2049 69.5403C96.1909 69.6159 96.1501 69.6826 96.0911 69.7262C96.0489 69.7572 95.9997 69.7754 95.9487 69.7788Z" fill="#EAEEFA"/>
<path d="M88.5435 72.9496C88.5022 72.949 88.4617 72.9385 88.425 72.9191C88.3883 72.8996 88.3565 72.8716 88.3322 72.8373C87.844 72.1334 83.5956 66.1465 78.6623 63.8214C76.8004 62.9453 74.1734 62.2563 70.8359 61.7621L71.5464 61.3203C74.6507 61.8183 77.1174 62.496 78.8772 63.3272C84.0146 65.7571 88.2848 71.8338 88.7549 72.519C88.7767 72.5493 88.7925 72.5838 88.8012 72.6205C88.81 72.6571 88.8116 72.6951 88.8059 72.7324C88.7913 72.7977 88.7537 72.8551 88.7002 72.8934C88.6791 72.9132 88.6544 72.9283 88.6275 72.938C88.6005 72.9476 88.572 72.9516 88.5435 72.9496Z" fill="#EAEEFA"/>
<path d="M83.2484 76.1219C83.2072 76.1228 83.1664 76.1136 83.1296 76.0952C83.0927 76.0767 83.0609 76.0494 83.0369 76.0158C82.5234 75.3072 78.0414 69.282 72.9099 66.9212C71.139 66.1027 68.6658 65.4395 65.5469 64.9393L66.2681 64.4922C69.1453 64.9962 71.46 65.629 73.144 66.421C78.2868 68.8008 82.6367 74.5455 83.4598 75.6709C83.484 75.7031 83.5015 75.7397 83.5112 75.7788C83.521 75.8179 83.5228 75.8585 83.5165 75.8983C83.5114 75.9339 83.4991 75.9682 83.4803 75.9988C83.4614 76.0295 83.4365 76.0559 83.407 76.0764C83.3598 76.107 83.3046 76.1229 83.2484 76.1219Z" fill="#EAEEFA"/>
<path d="M75.8706 80.3498C75.8275 80.3503 75.7849 80.3407 75.7468 80.3218C75.7086 80.3029 75.6761 80.2753 75.652 80.2416C75.652 80.2171 70.9407 74.1887 65.6516 71.887C63.5848 71.0697 61.4189 70.4961 59.2031 70.179L59.8809 69.7773C61.9299 70.1067 63.9303 70.6636 65.8405 71.4364C71.0963 73.7102 75.5743 79.316 76.0669 79.9482C76.0884 79.9754 76.1038 80.0065 76.1121 80.0395C76.1204 80.0726 76.1214 80.1069 76.115 80.1403C76.1109 80.1725 76.0996 80.2035 76.0817 80.2312C76.0638 80.2589 76.0398 80.2827 76.0113 80.3009C75.9699 80.3288 75.9213 80.3457 75.8706 80.3498Z" fill="#EAEEFA"/>
<path d="M69.4854 83.5213C69.4408 83.5213 69.3968 83.5117 69.357 83.4931C69.3173 83.4746 69.2829 83.4477 69.2566 83.4147C69.051 83.1659 64.1334 77.242 58.6767 74.9428C56.811 74.2071 54.859 73.6705 52.8594 73.3437L53.5419 72.9492C55.393 73.2799 57.2002 73.791 58.9327 74.4737C64.688 76.9009 69.6715 83.0451 69.7219 83.1055C69.7646 83.1598 69.7828 83.227 69.7727 83.2932C69.7626 83.3594 69.7249 83.4195 69.6677 83.4609C69.6434 83.4818 69.6147 83.498 69.5833 83.5084C69.552 83.5187 69.5187 83.5232 69.4854 83.5213Z" fill="#EAEEFA"/>
<path d="M63.1727 87.7509C63.1306 87.7512 63.089 87.7412 63.0512 87.7219C63.0134 87.7025 62.9805 87.6742 62.955 87.6392C62.913 87.5794 57.8739 80.7618 52.4376 78.1584C50.8747 77.4537 49.2462 76.9193 47.5781 76.5636L48.2352 76.1211C49.7587 76.4694 51.2447 76.977 52.6706 77.6361C57.8663 80.1319 62.5004 86.0963 63.3676 87.2645C63.3927 87.2959 63.4117 87.3321 63.4234 87.3712C63.4351 87.4102 63.4392 87.4513 63.4357 87.492C63.4321 87.5327 63.4209 87.5723 63.4027 87.6086C63.3844 87.6448 63.3595 87.6769 63.3294 87.703C63.2826 87.7343 63.2283 87.7509 63.1727 87.7509Z" fill="#EAEEFA"/>
<path d="M55.7707 90.9221C55.7319 90.9228 55.6935 90.9149 55.6584 90.8988C55.6232 90.8828 55.5922 90.859 55.5677 90.8294C54.6577 89.7173 50.0442 84.2642 45.1147 82.0289C43.8638 81.4843 42.5649 81.0538 41.2344 80.7425L41.8548 80.3496C43.0468 80.6536 44.2114 81.0541 45.3366 81.547C50.8902 84.0604 55.9324 90.4254 55.9813 90.4921C56.0235 90.5478 56.0423 90.6173 56.0339 90.6863C56.0255 90.7553 55.9905 90.8185 55.9361 90.8628C55.8892 90.9002 55.831 90.921 55.7707 90.9221Z" fill="#EAEEFA"/>
<path d="M49.4221 94.0933C49.3797 94.0939 49.3378 94.0846 49.2994 94.0661C49.2611 94.0476 49.2272 94.0204 49.2005 93.9866C49.1709 93.9446 44.1961 87.5078 38.8593 84.9849C37.9166 84.5468 36.9423 84.185 35.9453 83.9026L36.5325 83.5215C37.4054 83.785 38.2594 84.111 39.0883 84.4971C44.5322 87.0848 49.5809 93.5978 49.6326 93.6664C49.6757 93.7224 49.6956 93.7936 49.688 93.8646C49.6847 93.9002 49.6745 93.9347 49.658 93.9661C49.6415 93.9976 49.6191 94.0252 49.592 94.0475C49.5418 94.0817 49.4821 94.0977 49.4221 94.0933Z" fill="#EAEEFA"/>
<path d="M43.0661 98.3233C43.0223 98.3233 42.9791 98.3144 42.9397 98.2973C42.9003 98.2802 42.8657 98.2553 42.8385 98.2244C42.8071 98.1891 37.3444 92.2203 31.7443 89.9034C31.0457 89.621 30.3304 89.3734 29.6016 89.1618L30.202 88.8086C30.8087 88.9888 31.4035 89.1999 31.9837 89.4408C37.8427 91.8672 43.2231 97.843 43.278 97.9171C43.3276 97.9729 43.3514 98.0437 43.3447 98.1149C43.3417 98.1461 43.3314 98.1764 43.3145 98.2038C43.2976 98.2312 43.2745 98.2551 43.2466 98.2738C43.1953 98.3099 43.131 98.3274 43.0661 98.3233Z" fill="#EAEEFA"/>
<path d="M35.6978 101.496C35.6599 101.497 35.6222 101.488 35.5878 101.472C35.5533 101.455 35.5231 101.431 35.4992 101.401C34.9637 100.753 30.2219 95.101 25.3843 92.8072C25.0509 92.6463 24.6963 92.4926 24.3203 92.3463L24.8417 91.9805C25.1041 92.0902 25.3595 92.2 25.6077 92.317C30.8602 94.8083 35.8468 100.991 35.8929 101.053C35.9344 101.106 35.9545 101.174 35.9493 101.242C35.944 101.31 35.9136 101.373 35.8645 101.419C35.8182 101.462 35.7599 101.489 35.6978 101.496Z" fill="#EAEEFA"/>
<path d="M29.3357 104.667C29.2973 104.669 29.2591 104.661 29.2237 104.646C29.1883 104.631 29.1566 104.608 29.1308 104.58C28.5503 103.904 23.4171 98.0454 18.2042 95.6333L17.9766 95.534L18.5115 95.1523C24.0811 97.7744 29.4875 104.133 29.5406 104.198C29.5639 104.225 29.5817 104.256 29.5929 104.29C29.604 104.324 29.6083 104.36 29.6055 104.395C29.6027 104.431 29.5928 104.466 29.5764 104.497C29.56 104.529 29.5375 104.557 29.5102 104.58C29.4655 104.631 29.403 104.662 29.3357 104.667Z" fill="#EAEEFA"/>
<path d="M135.968 102.553H135.913C135.78 102.535 132.68 102.108 131.17 101.128C130.996 101.033 130.849 100.9 130.742 100.74C130.635 100.581 130.572 100.398 130.556 100.21C130.568 99.996 130.63 99.7869 130.737 99.5977C130.845 99.4085 130.995 99.2438 131.177 99.1152C129.483 99.1571 127.787 99.1142 126.098 98.9866C125.559 98.9136 125.359 98.6634 125.304 98.4653C125.175 98.076 125.429 97.5998 126.105 96.9776C124.616 97.0777 123.12 97.0486 121.636 96.8907C121.396 96.8559 120.653 96.7586 120.528 96.2233C120.424 95.8479 120.657 95.4447 121.266 94.9685C120.171 95.0527 119.069 95.0282 117.979 94.8955C117.292 94.8052 116.871 94.548 116.727 94.1795C116.583 93.8111 116.749 93.3453 117.225 92.8239C115.729 92.9363 114.224 92.8932 112.737 92.6953C111.385 92.5146 110.828 92.3095 110.61 91.9167C110.392 91.524 110.61 91.1729 110.802 90.8149C110.854 90.721 110.909 90.6237 110.957 90.516C108.453 91.1381 105.985 89.5566 105.878 89.4732C105.799 89.4148 105.746 89.3303 105.731 89.2367C105.716 89.1432 105.739 89.0478 105.796 88.9698C105.853 88.8919 105.939 88.8372 106.038 88.8171C106.136 88.797 106.239 88.8128 106.325 88.8615C106.351 88.8615 108.722 90.3943 110.924 89.7409C111.048 89.7043 111.18 89.7015 111.306 89.7329C111.431 89.7643 111.545 89.8285 111.633 89.9181C111.722 90.0056 111.783 90.1151 111.808 90.2339C111.834 90.3527 111.823 90.4758 111.777 90.5889C111.697 90.7766 111.606 90.96 111.504 91.1382C111.418 91.2734 111.355 91.4199 111.315 91.5726C111.334 91.5935 111.518 91.7673 112.848 91.9445C114.353 92.1455 115.878 92.1817 117.392 92.0523C117.532 92.0414 117.673 92.071 117.796 92.137C117.918 92.203 118.017 92.3025 118.078 92.4222C118.139 92.5419 118.16 92.6763 118.139 92.8076C118.117 92.9389 118.054 93.0609 117.957 93.1576C117.514 93.5956 117.447 93.8528 117.473 93.9223C117.499 93.9918 117.647 94.0891 118.09 94.1482C119.223 94.2832 120.369 94.2983 121.507 94.1934C121.657 94.1811 121.807 94.2151 121.934 94.2901C122.062 94.3651 122.16 94.4771 122.215 94.6092C122.269 94.7414 122.276 94.8866 122.235 95.0228C122.194 95.1591 122.107 95.2791 121.987 95.3648C121.411 95.7714 121.314 95.9835 121.3 96.0322C121.451 96.0852 121.609 96.1213 121.769 96.1399C123.285 96.2964 124.814 96.3185 126.334 96.2059C126.478 96.1983 126.62 96.2322 126.742 96.3031C126.864 96.3739 126.961 96.4783 127.018 96.6022C127.075 96.7262 127.09 96.8642 127.06 96.9965C127.029 97.1289 126.955 97.2487 126.848 97.3391C126.526 97.5717 126.265 97.8715 126.087 98.215C126.113 98.215 126.157 98.215 126.231 98.2393C127.968 98.3624 129.71 98.4007 131.45 98.354C131.594 98.3577 131.734 98.4008 131.852 98.4779C131.97 98.5551 132.061 98.6631 132.115 98.7885C132.164 98.9176 132.169 99.0578 132.128 99.1894C132.088 99.321 132.004 99.4373 131.89 99.5219C131.557 99.7687 131.362 100.012 131.369 100.175C131.377 100.339 131.521 100.422 131.642 100.502C132.998 101.385 136.016 101.799 136.045 101.802C136.145 101.815 136.235 101.863 136.298 101.936C136.362 102.009 136.393 102.103 136.386 102.197C136.379 102.291 136.334 102.379 136.261 102.443C136.187 102.507 136.09 102.543 135.99 102.542L135.968 102.553Z" fill="url(#paint20_linear_6487_15034)"/>
<path d="M120.167 102.552C120.126 102.552 120.085 102.545 120.046 102.531L118.43 102.017C118.195 101.96 117.978 101.848 117.797 101.692C117.601 101.478 117.492 101.201 117.492 100.915C117.492 100.628 117.601 100.351 117.797 100.137V100.115L117.378 100.144C116.308 100.25 115.232 100.282 114.158 100.24C113.79 100.208 113.072 100.144 112.66 99.6373C112.59 99.5451 112.546 99.437 112.531 99.3233C112.516 99.2096 112.531 99.0942 112.576 98.988C111.609 99.1452 110.62 99.1161 109.665 98.9023C109.186 98.8324 108.752 98.5889 108.451 98.2208C108.308 98.0101 108.247 97.7574 108.278 97.5072C107.146 97.5247 106.016 97.4218 104.907 97.2004C104.397 97.1469 103.928 96.9055 103.597 96.526C103.513 96.408 103.455 96.2748 103.425 96.1345C103.395 95.9941 103.395 95.8494 103.424 95.7089C102.343 95.6258 101.284 95.3664 100.293 94.9418L100.09 94.8526L100.064 94.6421C100.058 94.5447 100.072 94.4469 100.107 94.3553C100.142 94.2637 100.196 94.1802 100.267 94.1105C99.3348 94.2206 98.3892 94.1054 97.5143 93.7751C97.4662 93.7566 97.4223 93.7291 97.3852 93.6942C97.348 93.6593 97.3184 93.6176 97.2979 93.5715C97.2774 93.5254 97.2664 93.4759 97.2657 93.4257C97.2649 93.3756 97.2744 93.3258 97.2935 93.2792C97.3117 93.2324 97.3395 93.1896 97.3751 93.1533C97.4107 93.1171 97.4534 93.0881 97.5008 93.0682C97.5481 93.0482 97.5991 93.0377 97.6507 93.0371C97.7023 93.0366 97.7535 93.0461 97.8013 93.065C98.747 93.4209 99.7834 93.4832 100.767 93.2434C101.032 93.1971 101.47 93.1186 101.636 93.4504C101.801 93.7822 101.511 94.0284 101.205 94.2889L101.054 94.4209C101.908 94.735 102.807 94.9191 103.718 94.9668C103.819 94.9719 103.916 95.0014 104.002 95.0525C104.087 95.1037 104.158 95.1748 104.208 95.2594C104.252 95.3388 104.276 95.4277 104.276 95.518C104.276 95.6084 104.252 95.6973 104.208 95.7768C104.182 95.8241 104.169 95.8767 104.169 95.9302C104.169 95.9836 104.182 96.0362 104.208 96.0836C104.434 96.2924 104.728 96.4186 105.039 96.4404C106.223 96.6756 107.431 96.769 108.638 96.7187C108.73 96.7135 108.822 96.7337 108.903 96.7769C108.984 96.8201 109.05 96.8846 109.095 96.963C109.14 97.0413 109.161 97.1303 109.155 97.2197C109.15 97.309 109.119 97.3951 109.065 97.468C109.036 97.5156 109.021 97.5698 109.021 97.625C109.021 97.6801 109.036 97.7344 109.065 97.782C109.261 97.9791 109.521 98.1051 109.801 98.1388C110.894 98.3853 112.033 98.3608 113.113 98.0674C113.146 98.0255 113.189 97.9907 113.236 97.9652C113.284 97.9397 113.337 97.9239 113.392 97.9189C113.446 97.9139 113.501 97.9197 113.553 97.9361C113.605 97.9524 113.653 97.9789 113.694 98.0139L113.97 98.2529L113.694 98.6097C113.53 98.7889 113.398 98.9925 113.301 99.2127C113.565 99.3908 113.88 99.4844 114.202 99.4803C115.234 99.5147 116.266 99.4813 117.293 99.3804C118.949 99.2627 119.247 99.2413 119.413 99.5588L119.53 99.7836L119.291 100.08L119.207 100.115C118.891 100.215 118.603 100.385 118.368 100.611C118.299 100.681 118.256 100.771 118.245 100.868C118.234 100.964 118.257 101.06 118.309 101.143C118.406 101.213 118.518 101.263 118.636 101.289L120.255 101.807C120.304 101.822 120.35 101.847 120.389 101.879C120.428 101.911 120.46 101.951 120.483 101.995C120.506 102.04 120.52 102.088 120.524 102.138C120.528 102.188 120.522 102.237 120.506 102.285C120.482 102.357 120.438 102.42 120.378 102.468C120.317 102.515 120.244 102.545 120.167 102.552Z" fill="url(#paint21_linear_6487_15034)"/>
<path d="M130.721 109.954C130.635 109.954 130.552 109.926 130.486 109.875C130.259 109.765 129.998 109.727 129.745 109.765H129.541C129.003 109.765 128.337 109.561 128.225 108.987C128.188 108.794 128.225 108.595 128.33 108.425C128.147 108.504 127.947 108.54 127.745 108.532C127.065 108.453 126.347 108.089 126.317 107.446C126.321 107.344 126.348 107.245 126.395 107.153C126.443 107.061 126.51 106.98 126.592 106.912C125.993 106.869 125.419 106.673 124.933 106.347C124.89 106.323 124.852 106.291 124.823 106.253C124.795 106.215 124.775 106.171 124.765 106.126C124.755 106.08 124.756 106.033 124.766 105.988C124.777 105.942 124.798 105.9 124.828 105.862C124.858 105.824 124.896 105.793 124.94 105.77C124.983 105.746 125.032 105.732 125.082 105.727C125.132 105.722 125.182 105.726 125.231 105.74C125.279 105.754 125.323 105.777 125.361 105.808C125.647 105.997 125.973 106.131 126.318 106.2C126.662 106.269 127.018 106.272 127.364 106.209C127.738 106.055 128.01 105.952 128.18 106.209C128.351 106.467 128.109 106.649 127.84 106.837C127.549 107.014 127.284 107.225 127.051 107.465C127.072 107.64 127.476 107.81 127.851 107.854C128.025 107.814 128.194 107.756 128.354 107.681C128.755 107.515 129.133 107.367 129.405 107.587C129.488 107.675 129.541 107.784 129.558 107.9C129.575 108.016 129.555 108.134 129.5 108.24L129.459 108.353L129.35 108.416C129.089 108.569 128.932 108.73 128.956 108.855C128.98 108.981 129.296 109.081 129.561 109.081H129.738C130.171 109.026 130.61 109.123 130.969 109.351C131.027 109.395 131.069 109.454 131.089 109.521C131.108 109.587 131.105 109.658 131.079 109.723C131.053 109.788 131.006 109.844 130.945 109.883C130.883 109.922 130.809 109.942 130.735 109.941L130.721 109.954Z" fill="url(#paint22_linear_6487_15034)"/>
<path d="M146.568 122.64C146.519 122.64 146.47 122.63 146.424 122.608L144.009 121.528C143.629 121.397 143.293 121.145 143.042 120.803C142.958 120.664 142.901 120.506 142.876 120.34C142.85 120.175 142.857 120.005 142.894 119.843C142.912 119.773 142.936 119.705 142.966 119.64C142.653 119.592 142.355 119.54 142.172 119.492C141.255 119.245 140.77 118.791 140.734 118.138C140.721 117.956 140.746 117.774 140.809 117.606C140.871 117.437 140.969 117.288 141.093 117.169L139.364 116.835C138.455 116.659 138.286 116.133 138.286 115.839C138.28 115.723 138.303 115.609 138.354 115.508C138.105 115.51 137.857 115.484 137.614 115.428C137.364 115.362 137.131 115.234 136.933 115.053C136.735 114.872 136.577 114.643 136.47 114.384C136.402 114.214 136.373 114.028 136.386 113.842C136.398 113.657 136.452 113.477 136.542 113.32C136.569 113.273 136.604 113.233 136.646 113.201C136.687 113.169 136.733 113.147 136.783 113.135C136.832 113.123 136.882 113.122 136.932 113.132C136.981 113.142 137.029 113.163 137.071 113.193C137.156 113.253 137.217 113.349 137.239 113.459C137.261 113.568 137.243 113.683 137.189 113.779C137.166 113.821 137.154 113.87 137.154 113.92C137.154 113.97 137.166 114.019 137.189 114.061C137.248 114.194 137.332 114.311 137.436 114.404C137.54 114.497 137.66 114.563 137.79 114.599C138.051 114.651 138.316 114.67 138.581 114.655C138.913 114.643 139.246 114.673 139.573 114.743C139.68 114.726 139.789 114.754 139.878 114.822C139.967 114.89 140.03 114.992 140.054 115.109C140.112 115.508 139.803 115.599 139.594 115.675C139.439 115.729 139.287 115.793 139.138 115.866C139.25 115.932 139.372 115.976 139.497 115.998L141.96 116.472C142.066 116.493 142.164 116.553 142.237 116.642C142.311 116.731 142.356 116.844 142.366 116.964C142.375 117.083 142.349 117.204 142.292 117.306C142.234 117.407 142.148 117.486 142.046 117.528C141.834 117.616 141.478 117.803 141.496 118.074C141.514 118.345 142.042 118.58 142.355 118.663C142.549 118.715 142.876 118.767 143.203 118.819C144.264 118.986 144.584 119.038 144.598 119.476C144.598 119.624 144.551 119.875 144.16 119.978L143.653 120.046C143.638 120.091 143.632 120.139 143.637 120.187C143.641 120.234 143.655 120.28 143.678 120.321C143.849 120.513 144.064 120.651 144.3 120.719L146.716 121.799C146.81 121.842 146.885 121.924 146.925 122.028C146.965 122.131 146.966 122.248 146.928 122.353C146.905 122.439 146.858 122.513 146.792 122.565C146.727 122.617 146.648 122.643 146.568 122.64Z" fill="url(#paint23_linear_6487_15034)"/>
<path d="M156.675 121.584C156.517 121.582 156.36 121.549 156.214 121.486C156.068 121.422 155.935 121.33 155.824 121.214C155.724 121.111 155.653 120.983 155.617 120.842C155.581 120.702 155.581 120.555 155.619 120.415C155.663 120.298 155.739 120.198 155.839 120.126H155.446C154.964 120.148 154.482 120.133 154.003 120.082C153.8 120.061 153.605 119.991 153.433 119.878L153.264 119.753V119.49C153.264 119.246 153.444 119.061 153.877 118.773C153.443 118.727 153.035 118.534 152.719 118.225C152.535 118.023 152.406 117.773 152.346 117.503C152.287 117.233 152.299 116.951 152.38 116.687C152.443 116.459 152.568 116.255 152.741 116.098C152.283 115.98 151.511 115.873 150.938 115.795C150.115 115.704 149.3 115.549 148.5 115.333C147.7 115.063 147.671 114.567 147.696 114.367C147.73 114.211 147.8 114.065 147.9 113.942C148.001 113.819 148.129 113.723 148.273 113.661C148.494 113.55 148.722 113.454 148.955 113.372L147.393 113.132C146.987 113.107 146.602 112.932 146.311 112.64C146.138 112.399 146.049 112.105 146.059 111.806C146.069 111.506 146.177 111.219 146.365 110.991C146.447 110.883 146.54 110.785 146.643 110.698H146.564C145.323 110.665 143.448 110.613 142.774 109.482C142.726 109.393 142.714 109.288 142.74 109.19C142.765 109.093 142.826 109.008 142.91 108.955C142.994 108.902 143.095 108.884 143.192 108.905C143.289 108.926 143.374 108.984 143.43 109.067C143.884 109.833 145.594 109.881 146.585 109.911C147.436 109.933 147.822 109.944 147.999 110.255C148.04 110.326 148.061 110.408 148.061 110.491C148.061 110.574 148.04 110.656 147.999 110.728L147.941 110.839L147.829 110.894C147.505 111.023 147.211 111.224 146.971 111.482C146.894 111.569 146.845 111.677 146.832 111.794C146.818 111.91 146.84 112.027 146.895 112.13C147.075 112.271 147.293 112.35 147.519 112.355L150.087 112.751C150.199 112.751 150.617 112.751 150.678 113.121C150.74 113.491 150.393 113.668 149.456 114.016C149.181 114.11 148.912 114.219 148.648 114.342C148.585 114.373 148.527 114.413 148.475 114.46C148.569 114.491 148.662 114.526 148.753 114.567C149.508 114.769 150.277 114.912 151.053 114.996C152.831 115.248 153.624 115.366 153.78 115.895C153.809 116.009 153.804 116.13 153.766 116.241C153.728 116.352 153.659 116.449 153.567 116.52L153.487 116.594H153.379C153.311 116.611 153.25 116.647 153.202 116.699C153.154 116.751 153.121 116.816 153.109 116.886C153.07 117.012 153.064 117.146 153.09 117.276C153.116 117.405 153.173 117.526 153.257 117.626C153.711 118.088 154.537 117.966 154.869 117.892C155.2 117.818 155.547 117.696 155.698 118.059C155.849 118.421 155.575 118.595 154.905 119.006C154.778 119.08 154.605 119.187 154.443 119.29C154.728 119.29 155.099 119.29 155.456 119.29C156.816 119.29 157.371 119.29 157.505 119.742C157.584 119.993 157.461 120.23 157.144 120.448C156.984 120.534 156.811 120.593 156.632 120.622L156.452 120.666C156.561 120.731 156.69 120.75 156.812 120.718C156.899 120.713 156.986 120.738 157.057 120.789C157.129 120.841 157.181 120.915 157.206 121.001C157.23 121.087 157.226 121.179 157.193 121.262C157.16 121.345 157.101 121.414 157.025 121.458C156.916 121.52 156.798 121.563 156.675 121.584Z" fill="url(#paint24_linear_6487_15034)"/>
<path d="M106.919 126.87C106.626 126.87 106.34 126.785 106.103 126.628C105.967 126.536 105.859 126.415 105.786 126.276C105.714 126.136 105.681 125.983 105.689 125.829C105.724 125.696 105.794 125.572 105.892 125.469C105.99 125.365 106.113 125.284 106.252 125.233C105.93 125.289 105.577 125.363 105.29 125.422C104.7 125.563 104.099 125.662 103.492 125.717C103.241 125.741 102.987 125.706 102.756 125.615L102.568 125.531L102.487 125.289C102.437 125.005 102.66 124.721 103.254 124.167C102.94 124.227 102.617 124.229 102.302 124.173C101.987 124.117 101.688 124.004 101.422 123.842C101.147 123.643 100.932 123.383 100.798 123.088C100.664 122.792 100.615 122.47 100.655 122.152C100.682 121.837 100.83 121.54 101.073 121.314C100.233 121.282 99.3913 121.299 98.5538 121.367C97.5153 121.459 96.4701 121.472 95.4292 121.405C94.7315 121.321 94.3021 121.013 94.2561 120.557C94.2571 120.386 94.3016 120.216 94.3861 120.063C94.4706 119.91 94.5927 119.777 94.743 119.674C95.0639 119.435 95.402 119.216 95.7551 119.018L95.8587 118.955L93.451 119.06C92.9452 119.128 92.4304 119.015 92.0133 118.745C91.7517 118.516 91.5768 118.216 91.5141 117.889C91.4514 117.563 91.504 117.227 91.6644 116.929C91.7769 116.699 91.9312 116.488 92.1207 116.305L91.7373 116.365C90.2038 116.617 87.9034 117.003 86.7916 115.857C86.7228 115.782 86.6886 115.686 86.6964 115.588C86.7042 115.491 86.7533 115.4 86.8332 115.335C86.9132 115.27 87.0177 115.236 87.1245 115.241C87.2313 115.245 87.332 115.288 87.405 115.359C88.2101 116.19 90.2459 115.853 91.5878 115.629C92.5769 115.468 93.0714 115.384 93.3475 115.657C93.4082 115.717 93.4508 115.79 93.4709 115.869C93.4911 115.948 93.4882 116.031 93.4625 116.109L93.4318 116.228L93.3283 116.305C92.9489 116.548 92.6343 116.865 92.4082 117.234C92.3251 117.384 92.2924 117.553 92.3143 117.719C92.3361 117.886 92.4115 118.043 92.5309 118.17C92.7981 118.305 93.1081 118.352 93.4088 118.303L96.6829 118.16C96.8209 118.132 97.2772 118.051 97.4497 118.401C97.6222 118.752 97.2388 119.018 96.219 119.632C95.9035 119.812 95.5989 120.007 95.3066 120.217C95.1187 120.375 95.0842 120.445 95.088 120.477C95.0919 120.508 95.2567 120.617 95.5519 120.652C96.5407 120.711 97.533 120.697 98.5193 120.61C100.674 120.487 101.724 120.448 102.035 120.96C102.097 121.068 102.123 121.19 102.11 121.311C102.096 121.432 102.043 121.547 101.958 121.64L101.893 121.728L101.782 121.77C101.693 121.816 101.619 121.882 101.567 121.962C101.514 122.042 101.485 122.133 101.483 122.226C101.462 122.412 101.49 122.599 101.567 122.773C101.643 122.946 101.764 123.1 101.92 123.221C102.614 123.663 103.545 123.375 104.04 123.161C104.366 122.997 104.757 122.811 105.01 123.102C105.263 123.393 105.01 123.635 104.308 124.283C104.109 124.462 103.806 124.735 103.588 124.956C104.112 124.893 104.631 124.803 105.144 124.686C106.72 124.36 107.444 124.234 107.701 124.665C107.92 125.016 107.575 125.366 107.464 125.468C107.296 125.602 107.104 125.708 106.896 125.783C106.78 125.832 106.667 125.887 106.559 125.948C106.589 125.983 106.623 126.016 106.659 126.046C106.742 126.09 106.837 126.112 106.933 126.112C107.029 126.112 107.123 126.09 107.207 126.046C107.254 126.018 107.306 126 107.362 125.991C107.417 125.982 107.473 125.984 107.528 125.997C107.582 126.009 107.633 126.031 107.678 126.062C107.723 126.093 107.76 126.132 107.787 126.176C107.815 126.221 107.832 126.27 107.838 126.321C107.844 126.372 107.838 126.424 107.822 126.473C107.805 126.521 107.778 126.567 107.741 126.605C107.705 126.644 107.66 126.676 107.609 126.698C107.401 126.812 107.162 126.871 106.919 126.87Z" fill="url(#paint25_linear_6487_15034)"/>
<path d="M113.776 107.838C113.71 107.838 113.644 107.821 113.586 107.79C113.527 107.76 113.477 107.715 113.441 107.661C113.399 107.602 113.294 107.518 113.011 107.462L112.841 107.433C112.59 107.401 112.346 107.331 112.118 107.223L111.933 107.123L111.869 106.858C111.858 106.744 111.883 106.629 111.941 106.53C111.718 106.598 111.484 106.623 111.251 106.604C111.006 106.578 110.77 106.494 110.565 106.36C110.36 106.226 110.19 106.045 110.072 105.834C110.024 105.726 110.011 105.606 110.036 105.491C110.061 105.376 110.123 105.272 110.211 105.192C109.455 105.078 108.711 104.898 107.988 104.654C107.776 104.598 107.586 104.48 107.445 104.315C107.383 104.232 107.339 104.138 107.315 104.038C107.291 103.938 107.288 103.834 107.306 103.733C107.32 103.654 107.345 103.578 107.377 103.505C106.977 103.695 106.541 103.804 106.096 103.825C105.866 103.835 105.636 103.797 105.422 103.714C105.208 103.63 105.014 103.504 104.853 103.342C104.434 102.83 104.612 102.119 104.977 101.644C104.988 101.627 105.001 101.611 105.015 101.596C103.997 101.909 102.652 102.237 101.774 101.964C101.724 101.948 101.678 101.922 101.638 101.888C101.598 101.855 101.565 101.813 101.542 101.767C101.518 101.721 101.504 101.67 101.501 101.619C101.497 101.567 101.504 101.516 101.522 101.467C101.537 101.416 101.563 101.369 101.597 101.329C101.631 101.288 101.674 101.255 101.721 101.23C101.769 101.206 101.821 101.191 101.875 101.187C101.929 101.182 101.983 101.189 102.034 101.205C102.882 101.489 104.623 100.907 105.463 100.627C106.1 100.417 106.341 100.336 106.526 100.627C106.565 100.693 106.585 100.768 106.585 100.844C106.585 100.92 106.565 100.995 106.526 101.061C106.372 101.313 106.184 101.544 105.968 101.747C105.849 101.863 105.737 101.987 105.633 102.115C105.456 102.348 105.354 102.687 105.493 102.852C105.633 103.018 105.908 103.029 106.149 103.044C106.57 102.981 106.979 102.857 107.362 102.675C108.075 102.384 108.64 102.152 109.024 102.403C109.092 102.448 109.15 102.507 109.194 102.576C109.276 102.593 109.351 102.634 109.409 102.694C109.467 102.754 109.505 102.83 109.518 102.911C109.582 103.28 109.239 103.412 108.617 103.615C108.463 103.66 108.312 103.714 108.165 103.777C108.135 103.803 108.117 103.838 108.112 103.877L108.263 103.925C109.097 104.206 109.96 104.396 110.837 104.492C111.168 104.389 111.504 104.315 111.666 104.629C111.828 104.942 111.549 105.163 111.289 105.366C111.198 105.432 111.036 105.55 110.912 105.642C111.058 105.749 111.229 105.82 111.409 105.848C111.78 105.783 112.146 105.695 112.506 105.587C113.35 105.358 113.637 105.281 113.783 105.653C113.93 106.025 113.599 106.191 113.132 106.419C113.045 106.493 112.954 106.578 112.879 106.652H112.988L113.173 106.688C113.36 106.71 113.54 106.769 113.702 106.86C113.865 106.952 114.007 107.076 114.119 107.223C114.148 107.266 114.169 107.314 114.179 107.365C114.19 107.416 114.19 107.468 114.179 107.519C114.169 107.569 114.148 107.618 114.118 107.66C114.088 107.703 114.05 107.74 114.006 107.768C113.939 107.815 113.858 107.84 113.776 107.838Z" fill="url(#paint26_linear_6487_15034)"/>
<path d="M152.568 108.897C152.32 108.892 152.08 108.805 151.885 108.649C151.757 108.554 151.651 108.432 151.576 108.291C151.5 108.15 151.456 107.994 151.447 107.834C150.775 107.887 150.231 107.907 149.898 107.697C149.647 107.536 149.444 107.309 149.311 107.041C149.178 106.772 149.12 106.472 149.143 106.173C148.613 106.132 148.094 106.003 147.606 105.792C147.376 105.719 147.167 105.589 147 105.413C146.833 105.237 146.713 105.022 146.65 104.786C146.567 104.329 147.047 104.158 147.553 103.975L147.825 103.876C147.734 103.845 147.621 103.811 147.485 103.777C147.316 103.728 147.138 103.724 146.967 103.765C146.796 103.807 146.639 103.892 146.511 104.013C146.167 104.253 145.597 104.653 144.868 103.803C144.757 103.713 144.672 103.595 144.62 103.462C144.568 103.328 144.55 103.184 144.569 103.041C144.613 102.84 144.698 102.649 144.818 102.482C144.938 102.315 145.091 102.174 145.268 102.07L144.618 102.039C143.78 102.005 142.983 101.971 142.473 101.658C142.39 101.657 142.308 101.633 142.236 101.59C142.164 101.548 142.104 101.487 142.062 101.415L141.937 101.194L142.103 100.904C142.413 100.594 142.784 100.352 143.191 100.192C142.862 100.169 142.485 100.154 142.182 100.142C141.268 100.108 140.324 100.074 139.784 99.8527C139.587 99.7951 139.406 99.6936 139.253 99.5558C139.1 99.418 138.979 99.2474 138.9 99.0564C138.798 98.725 139.002 98.443 139.448 98.1344C138.613 98.2945 137.937 98.344 137.514 98.1344C137.347 98.0572 137.176 97.9897 137.001 97.9325C136.623 97.7992 136.245 97.6773 136.136 97.3115C136.106 97.1716 136.108 97.0267 136.143 96.8879C136.178 96.7491 136.244 96.6203 136.336 96.5115C136.596 96.1955 136.89 95.9094 137.212 95.6581C136.384 95.6522 135.56 95.5239 134.769 95.2771C133.942 95.0142 133.454 94.618 133.281 94.0656C133.254 93.9868 133.243 93.9033 133.248 93.8201C133.254 93.737 133.277 93.6559 133.315 93.5818C133.396 93.4642 133.499 93.3642 133.619 93.2877C133.739 93.2111 133.873 93.1596 134.013 93.136L134.134 93.0979V93.0369C133.637 93.0189 133.14 93.0637 132.654 93.1703C131.815 93.3036 130.95 93.437 130.316 93.2884C130.088 93.2499 129.876 93.1498 129.7 92.9988L129.56 92.8617V92.6064C129.56 92.374 129.734 92.1836 130.082 91.9092C128.907 92.0654 127.838 92.1531 127.192 91.9092C127.136 91.8979 127.082 91.8743 127.035 91.8402C126.988 91.8061 126.949 91.7623 126.92 91.7116C126.892 91.6609 126.874 91.6046 126.869 91.5465C126.864 91.4884 126.871 91.4298 126.89 91.3748C126.909 91.3197 126.94 91.2694 126.98 91.2273C127.02 91.1852 127.068 91.1522 127.122 91.1306C127.176 91.1091 127.233 91.0994 127.291 91.1023C127.349 91.1051 127.405 91.1205 127.457 91.1473C128.069 91.3644 129.568 91.1473 130.478 91.0253C131.483 90.8844 131.691 90.8577 131.853 91.1587C131.89 91.2366 131.904 91.3238 131.893 91.4096C131.883 91.4955 131.848 91.5763 131.793 91.6425C131.607 91.8231 131.402 91.9816 131.181 92.1149C131.03 92.2178 130.803 92.3702 130.633 92.4959C131.275 92.5294 131.919 92.4782 132.548 92.3436C133.613 92.1759 134.383 92.054 134.772 92.4578C134.838 92.5283 134.889 92.6117 134.922 92.7028C134.954 92.7939 134.968 92.8908 134.961 92.9874C135.013 93.1222 135.013 93.2717 134.961 93.4065C134.89 93.5363 134.79 93.6476 134.668 93.7316C134.547 93.8155 134.408 93.8699 134.263 93.8903L134.13 93.936C134.362 94.2101 134.677 94.4002 135.025 94.477C135.918 94.7584 136.852 94.8783 137.786 94.8313C137.926 94.7894 138.368 94.6866 138.542 95.0447C138.715 95.4028 138.394 95.719 137.786 96.2448C137.508 96.4628 137.249 96.705 137.012 96.9686L136.97 97.0372C137.054 97.0753 137.182 97.1172 137.284 97.1515C137.486 97.2186 137.684 97.2975 137.877 97.3877C138.307 97.5858 139.765 97.2315 140.547 97.041C140.925 96.9496 141.272 96.8658 141.503 96.8315C141.933 96.7972 142.05 97.041 142.08 97.1439C142.19 97.5249 141.907 97.6811 141.072 98.1268C140.62 98.3492 140.185 98.6039 139.769 98.8888C139.872 98.9636 139.986 99.0239 140.105 99.0678C140.803 99.2358 141.518 99.3139 142.235 99.3003C143.712 99.3536 144.433 99.4031 144.641 99.8869C144.686 100.004 144.696 100.133 144.668 100.256C144.64 100.378 144.577 100.49 144.486 100.577L144.339 100.744L144.12 100.706C143.807 100.778 143.506 100.897 143.229 101.06C143.707 101.153 144.192 101.201 144.679 101.205C145.098 101.205 145.525 101.239 145.921 101.289C146.052 101.307 146.173 101.365 146.269 101.456C146.364 101.547 146.429 101.666 146.454 101.796C146.479 101.928 146.462 102.064 146.406 102.186C146.349 102.307 146.257 102.408 146.14 102.474C145.551 102.798 145.385 103.041 145.385 103.106C145.385 103.171 145.385 103.148 145.453 103.194C145.748 103.533 145.748 103.529 146.065 103.308C146.289 103.117 146.556 102.985 146.842 102.924C147.129 102.862 147.426 102.872 147.708 102.954C148.437 103.144 148.928 103.365 148.947 103.807C148.965 104.249 148.418 104.497 147.84 104.703L147.591 104.794C147.695 104.885 147.814 104.957 147.942 105.007C148.435 105.222 148.965 105.335 149.502 105.339C149.593 105.34 149.682 105.364 149.762 105.409C149.842 105.453 149.909 105.517 149.959 105.594C150.006 105.668 150.035 105.753 150.041 105.841C150.048 105.928 150.032 106.017 149.996 106.097C149.952 106.261 149.961 106.436 150.024 106.594C150.087 106.752 150.199 106.885 150.344 106.973C150.701 107.028 151.064 107.028 151.42 106.973C151.979 106.931 152.346 106.901 152.463 107.27C152.491 107.367 152.488 107.471 152.454 107.566C152.42 107.661 152.357 107.743 152.274 107.8C152.296 107.865 152.339 107.921 152.395 107.96C152.474 108.025 152.591 108.067 152.648 108.021C152.732 107.955 152.84 107.925 152.946 107.939C153.052 107.952 153.149 108.008 153.214 108.093C153.247 108.135 153.27 108.183 153.284 108.235C153.298 108.286 153.302 108.339 153.295 108.392C153.289 108.445 153.272 108.496 153.245 108.542C153.219 108.588 153.184 108.628 153.143 108.661C152.985 108.806 152.782 108.89 152.568 108.897Z" fill="url(#paint27_linear_6487_15034)"/>
<path d="M117.711 126.87C116.97 126.87 116.421 126.296 115.939 125.782C115.569 125.385 115.18 124.977 114.742 124.86L114.583 124.817L114.42 124.544L114.457 124.328C114.487 124.233 114.543 124.147 114.62 124.08C113.315 124.101 112.485 123.694 112.17 122.91C112.147 122.85 112.125 122.79 112.107 122.726C112.101 122.636 112.059 122.551 111.99 122.489C111.922 122.427 111.83 122.392 111.736 122.393L109.983 121.864C109.896 121.853 109.815 121.815 109.752 121.756C109.69 121.697 109.648 121.621 109.634 121.538C109.571 121.216 109.856 121.06 110.257 120.829C109.843 120.711 109.442 120.555 109.059 120.365L109.223 120.01L108.933 119.784C109.002 119.691 109.065 119.595 109.123 119.496C108.306 119.481 107.501 119.306 106.758 118.982C106.596 118.912 106.459 118.801 106.36 118.66C106.262 118.519 106.207 118.354 106.202 118.185C106.194 118.02 106.236 117.856 106.324 117.713C105.308 117.736 104.294 117.625 103.31 117.384C103.177 117.367 103.053 117.313 102.951 117.229C102.85 117.145 102.776 117.035 102.739 116.912C102.712 116.779 102.729 116.642 102.788 116.519C102.817 116.43 102.81 116.405 102.788 116.373C102.505 116.156 102.149 116.045 101.787 116.061C101.271 116.061 100.304 116.061 99.7108 115.466C99.6543 115.411 99.6098 115.345 99.5799 115.273C99.55 115.202 99.5353 115.125 99.5366 115.048C99.6053 114.704 99.8098 114.4 100.107 114.197C99.2374 114.221 98.3671 114.154 97.5127 113.995C97.2775 113.976 97.0494 113.908 96.8445 113.796C96.6396 113.684 96.4628 113.53 96.3265 113.346C96.2385 113.192 96.1994 113.017 96.2139 112.842C96.2284 112.667 96.2958 112.499 96.408 112.361C96.494 112.247 96.6131 112.161 96.7503 112.112C96.8875 112.064 97.0367 112.055 97.179 112.088C97.2734 112.115 97.3539 112.174 97.4048 112.255C97.4557 112.336 97.4733 112.431 97.4544 112.524C97.4354 112.616 97.3811 112.699 97.3022 112.755C97.2232 112.811 97.1251 112.837 97.0271 112.828C97.0147 112.849 97.0066 112.871 97.0034 112.894C97.0003 112.917 97.002 112.941 97.0085 112.963C97.1086 113.133 97.4126 113.208 97.6609 113.254C98.552 113.418 99.4609 113.476 100.367 113.428C100.578 113.428 101.034 113.456 101.171 113.803C101.308 114.151 100.997 114.441 100.697 114.714C100.587 114.811 100.484 114.912 100.385 115.019C100.816 115.25 101.31 115.349 101.801 115.303C102.38 115.303 103.11 115.498 103.44 115.93C103.522 116.037 103.577 116.16 103.601 116.291C103.624 116.421 103.616 116.555 103.577 116.682C104.559 116.918 105.572 117.014 106.583 116.965C106.884 116.825 107.228 116.795 107.551 116.88C107.633 116.912 107.705 116.966 107.757 117.035C107.81 117.104 107.841 117.185 107.847 117.27C107.847 117.582 107.569 117.798 107.062 118.068C107.041 118.077 107.024 118.092 107.012 118.111C107.001 118.131 106.996 118.152 106.998 118.174C106.999 118.204 107.009 118.232 107.026 118.257C107.043 118.281 107.067 118.3 107.095 118.312C107.885 118.656 108.753 118.806 109.619 118.748L109.775 118.624L110.053 118.812C110.324 119.029 110.157 119.319 110.053 119.521C109.975 119.659 109.905 119.776 109.845 119.876C110.175 120.011 110.516 120.119 110.865 120.198C110.976 120.198 111.417 120.237 111.499 120.606C111.58 120.975 111.31 121.131 110.946 121.336L111.995 121.652C112.236 121.71 112.455 121.833 112.625 122.006C112.751 122.151 112.84 122.323 112.885 122.506C112.885 122.552 112.915 122.595 112.933 122.637C113.204 123.314 114.316 123.368 115.205 123.297C115.576 123.297 116.069 123.314 116.166 123.69C116.262 124.066 115.91 124.225 115.572 124.399C115.935 124.651 116.262 124.945 116.547 125.275C117.089 125.849 117.437 126.196 117.9 126.094C117.952 126.078 118.007 126.073 118.061 126.079C118.115 126.085 118.168 126.102 118.215 126.128C118.262 126.154 118.303 126.189 118.335 126.231C118.368 126.272 118.391 126.32 118.403 126.371C118.415 126.422 118.417 126.474 118.407 126.525C118.397 126.577 118.376 126.625 118.345 126.668C118.315 126.712 118.275 126.748 118.229 126.776C118.184 126.804 118.132 126.823 118.078 126.831C117.958 126.857 117.835 126.87 117.711 126.87ZM110.153 121.127H110.209C110.19 121.125 110.171 121.125 110.153 121.127Z" fill="url(#paint28_linear_6487_15034)"/>
<path d="M123.142 87.4668C122.643 86.8325 122.124 86.2224 121.586 85.6367C121.63 86.6771 121.642 87.7343 121.622 88.8085C124.434 87.9965 127.242 87.1866 130.044 86.3789C127.755 86.7426 125.455 87.1052 123.142 87.4668Z" fill="#0069D1"/>
<path d="M90.1993 109.247C89.804 108.407 89.3925 107.588 88.9648 106.781C88.9389 108.165 88.8903 109.574 88.8125 111.01L96.2133 107.984C94.2173 108.395 92.2126 108.816 90.1993 109.247Z" fill="#0069D1"/>
<g style="mix-blend-mode:multiply">
<path d="M25.4223 118.501L25.4554 118.483C25.4641 118.432 25.4847 118.384 25.5154 118.343C25.5461 118.301 25.586 118.268 25.632 118.245L27.7766 116.992C27.7423 116.845 27.7262 116.694 27.7287 116.543L28.8102 115.913L105.571 71.0443L120.528 65.5488L116.014 69.7539L116.124 69.5462L110.47 74.6746L37.9294 117.073L37.0796 117.578L36.7853 117.748L35.6818 118.397L35.3875 118.568L32.1982 120.459C31.9701 120.426 31.7441 120.381 31.5213 120.322L29.557 121.471C29.4001 121.551 29.2245 121.585 29.0494 121.571C28.6594 121.664 27.5007 121.201 26.6804 120.459C25.7754 119.669 25.2016 118.753 25.4223 118.501Z" fill="#DAF0F0"/>
</g>
<path d="M27.4949 113.183C27.4949 113.183 27.3648 114.002 28.9004 115.06C30.436 116.117 32.7784 116.297 32.7784 116.297C32.7784 116.297 32.7264 115.263 30.9305 114.029C29.1346 112.794 27.4949 113.183 27.4949 113.183Z" fill="#C8C9C9"/>
<path d="M26.6023 114.972L29.3636 117.261C29.4921 117.322 29.6342 117.354 29.7784 117.354C29.9226 117.354 30.0648 117.322 30.1933 117.261L32.6019 115.956C32.8303 115.83 32.8303 115.642 32.6019 115.51L29.8406 113.218C29.7121 113.157 29.5699 113.125 29.4257 113.125C29.2815 113.125 29.1393 113.157 29.0108 113.218L26.6023 114.523C26.3705 114.649 26.3738 114.847 26.6023 114.972Z" fill="#2F93D6"/>
<path d="M29.5706 117.288C29.3877 117.536 28.275 117.055 27.5159 116.244C26.7568 115.433 26.2964 114.518 26.4641 114.266C26.6318 114.015 27.5982 114.329 28.3573 115.14C29.1164 115.951 29.7505 117.036 29.5706 117.288Z" fill="#739CC2"/>
<path d="M29.6016 112.016L31.1308 113.534L33.2688 116.298L111.01 71.2526L109.671 68.2506L106.125 67.6641L29.6016 112.016Z" fill="#00DBE6"/>
<path d="M38.0625 111.376L112.07 68.7207L111.255 71.0152L38.5162 113.125L38.0625 111.376Z" fill="url(#paint29_linear_6487_15034)"/>
<path d="M35.87 109.385L108.901 67.6641L105.363 67.7917L33.8359 109.144L35.2444 109.954L35.87 109.385Z" fill="#00F3F0"/>
<path d="M120.528 62.377L105.727 67.4649C106.778 67.5753 107.763 68.0053 108.533 68.6904C110.193 70.2016 110.575 70.835 110.575 70.835L120.528 62.377Z" fill="white"/>
<path d="M115.878 66.606C115.878 66.606 116.445 65.655 116.169 65.5506C115.843 65.4951 115.507 65.5207 115.193 65.6252C115.193 65.6252 116.268 64.5921 116.071 64.4542C115.874 64.3162 114.18 64.6556 114.18 64.6556L120.523 62.377L115.878 66.606Z" fill="#53668F"/>
<path d="M34.4908 108.896C34.4908 108.896 35.7303 108.943 37.2806 110.139C38.2036 110.79 38.8528 111.701 39.122 112.725L32.3466 116.297C31.8851 115.348 31.2062 114.496 30.3538 113.797C29.5292 113.171 28.5471 112.735 27.4922 112.525L34.4908 108.896Z" fill="white"/>
<path d="M32.7734 110.077C32.7734 110.077 34.6308 110.391 35.6921 111.106C36.5082 111.705 37.1958 112.385 37.7331 113.125L38.0597 112.992C38.0597 112.992 37.6515 111.977 35.884 110.908C35.0988 110.417 34.1391 110.087 33.1082 109.953L32.7734 110.077Z" fill="#A7A9AC"/>
<path d="M31.7188 111.142C32.5847 111.388 33.3951 111.766 34.1129 112.258C34.8174 112.768 35.3595 113.431 35.6861 114.182L35.9478 114.049C35.9478 114.049 35.7286 113.167 34.2699 112.051C33.6052 111.556 32.8226 111.201 31.9804 111.01L31.7188 111.142Z" fill="#A7A9AC"/>
<path d="M29.6016 112.201C30.6375 112.369 31.6103 112.693 32.4546 113.15C33.3766 113.721 34.098 114.437 34.5618 115.24L34.8878 115.105C34.3464 114.336 33.632 113.635 32.7725 113.029C31.9775 112.523 30.9944 112.19 29.9399 112.068L29.6016 112.201Z" fill="#A7A9AC"/>
<path opacity="0.5" d="M31.7188 113.965L32.9845 115.239L38.0623 112.287L36.6378 111.01L31.7188 113.965Z" fill="#F1F2F2"/>
<path style="mix-blend-mode:multiply" d="M292.738 260.493L233.625 225.151L272.698 201.068L333.489 237.474L292.738 260.493Z" fill="url(#paint30_linear_6487_15034)"/>
<path d="M286.109 173.27H231.539V219.717H231.594C231.797 223.588 234.444 227.422 239.549 230.37C250.178 236.519 267.474 236.519 278.102 230.37C283.205 227.422 285.851 223.588 286.054 219.717H286.109V173.27Z" fill="url(#paint31_linear_6487_15034)"/>
<path d="M258.821 188.165C273.069 188.165 284.618 181.496 284.618 173.269C284.618 165.042 273.069 158.373 258.821 158.373C244.573 158.373 233.023 165.042 233.023 173.269C233.023 181.496 244.573 188.165 258.821 188.165Z" fill="url(#paint32_linear_6487_15034)"/>
<path d="M281.762 177.95C280.594 179.869 278.688 181.673 276.021 183.208C266.535 188.687 251.102 188.687 241.614 183.208C238.952 181.67 237.043 179.866 235.875 177.944C237.232 176.462 238.819 175.208 240.575 174.23C250.65 168.413 266.984 168.413 277.056 174.23C278.812 175.213 280.401 176.468 281.762 177.95Z" fill="url(#paint33_linear_6487_15034)"/>
<path d="M239.542 184.402C228.913 178.253 228.913 168.276 239.542 162.136C250.171 155.996 267.469 155.987 278.098 162.136C288.727 168.285 288.727 178.265 278.098 184.402C267.469 190.538 250.174 190.541 239.542 184.402ZM276.024 163.35C266.538 157.871 251.102 157.871 241.617 163.35C232.131 168.829 232.131 177.742 241.617 183.221C251.102 188.7 266.538 188.7 276.024 183.221C285.509 177.742 285.512 168.814 276.024 163.35Z" fill="#E6F6FF"/>
<path d="M288.786 209.743C288.786 209.42 288.758 209.1 288.736 208.787C288.715 208.473 288.684 208.147 288.653 207.833C288.623 207.52 288.58 207.182 288.534 206.859C288.487 206.536 288.432 206.185 288.374 205.853C288.315 205.521 288.245 205.162 288.171 204.823C288.088 204.433 287.996 204.049 287.897 203.667C287.777 203.212 287.648 202.763 287.507 202.324C287.292 201.635 287.055 200.971 286.797 200.332C286.353 199.221 285.839 198.14 285.26 197.094C284.824 196.304 284.366 195.557 283.895 194.865C283.551 194.355 283.201 193.869 282.85 193.414C282.543 193.011 282.236 192.63 281.928 192.267C281.621 191.904 281.363 191.624 281.08 191.345C280.797 191.065 280.567 190.816 280.318 190.576C280.069 190.336 279.863 190.149 279.644 189.961C279.426 189.773 279.248 189.62 279.057 189.466C278.867 189.312 278.722 189.202 278.562 189.085L278.369 188.943L271.727 191.16L271.92 191.298C272.08 191.418 272.246 191.544 272.415 191.683C272.584 191.821 272.802 191.99 273.002 192.175C273.202 192.359 273.448 192.577 273.678 192.79C273.909 193.002 274.182 193.288 274.441 193.558C274.699 193.829 275.003 194.173 275.289 194.499C275.575 194.825 275.904 195.24 276.211 195.643C276.564 196.102 276.913 196.586 277.259 197.094C277.729 197.792 278.181 198.536 278.624 199.326C279.201 200.372 279.715 201.452 280.161 202.561C280.416 203.203 280.656 203.867 280.871 204.553C281.008 204.994 281.137 205.442 281.258 205.9C281.356 206.279 281.449 206.663 281.535 207.052C281.608 207.391 281.676 207.735 281.738 208.082C281.799 208.43 281.848 208.75 281.897 209.091C281.947 209.432 281.98 209.737 282.014 210.066C282.048 210.395 282.076 210.68 282.097 211.016C282.119 211.351 282.137 211.652 282.149 211.972C282.162 212.292 282.168 212.602 282.168 212.919C282.168 213.235 282.168 213.469 282.168 213.749C282.168 213.792 282.168 213.835 282.168 213.878C282.168 214.185 282.143 214.493 282.125 214.8C282.106 215.108 282.082 215.391 282.054 215.677C282.027 215.963 281.996 216.23 281.959 216.497C281.922 216.765 281.882 217.029 281.839 217.288C281.796 217.546 281.747 217.801 281.695 218.05C281.642 218.299 281.584 218.551 281.522 218.794C281.461 219.037 281.393 219.286 281.323 219.523C281.252 219.76 281.172 220.021 281.089 220.258C281.006 220.494 280.911 220.747 280.819 220.98C280.726 221.214 280.597 221.503 280.48 221.752C280.364 222.001 280.216 222.293 280.075 222.551C279.933 222.81 279.73 223.145 279.549 223.418C279.311 223.779 279.053 224.127 278.778 224.461C277.506 226.023 275.82 227.195 273.912 227.843L280.551 225.629C282.459 224.98 284.146 223.808 285.42 222.247C285.694 221.914 285.95 221.567 286.188 221.208C286.37 220.931 286.545 220.642 286.714 220.338C286.855 220.082 286.991 219.815 287.123 219.538C287.255 219.262 287.35 219.034 287.458 218.767C287.565 218.499 287.642 218.293 287.728 218.044C287.814 217.795 287.891 217.561 287.965 217.312C288.039 217.063 288.1 216.83 288.165 216.581C288.229 216.331 288.281 216.092 288.334 215.836C288.386 215.581 288.435 215.335 288.478 215.077C288.521 214.819 288.564 214.554 288.598 214.287C288.632 214.019 288.666 213.743 288.693 213.463C288.721 213.183 288.746 212.888 288.764 212.59C288.783 212.292 288.798 211.975 288.807 211.667C288.807 211.624 288.807 211.581 288.807 211.538C288.807 211.262 288.807 210.985 288.807 210.711C288.804 210.37 288.798 210.053 288.786 209.743Z" fill="url(#paint34_linear_6487_15034)"/>
<path d="M271.717 191.137C275.457 193.79 282.456 201.931 282.167 213.732C281.878 225.532 274.56 228.434 270.736 228.299L270.008 223.644C270.343 223.644 278.405 223.721 278.694 212.514C278.983 201.258 271.031 195.404 270.702 195.158L271.717 191.137Z" fill="#E6F6FF"/>
<defs>
<linearGradient id="paint0_linear_6487_15034" x1="385.066" y1="189.698" x2="434.705" y2="274.553" gradientUnits="userSpaceOnUse">
<stop stop-color="#70AEE3"/>
<stop offset="0.25" stop-color="#9CC7EC"/>
<stop offset="0.6" stop-color="#D1E5F6"/>
<stop offset="0.86" stop-color="#F2F8FD"/>
<stop offset="1" stop-color="white"/>
</linearGradient>
<linearGradient id="paint1_linear_6487_15034" x1="327.711" y1="194.07" x2="467.139" y2="194.07" gradientUnits="userSpaceOnUse">
<stop stop-color="#00C7EB"/>
<stop offset="1" stop-color="#004DAD"/>
</linearGradient>
<linearGradient id="paint2_linear_6487_15034" x1="328.961" y1="179.625" x2="469.645" y2="179.625" gradientUnits="userSpaceOnUse">
<stop stop-color="#00F3F0"/>
<stop offset="1" stop-color="#00A4D1"/>
</linearGradient>
<linearGradient id="paint3_linear_6487_15034" x1="442.857" y1="146.27" x2="488.549" y2="224.823" gradientUnits="userSpaceOnUse">
<stop stop-color="#70AEE3"/>
<stop offset="0.25" stop-color="#9CC7EC"/>
<stop offset="0.6" stop-color="#D1E5F6"/>
<stop offset="0.86" stop-color="#F2F8FD"/>
<stop offset="1" stop-color="white"/>
</linearGradient>
<linearGradient id="paint4_linear_6487_15034" x1="197.061" y1="89.18" x2="499.795" y2="89.18" gradientUnits="userSpaceOnUse">
<stop stop-color="#4EA7E0"/>
<stop offset="0.55" stop-color="#2F83CB"/>
<stop offset="1" stop-color="#1A6BBC"/>
</linearGradient>
<linearGradient id="paint5_linear_6487_15034" x1="239.781" y1="70.343" x2="429.454" y2="70.343" gradientUnits="userSpaceOnUse">
<stop stop-color="#72DFFF"/>
<stop offset="1" stop-color="#64BAFA"/>
</linearGradient>
<linearGradient id="paint6_linear_6487_15034" x1="426.938" y1="103.002" x2="469.645" y2="103.002" gradientUnits="userSpaceOnUse">
<stop stop-color="#72DFFF"/>
<stop offset="1" stop-color="#64BAFA"/>
</linearGradient>
<linearGradient id="paint7_linear_6487_15034" x1="398.047" y1="120.586" x2="440.755" y2="120.586" gradientUnits="userSpaceOnUse">
<stop stop-color="#72DFFF"/>
<stop offset="1" stop-color="#64BAFA"/>
</linearGradient>
<linearGradient id="paint8_linear_6487_15034" x1="367.898" y1="136.917" x2="411.862" y2="136.917" gradientUnits="userSpaceOnUse">
<stop stop-color="#72DFFF"/>
<stop offset="1" stop-color="#64BAFA"/>
</linearGradient>
<linearGradient id="paint9_linear_6487_15034" x1="228.805" y1="66.2842" x2="384.209" y2="156.125" gradientUnits="userSpaceOnUse">
<stop stop-color="#A9D8F2"/>
<stop offset="1" stop-color="#9CCCFF"/>
</linearGradient>
<linearGradient id="paint10_linear_6487_15034" x1="226.64" y1="71.7172" x2="379.346" y2="159.788" gradientUnits="userSpaceOnUse">
<stop stop-color="#A9D8F2"/>
<stop offset="1" stop-color="#9CCCFF"/>
</linearGradient>
<linearGradient id="paint11_linear_6487_15034" x1="230.392" y1="68.5284" x2="373.631" y2="154.895" gradientUnits="userSpaceOnUse">
<stop stop-color="#A9D8F2"/>
<stop offset="1" stop-color="#9CCCFF"/>
</linearGradient>
<linearGradient id="paint12_linear_6487_15034" x1="228.711" y1="69.8331" x2="375.301" y2="161.848" gradientUnits="userSpaceOnUse">
<stop stop-color="#A9D8F2"/>
<stop offset="1" stop-color="#9CCCFF"/>
</linearGradient>
<linearGradient id="paint13_linear_6487_15034" x1="227.196" y1="67.8398" x2="380.453" y2="160.951" gradientUnits="userSpaceOnUse">
<stop stop-color="#A9D8F2"/>
<stop offset="1" stop-color="#9CCCFF"/>
</linearGradient>
<linearGradient id="paint14_linear_6487_15034" x1="227.687" y1="61.3832" x2="388.301" y2="148.682" gradientUnits="userSpaceOnUse">
<stop stop-color="#A9D8F2"/>
<stop offset="1" stop-color="#9CCCFF"/>
</linearGradient>
<linearGradient id="paint15_linear_6487_15034" x1="232.695" y1="73.4626" x2="376.976" y2="161.563" gradientUnits="userSpaceOnUse">
<stop stop-color="#A9D8F2"/>
<stop offset="1" stop-color="#9CCCFF"/>
</linearGradient>
<linearGradient id="paint16_linear_6487_15034" x1="229.552" y1="70.8969" x2="381.64" y2="155.92" gradientUnits="userSpaceOnUse">
<stop stop-color="#A9D8F2"/>
<stop offset="1" stop-color="#9CCCFF"/>
</linearGradient>
<linearGradient id="paint17_linear_6487_15034" x1="226.892" y1="72.6329" x2="375.754" y2="166.264" gradientUnits="userSpaceOnUse">
<stop stop-color="#A9D8F2"/>
<stop offset="1" stop-color="#9CCCFF"/>
</linearGradient>
<linearGradient id="paint18_linear_6487_15034" x1="101.875" y1="116.764" x2="163.689" y2="215.176" gradientUnits="userSpaceOnUse">
<stop offset="0.26" stop-color="#70AEE3"/>
<stop offset="0.45" stop-color="#9CC7EC"/>
<stop offset="0.7" stop-color="#D1E5F6"/>
<stop offset="0.9" stop-color="#F2F8FD"/>
<stop offset="1" stop-color="white"/>
</linearGradient>
<linearGradient id="paint19_linear_6487_15034" x1="0.000962638" y1="112.07" x2="201.941" y2="112.07" gradientUnits="userSpaceOnUse">
<stop stop-color="#DDF0F6"/>
<stop offset="0.22" stop-color="#D9EDF3"/>
<stop offset="1" stop-color="#CCE4EB"/>
</linearGradient>
<linearGradient id="paint20_linear_6487_15034" x1="102.901" y1="85.7819" x2="164.253" y2="121.723" gradientUnits="userSpaceOnUse">
<stop stop-color="#72DFFF"/>
<stop offset="1" stop-color="#64BAFA"/>
</linearGradient>
<linearGradient id="paint21_linear_6487_15034" x1="99.4572" y1="91.7984" x2="161.494" y2="127.07" gradientUnits="userSpaceOnUse">
<stop stop-color="#72DFFF"/>
<stop offset="1" stop-color="#64BAFA"/>
</linearGradient>
<linearGradient id="paint22_linear_6487_15034" x1="101.779" y1="94.3077" x2="157.699" y2="127.71" gradientUnits="userSpaceOnUse">
<stop stop-color="#72DFFF"/>
<stop offset="1" stop-color="#64BAFA"/>
</linearGradient>
<linearGradient id="paint23_linear_6487_15034" x1="98.8402" y1="91.8641" x2="163.134" y2="123.841" gradientUnits="userSpaceOnUse">
<stop stop-color="#72DFFF"/>
<stop offset="1" stop-color="#64BAFA"/>
</linearGradient>
<linearGradient id="paint24_linear_6487_15034" x1="102.799" y1="87.9554" x2="165.219" y2="121.508" gradientUnits="userSpaceOnUse">
<stop stop-color="#72DFFF"/>
<stop offset="1" stop-color="#64BAFA"/>
</linearGradient>
<linearGradient id="paint25_linear_6487_15034" x1="86.4926" y1="114.812" x2="149.219" y2="152.633" gradientUnits="userSpaceOnUse">
<stop stop-color="#72DFFF"/>
<stop offset="1" stop-color="#64BAFA"/>
</linearGradient>
<linearGradient id="paint26_linear_6487_15034" x1="96.1141" y1="96.9122" x2="159.909" y2="132.878" gradientUnits="userSpaceOnUse">
<stop stop-color="#72DFFF"/>
<stop offset="1" stop-color="#64BAFA"/>
</linearGradient>
<linearGradient id="paint27_linear_6487_15034" x1="104.725" y1="79.1616" x2="169.606" y2="114.618" gradientUnits="userSpaceOnUse">
<stop stop-color="#72DFFF"/>
<stop offset="1" stop-color="#64BAFA"/>
</linearGradient>
<linearGradient id="paint28_linear_6487_15034" x1="89.2278" y1="109.638" x2="151.3" y2="145.423" gradientUnits="userSpaceOnUse">
<stop stop-color="#72DFFF"/>
<stop offset="1" stop-color="#64BAFA"/>
</linearGradient>
<linearGradient id="paint29_linear_6487_15034" x1="38.0625" y1="90.9212" x2="112.07" y2="90.9212" gradientUnits="userSpaceOnUse">
<stop stop-color="#00DDE7"/>
<stop offset="1" stop-color="#00A4D1"/>
</linearGradient>
<linearGradient id="paint30_linear_6487_15034" x1="253.29" y1="213.519" x2="284.474" y2="267.27" gradientUnits="userSpaceOnUse">
<stop stop-color="#70AEE3"/>
<stop offset="0.25" stop-color="#9CC7EC"/>
<stop offset="0.6" stop-color="#D1E5F6"/>
<stop offset="0.86" stop-color="#F2F8FD"/>
<stop offset="1" stop-color="white"/>
</linearGradient>
<linearGradient id="paint31_linear_6487_15034" x1="231.539" y1="204.123" x2="286.109" y2="204.123" gradientUnits="userSpaceOnUse">
<stop stop-color="#72DFFF"/>
<stop offset="1" stop-color="#64BAFA"/>
</linearGradient>
<linearGradient id="paint32_linear_6487_15034" x1="233.027" y1="173.269" x2="284.618" y2="173.269" gradientUnits="userSpaceOnUse">
<stop stop-color="#B9E8F6"/>
<stop offset="1" stop-color="#78CCFA"/>
</linearGradient>
<linearGradient id="paint33_linear_6487_15034" x1="235.875" y1="178.59" x2="281.762" y2="178.59" gradientUnits="userSpaceOnUse">
<stop stop-color="#3384D5"/>
<stop offset="0.46" stop-color="#439CE7"/>
<stop offset="1" stop-color="#59BEFF"/>
</linearGradient>
<linearGradient id="paint34_linear_6487_15034" x1="271.72" y1="208.365" x2="288.804" y2="208.365" gradientUnits="userSpaceOnUse">
<stop stop-color="#72DFFF"/>
<stop offset="1" stop-color="#64BAFA"/>
</linearGradient>
</defs>
</svg>
