<svg width="139" height="37" viewBox="0 0 139 37" fill="none" xmlns="http://www.w3.org/2000/svg">
<path d="M97.68 15.584H98.4702L101.916 23.7755H101.061L100.17 21.6001H95.8297L94.9045 23.7755H94.1094L97.68 15.584ZM98.0401 16.4191L96.1347 20.9199H99.8904L98.0401 16.4191Z" fill="#292C35"/>
<path d="M102.516 15.584H103.516L108.517 22.7553V15.584H109.277V23.7755H108.277L103.276 16.6042H103.251V23.7755H102.516V15.584Z" fill="#292C35"/>
<path d="M110.844 15.584H113.379C117.635 15.584 117.805 19.0846 117.805 19.6797C117.805 20.2748 117.635 23.7755 113.379 23.7755H110.844V15.584ZM111.609 23.0853H113.179C115.355 23.0853 117.045 22.0351 117.045 19.6847C117.045 17.3343 115.355 16.2841 113.179 16.2841H111.609V23.0853Z" fill="#292C35"/>
<path d="M118.938 15.584H121.093C121.738 15.584 124.008 15.584 124.008 17.7344C124.008 19.2997 122.813 19.7347 121.913 19.8397L124.293 23.7755H123.428L121.128 19.8898H119.703V23.7755H118.938V15.584ZM119.703 19.1946H121.323C122.928 19.1946 123.243 18.3045 123.243 17.7344C123.243 17.1643 122.928 16.2791 121.323 16.2791H119.703V19.1946Z" fill="#292C35"/>
<path d="M128.921 15.3776C129.488 15.3582 130.052 15.4567 130.579 15.6668C131.106 15.877 131.583 16.1943 131.981 16.5987C132.379 17.003 132.688 17.4855 132.889 18.0156C133.091 18.5457 133.18 19.1119 133.151 19.6783C133.171 20.2465 133.076 20.8128 132.872 21.3434C132.668 21.8741 132.359 22.3583 131.964 22.7671C131.569 23.1759 131.096 23.5011 130.573 23.7231C130.049 23.9452 129.487 24.0596 128.918 24.0596C128.35 24.0596 127.787 23.9452 127.264 23.7231C126.74 23.5011 126.267 23.1759 125.872 22.7671C125.477 22.3583 125.168 21.8741 124.964 21.3434C124.76 20.8128 124.665 20.2465 124.685 19.6783C124.656 19.1115 124.746 18.5449 124.947 18.0144C125.149 17.4839 125.459 17.0011 125.857 16.5968C126.256 16.1924 126.734 15.8752 127.261 15.6653C127.788 15.4554 128.353 15.3574 128.921 15.3776ZM128.921 23.289C131.061 23.289 132.391 21.7137 132.391 19.6783C132.391 17.643 131.061 16.0677 128.921 16.0677C126.78 16.0677 125.45 17.643 125.45 19.6783C125.45 21.7137 126.78 23.289 128.921 23.289Z" fill="#292C35"/>
<path d="M134.527 22.2602C134.717 22.5861 134.991 22.8541 135.322 23.0356C135.652 23.2171 136.026 23.3052 136.402 23.2904C137.433 23.2904 138.243 22.6653 138.243 21.6801C138.243 19.3897 134.022 20.735 134.022 17.6194C134.022 16.1641 135.267 15.379 136.647 15.379C137.072 15.3557 137.496 15.4344 137.884 15.6083C138.272 15.7823 138.613 16.0466 138.878 16.3792L138.218 16.8793C138.043 16.6193 137.805 16.4084 137.525 16.2666C137.246 16.1248 136.935 16.0568 136.622 16.0691C135.622 16.0691 134.782 16.5692 134.782 17.6194C134.782 20.0848 139.003 18.6196 139.003 21.6801C139.003 23.1804 137.793 23.9855 136.462 23.9855C135.95 24.0164 135.438 23.9192 134.973 23.7027C134.507 23.4861 134.103 23.1571 133.797 22.7453L134.527 22.2602Z" fill="#292C35"/>
<path d="M98.8817 26.3795C99.4485 26.3601 100.013 26.4586 100.54 26.6688C101.067 26.879 101.544 27.1963 101.942 27.6006C102.339 28.0049 102.649 28.4874 102.85 29.0175C103.052 29.5477 103.141 30.1139 103.112 30.6803C103.132 31.2485 103.037 31.8147 102.833 32.3454C102.629 32.8761 102.32 33.3602 101.925 33.7691C101.53 34.1779 101.057 34.503 100.534 34.7251C100.01 34.9471 99.4476 35.0616 98.8791 35.0616C98.3107 35.0616 97.748 34.9471 97.2246 34.7251C96.7013 34.503 96.228 34.1779 95.833 33.7691C95.438 33.3602 95.1293 32.8761 94.9253 32.3454C94.7214 31.8147 94.6264 31.2485 94.6459 30.6803C94.6171 30.1135 94.7065 29.5468 94.9083 29.0163C95.1101 28.4858 95.42 28.0031 95.8183 27.5987C96.2165 27.1943 96.6945 26.8771 97.2219 26.6673C97.7492 26.4574 98.3144 26.3594 98.8817 26.3795ZM98.8817 34.291C101.022 34.291 102.352 32.7157 102.352 30.6803C102.352 28.6449 101.022 27.0697 98.8817 27.0697C96.7413 27.0697 95.411 28.6449 95.411 30.6803C95.411 32.7157 96.7413 34.291 98.8817 34.291Z" fill="#292C35"/>
<path d="M106.061 27.2811H103.266V26.5859H109.627V27.2811H106.826V34.7824H106.061V27.2811Z" fill="#292C35"/>
<path d="M110.312 26.5859H115.313V27.2811H111.073V30.1966H115.073V30.8917H111.073V34.0823H115.523V34.7774H110.312V26.5859Z" fill="#292C35"/>
<path d="M123.328 33.5063C122.986 33.9894 122.529 34.3796 121.998 34.6415C121.467 34.9035 120.879 35.0289 120.288 35.0065C119.72 35.0259 119.155 34.9273 118.628 34.7169C118.1 34.5064 117.622 34.1888 117.224 33.784C116.826 33.3792 116.516 32.8962 116.315 32.3654C116.113 31.8347 116.023 31.2678 116.052 30.7007C116.023 30.1339 116.113 29.5673 116.315 29.0368C116.516 28.5063 116.826 28.0235 117.225 27.6192C117.623 27.2148 118.101 26.8976 118.628 26.6877C119.155 26.4778 119.721 26.3798 120.288 26.4C120.826 26.3756 121.362 26.4789 121.852 26.7014C122.342 26.9239 122.773 27.2594 123.108 27.6802L122.483 28.1803C122.237 27.8291 121.908 27.544 121.525 27.3504C121.142 27.1567 120.717 27.0605 120.288 27.0701C118.148 27.0701 116.817 28.6454 116.817 30.6807C116.817 32.7161 118.148 34.2914 120.288 34.2914C120.764 34.2885 121.233 34.1701 121.654 33.9463C122.075 33.7224 122.435 33.3998 122.703 33.0062L123.328 33.5063Z" fill="#292C35"/>
<path d="M24.6992 14.3926C26.7945 14.3926 29.345 15.1777 30.6202 18.4683C31.9405 15.8378 34.2859 14.3926 37.3714 14.3926C42.2623 14.3926 44.6928 17.5631 44.6928 22.339V34.1411H41.8923V23.5042C41.8923 19.4735 40.537 16.758 36.8914 16.758C32.8606 16.758 31.4204 20.3486 31.4204 23.9143V34.1411H28.6199V22.9141C28.6199 19.1684 27.7247 16.743 23.974 16.743C21.2986 16.743 18.378 19.1384 18.378 24.2694V34.1561H15.6025V19.1534C15.6025 18.1232 15.5625 16.2329 15.4375 14.9127H18.113C18.193 15.9429 18.278 17.3831 18.278 18.2083H18.358C18.9677 17.0573 19.8811 16.0953 20.999 15.427C22.117 14.7587 23.3967 14.4096 24.6992 14.4176V14.3926Z" fill="#292C35"/>
<path d="M59.0932 19.4585C58.6316 18.6137 57.9455 17.913 57.1106 17.4338C56.2757 16.9546 55.3246 16.7155 54.3623 16.743C52.362 16.743 50.2916 17.6082 50.2916 19.7435C50.2916 21.5389 51.7318 22.374 54.8974 23.0391C59.3982 23.9843 61.5636 25.6696 61.5636 28.6751C61.5636 33.0759 57.8579 34.6412 54.3223 34.6412C51.4018 34.6412 48.4813 33.491 46.7109 30.8955L48.9313 29.2503C49.4975 30.1602 50.2844 30.9124 51.219 31.437C52.1536 31.9616 53.2056 32.2415 54.2773 32.2508C56.6777 32.2508 58.7781 31.3856 58.7781 28.8752C58.7781 26.8748 56.7777 26.0397 53.0871 25.1745C50.8267 24.6394 47.5861 23.6742 47.5861 19.9886C47.5861 16.0929 50.9567 14.3926 54.4573 14.3926C57.1278 14.3926 59.9583 15.6678 61.2035 17.8482L59.0932 19.4585Z" fill="#292C35"/>
<path d="M66.9093 23.5695H67.0143L75.9059 14.8829H79.9366L70.2399 23.6945L80.9368 34.1414H76.821L67.0143 24.0046H66.8942V34.1414H64.0938V3.05078H66.8942L66.9093 23.5695Z" fill="#292C35"/>
<path d="M9.27167 12.0522L18.5333 6.70627L17.4531 4.83594L9.26667 9.56179L1.08019 4.83594L0 6.70627L9.26167 12.0522H9.27167Z" fill="#9200AD"/>
<path d="M13.3556 5.27036L15.401 2.40985L13.5707 1.09961L11.5703 3.92012C12.2565 4.235 12.8658 4.6958 13.3556 5.27036Z" fill="#9200AD"/>
<path d="M9.44773 3.41061C9.80152 3.40695 10.1549 3.43709 10.5029 3.50063V0H8.1875V3.55064C8.60137 3.4591 9.02386 3.41216 9.44773 3.41061Z" fill="#9200AD"/>
<path d="M7.18757 3.83105L5.0922 1.06055L3.29688 2.41579L5.39225 5.21629C5.88344 4.63011 6.49597 4.15748 7.18757 3.83105Z" fill="#9200AD"/>
<path d="M88.747 12.332H87.9219V36.3364H88.747V12.332Z" fill="#292C35"/>
</svg>
