<svg width="36" height="46" viewBox="0 0 36 46" fill="none" xmlns="http://www.w3.org/2000/svg">
<path d="M16.9827 0.931894C15.7952 2.25458 15.0437 2.93096 13.8713 3.69751C12.0677 4.88493 10.0235 5.69657 7.96433 6.04228C7.55851 6.11743 6.26588 6.22264 5.84502 6.22264H5.67969V13.3471V20.4716L5.9803 21.0127C6.8671 22.6059 8.20482 24.3194 9.78303 25.8375C11.9474 27.9418 14.3824 29.5951 17.163 30.8276L17.8244 31.1283L18.3354 30.9028C19.7332 30.2865 21.3415 29.3997 22.5289 28.5881C25.4599 26.589 28.1804 23.7182 29.6684 21.0428L29.969 20.5017V13.3922V6.23767L29.0672 6.17755C26.4369 6.01222 23.8817 5.11038 21.6121 3.56224C20.5449 2.84077 19.8385 2.19446 18.636 0.871771C18.2001 0.390794 17.8394 0 17.8394 0C17.8244 0 17.4486 0.420855 16.9827 0.931894ZM18.3805 1.99906C18.9817 2.66041 19.7633 3.38187 20.5148 3.95303C22.7844 5.68154 25.9409 6.89902 28.6163 7.09441L29.0672 7.12448V13.6778V20.2311L28.8117 20.667C28 22.1099 26.8727 23.5378 25.4448 24.9657C23.4458 26.9498 21.5519 28.3175 18.9667 29.5951C17.6891 30.2264 17.9596 30.2264 16.682 29.6102C13.3152 27.9568 10.2941 25.4918 8.12967 22.621C7.63366 21.9596 7.15268 21.2382 6.83704 20.667L6.61158 20.2612V13.6778V7.12448L7.09256 7.09441C8.94131 6.95914 11.3913 6.20761 13.2551 5.17051C14.698 4.37389 15.6149 3.66745 16.8774 2.38986C17.3885 1.86379 17.8244 1.44293 17.8394 1.44293C17.8544 1.41287 18.0949 1.66839 18.3805 1.99906Z" fill="#F90000"/>
<path d="M13.5415 10.2203C13.4213 10.3255 13.4062 10.3706 13.4062 10.566C13.4062 10.7614 13.4363 10.8215 13.5415 10.9117C13.7369 11.077 13.9774 11.062 14.1728 10.8816C14.5937 10.4608 13.9924 9.8295 13.5415 10.2203ZM14.0977 10.4608C14.2029 10.4908 14.2029 10.5059 14.1427 10.581C14.0977 10.6261 14.0676 10.7313 14.0676 10.8065C14.0676 10.9267 14.0676 10.9267 13.9473 10.8666C13.8722 10.8215 13.8121 10.8065 13.767 10.8366C13.6467 10.9117 13.6016 10.8967 13.6467 10.7614C13.6618 10.6862 13.6467 10.6261 13.6016 10.581C13.4964 10.4908 13.5115 10.4307 13.6317 10.4307C13.6768 10.4307 13.752 10.3856 13.782 10.3255L13.8421 10.2203L13.9323 10.3255C13.9624 10.3856 14.0375 10.4458 14.0977 10.4608Z" fill="#20477F"/>
<path d="M15.9327 13.2112C15.7373 13.3615 15.6922 13.5719 15.7974 13.7673C16.068 14.2934 16.8796 13.9176 16.6542 13.3765C16.549 13.0909 16.1732 13.0007 15.9327 13.2112ZM16.4738 13.4366C16.594 13.4366 16.594 13.4967 16.4888 13.5869C16.4437 13.617 16.4137 13.6921 16.4287 13.7673C16.4437 13.8575 16.4287 13.8875 16.3686 13.8575C16.2634 13.8124 16.1582 13.8124 16.0529 13.8575C15.9778 13.8875 15.9628 13.8725 15.9928 13.7673C16.0079 13.6771 15.9928 13.602 15.9327 13.5418C15.8425 13.4517 15.8425 13.4366 15.9477 13.4366C16.0079 13.4366 16.083 13.3765 16.1431 13.3164L16.2183 13.1961L16.2934 13.3164C16.3536 13.3765 16.4137 13.4366 16.4738 13.4366Z" fill="#20477F"/>
<path d="M18.5655 7.78484C18.3851 7.95018 18.355 8.22072 18.4903 8.37103C18.5805 8.44618 18.5805 8.44618 18.5204 8.34097C18.34 7.98024 18.7308 7.58944 19.0464 7.8149C19.1517 7.89005 19.1817 7.96521 19.1968 8.1606L19.2268 8.40109L19.2869 8.25079C19.3621 8.07042 19.317 7.89005 19.1216 7.73975C18.9563 7.60447 18.7609 7.6195 18.5655 7.78484Z" fill="#20477F"/>
<path d="M21.6137 9.63447C21.223 9.8449 21.3582 10.4161 21.7941 10.4762C21.9745 10.5062 22.0196 10.4912 22.1548 10.3559C22.2901 10.2207 22.3051 10.1756 22.2751 9.9952C22.2601 9.88999 22.1999 9.75471 22.1548 9.69459C22.0496 9.57435 21.7791 9.54428 21.6137 9.63447ZM22.0947 9.93508C22.1999 9.96514 22.1999 9.98017 22.1398 10.0553C22.0947 10.1004 22.0647 10.2056 22.0647 10.2808C22.0647 10.401 22.0496 10.401 21.9895 10.3559C21.9444 10.3108 21.8542 10.3108 21.764 10.3259C21.6288 10.3559 21.6137 10.3409 21.6288 10.2357C21.6438 10.1605 21.6288 10.0854 21.5837 10.0553C21.4785 9.98017 21.4935 9.92005 21.6137 9.92005C21.6588 9.92005 21.734 9.87496 21.764 9.81483L21.8242 9.70962L21.9144 9.78477C21.9444 9.8449 22.0346 9.90502 22.0947 9.93508Z" fill="#20477F"/>
<path d="M18.6267 11.5576C18.1307 11.8281 18.4914 12.5496 19.0175 12.3542C19.3632 12.234 19.4083 11.753 19.1076 11.5726C18.9273 11.4524 18.807 11.4524 18.6267 11.5576ZM19.0776 11.8131C19.1978 11.8131 19.1978 11.8732 19.0926 11.9634C19.0475 12.0085 19.0325 12.0686 19.0475 12.1438C19.0776 12.249 19.0625 12.264 18.9874 12.234C18.8672 12.1889 18.8221 12.1889 18.7168 12.234C18.6417 12.264 18.6267 12.249 18.6267 12.1288C18.6267 12.0536 18.5966 11.9484 18.5365 11.9033C18.4613 11.8131 18.4613 11.8131 18.5816 11.8131C18.6718 11.8131 18.7319 11.768 18.7619 11.7079L18.8221 11.6027L18.8972 11.7079C18.9573 11.768 19.0325 11.8131 19.0776 11.8131Z" fill="#20477F"/>
<path d="M21.4521 11.9798C21.2867 12.1452 21.2567 12.3255 21.3468 12.5209C21.5422 12.9568 22.2186 12.8065 22.2186 12.3255C22.2036 11.9348 21.7226 11.7093 21.4521 11.9798ZM21.8729 12.1752C21.8729 12.1903 21.933 12.2203 21.9932 12.2203C22.1284 12.2203 22.1585 12.2955 22.0382 12.3406C21.9932 12.3556 21.9631 12.4308 21.9631 12.5209C21.9631 12.6412 21.9481 12.6712 21.8729 12.6412C21.7527 12.5961 21.7076 12.5961 21.6024 12.6412C21.5272 12.6712 21.5122 12.6562 21.5272 12.551C21.5272 12.4759 21.4971 12.3857 21.4521 12.3255C21.3619 12.2203 21.3619 12.2203 21.4971 12.2203C21.5873 12.2203 21.6474 12.1903 21.6775 12.1001C21.7376 11.9798 21.7376 11.9798 21.7978 12.055C21.8428 12.0851 21.8729 12.1452 21.8729 12.1752Z" fill="#20477F"/>
<path d="M22.7126 13.6484C22.427 13.7686 22.3519 14.1444 22.5773 14.3849C22.8178 14.6404 23.2687 14.5051 23.3589 14.1594C23.4491 13.8137 23.0583 13.5131 22.7126 13.6484ZM23.1335 13.979C23.2537 13.979 23.2537 14.0392 23.1485 14.1293C23.1034 14.1744 23.0884 14.2345 23.1034 14.3097C23.1335 14.4149 23.1184 14.4299 23.0433 14.3999C22.9381 14.3548 22.8329 14.3548 22.7276 14.3999C22.6675 14.4299 22.6525 14.4149 22.6675 14.3097C22.6826 14.2345 22.6525 14.1444 22.6074 14.0993C22.5323 14.0091 22.5322 14.0091 22.6525 13.979C22.7276 13.964 22.8028 13.9039 22.8329 13.8438C22.893 13.7385 22.893 13.7385 22.9531 13.8738C23.0132 13.9189 23.0884 13.979 23.1335 13.979Z" fill="#20477F"/>
<path d="M12.8034 14.8051C12.5328 14.9103 12.4577 15.3161 12.6681 15.5115C12.8785 15.737 13.2393 15.6468 13.3595 15.3612C13.4497 15.1358 13.3746 14.9103 13.1491 14.8201C12.9687 14.745 12.9537 14.745 12.8034 14.8051ZM13.0589 15.0005C13.0739 15.0606 13.1341 15.1057 13.2092 15.1057C13.3445 15.1057 13.3595 15.1658 13.2543 15.256C13.2092 15.2861 13.1792 15.3762 13.1792 15.4364C13.1792 15.5416 13.1641 15.5566 13.089 15.5266C12.9687 15.4815 12.9236 15.4815 12.8034 15.5266C12.7132 15.5566 12.7132 15.5566 12.7433 15.4364C12.7733 15.3462 12.7583 15.2861 12.6982 15.256C12.593 15.1658 12.608 15.1057 12.7282 15.1057C12.7733 15.1057 12.8485 15.0606 12.8785 15.0005C12.9086 14.9404 12.9537 14.8953 12.9838 14.8953C13.0138 14.9103 13.0439 14.9554 13.0589 15.0005Z" fill="#20477F"/>
<path d="M1.85006 18.7593C1.72982 19.09 1.77491 19.9016 1.92521 20.3676C2.06049 20.7734 2.25588 21.1341 2.43625 21.2845C2.54147 21.3746 2.54147 21.3746 2.57153 21.1943C2.61662 20.9237 2.5565 20.0519 2.46631 19.6912C2.3611 19.3155 2.10558 18.7142 1.98534 18.624C1.92521 18.594 1.91018 18.609 1.85006 18.7593Z" fill="#F90000"/>
<path d="M33.8605 18.6678C33.7403 18.803 33.4998 19.3441 33.4096 19.7049C33.3194 20.0656 33.2593 20.9223 33.3044 21.2079C33.3345 21.3883 33.3345 21.3883 33.4397 21.2981C33.62 21.1478 33.8154 20.772 33.9507 20.3813C34.0559 20.0506 34.071 19.9003 34.071 19.4494C34.071 19.0886 34.0559 18.8632 33.9958 18.7429C33.9507 18.5776 33.9507 18.5776 33.8605 18.6678Z" fill="#F90000"/>
<path d="M3.38425 21.1627C3.17382 21.2979 3.02352 21.7038 2.99346 22.1396L2.9634 22.5304L2.78303 22.0645C2.5726 21.5234 2.54254 21.5384 2.70788 22.1246L2.82812 22.5455L2.54254 22.2449C2.21187 21.8841 1.83611 21.6587 1.59562 21.6887C1.46034 21.7038 1.44531 21.7188 1.44531 21.839C1.46034 22.0795 1.74592 22.5906 2.0315 22.8912C2.37721 23.2369 2.58763 23.3571 2.88824 23.3722H3.1137L3.23395 23.6427C3.29407 23.793 3.44437 24.1086 3.56462 24.3491C3.68486 24.5896 3.77505 24.785 3.76002 24.8001C3.74499 24.8151 3.60971 24.7099 3.44437 24.5746C3.27904 24.4393 2.9634 24.2289 2.73794 24.1237C2.40727 23.9583 2.28702 23.9283 2.04653 23.9133C1.62568 23.9133 1.61065 23.9583 1.82108 24.3942C2.15175 25.0556 2.72291 25.6418 3.36922 25.9574C3.63977 26.0927 3.72995 26.1077 4.03057 26.1077C4.21093 26.1077 4.40633 26.0927 4.45142 26.0776C4.51154 26.0476 4.60173 26.1528 4.79712 26.4384C4.94743 26.6638 5.21798 27.0095 5.39834 27.22C5.57871 27.4304 5.71399 27.5957 5.69896 27.5957C5.68392 27.5957 5.44344 27.4905 5.17289 27.3552C4.16584 26.8743 3.26401 26.7691 2.97843 27.1148C2.84315 27.2801 3.71492 28.212 4.43639 28.6328C5.06767 29.0086 5.45847 29.1288 6.08975 29.1288C6.57073 29.1288 6.66091 29.1138 6.84128 29.0086L7.03667 28.8884L7.45753 29.2341C7.68299 29.4144 8.05875 29.7 8.28421 29.8503C8.50967 30.0156 8.62991 30.1359 8.56979 30.1058C7.69802 29.8653 7.35231 29.8052 6.66091 29.8052C6.0146 29.8052 5.92441 29.8052 5.69896 29.9104C5.42841 30.0307 5.23301 30.196 5.23301 30.2862C5.23301 30.3163 5.33822 30.4365 5.4735 30.5567C6.96152 31.8644 9.35138 32.2702 10.2682 31.3684L10.4787 31.158L11.125 31.4436C12.6882 32.135 14.3565 32.6159 15.8897 32.8264C16.2654 32.8715 16.7013 32.8865 16.4909 32.8414C14.7173 32.4807 12.9136 31.8794 11.3805 31.1279C10.7342 30.8123 10.6741 30.7822 10.7041 30.677C10.7793 30.3914 10.7943 30.0908 10.7192 29.7601C10.6139 29.2792 10.148 28.3322 9.7572 27.7911C9.42653 27.3252 8.72009 26.6187 8.61488 26.6187C8.50967 26.6187 8.28421 26.9795 8.20906 27.2651C8.04372 27.8963 8.23912 28.693 8.73512 29.4295C8.97561 29.7902 8.93052 29.7752 8.14893 29.1739C7.23207 28.4825 7.33728 28.5877 7.42747 28.3773C7.50262 28.242 7.51765 28.1068 7.51765 27.5957C7.51765 27.0396 7.50262 26.9344 7.35231 26.4985C7.17195 25.9424 6.85631 25.2961 6.60079 24.9353L6.43545 24.6948L6.24006 24.8752C5.92441 25.1608 5.8192 25.4764 5.8192 26.0626C5.8192 26.4534 5.84926 26.6338 5.93944 26.9043C5.99957 27.0997 6.04466 27.25 6.02963 27.25C5.98454 27.235 5.36828 26.5135 5.0827 26.1378L4.84222 25.8372L4.94743 25.7169C5.00755 25.6418 5.0827 25.4764 5.12779 25.3412C5.24804 24.9804 5.24804 24.0034 5.09773 23.4774C4.96246 22.9663 4.82718 22.6657 4.737 22.6657C4.5867 22.6657 4.27105 23.0114 4.16584 23.297C4.07566 23.5225 4.0456 23.6728 4.0456 24.1086V24.6347L3.92535 24.4544C3.86523 24.3491 3.69989 24.0485 3.56462 23.793L3.32413 23.312L3.4594 23.1467C3.53456 23.0565 3.63977 22.8611 3.69989 22.7258C3.86523 22.2449 3.77505 21.1176 3.57965 21.1176C3.53456 21.0875 3.44437 21.1176 3.38425 21.1627Z" fill="#F90000"/>
<path d="M32.1943 21.1633C32.1792 21.2084 32.1492 21.4188 32.1041 21.6443C32.0139 22.2756 32.1492 22.9219 32.4348 23.1774L32.555 23.2977L32.2544 23.8839C32.0891 24.1995 31.9087 24.5151 31.8636 24.5753C31.7734 24.6955 31.7734 24.6805 31.8185 24.3799C31.8786 24.0041 31.8035 23.5081 31.6532 23.1774C31.548 22.952 31.2624 22.6664 31.1421 22.6664C31.0369 22.6664 30.9467 22.8618 30.7964 23.3878C30.6912 23.7486 30.6612 23.9289 30.6612 24.455C30.6612 25.1464 30.7062 25.3869 30.9016 25.6725L31.0219 25.8529L30.7814 26.1685C30.4808 26.5443 29.8345 27.3108 29.8194 27.2958C29.8194 27.2958 29.8645 27.1154 29.9397 26.92C30.1201 26.409 30.1201 25.6875 29.9697 25.3268C29.8495 25.0863 29.6691 24.8458 29.5188 24.7556C29.4437 24.7256 29.3986 24.7707 29.2333 25.0262C28.4968 26.1535 28.136 27.6716 28.4366 28.3479L28.5418 28.5584L28.3615 28.7087C28.0759 28.9491 27.2793 29.5504 27.1139 29.6406C26.9787 29.7307 26.9787 29.7157 27.2041 29.37C27.5498 28.8139 27.7302 28.3179 27.7302 27.7768C27.7302 27.2657 27.64 26.9651 27.4146 26.7547L27.2643 26.6194L27.1139 26.7246C26.648 27.0553 25.8514 28.0924 25.4906 28.859C25.1449 29.5654 25.0247 30.332 25.175 30.7077C25.2051 30.7829 25.1149 30.843 24.694 31.0534C23.2812 31.7599 21.6879 32.331 19.7941 32.797L19.3281 32.9172L19.7189 32.8871C21.1017 32.797 23.2962 32.1657 24.9946 31.3841L25.3704 31.2037L25.5959 31.4142C26.5127 32.2859 28.7673 31.9553 30.2704 30.7077C30.4507 30.5724 30.601 30.4071 30.6161 30.377C30.6612 30.2718 30.4658 30.0915 30.1802 29.9562C29.9547 29.851 29.8495 29.8359 29.2182 29.851C28.617 29.851 28.4066 29.866 27.9256 29.9863C27.61 30.0614 27.3093 30.1366 27.2643 30.1516C27.2192 30.1666 27.3995 30.0313 27.655 29.851C27.9106 29.6706 28.2863 29.385 28.4817 29.2197L28.8425 28.9191L29.0529 29.0393C29.2333 29.1445 29.3234 29.1596 29.8044 29.1596C30.2704 29.1596 30.3906 29.1445 30.7062 29.0243C31.4578 28.7537 32.3295 28.0924 32.7504 27.4762C32.9458 27.1906 32.9608 27.1755 32.8706 27.1004C32.5249 26.7998 31.6832 26.905 30.7213 27.3709C30.4357 27.5062 30.1952 27.6114 30.1952 27.6114C30.1802 27.6114 30.3154 27.4461 30.4808 27.2507C30.6461 27.0553 30.9167 26.7096 31.067 26.4992L31.3676 26.0933L31.6682 26.1234C32.074 26.1685 32.4348 26.0483 32.9007 25.7476C33.3216 25.4621 33.7574 24.9811 34.013 24.5151C34.2835 24.0342 34.2835 24.0041 34.043 23.9289C33.6823 23.8087 33.051 24.0642 32.4047 24.6053C32.2544 24.7256 32.1341 24.8157 32.1341 24.8007C32.1341 24.7857 32.2394 24.5753 32.3446 24.3498C32.4648 24.1093 32.6151 23.7937 32.6752 23.6584C32.7805 23.3878 32.7955 23.3878 32.9909 23.3878C33.2765 23.3878 33.532 23.2526 33.8476 22.9369C34.1031 22.6664 34.4338 22.0952 34.4639 21.8547C34.4789 21.7495 34.4639 21.7345 34.3136 21.7195C34.0731 21.6894 33.7574 21.8848 33.4268 22.2305C33.2614 22.3958 33.1262 22.5161 33.1262 22.486C33.1262 22.456 33.1713 22.2756 33.2314 22.0952C33.3666 21.5692 33.3516 21.5842 33.1412 22.0952L32.9608 22.5612L32.9308 22.2004C32.9007 21.7946 32.7654 21.4339 32.57 21.2535C32.3746 21.0731 32.2394 21.0581 32.1943 21.1633Z" fill="#F90000"/>
<path d="M19.2059 32.9324C19.236 32.9474 19.2811 32.9474 19.2961 32.9324C19.3111 32.9174 19.2811 32.9023 19.236 32.9023C19.1758 32.9023 19.1608 32.9174 19.2059 32.9324Z" fill="black"/>
<path d="M2.22452 35.0964C1.47299 35.2467 0.856741 35.6826 0.571161 36.2687C0.435886 36.5543 0.405825 36.6595 0.390794 37.0654C0.375764 37.4562 0.390794 37.5764 0.480977 37.8319C0.691405 38.4031 1.18741 38.7488 2.28464 39.1095C2.93096 39.3199 3.15641 39.4552 3.17144 39.6356C3.2015 39.831 3.03617 39.9212 2.66041 39.9212C2.28464 39.9212 1.89385 39.7859 1.56318 39.5304L1.30766 39.335L0.811649 39.861C0.5411 40.1466 0.240489 40.4623 0.150305 40.5675L0 40.7478L0.210428 40.8981C0.330672 40.9883 0.601222 41.1386 0.82668 41.2438C2.58525 42.0705 4.59935 41.6497 5.2156 40.312C5.35087 40.0264 5.38093 39.9061 5.39596 39.5304C5.42602 38.9442 5.30578 38.6285 4.94505 38.2678C4.62941 37.9371 4.26867 37.7568 3.47205 37.4862C2.64538 37.2006 2.66041 37.2157 2.61531 37.1105C2.54016 36.9752 2.63034 36.8399 2.84077 36.7648C3.18647 36.6445 3.69751 36.7948 4.05825 37.1105L4.23861 37.2758L4.89996 36.5994L5.57633 35.923L5.38093 35.7577C5.11038 35.5172 4.4791 35.2166 3.98309 35.0964C3.45702 34.9911 2.73556 34.9761 2.22452 35.0964Z" fill="#20477F"/>
<path d="M8.05519 35.2019C8.04016 35.232 7.45397 36.69 6.76257 38.4636L5.5 41.6801H6.65735H7.8147L7.96501 41.2292L8.11531 40.7783L9.16745 40.7632L10.2196 40.7482L10.2797 40.9586C10.3098 41.0789 10.3849 41.2893 10.445 41.4246L10.5352 41.6801H12.895H15.2548L15.7959 40.7482C16.0965 40.2372 16.3521 39.8313 16.3671 39.8313C16.3821 39.8313 16.6527 40.2522 16.9683 40.7482L17.5244 41.65L18.8471 41.6651C19.5836 41.6651 20.1698 41.6651 20.1698 41.65C20.1698 41.635 19.6588 40.8835 19.0275 39.9967C18.3962 39.0948 17.8701 38.3433 17.8551 38.3133C17.8401 38.2832 18.2609 37.6219 18.8922 36.72L19.9744 35.1869L18.7419 35.1719C18.0655 35.1719 17.4793 35.1719 17.4493 35.1869C17.4192 35.2019 17.1787 35.5777 16.9082 36.0436C16.5925 36.5998 16.4122 36.8553 16.3821 36.8252C16.3671 36.7952 16.1266 36.4044 15.8711 35.9835L15.3901 35.2019L14.0824 35.1869C13.361 35.1869 12.7748 35.1869 12.7748 35.2019C12.7748 35.217 13.2558 35.9084 13.857 36.7501C14.4432 37.5768 14.9392 38.2832 14.9392 38.3133C14.9392 38.3433 12.9401 41.3043 12.8499 41.4095C12.8349 41.4246 12.8199 41.4246 12.8048 41.4095C12.7898 41.3945 10.7607 36.239 10.4601 35.4424L10.3699 35.1869H9.22757C8.59629 35.1568 8.07022 35.1869 8.05519 35.2019ZM9.438 38.208C9.55825 38.5988 9.67849 38.9445 9.69352 38.9746C9.70855 39.0197 9.58831 39.0347 9.18248 39.0347C8.79169 39.0347 8.65641 39.0197 8.67144 38.9746C8.68648 38.9445 8.79169 38.5988 8.92696 38.208C9.04721 37.8323 9.16745 37.5166 9.18248 37.5166C9.19751 37.5166 9.30273 37.8323 9.438 38.208Z" fill="#20477F"/>
<path d="M20.64 37.2762C20.64 39.6059 20.6551 39.7562 20.9406 40.3123C21.2413 40.8985 21.8425 41.3494 22.609 41.5599C22.9998 41.6801 24.2173 41.6801 24.6081 41.5899C25.6753 41.3194 26.4118 40.628 26.6372 39.666C26.6973 39.4105 26.7124 38.9445 26.7124 37.2611V35.1719H25.6302H24.548V37.0357C24.548 38.2682 24.5329 38.9746 24.4879 39.1249C24.2925 39.8764 23.2553 39.9967 22.9096 39.3203C22.8044 39.1399 22.8044 39.0347 22.7894 37.1409L22.7744 35.1719H21.6922H20.625V37.2762H20.64Z" fill="#20477F"/>
<path d="M27.8516 38.4173V41.6789H28.8586H29.8807L29.8506 39.9654C29.8356 39.0335 29.8055 38.1918 29.7905 38.1167C29.7153 37.7108 29.9107 38.2219 30.4368 39.8452L31.023 41.6488H31.8046H32.5862L33.1874 39.8452C33.5181 38.8532 33.7886 38.0265 33.8187 38.0115C33.8337 37.9964 33.8337 38.8081 33.8187 39.8302L33.7886 41.6789H34.8408H35.9079V38.4173V35.1557H34.4349H32.9619L32.8868 35.3811C32.8417 35.5164 32.6162 36.2829 32.3908 37.1096C32.1503 37.9363 31.9399 38.6277 31.9248 38.6427C31.9098 38.6728 31.6242 37.8912 31.3086 36.9293L30.7224 35.1707L29.2945 35.1557L27.8666 35.1406V38.4173H27.8516Z" fill="#20477F"/>
<path d="M18.0365 42.3871C17.9764 42.4472 17.7509 42.4623 16.5635 42.4623C15.2558 42.4623 15.0304 42.4773 15.1957 42.5825C15.2258 42.5975 15.2408 43.1386 15.2408 44.0405C15.2408 44.9573 15.2258 45.4533 15.1957 45.4533C15.1656 45.4533 15.1506 45.4834 15.1506 45.5285C15.1506 45.5886 15.346 45.6036 16.6236 45.6036C17.5555 45.6036 18.1116 45.6187 18.1267 45.6487C18.2168 45.784 18.2469 45.6638 18.2469 45.288C18.2469 45.0625 18.2319 44.8671 18.2018 44.8671C18.1868 44.8671 18.1267 44.9122 18.0816 44.9724C18.0064 45.0625 17.9463 45.0776 16.9693 45.0776H15.9322V44.6567V44.2359H16.5935C17.1948 44.2359 17.2549 44.2509 17.315 44.3411C17.3451 44.4012 17.3902 44.4463 17.4202 44.4463C17.4503 44.4463 17.4653 44.2359 17.4653 43.9803C17.4653 43.5445 17.4052 43.3791 17.3451 43.6196C17.315 43.7098 17.2699 43.7248 16.6236 43.7248H15.9322V43.3641V43.0034H16.9092C17.6757 43.0034 17.9012 43.0184 18.0214 43.0785C18.0966 43.1236 18.1718 43.1537 18.1718 43.1537C18.1718 43.1537 18.1868 42.9733 18.1868 42.7629C18.1868 42.327 18.1567 42.2518 18.0365 42.3871Z" fill="#20477F"/>
<path d="M29.0234 42.7314C29.0234 43.0621 29.0385 43.1523 29.0986 43.1523C29.1437 43.1523 29.1737 43.1222 29.2038 43.0771C29.2188 43.017 29.3391 43.002 29.775 43.002H30.3161V44.2044C30.3161 44.9559 30.301 45.4219 30.271 45.4369C30.2409 45.4519 30.2259 45.497 30.2259 45.5421C30.2259 45.6022 30.3161 45.6173 30.6618 45.6173C31.0225 45.6173 31.0977 45.6022 31.0977 45.5421C31.0977 45.497 31.0826 45.467 31.0526 45.467C31.0225 45.467 31.0075 45.0311 31.0075 44.2345V43.002H31.5185C31.9093 43.002 32.0446 43.017 32.0897 43.0771C32.2099 43.2124 32.24 43.1523 32.24 42.7314C32.24 42.3256 32.2099 42.2504 32.0897 42.3857C32.0295 42.4458 31.8191 42.4609 30.6317 42.4609C29.4443 42.4609 29.2339 42.4458 29.2188 42.3857C29.2038 42.3406 29.1587 42.3105 29.1136 42.3105C29.0385 42.3256 29.0234 42.4158 29.0234 42.7314Z" fill="#20477F"/>
<path d="M24.4415 42.446C23.6449 42.5512 23.1639 43.1675 23.4044 43.7536C23.5697 44.1294 23.8553 44.2647 24.697 44.3248C25.4335 44.3849 25.5387 44.4 25.659 44.5052C25.8544 44.6855 25.7191 44.926 25.3133 45.0463C24.7722 45.2116 23.9305 45.0312 23.705 44.7156C23.6299 44.6104 23.6299 44.6104 23.5397 44.8058C23.4795 44.911 23.4044 45.0763 23.3593 45.1815C23.2841 45.3619 23.2841 45.3619 23.3743 45.3469C23.4194 45.3319 23.6148 45.3769 23.7802 45.4521C24.0657 45.5723 24.1409 45.5723 24.7571 45.5874C25.5087 45.5874 25.7942 45.5122 26.0949 45.2567C26.666 44.7908 26.4556 43.9941 25.7341 43.7987C25.6289 43.7687 25.2982 43.7236 24.9676 43.6935C24.2611 43.6334 24.0357 43.5432 24.0357 43.3328C24.0357 43.2276 24.0808 43.1675 24.171 43.0923C24.2912 43.0021 24.3814 42.9871 24.7872 42.9871C25.178 42.9871 25.3133 43.0172 25.5237 43.1073C25.674 43.1825 25.8243 43.2877 25.8694 43.3779L25.9596 43.5132L26.155 43.1524C26.2602 42.957 26.3504 42.7767 26.3504 42.7616C26.3504 42.7466 26.2903 42.7316 26.2151 42.7316C26.14 42.7316 25.9446 42.6865 25.8093 42.6414C25.3734 42.461 24.8473 42.4009 24.4415 42.446Z" fill="#20477F"/>
<path d="M0.179688 42.5067C0.179688 42.5217 0.224779 42.5668 0.284901 42.6119C0.375085 42.672 0.390115 42.7321 0.390115 43.7241C0.390115 44.8665 0.420176 45.0017 0.645634 45.2572C0.901153 45.5278 1.14164 45.5879 1.95329 45.5879C2.91525 45.5879 3.21586 45.4827 3.44131 45.0619C3.54653 44.8665 3.54653 44.7763 3.56156 43.7392C3.57659 42.8223 3.59162 42.6119 3.65174 42.5968C3.83211 42.5217 3.6818 42.4766 3.23089 42.4766C2.76494 42.4766 2.61464 42.5217 2.84009 42.5968C2.93028 42.6269 2.94531 42.672 2.94531 43.634C2.94531 44.7462 2.91525 44.8665 2.62967 45.0168C2.43427 45.122 1.62262 45.137 1.38213 45.0318C1.06649 44.9115 1.05146 44.8214 1.03643 43.6941C1.0214 42.8223 1.0214 42.672 1.09655 42.6269C1.24686 42.5067 1.1717 42.4766 0.690726 42.4766C0.405146 42.4616 0.179688 42.4766 0.179688 42.5067Z" fill="#20477F"/>
<path d="M4.64062 42.5068C4.64062 42.5369 4.67069 42.5669 4.68572 42.582C4.71578 42.597 4.73081 43.1381 4.73081 44.0399C4.73081 44.9568 4.71578 45.4528 4.68572 45.4528C4.65566 45.4528 4.64062 45.4829 4.64062 45.528C4.64062 45.5881 4.71578 45.6031 5.04645 45.6031C5.45227 45.6031 5.60258 45.558 5.43724 45.4678C5.37712 45.4227 5.36209 45.2875 5.37712 44.4307L5.39215 43.4387L6.33908 44.4307C6.86515 44.9869 7.27097 45.4378 7.24091 45.4528C7.21085 45.4678 7.18079 45.4979 7.18079 45.543C7.18079 45.6031 7.286 45.6181 7.64673 45.6181C8.11268 45.6181 8.23292 45.5881 8.09765 45.4678C7.97741 45.3776 7.99244 42.6271 8.09765 42.597C8.27802 42.5218 8.12771 42.4768 7.70686 42.4768C7.45134 42.4768 7.24091 42.4918 7.24091 42.5218C7.24091 42.5369 7.286 42.582 7.34612 42.6271C7.43631 42.6872 7.45134 42.7473 7.45134 43.6191C7.45134 44.1752 7.43631 44.551 7.40624 44.5359C7.37618 44.5209 6.95533 44.1151 6.47435 43.604C5.76792 42.8675 5.60258 42.6722 5.61761 42.582C5.64767 42.4768 5.63264 42.4768 5.15166 42.4768C4.86608 42.4617 4.64062 42.4918 4.64062 42.5068Z" fill="#20477F"/>
<path d="M9.21094 42.5068C9.21094 42.5369 9.241 42.5669 9.28609 42.582C9.40633 42.6271 9.40633 45.4528 9.28609 45.4528C9.241 45.4528 9.21094 45.4829 9.21094 45.528C9.21094 45.5881 9.30112 45.6031 9.70695 45.6031C10.0076 45.6031 10.203 45.5881 10.203 45.558C10.203 45.528 10.1729 45.4979 10.1278 45.4829C10.0677 45.4528 10.0526 45.2424 10.0526 44.0399C10.0526 42.8225 10.0677 42.612 10.1278 42.597C10.3082 42.5218 10.1579 42.4768 9.70695 42.4768C9.42137 42.4617 9.21094 42.4918 9.21094 42.5068Z" fill="#20477F"/>
<path d="M10.8203 42.506C10.8203 42.5361 10.8654 42.5812 10.9255 42.6263C11.0758 42.7315 12.2933 45.3618 12.2332 45.467C12.2031 45.5121 12.2031 45.5572 12.2182 45.5873C12.2332 45.6023 12.4436 45.6174 12.6841 45.6174H13.12L13.0899 45.4971C13.0749 45.4069 13.2252 45.0312 13.6761 44.0391C14.0068 43.3026 14.3375 42.6714 14.3826 42.6112C14.4427 42.5662 14.4878 42.5211 14.4878 42.506C14.4878 42.491 14.2623 42.476 13.9767 42.476C13.6611 42.476 13.4657 42.491 13.4657 42.5211C13.4657 42.5511 13.4957 42.5662 13.5108 42.5662C13.5408 42.5662 13.5709 42.5962 13.5859 42.6263C13.616 42.7014 12.7292 44.6704 12.6691 44.6704C12.654 44.6704 12.4436 44.2195 12.1881 43.6784C11.8123 42.8668 11.7372 42.6714 11.7823 42.6112C11.8123 42.5662 11.8424 42.506 11.8424 42.491C11.8424 42.476 11.6169 42.4609 11.3314 42.4609C11.0458 42.4609 10.8203 42.491 10.8203 42.506Z" fill="#20477F"/>
<path d="M19.0703 42.506C19.0703 42.5211 19.1154 42.5812 19.1755 42.6112C19.2657 42.6714 19.2807 42.7315 19.2807 44.0391C19.2807 45.3618 19.2807 45.4069 19.1755 45.467C18.9801 45.5723 19.0853 45.6173 19.5964 45.6173C20.1074 45.6173 20.2126 45.5723 20.0172 45.467C19.9271 45.4219 19.912 45.3618 19.912 44.8808V44.3397H20.3479H20.7838L21.1145 44.8207C21.5654 45.452 21.5504 45.4219 21.4602 45.4821C21.2948 45.5723 21.4602 45.6173 21.9712 45.6173C22.3169 45.6173 22.5123 45.6023 22.5123 45.5572C22.5123 45.5272 22.4672 45.4971 22.4221 45.4821C22.3319 45.452 21.5654 44.3999 21.5804 44.3097C21.5804 44.2796 21.6706 44.2345 21.7608 44.2045C22.1516 44.0692 22.347 43.7987 22.347 43.3778C22.347 43.0321 22.1967 42.7766 21.881 42.6263C21.6405 42.506 21.6255 42.506 20.3479 42.491C19.6415 42.4609 19.0703 42.476 19.0703 42.506ZM21.4451 43.0622C21.6105 43.1523 21.6556 43.2275 21.6556 43.4229C21.6556 43.7686 21.4602 43.8287 20.5734 43.8287H19.897V43.4229C19.897 43.1974 19.912 43.002 19.9421 42.972C20.0022 42.9118 21.2798 42.987 21.4451 43.0622Z" fill="#20477F"/>
<path d="M27.3594 42.506C27.3594 42.5361 27.3894 42.5812 27.4345 42.6112C27.4946 42.6714 27.5097 42.8818 27.5097 44.0391C27.5097 45.2115 27.4946 45.4069 27.4345 45.437C27.3894 45.452 27.3594 45.4971 27.3594 45.5422C27.3594 45.6023 27.4646 45.6174 27.8253 45.6174C28.2913 45.6174 28.4265 45.5723 28.2462 45.467C28.156 45.422 28.141 45.3618 28.141 44.0391C28.141 42.7165 28.141 42.6714 28.2462 42.6112C28.3063 42.5812 28.3514 42.5361 28.3514 42.506C28.3514 42.476 28.1259 42.4609 27.8554 42.4609C27.5848 42.4609 27.3594 42.491 27.3594 42.506Z" fill="#20477F"/>
<path d="M32.5078 42.506C32.5078 42.5361 32.5529 42.5662 32.613 42.5812C32.6731 42.5962 32.9888 43.002 33.3195 43.468L33.9357 44.3247V44.8809C33.9357 45.3468 33.9207 45.452 33.8606 45.467C33.6802 45.5422 33.8756 45.5873 34.2814 45.5873C34.6271 45.5873 34.7173 45.5723 34.7173 45.5121C34.7173 45.467 34.7023 45.437 34.6722 45.437C34.6421 45.437 34.6271 45.2115 34.6271 44.8508V44.2796L35.2133 43.453C35.544 42.987 35.8446 42.5962 35.9047 42.5812C36.1001 42.491 35.9949 42.4609 35.4839 42.4609C35.0029 42.4609 34.8526 42.506 35.048 42.5812C35.0931 42.5962 35.1231 42.6413 35.0931 42.6864C35.048 42.7916 34.3716 43.7385 34.3265 43.7385C34.3115 43.7385 34.1311 43.498 33.9357 43.1974C33.59 42.7014 33.575 42.6413 33.6501 42.5962C33.6952 42.5662 33.7403 42.5211 33.7403 42.491C33.7403 42.476 33.4698 42.4609 33.1241 42.4609C32.7633 42.4609 32.5078 42.491 32.5078 42.506Z" fill="#20477F"/>
<path d="M28.0654 7.81674C24.4731 7.33576 21.0462 5.69743 18.506 3.21739C18.1302 2.84163 17.8146 2.54102 17.8146 2.54102C17.8146 2.54102 17.5741 2.79653 17.2735 3.09715C15.3195 5.08118 12.6892 6.59926 9.81835 7.38085C9.29229 7.51612 8.33033 7.72655 7.93954 7.77164C7.78923 7.78667 7.60886 7.81674 7.53371 7.83177L7.39844 7.86183V13.9793V20.0967L7.65396 20.5326C8.43554 21.8553 9.41253 23.0727 10.7953 24.4555C11.7874 25.4476 12.5539 26.1089 13.591 26.8454C14.7033 27.657 16.2364 28.5589 17.3937 29.0849L17.8447 29.2954L18.5962 28.9196C20.2946 28.0929 21.8428 27.0859 23.2106 25.9736C25.1044 24.4255 26.9231 22.3663 27.9752 20.5777L28.2909 20.0516V13.9492V7.8468L28.0654 7.81674ZM14.4628 18.6988C14.4628 18.3832 14.6281 18.2028 14.9137 18.1878C15.049 18.1878 15.1392 18.2179 15.2444 18.3231C15.4398 18.5185 15.4398 18.8191 15.2594 18.9844C14.9738 19.285 14.4628 19.0896 14.4628 18.6988ZM17.8296 18.6237C17.7545 18.6838 17.7545 19.0445 17.7545 21.8102C17.7545 24.5157 17.7394 24.9365 17.6793 24.9966C17.6342 25.0267 17.5741 25.0417 17.529 25.0267C17.4689 24.9966 17.4539 24.681 17.4539 22.4865V19.9764L16.8226 19.3602L16.1913 18.7439L15.6051 19.3001C15.034 19.8562 15.0189 19.8562 14.9287 19.766C14.8235 19.6758 14.8386 19.6608 15.1241 19.3452C15.2895 19.1648 15.53 18.9243 15.6803 18.789C15.8155 18.6688 15.9358 18.5335 15.9208 18.4884C15.9057 18.4433 15.3346 17.8571 14.6582 17.1657L13.4107 15.9182L13.11 15.9483C12.8545 15.9783 12.7794 15.9633 12.614 15.8581C12.1932 15.6176 12.088 15.0464 12.4186 14.7007C12.5088 14.6105 12.6291 14.5053 12.6892 14.4903C12.8545 14.4151 13.1702 14.4302 13.3505 14.5354C13.6962 14.7007 13.8315 15.1216 13.6962 15.5274C13.6361 15.6777 13.6511 15.6927 13.9668 16.0084C14.1471 16.1887 14.3125 16.324 14.3125 16.309C14.3275 16.294 14.3425 16.0835 14.3425 15.843C14.3425 15.4372 14.3425 15.3921 14.2223 15.2418C14.087 15.0765 14.057 14.9112 14.1472 14.7308C14.2223 14.5805 14.2824 14.5504 14.4929 14.5504C14.8235 14.5504 15.0039 14.8661 14.8386 15.1366C14.7935 15.2118 14.7183 15.2869 14.6882 15.3019C14.6432 15.332 14.6281 15.4973 14.6281 16.0084V16.6848L16.026 18.0525L17.4238 19.4203V19.0445C17.4238 18.7439 17.4088 18.6688 17.3336 18.5936C17.2134 18.4734 17.1683 18.263 17.2284 18.0976C17.3036 17.9173 17.4088 17.8271 17.6192 17.8271C17.7845 17.8271 17.9348 17.9473 18.025 18.1878C18.0401 18.3081 17.9499 18.5335 17.8296 18.6237ZM18.506 14.4151L18.3858 14.5354L18.3707 19.781C18.3557 24.9966 18.3557 25.0267 18.2505 25.0267C18.1453 25.0267 18.1453 24.9816 18.1302 21.0887L18.1002 17.1507L17.5891 16.6397L17.0781 16.1286L16.7925 16.4142C16.6122 16.5946 16.5069 16.7298 16.522 16.79C16.537 17.0004 16.5069 17.1056 16.3867 17.2259C16.1913 17.4213 15.8757 17.4062 15.7103 17.1958C15.53 16.9854 15.545 16.7449 15.7404 16.5495C15.8757 16.4142 15.9057 16.3992 16.1011 16.4292C16.2965 16.4593 16.3115 16.4593 16.5821 16.1737L16.8677 15.8881L15.4247 14.4452L13.9818 13.0023L13.7263 12.9722C13.5309 12.9421 13.4407 12.9121 13.3656 12.8069C13.0199 12.4161 13.4858 11.8449 13.9518 12.1004C14.1171 12.1906 14.1772 12.2958 14.1772 12.5363C14.1772 12.7317 14.2073 12.7918 14.3726 12.9572C14.4778 13.0624 14.568 13.1375 14.583 13.1225C14.5981 13.1075 14.6131 12.7768 14.6281 12.371L14.6582 11.6345L14.4929 11.4541C14.3275 11.2738 14.3125 11.2738 13.9367 11.2738C13.591 11.2738 13.5459 11.2587 13.3806 11.1385C13.08 10.913 13.0199 10.417 13.2453 10.1164C13.3956 9.92101 13.6361 9.77071 13.8465 9.77071C14.4327 9.77071 14.7784 10.2968 14.568 10.883C14.5079 11.0333 14.5079 11.0483 14.6582 11.1685L14.8085 11.2888L15.2594 10.8228L15.7103 10.3569V9.86089C15.7103 9.37991 15.7103 9.36488 15.56 9.21458C15.4398 9.09433 15.4097 9.01918 15.4097 8.85384C15.4097 8.67348 15.4398 8.61335 15.56 8.50814C15.6803 8.40293 15.7554 8.3879 15.9057 8.40293C16.3416 8.46305 16.4619 8.8839 16.1612 9.21458L15.9959 9.39494V9.95107V10.5072L15.4548 11.0633L14.9137 11.6044V12.5363V13.4532L15.4698 14.0093C15.7704 14.3099 16.041 14.5654 16.056 14.5654C16.0711 14.5654 16.1011 14.5053 16.1011 14.4452C16.1011 14.355 16.041 14.2949 15.9057 14.2047C15.5901 14.0093 15.5149 13.859 15.5149 13.5434C15.5149 13.0474 15.8606 12.7317 16.3266 12.7768C16.6122 12.8069 16.7625 12.8971 16.8977 13.1225C17.048 13.363 17.0631 13.5734 16.9729 13.829C16.8977 14.0093 16.8376 14.0694 16.6422 14.1747L16.4017 14.3099V14.6256V14.9412L17.2585 15.798L18.1152 16.6547V16.0084V15.347L17.6643 14.8811C17.4088 14.6256 17.1983 14.4151 17.1833 14.4001C17.1683 14.3851 17.1683 13.9793 17.1683 13.4682L17.1833 12.5664L17.018 12.386C16.6573 11.9652 16.522 11.875 16.2815 11.875C15.9057 11.875 15.6652 11.5443 15.8005 11.2437C15.9057 10.9882 16.2364 10.8679 16.4919 11.0032C16.6122 11.0784 16.7324 11.3038 16.7324 11.4992C16.7324 11.6195 16.7775 11.7096 16.8827 11.8149C16.9729 11.905 17.0631 11.9802 17.0781 11.9802C17.0931 11.9802 17.1232 11.6195 17.1232 11.1836C17.1232 10.4471 17.1232 10.387 17.018 10.3268C16.9579 10.2968 16.8977 10.1916 16.8526 10.0863C16.7925 9.93604 16.7925 9.89095 16.8526 9.75568C16.8827 9.66549 16.9729 9.54525 17.048 9.48513L17.1683 9.36488V8.40293V7.44097L16.9879 7.24557C16.7474 6.97503 16.7324 6.7646 16.9579 6.55417C17.1683 6.35877 17.4088 6.35877 17.6042 6.55417C17.8146 6.7646 17.7996 7.02012 17.5741 7.24557L17.4088 7.41091V8.3879V9.36488L17.5741 9.51519C17.8146 9.72561 17.8146 9.93604 17.5741 10.2216L17.4088 10.417V12.2808V14.1446L17.7094 14.4753C17.8747 14.6556 18.025 14.8059 18.0551 14.821C18.0701 14.821 18.0852 14.7458 18.0852 14.6406C18.0852 14.5053 18.0551 14.4151 17.9649 14.34C17.6944 14.0845 17.8747 13.6035 18.2355 13.6035C18.5962 13.6786 18.7766 14.1596 18.506 14.4151ZM22.2336 16.5795C22.1133 16.9553 21.6925 17.0906 21.4219 16.82C21.2416 16.6246 21.2265 16.3992 21.4069 16.1887C21.5121 16.0685 21.5722 16.0384 21.7225 16.0384C21.8278 16.0384 21.963 16.0685 22.0382 16.1136C22.1735 16.2038 22.2787 16.4292 22.2336 16.5795ZM23.3308 16.5044C23.6314 16.805 23.6765 16.9102 23.5412 17.0305C23.4811 17.0906 23.3458 16.9703 22.5793 16.2188L21.7075 15.347L20.3548 16.6998L19.002 18.0525V21.0737C19.002 22.727 18.987 24.1249 18.9569 24.1549C18.9269 24.2 18.8667 24.2151 18.8216 24.2C18.7315 24.185 18.7315 24.0497 18.7164 20.0366L18.7014 15.8881L19.1673 15.4072L19.6333 14.9262V14.2949V13.6636L19.483 13.4983C19.2876 13.2728 19.2876 13.0323 19.468 12.867C19.6183 12.7317 19.6934 12.7167 19.9189 12.7918C20.1894 12.882 20.2495 13.2578 20.0241 13.4682C19.9339 13.5584 19.9189 13.6336 19.9189 14.0845C19.9189 14.3701 19.9339 14.5955 19.9489 14.5955C19.964 14.5955 20.0992 14.4753 20.2495 14.34L20.5051 14.0845V12.7317V11.379L19.7686 10.6575C19.3627 10.2667 19.017 9.93604 19.002 9.93604C18.987 9.93604 18.972 10.2216 18.972 10.5673V11.1986L19.1824 11.3189C19.5431 11.5293 19.6483 11.905 19.4529 12.3109C19.3477 12.5363 19.0471 12.7167 18.7916 12.7167C18.2505 12.7167 17.8898 12.1606 18.1002 11.6796C18.1753 11.5142 18.4459 11.2587 18.5511 11.2587C18.5812 11.2587 18.6263 11.2287 18.6413 11.1836C18.6563 11.1385 18.6713 10.6124 18.6713 10.0112V8.8839L18.4609 8.76366C18.0852 8.55323 17.9499 8.04219 18.2054 7.68146C18.2805 7.57625 18.3407 7.50109 18.3407 7.50109C18.3407 7.50109 18.4459 7.47103 18.5511 7.42594C18.8066 7.33576 18.8968 7.33576 19.1373 7.44097C19.6784 7.68146 19.6934 8.46305 19.1673 8.76366C18.972 8.8839 18.9569 8.8839 18.9569 9.15445V9.425L19.483 9.92101C19.7686 10.2066 20.0241 10.432 20.0542 10.432C20.0692 10.432 20.0842 10.1314 20.0842 9.77071C20.0842 9.22961 20.0692 9.10936 20.0091 9.04924C19.7686 8.85384 19.7686 8.50814 20.0091 8.35783C20.2045 8.23759 20.3397 8.23759 20.5051 8.37287C20.6854 8.50814 20.6854 8.83881 20.5051 9.00415C20.3848 9.12439 20.3848 9.12439 20.3848 9.9661C20.3848 10.7778 20.3848 10.8078 20.5051 10.913L20.6103 11.0182L20.8808 10.7778L21.1514 10.5373L21.0913 10.2667C21.0161 9.93604 21.0762 9.66549 21.2716 9.48513C21.6324 9.13942 22.0382 9.16948 22.3839 9.54525C22.5793 9.75568 22.6244 10.1465 22.459 10.402C22.2937 10.6725 22.0232 10.7928 21.6474 10.7477L21.3468 10.7176L21.0612 11.0032L20.7756 11.2888V12.7468V14.1897L19.8738 15.0615L18.972 15.9332V16.7148C18.972 17.1507 18.987 17.4964 19.017 17.4964C19.0321 17.4964 19.6032 16.9403 20.2946 16.2489L21.5271 15.0013L21.5121 14.0243L21.4971 13.0474L21.3618 12.9872C20.8357 12.7468 20.8057 11.9652 21.2867 11.6796C21.8428 11.3489 22.444 11.7096 22.444 12.356C22.444 12.6566 22.2937 12.867 21.963 13.0173L21.7977 13.0925V14.0845V15.0765L22.2186 15.4823C22.459 15.7078 22.6544 15.8731 22.6695 15.843C22.6845 15.813 22.6845 15.5875 22.6845 15.332L22.6695 14.851L22.4741 14.7308C22.2185 14.5805 22.0833 14.355 22.0833 14.0845C22.0833 13.4983 22.6093 13.1526 23.1204 13.378C23.7216 13.6336 23.7517 14.3851 23.1955 14.7308L22.955 14.8811V15.5424V16.2188L23.3308 16.5044Z" fill="#20477F"/>
<path d="M15.1552 18.6694C15.1552 18.5492 15.065 18.459 14.9448 18.459C14.8246 18.459 14.7344 18.5492 14.7344 18.6694C14.7344 18.7897 14.8246 18.8798 14.9448 18.8798C15.065 18.8798 15.1552 18.7897 15.1552 18.6694Z" fill="#20477F"/>
<path d="M16.0542 17.1064C16.1704 17.1064 16.2646 17.0122 16.2646 16.896C16.2646 16.7798 16.1704 16.6855 16.0542 16.6855C15.938 16.6855 15.8438 16.7798 15.8438 16.896C15.8438 17.0122 15.938 17.1064 16.0542 17.1064Z" fill="#20477F"/>
<path d="M21.7651 16.2793C21.6449 16.2793 21.5547 16.3695 21.5547 16.4897C21.5547 16.61 21.6449 16.7002 21.7651 16.7002C21.8854 16.7002 21.9755 16.61 21.9755 16.4897C21.9755 16.3695 21.8703 16.2793 21.7651 16.2793Z" fill="#20477F"/>
<path d="M13.7104 12.7314C13.8266 12.7314 13.9209 12.6372 13.9209 12.521C13.9209 12.4048 13.8266 12.3105 13.7104 12.3105C13.5942 12.3105 13.5 12.4048 13.5 12.521C13.5 12.6372 13.5942 12.7314 13.7104 12.7314Z" fill="#20477F"/>
<path d="M16.2339 11.6494C16.3501 11.6494 16.4443 11.5552 16.4443 11.4389C16.4443 11.3227 16.3501 11.2285 16.2339 11.2285C16.1176 11.2285 16.0234 11.3227 16.0234 11.4389C16.0234 11.5552 16.1176 11.6494 16.2339 11.6494Z" fill="#20477F"/>
<path d="M17.2729 10.1611C17.3891 10.1611 17.4834 10.0669 17.4834 9.95066C17.4834 9.83445 17.3891 9.74023 17.2729 9.74023C17.1567 9.74023 17.0625 9.83445 17.0625 9.95066C17.0625 10.0669 17.1567 10.1611 17.2729 10.1611Z" fill="#20477F"/>
<path d="M15.8432 9.09273C15.9595 9.09273 16.0537 8.99852 16.0537 8.8823C16.0537 8.76609 15.9595 8.67188 15.8432 8.67188C15.727 8.67188 15.6328 8.76609 15.6328 8.8823C15.6328 8.99852 15.727 9.09273 15.8432 9.09273Z" fill="#20477F"/>
<path d="M17.2886 7.13961C17.4048 7.13961 17.499 7.04539 17.499 6.92918C17.499 6.81296 17.4048 6.71875 17.2886 6.71875C17.1723 6.71875 17.0781 6.81296 17.0781 6.92918C17.0781 7.04539 17.1723 7.13961 17.2886 7.13961Z" fill="#20477F"/>
</svg>
