<svg width="130" height="25" viewBox="0 0 130 25" fill="none" xmlns="http://www.w3.org/2000/svg">
<path d="M28.7367 0.149406C25.2403 0.922472 22.394 3.64577 21.1378 7.3969C20.6898 8.71462 20.4701 10.1202 20.4174 11.9738C20.2769 16.3926 21.4628 19.7835 23.9665 22.1203C25.6708 23.7191 27.8055 24.4834 30.5815 24.4922C32.9007 24.4922 34.7982 24.0002 36.3707 22.9636L37.0647 22.5156L36.1335 21.2154C35.2462 19.9768 35.2023 19.9329 35.0266 20.0558C34.1218 20.7059 33.1203 21.1012 32.0046 21.2506C29.2725 21.6108 26.8128 20.3985 25.6795 18.1144C24.968 16.6913 24.6869 15.0485 24.6869 12.2461C24.6869 9.5404 24.9768 7.94156 25.7498 6.34272C26.0836 5.64871 26.3296 5.29732 26.8304 4.76145C27.9987 3.52278 29.1496 3.01326 30.7572 3.02205C32.0837 3.03083 33.2784 3.3998 34.315 4.11137C34.5434 4.2695 34.7367 4.37491 34.7455 4.35734C34.7631 4.34856 35.1847 3.75997 35.6767 3.06597L36.5815 1.80095L36.3707 1.63404C35.7118 1.11574 34.4732 0.562294 33.2169 0.22847C32.233 -0.0350742 29.7645 -0.0789986 28.7367 0.149406Z" fill="#002856"/>
<path d="M100.516 0.113766C98.4694 0.570578 96.8618 1.50177 95.342 3.08304C93.9628 4.53254 93.0491 6.21923 92.5221 8.31002C91.7753 11.2266 91.9071 15.0743 92.8295 17.7537C94.1297 21.4961 96.7827 23.8065 100.428 24.3687C102.3 24.6586 104.961 24.3951 106.481 23.7713C107.131 23.5078 108.08 22.9807 108.493 22.6644L108.695 22.4975L107.79 21.2325C107.298 20.5385 106.885 19.9587 106.876 19.9411C106.868 19.9324 106.648 20.0641 106.385 20.2398C105.295 20.9778 104.285 21.2677 102.748 21.2764C101.5 21.2764 100.885 21.1447 99.8047 20.6088C98.443 19.9411 97.4064 18.6673 96.9057 17.0685C96.1238 14.5209 96.0887 10.4535 96.8178 7.8005C97.3537 5.86784 98.5309 4.31292 100.024 3.55742C101.131 3.00398 102.633 2.85464 103.846 3.17089C104.426 3.32902 105.585 3.85611 106.103 4.19872L106.376 4.3832L107.307 3.09183L108.229 1.80046L107.948 1.58084C107.439 1.1943 105.901 0.509085 105.014 0.271894C104.276 0.0786266 103.934 0.0434875 102.616 0.0171337C101.5 -0.00922203 100.92 0.0171337 100.516 0.113766Z" fill="#002856"/>
<path d="M0.0263545 9.09226C0.052709 17.0689 0.0702787 17.842 0.219621 18.6062C0.412887 19.6165 0.676432 20.372 1.07175 21.0396C1.48464 21.7424 2.73208 22.9811 3.4788 23.4203C4.22551 23.8596 5.39389 24.2637 6.50956 24.4569C7.51104 24.6326 9.89173 24.659 10.9723 24.5009C14.4598 24.0001 16.6385 22.4364 17.4379 19.8713C17.9211 18.3163 17.9299 18.044 17.9299 8.86385V0.421627H15.1187H12.3163L12.29 8.87264L12.2636 17.3324L12.0089 17.8859C11.5872 18.7995 10.8229 19.3002 9.57547 19.4935C8.26653 19.6956 7.00152 19.2651 6.49199 18.4305C5.97369 17.5784 5.98247 17.7629 5.98247 8.70573V0.421627H2.99563H0L0.0263545 9.09226Z" fill="#002856"/>
<path d="M38.9297 9.04845C38.9297 17.5873 38.9648 18.7293 39.2372 19.7923C39.5973 21.1979 40.6779 22.6825 41.8375 23.3765C43.0146 24.0705 44.9912 24.4922 47.082 24.4922C49.9371 24.4922 51.8961 23.8597 53.3544 22.4805C53.7497 22.1027 54.2153 21.5668 54.3822 21.2945C54.7951 20.6093 55.1553 19.4936 55.2607 18.5624C55.3222 18.0529 55.3573 14.7059 55.3573 9.09237V0.421736H53.4247H51.492V8.80247C51.492 18.0441 51.492 18.0265 50.9561 19.1247C50.596 19.845 50.0513 20.3985 49.3573 20.7235C48.593 21.0749 47.9341 21.1803 46.7482 21.1276C44.3763 21.031 43.3924 20.1525 43.0586 17.8596C43.0059 17.4819 42.9707 13.9504 42.9707 8.82882V0.421736H40.9502H38.9297V9.04845Z" fill="#002856"/>
<path d="M58.25 12.2811V24.1406H64.7508H71.2516V22.4715V20.8024H66.7274H62.2032V17.1128V13.4231H65.6732H69.1432V11.7979V10.1727H65.6732H62.2032V6.96627V3.7598H66.5517C68.9587 3.7598 70.9002 3.72466 70.9002 3.68074C70.9002 3.56654 71.1549 1.02772 71.1988 0.702681L71.2428 0.421564H64.742H58.25V12.2811Z" fill="#002856"/>
<path d="M73.7109 12.2811V24.1406H75.6085H77.506L77.4708 15.101C77.4533 9.2064 77.4708 6.10535 77.5323 6.20199C77.5763 6.28105 79.5353 10.3396 81.8896 15.224L86.1678 24.0967L87.9775 24.1231L89.7872 24.1406V12.2811V0.421564H87.9424H86.0888L86.1151 8.41577C86.1327 12.817 86.1327 16.41 86.1239 16.41C86.1151 16.41 85.9482 15.9092 85.7462 15.2855C84.7183 12.1932 82.9526 8.21372 80.1941 2.78469L79.0521 0.535769L77.7344 0.483059C77.0053 0.44792 75.8017 0.421564 75.055 0.421564H73.7109V12.2811Z" fill="#002856"/>
<path d="M117.856 0.526712C117.838 0.588207 116.116 5.87668 114.034 12.2808C111.952 18.685 110.231 23.9734 110.213 24.0349C110.178 24.1228 110.591 24.1404 112.163 24.1228L114.157 24.0964L115.097 21.1535L116.029 18.2106L119.929 18.193L123.829 18.1667L124.761 21.1359L125.692 24.0964L127.862 24.1228C129.592 24.1404 130.032 24.1228 129.996 24.0349C129.979 23.9734 128.283 18.6323 126.237 12.1754L122.512 0.421295H120.201C118.436 0.421295 117.882 0.447649 117.856 0.526712ZM120.254 5.1124C120.359 5.46379 120.878 7.35253 121.414 9.30277C121.95 11.253 122.503 13.2296 122.644 13.6952C122.793 14.1608 122.907 14.5649 122.907 14.6C122.907 14.6264 121.589 14.6527 119.973 14.6527H117.03L117.294 13.8797C117.627 12.9133 119.376 6.77273 119.701 5.44622C119.832 4.91035 119.973 4.46232 120.008 4.46232C120.043 4.46232 120.157 4.75222 120.254 5.1124Z" fill="#002856"/>
</svg>
