<svg width="20" height="21" viewBox="0 0 20 21" fill="none" xmlns="http://www.w3.org/2000/svg">
<path d="M16.6667 8.95054V6.28387C16.6667 4.88374 16.6667 4.18368 16.3942 3.6489C16.1545 3.17849 15.7721 2.79604 15.3017 2.55636C14.7669 2.28387 14.0668 2.28387 12.6667 2.28387H7.33337C5.93324 2.28387 5.23318 2.28387 4.6984 2.55636C4.22799 2.79604 3.84554 3.17849 3.60586 3.6489C3.33337 4.18368 3.33337 4.88374 3.33337 6.28387V14.9505C3.33337 16.3507 3.33337 17.0507 3.60586 17.5855C3.84554 18.0559 4.22799 18.4384 4.6984 18.6781C5.23318 18.9505 5.93324 18.9505 7.33337 18.9505H10M10.4167 9.78387H6.66671M7.50004 13.1172H6.66671M13.3334 6.45054H6.66671M14.1644 12.976C13.498 12.2185 12.3866 12.0148 11.5516 12.7084C10.7166 13.4021 10.599 14.5618 11.2548 15.3822C11.9105 16.2025 14.1644 18.1172 14.1644 18.1172C14.1644 18.1172 16.4183 16.2025 17.0741 15.3822C17.7298 14.5618 17.6266 13.3948 16.7772 12.7084C15.9279 12.0221 14.8309 12.2185 14.1644 12.976Z" stroke="#5A5F67" stroke-width="1.25" stroke-linecap="round" stroke-linejoin="round"/>
</svg>
