<svg width="20" height="21" viewBox="0 0 20 21" fill="none" xmlns="http://www.w3.org/2000/svg">
<path d="M14.1666 12.7005V10.1958C14.1666 10.0463 14.1666 9.9715 14.1439 9.90548C14.1237 9.84709 14.0908 9.79391 14.0476 9.74979C13.9988 9.6999 13.9319 9.66645 13.7981 9.59956L9.99996 7.70049M3.33329 8.53383V14.206C3.33329 14.5159 3.33329 14.6709 3.38164 14.8066C3.42438 14.9265 3.49404 15.0351 3.58527 15.1239C3.68847 15.2244 3.82935 15.289 4.11109 15.4181L9.44442 17.8625C9.64878 17.9562 9.75096 18.003 9.85741 18.0215C9.95174 18.0379 10.0482 18.0379 10.1425 18.0215C10.249 18.003 10.3511 17.9562 10.5555 17.8625L15.8888 15.4181C16.1706 15.289 16.3114 15.2244 16.4146 15.1239C16.5059 15.0351 16.5755 14.9265 16.6183 14.8066C16.6666 14.6709 16.6666 14.5159 16.6666 14.206V8.53383M1.66663 7.70049L9.70182 3.6829C9.81114 3.62824 9.86579 3.60091 9.92313 3.59015C9.9739 3.58063 10.026 3.58063 10.0768 3.59015C10.1341 3.60091 10.1888 3.62824 10.2981 3.6829L18.3333 7.70049L10.2981 11.7181C10.1888 11.7727 10.1341 11.8001 10.0768 11.8108C10.026 11.8204 9.9739 11.8204 9.92313 11.8108C9.86579 11.8001 9.81114 11.7727 9.70182 11.7181L1.66663 7.70049Z" stroke="#5A5F67" stroke-width="1.25" stroke-linecap="round" stroke-linejoin="round"/>
</svg>
