<svg width="20" height="21" viewBox="0 0 20 21" fill="none" xmlns="http://www.w3.org/2000/svg">
<path d="M7.50033 15.6725H12.5003M5.50033 1.92249H14.5003C14.967 1.92249 15.2004 1.92249 15.3787 2.01331C15.5355 2.09321 15.6629 2.22069 15.7428 2.37749C15.8337 2.55575 15.8337 2.78911 15.8337 3.25582V4.98458C15.8337 5.39223 15.8337 5.59606 15.7876 5.78787C15.7468 5.95793 15.6794 6.12051 15.5881 6.26963C15.485 6.43782 15.3409 6.58195 15.0526 6.8702L12.6098 9.31301C12.2798 9.64302 12.1148 9.80803 12.053 9.9983C11.9986 10.1657 11.9986 10.346 12.053 10.5133C12.1148 10.7036 12.2798 10.8686 12.6098 11.1986L15.0526 13.6414C15.3409 13.9297 15.485 14.0738 15.5881 14.242C15.6794 14.3911 15.7468 14.5537 15.7876 14.7238C15.8337 14.9156 15.8337 15.1194 15.8337 15.5271V17.2558C15.8337 17.7225 15.8337 17.9559 15.7428 18.1341C15.6629 18.2909 15.5355 18.4184 15.3787 18.4983C15.2004 18.5892 14.967 18.5892 14.5003 18.5892H5.50033C5.03362 18.5892 4.80026 18.5892 4.622 18.4983C4.4652 18.4184 4.33771 18.2909 4.25782 18.1341C4.16699 17.9559 4.16699 17.7225 4.16699 17.2558V15.5271C4.16699 15.1194 4.16699 14.9156 4.21304 14.7238C4.25387 14.5537 4.32121 14.3911 4.41259 14.242C4.51566 14.0738 4.65979 13.9297 4.94804 13.6414L7.39085 11.1986C7.72086 10.8686 7.88587 10.7036 7.94769 10.5133C8.00208 10.346 8.00208 10.1657 7.94769 9.9983C7.88587 9.80803 7.72086 9.64302 7.39085 9.31301L4.94804 6.8702C4.65979 6.58195 4.51566 6.43782 4.41259 6.26963C4.32121 6.12051 4.25387 5.95793 4.21304 5.78787C4.16699 5.59606 4.16699 5.39223 4.16699 4.98458V3.25582C4.16699 2.78911 4.16699 2.55575 4.25782 2.37749C4.33771 2.22069 4.4652 2.09321 4.622 2.01331C4.80026 1.92249 5.03362 1.92249 5.50033 1.92249Z" stroke="#5A5F67" stroke-width="1.25" stroke-linecap="round" stroke-linejoin="round"/>
</svg>
