<svg width="20" height="21" viewBox="0 0 20 21" fill="none" xmlns="http://www.w3.org/2000/svg">
<path d="M2.5 7.7558H17.5M2.5 12.7558H17.5M6.5 2.7558H13.5C14.9001 2.7558 15.6002 2.7558 16.135 3.02828C16.6054 3.26797 16.9878 3.65042 17.2275 4.12082C17.5 4.6556 17.5 5.35567 17.5 6.7558V13.7558C17.5 15.1559 17.5 15.856 17.2275 16.3908C16.9878 16.8612 16.6054 17.2436 16.135 17.4833C15.6002 17.7558 14.9001 17.7558 13.5 17.7558H6.5C5.09987 17.7558 4.3998 17.7558 3.86502 17.4833C3.39462 17.2436 3.01217 16.8612 2.77248 16.3908C2.5 15.856 2.5 15.1559 2.5 13.7558V6.7558C2.5 5.35567 2.5 4.6556 2.77248 4.12082C3.01217 3.65042 3.39462 3.26797 3.86502 3.02828C4.3998 2.7558 5.09987 2.7558 6.5 2.7558Z" stroke="#5A5F67" strokeWidth="1.25" strokeLinecap="round" strokeLinejoin="round"/>
</svg>
