<svg width="20" height="21" viewBox="0 0 20 21" fill="none" xmlns="http://www.w3.org/2000/svg">
<path d="M18.3337 17.7558V16.0891C18.3337 14.5359 17.2713 13.2308 15.8337 12.8608M12.917 2.9981C14.1386 3.49259 15.0003 4.69022 15.0003 6.08913C15.0003 7.48804 14.1386 8.68568 12.917 9.18017M14.167 17.7558C14.167 16.2027 14.167 15.4261 13.9133 14.8135C13.5749 13.9968 12.926 13.3478 12.1093 13.0095C11.4967 12.7558 10.7201 12.7558 9.16699 12.7558H6.66699C5.11385 12.7558 4.33728 12.7558 3.72471 13.0095C2.90795 13.3478 2.25904 13.9968 1.92073 14.8135C1.66699 15.4261 1.66699 16.2027 1.66699 17.7558M11.2503 6.08913C11.2503 7.93008 9.75794 9.42246 7.91699 9.42246C6.07604 9.42246 4.58366 7.93008 4.58366 6.08913C4.58366 4.24818 6.07604 2.7558 7.91699 2.7558C9.75794 2.7558 11.2503 4.24818 11.2503 6.08913Z" stroke="#5A5F67" stroke-width="1.25" stroke-linecap="round" stroke-linejoin="round"/>
</svg>
