<svg width="20" height="21" viewBox="0 0 20 21" fill="none" xmlns="http://www.w3.org/2000/svg">
<path d="M10.0003 1.92249C12.0847 4.20445 13.2693 7.16585 13.3337 10.2558C13.2693 13.3458 12.0847 16.3072 10.0003 18.5892M10.0003 1.92249C7.91593 4.20445 6.73136 7.16585 6.66699 10.2558C6.73136 13.3458 7.91593 16.3072 10.0003 18.5892M10.0003 1.92249C5.39795 1.92249 1.66699 5.65345 1.66699 10.2558C1.66699 14.8582 5.39795 18.5892 10.0003 18.5892M10.0003 1.92249C14.6027 1.92249 18.3337 5.65345 18.3337 10.2558C18.3337 14.8582 14.6027 18.5892 10.0003 18.5892M2.08367 7.75582H17.917M2.08366 12.7558H17.917" stroke="#5A5F67" stroke-width="1.25" stroke-linecap="round" stroke-linejoin="round"/>
</svg>
