<svg width="495" height="83" viewBox="0 0 495 83" fill="none" xmlns="http://www.w3.org/2000/svg">
<g clip-path="url(#clip0_6875_13483)">
<path d="M13.2083 26.918H0V59.3384H13.2083V26.918Z" fill="#5B585A"/>
<path d="M43.8284 16.1098C48.1389 16.1098 51.6333 12.6154 51.6333 8.30491C51.6333 3.99438 48.1389 0.5 43.8284 0.5C39.5178 0.5 36.0234 3.99438 36.0234 8.30491C36.0234 12.6154 39.5178 16.1098 43.8284 16.1098Z" fill="#5B585A"/>
<path d="M39.6283 34.7441C40.5915 31.7931 42.237 29.1109 44.4313 26.9152C42.2168 24.3336 39.8083 21.9251 37.2268 19.7106C31.1807 14.54 24.2708 10.4754 16.8139 7.70312L9.60938 16.1084C13.425 17.6989 17.0499 19.7128 20.4162 22.1122C25.5434 25.7144 29.0976 28.3321 31.223 32.919C34.0568 39.0548 32.4237 45.2027 31.223 49.7295C29.5955 55.4845 26.7265 60.8128 22.8177 65.3394C20.3417 68.449 17.522 71.2687 14.4124 73.7447L21.6169 82.15C24.7509 79.2201 27.9689 76.0141 31.223 72.5439C36.2301 67.1885 40.6129 61.9292 44.4313 56.9341C43.8069 56.1176 36.026 45.8031 39.6283 34.7441Z" fill="#5B585A"/>
<path d="M66.0433 65.3394C62.1345 60.8128 59.2654 55.4845 57.638 49.7295C56.4372 45.2027 54.8042 39.0548 57.638 32.919C59.7633 28.3321 63.3176 25.7144 68.4448 22.1122C71.8111 19.7128 75.436 17.6989 79.2516 16.1084L72.0471 7.70312C64.5902 10.4754 57.6803 14.54 51.6342 19.7106C49.0527 21.9251 46.6441 24.3336 44.4297 26.9152C46.624 29.1109 48.2695 31.7931 49.2327 34.7441C52.835 45.8031 45.0541 56.1176 44.4297 56.9341C48.2481 61.9292 52.6308 67.1885 57.638 72.5439C60.8921 76.0141 64.1101 79.2201 67.244 82.15L74.4486 73.7447C71.3389 71.2687 68.5193 68.449 66.0433 65.3394Z" fill="#5B585A"/>
<path d="M118.274 16.1098C122.584 16.1098 126.079 12.6154 126.079 8.30491C126.079 3.99438 122.584 0.5 118.274 0.5C113.963 0.5 110.469 3.99438 110.469 8.30491C110.469 12.6154 113.963 16.1098 118.274 16.1098Z" fill="#5B585A"/>
<path d="M112.873 26.9152H118.877C116.662 24.3336 114.254 21.9251 111.672 19.7106C105.626 14.54 98.7161 10.4754 91.2592 7.70312L84.0547 16.1084C87.8703 17.6989 91.4952 19.7128 94.8615 22.1122C99.9887 25.7144 103.543 28.3321 105.668 32.919C108.502 39.0548 106.869 45.2027 105.668 49.7295C104.041 55.4845 101.172 60.8128 97.263 65.3394C94.787 68.449 91.9674 71.2687 88.8577 73.7447L96.0622 82.15C99.1962 79.2201 102.414 76.0141 105.668 72.5439C110.675 67.1885 115.058 61.9292 118.877 56.9341H112.873V26.9152Z" fill="#5B585A"/>
<path d="M140.489 65.3394C136.58 60.8128 133.711 55.4845 132.083 49.7295C130.883 45.2027 129.25 39.0548 132.083 32.919C134.209 28.3321 137.763 25.7144 142.89 22.1122C146.256 19.7128 149.881 17.6989 153.697 16.1084L146.492 7.70312C139.036 10.4754 132.126 14.54 126.08 19.7106C123.498 21.9251 121.089 24.3336 118.875 26.9152H124.879V56.9341H118.875C122.693 61.9292 127.076 67.1885 132.083 72.5439C135.337 76.0141 138.555 79.2201 141.689 82.15L148.894 73.7447C145.784 71.2687 142.965 68.449 140.489 65.3394Z" fill="#5B585A"/>
<path d="M160.897 35.3233C159.897 32.2181 158.261 29.3554 156.094 26.918C153.926 29.3554 152.29 32.2181 151.291 35.3233C149.861 40.02 149.861 45.0357 151.291 49.7324C152.257 53.2141 153.888 56.476 156.094 59.3384C158.299 56.476 159.93 53.2141 160.897 49.7324C162.326 45.0357 162.326 40.02 160.897 35.3233Z" fill="#5B585A"/>
<path d="M90.4755 36.5221C88.8133 34.2661 86.7296 32.3537 84.3397 30.8906C83.5537 30.3906 82.6415 30.125 81.71 30.125C80.7785 30.125 79.8663 30.3906 79.0804 30.8906C76.688 32.3505 74.6037 34.2635 72.9445 36.5221C69.1381 42.0816 71.7437 46.8126 72.9445 48.8059C74.4604 51.2222 76.4299 53.3222 78.7441 54.9897C79.5974 55.6317 80.6362 55.9789 81.704 55.9789C82.7718 55.9789 83.8106 55.6317 84.6639 54.9897C86.9817 53.3224 88.9551 51.2226 90.4755 48.8059C91.6403 46.7646 94.2819 42.0336 90.4755 36.5221Z" fill="#5B585A"/>
<path d="M218.021 33.9152V57.9304H213.47L201.522 43.3772V57.8823H196.047V33.8672H200.634L212.533 48.5284V33.9152H218.021Z" fill="#5B585A"/>
<path d="M226.092 55.4596C224.183 53.5624 223.234 50.8486 223.234 47.3424V33.918H228.782V47.1263C228.782 51.409 230.563 53.5544 234.125 53.5624C234.862 53.6087 235.599 53.493 236.286 53.2233C236.973 52.9536 237.592 52.5365 238.1 52.0014C239.125 50.5926 239.611 48.8628 239.469 47.1263V33.918H244.956V47.3304C244.956 50.8366 244.007 53.5503 242.098 55.4475C239.836 57.2803 237.013 58.2804 234.101 58.2804C231.19 58.2804 228.366 57.2803 226.104 55.4475L226.092 55.4596Z" fill="#5B585A"/>
<path d="M254.704 38.4328H247.031V33.918H267.924V38.4328H260.252V57.8851H254.704V38.4328Z" fill="#5B585A"/>
<path d="M285.899 57.8822L281.276 51.206H276.172V57.8822H270.625V33.8671H280.976C282.875 33.8215 284.762 34.1817 286.511 34.9237C287.598 35.4421 288.564 36.1837 289.345 37.1003C290.127 38.0169 290.706 39.0879 291.046 40.2434C291.386 41.3989 291.479 42.6131 291.318 43.8068C291.157 45.0005 290.747 46.147 290.113 47.1714C289.228 48.4878 287.975 49.515 286.511 50.1253L291.89 57.8341L285.899 57.8822ZM284.494 39.5106C283.39 38.7172 282.043 38.3349 280.687 38.4299H276.172V46.8352H280.687C282.045 46.933 283.394 46.5458 284.494 45.7425C284.934 45.3536 285.279 44.8687 285.501 44.3253C285.724 43.7819 285.819 43.1945 285.779 42.6086C285.815 42.0284 285.718 41.4475 285.496 40.9105C285.273 40.3734 284.93 39.8946 284.494 39.5106Z" fill="#5B585A"/>
<path d="M295.516 33.918H301.063V57.9331H295.516V33.918Z" fill="#5B585A"/>
<path d="M311.321 56.7069C309.396 55.6842 307.785 54.1567 306.662 52.2881C305.552 50.342 304.969 48.1404 304.969 45.9001C304.969 43.6599 305.552 41.4582 306.662 39.5121C307.785 37.6436 309.396 36.116 311.321 35.0933C313.217 34.1412 315.295 33.6047 317.416 33.5198C319.536 33.4349 321.65 33.8035 323.617 34.601C325.239 35.2987 326.675 36.3682 327.807 37.723L324.205 41.013C323.478 40.1257 322.561 39.4126 321.522 38.9264C320.483 38.4401 319.348 38.193 318.201 38.2033C316.815 38.1784 315.445 38.5135 314.227 39.1759C313.081 39.8115 312.137 40.7559 311.501 41.9016C310.862 43.1291 310.529 44.4924 310.529 45.8761C310.529 47.2598 310.862 48.6232 311.501 49.8506C312.134 50.9955 313.079 51.9367 314.227 52.5643C315.442 53.2361 316.813 53.5757 318.201 53.5489C319.352 53.5583 320.49 53.3072 321.529 52.8144C322.569 52.3215 323.484 51.5998 324.205 50.7031L327.807 53.9932C326.671 55.3794 325.217 56.4709 323.569 57.1752C321.779 57.9248 319.853 58.2968 317.913 58.2679C315.62 58.301 313.355 57.7647 311.321 56.7069Z" fill="#5B585A"/>
<path d="M331.305 33.918H336.852V57.9331H331.305V33.918Z" fill="#5B585A"/>
<path d="M347.147 56.6826C345.207 55.6652 343.587 54.1319 342.464 52.2518C341.346 50.3213 340.758 48.1303 340.758 45.8998C340.758 43.6693 341.346 41.4782 342.464 39.5478C343.587 37.6677 345.207 36.1344 347.147 35.117C349.23 34.0591 351.534 33.5078 353.871 33.5078C356.208 33.5078 358.511 34.0591 360.595 35.117C362.56 36.1559 364.205 37.7112 365.353 39.6154C366.5 41.5196 367.106 43.7007 367.106 45.9238C367.106 48.1469 366.5 50.328 365.353 52.2322C364.205 54.1364 362.56 55.6917 360.595 56.7306C358.511 57.7885 356.208 58.3398 353.871 58.3398C351.534 58.3398 349.23 57.7885 347.147 56.7306V56.6826ZM357.713 52.588C358.846 51.9524 359.777 51.0123 360.403 49.8743C361.042 48.6468 361.375 47.2835 361.375 45.8998C361.375 44.5161 361.042 43.1527 360.403 41.9253C359.774 40.7867 358.843 39.8435 357.713 39.1996C356.535 38.5616 355.217 38.2276 353.877 38.2276C352.537 38.2276 351.219 38.5616 350.04 39.1996C348.914 39.8489 347.985 40.7907 347.351 41.9253C346.712 43.1527 346.378 44.5161 346.378 45.8998C346.378 47.2835 346.712 48.6468 347.351 49.8743C347.98 51.0096 348.911 51.9488 350.04 52.588C351.216 53.2344 352.535 53.5734 353.877 53.5734C355.218 53.5734 356.538 53.2344 357.713 52.588Z" fill="#5B585A"/>
<path d="M392.878 33.9152V57.9304H388.327L376.319 43.3772V57.8823H370.844V33.8672H375.431L387.402 48.5284V33.9152H392.878Z" fill="#5B585A"/>
<path d="M398.281 33.918H403.829V57.9331H398.281V33.918Z" fill="#5B585A"/>
<path d="M411.615 57.5248C410.083 57.1256 408.637 56.4457 407.352 55.5195L409.238 51.3409C410.352 52.1425 411.589 52.7588 412.9 53.166C414.272 53.6152 415.707 53.8462 417.151 53.8505C418.358 53.9295 419.564 53.6849 420.645 53.142C420.982 52.9614 421.265 52.6933 421.464 52.3659C421.662 52.0385 421.769 51.6637 421.774 51.2809C421.776 51.0074 421.718 50.7368 421.601 50.4894C421.485 50.2419 421.314 50.024 421.101 49.852C420.595 49.4456 420.017 49.14 419.396 48.9514C418.7 48.7232 417.751 48.4711 416.562 48.1949C415.045 47.8522 413.549 47.4192 412.083 46.8982C410.922 46.4668 409.889 45.7479 409.082 44.8088C408.227 43.717 407.8 42.3507 407.881 40.9664C407.865 39.6203 408.259 38.3013 409.01 37.1841C409.86 35.9744 411.045 35.0395 412.42 34.4943C414.186 33.7897 416.078 33.4546 417.979 33.5097C419.492 33.5073 421 33.6887 422.47 34.05C423.808 34.3753 425.088 34.9059 426.264 35.623L424.559 39.8377C422.53 38.6332 420.219 37.9831 417.859 37.9525C416.665 37.8677 415.473 38.1304 414.425 38.7089C414.083 38.9136 413.8 39.204 413.604 39.5514C413.408 39.8988 413.306 40.2914 413.308 40.6902C413.309 41.0959 413.437 41.4912 413.674 41.8206C413.911 42.15 414.245 42.3972 414.629 42.5274C415.893 43.0612 417.209 43.4635 418.556 43.7281C420.072 44.0798 421.567 44.5168 423.034 45.0369C424.189 45.4636 425.22 46.1689 426.036 47.0902C426.895 48.1613 427.323 49.5144 427.237 50.8846C427.234 52.2313 426.815 53.5443 426.036 54.643C425.186 55.8322 424.016 56.7564 422.662 57.3087C420.887 58.011 418.987 58.3459 417.079 58.2933C415.23 58.2973 413.391 58.0386 411.615 57.5248Z" fill="#5B585A"/>
<path d="M435.445 38.4328H427.773V33.918H448.654V38.4328H440.993V57.8851H435.445V38.4328Z" fill="#5B585A"/>
<path d="M465.956 52.7431H454.825L452.687 57.8823H447.008L457.683 33.8672H463.17L473.881 57.8823H468.057L465.956 52.7431ZM464.203 48.5284L460.408 39.3547L456.602 48.5284H464.203Z" fill="#5B585A"/>
<path d="M478.5 57.5251C476.987 57.1216 475.562 56.4417 474.297 55.5198L476.182 51.3412C477.295 52.1451 478.532 52.7616 479.844 53.1663C481.213 53.6154 482.643 53.8464 484.083 53.8508C485.29 53.9327 486.497 53.688 487.577 53.1423C487.917 52.9637 488.201 52.6961 488.4 52.3682C488.598 52.0404 488.704 51.6646 488.706 51.2811C488.711 51.0085 488.654 50.7382 488.54 50.4907C488.426 50.2432 488.257 50.0249 488.046 49.8522C487.535 49.4461 486.953 49.1405 486.328 48.9517C485.632 48.7235 484.695 48.4714 483.507 48.1952C481.985 47.8522 480.486 47.4192 479.016 46.8984C477.856 46.4699 476.827 45.7504 476.026 44.8091C475.166 43.72 474.738 42.3517 474.825 40.9666C474.809 39.6206 475.203 38.3015 475.954 37.1843C476.804 35.9746 477.99 35.0398 479.364 34.4946C481.13 33.789 483.023 33.4538 484.924 33.51C486.437 33.5084 487.945 33.6898 489.414 34.0503C490.765 34.3743 492.057 34.9049 493.245 35.6233L491.528 39.8379C489.517 38.64 487.228 37.99 484.888 37.9528C483.694 37.8666 482.501 38.1294 481.453 38.7092C481.111 38.9139 480.828 39.2042 480.632 39.5517C480.436 39.8991 480.334 40.2916 480.337 40.6905C480.326 41.0779 480.431 41.4597 480.638 41.7871C480.846 42.1144 481.146 42.3723 481.501 42.5276C482.762 43.06 484.074 43.4623 485.416 43.7284C486.936 44.0724 488.435 44.5013 489.907 45.0132C491.059 45.4371 492.087 46.143 492.897 47.0665C493.781 48.1265 494.232 49.4822 494.157 50.8609C494.155 52.2076 493.735 53.5205 492.957 54.6192C492.089 55.8267 490.893 56.7601 489.51 57.3089C487.74 58.0126 485.844 58.3476 483.939 58.2936C482.099 58.2953 480.267 58.0366 478.5 57.5251Z" fill="#5B585A"/>
<path d="M206.329 68.0052C206.872 68.514 207.305 69.1286 207.6 69.8112C207.896 70.4938 208.049 71.2298 208.049 71.9737C208.049 72.7176 207.896 73.4536 207.6 74.1362C207.305 74.8188 206.872 75.4335 206.329 75.9422C204.951 76.9779 203.247 77.4849 201.526 77.3711H197.276V82.3663H195.727V66.5403H201.646C203.332 66.4552 204.993 66.9747 206.329 68.0052ZM205.129 74.8735C205.534 74.5127 205.852 74.0651 206.06 73.564C206.268 73.0629 206.36 72.5213 206.329 71.9797C206.369 71.4282 206.282 70.8749 206.074 70.3627C205.865 69.8505 205.542 69.393 205.129 69.0259C204.085 68.2739 202.81 67.9126 201.526 68.0052H197.324V75.9062H201.526C202.811 75.9953 204.086 75.6298 205.129 74.8735Z" fill="#5B585A"/>
<path d="M220.034 82.3672L217.104 78.2486C216.764 78.2669 216.423 78.2669 216.083 78.2486H212.637V82.3192H211.328V69.5431H216.131C217.514 69.4707 218.878 69.8968 219.973 70.7439C220.436 71.1411 220.802 71.6384 221.043 72.1981C221.284 72.7578 221.395 73.3651 221.366 73.9739C221.396 74.88 221.126 75.7706 220.598 76.5075C220.055 77.2225 219.298 77.7444 218.437 77.9965L221.558 82.3912L220.034 82.3672ZM218.953 76.3034C219.281 75.9957 219.543 75.6237 219.723 75.2107C219.902 74.7976 219.994 74.3521 219.994 73.9019C219.994 73.4517 219.902 73.0062 219.723 72.5931C219.543 72.1801 219.281 71.8081 218.953 71.5004C218.11 70.8853 217.076 70.5876 216.035 70.6598H212.637V77.0839H216.035C217.069 77.1735 218.102 76.8973 218.953 76.3034Z" fill="#5B585A"/>
<path d="M227.039 81.6213C226.039 81.0807 225.208 80.2746 224.638 79.2918C224.071 78.2727 223.773 77.1259 223.773 75.9597C223.773 74.7936 224.071 73.6468 224.638 72.6276C225.196 71.6167 226.028 70.7842 227.039 70.2261C228.103 69.6696 229.285 69.3789 230.485 69.3789C231.686 69.3789 232.868 69.6696 233.931 70.2261C234.938 70.7894 235.77 71.6206 236.333 72.6276C236.907 73.6486 237.209 74.8003 237.209 75.9717C237.209 77.1432 236.907 78.2949 236.333 79.3158C235.757 80.2945 234.927 81.0993 233.931 81.6453C232.877 82.2147 231.695 82.5041 230.497 82.4858C229.29 82.4966 228.099 82.199 227.039 81.6213ZM233.235 80.5766C234.043 80.1354 234.712 79.4786 235.168 78.6794C235.625 77.8459 235.865 76.9105 235.865 75.9597C235.865 75.009 235.625 74.0736 235.168 73.24C234.714 72.4393 234.044 71.782 233.235 71.3428C232.397 70.881 231.454 70.6451 230.497 70.6584C229.533 70.6453 228.582 70.881 227.736 71.3428C226.927 71.7889 226.258 72.4496 225.802 73.252C225.337 74.0831 225.093 75.0195 225.093 75.9717C225.093 76.924 225.337 77.8604 225.802 78.6915C226.262 79.4879 226.931 80.1439 227.736 80.5886C228.582 81.0504 229.533 81.2862 230.497 81.2731C231.455 81.2827 232.398 81.0427 233.235 80.5766Z" fill="#5B585A"/>
<path d="M250.955 69.543L245.276 82.367H243.943L238.203 69.543H239.668L244.567 80.686L249.514 69.543H250.955Z" fill="#5B585A"/>
<path d="M253.102 69.543H254.459V82.367H253.102V69.543Z" fill="#5B585A"/>
<path d="M269.719 69.543V82.367H268.602L260.365 71.9685V82.367H259.008V69.543H260.125L268.386 79.9535V69.543H269.719Z" fill="#5B585A"/>
<path d="M276.39 81.6344C275.395 81.0884 274.565 80.2836 273.989 79.3049C273.422 78.2814 273.125 77.1307 273.125 75.9608C273.125 74.7909 273.422 73.6402 273.989 72.6167C274.554 71.6109 275.385 70.78 276.39 70.2152C277.321 69.732 278.343 69.4502 279.39 69.3881C280.437 69.326 281.485 69.4851 282.466 69.855C283.28 70.1738 284.005 70.6846 284.58 71.3439L283.715 72.2085C283.225 71.7055 282.636 71.3102 281.984 71.0476C281.333 70.7851 280.634 70.6611 279.933 70.6835C278.963 70.6704 278.007 70.9104 277.159 71.3799C276.351 71.8244 275.678 72.4802 275.214 73.2771C274.741 74.1027 274.496 75.0394 274.505 75.9908C274.493 76.9427 274.737 77.8803 275.214 78.7046C275.678 79.5048 276.35 80.1645 277.159 80.6138C278.01 81.074 278.965 81.3096 279.933 81.2982C280.629 81.3153 281.321 81.1862 281.964 80.9194C282.607 80.6526 283.187 80.254 283.667 79.7492L284.532 80.6138C283.961 81.2302 283.259 81.7104 282.478 82.0186C281.632 82.3443 280.731 82.5073 279.825 82.4989C278.624 82.5115 277.442 82.2137 276.39 81.6344Z" fill="#5B585A"/>
<path d="M287.797 69.543H289.142V82.367H287.797V69.543Z" fill="#5B585A"/>
<path d="M301.727 78.9449H294.583L293.046 82.367H291.641L297.5 69.543H298.833L304.693 82.367H303.264L301.727 78.9449ZM301.235 77.8402L298.161 70.9598L295.087 77.8402H301.235Z" fill="#5B585A"/>
<path d="M312.352 69.5447H317.563C318.812 69.5185 320.049 69.7987 321.165 70.3611C322.16 70.8807 322.992 71.6663 323.567 72.6305C324.126 73.6499 324.419 74.7939 324.419 75.9566C324.419 77.1193 324.126 78.2632 323.567 79.2827C322.998 80.2522 322.165 81.0394 321.165 81.5521C320.049 82.1145 318.812 82.3948 317.563 82.3686H312.352V69.5447ZM317.491 81.192C318.515 81.2179 319.529 80.9911 320.445 80.5316C321.256 80.109 321.934 79.4686 322.402 78.6823C322.859 77.8487 323.099 76.9133 323.099 75.9626C323.099 75.0119 322.859 74.0765 322.402 73.2429C321.946 72.4347 321.267 71.7759 320.445 71.3458C319.53 70.8821 318.516 70.6511 317.491 70.6734H313.708V81.192H317.491Z" fill="#5B585A"/>
<path d="M336.906 81.1903V82.391H327.805V69.543H336.594V70.7437H329.162V75.3066H335.79V76.5073H329.162V81.3104L336.906 81.1903Z" fill="#5B585A"/>
<path d="M357.993 75.5606C358.576 76.2912 358.874 77.2084 358.833 78.1423C358.868 78.7489 358.748 79.3543 358.486 79.9022C358.223 80.4502 357.827 80.9228 357.332 81.2763C356.002 82.0955 354.448 82.4776 352.89 82.3689H345.625V66.5429H352.445C353.889 66.4585 355.322 66.8325 356.54 67.6116C357.015 67.9498 357.398 68.4018 357.654 68.9261C357.91 69.4505 358.031 70.0306 358.005 70.6134C358.028 71.4037 357.801 72.181 357.356 72.8348C356.913 73.4572 356.294 73.9338 355.579 74.2038C356.514 74.3696 357.365 74.8479 357.993 75.5606ZM347.294 67.9359V73.6755H352.325C353.365 73.7353 354.399 73.4799 355.291 72.9429C355.614 72.6877 355.874 72.363 356.053 71.9929C356.232 71.6227 356.325 71.2168 356.325 70.8056C356.325 70.3944 356.232 69.9885 356.053 69.6184C355.874 69.2482 355.614 68.9235 355.291 68.6683C354.401 68.1256 353.366 67.8699 352.325 67.9359H347.294ZM356.084 80.2675C356.445 80.0179 356.734 79.6783 356.924 79.2824C357.113 78.8864 357.196 78.4479 357.164 78.0101C357.164 76.0409 355.735 75.0563 352.878 75.0563H347.294V80.9521H352.878C353.99 81.0329 355.102 80.7954 356.084 80.2675Z" fill="#5B585A"/>
<path d="M363.377 81.0462C362.881 80.4804 362.502 79.8218 362.263 79.1086C362.024 78.3954 361.929 77.6418 361.984 76.8916V69.543H363.329V76.8315C363.235 78.0313 363.595 79.2226 364.337 80.1696C365.148 80.875 366.186 81.2634 367.261 81.2634C368.336 81.2634 369.374 80.875 370.185 80.1696C370.927 79.2226 371.287 78.0313 371.194 76.8315V69.543H372.514V76.8916C372.619 78.4063 372.118 79.9007 371.121 81.0462C370.038 81.9605 368.666 82.462 367.249 82.462C365.832 82.462 364.46 81.9605 363.377 81.0462Z" fill="#5B585A"/>
<path d="M386.019 81.1903V82.391H376.953V69.543H385.743V70.7437H378.31V75.3066H384.938V76.5073H378.31V81.3104L386.019 81.1903Z" fill="#5B585A"/>
<path d="M400.281 69.543V82.367H399.164L390.927 71.9685V82.367H389.57V69.543H390.687L398.948 79.9535V69.543H400.281Z" fill="#5B585A"/>
<path d="M406.969 81.6213C405.969 81.0807 405.138 80.2746 404.567 79.2918C404 78.2727 403.703 77.1259 403.703 75.9597C403.703 74.7936 404 73.6468 404.567 72.6276C405.125 71.6167 405.958 70.7842 406.969 70.2261C408.032 69.6696 409.215 69.3789 410.415 69.3789C411.615 69.3789 412.798 69.6696 413.861 70.2261C414.87 70.7863 415.702 71.6183 416.263 72.6276C416.845 73.6459 417.151 74.7987 417.151 75.9717C417.151 77.1448 416.845 78.2975 416.263 79.3158C415.69 80.2971 414.859 81.1027 413.861 81.6453C412.808 82.2162 411.625 82.5057 410.427 82.4858C409.219 82.4966 408.029 82.199 406.969 81.6213ZM413.177 80.5766C413.978 80.1311 414.642 79.4751 415.098 78.6794C415.555 77.8459 415.795 76.9105 415.795 75.9597C415.795 75.009 415.555 74.0736 415.098 73.24C414.645 72.4425 413.98 71.7859 413.177 71.3428C412.327 70.8939 411.381 70.6592 410.421 70.6592C409.46 70.6592 408.514 70.8939 407.665 71.3428C406.857 71.7889 406.188 72.4496 405.732 73.252C405.267 74.0831 405.023 75.0195 405.023 75.9717C405.023 76.924 405.267 77.8604 405.732 78.6915C406.192 79.4879 406.86 80.1439 407.665 80.5886C408.514 81.0376 409.46 81.2723 410.421 81.2723C411.381 81.2723 412.327 81.0376 413.177 80.5886V80.5766Z" fill="#5B585A"/>
<path d="M421.357 82.0189C420.594 81.7872 419.898 81.3754 419.328 80.8182L419.856 79.7855C420.389 80.2823 421.018 80.6626 421.706 80.9022C422.473 81.1913 423.287 81.3378 424.107 81.3345C425.012 81.3984 425.914 81.1803 426.689 80.7101C426.954 80.5262 427.171 80.2801 427.319 79.9934C427.468 79.7067 427.544 79.388 427.541 79.0651C427.549 78.8436 427.512 78.6227 427.432 78.4162C427.351 78.2096 427.229 78.0218 427.073 77.8643C426.733 77.539 426.322 77.2966 425.872 77.1559C425.255 76.9403 424.625 76.7599 423.987 76.6155C423.204 76.4288 422.434 76.1921 421.682 75.9071C421.11 75.6936 420.602 75.3382 420.205 74.8744C419.772 74.3446 419.554 73.6721 419.592 72.9893C419.584 72.3625 419.764 71.7477 420.109 71.2242C420.494 70.6525 421.042 70.2093 421.682 69.9514C422.515 69.611 423.411 69.4475 424.311 69.471C425.042 69.4748 425.769 69.5758 426.473 69.7712C427.12 69.9481 427.733 70.2323 428.286 70.6118L427.829 71.6924C427.302 71.3381 426.723 71.0668 426.112 70.8879C425.527 70.7197 424.921 70.6308 424.311 70.6238C423.417 70.5589 422.526 70.791 421.778 71.2842C421.511 71.4727 421.294 71.723 421.146 72.0137C420.997 72.3044 420.922 72.6268 420.925 72.9532C420.92 73.1744 420.958 73.3945 421.039 73.6006C421.119 73.8068 421.24 73.9949 421.393 74.154C421.734 74.4813 422.145 74.7276 422.594 74.8744C423.062 75.0305 423.687 75.2107 424.491 75.4148C425.262 75.5923 426.02 75.8209 426.761 76.0992C427.331 76.3093 427.839 76.6605 428.238 77.1199C428.668 77.6418 428.886 78.3059 428.85 78.981C428.854 79.6089 428.67 80.2237 428.322 80.7461C427.917 81.2928 427.362 81.71 426.725 81.9469C425.881 82.2814 424.978 82.4408 424.071 82.4152C423.151 82.4348 422.234 82.3009 421.357 82.0189Z" fill="#5B585A"/>
<path d="M447.74 78.142H438.938L437.077 82.3686H435.336L442.54 66.5547H444.186L451.39 82.3686H449.625L447.74 78.142ZM447.139 76.7851L443.345 68.2958L439.551 76.7851H447.139Z" fill="#5B585A"/>
<path d="M454.281 69.543H455.638V82.367H454.281V69.543Z" fill="#5B585A"/>
<path d="M468.933 82.3671L466.003 78.2485C465.659 78.267 465.315 78.267 464.971 78.2485H461.537V82.319H460.18V69.543H464.983C466.37 69.4709 467.737 69.8967 468.837 70.7437C469.3 71.1409 469.665 71.6382 469.907 72.1979C470.148 72.7576 470.259 73.3649 470.23 73.9738C470.27 74.8787 470 75.7702 469.465 76.5014C468.93 77.2326 468.163 77.7598 467.288 77.9963L470.422 82.3911L468.933 82.3671ZM467.853 76.3032C468.181 75.9955 468.443 75.6236 468.622 75.2105C468.801 74.7974 468.894 74.352 468.894 73.9017C468.894 73.4515 468.801 73.0061 468.622 72.593C468.443 72.1799 468.181 71.808 467.853 71.5002C467.009 70.8851 465.976 70.5874 464.935 70.6597H461.537V77.0837H464.935C465.969 77.1733 467.001 76.8971 467.853 76.3032Z" fill="#5B585A"/>
<path d="M482.847 81.1903V82.391H473.781V69.543H482.571V70.7437H475.138V75.3066H481.766V76.5073H475.138V81.3104L482.847 81.1903Z" fill="#5B585A"/>
<path d="M487.201 82.0179C486.438 81.7861 485.742 81.3743 485.172 80.8171L485.712 79.7845C486.224 80.2953 486.838 80.6923 487.513 80.9492C488.281 81.2388 489.095 81.3853 489.915 81.3815C490.819 81.4454 491.721 81.2272 492.497 80.7571C492.765 80.5752 492.984 80.3299 493.135 80.043C493.286 79.756 493.364 79.4362 493.361 79.112C493.369 78.8905 493.332 78.6696 493.251 78.4631C493.171 78.2566 493.049 78.0688 492.893 77.9113C492.551 77.5873 492.141 77.3451 491.692 77.2028C491.075 76.9856 490.445 76.8051 489.807 76.6625C489.024 76.4757 488.254 76.2391 487.501 75.954C486.932 75.7364 486.424 75.3818 486.025 74.9214C485.592 74.3916 485.374 73.719 485.412 73.0362C485.41 72.4102 485.589 71.797 485.928 71.2711C486.314 70.6995 486.862 70.2562 487.501 69.9983C488.339 69.657 489.239 69.4934 490.143 69.518C490.87 69.521 491.593 69.6219 492.292 69.8182C492.942 69.9978 493.559 70.2817 494.118 70.6587L493.661 71.7394C493.129 71.3849 492.546 71.1136 491.932 70.9349C491.35 70.7667 490.749 70.6778 490.143 70.6707C489.249 70.604 488.358 70.8363 487.61 71.3311C487.341 71.5174 487.122 71.7673 486.973 72.0585C486.825 72.3497 486.75 72.6732 486.757 73.0002C486.752 73.2214 486.79 73.4415 486.871 73.6476C486.951 73.8537 487.072 74.0418 487.225 74.2009C487.563 74.5324 487.975 74.7793 488.426 74.9214C488.894 75.0775 489.531 75.2576 490.323 75.4617C491.098 75.6395 491.86 75.8681 492.605 76.1462C493.173 76.3608 493.68 76.7112 494.082 77.1668C494.503 77.6927 494.717 78.355 494.682 79.028C494.69 79.6547 494.51 80.2696 494.166 80.7931C493.754 81.3377 493.196 81.7542 492.557 81.9939C491.713 82.3284 490.81 82.4877 489.903 82.4621C488.984 82.4627 488.071 82.3126 487.201 82.0179Z" fill="#5B585A"/>
<path d="M201.594 23.1469C199.767 22.1578 198.25 20.6824 197.211 18.8842C196.147 17.0248 195.6 14.9146 195.626 12.7724C195.6 10.6302 196.147 8.51998 197.211 6.66057C198.256 4.85834 199.782 3.38241 201.618 2.39789C203.548 1.35147 205.714 0.81812 207.91 0.848918C209.552 0.836396 211.181 1.13378 212.713 1.72547C214.144 2.27437 215.43 3.14539 216.471 4.27107L214.934 5.84406C214.03 4.92847 212.948 4.20866 211.754 3.72941C210.56 3.25016 209.28 3.02172 207.994 3.05831C206.223 3.03959 204.478 3.47799 202.927 4.33111C201.431 5.14219 200.186 6.34622 199.324 7.8133C198.484 9.32787 198.069 11.0413 198.123 12.7724C198.069 14.5035 198.484 16.2169 199.324 17.7315C200.186 19.1986 201.431 20.4026 202.927 21.2137C204.474 22.0648 206.215 22.5032 207.982 22.4865C209.27 22.5374 210.555 22.3167 211.753 21.8389C212.951 21.361 214.034 20.6366 214.934 19.7128L216.507 21.2858C215.459 22.4139 214.17 23.2921 212.737 23.8554C211.206 24.4514 209.576 24.7529 207.934 24.7439C205.718 24.7705 203.533 24.2201 201.594 23.1469Z" fill="#5B585A"/>
<path d="M223.643 23.5049C222.245 22.7441 221.082 21.6144 220.281 20.2388C219.462 18.8293 219.046 17.2217 219.08 15.5919C219.05 13.9625 219.465 12.3557 220.281 10.945C221.084 9.57708 222.247 8.4557 223.643 7.70294C225.125 6.92562 226.773 6.51953 228.446 6.51953C230.119 6.51953 231.767 6.92562 233.249 7.70294C234.649 8.45543 235.813 9.58195 236.611 10.957C237.425 12.3728 237.84 13.9829 237.812 15.6159C237.842 17.2529 237.427 18.8673 236.611 20.2869C235.806 21.6565 234.644 22.7814 233.249 23.5409C231.767 24.3182 230.119 24.7243 228.446 24.7243C226.773 24.7243 225.125 24.3182 223.643 23.5409V23.5049ZM232.3 22.04C233.423 21.423 234.351 20.5037 234.978 19.3863C235.634 18.2305 235.97 16.9207 235.951 15.5919C235.967 14.2634 235.631 12.9543 234.978 11.7975C234.347 10.6828 233.421 9.76441 232.3 9.14385C231.118 8.51315 229.798 8.18325 228.458 8.18325C227.118 8.18325 225.798 8.51315 224.615 9.14385C223.488 9.76339 222.553 10.6815 221.914 11.7975C221.251 12.9512 220.911 14.2617 220.929 15.5919C220.908 16.9224 221.249 18.2337 221.914 19.3863C222.55 20.505 223.486 21.424 224.615 22.04C225.798 22.6707 227.118 23.0006 228.458 23.0006C229.798 23.0006 231.118 22.6707 232.3 22.04Z" fill="#5B585A"/>
<path d="M242.555 6.66016H244.44V22.9063H254.454V24.5153H242.555V6.66016Z" fill="#5B585A"/>
<path d="M270.796 22.9063V24.5153H258.164V6.66016H270.412V8.29319H260.037V14.6571H269.283V16.2662H260.037V22.9063H270.796Z" fill="#5B585A"/>
<path d="M288.244 15.5942H290.057V22.4145C289.187 23.1651 288.18 23.74 287.091 24.1076C285.931 24.4991 284.714 24.6978 283.489 24.6959C281.812 24.7087 280.159 24.2955 278.686 23.4952C277.287 22.7359 276.121 21.6113 275.312 20.2411C274.496 18.8216 274.081 17.2072 274.111 15.5702C274.083 13.9372 274.498 12.3271 275.312 10.9113C276.115 9.55674 277.273 8.44796 278.662 7.70528C280.136 6.90741 281.788 6.49443 283.465 6.50453C284.747 6.49065 286.02 6.71037 287.223 7.15294C288.323 7.56012 289.311 8.22269 290.105 9.08615L288.904 10.2869C288.196 9.58773 287.353 9.04066 286.426 8.6793C285.499 8.31795 284.507 8.14994 283.513 8.18559C282.148 8.16845 280.801 8.49903 279.598 9.1462C278.455 9.76016 277.503 10.6785 276.849 11.7998C276.183 12.9525 275.838 14.263 275.852 15.5942C275.835 16.922 276.18 18.2295 276.849 19.3766C277.502 20.4943 278.449 21.412 279.586 22.0303C280.924 22.7324 282.425 23.0647 283.935 22.993C285.444 22.9212 286.907 22.4479 288.172 21.622L288.244 15.5942Z" fill="#5B585A"/>
<path d="M295.898 6.66016H297.784V24.5153H295.898V6.66016Z" fill="#5B585A"/>
<path d="M307.126 23.5049C305.735 22.7425 304.58 21.6127 303.788 20.2388C302.975 18.827 302.56 17.221 302.587 15.5919C302.563 13.9632 302.977 12.3579 303.788 10.945C304.582 9.57877 305.737 8.45723 307.126 7.70294C308.608 6.92562 310.256 6.51953 311.929 6.51953C313.602 6.51953 315.25 6.92562 316.732 7.70294C318.126 8.45925 319.286 9.58513 320.082 10.957C320.901 12.3707 321.317 13.9823 321.283 15.6159C321.318 17.2535 320.903 18.8694 320.082 20.2869C319.278 21.6531 318.121 22.7772 316.732 23.5409C315.25 24.3182 313.602 24.7243 311.929 24.7243C310.256 24.7243 308.608 24.3182 307.126 23.5409V23.5049ZM315.771 22.04C316.894 21.423 317.822 20.5037 318.449 19.3863C319.105 18.2305 319.441 16.9207 319.422 15.5919C319.438 14.2634 319.102 12.9543 318.449 11.7975C317.825 10.686 316.907 9.76793 315.795 9.14385C314.615 8.51318 313.297 8.18324 311.959 8.18324C310.621 8.18324 309.303 8.51318 308.123 9.14385C306.992 9.76263 306.053 10.6807 305.409 11.7975C304.747 12.9512 304.406 14.2617 304.424 15.5919C304.403 16.9224 304.744 18.2337 305.409 19.3863C306.049 20.5058 306.989 21.4247 308.123 22.04C309.303 22.6706 310.621 23.0006 311.959 23.0006C313.297 23.0006 314.615 22.6706 315.795 22.04H315.771Z" fill="#5B585A"/>
<path d="M333.273 6.65893H340.549C342.285 6.61989 344.005 7.00745 345.556 7.78764C346.962 8.49833 348.133 9.59886 348.93 10.9576C349.745 12.3643 350.161 13.967 350.131 15.5925C350.164 17.2184 349.748 18.8219 348.93 20.2275C348.133 21.5862 346.962 22.6868 345.556 23.3974C344.006 24.1818 342.286 24.5735 340.549 24.5382H333.273V6.65893ZM340.477 22.9051C341.902 22.9383 343.314 22.6164 344.584 21.9685C345.722 21.3844 346.672 20.4892 347.321 19.3869C347.985 18.2341 348.321 16.9222 348.294 15.5925C348.319 14.263 347.983 12.9516 347.321 11.7981C346.678 10.7037 345.742 9.80982 344.62 9.21654C343.347 8.57845 341.937 8.26105 340.513 8.29196H335.23V22.9051H340.477Z" fill="#5B585A"/>
<path d="M367.527 22.9063V24.5153H354.883V6.66016H367.143V8.29319H356.768V14.6571H366.014V16.2662H356.768V22.9063H367.527Z" fill="#5B585A"/>
</g>
<defs>
<clipPath id="clip0_6875_13483">
<rect width="495" height="82" fill="white" transform="translate(0 0.5)"/>
</clipPath>
</defs>
</svg>
