<svg width="316" height="83" viewBox="0 0 316 83" fill="none" xmlns="http://www.w3.org/2000/svg">
<g clip-path="url(#clip0_6875_13597)">
<mask id="mask0_6875_13597" style="mask-type:luminance" maskUnits="userSpaceOnUse" x="0" y="0" width="316" height="83">
<path d="M316 0.5H0V82.5H316V0.5Z" fill="white"/>
</mask>
<g mask="url(#mask0_6875_13597)">
<path d="M46.5909 5.36174C46.4708 5.15313 46.3033 4.97464 46.1016 4.84017C45.8998 4.70571 45.6692 4.6189 45.4278 4.58651C45.0238 4.53752 44.6137 4.58209 44.2303 4.71668C43.8468 4.85128 43.5006 5.07216 43.2193 5.36174C42.8782 5.72632 42.6935 6.20659 42.704 6.70208C41.9441 7.09143 41.2068 7.52197 40.4955 7.99171C40.4955 7.15852 40.4955 6.32534 40.4955 5.49215C40.4955 5.2748 40.7016 5.18786 40.8194 5.05745C41.1281 4.78915 41.3663 4.45138 41.5137 4.07292C41.6611 3.69446 41.7134 3.28654 41.666 2.88392C41.6218 2.19702 41.3043 1.55494 40.7823 1.0969C40.2604 0.63885 39.576 0.40176 38.8775 0.437034C38.1791 0.472308 37.5229 0.777102 37.0513 1.28533C36.5797 1.79355 36.3307 2.46425 36.3582 3.15199C36.3563 3.57719 36.4583 3.99662 36.6556 4.3749C36.8529 4.75319 37.1397 5.07922 37.4919 5.32551C37.4919 6.91219 37.6097 8.49887 37.6318 10.0855C35.9378 11.3586 34.6357 13.069 33.87 15.0267C33.3396 16.6886 33.4072 18.4796 34.0614 20.0982C34.988 22.2428 36.3538 24.1764 38.0735 25.7784C38.1471 26.6478 38.1324 27.5244 38.1692 28.4011C38.3164 33.6224 38.4563 38.8461 38.5888 44.0723C36.15 46.0379 34.1458 48.4739 32.6995 51.2304C31.7717 53.1258 31.4044 55.2397 31.6394 57.3308C31.4335 59.9503 31.9498 62.576 33.1338 64.9309C34.5422 67.4155 36.7223 69.3909 39.3544 70.5676C39.4477 73.8279 39.5311 77.0906 39.6047 80.3557C39.8205 80.3667 40.0367 80.3667 40.2525 80.3557C40.2525 77.2331 40.2525 74.1104 40.3041 70.995C40.8913 70.9616 41.4618 70.7902 41.9678 70.4951C42.104 70.3993 42.2063 70.264 42.2604 70.1081C42.3145 69.9522 42.3178 69.7835 42.2696 69.6257C42.1347 69.2233 41.908 68.8565 41.6071 68.5534C41.1801 68.2564 40.709 68.0318 40.3041 67.6913C40.3409 60.7577 40.3409 53.8241 40.3703 46.8906C43.2137 44.0088 45.0232 40.2921 45.5235 36.3055C45.3689 32.683 44.2647 28.959 41.7764 26.2058C41.3633 25.7715 40.9258 25.3603 40.466 24.9742L40.4955 10.6434C41.7175 9.8537 43.131 9.34654 44.2205 8.34672C44.661 8.42324 45.1149 8.34367 45.5014 8.12212C46.04 7.75209 46.4264 7.20476 46.5909 6.57892C46.7538 6.18901 46.7538 5.75165 46.5909 5.36174ZM35.4454 16.8959C35.4771 16.0582 35.6906 15.2369 36.0715 14.4871C36.4524 13.7373 36.992 13.0764 37.6539 12.5488C37.7496 15.8381 37.8526 19.1346 37.941 22.4239C36.6453 20.8372 35.4822 18.9752 35.4454 16.8959ZM35.1141 63.0544C34.2401 61.9136 33.6456 60.5896 33.3767 59.1855C33.1283 57.6405 33.3299 56.0579 33.9583 54.6211C34.79 52.7666 35.9659 51.0811 37.4257 49.651C37.8246 49.2246 38.2499 48.8229 38.6992 48.4483C38.8833 54.6284 39.0747 60.8229 39.244 66.9957C37.6713 65.8967 36.2786 64.5676 35.1141 63.0544ZM42.9396 32.9438C43.3403 34.5393 43.3099 36.2104 42.8512 37.7908C42.3433 39.4451 41.5077 40.9841 40.3924 42.3189C40.3924 37.5806 40.4071 32.8423 40.4366 28.1041C41.6023 29.5294 42.4547 31.1774 42.9396 32.9438Z" fill="#5B585A"/>
<path d="M0.000519241 42.4057C0.000519241 29.9007 0.000519241 17.3957 0.000519241 4.89062H32.149C32.1636 5.10532 32.1636 5.32074 32.149 5.53544C28.38 6.15323 24.7347 7.35642 21.3494 9.10003C18.3876 10.6416 15.6389 12.5505 13.1706 14.7802C10.5802 17.076 8.28137 19.6717 6.3242 22.5107C4.26366 25.5334 2.68012 28.8457 1.62745 32.3351C0.798475 35.0835 0.284864 37.9146 0.096221 40.7756C0.0274256 41.326 -0.00454388 41.8802 0.000519241 42.4347" fill="#5B585A"/>
<path d="M46.9219 4.89062H78.8642C78.8642 15.3622 78.8642 25.8314 78.8642 36.2981C78.8642 38.3195 78.8642 40.3409 78.8642 42.3695C78.7775 38.422 78.0697 34.5115 76.7661 30.7774C75.4627 27.1301 73.5846 23.7072 71.2007 20.6342C69.2664 18.15 67.0701 15.8745 64.6488 13.8456C61.6692 11.3137 58.3061 9.25548 54.6811 7.74519C52.1941 6.74166 49.6016 6.01269 46.9513 5.57166C46.9513 5.35431 46.9513 5.1442 46.9513 4.92685" fill="#5B585A"/>
<path d="M0 51.7001C0 49.5266 0 47.2806 0 45.0781C0.111917 49.3458 0.947946 53.565 2.47352 57.5614C3.83948 61.054 5.73582 64.3225 8.09785 67.2553C12.0765 72.3111 17.2086 76.3741 23.0789 79.1156C27.7422 81.2083 32.7888 82.3471 37.9126 82.4628C36.6317 82.5135 35.3434 82.4628 34.0551 82.499H0V51.7001Z" fill="#5B585A"/>
<path d="M75.7862 59.0925C77.681 54.7126 78.72 50.0204 78.8486 45.2617C78.8854 51.2678 78.8486 57.274 78.8486 63.273V82.4942C67.9828 82.4942 57.1194 82.4942 46.2585 82.4942C44.5211 82.4942 42.7764 82.4942 41.0391 82.4942C46.5742 82.37 52.0135 81.0466 56.9697 78.6181C61.0282 76.5892 64.7053 73.8941 67.8429 70.6485C71.1776 67.3084 73.8645 63.3971 75.7714 59.107" fill="#5B585A"/>
<path d="M261.465 57.4186C260.206 54.7306 259.146 51.9485 257.924 49.2461L257.593 49.3258C256.672 51.3906 255.796 53.47 254.884 55.5421C254.361 56.6578 254.044 58.0634 252.727 58.5198C253.787 58.614 254.854 58.614 255.914 58.5198C255.509 58.288 254.854 58.288 254.7 57.7953C254.883 56.9837 255.185 56.2027 255.598 55.4769H259.197C259.565 56.2081 259.837 56.9822 260.007 57.7808C259.948 58.2952 259.271 58.2083 258.932 58.4184C260.254 58.6284 261.601 58.6284 262.922 58.4184C262.334 58.2662 261.686 58.0489 261.465 57.4186ZM255.789 55.0204H255.745C256.234 53.7838 256.792 52.5745 257.416 51.3979C257.953 52.5788 258.447 53.7815 258.962 55.0204H255.789Z" fill="#5B585A"/>
<path d="M287.055 49.4245C287.901 49.3666 288.748 49.4245 289.594 49.4245C291.494 51.6705 293.275 54.0179 295.278 56.1987C295.278 54.2353 295.366 52.2646 295.234 50.3012C295.234 49.7216 294.497 49.6926 294.092 49.6419V49.3231C295.13 49.3231 296.176 49.3231 297.229 49.3666C296.787 49.6926 295.896 49.6346 295.955 50.3736C295.852 53.1702 295.955 55.9741 295.896 58.7779C294.71 57.5701 293.597 56.2952 292.561 54.9598L289.513 51.2938V56.5247C289.476 57.0335 289.536 57.5447 289.69 58.0317C290.11 58.2056 290.537 58.3287 290.964 58.4809C289.792 58.5606 288.616 58.5606 287.445 58.4809C287.813 58.3577 288.181 58.2201 288.542 58.0824C288.902 57.9448 288.844 57.3579 288.895 57.0101C288.895 54.8366 288.939 52.6631 288.895 50.4896C288.542 49.765 287.673 49.7216 287.092 49.3086" fill="#5B585A"/>
<path d="M277.112 72.7466C275.875 70.008 274.756 67.2259 273.564 64.4727C273.132 65.0264 272.805 65.6523 272.599 66.3202L272.54 66.3637C271.569 68.588 270.685 70.8847 269.596 73.0582C269.47 73.4784 268.859 73.4856 268.734 73.8551C269.618 74.2101 270.619 73.9783 271.554 73.9783C271.142 73.7754 270.737 73.5943 270.324 73.4277C270.508 72.5578 270.818 71.7184 271.245 70.9354H274.837C275.269 71.6985 275.553 72.5337 275.676 73.3987C275.362 73.5815 275.057 73.7798 274.763 73.9928H278.444V73.7754C278.15 73.7349 277.871 73.6184 277.637 73.4377C277.403 73.257 277.222 73.0186 277.112 72.7466ZM271.436 70.4427C271.944 69.2762 272.408 68.088 272.967 66.9506L273.107 66.8926C273.645 68.0518 274.123 69.2473 274.616 70.4427H271.436Z" fill="#5B585A"/>
<path d="M102.503 18.4539C104.17 16.2369 106.553 14.6431 109.262 13.9336C111.97 13.2241 114.843 13.441 117.41 14.5488C118.146 14.8459 119.118 15.5921 119.906 14.9545C120.553 14.5561 120.377 13.2157 121.378 13.5055C121.518 16.3239 121.761 19.1277 121.93 21.9461L121.297 21.7939C120.782 19.9624 119.831 18.2783 118.522 16.8817C115.231 13.7519 109.158 14.1286 106.441 17.7946C104.314 20.6564 103.931 24.3659 104.049 27.8146C104.196 30.4518 104.903 33.2412 106.839 35.1829C108.101 36.3566 109.664 37.1703 111.36 37.5366C113.056 37.9029 114.822 37.808 116.468 37.2622C118.823 36.4942 120.428 34.5091 121.834 32.6181C122.041 32.7413 122.247 32.8572 122.445 32.9876C121.12 35.277 119.258 37.4506 116.711 38.4794C113.929 39.5246 110.873 39.6291 108.024 38.7764C104.247 37.7331 101.398 34.3859 100.368 30.6981C99.7836 28.6286 99.6721 26.4575 100.041 24.3406C100.41 22.2237 101.251 20.2134 102.503 18.4539Z" fill="#5B585A"/>
<path d="M149.502 23.4305C149.117 21.5119 148.285 19.7073 147.072 18.1586C145.858 16.6098 144.296 15.359 142.509 14.5045C140.299 13.5284 137.841 13.2305 135.456 13.6496C133.775 13.9399 132.171 14.5677 130.747 15.4937C129.322 16.4198 128.106 17.6244 127.174 19.0327C125.556 21.5851 124.854 24.5977 125.179 27.5892C125.245 29.264 125.651 30.909 126.373 32.4271C127.095 33.9451 128.118 35.3056 129.383 36.4282C130.946 37.775 132.835 38.7041 134.868 39.1266C136.9 39.549 139.009 39.4506 140.992 38.8408C143.955 37.8825 146.455 35.8836 148.015 33.2259C149.659 30.2322 150.185 26.7663 149.502 23.4305ZM145.402 29.0817C145.159 31.6175 144.445 34.3199 142.457 36.1022C139.8 38.6597 134.948 38.7901 132.394 36.0152C130.112 33.5374 129.449 30.067 129.376 26.8284C129.317 23.7131 129.692 20.4093 131.525 17.7793C132.424 16.4266 133.801 15.4506 135.39 15.0407C136.536 14.7389 137.737 14.7042 138.899 14.9394C140.06 15.1746 141.15 15.6732 142.082 16.3955C143.584 17.8157 144.598 19.6622 144.982 21.6772C145.49 24.1118 145.631 26.6066 145.402 29.0817Z" fill="#5B585A"/>
<path d="M205.284 38.0525C204.386 37.9735 203.554 37.5586 202.958 36.8933C202.199 35.8142 201.581 34.6459 201.117 33.4156C198.305 26.7719 195.456 20.1426 192.659 13.4844H191.923L183.884 31.9739C183.096 33.7054 182.478 35.5312 181.315 37.0454C180.784 37.7699 179.842 37.9366 178.988 38.1105L178.922 38.835H185.776C186.139 38.8689 186.506 38.837 186.858 38.7408C187.145 37.8641 185.997 38.1612 185.503 37.9656C184.635 37.9004 183.707 37.1106 184.031 36.1615C184.532 34.2054 185.562 32.4231 186.298 30.5393H196.089C196.59 31.7493 197.127 32.9447 197.628 34.1619C197.967 35.0675 198.497 36.0529 198.261 37.0599C197.849 38.0163 196.649 38.038 195.766 38.1467C195.766 38.3206 195.846 38.6538 195.846 38.8132H205.733C205.696 38.4655 205.777 37.9801 205.284 38.0525ZM186.88 29.1555C188.352 25.8373 189.736 22.4828 191.297 19.2152C192.688 22.5335 194.146 25.83 195.508 29.1628L186.88 29.1555Z" fill="#5B585A"/>
<path d="M273.35 14.1157C276.543 13.1334 279.985 13.2873 283.074 14.5504C283.811 14.7098 284.759 15.4198 285.4 14.7315C285.564 14.3289 285.678 13.9079 285.738 13.4781H286.372C286.593 16.1009 286.808 18.7212 287.019 21.3391C286.808 21.3151 286.599 21.2764 286.394 21.2231C285.724 19.5858 285.011 17.8759 283.604 16.6877C281.558 14.8257 278.531 14.4345 275.874 14.9634C273.834 15.409 272.053 16.6237 270.912 18.3468C268.902 21.2449 268.402 24.9254 268.873 28.3451C269.187 30.8352 270.208 33.1879 271.817 35.1337C272.707 36.135 273.819 36.9221 275.065 37.4346C276.312 37.9471 277.661 38.1712 279.01 38.0897C280.597 37.973 282.141 37.5234 283.537 36.7711V29.0623C283.486 28.2147 283.538 27.1931 282.802 26.5773C282.066 25.9614 281.093 26.0194 280.217 25.9469V25.2732H289.986V25.9469C289.591 25.893 289.188 25.9247 288.807 26.0398C288.425 26.155 288.074 26.3508 287.778 26.6135C287.24 27.2438 287.262 28.2581 287.196 29.1058V37.1551C284.814 38.4435 282.168 39.188 279.454 39.3335C276.74 39.4789 274.026 39.0217 271.516 37.9955C269.497 37.0474 267.777 35.58 266.537 33.7485C265.297 31.9171 264.583 29.7897 264.471 27.5916C264.095 21.8824 267.805 15.9994 273.378 14.1302" fill="#5B585A"/>
<path d="M150.749 14.043H157.544C162.108 19.5348 166.665 25.0338 171.214 30.5401C171.728 31.2178 172.288 31.8593 172.893 32.4601C172.893 27.7218 172.893 22.9835 172.893 18.2452C172.967 17.3144 172.802 16.3802 172.414 15.5283C171.678 14.6226 170.382 14.7386 169.33 14.6879V14.043H178.038V14.6879C177.037 14.7241 175.867 14.6299 175.094 15.4124C174.453 16.1369 174.52 17.1294 174.468 18.0133V39.256C174.278 39.2762 174.086 39.2474 173.91 39.1725C173.735 39.0975 173.582 38.979 173.467 38.8285L161.269 24.0123C159.936 22.4908 158.751 20.8462 157.337 19.4044C157.279 24.3963 157.337 29.3954 157.337 34.3873C157.262 35.3756 157.421 36.3676 157.801 37.2853C158.537 38.1909 159.789 38.1257 160.834 38.1185C160.901 38.3541 160.923 38.5995 160.9 38.843H152.14C152.14 38.6909 152.096 38.3866 152.089 38.2417C153.053 38.104 154.165 38.2417 154.945 37.5824C155.725 36.923 155.615 35.8363 155.681 34.9451V17.3251C155.033 16.4639 154.198 15.7559 153.237 15.253C152.443 14.9205 151.59 14.7456 150.727 14.7386V14.0938" fill="#5B585A"/>
<path d="M206.725 14.0938H213.829C216.686 20.1941 219.594 26.2799 222.435 32.3876C222.568 32.6484 222.877 33.5541 223.171 32.931C226.116 26.652 229.026 20.3728 231.902 14.0938H239.036V14.7386C238.035 14.7748 236.871 14.6805 236.091 15.463C235.443 16.1875 235.517 17.1801 235.458 18.0568V34.7206C235.394 35.6467 235.569 36.5737 235.966 37.4157C236.702 38.2996 237.99 38.1403 239.043 38.2127C239.043 38.3866 238.969 38.727 238.947 38.9371C235.406 38.8937 231.865 38.9371 228.317 38.9371C228.313 38.6936 228.338 38.4506 228.391 38.2127C229.385 38.2127 230.562 38.2996 231.335 37.4881C231.961 36.7201 231.858 35.6479 231.924 34.7277C231.924 29.2504 231.969 23.7732 231.888 18.3032C228.516 25.1063 225.498 32.0689 222.17 38.9155L221.589 38.9009C218.327 32.0108 215.147 25.0846 211.901 18.1873C211.842 23.6356 211.901 29.0548 211.901 34.5394C211.836 35.4986 211.974 36.4607 212.305 37.3649C213.042 38.3503 214.367 38.2344 215.449 38.2561C215.454 38.4982 215.442 38.7403 215.412 38.9806H206.784C206.784 38.814 206.711 38.4662 206.696 38.2996C207.646 38.2996 208.72 38.3865 209.493 37.7344C210.266 37.0824 210.229 35.9739 210.266 35.0683V18.4045C210.266 17.4627 210.266 16.376 209.53 15.6515C208.794 14.927 207.653 14.927 206.674 14.8328C206.666 14.6145 206.681 14.3961 206.718 14.1807" fill="#5B585A"/>
<path d="M240.623 14.1445H259.977C260.11 15.9558 260.176 17.767 260.242 19.5711H259.557C259.256 18.4118 259.086 17.057 258.085 16.2528C257.29 15.7244 256.341 15.4696 255.383 15.5283C252.866 15.4848 250.348 15.5283 247.83 15.5283C247.749 18.7958 247.771 22.0489 247.83 25.3454C249.928 25.2947 252.034 25.3816 254.132 25.2947C254.552 25.3128 254.971 25.2485 255.365 25.1054C255.76 24.9624 256.121 24.7435 256.429 24.4615C256.975 23.6533 257.274 22.7078 257.29 21.7373H257.953V30.3807L257.371 30.3445C256.959 29.5113 257.143 28.4391 256.517 27.6783C255.891 26.9176 254.662 26.693 253.631 26.664H247.801C247.801 29.7866 247.757 32.902 247.801 36.0247C247.752 36.3357 247.819 36.6537 247.989 36.92C248.16 37.1863 248.422 37.383 248.728 37.4737C250.089 37.6029 251.456 37.6416 252.821 37.5896C254.397 37.5896 256.031 37.691 257.533 37.1694C259.27 36.4449 260.271 34.7206 261.17 33.1629C261.317 32.7282 261.744 32.6629 262.163 32.6919C261.427 34.7858 260.735 36.8796 259.955 38.9444H240.608V38.2924C241.646 38.2924 242.817 38.2924 243.619 37.5679C244.223 36.981 244.135 36.0609 244.208 35.3002V18.919C244.285 17.8342 244.139 16.7453 243.781 15.7167C243.045 14.7603 241.683 14.9125 240.594 14.8545V14.2097" fill="#5B585A"/>
<path d="M205.796 49.3242H213.393C213.468 50.0801 213.495 50.8399 213.474 51.5992C213.091 51.0848 213.032 50.2878 212.355 50.0487C211.666 49.9055 210.96 49.8519 210.257 49.8893C210.205 52.4251 210.198 54.9609 210.257 57.5039C210.257 58.2864 211.184 58.2284 211.729 58.4748C210.345 58.5689 208.956 58.5834 207.57 58.5182V58.3443C208.085 58.2502 208.888 58.2429 208.865 57.5329C208.969 54.9899 208.865 52.4613 208.91 49.9038C208.208 49.8613 207.503 49.9026 206.812 50.027C206.223 50.2443 206.039 50.8891 205.906 51.476H205.648C205.7 50.7515 205.737 50.027 205.803 49.3604" fill="#5B585A"/>
<path d="M291.303 14.0352H310.665C310.768 15.8393 310.863 17.6578 310.937 19.4473H310.201C309.899 18.2954 309.752 16.9478 308.729 16.1436C307.862 15.5724 306.821 15.3163 305.784 15.419H298.378C298.312 18.6793 298.378 21.9396 298.378 25.1999H304.267C305.173 25.142 306.211 25.1202 306.903 24.4754C307.595 23.8306 307.742 22.6279 307.86 21.6426H308.537C308.537 24.4754 308.574 27.3083 308.537 30.1411L307.875 30.2715C307.806 29.3946 307.59 28.5351 307.234 27.7285C306.594 26.7866 305.364 26.5837 304.289 26.562H298.4C298.4 29.6991 298.327 32.8363 298.4 35.9806C298.339 36.3001 298.407 36.6305 298.59 36.9012C298.773 37.1719 299.056 37.3615 299.379 37.4297C301.072 37.6325 302.795 37.4876 304.532 37.5311C306.056 37.4804 307.749 37.5818 309.023 36.6182C310.281 35.5363 311.285 34.1991 311.968 32.6986L312.704 32.6551C312.019 34.7417 311.283 36.8211 310.547 38.8859H291.215C291.222 38.6556 291.208 38.4252 291.171 38.1976C292.209 38.1976 293.379 38.1976 294.197 37.4731C294.822 36.8066 294.697 35.8067 294.763 34.9663V18.3461C294.69 17.4042 294.763 16.3682 294.263 15.5277C293.468 14.709 292.209 14.8032 291.156 14.8032V14.1439" fill="#5B585A"/>
<path d="M146.335 46.3672H147.88C147.204 47.2336 146.466 48.0519 145.672 48.816C145.875 47.9879 146.12 47.1705 146.408 46.3672" fill="#5B585A"/>
<path d="M98.6034 50.3412C99.0677 49.9313 99.6099 49.6159 100.199 49.4132C100.788 49.2105 101.411 49.1245 102.034 49.1602C102.827 49.2898 103.603 49.5086 104.346 49.8123C104.535 49.5774 104.753 49.3658 104.993 49.182C105.074 50.2398 105.185 51.3048 105.177 52.3771C104.721 51.7467 104.544 50.928 103.948 50.4136C103.33 49.8805 102.522 49.6108 101.702 49.6638C100.882 49.7168 100.117 50.0882 99.5751 50.6962L99.5309 50.7469C98.8909 51.7159 98.5814 52.8605 98.6475 54.0144C98.5809 55.0403 98.8604 56.059 99.4426 56.9125C99.9352 57.5034 100.616 57.914 101.374 58.0783C102.132 58.2425 102.925 58.1509 103.624 57.8181C104.397 57.4559 104.802 56.6662 105.487 56.1952C104.581 58.9049 100.687 59.5425 98.6328 57.7094C97.6464 56.7217 97.0938 55.3922 97.0938 54.0072C97.0938 52.6222 97.6464 51.2927 98.6328 50.305M214.226 49.3269C215.581 49.4428 217.009 49.1168 218.319 49.4863C217.833 49.6457 217.075 49.4863 216.935 50.1601C216.78 51.5149 216.935 52.8915 216.861 54.2608C216.817 55.4472 216.847 56.6352 216.95 57.8181C217.215 58.3253 217.899 58.2094 218.363 58.4195C216.934 58.6368 215.479 58.6368 214.049 58.4195C214.458 58.3379 214.861 58.2314 215.257 58.1007C215.647 57.579 215.5 56.8835 215.544 56.2894C215.5 54.268 215.625 52.2394 215.485 50.218C215.396 49.6239 214.69 49.6312 214.233 49.5587V49.3341M272.538 49.4138C273.9 49.2617 275.276 49.4138 276.646 49.3341V49.566C276.264 49.5533 275.888 49.6654 275.578 49.8847C275.38 50.6534 275.313 51.4491 275.379 52.2394C275.424 54.0072 275.313 55.7823 275.431 57.5501C275.431 58.318 276.373 58.2094 276.866 58.434C275.495 58.5812 274.113 58.6127 272.737 58.5281V58.3398C273.079 58.3043 273.416 58.2364 273.745 58.1369C274.165 57.8254 274.025 57.2385 274.084 56.7893C274.084 54.6158 274.135 52.4423 274.04 50.2687C274.04 49.5442 273.09 49.6457 272.567 49.3848" fill="#5B585A"/>
<path d="M109.603 49.3698C110.33 49.129 111.108 49.0786 111.86 49.2234C112.613 49.3682 113.314 49.7033 113.895 50.1958C114.396 50.6433 114.803 51.1838 115.092 51.7861C115.381 52.3885 115.547 53.041 115.58 53.7064C115.613 54.3718 115.512 55.0371 115.284 55.6642C115.055 56.2913 114.703 56.8679 114.248 57.3612C114.145 57.4674 114.042 57.5689 113.939 57.6655C113.176 58.3332 112.205 58.7251 111.185 58.7765C110.165 58.8278 109.158 58.5356 108.33 57.948C106.342 56.5497 105.908 53.6589 106.968 51.5796C107.536 50.557 108.474 49.7814 109.596 49.4061M109.817 49.9132C108.042 50.8333 107.903 53.0938 108.042 54.8399C108.049 55.4746 108.211 56.0984 108.515 56.6584C108.819 57.2184 109.255 57.698 109.787 58.0567C110.316 58.3011 110.909 58.3766 111.483 58.2727C112.057 58.1687 112.584 57.8905 112.989 57.4771C113.717 56.5836 114.074 55.4528 113.991 54.311C114.114 52.9939 113.777 51.6747 113.034 50.5725C112.64 50.1408 112.117 49.8431 111.54 49.7221C110.963 49.601 110.363 49.6629 109.824 49.8987M133.941 49.3843H141.582C141.582 50.1088 141.663 50.8841 141.634 51.6376C141.236 51.1739 141.244 50.4276 140.64 50.1451C139.915 49.9334 139.156 49.8548 138.402 49.9132V57.0134C138.454 57.3539 138.402 57.8031 138.674 58.0712C139.072 58.2016 139.462 58.3393 139.852 58.4914C138.49 58.5784 137.121 58.4914 135.759 58.5349V58.332C136.274 58.2668 137.084 58.1944 137.047 57.4916C137.114 54.9558 137.099 52.42 137.047 49.8697C136.334 49.8369 135.618 49.8953 134.92 50.0436C134.302 50.3262 134.265 51.0942 133.904 51.6086C133.876 50.845 133.895 50.0803 133.963 49.3191M167.996 49.3626C168.753 49.0891 169.572 49.0249 170.364 49.1769C171.155 49.3288 171.889 49.6912 172.487 50.2248C172.978 50.6832 173.373 51.2325 173.648 51.8411C173.924 52.4498 174.075 53.1059 174.093 53.772C174.11 54.4382 173.995 55.1012 173.752 55.7233C173.509 56.3453 173.144 56.9142 172.678 57.3974C172.54 57.5376 172.395 57.6706 172.244 57.7959C171.344 58.4884 170.211 58.8183 169.074 58.7187C167.936 58.6192 166.88 58.0976 166.119 57.2597C163.91 54.8761 164.786 50.4204 167.996 49.3626ZM168.452 49.7828C166.98 50.3841 166.546 52.0868 166.509 53.4995C166.362 54.8765 166.729 56.2589 167.54 57.3902C167.775 57.6467 168.059 57.8552 168.376 58.0035C168.694 58.1519 169.037 58.2372 169.388 58.2547C169.739 58.2722 170.09 58.2215 170.42 58.1055C170.751 57.9895 171.056 57.8104 171.316 57.5785C171.346 57.5453 171.378 57.5139 171.412 57.4843C172.193 56.5849 172.582 55.4185 172.494 54.2385C172.494 52.9344 172.376 51.4999 171.5 50.4638C171.119 50.0639 170.625 49.7853 170.082 49.6639C169.539 49.5426 168.971 49.584 168.452 49.7828ZM184.309 49.3191H186.938C188.049 51.6376 189.102 53.9777 190.236 56.2744L190.471 56.1657C191.583 53.9053 192.591 51.6013 193.666 49.3191C194.579 49.3191 195.492 49.3191 196.397 49.3191C196.044 49.5944 195.543 49.5582 195.183 49.819C195.02 50.2542 194.955 50.7188 194.991 51.1811V56.7309C194.946 57.1787 195.036 57.6296 195.249 58.0277C195.654 58.1509 196.051 58.2958 196.456 58.4407C195.044 58.5349 193.628 58.5349 192.216 58.4407C192.591 58.3248 192.952 58.2089 193.32 58.0712C193.688 57.9335 193.622 57.3467 193.659 57.0279V50.9493C192.503 53.2605 191.45 55.6368 190.361 57.977C190.213 58.1799 190.191 58.7015 189.823 58.4842C188.594 55.9919 187.534 53.4126 186.246 50.9638C186.246 53.1808 186.172 55.3978 186.246 57.6148C186.246 58.3393 187.18 58.2451 187.718 58.4479C186.826 58.5782 185.924 58.6219 185.024 58.5784C184.689 58.6099 184.354 58.5281 184.074 58.3465C184.604 58.2668 185.605 58.3465 185.546 57.5713C185.671 55.7238 185.546 53.869 185.612 52.0143C185.688 51.3067 185.603 50.5914 185.362 49.9205C185.05 49.7125 184.686 49.5945 184.309 49.5799V49.3553M201.241 49.8335C201.374 49.5727 201.433 49.109 201.838 49.2974C203.015 51.9491 204.046 54.6588 205.283 57.267C205.511 57.9263 206.188 58.2233 206.755 58.5059C205.446 58.5711 204.134 58.5711 202.824 58.5059C203.155 58.2668 203.752 58.2161 203.869 57.7814C203.702 56.9681 203.412 56.1842 203.008 55.4557H199.504C198.901 56.1683 198.582 57.072 198.606 57.9987C198.981 58.1509 199.342 58.332 199.739 58.4697C198.666 58.5457 197.588 58.5457 196.515 58.4697C197.008 58.1509 197.634 57.9335 197.855 57.3394C199.018 54.8471 200.063 52.2679 201.175 49.7683M201.175 51.2173C200.66 52.4418 200.122 53.6662 199.578 54.8834H202.795C202.242 53.6662 201.793 52.3983 201.175 51.2173ZM232.447 49.3336C233.51 48.9956 234.662 49.0566 235.681 49.5047C236.701 49.9529 237.515 50.7565 237.969 51.7607C238.389 52.6877 238.526 53.7152 238.363 54.7176C238.199 55.7199 237.742 56.6536 237.048 57.4047C236.547 57.9233 235.926 58.3147 235.237 58.5456C234.549 58.7765 233.814 58.8399 233.095 58.7305C232.07 58.5651 231.133 58.0622 230.436 57.3041C229.739 56.546 229.324 55.5776 229.26 54.5573C229.096 53.4648 229.323 52.3503 229.902 51.4042C230.481 50.4581 231.375 49.739 232.433 49.3698M232.69 49.8553C232.197 50.125 231.779 50.5098 231.472 50.976C231.165 51.4422 230.979 51.9753 230.931 52.5287C230.681 53.8693 230.805 55.2517 231.292 56.528C231.452 56.9712 231.728 57.3648 232.093 57.6689C232.457 57.973 232.897 58.1768 233.368 58.2596C233.817 58.334 234.278 58.299 234.711 58.1575C235.143 58.0161 235.534 57.7725 235.849 57.4481C236.71 56.5425 236.842 55.2166 236.842 54.0357C236.923 52.8085 236.592 51.5891 235.9 50.5653C235.516 50.1318 235.002 49.8285 234.433 49.6984C233.863 49.5684 233.266 49.6182 232.727 49.8408M242.408 49.3264H244.867C246.803 51.5651 248.547 53.927 250.579 56.115C250.631 54.5718 250.579 53.0214 250.579 51.4854C250.61 50.9405 250.548 50.3943 250.395 49.8697C250.073 49.6451 249.685 49.5306 249.291 49.5437V49.3264H252.508V49.522C251.993 49.5799 251.22 49.6162 251.22 50.3117C251.102 53.13 251.22 55.9556 251.146 58.774C248.849 56.47 247.038 53.7024 244.771 51.4057V56.7816C244.815 57.2163 244.697 57.7669 245.073 58.1074C245.47 58.2451 245.89 58.303 246.295 58.4335C245.099 58.565 243.894 58.5844 242.695 58.4914C243.188 58.2306 244.108 58.2668 244.101 57.5423C244.241 55.3688 244.101 53.1518 244.16 50.9638C244.197 50.0581 243.166 49.6307 242.4 49.5147V49.2901M265.59 49.848C266.26 49.4134 267.034 49.1569 267.835 49.1036C268.636 49.0503 269.437 49.2019 270.161 49.5437C270.677 49.8915 271.074 49.4206 271.435 49.1235C271.486 50.1813 271.619 51.2318 271.619 52.2896C271.14 51.6738 270.978 50.8406 270.367 50.3407C270.067 50.0761 269.716 49.8723 269.336 49.7411C268.955 49.6099 268.552 49.5538 268.149 49.576C267.746 49.5982 267.352 49.6983 266.989 49.8705C266.625 50.0427 266.3 50.2838 266.031 50.5798C265.923 50.6997 265.824 50.8281 265.737 50.9638C265.276 51.822 265.024 52.7737 264.999 53.7442C264.975 54.7146 265.18 55.6774 265.597 56.557C266.067 57.2876 266.804 57.8129 267.656 58.0246C268.508 58.2362 269.41 58.1181 270.176 57.6945C270.853 57.3105 271.214 56.586 271.854 56.173C270.942 58.8826 267.033 59.513 264.993 57.6727C262.667 55.6586 263.006 51.5216 265.582 49.848M280.622 49.3481C281.381 49.0718 282.203 49.006 282.998 49.1581C283.792 49.3101 284.529 49.6741 285.128 50.2103C285.618 50.6697 286.011 51.2197 286.286 51.8289C286.56 52.4381 286.71 53.0945 286.726 53.7606C286.742 54.4267 286.625 55.0894 286.381 55.711C286.137 56.3325 285.771 56.9006 285.304 57.3829C285.216 57.4771 285.113 57.5713 285.017 57.6582C284.276 58.2966 283.342 58.6777 282.359 58.7432C281.376 58.8086 280.399 58.5547 279.577 58.0205C277.589 56.6946 277.089 53.8763 278.038 51.7969C278.562 50.7018 279.5 49.8516 280.652 49.4278M281.101 49.848C279.57 50.5001 279.165 52.3331 279.157 53.8183C279.157 55.1732 279.385 56.7164 280.423 57.68C280.943 58.1154 281.611 58.3422 282.293 58.3154C282.975 58.2885 283.621 58.0099 284.104 57.5351C284.98 56.7019 285.142 55.4267 285.164 54.2893C285.164 52.9779 285.061 51.5361 284.156 50.5001C283.774 50.1063 283.281 49.8338 282.741 49.7176C282.2 49.6015 281.637 49.6469 281.123 49.848M186.378 65.7075C186.927 65.2768 187.567 64.9731 188.252 64.8188C188.936 64.6646 189.647 64.6637 190.331 64.8164C190.864 65.0194 191.413 65.1794 191.973 65.2946C192.125 65.0274 192.316 64.7834 192.54 64.57C192.665 65.6813 192.709 66.7999 192.672 67.9173C192.428 67.2751 192.102 66.6664 191.701 66.106C191.152 65.5143 190.387 65.1613 189.574 65.1246C188.761 65.0879 187.966 65.3706 187.365 65.9104C187.234 66.0234 187.115 66.1497 187.011 66.2871C186.327 67.3687 186.025 68.6418 186.15 69.9097C186.126 70.9624 186.513 71.984 187.232 72.7643C187.7 73.1773 188.27 73.4618 188.885 73.589C189.501 73.7162 190.139 73.6816 190.736 73.4888C191.715 73.199 192.208 72.2643 192.996 71.6775C192.128 74.3147 188.425 75.032 186.327 73.3801C183.912 71.5326 184.022 67.5116 186.327 65.6423M213.013 65.2583C213.167 65.0555 213.16 64.4831 213.543 64.6787C214.765 67.3884 215.825 70.1633 217.076 72.8657C217.29 73.4598 217.93 73.6482 218.372 74.0321C217.165 74.0756 215.957 74.0321 214.75 74.0321V73.822C215.055 73.7491 215.348 73.6319 215.619 73.4743C215.722 72.5686 215.103 71.7789 214.824 70.9602H211.194C210.837 71.6527 210.558 72.3815 210.362 73.1338C210.267 73.7061 210.981 73.6699 211.349 73.8148V74.0466H208.485C208.839 73.6409 209.442 73.4815 209.634 72.9381C210.834 70.4168 211.886 67.8666 213.005 65.2728M213.005 66.8233C212.468 68.0405 211.908 69.2431 211.43 70.4458H214.617C214.073 69.2286 213.638 67.9752 213.005 66.8233ZM221.839 70.1488C221.523 67.5913 223.51 64.8236 226.212 64.6715C227.291 64.615 228.368 64.8008 229.363 65.2149C229.65 65.0917 229.746 64.7657 229.952 64.5483C230.105 65.5919 230.174 66.6457 230.158 67.6999C229.857 67.0588 229.479 66.4556 229.032 65.9031C228.377 65.3432 227.524 65.0615 226.658 65.1199C225.793 65.1783 224.987 65.572 224.416 66.2147C224.312 66.3298 224.219 66.4534 224.136 66.5842C223.575 67.5408 223.32 68.642 223.406 69.7434C223.491 70.8448 223.912 71.8952 224.615 72.757C225.164 73.322 225.895 73.6826 226.684 73.7777C227.473 73.8727 228.271 73.6964 228.943 73.2787C228.877 72.1484 228.987 71.0182 228.87 69.8879C228.767 69.3373 228.133 69.3663 227.692 69.2069C228.156 68.8736 228.781 69.0837 229.319 69.033C230.021 68.9665 230.73 69.013 231.417 69.1707C231.027 69.3518 230.357 69.3373 230.327 69.8952C230.18 71.0906 230.327 72.3006 230.232 73.5177C229.387 73.938 228.465 74.1878 227.521 74.2525C226.576 74.3172 225.628 74.1955 224.732 73.8945C223.949 73.5915 223.265 73.0827 222.754 72.4235C222.244 71.7643 221.928 70.98 221.839 70.156M148.038 64.8888C148.951 64.8888 150.004 64.6787 150.843 64.9903C151.992 67.3159 153.052 69.6778 154.171 72.0108C155.371 69.7068 156.379 67.3014 157.498 64.9758C158.423 64.7658 159.385 64.7658 160.31 64.9758C159.795 65.1641 158.897 65.0844 158.904 65.8524C158.809 68.2071 158.838 70.5835 158.904 72.9454C158.823 73.6699 159.567 73.8438 160.148 73.8438C160.141 73.9185 160.141 73.9937 160.148 74.0684H156.35V73.8438C156.814 73.8003 157.454 73.6699 157.454 73.1193C157.55 70.8805 157.454 68.6345 157.454 66.3958C156.18 68.9896 155.069 71.663 153.773 74.2205C152.478 71.634 151.329 68.9751 150.092 66.3741V72.4672C150.054 72.857 150.131 73.2494 150.313 73.5974C150.622 73.8438 151.049 73.7931 151.417 73.8728V74.0829H148.208V73.8583C148.583 73.7931 149.01 73.8583 149.297 73.5395C149.429 73.1152 149.479 72.6704 149.445 72.2281V66.6494C149.393 66.2219 149.445 65.6786 149.113 65.3743C148.738 65.2149 148.377 65.0772 148.002 64.9033M239.809 64.9758C240.64 64.831 241.488 64.8017 242.327 64.8888C242.651 64.954 242.783 65.2873 242.997 65.4902C244.712 67.584 246.449 69.6633 248.15 71.7499V66.6784C248.178 66.2525 248.115 65.8256 247.966 65.425C247.612 65.1352 247.097 65.1641 246.692 64.9975C247.867 64.8539 249.055 64.8368 250.233 64.9468C249.85 65.0555 249.474 65.1861 249.107 65.338C248.724 65.5554 248.812 66.0625 248.776 66.4176V74.3872C247.688 73.2954 246.672 72.1363 245.735 70.9168C244.609 69.5764 243.527 68.2361 242.386 66.9102C242.386 69.0041 242.319 71.1124 242.43 73.2062C242.43 73.8075 243.122 73.8872 243.586 73.9307V74.1626C242.54 74.1626 241.488 74.1626 240.442 74.1191C240.847 73.7786 241.701 73.8945 241.723 73.2207C241.841 71.0472 241.723 68.8736 241.775 66.7001C241.922 65.6206 240.626 65.2511 239.809 65.0482M259.067 65.0482C260.143 64.9082 261.23 64.8694 262.314 64.9323C263.447 64.9975 264.765 64.8526 265.7 65.6568C266.139 66.0128 266.422 66.5219 266.489 67.078C266.557 67.6342 266.403 68.1943 266.061 68.6418C265.581 69.1579 264.968 69.536 264.287 69.7358C265.094 70.9676 265.981 72.1463 266.944 73.2642C267.283 73.6916 267.923 73.6192 268.277 73.9887C267.629 74.3292 266.723 74.0901 265.973 74.1118C264.986 72.6628 263.896 71.2935 262.895 69.8662H261.894C261.841 71.0576 261.873 72.2511 261.99 73.438C262.189 73.9742 262.903 73.8728 263.359 74.0104C262.056 74.3799 260.635 74.0684 259.281 74.1698V73.9452C259.84 73.9452 260.598 73.7423 260.525 73.0468C260.584 70.6922 260.613 68.3303 260.525 65.9756C260.525 65.1931 259.612 65.2511 259.089 65.07M261.894 65.5771V69.4605C262.73 69.5256 263.564 69.3222 264.272 68.8809C264.473 68.7138 264.638 68.5094 264.758 68.2793C264.878 68.0492 264.951 67.798 264.972 67.5401C264.993 67.2823 264.963 67.0228 264.882 66.7767C264.801 66.5306 264.671 66.3027 264.5 66.106C264.432 66.0218 264.355 65.9441 264.272 65.8742C263.609 65.338 262.704 65.5119 261.916 65.5771" fill="#5B585A"/>
<path d="M116.315 49.3977C117.218 49.3542 118.124 49.3542 119.032 49.3977C120.166 51.7741 121.24 54.2012 122.44 56.5341C123.515 54.1287 124.649 51.7668 125.746 49.376H128.374V49.5933C128.006 49.6658 127.571 49.5933 127.284 49.8904C127.07 50.4112 126.991 50.9766 127.056 51.535C127.056 53.5491 126.997 55.5705 127.108 57.5919C127.108 58.3164 128.028 58.3164 128.528 58.5265C127.101 58.6438 125.666 58.6196 124.244 58.4541C124.781 58.2729 125.716 58.3092 125.716 57.5412C125.79 55.3676 125.716 53.1941 125.716 51.0206C124.435 53.4767 123.368 56.0487 122.146 58.541H121.888C120.666 56.0414 119.584 53.4694 118.303 50.9916V57.092C118.34 57.4542 118.303 57.9252 118.627 58.1715C118.951 58.4178 119.415 58.3526 119.805 58.483C118.619 58.6171 117.421 58.6171 116.234 58.483C116.654 58.2802 117.213 58.2802 117.537 57.9397C117.687 57.0566 117.734 56.1597 117.677 55.2662C117.633 53.6143 117.766 51.9407 117.611 50.2888C117.552 49.6295 116.713 49.7382 116.315 49.376M174.73 49.376C176.026 49.289 177.329 49.3325 178.625 49.3325C179.618 49.3325 180.759 49.3977 181.496 50.1729C181.914 50.5756 182.153 51.1254 182.16 51.7014C182.167 52.2774 181.941 52.8325 181.532 53.2448L181.496 53.2811C181.028 53.6577 180.483 53.9297 179.898 54.078C180.701 55.201 181.481 56.3385 182.372 57.3963C182.571 57.6367 182.816 57.8355 183.094 57.9811C183.373 58.1267 183.678 58.216 183.991 58.2439C184.012 58.3618 184.042 58.4781 184.08 58.5917C183.292 58.5193 182.504 58.5917 181.716 58.5193C180.539 57.1499 179.611 55.6212 178.448 54.1722L177.528 54.2084C177.484 55.39 177.513 56.5732 177.616 57.7513C177.793 58.2874 178.463 58.1787 178.904 58.3236V58.483C177.516 58.5604 176.123 58.5362 174.738 58.4106C175.201 58.186 175.945 58.3092 176.151 57.6861C176.313 56.3602 176.188 55.0126 176.225 53.6795C176.276 52.4275 176.239 51.1735 176.114 49.9266C175.82 49.4629 175.172 49.6078 174.767 49.3035M177.542 49.8686V53.7665C178.387 53.8252 179.229 53.6143 179.942 53.1651C180.338 52.8208 180.579 52.3361 180.612 51.8173C180.645 51.2984 180.468 50.7879 180.119 50.3975C180.011 50.2782 179.89 50.1712 179.758 50.0787C179.096 49.6368 178.286 49.8107 177.55 49.8686M218.775 49.2818C219.99 49.2311 221.197 49.2818 222.404 49.2455V49.4774L221.462 49.8614C221.727 51.0051 222.14 52.1106 222.692 53.1506C223.185 54.2302 223.634 55.3242 224.164 56.4182C224.812 55.6937 224.988 54.52 225.46 53.6143C225.864 52.4044 226.667 51.2669 226.733 49.9918C226.417 49.7165 225.997 49.5788 225.703 49.2673C226.684 49.2286 227.678 49.2286 228.684 49.2673C227.329 49.9918 227.013 51.4915 226.476 52.7594C225.629 54.7591 224.826 56.7804 223.95 58.7728C223.507 58.1302 223.151 57.4337 222.89 56.7007C221.933 54.5707 221.028 52.4116 220.041 50.2961C219.843 49.7382 219.195 49.6368 218.805 49.2673" fill="#5B585A"/>
<path d="M128.898 49.4207C130.268 49.2975 131.637 49.4207 133.006 49.3555V49.5873C132.631 49.6453 132.196 49.5873 131.902 49.8988C131.703 50.5012 131.63 51.1372 131.688 51.7681C131.733 53.7025 131.63 55.6514 131.74 57.5642C131.74 58.2887 132.69 58.1945 133.212 58.4843C131.779 58.5857 130.339 58.5857 128.906 58.4843C129.443 58.2597 130.378 58.2814 130.378 57.5134C130.43 55.1081 130.437 52.7099 130.378 50.3118C130.378 49.5873 129.428 49.696 128.906 49.3989" fill="#5B585A"/>
<path d="M142.311 49.3593H149.533C149.572 50.0838 149.572 50.8083 149.533 51.5328C149.15 50.9967 149.12 50.1345 148.377 49.9462C147.235 49.8593 146.09 49.8375 144.946 49.881V53.5035C145.875 53.5397 146.805 53.5107 147.729 53.4166C148.325 53.3006 148.34 52.5761 148.583 52.1559C148.786 53.2797 148.826 54.4263 148.701 55.5611C148.436 55.1264 148.406 54.5468 148.009 54.2208C147.044 53.8585 145.977 54.0686 144.968 54.0252C145.057 55.322 144.755 56.7421 145.145 57.9737C146.225 58.1403 147.326 58.1403 148.406 57.9737C149.349 57.7636 149.591 56.7058 150.298 56.1842C150.115 56.9998 149.825 57.7888 149.437 58.5316C147.965 58.6041 146.492 58.5316 145.064 58.5316C144.092 58.5764 143.119 58.5303 142.156 58.394C142.613 58.1766 143.334 58.3143 143.562 57.7636C143.732 56.4305 143.606 55.0757 143.643 53.7354C143.687 52.4765 143.658 51.2162 143.555 49.9607C143.305 49.5115 142.745 49.6129 142.318 49.526V49.3086M160.796 64.7914C163.196 64.8276 165.603 64.7407 168.003 64.8493C168.003 65.5738 168.069 66.2476 168.003 66.9504C167.554 66.4577 167.598 65.5014 166.81 65.3927C165.678 65.289 164.539 65.2575 163.402 65.2985V68.9211C164.371 68.9742 165.342 68.9329 166.302 68.7979C166.862 68.6168 166.825 67.9213 167.039 67.4865C167.333 67.9575 167.164 68.5443 167.215 69.0732C167.267 69.6021 167.355 70.3339 167.039 70.8845C166.825 70.4281 166.862 69.7398 166.302 69.5297C165.347 69.398 164.38 69.364 163.417 69.4282C163.417 70.6454 163.358 71.8771 163.417 73.1015L163.704 73.4348C164.741 73.5217 165.784 73.5072 166.818 73.3913C167.782 73.1739 167.981 72.0799 168.732 71.5945C168.518 72.406 168.202 73.1957 167.929 73.9854C165.478 73.9854 163.034 74.0579 160.568 73.9347C161.098 73.6159 162.114 73.7101 162.04 72.8552C162.04 70.5078 162.092 68.1531 162.04 65.8057C162.106 65.0812 161.304 65.0377 160.759 64.9942L160.796 64.7914Z" fill="#5B585A"/>
<path d="M154.053 49.3253H156.534C158.462 51.564 160.214 53.9404 162.239 56.1067C162.239 54.136 162.357 52.1509 162.187 50.1875C162.143 49.6006 161.451 49.6079 160.98 49.5499V49.3253C162.099 49.3253 163.189 49.2818 164.322 49.3905C163.858 49.6731 163.012 49.5354 162.916 50.202C162.769 53.1 162.916 55.9328 162.835 58.7946C160.538 56.4907 158.727 53.7231 156.453 51.4191C156.453 53.4478 156.401 55.4909 156.453 57.5195C156.453 58.302 157.402 58.244 157.925 58.4903C156.729 58.621 155.52 58.5917 154.332 58.4034C154.84 58.2295 155.746 58.302 155.746 57.563C155.864 55.3894 155.746 53.1652 155.797 50.9627C155.797 50.0571 154.789 49.6441 154.023 49.5137V49.2891M135.906 64.982C138.328 64.7139 140.794 64.9385 143.268 64.866C143.327 65.5905 143.356 66.315 143.341 67.0396C142.9 66.5904 142.937 65.7572 142.296 65.5326C141.115 65.3817 139.923 65.3357 138.733 65.3949V69.0175C139.661 69.0525 140.591 69.0259 141.516 68.9378C142.149 68.7711 142.134 67.9959 142.443 67.5395C142.443 68.677 142.694 69.9014 142.34 71.0026C142.142 70.5172 142.164 69.8144 141.604 69.6188C140.667 69.5007 139.721 69.4619 138.777 69.5029C138.724 70.7904 138.749 72.0799 138.851 73.3645C139.705 73.7847 140.838 73.5094 141.795 73.5457C142.973 73.5457 143.371 72.314 144.092 71.6257C143.891 72.4686 143.622 73.2946 143.29 74.0963H136.186V73.8717C136.574 73.8507 136.948 73.7254 137.268 73.5094C137.394 73.0025 137.444 72.4801 137.415 71.959V66.431C137.435 66.0679 137.366 65.7055 137.217 65.3732C136.811 65.2098 136.389 65.0884 135.958 65.0109M169.313 64.982C170.308 64.8456 171.314 64.8068 172.317 64.866C173.856 64.866 175.541 64.7791 176.925 65.5905C179.671 67.3439 179.48 72.1111 176.484 73.5022C174.275 74.4658 171.824 73.9369 169.512 74.0746V73.85C169.888 73.7847 170.315 73.8065 170.587 73.4949C170.736 73.0741 170.798 72.6284 170.771 72.1836V66.8802C170.808 66.3574 170.727 65.833 170.535 65.3442C170.142 65.1826 169.732 65.0612 169.313 64.982ZM172.14 65.5326C172.074 68.1626 172.14 70.7998 172.14 73.4225C173.672 73.821 175.527 73.5819 176.491 72.2343C177.831 70.3651 177.64 67.2569 175.593 65.9383C174.584 65.2645 173.326 65.3659 172.177 65.5326M231.807 64.9747C234.236 64.7211 236.702 64.9312 239.168 64.8733C239.237 65.5957 239.257 66.3218 239.227 67.0468C238.822 66.5614 238.822 65.692 238.108 65.5036C236.955 65.3806 235.792 65.3515 234.634 65.4167V69.0392C235.505 69.067 236.378 69.0476 237.247 68.9812C237.983 68.9233 238.02 68.0684 238.351 67.5322C238.425 68.6855 238.425 69.8421 238.351 70.9954C238.02 70.5389 238.072 69.7927 237.468 69.5464C236.529 69.4427 235.584 69.4112 234.641 69.4522C234.744 70.7635 234.398 72.1908 234.825 73.437C235.85 73.5529 236.885 73.5529 237.91 73.437C238.948 73.2993 239.286 72.1981 239.941 71.5533C239.763 72.3973 239.502 73.2223 239.161 74.0166H232.057V73.792C232.437 73.7757 232.805 73.6607 233.124 73.4587C233.271 73.0324 233.331 72.5819 233.301 72.1329V66.5976C233.324 66.1519 233.256 65.7061 233.102 65.2862C232.685 65.1436 232.26 65.025 231.829 64.9312M278.944 64.8733C280.452 64.7936 281.963 64.7936 283.471 64.8733C283.037 65.0254 282.595 65.1341 282.161 65.2862C281.726 65.4384 281.807 66.1484 281.756 66.5976V72.3937C281.8 72.7415 281.697 73.3428 282.219 73.3645C283.225 73.4938 284.245 73.4742 285.245 73.3066C286.217 73.0675 286.556 72.0532 287.071 71.3214C286.909 72.25 286.644 73.1585 286.283 74.0311H279.172V73.8065C279.724 73.8065 280.438 73.5891 280.372 72.9153C280.416 70.5534 280.445 68.1843 280.372 65.8296C280.372 65.1051 279.452 65.1051 278.944 64.866" fill="#5B585A"/>
<path d="M298.777 57.4188C300.11 54.6439 301.177 51.7531 302.539 49C303.864 51.7821 304.917 54.6946 306.22 57.484C306.448 58.0853 307.125 58.2085 307.618 58.5418C306.306 58.6142 304.992 58.6142 303.68 58.5418C304.034 58.3172 304.614 58.2665 304.747 57.8173C304.572 57.0039 304.282 56.2186 303.885 55.4843H300.419C299.963 56.0967 299.64 56.7945 299.469 57.5347C299.278 58.2592 300.206 58.1723 300.574 58.5418C299.529 58.607 298.482 58.607 297.438 58.5418C297.931 58.2447 298.534 57.9984 298.755 57.4333M300.507 54.9917H303.724C303.194 53.7672 302.672 52.5356 302.156 51.3112C301.553 52.5211 301.067 53.7673 300.507 54.9989" fill="#5B585A"/>
<path d="M307.98 49.3594H312.205V49.5767C311.747 49.5772 311.296 49.6919 310.895 49.91C310.675 50.3239 310.585 50.7932 310.637 51.2576V57.0537C310.637 57.4376 310.755 58.0028 311.256 57.9448C312.268 58.0463 313.289 58.0024 314.289 57.8144C315.179 57.5318 315.356 56.5175 316.004 55.9814C315.783 56.8363 315.474 57.6767 315.268 58.5389C312.787 58.6392 310.303 58.6126 307.825 58.4592C308.355 58.2491 309.297 58.3433 309.297 57.5536C309.4 55.793 309.297 54.0324 309.342 52.2719C309.385 51.5258 309.343 50.7773 309.216 50.0404C309.032 49.5695 308.414 49.6564 308.009 49.5695V49.3594M193.616 64.9798C195.058 64.7987 196.517 64.7987 197.959 64.9798C197.532 65.1464 196.943 65.0812 196.619 65.4435C196.443 66.1664 196.384 66.9121 196.443 67.6532C196.487 69.4935 196.369 71.341 196.502 73.1812C196.583 73.7826 197.304 73.7753 197.768 73.8478V74.0796C196.413 73.9637 194.978 74.2897 193.682 73.9202C194.124 73.7681 194.72 73.8623 195.022 73.4276C195.147 72.2606 195.184 71.0861 195.132 69.9137C195.096 68.4647 195.213 67.0591 195.066 65.6463C194.838 65.0667 194.102 65.1754 193.594 64.9581" fill="#5B585A"/>
<path d="M125.656 64.9797C126.748 64.8554 127.849 64.8214 128.947 64.8783C130.419 64.9145 132.002 64.8783 133.29 65.6028C136.029 67.3561 135.823 72.1234 132.834 73.4999C130.625 74.4708 128.211 73.9274 125.907 74.0796V73.8477C126.466 73.8477 127.151 73.6086 127.084 72.9493C127.129 70.5947 127.151 68.2328 127.084 65.8854C127.136 65.1101 126.172 65.1608 125.664 64.958M128.498 65.5231C128.439 68.1603 128.498 70.7903 128.498 73.4275C129.581 73.7192 130.735 73.6216 131.752 73.1522C133.96 71.8915 134.225 68.6023 132.79 66.6823C131.811 65.3854 130.022 65.2333 128.52 65.5231" fill="#5B585A"/>
<path d="M179.662 64.8496C181.046 64.8496 182.445 64.7989 183.829 64.8931C183.365 65.1394 182.643 65.067 182.415 65.6176C182.246 67.0666 182.371 68.4649 182.334 69.885C182.284 71.0572 182.318 72.2315 182.437 73.3989C182.732 73.7684 183.24 73.7611 183.667 73.8408V74.0437H179.669V73.8263C180.055 73.8178 180.434 73.7184 180.773 73.5365C180.959 73.1018 181.037 72.6301 181.002 72.1599V66.5957C180.957 66.1538 181.061 65.6249 180.707 65.2843C180.356 65.1533 179.994 65.0515 179.625 64.9801L179.662 64.8496Z" fill="#5B585A"/>
<path d="M197.812 64.882C198.872 64.9979 200.383 64.3676 201.045 65.4906C202.753 67.5772 204.471 69.659 206.198 71.7359V66.36C206.162 65.9833 206.243 65.4979 205.867 65.2588C205.547 65.1592 205.22 65.0841 204.888 65.0342V64.853C206.038 64.7966 207.191 64.8402 208.333 64.9835C207.811 65.1428 206.86 65.1501 206.911 65.9181C206.801 68.7292 206.912 71.5475 206.839 74.3586C204.579 71.975 202.635 69.287 200.464 66.8599C200.464 68.9683 200.383 71.0838 200.515 73.1921C200.515 73.7718 201.251 73.808 201.664 73.8659V74.0905H198.645V73.8659C199.102 73.8225 199.779 73.7283 199.779 73.1414C199.889 70.8882 199.816 68.635 199.823 66.3818C199.772 65.4109 198.556 65.237 197.842 64.9327" fill="#5B585A"/>
<path d="M250.477 64.9292C252.935 64.7698 255.409 64.8567 257.875 64.8857C257.875 65.6102 257.949 66.2912 257.919 67.0013C257.47 66.5521 257.544 65.7261 256.889 65.4798C255.702 65.3374 254.505 65.2962 253.311 65.3566V68.9792C254.269 69.0372 255.231 69.0008 256.182 68.8705C256.793 68.7039 256.646 67.9141 257.08 67.5591C257.117 68.6821 257.124 69.8196 257.08 70.9571C256.69 70.5441 256.786 69.7979 256.189 69.5878C255.243 69.4636 254.286 69.4296 253.333 69.4863C253.333 70.718 253.274 71.9497 253.37 73.1813L253.642 73.5001C254.674 73.5822 255.712 73.5701 256.741 73.4639C257.728 73.2683 257.934 72.1453 258.692 71.6671C258.464 72.4713 258.155 73.2538 257.89 74.0507H250.668V73.8551C251.161 73.7682 251.964 73.7537 251.964 73.0799C252.037 70.689 252.023 68.2909 251.964 65.9C252.008 65.0741 251.029 65.132 250.491 64.9219" fill="#5B585A"/>
</g>
</g>
<defs>
<clipPath id="clip0_6875_13597">
<rect width="316" height="82" fill="white" transform="translate(0 0.5)"/>
</clipPath>
</defs>
</svg>
