<svg width="174" height="83" viewBox="0 0 174 83" fill="none" xmlns="http://www.w3.org/2000/svg">
<g clip-path="url(#clip0_6875_13670)">
<path d="M127.443 0.500036H123.962C124.651 2.51433 124.26 4.59219 122.803 5.67756C120.877 7.11495 117.826 6.28381 115.959 3.81483C115.233 2.84942 114.788 1.70231 114.673 0.500036H105.872C106.562 2.51433 106.171 4.59219 104.714 5.67756C102.787 7.11495 99.7367 6.28381 97.869 3.81483C97.1433 2.84942 96.6983 1.70231 96.5832 0.500036H86.8051C84.4589 0.494014 82.1733 1.24501 80.2879 2.64145C76.9413 5.08813 74.5863 8.65682 73.6528 12.696C72.7193 16.7351 73.2696 20.9753 75.2033 24.6423L84.2041 41.8518C84.3854 42.1957 84.4747 42.5807 84.4632 42.9693C84.4518 43.358 84.34 43.737 84.1387 44.0697C83.9375 44.4023 83.6536 44.6773 83.3146 44.8678C82.9757 45.0583 82.5933 45.1578 82.2045 45.1568H44.0697V12.2338H58.248C59.804 12.2338 61.2963 11.6157 62.3965 10.5154C63.4968 9.41518 64.1149 7.92292 64.1149 6.36692C64.1149 4.81093 63.4968 3.31866 62.3965 2.21841C61.2963 1.11815 59.804 0.500036 58.248 0.500036H43.3217C40.4093 0.503917 37.6173 1.66259 35.5579 3.72197C33.4985 5.78136 32.3398 8.57337 32.3359 11.4858V45.9244C32.3398 48.8368 33.4985 51.6288 35.5579 53.6882C37.6173 55.7476 40.4093 56.9063 43.3217 56.9101H62.2619C61.4601 54.8274 61.8219 52.6322 63.3326 51.5028C65.2589 50.0654 68.3146 50.9015 70.1773 53.3656C70.9585 54.3908 71.4195 55.6239 71.5023 56.9101H82.2582C84.6614 56.9032 87.0222 56.2774 89.1132 55.0932C91.2043 53.9089 92.9551 52.2061 94.197 50.1487C95.4389 48.0914 96.13 45.7488 96.2037 43.3468C96.2774 40.9448 95.7312 38.5643 94.6178 36.4347L85.617 19.2252C85.0088 18.0715 84.8225 16.7416 85.0903 15.4651C85.3581 14.1887 86.0631 13.0458 87.0838 12.2338H126.685V51.0433C126.685 52.5992 127.303 54.0915 128.404 55.1918C129.504 56.292 130.996 56.9101 132.552 56.9101C134.108 56.9101 135.6 56.292 136.701 55.1918C137.801 54.0915 138.419 52.5992 138.419 51.0433V11.4858C138.415 8.57506 137.258 5.78452 135.201 3.72542C133.143 1.66631 130.354 0.506502 127.443 0.500036Z" fill="#5B585A"/>
<path d="M7.84647 77.8998C7.84647 78.0367 7.84647 78.1492 7.84647 78.247C7.84056 78.3294 7.82748 78.4112 7.80736 78.4914C7.79373 78.5525 7.77237 78.6117 7.7438 78.6674C7.70563 78.7287 7.66141 78.786 7.6118 78.8385C7.50714 78.9333 7.39043 79.0139 7.26467 79.0781C7.0624 79.1894 6.85149 79.2842 6.63398 79.3617C6.35594 79.4616 6.06964 79.5368 5.7784 79.5866C5.43678 79.6514 5.08962 79.6825 4.74191 79.6794C4.07491 79.6874 3.41209 79.573 2.78629 79.3421C2.20833 79.1314 1.68882 78.7862 1.27067 78.335C0.839196 77.8541 0.517253 77.2852 0.327084 76.6678C-0.120387 75.1203 -0.108497 73.476 0.361307 71.9352C0.5741 71.2847 0.916737 70.6843 1.36846 70.1702C1.80015 69.6948 2.33547 69.3251 2.93296 69.0897C3.56796 68.8399 4.24535 68.7153 4.9277 68.723C5.2145 68.7221 5.50082 68.7467 5.78329 68.7964C6.04032 68.8408 6.29363 68.9046 6.54109 68.9871C6.75768 69.0589 6.96717 69.1505 7.16689 69.2608C7.3072 69.3351 7.43845 69.4253 7.55802 69.5297C7.61833 69.583 7.66952 69.6458 7.70958 69.7155C7.74141 69.7738 7.76447 69.8363 7.77803 69.9013C7.77803 69.9795 7.77803 70.0675 7.81225 70.1702C7.84647 70.2729 7.81225 70.4049 7.81225 70.5564C7.82076 70.6965 7.82076 70.8369 7.81225 70.9769C7.80521 71.0716 7.78716 71.1651 7.75847 71.2556C7.73724 71.3152 7.70203 71.3688 7.6558 71.412C7.63909 71.4284 7.61918 71.4413 7.59732 71.4497C7.57545 71.4581 7.55209 71.4619 7.52868 71.4609C7.41167 71.4458 7.30229 71.3945 7.21578 71.3142C7.05828 71.2001 6.8951 71.0941 6.72688 70.9965C6.50064 70.866 6.26141 70.7595 6.01307 70.6787C5.69767 70.5753 5.36712 70.5257 5.03526 70.532C4.64347 70.5266 4.25613 70.6155 3.90588 70.7911C3.5712 70.9693 3.28184 71.2218 3.06007 71.5294C2.81587 71.8825 2.63703 72.2766 2.53205 72.693C2.28112 73.7275 2.28112 74.807 2.53205 75.8415C2.6363 76.2512 2.82258 76.6354 3.07963 76.9709C3.29881 77.2553 3.58412 77.4819 3.91077 77.6309C4.27127 77.782 4.6591 77.8569 5.04993 77.8509C5.38088 77.8545 5.71048 77.8083 6.02774 77.714C6.27481 77.6381 6.51387 77.5382 6.74154 77.4158C6.942 77.3034 7.10822 77.2056 7.23045 77.1176C7.31609 77.0483 7.41938 77.0042 7.52868 76.9905C7.57449 76.9886 7.61998 76.9987 7.66069 77.0198C7.7004 77.055 7.72923 77.1008 7.7438 77.1518C7.76916 77.2412 7.78554 77.3329 7.79269 77.4256C7.82203 77.5429 7.84647 77.6994 7.84647 77.8998Z" fill="#5B585A"/>
<path d="M16.6642 75.4948C16.6727 76.0729 16.5902 76.6487 16.4198 77.2011C16.2667 77.692 16.0118 78.1452 15.6718 78.5309C15.3277 78.9119 14.899 79.2066 14.4202 79.3914C13.8564 79.6035 13.2574 79.7064 12.6552 79.6945C12.0781 79.7075 11.5035 79.6164 10.9587 79.4256C10.5064 79.2601 10.0994 78.9904 9.77064 78.6385C9.44223 78.2739 9.20143 77.8391 9.06662 77.3673C8.90411 76.8068 8.82664 76.225 8.83682 75.6415C8.83027 75.0632 8.91441 74.4874 9.08616 73.9352C9.23702 73.4433 9.49217 72.9897 9.8342 72.6054C10.1794 72.2269 10.6079 71.934 11.0858 71.7498C11.6471 71.5349 12.245 71.4319 12.8459 71.4467C13.4257 71.4348 14.0031 71.5241 14.5522 71.7107C15.0071 71.8713 15.4165 72.1397 15.7451 72.4929C16.0702 72.8591 16.3091 73.2934 16.4442 73.7641C16.6034 74.3268 16.6776 74.9102 16.6642 75.4948ZM14.5424 75.5779C14.5436 75.25 14.5142 74.9226 14.4544 74.6001C14.41 74.3146 14.3139 74.0396 14.1708 73.7885C14.0372 73.5692 13.8484 73.3888 13.6232 73.2654C13.3591 73.1295 13.0645 73.0638 12.7676 73.0747C12.4892 73.0691 12.2131 73.1276 11.9609 73.2458C11.7336 73.3562 11.5395 73.5249 11.3987 73.7347C11.2407 73.9728 11.128 74.238 11.0662 74.517C10.9881 74.8569 10.9504 75.2048 10.9538 75.5535C10.9519 75.8817 10.983 76.2093 11.0467 76.5313C11.0971 76.8098 11.1947 77.0776 11.3351 77.3233C11.4668 77.543 11.6562 77.7222 11.8827 77.8416C12.1467 77.9724 12.4389 78.0362 12.7334 78.0274C13.0135 78.0334 13.2912 77.9749 13.545 77.8562C13.7742 77.7466 13.97 77.5779 14.1121 77.3673C14.2674 77.1301 14.3784 76.8667 14.4397 76.59C14.5126 76.2577 14.547 75.9181 14.5424 75.5779Z" fill="#5B585A"/>
<path d="M25.2893 79.2128C25.2913 79.266 25.2739 79.3182 25.2404 79.3595C25.1962 79.4069 25.1407 79.4422 25.0791 79.4622C24.9753 79.4918 24.8688 79.5115 24.7613 79.5209C24.5984 79.5296 24.4352 79.5296 24.2724 79.5209C24.1095 79.5292 23.9463 79.5292 23.7835 79.5209C23.6776 79.5111 23.5728 79.4914 23.4706 79.4622C23.4076 79.442 23.3506 79.4068 23.3043 79.3595C23.2729 79.317 23.2558 79.2657 23.2555 79.2128V75.0425C23.2638 74.7616 23.2375 74.4808 23.1772 74.2064C23.1342 74.02 23.058 73.8428 22.9523 73.6833C22.8572 73.5392 22.7257 73.4228 22.571 73.346C22.4018 73.2649 22.2159 73.2247 22.0283 73.2286C21.7385 73.2363 21.459 73.3375 21.2314 73.5171C20.9147 73.7549 20.6332 74.0364 20.3953 74.3531V79.2128C20.395 79.2657 20.3779 79.317 20.3465 79.3595C20.2991 79.4078 20.2402 79.4431 20.1753 79.4622C20.0731 79.4914 19.9683 79.5111 19.8624 79.5209C19.5372 79.5519 19.2098 79.5519 18.8846 79.5209C18.7787 79.5111 18.674 79.4914 18.5717 79.4622C18.5069 79.4431 18.4479 79.4078 18.4006 79.3595C18.3671 79.3182 18.3497 79.266 18.3517 79.2128V71.8792C18.3513 71.8293 18.3649 71.7802 18.3908 71.7375C18.4283 71.6871 18.4817 71.651 18.5424 71.6348C18.6305 71.6018 18.7225 71.5804 18.8162 71.5712C18.9562 71.5626 19.0966 71.5626 19.2366 71.5712C19.3815 71.5624 19.5269 71.5624 19.6718 71.5712C19.764 71.5791 19.8546 71.6005 19.9407 71.6348C19.9954 71.6524 20.0421 71.6888 20.0727 71.7375C20.1023 71.7787 20.1177 71.8285 20.1167 71.8792V72.725C20.4677 72.3303 20.8846 71.9995 21.3487 71.7472C21.7519 71.5321 22.202 71.4196 22.659 71.4197C23.0909 71.4048 23.5206 71.4884 23.9155 71.6641C24.2441 71.8146 24.5298 72.0448 24.7466 72.3339C24.9624 72.626 25.1171 72.9585 25.2013 73.3117C25.3006 73.7578 25.3466 74.214 25.3382 74.6709L25.2893 79.2128Z" fill="#5B585A"/>
<path d="M32.4705 77.1593C32.478 77.5376 32.3977 77.9125 32.2358 78.2544C32.0831 78.5693 31.8567 78.8427 31.5758 79.0513C31.2754 79.2789 30.9332 79.445 30.5686 79.5403C30.1574 79.6508 29.733 79.705 29.3072 79.7016C29.0435 79.7033 28.7801 79.682 28.5201 79.638C28.2953 79.6027 28.0731 79.5521 27.8552 79.4865C27.687 79.4351 27.5235 79.3697 27.3663 79.2909C27.2616 79.2434 27.1644 79.1808 27.0778 79.1051C27.0072 79.0306 26.9597 78.9372 26.9409 78.8362C26.9019 78.6581 26.8855 78.4758 26.892 78.2935C26.892 78.1338 26.892 78.0067 26.892 77.9122C26.899 77.8339 26.9154 77.7568 26.9409 77.6824C26.955 77.6353 26.9842 77.594 27.024 77.5651C27.0614 77.5446 27.1036 77.5345 27.1463 77.5357C27.2427 77.5486 27.3347 77.5838 27.4152 77.6384C27.5325 77.7069 27.6792 77.7851 27.8503 77.8633C28.048 77.9551 28.2522 78.0319 28.4614 78.0931C28.7185 78.1687 28.9855 78.205 29.2535 78.2006C29.4182 78.2018 29.5825 78.1821 29.7424 78.142C29.8751 78.1071 30.002 78.0527 30.1188 77.9806C30.2221 77.9128 30.3049 77.8182 30.3584 77.7069C30.4173 77.5903 30.4458 77.4609 30.4415 77.3304C30.4454 77.1762 30.3913 77.0262 30.2899 76.9099C30.1764 76.7835 30.0404 76.6791 29.889 76.6019C29.7064 76.5064 29.5168 76.4246 29.3219 76.3575C29.1117 76.2792 28.8966 76.1961 28.6765 76.1032C28.4528 76.0104 28.2355 75.9026 28.0263 75.7806C27.8169 75.6621 27.6259 75.5139 27.4592 75.3405C27.2874 75.1553 27.1515 74.9398 27.0583 74.705C26.9495 74.423 26.898 74.1222 26.9067 73.82C26.9011 73.4828 26.9713 73.1487 27.112 72.8422C27.2475 72.5497 27.4502 72.2934 27.7036 72.0942C27.9807 71.8701 28.2999 71.7039 28.6423 71.6053C29.045 71.4846 29.4639 71.4269 29.8841 71.4342C30.1083 71.4329 30.3323 71.4492 30.5539 71.4831C30.7521 71.5104 30.9481 71.5513 31.1406 71.6053C31.2909 71.6467 31.438 71.6989 31.5806 71.7617C31.6724 71.8024 31.7593 71.8532 31.8398 71.9133C31.886 71.945 31.9244 71.9868 31.9522 72.0355C31.9758 72.0817 31.9923 72.1311 32.0011 72.1822C32.0011 72.2409 32.0011 72.3093 32.0304 72.3973C32.0598 72.4853 32.0304 72.5831 32.0304 72.7102C32.0304 72.8373 32.0304 72.9791 32.0304 73.072C32.0243 73.1468 32.0095 73.2206 31.9864 73.292C31.9756 73.3381 31.9477 73.3783 31.9082 73.4045C31.8745 73.4251 31.8353 73.4353 31.7958 73.4338C31.7135 73.4223 31.6349 73.3922 31.566 73.3458C31.4633 73.2871 31.3313 73.2285 31.1749 73.16C30.9995 73.0887 30.8199 73.0283 30.6371 72.9791C30.4076 72.9173 30.1707 72.8877 29.933 72.8911C29.7681 72.8879 29.6036 72.9076 29.4441 72.9498C29.3223 72.9814 29.2078 73.0362 29.1068 73.1111C29.0245 73.1786 28.9585 73.2638 28.9137 73.3603C28.8688 73.4567 28.8463 73.5621 28.8477 73.6685C28.8416 73.8268 28.8977 73.9813 29.0041 74.0987C29.1208 74.2225 29.2581 74.3251 29.4099 74.4018C29.5982 74.4962 29.7926 74.5778 29.9917 74.6463L30.6468 74.8956C30.8713 74.9886 31.09 75.0948 31.302 75.2134C31.5151 75.3306 31.7095 75.4789 31.8789 75.6534C32.0543 75.8359 32.1936 76.0499 32.2896 76.2841C32.4084 76.5606 32.47 76.8583 32.4705 77.1593Z" fill="#5B585A"/>
<path d="M40.7789 75.3572C40.7952 75.5572 40.7359 75.7561 40.6126 75.9145C40.5493 75.9786 40.4727 76.028 40.3883 76.0592C40.3038 76.0905 40.2135 76.1028 40.1237 76.0954H35.6942C35.6919 76.3812 35.7298 76.6659 35.8067 76.9412C35.8731 77.1819 35.9935 77.4043 36.1587 77.5915C36.3315 77.7752 36.5462 77.9144 36.7845 77.9972C37.079 78.0957 37.3884 78.142 37.6988 78.1341C38.0167 78.1384 38.3343 78.1122 38.6472 78.0559C38.887 78.0143 39.1238 77.9572 39.3562 77.8848C39.5566 77.8212 39.7228 77.7675 39.8451 77.7137C39.9451 77.6677 40.0529 77.6412 40.1629 77.6355C40.2056 77.6334 40.248 77.6436 40.2851 77.6648C40.3236 77.6886 40.3529 77.7248 40.3682 77.7675C40.3967 77.8339 40.4117 77.9054 40.4122 77.9777C40.4182 78.0901 40.4182 78.2027 40.4122 78.315C40.4122 78.4373 40.4122 78.5399 40.4122 78.6231C40.4122 78.7062 40.4122 78.7795 40.3878 78.8431C40.3804 78.896 40.3639 78.9473 40.3389 78.9946C40.3162 79.0371 40.2882 79.0765 40.2557 79.112C40.1659 79.1778 40.0671 79.2304 39.9624 79.2684C39.7645 79.3446 39.562 79.4083 39.3562 79.4591C39.1117 79.5226 38.8281 79.5764 38.5104 79.6253C38.1734 79.6715 37.8336 79.6944 37.4934 79.6938C36.9137 79.7035 36.3361 79.621 35.7822 79.4493C35.3161 79.3011 34.8938 79.0402 34.5526 78.6897C34.2115 78.3392 33.9621 77.9099 33.8266 77.4399C33.6561 76.8591 33.5753 76.2557 33.5871 75.6505C33.5783 75.0541 33.6641 74.46 33.8413 73.8904C33.9936 73.4012 34.2449 72.9486 34.5795 72.5606C34.9032 72.1967 35.3064 71.9123 35.7578 71.7295C36.7683 71.361 37.8764 71.361 38.8868 71.7295C39.2967 71.8927 39.6632 72.1488 39.9575 72.4775C40.2435 72.8037 40.4568 73.187 40.5833 73.602C40.7187 74.0656 40.7846 74.5467 40.7789 75.0296V75.3572ZM38.7792 74.7656C38.8225 74.2846 38.7 73.8033 38.4321 73.4015C38.2937 73.2328 38.1164 73.1002 37.9154 73.015C37.7144 72.9299 37.4958 72.8947 37.2783 72.9126C37.0418 72.9069 36.8072 72.9571 36.5938 73.0593C36.4021 73.1534 36.2348 73.2906 36.1049 73.4602C35.9727 73.6365 35.8733 73.8353 35.8116 74.0469C35.7448 74.2811 35.7055 74.5223 35.6942 74.7656H38.7792Z" fill="#5B585A"/>
<path d="M44.6969 79.4721C44.7085 79.9409 44.6592 80.4093 44.5502 80.8654C44.4657 81.1929 44.3142 81.4992 44.1053 81.765C43.904 82.0076 43.6452 82.1958 43.3524 82.3126C43.0157 82.4422 42.6571 82.5053 42.2964 82.4984C42.1029 82.5019 41.9096 82.4855 41.7195 82.4495C41.602 82.4325 41.4871 82.4013 41.3772 82.3566C41.315 82.3352 41.2628 82.2917 41.2305 82.2344C41.2011 82.183 41.1812 82.1267 41.1719 82.0682C41.1719 82.0046 41.1719 81.9313 41.1719 81.853C41.1719 81.7748 41.1719 81.6721 41.1719 81.545C41.1719 81.4179 41.1719 81.2664 41.1719 81.1637C41.1729 81.0819 41.1878 81.0009 41.2159 80.9241C41.2275 80.8741 41.2529 80.8284 41.2892 80.7921C41.303 80.7776 41.3197 80.7662 41.3383 80.7586C41.3568 80.751 41.3768 80.7474 41.3968 80.7481L41.563 80.7726C41.6542 80.7778 41.7456 80.7778 41.8368 80.7726C41.964 80.7749 42.0903 80.7516 42.2084 80.7041C42.3102 80.66 42.3981 80.589 42.4626 80.4988C42.5331 80.3846 42.5827 80.2588 42.6093 80.1272C42.6493 79.8898 42.6656 79.6491 42.6582 79.4085V71.9233C42.6565 71.8717 42.6739 71.8212 42.707 71.7816C42.7527 71.7325 42.8098 71.6956 42.8733 71.674C42.9727 71.6384 43.0762 71.6154 43.1813 71.6055C43.5065 71.5745 43.8339 71.5745 44.1591 71.6055C44.2673 71.6161 44.3739 71.6391 44.4769 71.674C44.5403 71.6956 44.5974 71.7325 44.6431 71.7816C44.6763 71.8212 44.6937 71.8717 44.692 71.9233L44.6969 79.4721ZM44.8533 69.4348C44.8873 69.7433 44.7977 70.0527 44.604 70.2953C44.3256 70.4834 43.9895 70.5666 43.6555 70.53C43.3267 70.5684 42.9951 70.4868 42.7217 70.3002C42.627 70.1863 42.5564 70.0543 42.5144 69.9122C42.4724 69.7701 42.4597 69.621 42.4773 69.4739C42.4599 69.32 42.4735 69.1642 42.5171 69.0156C42.5608 68.867 42.6337 68.7286 42.7315 68.6085C43.0199 68.4502 43.3436 68.3672 43.6726 68.3672C44.0017 68.3672 44.3254 68.4502 44.6138 68.6085C44.7976 68.8425 44.8835 69.1387 44.8533 69.4348Z" fill="#5B585A"/>
<path d="M54.1551 75.4948C54.1612 76.0727 54.0787 76.6481 53.9107 77.2011C53.7576 77.692 53.5027 78.1452 53.1626 78.5309C52.8167 78.9119 52.3864 79.2066 51.9061 79.3914C51.344 79.6031 50.7467 79.706 50.1461 79.6945C49.5674 79.707 48.9912 79.616 48.4447 79.4256C47.9903 79.2614 47.5814 78.9916 47.2517 78.6385C46.9235 78.273 46.6813 77.8387 46.5428 77.3673C46.3827 76.8063 46.3053 76.2249 46.313 75.6415C46.3065 75.0632 46.3906 74.4874 46.5624 73.9352C46.7169 73.4438 46.9735 72.9907 47.3153 72.6054C47.6596 72.2259 48.0884 71.9329 48.5669 71.7498C49.1282 71.5349 49.7261 71.4319 50.327 71.4467C50.9067 71.4348 51.4842 71.5241 52.0332 71.7107C52.4876 71.8725 52.8967 72.1407 53.2262 72.4929C53.5513 72.8591 53.7902 73.2934 53.9253 73.7641C54.0858 74.3267 54.1632 74.9098 54.1551 75.4948ZM52.0332 75.5779C52.0345 75.25 52.005 74.9226 51.9452 74.6001C51.8954 74.3207 51.7961 74.0525 51.6519 73.8081C51.5197 73.5894 51.3326 73.4091 51.1092 73.2849C50.8449 73.1496 50.5504 73.084 50.2536 73.0943C49.9752 73.0886 49.6991 73.1472 49.4469 73.2654C49.2188 73.3766 49.0234 73.545 48.8798 73.7543C48.7257 73.9945 48.6133 74.2589 48.5473 74.5366C48.471 74.8766 48.4349 75.2245 48.4398 75.573C48.4385 75.901 48.468 76.2284 48.5278 76.5509C48.5798 76.8296 48.679 77.0975 48.8211 77.3429C48.9508 77.5623 49.1386 77.7417 49.3638 77.8611C49.6294 77.9926 49.9233 78.0564 50.2194 78.0469C50.4995 78.053 50.7772 77.9944 51.031 77.8758C51.2591 77.7646 51.4546 77.5962 51.5981 77.3869C51.7534 77.1497 51.8644 76.8863 51.9257 76.6095C51.9993 76.2706 52.0354 75.9247 52.0332 75.5779Z" fill="#5B585A"/>
<path d="M66.0001 76.3262C66.0119 76.8329 65.9047 77.3352 65.6872 77.793C65.4898 78.2023 65.2023 78.5617 64.8462 78.8441C64.4753 79.134 64.052 79.3498 63.5995 79.4797C63.1093 79.6265 62.6005 79.7023 62.0888 79.7046C61.7462 79.7068 61.4042 79.6773 61.067 79.6166C60.7849 79.5639 60.5071 79.4904 60.2359 79.3966C60.0257 79.3284 59.8227 79.2399 59.6296 79.1326C59.5038 79.0645 59.3872 78.9807 59.2825 78.8832C59.2016 78.7985 59.1487 78.691 59.1309 78.5752C59.0966 78.3849 59.0818 78.1916 59.0869 77.9983C59.0869 77.8256 59.0869 77.6838 59.0869 77.573C59.093 77.4782 59.1111 77.3845 59.1407 77.2943C59.1572 77.235 59.1913 77.1821 59.2385 77.1427C59.2815 77.113 59.3329 77.0976 59.3852 77.0987C59.502 77.1152 59.6129 77.1606 59.7078 77.2307C59.881 77.3421 60.0606 77.4434 60.2456 77.5338C60.4979 77.6542 60.7595 77.754 61.0279 77.8321C61.3704 77.9251 61.7242 77.9695 62.079 77.9641C62.3186 77.968 62.5575 77.9367 62.7879 77.8712C62.9782 77.8152 63.157 77.7258 63.316 77.6072C63.4582 77.491 63.5719 77.3439 63.6484 77.1769C63.7246 76.9994 63.7629 76.8079 63.7609 76.6147C63.7685 76.3915 63.6995 76.1724 63.5653 75.9938C63.4227 75.8114 63.2489 75.6558 63.052 75.5342C62.8221 75.3911 62.5818 75.2652 62.3333 75.1578L61.507 74.7862C61.2224 74.6537 60.9465 74.5035 60.6808 74.3364C60.4148 74.1718 60.1729 73.971 59.9621 73.7399C59.7453 73.4956 59.5717 73.2162 59.4487 72.9137C59.1602 72.1065 59.1917 71.2196 59.5367 70.4349C59.7114 70.0541 59.9726 69.7193 60.2994 69.4571C60.6349 69.1956 61.0187 69.0028 61.4288 68.89C62.1232 68.6929 62.8519 68.6479 63.5653 68.758C63.8036 68.7924 64.0389 68.8447 64.2693 68.9144C64.4695 68.9701 64.6642 69.0437 64.8511 69.1344C64.9728 69.1864 65.0864 69.2555 65.1885 69.3398C65.2751 69.4155 65.3322 69.5194 65.3498 69.6331C65.3663 69.7104 65.3761 69.7889 65.3792 69.8678C65.3792 69.9656 65.3792 70.0829 65.3792 70.2247C65.3792 70.3665 65.3792 70.518 65.3792 70.6256C65.3713 70.7175 65.3582 70.8089 65.34 70.8994C65.3257 70.9576 65.2972 71.0114 65.2569 71.0558C65.2151 71.0886 65.1633 71.1059 65.1103 71.1047C65.008 71.0877 64.911 71.0476 64.8267 70.9874C64.6931 70.9124 64.5301 70.8293 64.3378 70.738C64.1223 70.6406 63.9001 70.5589 63.6729 70.4936C63.4025 70.417 63.1227 70.3791 62.8417 70.3811C62.6346 70.3769 62.4281 70.4066 62.2306 70.4691C62.0697 70.5172 61.9201 70.597 61.7906 70.7038C61.6752 70.8038 61.5847 70.9293 61.5266 71.0705C61.4695 71.2135 61.4413 71.3663 61.4435 71.5203C61.4366 71.7396 61.5038 71.9549 61.6341 72.1314C61.7736 72.3184 61.95 72.4748 62.1524 72.591C62.3863 72.736 62.6316 72.8619 62.8857 72.9675C63.1595 73.0848 63.4382 73.2119 63.7218 73.3439C64.0084 73.4767 64.2875 73.6253 64.5578 73.7888C64.829 73.9522 65.0744 74.1549 65.2863 74.3902C65.5061 74.6294 65.6816 74.9059 65.8045 75.2067C65.9436 75.5631 66.01 75.9438 66.0001 76.3262Z" fill="#5B585A"/>
<path d="M74.4624 79.2129C74.4652 79.2647 74.4515 79.3161 74.4232 79.3596C74.386 79.4058 74.3371 79.4413 74.2815 79.4622C74.1924 79.491 74.1007 79.5107 74.0077 79.5209C73.8677 79.53 73.7272 79.53 73.5872 79.5209C73.4407 79.5302 73.2937 79.5302 73.1472 79.5209C73.0573 79.5114 72.9687 79.4917 72.8832 79.4622C72.8276 79.4413 72.7786 79.4058 72.7414 79.3596C72.7153 79.3151 72.7018 79.2644 72.7023 79.2129V78.3817C72.348 78.775 71.9298 79.1056 71.4654 79.3596C71.0656 79.5745 70.6188 79.687 70.1649 79.6871C69.73 79.6995 69.2977 79.616 68.8986 79.4427C68.5721 79.2888 68.2884 79.0571 68.0724 78.768C67.8571 78.4762 67.704 78.1434 67.6226 77.7902C67.5219 77.3311 67.4759 76.8618 67.4857 76.3919V71.9135C67.4846 71.8627 67.5 71.813 67.5297 71.7717C67.5714 71.7192 67.6302 71.6829 67.6959 71.6691C67.799 71.6355 67.9056 71.6142 68.0137 71.6055C68.1765 71.5972 68.3397 71.5972 68.5026 71.6055C68.6654 71.5971 68.8286 71.5971 68.9915 71.6055C69.098 71.6141 69.203 71.6355 69.3044 71.6691C69.371 71.684 69.431 71.72 69.4755 71.7717C69.5087 71.8114 69.5261 71.8618 69.5244 71.9135V76.0497C69.5162 76.3432 69.5408 76.6367 69.5977 76.9248C69.6395 77.1116 69.7158 77.2891 69.8226 77.4479C69.9223 77.5886 70.0549 77.7028 70.2089 77.7804C70.3784 77.866 70.5666 77.908 70.7564 77.9026C71.0428 77.8925 71.3185 77.7914 71.5436 77.6142C71.863 77.3745 72.1491 77.0933 72.3943 76.7781V71.9135C72.3932 71.8627 72.4087 71.813 72.4383 71.7717C72.4808 71.7201 72.5393 71.684 72.6045 71.6691C72.706 71.636 72.811 71.6147 72.9174 71.6055C73.251 71.5794 73.5861 71.5794 73.9197 71.6055C74.0261 71.6141 74.1312 71.6355 74.2326 71.6691C74.2959 71.6853 74.3524 71.7212 74.3939 71.7717C74.4271 71.8114 74.4445 71.8618 74.4428 71.9135L74.4624 79.2129Z" fill="#5B585A"/>
<path d="M83.901 75.4655C83.9091 76.0573 83.8384 76.6476 83.6908 77.2207C83.5731 77.7002 83.3658 78.1531 83.0796 78.5554C82.8262 78.9116 82.4908 79.2017 82.1018 79.4013C81.6741 79.6028 81.2057 79.7032 80.7329 79.6946C80.5355 79.6972 80.3385 79.6758 80.1462 79.631C79.9663 79.5912 79.7922 79.5288 79.628 79.4453C79.4547 79.356 79.2909 79.2495 79.1391 79.1275C78.9666 78.9917 78.8033 78.8447 78.6501 78.6874V82.1098C78.6495 82.1634 78.6305 82.2152 78.5964 82.2565C78.5534 82.3097 78.4955 82.3489 78.4301 82.3689C78.3273 82.4044 78.2206 82.4273 78.1123 82.4374C77.9501 82.4567 77.7868 82.4649 77.6234 82.4618C77.4601 82.4648 77.2968 82.4566 77.1345 82.4374C77.0262 82.4273 76.9196 82.4044 76.8167 82.3689C76.752 82.3476 76.6944 82.3087 76.6505 82.2565C76.6178 82.2147 76.6005 82.1629 76.6016 82.1098V71.8916C76.6012 71.8417 76.6148 71.7926 76.6407 71.7499C76.6773 71.7007 76.7287 71.6647 76.7874 71.6472C76.8738 71.6141 76.9642 71.5927 77.0563 71.5836C77.1963 71.575 77.3367 71.575 77.4768 71.5836C77.6152 71.575 77.7539 71.575 77.8923 71.5836C77.9844 71.5927 78.0748 71.6141 78.1612 71.6472C78.2199 71.6647 78.2714 71.7007 78.3079 71.7499C78.3339 71.7926 78.3474 71.8417 78.347 71.8916V72.7521C78.5455 72.5491 78.7544 72.3566 78.9728 72.1752C79.1686 72.0145 79.3799 71.8737 79.6035 71.7547C79.8127 71.6454 80.0343 71.5617 80.2635 71.5054C80.5009 71.4513 80.7437 71.425 80.9871 71.4272C81.4628 71.4118 81.9343 71.5196 82.3561 71.7401C82.7314 71.947 83.049 72.2445 83.2801 72.6054C83.5292 72.9979 83.7064 73.4317 83.8032 73.8864C83.8937 74.4076 83.9265 74.9372 83.901 75.4655ZM81.7547 75.6122C81.7555 75.3108 81.731 75.0099 81.6814 74.7126C81.6439 74.446 81.5647 74.187 81.4467 73.945C81.3438 73.7326 81.1912 73.5481 81.0018 73.4072C80.8011 73.2686 80.5611 73.1983 80.3173 73.2068C80.1795 73.206 80.0425 73.2275 79.9115 73.2704C79.7657 73.317 79.6273 73.3845 79.5008 73.4708C79.3453 73.5762 79.2012 73.6975 79.0706 73.8326C78.8937 74.0022 78.7302 74.1852 78.5817 74.3802V76.7709C78.8205 77.0879 79.0981 77.3737 79.4079 77.6216C79.6407 77.8101 79.9299 77.9151 80.2293 77.9199C80.4735 77.9263 80.7134 77.8543 80.9138 77.7145C81.1066 77.572 81.2653 77.3883 81.3782 77.1767C81.5012 76.9411 81.59 76.6893 81.6423 76.4287C81.7074 76.1611 81.7451 75.8875 81.7547 75.6122Z" fill="#5B585A"/>
<path d="M92.3177 75.358C92.3326 75.5587 92.2715 75.7576 92.1466 75.9154C92.0862 75.9765 92.0137 76.0242 91.9336 76.0553C91.8536 76.0865 91.7679 76.1004 91.6821 76.0963H87.2331C87.2292 76.3818 87.2654 76.6666 87.3406 76.9421C87.407 77.1828 87.5274 77.4051 87.6926 77.5923C87.8655 77.7761 88.0802 77.9153 88.3184 77.9981C88.6129 78.0966 88.9223 78.1429 89.2327 78.135C89.5506 78.1397 89.8683 78.1135 90.1812 78.0568C90.4225 78.0151 90.661 77.958 90.895 77.8857C91.0905 77.8221 91.2568 77.7683 91.3839 77.7145C91.4841 77.6692 91.5918 77.6426 91.7017 77.6363C91.7459 77.6344 91.7899 77.6446 91.8288 77.6657C91.8645 77.6913 91.8918 77.7271 91.907 77.7683C91.9353 77.8351 91.9518 77.9062 91.9559 77.9786C91.9559 78.0666 91.9559 78.179 91.9559 78.3159C91.9615 78.4185 91.9615 78.5213 91.9559 78.6239C91.9537 78.6978 91.9455 78.7714 91.9315 78.8439C91.9241 78.8969 91.9076 78.9482 91.8826 78.9955C91.8599 79.0379 91.8319 79.0773 91.7994 79.1128C91.7103 79.1797 91.6113 79.2325 91.5061 79.2693C91.3082 79.3455 91.1057 79.4092 90.8999 79.46C90.6554 79.5235 90.3718 79.5773 90.0541 79.6262C89.7171 79.6724 89.3773 79.6952 89.0371 79.6946C88.4574 79.7039 87.8799 79.6214 87.3259 79.4502C86.8581 79.3051 86.4341 79.0452 86.0925 78.6943C85.7509 78.3433 85.5026 77.9123 85.3703 77.4408C85.198 76.8603 85.1155 76.2568 85.1259 75.6514C85.1171 75.0549 85.2029 74.4609 85.3801 73.8913C85.5324 73.4021 85.7837 72.9494 86.1183 72.5615C86.442 72.1975 86.8452 71.9131 87.2966 71.7303C87.7927 71.534 88.3228 71.4376 88.8562 71.4468C89.3936 71.4321 89.9285 71.5235 90.4305 71.7157C90.8391 71.8814 91.2051 72.1371 91.5012 72.4637C91.7858 72.7942 91.9944 73.183 92.1123 73.6028C92.2493 74.0662 92.3169 74.5473 92.3128 75.0305L92.3177 75.358ZM90.3132 74.7664C90.3589 74.2853 90.2362 73.8032 89.966 73.4024C89.8279 73.2333 89.6506 73.1005 89.4496 73.0153C89.2485 72.9301 89.0298 72.8952 88.8122 72.9135C88.5757 72.9083 88.3413 72.9585 88.1278 73.0602C87.9376 73.1567 87.7707 73.2935 87.6388 73.4611C87.5066 73.6374 87.4072 73.8361 87.3455 74.0477C87.2759 74.2847 87.2365 74.5294 87.2282 74.7762L90.3132 74.7664Z" fill="#5B585A"/>
<path d="M98.7112 72.591C98.7112 72.7931 98.7112 72.956 98.7112 73.0799C98.7017 73.1803 98.6854 73.2799 98.6623 73.3781C98.6459 73.4337 98.6156 73.4841 98.5743 73.5248C98.5348 73.5537 98.4862 73.5676 98.4374 73.5639C98.3872 73.5627 98.3376 73.5527 98.2907 73.5346L98.105 73.4759C98.0312 73.4505 97.9561 73.4293 97.8801 73.4123C97.7919 73.3921 97.7016 73.3823 97.6112 73.383C97.4917 73.3838 97.3736 73.4087 97.264 73.4563C97.1356 73.5111 97.0155 73.5835 96.9071 73.6715C96.7658 73.7889 96.6379 73.9218 96.5258 74.0675C96.3689 74.2596 96.2251 74.4622 96.0955 74.6737V79.2157C96.0957 79.2694 96.0766 79.3214 96.0418 79.3623C95.9965 79.4108 95.9391 79.4462 95.8755 79.465C95.7716 79.4942 95.6652 79.5138 95.5577 79.5237C95.3949 79.5325 95.2317 79.5325 95.0688 79.5237C94.906 79.5324 94.7428 79.5324 94.5799 79.5237C94.4724 79.5138 94.3661 79.4942 94.2621 79.465C94.1992 79.4448 94.1421 79.4096 94.0959 79.3623C94.0624 79.321 94.045 79.2689 94.047 79.2157V71.8821C94.0466 71.8321 94.0602 71.783 94.0861 71.7403C94.1227 71.6911 94.1741 71.6551 94.2328 71.6376C94.3228 71.6052 94.4164 71.5838 94.5115 71.574C94.6515 71.5651 94.7919 71.5651 94.9319 71.574C95.0769 71.5653 95.2222 71.5653 95.3671 71.574C95.4578 71.5818 95.5468 71.6033 95.6311 71.6376C95.6865 71.6563 95.7345 71.6923 95.768 71.7403C95.7962 71.782 95.8099 71.8318 95.8071 71.8821V72.7914C95.9711 72.5535 96.1525 72.328 96.3498 72.1167C96.4982 71.9605 96.662 71.8197 96.8387 71.6963C96.9773 71.5957 97.133 71.5211 97.2983 71.4763C97.4484 71.4376 97.6028 71.4179 97.7578 71.4176C97.8344 71.4129 97.9111 71.4129 97.9876 71.4176C98.073 71.4262 98.1578 71.4393 98.2419 71.4567C98.32 71.4739 98.3968 71.4968 98.4716 71.5252C98.5236 71.5417 98.5717 71.5683 98.6134 71.6034C98.6428 71.6269 98.6663 71.6571 98.6819 71.6914C98.6985 71.7356 98.71 71.7815 98.7161 71.8283C98.7214 71.9146 98.7214 72.0011 98.7161 72.0874C98.7063 72.239 98.7112 72.3954 98.7112 72.591Z" fill="#5B585A"/>
<path d="M102.208 69.4348C102.241 69.744 102.149 70.0535 101.954 70.2953C101.677 70.4823 101.343 70.5654 101.011 70.53C100.68 70.5691 100.347 70.4875 100.072 70.3002C99.9779 70.1857 99.908 70.0536 99.866 69.9117C99.824 69.7698 99.8109 69.621 99.8273 69.4739C99.7936 69.1639 99.8831 68.8531 100.077 68.6085C100.365 68.4502 100.689 68.3672 101.018 68.3672C101.347 68.3672 101.671 68.4502 101.959 68.6085C102.053 68.7231 102.123 68.855 102.166 68.9968C102.209 69.1386 102.223 69.2874 102.208 69.4348ZM102.052 79.2129C102.052 79.2658 102.034 79.3171 102.003 79.3596C101.955 79.4069 101.896 79.4421 101.832 79.4623C101.73 79.4915 101.625 79.5112 101.519 79.521C101.194 79.552 100.866 79.552 100.541 79.521C100.434 79.5106 100.327 79.491 100.223 79.4623C100.16 79.4421 100.103 79.4069 100.057 79.3596C100.024 79.3182 100.006 79.2661 100.008 79.2129V71.9233C100.007 71.8717 100.024 71.8212 100.057 71.7816C100.103 71.7325 100.16 71.6956 100.223 71.674C100.326 71.6391 100.433 71.6161 100.541 71.6055C100.866 71.5745 101.194 71.5745 101.519 71.6055C101.626 71.6155 101.731 71.6385 101.832 71.674C101.897 71.6957 101.955 71.7326 102.003 71.7816C102.034 71.8222 102.052 71.872 102.052 71.9233V79.2129Z" fill="#5B585A"/>
<path d="M111.503 75.4948C111.509 76.0727 111.426 76.6481 111.258 77.2011C111.099 77.6937 110.838 78.1469 110.491 78.5309C110.145 78.9119 109.715 79.2066 109.234 79.3914C108.672 79.6031 108.075 79.7059 107.474 79.6945C106.896 79.7074 106.319 79.6163 105.773 79.4256C105.318 79.2602 104.907 78.9907 104.575 78.6384C104.248 78.2727 104.008 77.8383 103.871 77.3673C103.711 76.8062 103.633 76.2248 103.641 75.6414C103.635 75.0631 103.719 74.4874 103.89 73.9352C104.043 73.443 104.3 72.9894 104.643 72.6053C104.988 72.2259 105.416 71.9328 105.895 71.7497C106.455 71.5352 107.051 71.4322 107.65 71.4466C108.23 71.4339 108.808 71.5233 109.356 71.7106C109.812 71.8692 110.222 72.1379 110.549 72.4929C110.878 72.8575 111.119 73.2922 111.253 73.764C111.42 74.3257 111.505 74.9088 111.503 75.4948ZM109.376 75.5779C109.379 75.2501 109.351 74.9227 109.293 74.6001C109.243 74.3207 109.144 74.0525 109 73.808C108.867 73.5894 108.68 73.409 108.457 73.2849C108.191 73.149 107.895 73.0834 107.596 73.0942C107.32 73.0892 107.045 73.1477 106.795 73.2654C106.566 73.3765 106.371 73.545 106.227 73.7543C106.072 73.9936 105.959 74.2583 105.895 74.5365C105.819 74.8766 105.783 75.2245 105.787 75.573C105.786 75.901 105.816 76.2283 105.875 76.5508C105.925 76.8302 106.025 77.0984 106.169 77.3428C106.299 77.5623 106.486 77.7416 106.711 77.8611C106.977 77.9925 107.271 78.0563 107.567 78.0469C107.847 78.0524 108.125 77.9939 108.379 77.8757C108.606 77.766 108.801 77.5972 108.941 77.3868C109.1 77.151 109.213 76.8872 109.273 76.6095C109.345 76.2704 109.38 75.9245 109.376 75.5779Z" fill="#5B585A"/>
<path d="M117.824 72.5908C117.833 72.7536 117.833 72.9169 117.824 73.0797C117.819 73.1807 117.803 73.2808 117.775 73.3779C117.762 73.4338 117.733 73.4847 117.692 73.5246C117.652 73.5536 117.604 73.5674 117.555 73.5637C117.505 73.5625 117.455 73.5526 117.408 73.5344L117.222 73.4757C117.149 73.4504 117.073 73.4291 116.997 73.4122C116.909 73.392 116.819 73.3821 116.728 73.3828C116.609 73.3836 116.491 73.4085 116.381 73.4562C116.252 73.5098 116.132 73.5823 116.024 73.6713C115.883 73.7898 115.753 73.9225 115.638 74.0673C115.484 74.2619 115.341 74.4642 115.208 74.6736V79.2155C115.21 79.2687 115.193 79.3208 115.159 79.3622C115.114 79.4106 115.056 79.4461 114.993 79.4648C114.889 79.494 114.783 79.5137 114.675 79.5235C114.35 79.5548 114.022 79.5548 113.697 79.5235C113.59 79.5137 113.483 79.494 113.379 79.4648C113.316 79.4461 113.258 79.4106 113.213 79.3622C113.18 79.3208 113.162 79.2687 113.164 79.2155V71.8819C113.161 71.8316 113.175 71.7818 113.203 71.7401C113.24 71.6909 113.291 71.6549 113.35 71.6374C113.438 71.605 113.53 71.5836 113.624 71.5739C113.766 71.5651 113.908 71.5651 114.049 71.5739C114.194 71.5652 114.339 71.5652 114.484 71.5739C114.575 71.5823 114.664 71.6037 114.748 71.6374C114.804 71.6562 114.852 71.6921 114.885 71.7401C114.911 71.7828 114.925 71.8319 114.924 71.8819V72.7913C115.087 72.5522 115.268 72.3266 115.467 72.1166C115.616 71.9604 115.779 71.8195 115.956 71.6961C116.095 71.5955 116.25 71.521 116.416 71.4761C116.566 71.4374 116.72 71.4177 116.875 71.4174C116.952 71.4129 117.028 71.4129 117.105 71.4174C117.19 71.426 117.275 71.4391 117.359 71.4565C117.437 71.4744 117.514 71.4973 117.589 71.525C117.641 71.5415 117.689 71.5681 117.731 71.6032C117.76 71.6268 117.784 71.6569 117.799 71.6912C117.813 71.7361 117.825 71.7818 117.833 71.8281C117.847 71.9139 117.855 72.0004 117.858 72.0872C117.824 72.2388 117.824 72.3952 117.824 72.5908Z" fill="#5B585A"/>
<path d="M135.393 79.2126C135.393 79.2648 135.378 79.3159 135.349 79.3592C135.309 79.4123 135.252 79.4503 135.188 79.4668C135.084 79.4994 134.978 79.5223 134.87 79.5352C134.707 79.544 134.544 79.544 134.381 79.5352C134.218 79.5442 134.055 79.5442 133.892 79.5352C133.786 79.5229 133.681 79.5 133.579 79.4668C133.515 79.4489 133.459 79.4113 133.418 79.3592C133.385 79.3175 133.368 79.2656 133.369 79.2126V70.5736L130.259 79.2126C130.242 79.2805 130.204 79.3418 130.152 79.3886C130.095 79.4414 130.026 79.48 129.951 79.501C129.846 79.5325 129.738 79.5506 129.629 79.5548C129.497 79.5548 129.34 79.5548 129.14 79.5548C128.977 79.5639 128.814 79.5639 128.651 79.5548C128.541 79.5445 128.433 79.5232 128.328 79.4912C128.255 79.4671 128.187 79.4289 128.128 79.3788C128.079 79.3385 128.045 79.2836 128.03 79.2223L125.062 70.598V79.2126C125.063 79.2648 125.047 79.3159 125.018 79.3592C124.977 79.4136 124.918 79.4517 124.852 79.4668C124.748 79.4989 124.642 79.5218 124.534 79.5352C124.371 79.5443 124.208 79.5443 124.045 79.5352C123.882 79.5442 123.719 79.5442 123.556 79.5352C123.449 79.5223 123.342 79.4994 123.239 79.4668C123.174 79.4503 123.117 79.4123 123.077 79.3592C123.048 79.3159 123.033 79.2648 123.033 79.2126V69.7522C123.025 69.6362 123.041 69.5197 123.078 69.4097C123.116 69.2997 123.176 69.1984 123.253 69.1117C123.332 69.0367 123.425 68.9785 123.526 68.9407C123.628 68.9028 123.737 68.8862 123.845 68.8917H125.253C125.471 68.8884 125.689 68.9081 125.903 68.9504C126.07 68.9878 126.228 69.0575 126.368 69.1557C126.504 69.2568 126.616 69.3871 126.695 69.5371C126.796 69.719 126.873 69.9128 126.925 70.114L129.223 76.4356H129.257L131.633 70.1287C131.694 69.9282 131.773 69.7336 131.868 69.5469C131.943 69.4011 132.044 69.2703 132.166 69.1606C132.28 69.0608 132.416 68.9889 132.562 68.9504C132.737 68.9088 132.916 68.8891 133.095 68.8917H134.562C134.691 68.889 134.82 68.9088 134.943 68.9504C135.044 68.982 135.135 69.0393 135.207 69.1166C135.276 69.1944 135.328 69.2861 135.359 69.3855C135.398 69.5037 135.416 69.6278 135.412 69.7522L135.393 79.2126Z" fill="#5B585A"/>
<path d="M144.341 75.3547C144.358 75.5548 144.298 75.7536 144.175 75.9121C144.115 75.9732 144.042 76.0209 143.962 76.052C143.882 76.0832 143.797 76.0971 143.711 76.093H139.257C139.255 76.3788 139.292 76.6635 139.369 76.9388C139.436 77.1795 139.556 77.4018 139.721 77.589C139.894 77.7728 140.109 77.912 140.347 77.9948C140.642 78.0933 140.951 78.1396 141.261 78.1317C141.579 78.1361 141.897 78.1099 142.21 78.0535C142.45 78.0124 142.687 77.9553 142.919 77.8824C143.119 77.8188 143.285 77.765 143.408 77.7112C143.508 77.6659 143.616 77.6393 143.725 77.633C143.768 77.631 143.811 77.6412 143.848 77.6624C143.886 77.6862 143.916 77.7224 143.931 77.765C143.959 77.8315 143.974 77.9029 143.975 77.9753C143.981 78.0876 143.981 78.2002 143.975 78.3126C143.975 78.4348 143.975 78.5375 143.975 78.6206C143.975 78.7037 143.975 78.7771 143.95 78.8406C143.943 78.8936 143.926 78.9449 143.901 78.9922C143.879 79.0346 143.851 79.074 143.818 79.1095C143.728 79.1753 143.63 79.228 143.525 79.266C143.327 79.3422 143.125 79.4059 142.919 79.4566C142.674 79.5202 142.391 79.574 142.073 79.6229C141.736 79.6691 141.396 79.6919 141.056 79.6913C140.476 79.701 139.899 79.6185 139.345 79.4469C138.879 79.2987 138.456 79.0378 138.115 78.6872C137.774 78.3367 137.525 77.9074 137.389 77.4375C137.219 76.8567 137.138 76.2532 137.15 75.6481C137.141 75.0516 137.227 74.4576 137.404 73.888C137.556 73.3988 137.807 72.9461 138.142 72.5582C138.466 72.1942 138.869 71.9098 139.32 71.727C140.331 71.3585 141.439 71.3585 142.449 71.727C142.859 71.8903 143.226 72.1463 143.52 72.4751C143.804 72.8065 144.014 73.1949 144.136 73.6142C144.271 74.0778 144.337 74.5589 144.332 75.0418L144.341 75.3547ZM142.342 74.7631C142.385 74.2822 142.263 73.8009 141.995 73.3991C141.856 73.2304 141.679 73.0977 141.478 73.0126C141.277 72.9274 141.058 72.8923 140.841 72.9102C140.604 72.9044 140.37 72.9547 140.156 73.0569C139.965 73.151 139.797 73.2882 139.668 73.4578C139.535 73.6341 139.436 73.8328 139.374 74.0444C139.305 74.2816 139.264 74.5261 139.252 74.7729L142.342 74.7631ZM141.188 68.3145C141.266 68.1898 141.388 68.0991 141.53 68.0602C141.632 68.0315 141.737 68.0134 141.843 68.0064C141.996 67.9979 142.15 67.9979 142.303 68.0064C142.5 68.0047 142.698 68.0162 142.894 68.0407C143.003 68.0527 143.109 68.0842 143.207 68.1336C143.234 68.1473 143.257 68.1683 143.272 68.1943C143.288 68.2202 143.296 68.25 143.295 68.2802C143.285 68.3442 143.256 68.4038 143.212 68.4513L141.623 70.3532C141.583 70.4023 141.539 70.4481 141.491 70.4901C141.44 70.5287 141.382 70.557 141.32 70.5732C141.236 70.6002 141.149 70.6166 141.061 70.6221C140.931 70.6308 140.8 70.6308 140.67 70.6221C140.518 70.6235 140.366 70.6154 140.215 70.5977C140.132 70.5893 140.052 70.5626 139.98 70.5194C139.959 70.5041 139.943 70.4831 139.934 70.4588C139.924 70.4346 139.922 70.4081 139.927 70.3825C139.942 70.3151 139.972 70.2517 140.015 70.1967L141.188 68.3145Z" fill="#5B585A"/>
<path d="M152.976 79.2145C152.978 79.2685 152.963 79.3218 152.932 79.3661C152.899 79.4151 152.851 79.4514 152.795 79.4687C152.709 79.5028 152.618 79.5226 152.526 79.5274C152.414 79.5274 152.277 79.5274 152.115 79.5274C151.954 79.5274 151.798 79.5274 151.685 79.5274C151.595 79.5216 151.506 79.5018 151.421 79.4687C151.362 79.4512 151.311 79.4152 151.274 79.3661C151.243 79.3218 151.228 79.2685 151.23 79.2145V78.4029C150.888 78.7793 150.487 79.0979 150.042 79.3465C149.621 79.574 149.148 79.6901 148.669 79.6838C148.178 79.6994 147.691 79.5883 147.256 79.3612C146.875 79.1498 146.551 78.8496 146.312 78.486C146.057 78.0958 145.878 77.6613 145.784 77.2051C145.67 76.6964 145.615 76.1765 145.618 75.6553C145.61 75.0635 145.681 74.4733 145.828 73.9001C145.947 73.424 146.154 72.9745 146.439 72.5751C146.698 72.2149 147.043 71.9244 147.441 71.7293C147.87 71.5267 148.341 71.4263 148.815 71.436C149.201 71.4299 149.583 71.5154 149.93 71.6853C150.293 71.8765 150.623 72.124 150.908 72.4187V68.4585C150.908 68.4042 150.925 68.3514 150.957 68.307C150.998 68.2554 151.054 68.2179 151.118 68.1994C151.221 68.1644 151.328 68.1398 151.436 68.1261C151.598 68.1092 151.761 68.1011 151.925 68.1016C152.088 68.1009 152.251 68.1091 152.414 68.1261C152.52 68.139 152.625 68.1636 152.726 68.1994C152.791 68.2191 152.848 68.2564 152.893 68.307C152.924 68.3514 152.941 68.4042 152.942 68.4585L152.976 79.2145ZM150.922 74.3254C150.68 74.0038 150.395 73.7161 150.077 73.4698C149.832 73.2826 149.534 73.1797 149.226 73.1765C148.979 73.1709 148.737 73.2408 148.532 73.3769C148.335 73.5154 148.176 73.7001 148.067 73.9147C147.946 74.151 147.857 74.4026 147.803 74.6628C147.746 74.9427 147.718 75.2278 147.72 75.5135C147.72 75.8132 147.744 76.1125 147.793 76.4082C147.835 76.676 147.916 76.9363 148.033 77.1806C148.136 77.3972 148.29 77.5852 148.483 77.7282C148.689 77.8714 148.936 77.9435 149.187 77.9336C149.328 77.9344 149.468 77.9129 149.602 77.87C149.747 77.8246 149.884 77.757 150.008 77.6695C150.165 77.5635 150.309 77.4406 150.438 77.3029C150.614 77.1302 150.777 76.9456 150.927 76.7504L150.922 74.3254Z" fill="#5B585A"/>
<path d="M157.279 69.4349C157.311 69.7441 157.22 70.0536 157.024 70.2954C156.747 70.4824 156.413 70.5655 156.081 70.5301C155.75 70.5693 155.417 70.4876 155.142 70.3003C155.048 70.1858 154.978 70.0538 154.936 69.9119C154.894 69.77 154.881 69.6211 154.898 69.474C154.864 69.164 154.953 68.8532 155.147 68.6087C155.423 68.4151 155.76 68.3282 156.095 68.3642C156.425 68.3268 156.757 68.4102 157.029 68.5989C157.124 68.7146 157.195 68.8482 157.238 68.9917C157.281 69.1353 157.295 69.286 157.279 69.4349ZM157.122 79.2131C157.124 79.2663 157.107 79.3184 157.073 79.3597C157.026 79.408 156.967 79.4434 156.902 79.4624C156.8 79.4917 156.695 79.5113 156.589 79.5211C156.264 79.5521 155.937 79.5521 155.611 79.5211C155.505 79.5113 155.401 79.4917 155.298 79.4624C155.234 79.4434 155.175 79.408 155.127 79.3597C155.096 79.3173 155.079 79.2659 155.078 79.2131V71.9235C155.079 71.8721 155.096 71.8223 155.127 71.7817C155.174 71.7316 155.233 71.6946 155.298 71.6741C155.4 71.6386 155.505 71.6156 155.611 71.6057C155.937 71.5747 156.264 71.5747 156.589 71.6057C156.696 71.6156 156.801 71.6386 156.902 71.6741C156.967 71.6946 157.026 71.7316 157.073 71.7817C157.106 71.8213 157.124 71.8718 157.122 71.9235V79.2131Z" fill="#5B585A"/>
<path d="M164.713 78.0593C164.713 78.2011 164.713 78.3233 164.713 78.4162C164.706 78.4982 164.695 78.5798 164.679 78.6606C164.668 78.7144 164.652 78.7669 164.63 78.8171C164.596 78.8759 164.553 78.9288 164.503 78.9735C164.401 79.0646 164.287 79.1419 164.165 79.2033C163.993 79.302 163.811 79.3838 163.623 79.4478C163.407 79.521 163.187 79.5782 162.963 79.6189C162.215 79.747 161.447 79.6796 160.733 79.4233C160.311 79.2555 159.936 78.9889 159.638 78.646C159.331 78.2797 159.102 77.8535 158.968 77.3944C158.812 76.846 158.736 76.2778 158.743 75.7077C158.73 75.0626 158.824 74.4199 159.022 73.8058C159.178 73.3159 159.438 72.8655 159.785 72.4858C160.109 72.1389 160.509 71.8713 160.953 71.7035C161.423 71.532 161.92 71.4459 162.42 71.4493C162.635 71.4492 162.849 71.4688 163.06 71.5079C163.262 71.5433 163.46 71.5956 163.652 71.6644C163.821 71.7233 163.985 71.7969 164.141 71.8844C164.252 71.9438 164.355 72.016 164.449 72.0995C164.498 72.1443 164.54 72.1953 164.576 72.2511C164.602 72.3001 164.62 72.3529 164.63 72.4075C164.646 72.4883 164.657 72.5699 164.664 72.652C164.664 72.7498 164.664 72.8622 164.664 72.9991C164.676 73.2255 164.648 73.4523 164.581 73.6689C164.527 73.796 164.454 73.8596 164.366 73.8596C164.258 73.8554 164.155 73.8159 164.072 73.7471C163.97 73.6689 163.843 73.5858 163.701 73.4929C163.547 73.3919 163.383 73.3067 163.212 73.2387C162.987 73.1554 162.748 73.1155 162.508 73.1213C162.267 73.1109 162.027 73.1625 161.811 73.2712C161.595 73.3799 161.411 73.5421 161.276 73.7422C160.957 74.2931 160.809 74.926 160.851 75.561C160.845 75.9111 160.882 76.2607 160.958 76.6024C161.014 76.8715 161.122 77.1273 161.276 77.3553C161.407 77.5503 161.588 77.7071 161.799 77.81C162.029 77.9159 162.28 77.9678 162.532 77.9615C162.783 77.9665 163.032 77.9233 163.266 77.8344C163.454 77.7588 163.635 77.6637 163.804 77.5508C163.937 77.4633 164.066 77.3687 164.19 77.2673C164.262 77.1972 164.354 77.1526 164.454 77.1401C164.499 77.1392 164.542 77.1549 164.576 77.1842C164.616 77.2263 164.643 77.2788 164.654 77.3357C164.677 77.4288 164.692 77.5237 164.698 77.6193C164.708 77.7301 164.713 77.8768 164.713 78.0593Z" fill="#5B585A"/>
<path d="M173.522 75.4948C173.528 76.0727 173.446 76.6481 173.278 77.2011C173.125 77.692 172.87 78.1451 172.53 78.5309C172.184 78.9119 171.754 79.2066 171.273 79.3914C170.711 79.6031 170.114 79.7059 169.513 79.6945C168.935 79.7074 168.358 79.6163 167.812 79.4256C167.357 79.2602 166.946 78.9907 166.614 78.6384C166.287 78.2727 166.047 77.8383 165.91 77.3673C165.75 76.8062 165.672 76.2248 165.68 75.6414C165.674 75.0631 165.758 74.4874 165.93 73.9352C166.082 73.443 166.339 72.9894 166.682 72.6053C167.027 72.2259 167.456 71.9328 167.934 71.7497C168.494 71.5352 169.09 71.4322 169.689 71.4466C170.269 71.4339 170.847 71.5233 171.396 71.7106C171.851 71.8692 172.261 72.1379 172.588 72.4929C172.917 72.8575 173.158 73.2922 173.293 73.764C173.453 74.3267 173.53 74.9097 173.522 75.4948ZM171.396 75.5779C171.398 75.2501 171.37 74.9227 171.312 74.6001C171.263 74.3207 171.163 74.0525 171.019 73.808C170.887 73.5894 170.7 73.409 170.476 73.2849C170.211 73.149 169.914 73.0834 169.616 73.0942C169.339 73.0892 169.065 73.1477 168.814 73.2654C168.586 73.3765 168.391 73.545 168.247 73.7543C168.091 73.9936 167.979 74.2583 167.915 74.5365C167.838 74.8766 167.802 75.2245 167.807 75.573C167.806 75.901 167.835 76.2283 167.895 76.5508C167.945 76.8302 168.044 77.0984 168.188 77.3428C168.318 77.5623 168.506 77.7416 168.731 77.8611C168.997 77.9925 169.29 78.0563 169.587 78.0469C169.867 78.0524 170.144 77.9939 170.398 77.8757C170.626 77.7646 170.822 77.5961 170.965 77.3868C171.121 77.1496 171.232 76.8863 171.293 76.6095C171.365 76.2704 171.399 75.9245 171.396 75.5779Z" fill="#5B585A"/>
</g>
<defs>
<clipPath id="clip0_6875_13670">
<rect width="174" height="82" fill="white" transform="translate(0 0.5)"/>
</clipPath>
</defs>
</svg>
