<svg width="84" height="83" viewBox="0 0 84 83" fill="none" xmlns="http://www.w3.org/2000/svg">
<g clip-path="url(#clip0_6875_13632)">
<path d="M45.7425 47.5403C45.7177 52.725 37.8663 52.7115 37.8438 47.5403C37.8663 42.3668 45.72 42.3668 45.7425 47.5403Z" fill="#5B585A"/>
<path d="M27.2417 36.4389C28.126 35.0142 31.7018 34.1847 33.8644 34.1328C35.8447 34.338 39.4633 35.9971 39.9516 37.318C39.9403 38.1251 37.6878 39.2499 27.0279 40.5055C26.8456 39.9487 26.2402 37.947 27.2417 36.4389Z" fill="#5B585A"/>
<path d="M55.6652 38.7465C55.2511 38.4219 54.9541 38.3272 53.6106 37.8673C50.6312 36.8507 50.6492 36.8259 50.2598 36.7695C49.0042 36.5869 48.6846 36.8281 47.8812 36.4381C45.3068 35.1623 45.0931 31.0799 42.1496 35.1217C39.6337 37.1978 35.7001 38.0815 27.0115 39.4047L26.6875 40.5025H56.9636C56.6869 39.8161 56.24 39.2117 55.6652 38.7465Z" fill="#5B585A"/>
<path d="M31.3972 35.7802C31.0687 34.5629 32.0723 34.484 34.1404 29.7366C35.0405 27.8499 35.6436 25.4311 36.8813 26.3305C38.164 27.532 41.5058 36.443 42.0391 37.8676C39.2959 39.8694 32.3131 39.0917 31.3972 35.7802Z" fill="#5B585A"/>
<path d="M35.0132 29.7855C34.7071 28.6584 32.2678 33.798 34.1963 29.3775C36.5502 22.4322 38.0219 28.167 39.4059 31.2192C38.7015 31.6205 38.7308 30.065 37.3626 30.1958C34.6711 30.4505 35.5713 31.8639 35.0132 29.7855Z" fill="#5B585A"/>
<path d="M28.209 35.4513C28.9313 34.8765 29.3342 33.6006 31.4427 33.3188C33.5401 32.868 34.0959 33.2083 35.7184 34.1326C37.1113 34.5045 38.5448 35.6497 38.5358 35.9991C38.5223 36.4161 37.4714 36.5604 27.0591 37.2096C26.8835 36.9256 27.2346 36.229 28.209 35.4513Z" fill="#5B585A"/>
<path d="M43.3557 39.0777C44.3188 37.8875 49.7196 38.3654 50.5973 38.9695C48.9793 40.3784 43.1756 39.7495 43.3557 39.0777Z" fill="#5B585A"/>
<path d="M41.2759 35.8229C39.8874 35.7282 34.3853 38.2281 33.5234 38.8931C35.6635 38.821 41.5999 36.0235 41.2759 35.8229Z" fill="#5B585A"/>
<path d="M32.2178 39.5466C31.3469 39.4203 27.3728 39.8441 26.6797 39.9974C28.0659 40.1236 32.3708 39.639 32.2178 39.5466Z" fill="#5B585A"/>
<path d="M43.1412 33.7671C41.2689 35.6562 43.8433 36.0214 45.3397 35.4172C46.762 35.2031 45.9451 33.9475 45.0247 33.3884C44.7101 33.2493 44.3602 33.211 44.023 33.2788C43.6858 33.3466 43.3778 33.5171 43.1412 33.7671Z" fill="#5B585A"/>
<path d="M41.7912 60.1723C21.5674 59.8026 21.5719 21.4222 41.7912 21.0547C62.015 21.4267 62.0105 59.8071 41.7912 60.1723ZM41.7912 21.4943C22.1434 21.855 22.1479 59.3766 41.7912 59.7327C61.4322 59.3743 61.4322 21.8505 41.7912 21.4943Z" fill="#5B585A"/>
<path d="M43.6828 28.0893C43.676 28.1721 43.6383 28.2494 43.5772 28.3057C43.5161 28.362 43.4361 28.3933 43.3531 28.3933C43.2701 28.3933 43.1901 28.362 43.1291 28.3057C43.068 28.2494 43.0303 28.1721 43.0234 28.0893C43.0303 28.0064 43.068 27.9291 43.1291 27.8728C43.1901 27.8165 43.2701 27.7852 43.3531 27.7852C43.4361 27.7852 43.5161 27.8165 43.5772 27.8728C43.6383 27.9291 43.676 28.0064 43.6828 28.0893Z" fill="#5B585A"/>
<path d="M43.7899 30.5049C43.7899 30.5922 43.7553 30.6759 43.6937 30.7376C43.6321 30.7993 43.5485 30.834 43.4614 30.834C43.3742 30.834 43.2907 30.7993 43.229 30.7376C43.1674 30.6759 43.1328 30.5922 43.1328 30.5049C43.1328 30.4176 43.1674 30.3339 43.229 30.2722C43.2907 30.2104 43.3742 30.1758 43.4614 30.1758C43.5485 30.1758 43.6321 30.2104 43.6937 30.2722C43.7553 30.3339 43.7899 30.4176 43.7899 30.5049Z" fill="#5B585A"/>
<path d="M46.3944 28.5296C46.4206 28.5972 46.419 28.6724 46.3899 28.7388C46.3608 28.8052 46.3065 28.8572 46.2391 28.8835C46.1716 28.9098 46.0965 28.9082 46.0303 28.8791C45.964 28.8499 45.912 28.7955 45.8858 28.728C45.8595 28.6604 45.8611 28.5852 45.8902 28.5188C45.9194 28.4524 45.9736 28.4004 46.0411 28.3741C46.1085 28.3478 46.1836 28.3494 46.2499 28.3785C46.3161 28.4077 46.3681 28.4621 46.3944 28.5296Z" fill="#5B585A"/>
<path d="M48.8944 26.5531C48.9206 26.6206 48.919 26.6959 48.8899 26.7623C48.8608 26.8286 48.8065 26.8807 48.7391 26.907C48.6716 26.9333 48.5965 26.9317 48.5303 26.9025C48.464 26.8734 48.412 26.819 48.3858 26.7515C48.3595 26.6839 48.3611 26.6087 48.3903 26.5423C48.4194 26.4759 48.4736 26.4239 48.5411 26.3975C48.6085 26.3712 48.6836 26.3728 48.7499 26.402C48.8161 26.4312 48.8681 26.4855 48.8944 26.5531Z" fill="#5B585A"/>
<path d="M45.5027 30.7329C45.5452 30.7413 45.5855 30.7581 45.6214 30.7821C45.6574 30.8062 45.6883 30.8371 45.7123 30.8731C45.7363 30.9091 45.753 30.9495 45.7615 30.992C45.7699 31.0344 45.77 31.0782 45.7615 31.1206C45.7531 31.1631 45.7364 31.2035 45.7124 31.2395C45.6884 31.2755 45.6575 31.3065 45.6216 31.3306C45.5857 31.3546 45.5453 31.3714 45.5029 31.3798C45.4605 31.3883 45.4169 31.3883 45.3745 31.3799C45.2888 31.3628 45.2134 31.3124 45.1649 31.2397C45.1164 31.167 45.0987 31.0779 45.1157 30.9921C45.1327 30.9063 45.183 30.8308 45.2556 30.7822C45.3282 30.7336 45.4171 30.7159 45.5027 30.7329Z" fill="#5B585A"/>
<path d="M51.7583 51.4961C47.1788 59.8367 36.1633 59.8367 31.5861 51.4961H31.1562C35.8506 60.3191 47.4938 60.3169 52.188 51.4961H51.7583Z" fill="#5B585A"/>
<path d="M62.4271 41.2505L61.9321 41.6608C61.938 41.3655 61.8531 41.0756 61.6888 40.8304C61.5245 40.5852 61.2889 40.3966 61.0139 40.2902L60.8721 40.6306C60.8721 40.2541 60.8586 39.8687 60.8361 39.4742C61.5585 38.3471 63.5658 37.1411 62.1706 35.7322L61.7205 36.1965C61.6932 35.9023 61.5766 35.6236 61.3862 35.3979C61.1959 35.1722 60.9411 35.0103 60.6561 34.9342L60.3861 35.8629C59.1214 33.4058 63.0167 31.661 60.8856 29.9546L60.5684 30.4798C60.4873 30.2126 60.3257 29.9771 60.1058 29.8055C59.8858 29.634 59.6181 29.5349 59.3397 29.5218L59.2069 31.2417C58.6893 30.6647 58.4688 29.8734 58.1042 29.2129C58.0547 27.6553 60.2308 25.4371 58.1785 24.4272L57.9309 25.0133C57.8028 24.7502 57.5969 24.5329 57.3413 24.391C57.0857 24.249 56.7927 24.1893 56.502 24.2198L56.6437 26.0232L55.3543 24.7496C55.344 24.7595 55.3342 24.7701 55.325 24.7811C53.8263 23.4286 55.9866 19.894 53.3537 19.5333L53.3155 20.169C53.1065 19.9654 52.8401 19.8309 52.5524 19.7837C52.2646 19.7366 51.9694 19.779 51.7065 19.9052L52.4289 21.5531C51.5602 20.5612 50.21 19.9751 49.5822 18.8367C49.0083 17.5518 48.9071 15.1669 46.8998 15.6808L47.0865 16.3571C46.7977 16.2206 46.4739 16.1764 46.1591 16.2304C45.8444 16.2844 45.5538 16.4341 45.3268 16.6592L46.677 18.0996L44.7124 17.9238C44.6846 18.1792 44.7195 18.4376 44.814 18.6764C44.9085 18.9153 45.0598 19.1274 45.2548 19.2943L44.7259 19.4409C45.4415 21.7515 48.1375 19.8804 49.6767 19.8917C50.0232 20.1622 50.3968 20.4665 50.7884 20.8047C50.6861 21.0175 50.638 21.2523 50.6482 21.4883C50.6584 21.7243 50.7267 21.954 50.8469 22.1572L50.345 22.1392C50.2033 24.0124 52.6246 23.7577 53.8286 23.8592C54.2231 24.31 54.6147 24.7917 55.0032 25.3041C54.9184 25.5426 54.899 25.7995 54.947 26.048L54.4857 25.8496C53.7251 27.5516 56.0609 28.1467 57.1726 28.6314C57.4336 29.1032 57.6834 29.5917 57.9219 30.0966C57.7027 30.3542 57.5879 30.6848 57.6001 31.0231L57.1951 30.7684C56.2252 32.2629 58.3563 33.1691 59.3217 33.7958C59.5467 34.5442 59.7335 35.3444 59.8797 36.1267L59.3689 35.0491C59.1526 35.145 58.9632 35.2929 58.8175 35.4797C58.6719 35.6665 58.5745 35.8864 58.534 36.1199L58.1695 35.7705C56.4277 37.7001 60.2758 38.8655 60.2646 40.5765C60.2616 40.4975 60.2811 40.4194 60.3208 40.3511C60.3321 40.8988 60.3208 41.4308 60.3006 41.9403L59.7177 40.2474C59.4925 40.3193 59.2884 40.4455 59.1232 40.6149C58.958 40.7843 58.8368 40.9917 58.7703 41.219L58.4463 40.829C56.7585 42.319 59.3982 43.888 59.9383 45.2157C59.8325 45.7973 59.729 46.2842 59.5984 46.7937L59.6165 46.1489C59.3881 46.1362 59.1602 46.1802 58.9529 46.2769C58.7456 46.3737 58.5654 46.5202 58.4283 46.7035L58.2685 46.2414C55.9236 47.1431 58.7186 49.8323 57.9692 51.2998C57.7442 51.798 57.4809 52.2782 57.2176 52.7448L57.4426 51.8431C57.1801 51.7708 56.9038 51.7642 56.6382 51.8239C56.3725 51.8837 56.1256 52.0079 55.9191 52.1858L55.8494 51.6064C53.374 51.9468 54.758 55.0081 54.5689 56.5838C54.1444 57.0947 53.7116 57.5801 53.2705 58.04L53.7903 56.8813C53.5449 56.7631 53.2742 56.7075 53.0021 56.7193C52.7301 56.731 52.4651 56.8099 52.2308 56.9489L52.2646 56.3673C49.8365 56.2479 50.5633 59.388 50.1605 60.8758C49.3819 61.4912 48.6348 62.0232 47.9529 62.4718C47.8134 61.6761 48.4818 59.1107 46.965 59.3046C47.1068 59.9583 46.5465 62.5214 47.5029 62.7626C46.9223 63.1323 46.3979 63.4389 45.9546 63.6801L46.2202 64.1625C46.6702 63.9168 47.1653 63.6237 47.7121 63.2788C47.8359 64.3879 50.4958 63.8604 51.1687 64.0385C51.4117 62.571 49.0128 63.0872 48.232 62.9429C51.1732 59.8749 54.6634 63.1368 55.2755 59.8614L54.5374 59.8163C54.7745 59.5735 54.9313 59.2635 54.9865 58.9284C55.0416 58.5933 54.9925 58.2492 54.8457 57.9431L53.5608 58.5179C55.3408 55.362 59.3914 57.8281 59.4274 54.5166L58.6938 54.6023C58.8836 54.3207 58.9827 53.9876 58.9779 53.6479C58.973 53.3082 58.8645 52.9781 58.6668 52.702L57.3526 53.6037C57.9183 52.6607 58.4219 51.6818 58.8603 50.6732C59.9743 49.9811 62.3079 49.8594 61.7183 47.9952L61.1332 48.2003C61.2382 47.9351 61.2596 47.6441 61.1944 47.3664C61.1292 47.0887 60.9806 46.8376 60.7686 46.6471L59.9833 47.4812C60.3433 46.6111 60.1903 45.5245 60.7799 44.722C61.6553 43.7347 63.6176 42.7428 62.4271 41.2505Z" fill="#5B585A"/>
<path d="M48.2221 65.7695L43.8249 65.1562C43.8028 65.3045 43.8103 65.4557 43.8471 65.601C43.8839 65.7462 43.9493 65.8827 44.0394 66.0023C44.1295 66.122 44.2426 66.2224 44.3719 66.2978C44.5012 66.3731 44.6442 66.4219 44.7926 66.4412L49.1898 67.0544C49.212 66.9062 49.2044 66.7549 49.1676 66.6096C49.1308 66.4644 49.0654 66.328 48.9753 66.2084C48.8852 66.0887 48.7722 65.9882 48.6428 65.9128C48.5135 65.8375 48.3705 65.7888 48.2221 65.7695Z" fill="#5B585A"/>
<path d="M20.3348 41.2514L20.8277 41.6616C20.8217 41.3664 20.9067 41.0765 21.0709 40.8313C21.2352 40.5861 21.4708 40.3974 21.7458 40.2911L21.8876 40.6314C21.8876 40.255 21.9011 39.8695 21.9236 39.475C21.2035 38.3479 19.1939 37.1419 20.5891 35.733L21.0392 36.1974C21.0665 35.9032 21.1832 35.6245 21.3735 35.3987C21.5638 35.173 21.8186 35.0112 22.1036 34.935L22.3737 35.8638C23.6384 33.4066 19.743 31.6619 21.8741 29.9554L22.1914 30.4807C22.2724 30.2134 22.434 29.9779 22.654 29.8064C22.874 29.6348 23.1416 29.5357 23.4201 29.5226L23.5528 31.2426C24.0704 30.6655 24.291 29.8743 24.6555 29.2138C24.705 27.6561 22.5289 25.438 24.5812 24.4281L24.8288 25.0142C24.9569 24.751 25.1628 24.5337 25.4184 24.3918C25.674 24.2498 25.9671 24.1901 26.2578 24.2207L26.116 26.0241L27.4167 24.773C27.427 24.7829 27.4368 24.7934 27.4459 24.8045C28.9447 23.452 26.7843 19.9174 29.4172 19.5567L29.4555 20.1924C29.6649 19.9886 29.9316 19.854 30.2197 19.8068C30.5079 19.7597 30.8035 19.8022 31.0667 19.9286L30.3286 21.5765C31.1973 20.5846 32.5475 19.9985 33.1753 18.8601C33.7491 17.5752 33.8504 15.1902 35.8577 15.7042L35.6709 16.3805C35.9598 16.244 36.2835 16.1998 36.5983 16.2538C36.9131 16.3078 37.2037 16.4575 37.4307 16.6825L36.0805 18.123L38.0451 17.9472C38.0729 18.2026 38.038 18.4609 37.9435 18.6998C37.849 18.9387 37.6977 19.1508 37.5027 19.3177L38.0316 19.435C37.3159 21.7455 34.62 19.8745 33.0808 19.8858C32.7342 20.1563 32.3607 20.4606 31.9691 20.7988C32.0719 21.0114 32.1204 21.2463 32.1102 21.4824C32.1 21.7185 32.0314 21.9483 31.9106 22.1513L32.4057 22.14C32.5497 24.0133 30.1261 23.7586 28.9222 23.86C28.5291 24.3108 28.1375 24.7925 27.7475 25.305C27.8334 25.5432 27.8528 25.8004 27.8037 26.0489L28.2538 25.8505C29.0144 27.5524 26.6786 28.1475 25.5669 28.6322C25.3059 29.1041 25.0561 29.5925 24.8175 30.0974C25.0368 30.3551 25.1516 30.6856 25.1393 31.0239L25.5444 30.7692C26.5143 32.2638 24.3832 33.17 23.4178 33.7966C23.1928 34.545 23.006 35.3453 22.8597 36.1275L23.3706 35.05C23.5869 35.1459 23.7763 35.2938 23.9219 35.4806C24.0676 35.6673 24.165 35.8872 24.2054 36.1207L24.57 35.7713C26.3298 37.6942 22.4839 38.8551 22.5042 40.5661C22.5071 40.4871 22.4876 40.4089 22.4479 40.3406C22.4479 40.8884 22.4479 41.4204 22.4682 41.9299L23.051 40.2369C23.2762 40.3089 23.4804 40.4351 23.6456 40.6045C23.8107 40.7739 23.9319 40.9813 23.9984 41.2085L24.3225 40.8185C26.0102 42.3086 23.3706 43.8775 22.8305 45.2053C22.9362 45.7869 23.0398 46.2738 23.1703 46.7832L23.1523 46.1385C23.3806 46.1258 23.6085 46.1697 23.8158 46.2665C24.0231 46.3632 24.2033 46.5098 24.3405 46.6931L24.5002 46.2309C26.8451 47.1326 24.0502 49.8219 24.7995 51.2894C25.0358 51.7876 25.2879 52.2678 25.5511 52.7344L25.3261 51.8327C25.5886 51.7603 25.8649 51.7537 26.1306 51.8135C26.3962 51.8732 26.6431 51.9975 26.8496 52.1753L26.9194 51.596C29.3947 51.9364 28.013 54.9976 28.1998 56.5733C28.6244 57.0843 29.0572 57.5697 29.4982 58.0296L28.9784 56.8709C29.2238 56.7527 29.4946 56.697 29.7666 56.7088C30.0387 56.7206 30.3036 56.7995 30.5379 56.9385L30.5042 56.3569C32.9323 56.2374 32.2054 59.3776 32.6082 60.8654C33.3868 61.4808 34.134 62.0128 34.8158 62.4614C34.9553 61.6656 34.287 59.1003 35.8037 59.2942C35.6619 59.9479 36.2223 62.511 35.2659 62.7522C35.8487 63.1219 36.373 63.4284 36.8141 63.6696L36.5486 64.152C36.0985 63.9063 35.6034 63.6133 35.0566 63.2684C34.9328 64.3775 32.2729 63.85 31.6001 64.0281C31.357 62.5606 33.7559 63.0768 34.5368 62.9325C31.5956 59.8645 28.1053 63.1264 27.4932 59.851L28.2313 59.8059C27.9942 59.5631 27.8374 59.2531 27.7823 58.918C27.7271 58.5828 27.7762 58.2388 27.923 57.9326L29.208 58.5074C27.4279 55.3515 23.3773 57.8177 23.3413 54.5062L24.0749 54.5919C23.8852 54.3103 23.786 53.9772 23.7909 53.6375C23.7957 53.2977 23.9042 52.9676 24.1019 52.6915L25.4184 53.5932C24.8511 52.6508 24.3467 51.6719 23.9084 50.6627C22.7832 49.9707 20.4609 49.849 21.0505 47.9847L21.6378 48.1899C21.5318 47.9248 21.5099 47.6335 21.5752 47.3556C21.6404 47.0777 21.7896 46.8266 22.0024 46.6367L22.7855 47.4708C22.4254 46.6006 22.5784 45.5141 21.9888 44.7116C21.1067 43.7355 19.1422 42.7436 20.3348 41.2514Z" fill="#5B585A"/>
<path d="M34.5336 65.7695L38.924 65.1562C38.9462 65.3045 38.9387 65.4557 38.9019 65.601C38.865 65.7462 38.7997 65.8827 38.7095 66.0023C38.6194 66.122 38.5064 66.2224 38.3771 66.2978C38.2478 66.3731 38.1047 66.4219 37.9564 66.4412L33.5592 67.0544C33.537 66.9057 33.5448 66.754 33.5821 66.6083C33.6193 66.4627 33.6853 66.326 33.7761 66.2062C33.8669 66.0865 33.9807 65.9862 34.1108 65.9112C34.2409 65.8362 34.3846 65.788 34.5336 65.7695Z" fill="#5B585A"/>
<path d="M26.9313 9.60631C26.1459 7.37011 24.1724 8.28308 25.4348 10.3254C26.2292 12.5729 28.1937 11.6486 26.9313 9.60631Z" fill="#5B585A"/>
<path d="M46.8421 74.2127C46.8412 74.1544 46.8263 74.0972 46.7987 74.0459C46.771 73.9947 46.7315 73.9508 46.6834 73.9181C46.6353 73.8854 46.58 73.8648 46.5222 73.858C46.4645 73.8512 46.4059 73.8583 46.3516 73.879L46.9389 77.5488C47.308 77.5353 47.3417 77.2987 47.2742 76.92L46.8421 74.2127Z" fill="#5B585A"/>
<path d="M35.3281 5.34279L35.8232 8.61142C38.096 8.69483 37.4637 4.64398 35.3281 5.34279Z" fill="#5B585A"/>
<path d="M41.5625 77.0329L42.1566 77.0216L41.8235 74.9297L41.5625 77.0329Z" fill="#5B585A"/>
<path d="M6.37609 36.6638C8.66019 37.3401 9.06075 35.1985 6.67088 35.0295C4.40254 34.3555 3.98397 36.4925 6.37609 36.6638Z" fill="#5B585A"/>
<path d="M13.4434 57.9844L10.2344 59.8486C10.3784 60.1912 10.6124 60.1371 10.941 59.9365L13.3083 58.5614C13.3624 58.54 13.4105 58.5058 13.4485 58.4617C13.4865 58.4177 13.5133 58.365 13.5266 58.3083C13.5399 58.2516 13.5392 58.1925 13.5247 58.1361C13.5102 58.0797 13.4823 58.0276 13.4434 57.9844Z" fill="#5B585A"/>
<path d="M22.6478 68.1523L21.3516 69.9872C21.5766 70.1969 21.7881 70.154 21.9727 69.8655C22.1032 69.5138 23.3544 68.4341 22.6478 68.1523Z" fill="#5B585A"/>
<path d="M27.8683 71.4463C27.8683 71.4644 26.3245 74.7443 26.4888 74.6473C26.8579 75.5648 28.082 71.7168 28.2463 71.6695C28.4669 71.284 28.0123 71.1059 27.8683 71.4463Z" fill="#5B585A"/>
<path d="M25.2595 69.8477L24.3594 71.4256C24.6114 71.606 24.7667 71.5902 25.0052 71.1799C25.1335 70.8328 25.9054 70.0708 25.2595 69.8477Z" fill="#5B585A"/>
<path d="M17.4343 67.4712L18.654 65.7422L17 67.0632L17.4343 67.4712Z" fill="#5B585A"/>
<path d="M55.9034 73.9211L56.4412 73.6686L55.2891 71.8945L55.9034 73.9211Z" fill="#5B585A"/>
<path d="M76.0859 36.3027C73.7095 36.3501 73.966 38.5096 76.2974 37.9506C78.6647 37.919 78.4217 35.7437 76.0859 36.3027Z" fill="#5B585A"/>
<path d="M63.2633 69.4514L63.7246 69.0727L62.1719 67.6367L63.2633 69.4514Z" fill="#5B585A"/>
<path d="M68.9534 17.2266L66.4375 19.3681C67.5649 21.3496 70.6614 18.6783 68.9534 17.2266Z" fill="#5B585A"/>
<path d="M0 41.4979C0.924891 96.1629 82.1061 96.1719 83.0377 41.4979C82.1128 -13.1626 0.931642 -13.1693 0 41.4979ZM77.4276 29.9856L77.8259 29.839L78.3547 31.2817L76.1832 32.082L75.6341 30.5829C76.8898 29.573 75.8861 28.0131 74.1083 28.8742C71.9975 29.4738 72.5331 31.5793 74.5269 31.1284L74.5562 32.889C71.993 33.4954 70.2805 29.8187 71.2752 27.9027C72.8616 24.5055 78.4718 26.2413 77.4276 29.9856ZM76.649 40.7089C72.4116 41.3694 71.3764 33.9665 75.7331 33.545C80.0267 32.9341 80.9381 40.2626 76.649 40.7089ZM73.5863 20.8131L75.4045 23.969L74.0903 24.7264L73.8113 24.2283L70.9511 25.8784L71.2414 26.3833L69.9272 27.143L68.1089 23.9871L69.4231 23.2296L69.7157 23.7391L72.5781 22.0913L72.2833 21.5795L73.5863 20.8131ZM69.9474 41.3401C69.3061 78.9676 13.4346 78.9609 12.7887 41.3401C13.4481 3.7148 69.3106 3.71931 69.9564 41.3401H69.9474ZM68.1854 13.9738L70.168 16.3092C74.2501 20.2045 68.415 25.2314 65.287 20.351L63.3562 18.0832L64.5106 17.1004L64.8369 17.4836L67.3506 15.3421L67.0265 14.9589L68.1854 13.9738ZM61.8845 9.06633L66.7677 12.743L65.5525 14.366L64.2023 13.3584L64.5084 12.9504L63.3449 12.078L62.7621 12.8579L63.7725 13.6176L63.0096 14.6501L61.997 13.8904L61.3759 14.7244L62.5371 15.6036L62.8431 15.1933L64.1933 16.201L62.9781 17.8263L58.0904 14.1564L58.9905 12.9391L59.3866 13.2389L61.3669 10.5925L60.9618 10.2881L61.8845 9.06633ZM49.7011 8.79582L50.1512 8.98292L51.4046 5.92394L50.9388 5.73233L51.5194 4.33246L55.0862 5.79996L55.0277 8.42388L56.8504 6.52582L60.3947 7.9843L59.8187 9.38868L59.3551 9.19708L58.1016 12.2561L58.5787 12.4522L58.0026 13.8566L54.9084 12.5829L55.4845 11.1785L55.9571 11.3724L57.3073 8.09476L53.6009 12.0419L52.7188 11.679L52.8516 6.30941L51.5329 9.54648L51.983 9.7426L51.4069 11.147L49.125 10.1934L49.7011 8.79582ZM40.7627 7.99557L41.2578 8.03164L41.4828 4.73371L40.9765 4.69764L41.0845 3.1828L47.1762 3.60885L47.0344 5.63765L45.3624 5.52043L45.3962 5.01098L43.9492 4.90954L43.8817 5.87886L45.1442 5.96677L45.0541 7.25619L43.7917 7.16602L43.7197 8.20522L45.1689 8.30666L45.2049 7.7972L46.8769 7.91442L46.7374 9.94322L40.6615 9.51718L40.7627 7.99557ZM35.1864 3.82976C40.6412 2.40058 41.8384 10.0176 36.0505 10.1145L33.1116 10.5654L32.8865 9.06408L33.3839 8.98969L32.8888 5.72106L32.3937 5.79545L32.1687 4.29413L35.1864 3.82976ZM29.4322 8.40359C31.39 12.2245 24.7065 15.5382 22.931 11.528C21.0025 7.63715 27.659 4.46546 29.4322 8.40359ZM20.4781 9.51718L21.3625 10.7502L20.9124 11.0703C22.2627 13.4238 26.4168 16.5143 22.2176 18.3808L21.3175 17.1184C22.0624 16.7961 21.7136 16.4422 21.241 15.7659L18.9029 12.5153L18.4258 12.8602L17.5414 11.6271L20.4781 9.51718ZM16.4275 12.4477L17.8565 13.8859L16.6525 15.0829L16.2925 14.7199L15.2641 15.7456L15.9504 16.4377L16.8506 15.536L17.7507 16.4512L16.8506 17.3529L17.5887 18.0832L18.6193 17.0576L18.2593 16.6946L19.4475 15.5089L20.8764 16.9561L16.5558 21.264L15.4846 20.1887L15.8379 19.837L13.5021 17.4926L13.151 17.8578L12.0821 16.7803L16.4275 12.4477ZM10.5429 19.5485L10.2211 19.3231L11.0447 18.1306L12.5277 19.1585L11.713 20.3375C11.0807 20.0444 10.059 20.7568 10.6306 21.2888C11.1077 21.5615 12.6559 20.2856 13.0542 20.2586C15.8784 19.3141 16.6345 23.5543 13.9881 24.2891L14.3279 24.5146L13.5021 25.7115L11.8346 24.5529L12.6537 23.3672C14.4 23.9127 14.427 21.3383 12.6334 22.7563C9.67648 25.157 7.2011 20.9303 10.5429 19.5485ZM5.74063 27.3459L9.70348 26.5321L8.05848 25.8152L7.85145 26.2931L6.46074 25.6867L7.48915 23.3176L8.87986 23.9239L8.65482 24.4357L13.1555 26.3923L12.3161 28.3242L7.72993 29.2687L9.77549 30.1704L10.0005 29.6497L11.3867 30.2561L10.3516 32.6568L8.94962 32.0594L9.17465 31.5432L6.14794 30.2245L5.92291 30.7407L4.53444 30.1343L5.74063 27.3459ZM7.1606 32.2849C11.398 32.9318 10.1626 40.3054 5.8824 39.3924C1.60224 38.6891 2.92545 31.426 7.1606 32.2849ZM3.19549 42.2869L2.77242 42.3072L2.70041 40.772L5.00927 40.6638L5.08353 42.2598C3.58255 42.8437 4.07087 44.6313 6.02417 44.3495C8.21826 44.4126 8.34428 42.2553 6.30546 42.0682L6.80729 40.382C9.43119 40.5759 9.95777 44.5952 8.43654 46.1258C5.90265 48.8917 1.07341 45.542 3.19549 42.2869ZM9.06664 55.2284C9.02613 55.1472 8.89336 54.9466 9.03063 54.9105C10.3808 54.5296 9.69448 55.0593 10.4123 55.6319C10.7769 56.0827 9.77099 55.9858 9.58872 56.0151C9.39969 55.9475 9.36368 55.5169 9.28042 55.3884C9.24666 55.278 9.14315 55.278 9.06664 55.2284ZM10.1265 60.2373C10.1265 60.1899 9.34118 58.9614 9.39969 58.9276C9.56621 58.6548 9.79125 58.9276 9.99603 58.8284L12.8 57.1963C12.8292 57.1738 12.836 57.1332 12.8225 57.0723C12.7685 56.9348 12.9845 56.8108 13.1015 56.8131C13.4638 57.4015 14.3054 58.3437 13.8824 59.1056C13.3985 60.0344 10.9232 61.5898 10.1265 60.2373ZM13.6551 62.1038C13.8554 61.9437 13.7181 61.84 13.6191 61.6958L12.1114 62.7575C12.2779 63.1768 12.6402 62.8409 13.0115 62.8319C13.5583 63.1204 12.7099 63.3256 12.5164 63.4563C12.3454 63.5194 12.3364 63.5938 12.2374 63.4563L11.2112 61.9911C11.1437 61.8806 11.2112 61.8806 11.3215 61.7859C11.4317 61.6912 11.6095 61.9099 11.7108 61.8085L14.445 59.8856C14.5012 59.8653 14.427 59.6602 14.4585 59.6129C14.49 59.5655 14.697 59.3514 14.7578 59.5182C14.7735 59.6354 15.9707 61.0082 15.7187 61.0961C15.5904 61.1412 15.1898 61.8693 15.0436 61.5921C14.751 61.2427 15.5409 60.9406 15.1291 60.6182L13.8779 61.4996C13.9679 61.6191 14.0354 61.8017 14.2177 61.6822C14.4607 61.4929 14.58 61.7025 14.625 61.831C14.625 61.9099 13.8599 62.3833 13.7991 62.4464C13.6101 62.5952 13.4143 62.2323 13.6483 62.1015L13.6551 62.1038ZM15.1021 66.8985C15.0886 66.7903 13.6528 65.5234 13.9476 65.413C14.1187 65.2169 14.2447 65.5009 14.4472 65.271L16.8056 63.1317C16.9091 63.0641 16.8056 62.9063 16.8348 62.8364C16.8641 62.7665 17.0419 62.5524 17.1251 62.6854C17.1409 62.7417 18.05 63.6411 17.9915 63.6953C17.8362 64.0424 17.6562 63.7629 17.4537 63.8914L14.886 66.2132C15.1111 66.6055 15.4149 66.2132 15.7659 66.1614C16.3375 66.4296 15.5026 66.7114 15.3158 66.894C15.2101 66.9549 15.1786 66.9842 15.0953 66.8963L15.1021 66.8985ZM17.4289 69.1527C15.9257 67.7168 16.666 68.6523 17.2466 67.7123L16.7606 67.2614C16.558 67.426 16.3105 67.5342 16.4275 67.834C16.2475 68.3006 15.8762 67.6221 15.6849 67.5162C15.6309 67.2907 16.0315 67.302 16.153 67.2186L18.6734 65.2574C18.8849 65.165 18.7139 64.9982 18.8444 64.8472C18.9546 64.748 18.9636 64.6758 19.0694 64.7592C19.5195 65.3093 20.2283 65.3634 19.506 66.1366L17.8025 68.5779C17.6449 68.7605 17.7372 69.27 17.4222 69.155L17.4289 69.1527ZM21.1802 70.2348L20.6582 70.9674C20.5321 71.1635 20.8202 71.4182 20.5164 71.549C20.4871 71.5986 19.4632 70.8141 19.416 70.7983C19.3012 70.751 19.497 70.5053 19.5397 70.4782C19.623 70.4467 19.7648 70.5639 19.8075 70.4376L21.6776 67.7912C21.7811 67.692 21.5966 67.5274 21.6776 67.4125C21.7383 67.3403 21.7991 67.1577 21.9026 67.2637L23.0278 68.0594C24.6008 69.1099 22.5034 71.6572 21.1735 70.237L21.1802 70.2348ZM24.729 73.9317C24.6368 74.0669 24.6503 74.1256 24.5197 74.0579C24.378 73.9272 23.7321 73.7423 23.7861 73.4696C23.7141 72.9624 25.0013 72.0133 24.207 71.682L23.5454 72.8361C23.4508 72.9984 23.5971 73.2599 23.3856 73.3636C23.3608 73.4425 22.3437 72.7865 22.2964 72.782C22.1749 72.7234 22.3572 72.4169 22.4494 72.4462C22.6497 72.6964 24.1529 69.6464 24.2497 69.5923C24.3465 69.4503 24.2497 69.3669 24.1935 69.2654C24.1935 69.1865 24.3622 68.9386 24.4432 69.0265C24.9158 69.3691 26.1355 69.7614 26.2435 70.4444C26.4685 71.2176 25.7687 72.1779 24.8798 71.8916C25.6989 72.5634 24.7538 73.2239 24.7223 73.9339L24.729 73.9317ZM26.4708 75.0453C24.8596 74.1684 26.6126 70.352 28.3228 70.9989C29.9296 71.9142 28.2103 75.699 26.464 75.0475L26.4708 75.0453ZM29.8306 76.3775C29.6415 76.2626 29.1555 76.3054 29.2995 75.9267L29.8126 72.3312C29.8688 72.1689 29.673 72.1058 29.7203 71.9615C29.7653 71.8961 29.7653 71.7158 29.8688 71.7361L31.0187 72.1373C31.0998 72.2027 31.03 72.2545 30.9827 72.4078C30.5642 72.3582 30.5057 74.4907 30.3931 74.7184L31.4621 72.897C31.5791 72.7753 31.3743 72.64 31.3608 72.5318C31.4103 72.4439 31.4081 72.2703 31.5206 72.3064L32.1462 72.5318C32.2587 72.5499 32.1034 72.8023 32.0989 72.8452C31.9436 72.9308 31.9054 72.9038 31.8064 73.0999L30.0061 76.1634C29.9633 76.1994 29.8981 76.4406 29.8238 76.3798L29.8306 76.3775ZM32.7965 76.9839C32.7605 77.0696 32.7763 77.2296 32.6435 77.1643L31.3833 76.8216C31.2415 76.7968 31.4148 76.5195 31.4013 76.5195C31.4643 76.4497 31.6803 76.5015 31.6893 76.3708L32.5197 73.296C32.6412 73.0706 32.3532 73.03 32.3937 72.8452C32.4207 72.7798 32.4207 72.604 32.5377 72.6513C32.6187 72.7324 34.0275 72.906 33.8519 73.1427C33.8317 73.4515 33.5616 73.2306 33.5009 73.4966L32.6592 76.6075C32.5962 76.7607 32.8708 76.8261 32.7898 76.9862L32.7965 76.9839ZM36.3971 73.8483C36.3093 73.9159 36.172 73.8844 36.172 74.0196L35.4317 77.7594L34.9816 77.6692L34.4303 75.0611L34.0545 76.9185C34.0479 76.9576 34.0536 76.9977 34.071 77.0333C34.0884 77.0689 34.1164 77.0981 34.1512 77.1169C34.3042 77.1823 34.194 77.4596 34.1827 77.4934C34.1715 77.5272 33.4514 77.3513 33.4041 77.3604C33.2961 77.3198 33.3591 77.2499 33.3749 77.1034C33.3906 76.9569 33.6291 77.0065 33.6269 76.9028C33.6246 76.7991 34.4393 73.4673 34.1805 73.5079C33.8114 72.8925 34.7228 73.2216 34.9726 73.2577L35.4497 75.4871L35.749 73.9723C35.7985 73.8348 35.6139 73.7694 35.5734 73.6702C35.4519 73.1585 36.1878 73.5575 36.4083 73.544C36.4781 73.5372 36.4286 73.8077 36.3971 73.8505V73.8483ZM38.7329 73.9835C38.7037 74.1188 38.7329 74.9326 38.6429 75.0272C38.3976 75.1197 38.3009 74.9529 38.3009 74.6666C38.3009 74.0264 37.9273 73.7649 37.8508 74.4411C37.9138 74.6282 37.2522 77.7954 37.6393 77.7571C37.8643 77.8405 37.9093 77.3063 38.0263 77.0966C38.1456 77.0132 38.4764 77.0515 38.4066 77.2882C37.6325 79.3509 36.1135 77.1237 36.5748 75.681C36.6604 74.7297 37.1847 73.2013 38.2491 73.7919C38.3481 73.9272 38.4246 73.7175 38.5236 73.7175C38.6902 73.7378 38.7622 73.7626 38.7329 73.988V73.9835ZM40.3082 74.475L40.1394 77.694C40.1169 77.8563 40.3982 77.8631 40.3644 78.0366C40.3464 78.1268 40.3959 78.2801 40.2542 78.2418L38.949 78.1741C38.8049 78.1741 38.9152 77.8743 38.9017 77.8766C38.9512 77.7954 39.1717 77.7999 39.1515 77.6692L39.318 74.4885C39.3878 74.2405 39.093 74.2631 39.093 74.0715C39.1065 74.0038 39.0682 73.8325 39.1942 73.846C39.2888 73.9091 40.7042 73.7807 40.5827 74.0489C40.6255 74.3645 40.3149 74.2135 40.3127 74.4772L40.3082 74.475ZM43.3236 78.2305C41.2466 78.253 42.4235 78.4041 42.1985 77.3288L41.5234 77.3423C41.4941 77.6016 41.3996 77.8473 41.6854 77.987C41.8812 78.4379 41.143 78.2125 40.9315 78.2801C40.729 78.1471 41.0305 77.8834 41.0598 77.7368L41.4941 74.5809C41.5841 74.3555 41.3433 74.3668 41.3321 74.1684C41.3321 74.0196 41.2983 73.961 41.4288 73.943C42.1399 74.0173 42.68 73.562 42.7025 74.6192L43.1976 77.5497C43.2066 77.7909 43.6342 78.093 43.3281 78.2328L43.3236 78.2305ZM47.2572 77.7932C47.2212 77.7932 45.7743 78.0614 45.7765 78.0028C45.583 77.7481 45.9228 77.6376 45.898 77.4077L45.3849 74.1999C45.3737 74.1661 45.3377 74.1436 45.2769 74.1368C45.1307 74.1368 45.0924 73.8911 45.1352 73.7807C45.8103 73.6544 46.9939 73.2058 47.552 73.8753C48.2496 74.6643 48.8077 77.5272 47.2572 77.7932ZM51.0153 76.9862L49.2825 77.419C49.1565 77.4415 49.179 77.3829 49.1318 77.2409C49.0845 77.0989 49.3568 77.0155 49.2938 76.8847L48.4859 73.6386C48.4859 73.5778 48.2609 73.571 48.2361 73.5259C48.2114 73.4808 48.0809 73.2103 48.2564 73.2126C48.3711 73.2419 50.0814 72.6152 50.0792 72.8857C50.0927 72.9331 50.4077 73.562 50.4077 73.5913C50.0071 74.103 49.8721 72.9669 49.4221 73.2622L49.7911 74.7477C49.9351 74.7094 50.1309 74.7094 50.0859 74.4975C49.9959 74.2022 50.2344 74.1661 50.3695 74.1706C50.4437 74.2022 50.6102 75.0836 50.6462 75.1625C50.707 75.3879 50.2997 75.433 50.2614 75.1625C50.1849 74.919 50.0364 75.007 49.8676 75.0475L50.3177 76.8509C50.887 76.8802 50.4302 76.1025 50.8623 75.9492C51.2021 75.8298 51.0401 76.5714 51.1121 76.7224C51.1076 76.905 51.1728 76.9388 51.0176 76.9862H51.0153ZM54.0195 75.9064C53.9723 76.0011 53.9115 76.1814 53.736 76.1544C53.6842 76.1544 53.2679 75.3226 53.2274 75.2797C53.1329 75.0949 53.0609 75.0836 53.2431 74.9957C53.628 74.7996 54.051 75.8072 54.3211 75.5863C54.5956 75.4353 54.3661 75.1467 54.1725 74.9731C53.1599 74.4231 50.8443 71.8736 53.1531 71.8398C53.1869 71.7068 53.2206 71.5535 53.4389 71.549C53.4997 71.549 53.9272 72.3898 53.9723 72.4394C54.1455 72.6197 53.808 72.6964 53.7 72.6851C53.5469 72.5769 52.9754 71.9705 52.8651 72.1148C52.4938 72.5656 54.3458 73.58 54.4763 73.9069C55.1514 74.52 55.2504 76.1318 54.0218 75.9064H54.0195ZM57.9959 74.3014C56.1078 75.1693 57.251 74.8244 56.5917 73.9362L55.9908 74.2135C56.0673 74.4637 56.0808 74.7274 56.3981 74.7365C56.7649 75.0768 55.9976 75.1715 55.831 75.3113C55.5903 75.2752 55.759 74.91 55.7253 74.7658L54.8386 71.6955C54.8386 71.4701 54.6136 71.5602 54.5213 71.3844C54.4696 71.2447 54.4066 71.2086 54.5213 71.1455C55.1964 70.92 55.507 70.2866 55.9593 71.2447L57.6066 73.7243C57.7146 73.9452 58.2209 74.0489 57.9981 74.3014H57.9959ZM60.1157 73.1134L57.9846 71.5084L58.9298 73.1495C58.9503 73.1838 58.9812 73.2107 59.0181 73.2261C59.0549 73.2415 59.0958 73.2447 59.1345 73.2351C59.2898 73.1833 59.3888 73.4606 59.4023 73.4989C59.4158 73.5372 58.761 73.8731 58.7272 73.9114C58.6192 73.952 58.6215 73.8573 58.536 73.7378C58.4504 73.6184 58.6642 73.4966 58.5945 73.4222C58.5247 73.3478 56.9495 70.3001 56.7807 70.4917C56.1056 70.2663 57.0057 69.9192 57.2128 69.7817L59.0378 71.1455L58.2682 69.8087C58.2142 69.6712 58.0319 69.7433 57.9374 69.6983C57.5098 69.3917 58.3244 69.2068 58.4819 69.0513C58.5315 69.004 58.671 69.2361 58.6755 69.288C58.653 69.3984 58.5269 69.4661 58.6125 69.572L60.5118 72.8767L60.1157 73.1134ZM62.6923 71.4227C62.5483 71.4408 61.6189 72.3808 61.5312 72.0111C61.3759 71.8353 61.6324 71.7564 61.5019 71.6031L59.5126 68.7289C59.1638 68.8619 59.5981 69.2249 59.6161 69.5066C59.3303 70.0364 59.0625 69.1978 58.896 69.0062C58.5585 68.8236 60.5905 67.6537 60.6715 67.5838C60.9037 67.808 61.1043 68.0628 61.2679 68.3412C61.2071 68.4877 61.0068 68.6117 60.8808 68.4246C60.7053 68.2803 60.5185 67.9873 60.3317 68.1586C60.5028 68.2713 62.3098 71.3619 62.6046 71.0891C62.6811 71.1635 62.8724 71.3506 62.6946 71.4227H62.6923ZM65.3928 69.3015C63.7748 70.6067 64.7987 69.9936 63.9435 69.3015L63.426 69.723C63.5632 69.9485 63.6397 70.1987 63.9503 70.1311C64.3868 70.37 63.6667 70.6518 63.5385 70.8276C63.2977 70.8502 63.3719 70.4557 63.3134 70.3227L61.7022 67.5635C61.6392 67.3381 61.4502 67.4891 61.3174 67.3381C61.2341 67.2164 61.1644 67.1961 61.2589 67.1127C61.862 66.7294 62.0082 66.0396 62.6788 66.8579L64.8842 68.8597C65.0349 69.0287 65.5413 69.004 65.3883 69.3015H65.3928ZM65.6178 66.0464C64.9067 65.4085 63.9908 64.0717 65.1025 63.5668C65.269 63.5668 65.1497 63.3819 65.2082 63.3008C65.3207 63.1655 65.3792 63.1182 65.5458 63.2805C65.638 63.3842 66.3086 63.8418 66.3266 63.9748C66.2546 64.2295 66.0634 64.2002 65.8361 64.0356C65.3162 63.6592 64.8909 63.7989 65.386 64.2746C65.5728 64.3355 67.7151 66.7542 67.9154 66.4229C68.1179 66.2921 67.7084 65.9314 67.6183 65.7173C67.6183 65.5708 67.8434 65.3273 67.9987 65.5279C69.1778 67.3877 66.4842 67.2795 65.6065 66.0464H65.6178ZM70.7103 63.5352C70.5595 63.6569 70.2783 64.2678 70.0172 64.1731C69.5064 64.1731 68.7638 62.753 68.3182 63.4969L69.3579 64.3242C69.5041 64.4437 69.7832 64.3377 69.8529 64.5654C69.9272 64.5992 69.1261 65.5099 69.1148 65.555C69.0383 65.6677 68.7638 65.4378 68.8065 65.3521C69.0856 65.1921 66.3019 63.2444 66.2614 63.1362C66.1376 63.0167 66.0364 63.1024 65.9306 63.1362C65.8541 63.1227 65.6335 62.9108 65.7326 62.8544C66.1421 62.4374 66.7115 61.2877 67.4046 61.2765C68.2012 61.1705 69.0428 62.0091 68.6265 62.8544C69.4096 62.1443 69.9204 63.1881 70.6158 63.3188C70.7238 63.4225 70.7846 63.418 70.6991 63.5352H70.7103ZM68.1157 60.6611C68.0324 60.5844 67.9131 60.6813 67.8321 60.6994C67.7241 60.6408 67.5013 60.5551 67.6071 60.4199C67.7354 60.3522 68.2304 59.1552 68.4487 59.4776C68.3925 59.7842 70.9241 61.3058 71.1671 61.4906C72.8324 61.6755 68.964 59.5317 68.9348 59.428C68.8043 59.3356 68.3385 59.4889 68.424 59.1868C68.6175 58.9749 68.721 58.4113 69.0676 58.8149C69.1216 59.534 71.939 60.4785 71.993 61.2697C71.8557 63.8959 69.0541 61.1638 68.1044 60.6611H68.1157ZM72.6861 60.4627C72.5781 60.3906 69.7607 57.7711 69.6572 57.6877C69.3736 57.9492 69.7562 58.1949 69.9339 58.4632C69.8912 59.1395 69.2588 58.2851 69.0338 58.1927C69.0856 58.1927 69.8484 56.5448 69.9339 56.7049C69.9789 56.7522 72.8999 59.3604 72.9449 59.41C73.395 58.9231 72.3418 58.7855 72.7941 58.3392C72.8864 58.3076 73.4895 58.8667 73.584 58.9118C73.5435 58.9433 72.7649 60.4852 72.6861 60.4627ZM73.611 55.8979C73.5817 55.9835 73.5322 56.218 73.4107 56.1459C72.1933 55.4335 73.0552 55.562 72.9607 54.6468C73.0282 54.0742 73.6628 54.8722 73.809 54.9759C73.8923 55.1562 73.6065 55.4809 73.584 55.6319C73.53 55.7288 73.5863 55.8212 73.6155 55.9024L73.611 55.8979ZM79.3584 46.7502L77.5581 46.6195L77.6616 45.1903C78.3547 45.1204 78.8746 43.9866 78.1117 43.8197C77.5626 43.8197 76.8718 45.7178 76.5477 45.941C74.5944 48.1952 71.7927 44.9266 73.6965 42.9474L73.2847 42.9158L73.3882 41.4799L75.4135 41.6264L75.31 43.0646C73.5277 43.4839 74.8127 45.7178 75.6363 43.5808C76.9685 40.0056 81.2464 42.3815 79.0703 45.2737L79.4597 45.303L79.3584 46.7502Z" fill="#5B585A"/>
<path d="M67.9176 62.6173C67.5981 62.4392 66.9657 61.5624 66.6484 62.1665L68.0617 63.2936C68.2777 63.0704 68.2867 62.9149 67.9176 62.6173Z" fill="#5B585A"/>
</g>
<defs>
<clipPath id="clip0_6875_13632">
<rect width="84" height="82" fill="white" transform="translate(0 0.5)"/>
</clipPath>
</defs>
</svg>
