<svg width="174" height="82" viewBox="0 0 174 82" fill="none" xmlns="http://www.w3.org/2000/svg">
<path d="M127.443 3.59354e-05H123.962C124.651 2.01433 124.26 4.09219 122.803 5.17756C120.877 6.61495 117.826 5.78381 115.959 3.31483C115.233 2.34942 114.788 1.20231 114.673 3.59354e-05H105.872C106.562 2.01433 106.171 4.09219 104.714 5.17756C102.787 6.61495 99.7367 5.78381 97.869 3.31483C97.1433 2.34942 96.6983 1.20231 96.5832 3.59354e-05H86.8051C84.4589 -0.00598606 82.1733 0.745006 80.2879 2.14145C76.9413 4.58813 74.5863 8.15682 73.6528 12.196C72.7193 16.2351 73.2696 20.4753 75.2033 24.1423L84.2041 41.3518C84.3854 41.6957 84.4747 42.0807 84.4632 42.4693C84.4518 42.858 84.34 43.237 84.1387 43.5697C83.9375 43.9023 83.6536 44.1773 83.3146 44.3678C82.9757 44.5583 82.5933 44.6578 82.2045 44.6568H44.0697V11.7338H58.248C59.804 11.7338 61.2963 11.1157 62.3965 10.0154C63.4968 8.91518 64.1149 7.42292 64.1149 5.86692C64.1149 4.31093 63.4968 2.81866 62.3965 1.71841C61.2963 0.618152 59.804 3.59354e-05 58.248 3.59354e-05H43.3217C40.4093 0.00391657 37.6173 1.16259 35.5579 3.22197C33.4985 5.28136 32.3398 8.07337 32.3359 10.9858V45.4244C32.3398 48.3368 33.4985 51.1288 35.5579 53.1882C37.6173 55.2476 40.4093 56.4063 43.3217 56.4101H62.2619C61.4601 54.3274 61.8219 52.1322 63.3326 51.0028C65.2589 49.5654 68.3146 50.4015 70.1773 52.8656C70.9585 53.8908 71.4195 55.1239 71.5023 56.4101H82.2582C84.6614 56.4032 87.0222 55.7774 89.1132 54.5932C91.2043 53.4089 92.9551 51.7061 94.197 49.6487C95.4389 47.5914 96.13 45.2488 96.2037 42.8468C96.2774 40.4448 95.7312 38.0643 94.6178 35.9347L85.617 18.7252C85.0088 17.5715 84.8225 16.2416 85.0903 14.9651C85.3581 13.6887 86.0631 12.5458 87.0838 11.7338H126.685V50.5433C126.685 52.0992 127.303 53.5915 128.404 54.6918C129.504 55.792 130.996 56.4101 132.552 56.4101C134.108 56.4101 135.6 55.792 136.701 54.6918C137.801 53.5915 138.419 52.0992 138.419 50.5433V10.9858C138.415 8.07506 137.258 5.28452 135.201 3.22542C133.143 1.16631 130.354 0.00650162 127.443 3.59354e-05Z" fill="#CCD1DC"/>
<path d="M7.84647 77.3989C7.84647 77.5358 7.84647 77.6483 7.84647 77.7461C7.84056 77.8285 7.82748 77.9103 7.80736 77.9905C7.79373 78.0516 7.77237 78.1108 7.7438 78.1665C7.70563 78.2278 7.66141 78.2851 7.6118 78.3376C7.50714 78.4324 7.39043 78.513 7.26467 78.5772C7.0624 78.6885 6.85149 78.7833 6.63398 78.8608C6.35594 78.9607 6.06964 79.0359 5.7784 79.0857C5.43678 79.1505 5.08962 79.1816 4.74191 79.1785C4.07491 79.1865 3.41209 79.0721 2.78629 78.8412C2.20833 78.6305 1.68882 78.2853 1.27067 77.8341C0.839196 77.3532 0.517253 76.7843 0.327084 76.1669C-0.120387 74.6194 -0.108497 72.9751 0.361307 71.4343C0.5741 70.7838 0.916737 70.1834 1.36846 69.6693C1.80015 69.1939 2.33547 68.8242 2.93296 68.5888C3.56796 68.339 4.24535 68.2144 4.9277 68.2221C5.2145 68.2212 5.50082 68.2458 5.78329 68.2955C6.04032 68.3399 6.29363 68.4037 6.54109 68.4862C6.75768 68.558 6.96717 68.6496 7.16689 68.7599C7.3072 68.8342 7.43845 68.9244 7.55802 69.0288C7.61833 69.0821 7.66952 69.1449 7.70958 69.2146C7.74141 69.2729 7.76447 69.3354 7.77803 69.4004C7.77803 69.4786 7.77803 69.5666 7.81225 69.6693C7.84647 69.772 7.81225 69.904 7.81225 70.0555C7.82076 70.1956 7.82076 70.336 7.81225 70.476C7.80521 70.5707 7.78716 70.6642 7.75847 70.7547C7.73724 70.8143 7.70203 70.8679 7.6558 70.9111C7.63909 70.9275 7.61918 70.9404 7.59732 70.9488C7.57545 70.9572 7.55209 70.961 7.52868 70.96C7.41167 70.9449 7.30229 70.8936 7.21578 70.8133C7.05828 70.6992 6.8951 70.5932 6.72688 70.4956C6.50064 70.3651 6.26141 70.2586 6.01307 70.1778C5.69767 70.0744 5.36712 70.0248 5.03526 70.0311C4.64347 70.0257 4.25613 70.1146 3.90588 70.2902C3.5712 70.4684 3.28184 70.7209 3.06007 71.0285C2.81587 71.3816 2.63703 71.7757 2.53205 72.1921C2.28112 73.2266 2.28112 74.3061 2.53205 75.3406C2.6363 75.7503 2.82258 76.1345 3.07963 76.47C3.29881 76.7544 3.58412 76.981 3.91077 77.13C4.27127 77.2811 4.6591 77.356 5.04993 77.35C5.38088 77.3536 5.71048 77.3074 6.02774 77.2131C6.27481 77.1372 6.51387 77.0373 6.74154 76.9149C6.942 76.8025 7.10822 76.7047 7.23045 76.6167C7.31609 76.5474 7.41938 76.5033 7.52868 76.4896C7.57449 76.4877 7.61998 76.4978 7.66069 76.5189C7.7004 76.5541 7.72923 76.5999 7.7438 76.6509C7.76916 76.7403 7.78554 76.832 7.79269 76.9247C7.82203 77.042 7.84647 77.1985 7.84647 77.3989Z" fill="#CCD1DC"/>
<path d="M16.6681 74.9935C16.6766 75.5716 16.5941 76.1474 16.4237 76.6998C16.2706 77.1907 16.0157 77.6439 15.6757 78.0296C15.3316 78.4106 14.9029 78.7053 14.4241 78.8901C13.8603 79.1022 13.2613 79.2051 12.6591 79.1932C12.082 79.2062 11.5074 79.1151 10.9626 78.9243C10.5103 78.7588 10.1033 78.4891 9.77454 78.1372C9.44613 77.7726 9.20533 77.3378 9.07052 76.866C8.90801 76.3055 8.83055 75.7237 8.84073 75.1402C8.83418 74.5619 8.91832 73.9861 9.09007 73.4339C9.24093 72.942 9.49607 72.4884 9.8381 72.1041C10.1833 71.7256 10.6118 71.4327 11.0897 71.2485C11.651 71.0336 12.2489 70.9306 12.8498 70.9454C13.4296 70.9335 14.007 71.0228 14.5561 71.2094C15.011 71.37 15.4204 71.6384 15.749 71.9916C16.0741 72.3578 16.313 72.7921 16.4481 73.2628C16.6073 73.8255 16.6815 74.4089 16.6681 74.9935ZM14.5463 75.0766C14.5475 74.7487 14.5181 74.4213 14.4583 74.0988C14.4139 73.8133 14.3178 73.5383 14.1747 73.2872C14.0411 73.0679 13.8523 72.8875 13.6271 72.7641C13.363 72.6282 13.0684 72.5625 12.7715 72.5734C12.4931 72.5678 12.217 72.6263 11.9648 72.7445C11.7375 72.8549 11.5434 73.0236 11.4026 73.2334C11.2446 73.4715 11.1319 73.7367 11.0701 74.0157C10.992 74.3556 10.9543 74.7035 10.9577 75.0522C10.9558 75.3804 10.9869 75.708 11.0506 76.03C11.101 76.3085 11.1986 76.5763 11.339 76.822C11.4707 77.0417 11.6601 77.2209 11.8866 77.3403C12.1506 77.4711 12.4428 77.5349 12.7373 77.5261C13.0174 77.5321 13.2951 77.4736 13.5489 77.3549C13.7781 77.2453 13.9739 77.0766 14.116 76.866C14.2713 76.6288 14.3823 76.3654 14.4436 76.0887C14.5165 75.7564 14.5509 75.4168 14.5463 75.0766Z" fill="#CCD1DC"/>
<path d="M25.2893 78.714C25.2913 78.7672 25.2739 78.8194 25.2404 78.8607C25.1962 78.9081 25.1407 78.9434 25.0791 78.9634C24.9753 78.993 24.8688 79.0127 24.7613 79.0221C24.5984 79.0308 24.4352 79.0308 24.2724 79.0221C24.1095 79.0304 23.9463 79.0304 23.7835 79.0221C23.6776 79.0123 23.5728 78.9926 23.4706 78.9634C23.4076 78.9432 23.3506 78.908 23.3043 78.8607C23.2729 78.8182 23.2558 78.7669 23.2555 78.714V74.5437C23.2638 74.2628 23.2375 73.982 23.1772 73.7076C23.1342 73.5212 23.058 73.344 22.9523 73.1845C22.8572 73.0404 22.7257 72.924 22.571 72.8472C22.4018 72.7661 22.2159 72.7259 22.0283 72.7298C21.7385 72.7375 21.459 72.8387 21.2314 73.0183C20.9147 73.2561 20.6332 73.5376 20.3953 73.8543V78.714C20.395 78.7669 20.3779 78.8182 20.3465 78.8607C20.2991 78.909 20.2402 78.9443 20.1753 78.9634C20.0731 78.9926 19.9683 79.0123 19.8624 79.0221C19.5372 79.0531 19.2098 79.0531 18.8846 79.0221C18.7787 79.0123 18.674 78.9926 18.5717 78.9634C18.5069 78.9443 18.4479 78.909 18.4006 78.8607C18.3671 78.8194 18.3497 78.7672 18.3517 78.714V71.3804C18.3513 71.3305 18.3649 71.2814 18.3908 71.2387C18.4283 71.1883 18.4817 71.1522 18.5424 71.136C18.6305 71.103 18.7225 71.0816 18.8162 71.0724C18.9562 71.0638 19.0966 71.0638 19.2366 71.0724C19.3815 71.0636 19.5269 71.0636 19.6718 71.0724C19.764 71.0803 19.8546 71.1017 19.9407 71.136C19.9954 71.1536 20.0421 71.19 20.0727 71.2387C20.1023 71.2799 20.1177 71.3297 20.1167 71.3804V72.2262C20.4677 71.8315 20.8846 71.5007 21.3487 71.2484C21.7519 71.0333 22.202 70.9208 22.659 70.9209C23.0909 70.906 23.5206 70.9896 23.9155 71.1653C24.2441 71.3158 24.5298 71.546 24.7466 71.8351C24.9624 72.1272 25.1171 72.4597 25.2013 72.8129C25.3006 73.259 25.3466 73.7152 25.3382 74.1721L25.2893 78.714Z" fill="#CCD1DC"/>
<path d="M32.4705 76.6608C32.478 77.0391 32.3977 77.414 32.2358 77.7559C32.0831 78.0708 31.8567 78.3442 31.5758 78.5528C31.2754 78.7804 30.9332 78.9465 30.5686 79.0418C30.1574 79.1523 29.733 79.2065 29.3072 79.2031C29.0435 79.2048 28.7801 79.1835 28.5201 79.1395C28.2953 79.1042 28.0731 79.0536 27.8552 78.988C27.687 78.9366 27.5235 78.8712 27.3663 78.7924C27.2616 78.7449 27.1644 78.6823 27.0778 78.6066C27.0072 78.5321 26.9597 78.4387 26.9409 78.3377C26.9019 78.1596 26.8855 77.9773 26.892 77.795C26.892 77.6353 26.892 77.5082 26.892 77.4137C26.899 77.3354 26.9154 77.2583 26.9409 77.1839C26.955 77.1368 26.9842 77.0955 27.024 77.0666C27.0614 77.0461 27.1036 77.036 27.1463 77.0372C27.2427 77.0501 27.3347 77.0853 27.4152 77.1399C27.5325 77.2084 27.6792 77.2866 27.8503 77.3648C28.048 77.4566 28.2522 77.5334 28.4614 77.5946C28.7185 77.6702 28.9855 77.7065 29.2535 77.7021C29.4182 77.7033 29.5825 77.6836 29.7424 77.6435C29.8751 77.6086 30.002 77.5542 30.1188 77.4821C30.2221 77.4143 30.3049 77.3197 30.3584 77.2084C30.4173 77.0918 30.4458 76.9624 30.4415 76.8319C30.4454 76.6777 30.3913 76.5277 30.2899 76.4114C30.1764 76.285 30.0404 76.1806 29.889 76.1034C29.7064 76.0079 29.5168 75.9261 29.3219 75.859C29.1117 75.7807 28.8966 75.6976 28.6765 75.6047C28.4528 75.5119 28.2355 75.4041 28.0263 75.2821C27.8169 75.1636 27.6259 75.0154 27.4592 74.842C27.2874 74.6568 27.1515 74.4413 27.0583 74.2065C26.9495 73.9245 26.898 73.6237 26.9067 73.3215C26.9011 72.9843 26.9713 72.6502 27.112 72.3437C27.2475 72.0512 27.4502 71.7949 27.7036 71.5957C27.9807 71.3716 28.2999 71.2054 28.6423 71.1068C29.045 70.9861 29.4639 70.9284 29.8841 70.9357C30.1083 70.9344 30.3323 70.9507 30.5539 70.9846C30.7521 71.0119 30.9481 71.0528 31.1406 71.1068C31.2909 71.1482 31.438 71.2004 31.5806 71.2632C31.6724 71.3039 31.7593 71.3547 31.8398 71.4148C31.886 71.4465 31.9244 71.4883 31.9522 71.537C31.9758 71.5832 31.9923 71.6326 32.0011 71.6837C32.0011 71.7424 32.0011 71.8108 32.0304 71.8988C32.0598 71.9868 32.0304 72.0846 32.0304 72.2117C32.0304 72.3388 32.0304 72.4806 32.0304 72.5735C32.0243 72.6483 32.0095 72.7221 31.9864 72.7935C31.9756 72.8396 31.9477 72.8798 31.9082 72.906C31.8745 72.9266 31.8353 72.9368 31.7958 72.9353C31.7135 72.9238 31.6349 72.8937 31.566 72.8473C31.4633 72.7886 31.3313 72.73 31.1749 72.6615C30.9995 72.5902 30.8199 72.5298 30.6371 72.4806C30.4076 72.4188 30.1707 72.3892 29.933 72.3926C29.7681 72.3894 29.6036 72.4091 29.4441 72.4513C29.3223 72.4829 29.2078 72.5377 29.1068 72.6126C29.0245 72.6801 28.9585 72.7653 28.9137 72.8618C28.8688 72.9582 28.8463 73.0636 28.8477 73.17C28.8416 73.3283 28.8977 73.4828 29.0041 73.6002C29.1208 73.724 29.2581 73.8266 29.4099 73.9033C29.5982 73.9977 29.7926 74.0793 29.9917 74.1478L30.6468 74.3971C30.8713 74.4901 31.09 74.5963 31.302 74.7149C31.5151 74.8321 31.7095 74.9804 31.8789 75.1549C32.0543 75.3374 32.1936 75.5514 32.2896 75.7856C32.4084 76.0621 32.47 76.3598 32.4705 76.6608Z" fill="#CCD1DC"/>
<path d="M40.775 74.8565C40.7913 75.0565 40.732 75.2554 40.6087 75.4138C40.5454 75.4779 40.4688 75.5273 40.3844 75.5585C40.2999 75.5898 40.2096 75.6021 40.1198 75.5947H35.6903C35.688 75.8805 35.7259 76.1652 35.8028 76.4405C35.8692 76.6812 35.9896 76.9036 36.1548 77.0908C36.3276 77.2745 36.5423 77.4137 36.7806 77.4965C37.0751 77.595 37.3845 77.6413 37.6949 77.6334C38.0128 77.6377 38.3304 77.6115 38.6433 77.5552C38.8831 77.5136 39.1199 77.4565 39.3523 77.3841C39.5527 77.3205 39.7189 77.2668 39.8412 77.213C39.9412 77.167 40.049 77.1405 40.159 77.1348C40.2017 77.1327 40.2441 77.1429 40.2812 77.1641C40.3197 77.1879 40.349 77.2241 40.3643 77.2668C40.3928 77.3332 40.4078 77.4047 40.4083 77.477C40.4143 77.5894 40.4143 77.702 40.4083 77.8143C40.4083 77.9366 40.4083 78.0392 40.4083 78.1224C40.4083 78.2055 40.4083 78.2788 40.3839 78.3424C40.3765 78.3953 40.36 78.4466 40.335 78.4939C40.3123 78.5364 40.2843 78.5758 40.2518 78.6113C40.162 78.6771 40.0632 78.7297 39.9585 78.7677C39.7606 78.8439 39.5581 78.9076 39.3523 78.9584C39.1078 79.0219 38.8242 79.0757 38.5065 79.1246C38.1695 79.1708 37.8297 79.1937 37.4895 79.1931C36.9098 79.2028 36.3322 79.1203 35.7783 78.9486C35.3122 78.8004 34.8899 78.5395 34.5487 78.189C34.2076 77.8385 33.9582 77.4092 33.8227 76.9392C33.6522 76.3584 33.5714 75.755 33.5832 75.1498C33.5744 74.5534 33.6602 73.9593 33.8374 73.3897C33.9897 72.9005 34.241 72.4479 34.5756 72.0599C34.8993 71.696 35.3025 71.4116 35.7539 71.2288C36.7644 70.8603 37.8725 70.8603 38.8829 71.2288C39.2928 71.392 39.6593 71.6481 39.9536 71.9768C40.2396 72.303 40.4529 72.6863 40.5794 73.1013C40.7148 73.5649 40.7807 74.046 40.775 74.5289V74.8565ZM38.7753 74.2649C38.8186 73.7839 38.6961 73.3026 38.4282 72.9008C38.2898 72.7321 38.1125 72.5995 37.9115 72.5143C37.7105 72.4292 37.4919 72.394 37.2744 72.4119C37.0379 72.4062 36.8033 72.4564 36.5899 72.5586C36.3982 72.6527 36.2309 72.7899 36.101 72.9595C35.9688 73.1358 35.8694 73.3346 35.8077 73.5462C35.7409 73.7804 35.7016 74.0216 35.6903 74.2649H38.7753Z" fill="#CCD1DC"/>
<path d="M44.6969 78.9732C44.7085 79.442 44.6592 79.9104 44.5502 80.3665C44.4657 80.694 44.3142 81.0003 44.1053 81.2661C43.904 81.5087 43.6452 81.6969 43.3524 81.8137C43.0157 81.9433 42.6571 82.0064 42.2964 81.9995C42.1029 82.003 41.9096 81.9866 41.7195 81.9506C41.602 81.9336 41.4871 81.9024 41.3772 81.8577C41.315 81.8363 41.2628 81.7928 41.2305 81.7355C41.2011 81.6841 41.1812 81.6278 41.1719 81.5693C41.1719 81.5057 41.1719 81.4324 41.1719 81.3541C41.1719 81.2759 41.1719 81.1732 41.1719 81.0461C41.1719 80.919 41.1719 80.7675 41.1719 80.6648C41.1729 80.583 41.1878 80.502 41.2159 80.4252C41.2275 80.3752 41.2529 80.3295 41.2892 80.2932C41.303 80.2787 41.3197 80.2673 41.3383 80.2597C41.3568 80.2521 41.3768 80.2485 41.3968 80.2492L41.563 80.2737C41.6542 80.2789 41.7456 80.2789 41.8368 80.2737C41.964 80.276 42.0903 80.2527 42.2084 80.2052C42.3102 80.1611 42.3981 80.0901 42.4626 79.9999C42.5331 79.8857 42.5827 79.7599 42.6093 79.6283C42.6493 79.3909 42.6656 79.1502 42.6582 78.9096V71.4244C42.6565 71.3728 42.6739 71.3223 42.707 71.2827C42.7527 71.2336 42.8098 71.1967 42.8733 71.1751C42.9727 71.1395 43.0762 71.1165 43.1813 71.1066C43.5065 71.0756 43.8339 71.0756 44.1591 71.1066C44.2673 71.1172 44.3739 71.1402 44.4769 71.1751C44.5403 71.1967 44.5974 71.2336 44.6431 71.2827C44.6763 71.3223 44.6937 71.3728 44.692 71.4244L44.6969 78.9732ZM44.8533 68.9359C44.8873 69.2444 44.7977 69.5538 44.604 69.7964C44.3256 69.9845 43.9895 70.0677 43.6555 70.0311C43.3267 70.0695 42.9951 69.9879 42.7217 69.8013C42.627 69.6874 42.5564 69.5554 42.5144 69.4133C42.4724 69.2712 42.4597 69.1221 42.4773 68.975C42.4599 68.8211 42.4735 68.6653 42.5171 68.5167C42.5608 68.3681 42.6337 68.2297 42.7315 68.1096C43.0199 67.9513 43.3436 67.8683 43.6726 67.8683C44.0017 67.8683 44.3254 67.9513 44.6138 68.1096C44.7976 68.3436 44.8835 68.6398 44.8533 68.9359Z" fill="#CCD1DC"/>
<path d="M54.159 74.9935C54.1651 75.5714 54.0826 76.1468 53.9146 76.6998C53.7615 77.1907 53.5066 77.6439 53.1665 78.0296C52.8206 78.4106 52.3903 78.7053 51.91 78.8901C51.3479 79.1018 50.7506 79.2047 50.15 79.1932C49.5713 79.2057 48.9951 79.1147 48.4486 78.9243C47.9942 78.7601 47.5853 78.4903 47.2556 78.1372C46.9274 77.7717 46.6852 77.3374 46.5467 76.866C46.3866 76.305 46.3092 75.7236 46.3169 75.1402C46.3104 74.5619 46.3945 73.9861 46.5663 73.4339C46.7208 72.9425 46.9774 72.4894 47.3192 72.1041C47.6635 71.7246 48.0923 71.4316 48.5708 71.2485C49.1321 71.0336 49.73 70.9306 50.3309 70.9454C50.9106 70.9335 51.4881 71.0228 52.0371 71.2094C52.4915 71.3712 52.9006 71.6394 53.2301 71.9916C53.5552 72.3578 53.7941 72.7921 53.9292 73.2628C54.0897 73.8254 54.1671 74.4085 54.159 74.9935ZM52.0371 75.0766C52.0384 74.7487 52.0089 74.4213 51.9491 74.0988C51.8993 73.8194 51.8 73.5512 51.6558 73.3068C51.5236 73.0881 51.3365 72.9078 51.1131 72.7836C50.8488 72.6483 50.5543 72.5827 50.2575 72.593C49.9791 72.5873 49.703 72.6459 49.4508 72.7641C49.2227 72.8753 49.0273 73.0437 48.8837 73.253C48.7296 73.4932 48.6172 73.7576 48.5512 74.0353C48.4749 74.3753 48.4388 74.7232 48.4437 75.0717C48.4424 75.3997 48.4719 75.7271 48.5317 76.0496C48.5837 76.3283 48.6829 76.5962 48.825 76.8416C48.9547 77.061 49.1425 77.2404 49.3677 77.3598C49.6333 77.4913 49.9272 77.5551 50.2233 77.5456C50.5034 77.5517 50.7811 77.4931 51.0349 77.3745C51.263 77.2633 51.4585 77.0949 51.602 76.8856C51.7573 76.6484 51.8683 76.385 51.9296 76.1082C52.0032 75.7693 52.0393 75.4234 52.0371 75.0766Z" fill="#CCD1DC"/>
<path d="M66.004 75.8246C66.0158 76.3313 65.9086 76.8336 65.6911 77.2914C65.4937 77.7007 65.2062 78.0601 64.8501 78.3425C64.4792 78.6324 64.0559 78.8482 63.6034 78.9781C63.1132 79.1249 62.6044 79.2007 62.0927 79.203C61.7501 79.2052 61.4081 79.1757 61.0709 79.115C60.7888 79.0623 60.511 78.9888 60.2398 78.895C60.0296 78.8268 59.8266 78.7383 59.6335 78.631C59.5077 78.5629 59.3911 78.4791 59.2864 78.3816C59.2055 78.2969 59.1526 78.1894 59.1348 78.0736C59.1005 77.8833 59.0857 77.69 59.0908 77.4967C59.0908 77.324 59.0908 77.1822 59.0908 77.0714C59.0969 76.9766 59.115 76.8829 59.1446 76.7927C59.1611 76.7334 59.1952 76.6805 59.2424 76.6411C59.2854 76.6114 59.3368 76.596 59.3891 76.5971C59.5059 76.6136 59.6168 76.659 59.7117 76.7291C59.8849 76.8405 60.0645 76.9418 60.2495 77.0322C60.5018 77.1526 60.7634 77.2524 61.0318 77.3305C61.3743 77.4235 61.7281 77.4679 62.0829 77.4625C62.3225 77.4664 62.5614 77.4351 62.7918 77.3696C62.9821 77.3136 63.1609 77.2242 63.3199 77.1056C63.4621 76.9894 63.5758 76.8423 63.6523 76.6753C63.7285 76.4978 63.7668 76.3063 63.7648 76.1131C63.7724 75.8899 63.7034 75.6708 63.5692 75.4922C63.4266 75.3098 63.2528 75.1542 63.0559 75.0326C62.826 74.8895 62.5857 74.7636 62.3372 74.6562L61.5109 74.2846C61.2263 74.1521 60.9504 74.0019 60.6847 73.8348C60.4187 73.6702 60.1768 73.4694 59.966 73.2383C59.7492 72.994 59.5756 72.7146 59.4526 72.4121C59.1641 71.6049 59.1956 70.718 59.5406 69.9333C59.7153 69.5525 59.9765 69.2177 60.3033 68.9555C60.6388 68.694 61.0226 68.5012 61.4327 68.3884C62.1271 68.1913 62.8558 68.1463 63.5692 68.2564C63.8075 68.2908 64.0428 68.3431 64.2732 68.4128C64.4734 68.4685 64.6681 68.5421 64.855 68.6328C64.9767 68.6848 65.0903 68.7539 65.1924 68.8382C65.279 68.9139 65.3361 69.0178 65.3537 69.1315C65.3702 69.2088 65.38 69.2873 65.3831 69.3662C65.3831 69.464 65.3831 69.5813 65.3831 69.7231C65.3831 69.8649 65.3831 70.0164 65.3831 70.124C65.3752 70.2159 65.3621 70.3073 65.3439 70.3978C65.3296 70.456 65.3011 70.5098 65.2608 70.5542C65.219 70.587 65.1672 70.6043 65.1142 70.6031C65.0119 70.5861 64.9149 70.546 64.8306 70.4858C64.697 70.4108 64.534 70.3277 64.3417 70.2364C64.1262 70.139 63.904 70.0573 63.6768 69.992C63.4064 69.9154 63.1266 69.8775 62.8456 69.8795C62.6385 69.8753 62.432 69.905 62.2345 69.9675C62.0736 70.0156 61.924 70.0954 61.7945 70.2022C61.6791 70.3022 61.5886 70.4277 61.5305 70.5689C61.4734 70.7119 61.4452 70.8647 61.4474 71.0187C61.4405 71.238 61.5077 71.4533 61.638 71.6298C61.7775 71.8168 61.9539 71.9732 62.1563 72.0894C62.3902 72.2344 62.6355 72.3603 62.8896 72.4659C63.1634 72.5832 63.4421 72.7103 63.7257 72.8423C64.0123 72.9751 64.2914 73.1237 64.5617 73.2872C64.8329 73.4506 65.0783 73.6533 65.2902 73.8886C65.51 74.1278 65.6855 74.4043 65.8084 74.7051C65.9475 75.0615 66.0139 75.4422 66.004 75.8246Z" fill="#CCD1DC"/>
<path d="M74.4624 78.714C74.4652 78.7658 74.4515 78.8172 74.4232 78.8607C74.386 78.9069 74.3371 78.9424 74.2815 78.9633C74.1924 78.9921 74.1007 79.0118 74.0077 79.022C73.8677 79.0311 73.7272 79.0311 73.5872 79.022C73.4407 79.0313 73.2937 79.0313 73.1472 79.022C73.0573 79.0125 72.9687 78.9928 72.8832 78.9633C72.8276 78.9424 72.7786 78.9069 72.7414 78.8607C72.7153 78.8162 72.7018 78.7655 72.7023 78.714V77.8828C72.348 78.2761 71.9298 78.6067 71.4654 78.8607C71.0656 79.0756 70.6188 79.1881 70.1649 79.1882C69.73 79.2006 69.2977 79.1171 68.8986 78.9438C68.5721 78.7899 68.2884 78.5582 68.0724 78.2691C67.8571 77.9773 67.704 77.6445 67.6226 77.2913C67.5219 76.8322 67.4759 76.3629 67.4857 75.893V71.4146C67.4846 71.3638 67.5 71.3141 67.5297 71.2728C67.5714 71.2203 67.6302 71.184 67.6959 71.1702C67.799 71.1366 67.9056 71.1153 68.0137 71.1066C68.1765 71.0983 68.3397 71.0983 68.5026 71.1066C68.6654 71.0982 68.8286 71.0982 68.9915 71.1066C69.098 71.1152 69.203 71.1366 69.3044 71.1702C69.371 71.1851 69.431 71.2211 69.4755 71.2728C69.5087 71.3125 69.5261 71.3629 69.5244 71.4146V75.5508C69.5162 75.8443 69.5408 76.1378 69.5977 76.4259C69.6395 76.6127 69.7158 76.7902 69.8226 76.949C69.9223 77.0897 70.0549 77.2039 70.2089 77.2815C70.3784 77.3671 70.5666 77.4091 70.7564 77.4037C71.0428 77.3936 71.3185 77.2925 71.5436 77.1153C71.863 76.8756 72.1491 76.5944 72.3943 76.2792V71.4146C72.3932 71.3638 72.4087 71.3141 72.4383 71.2728C72.4808 71.2212 72.5393 71.1851 72.6045 71.1702C72.706 71.1371 72.811 71.1158 72.9174 71.1066C73.251 71.0805 73.5861 71.0805 73.9197 71.1066C74.0261 71.1152 74.1312 71.1366 74.2326 71.1702C74.2959 71.1864 74.3524 71.2223 74.3939 71.2728C74.4271 71.3125 74.4445 71.3629 74.4428 71.4146L74.4624 78.714Z" fill="#CCD1DC"/>
<path d="M83.9049 74.9642C83.913 75.556 83.8423 76.1463 83.6947 76.7194C83.577 77.1989 83.3697 77.6518 83.0835 78.0541C82.8301 78.4103 82.4947 78.7004 82.1057 78.9C81.678 79.1015 81.2096 79.2019 80.7368 79.1933C80.5394 79.1959 80.3424 79.1745 80.1501 79.1297C79.9702 79.0899 79.7961 79.0275 79.6319 78.944C79.4586 78.8547 79.2948 78.7482 79.143 78.6262C78.9705 78.4904 78.8072 78.3434 78.654 78.1861V81.6085C78.6534 81.6621 78.6344 81.7139 78.6003 81.7552C78.5573 81.8084 78.4994 81.8476 78.434 81.8676C78.3312 81.9031 78.2245 81.926 78.1162 81.9361C77.954 81.9554 77.7907 81.9636 77.6273 81.9605C77.464 81.9635 77.3007 81.9553 77.1384 81.9361C77.0301 81.926 76.9235 81.9031 76.8206 81.8676C76.7559 81.8463 76.6983 81.8074 76.6544 81.7552C76.6217 81.7134 76.6044 81.6616 76.6055 81.6085V71.3903C76.6051 71.3404 76.6187 71.2913 76.6446 71.2486C76.6812 71.1994 76.7326 71.1634 76.7913 71.1459C76.8777 71.1128 76.9681 71.0914 77.0602 71.0823C77.2002 71.0737 77.3406 71.0737 77.4807 71.0823C77.6191 71.0737 77.7578 71.0737 77.8962 71.0823C77.9883 71.0914 78.0787 71.1128 78.1651 71.1459C78.2238 71.1634 78.2753 71.1994 78.3118 71.2486C78.3378 71.2913 78.3513 71.3404 78.3509 71.3903V72.2508C78.5494 72.0478 78.7583 71.8553 78.9767 71.6739C79.1725 71.5132 79.3838 71.3724 79.6074 71.2534C79.8166 71.1441 80.0382 71.0604 80.2674 71.0041C80.5048 70.95 80.7476 70.9237 80.991 70.9259C81.4667 70.9105 81.9382 71.0183 82.36 71.2388C82.7353 71.4457 83.0529 71.7432 83.284 72.1041C83.5331 72.4966 83.7103 72.9304 83.8071 73.3851C83.8976 73.9063 83.9304 74.4359 83.9049 74.9642ZM81.7586 75.1109C81.7594 74.8095 81.7349 74.5086 81.6853 74.2113C81.6478 73.9447 81.5686 73.6857 81.4506 73.4437C81.3477 73.2313 81.1951 73.0468 81.0057 72.9059C80.805 72.7673 80.565 72.697 80.3212 72.7055C80.1834 72.7047 80.0464 72.7262 79.9154 72.7691C79.7696 72.8157 79.6312 72.8832 79.5047 72.9695C79.3492 73.0749 79.2051 73.1962 79.0745 73.3313C78.8976 73.5009 78.7341 73.6839 78.5856 73.8789V76.2696C78.8244 76.5866 79.102 76.8724 79.4118 77.1203C79.6446 77.3088 79.9338 77.4138 80.2332 77.4186C80.4774 77.425 80.7173 77.353 80.9177 77.2132C81.1105 77.0707 81.2692 76.887 81.3821 76.6754C81.5051 76.4398 81.5939 76.188 81.6462 75.9274C81.7113 75.6598 81.749 75.3862 81.7586 75.1109Z" fill="#CCD1DC"/>
<path d="M92.3177 74.8566C92.3326 75.0573 92.2715 75.2562 92.1466 75.414C92.0862 75.4751 92.0137 75.5228 91.9336 75.5539C91.8536 75.5851 91.7679 75.599 91.6821 75.5949H87.2331C87.2292 75.8804 87.2654 76.1652 87.3406 76.4407C87.407 76.6814 87.5274 76.9037 87.6926 77.0909C87.8655 77.2747 88.0802 77.4139 88.3184 77.4967C88.6129 77.5952 88.9223 77.6415 89.2327 77.6336C89.5506 77.6383 89.8683 77.6121 90.1812 77.5554C90.4225 77.5137 90.661 77.4566 90.895 77.3843C91.0905 77.3207 91.2568 77.2669 91.3839 77.2131C91.4841 77.1678 91.5918 77.1412 91.7017 77.1349C91.7459 77.133 91.7899 77.1432 91.8288 77.1643C91.8645 77.1899 91.8918 77.2257 91.907 77.2669C91.9353 77.3337 91.9518 77.4048 91.9559 77.4772C91.9559 77.5652 91.9559 77.6776 91.9559 77.8145C91.9615 77.9171 91.9615 78.0199 91.9559 78.1225C91.9537 78.1964 91.9455 78.27 91.9315 78.3425C91.9241 78.3955 91.9076 78.4468 91.8826 78.4941C91.8599 78.5365 91.8319 78.5759 91.7994 78.6114C91.7103 78.6783 91.6113 78.7311 91.5061 78.7679C91.3082 78.8441 91.1057 78.9078 90.8999 78.9586C90.6554 79.0221 90.3718 79.0759 90.0541 79.1248C89.7171 79.171 89.3773 79.1938 89.0371 79.1932C88.4574 79.2025 87.8799 79.12 87.3259 78.9488C86.8581 78.8037 86.4341 78.5438 86.0925 78.1929C85.7509 77.8419 85.5026 77.4109 85.3703 76.9394C85.198 76.3589 85.1155 75.7554 85.1259 75.15C85.1171 74.5535 85.2029 73.9595 85.3801 73.3899C85.5324 72.9007 85.7837 72.448 86.1183 72.0601C86.442 71.6961 86.8452 71.4117 87.2966 71.2289C87.7927 71.0326 88.3228 70.9362 88.8562 70.9454C89.3936 70.9307 89.9285 71.0221 90.4305 71.2143C90.8391 71.38 91.2051 71.6357 91.5012 71.9623C91.7858 72.2928 91.9944 72.6816 92.1123 73.1014C92.2493 73.5648 92.3169 74.0459 92.3128 74.5291L92.3177 74.8566ZM90.3132 74.265C90.3589 73.7839 90.2362 73.3018 89.966 72.901C89.8279 72.7319 89.6506 72.5991 89.4496 72.5139C89.2485 72.4287 89.0298 72.3938 88.8122 72.4121C88.5757 72.4069 88.3413 72.4571 88.1278 72.5588C87.9376 72.6553 87.7707 72.7921 87.6388 72.9597C87.5066 73.136 87.4072 73.3347 87.3455 73.5463C87.2759 73.7833 87.2365 74.028 87.2282 74.2748L90.3132 74.265Z" fill="#CCD1DC"/>
<path d="M98.7112 72.0895C98.7112 72.2916 98.7112 72.4545 98.7112 72.5784C98.7017 72.6788 98.6854 72.7784 98.6623 72.8766C98.6459 72.9322 98.6156 72.9826 98.5743 73.0233C98.5348 73.0522 98.4862 73.0661 98.4374 73.0624C98.3872 73.0612 98.3376 73.0512 98.2907 73.0331L98.105 72.9744C98.0312 72.949 97.9561 72.9278 97.8801 72.9108C97.7919 72.8906 97.7016 72.8808 97.6112 72.8815C97.4917 72.8823 97.3736 72.9072 97.264 72.9548C97.1356 73.0096 97.0155 73.082 96.9071 73.17C96.7658 73.2874 96.6379 73.4203 96.5258 73.566C96.3689 73.7581 96.2251 73.9607 96.0955 74.1722V78.7142C96.0957 78.7679 96.0766 78.8199 96.0418 78.8608C95.9965 78.9093 95.9391 78.9447 95.8755 78.9635C95.7716 78.9927 95.6652 79.0123 95.5577 79.0222C95.3949 79.031 95.2317 79.031 95.0688 79.0222C94.906 79.0309 94.7428 79.0309 94.5799 79.0222C94.4724 79.0123 94.3661 78.9927 94.2621 78.9635C94.1992 78.9433 94.1421 78.9081 94.0959 78.8608C94.0624 78.8195 94.045 78.7674 94.047 78.7142V71.3806C94.0466 71.3306 94.0602 71.2815 94.0861 71.2388C94.1227 71.1896 94.1741 71.1536 94.2328 71.1361C94.3228 71.1037 94.4164 71.0823 94.5115 71.0725C94.6515 71.0636 94.7919 71.0636 94.9319 71.0725C95.0769 71.0638 95.2222 71.0638 95.3671 71.0725C95.4578 71.0803 95.5468 71.1018 95.6311 71.1361C95.6865 71.1548 95.7345 71.1908 95.768 71.2388C95.7962 71.2805 95.8099 71.3303 95.8071 71.3806V72.2899C95.9711 72.052 96.1525 71.8265 96.3498 71.6152C96.4982 71.459 96.662 71.3182 96.8387 71.1948C96.9773 71.0942 97.133 71.0196 97.2983 70.9748C97.4484 70.9361 97.6028 70.9164 97.7578 70.9161C97.8344 70.9114 97.9111 70.9114 97.9876 70.9161C98.073 70.9247 98.1578 70.9378 98.2419 70.9552C98.32 70.9724 98.3968 70.9953 98.4716 71.0237C98.5236 71.0402 98.5717 71.0668 98.6134 71.1019C98.6428 71.1254 98.6663 71.1556 98.6819 71.1899C98.6985 71.2341 98.71 71.28 98.7161 71.3268C98.7214 71.4131 98.7214 71.4996 98.7161 71.5859C98.7063 71.7375 98.7112 71.8939 98.7112 72.0895Z" fill="#CCD1DC"/>
<path d="M102.204 68.9359C102.237 69.2451 102.145 69.5546 101.95 69.7964C101.673 69.9834 101.339 70.0665 101.007 70.0311C100.676 70.0702 100.343 69.9886 100.068 69.8013C99.974 69.6868 99.9041 69.5547 99.8621 69.4128C99.8201 69.2709 99.807 69.1221 99.8234 68.975C99.7897 68.665 99.8792 68.3542 100.073 68.1096C100.361 67.9513 100.685 67.8683 101.014 67.8683C101.343 67.8683 101.667 67.9513 101.955 68.1096C102.049 68.2242 102.119 68.3561 102.162 68.4979C102.205 68.6397 102.219 68.7885 102.204 68.9359ZM102.048 78.714C102.048 78.7669 102.03 78.8182 101.999 78.8607C101.951 78.908 101.892 78.9432 101.828 78.9634C101.726 78.9926 101.621 79.0123 101.515 79.0221C101.19 79.0531 100.862 79.0531 100.537 79.0221C100.43 79.0117 100.323 78.9921 100.219 78.9634C100.156 78.9432 100.099 78.908 100.053 78.8607C100.02 78.8193 100.002 78.7672 100.004 78.714V71.4244C100.003 71.3728 100.02 71.3223 100.053 71.2827C100.099 71.2336 100.156 71.1967 100.219 71.1751C100.322 71.1402 100.429 71.1172 100.537 71.1066C100.862 71.0756 101.19 71.0756 101.515 71.1066C101.622 71.1166 101.727 71.1396 101.828 71.1751C101.893 71.1968 101.951 71.2337 101.999 71.2827C102.03 71.3233 102.048 71.3731 102.048 71.4244V78.714Z" fill="#CCD1DC"/>
<path d="M111.503 74.9936C111.509 75.5715 111.426 76.1469 111.258 76.6999C111.099 77.1925 110.838 77.6457 110.491 78.0297C110.145 78.4107 109.715 78.7054 109.234 78.8902C108.672 79.1019 108.075 79.2047 107.474 79.1933C106.896 79.2062 106.319 79.1151 105.773 78.9244C105.318 78.759 104.907 78.4895 104.575 78.1372C104.248 77.7715 104.008 77.3371 103.871 76.8661C103.711 76.305 103.633 75.7236 103.641 75.1402C103.635 74.5619 103.719 73.9862 103.89 73.434C104.043 72.9418 104.3 72.4882 104.643 72.1041C104.988 71.7247 105.416 71.4316 105.895 71.2485C106.455 71.034 107.051 70.931 107.65 70.9454C108.23 70.9327 108.808 71.0221 109.356 71.2094C109.812 71.368 110.222 71.6367 110.549 71.9917C110.878 72.3563 111.119 72.791 111.253 73.2628C111.42 73.8245 111.505 74.4076 111.503 74.9936ZM109.376 75.0767C109.379 74.7489 109.351 74.4215 109.293 74.0989C109.243 73.8195 109.144 73.5513 109 73.3068C108.867 73.0882 108.68 72.9078 108.457 72.7837C108.191 72.6478 107.895 72.5822 107.596 72.593C107.32 72.588 107.045 72.6465 106.795 72.7642C106.566 72.8753 106.371 73.0438 106.227 73.2531C106.072 73.4924 105.959 73.7571 105.895 74.0353C105.819 74.3754 105.783 74.7233 105.787 75.0718C105.786 75.3998 105.816 75.7271 105.875 76.0496C105.925 76.329 106.025 76.5972 106.169 76.8416C106.299 77.0611 106.486 77.2404 106.711 77.3599C106.977 77.4913 107.271 77.5551 107.567 77.5457C107.847 77.5512 108.125 77.4927 108.379 77.3745C108.606 77.2648 108.801 77.096 108.941 76.8856C109.1 76.6498 109.213 76.386 109.273 76.1083C109.345 75.7692 109.38 75.4233 109.376 75.0767Z" fill="#CCD1DC"/>
<path d="M117.828 72.0894C117.837 72.2522 117.837 72.4155 117.828 72.5783C117.823 72.6793 117.807 72.7794 117.779 72.8765C117.766 72.9324 117.737 72.9833 117.696 73.0232C117.656 73.0522 117.608 73.066 117.559 73.0623C117.509 73.0611 117.459 73.0512 117.412 73.033L117.226 72.9743C117.153 72.949 117.077 72.9277 117.001 72.9108C116.913 72.8906 116.823 72.8807 116.732 72.8814C116.613 72.8822 116.495 72.9071 116.385 72.9548C116.256 73.0084 116.136 73.0809 116.028 73.1699C115.887 73.2884 115.757 73.4211 115.642 73.5659C115.488 73.7605 115.345 73.9628 115.212 74.1722V78.7141C115.214 78.7673 115.197 78.8194 115.163 78.8608C115.118 78.9092 115.06 78.9447 114.997 78.9634C114.893 78.9926 114.787 79.0123 114.679 79.0221C114.354 79.0534 114.026 79.0534 113.701 79.0221C113.594 79.0123 113.487 78.9926 113.383 78.9634C113.32 78.9447 113.262 78.9092 113.217 78.8608C113.184 78.8194 113.166 78.7673 113.168 78.7141V71.3805C113.165 71.3302 113.179 71.2804 113.207 71.2387C113.244 71.1895 113.295 71.1535 113.354 71.136C113.442 71.1036 113.534 71.0822 113.628 71.0725C113.77 71.0637 113.912 71.0637 114.053 71.0725C114.198 71.0638 114.343 71.0638 114.488 71.0725C114.579 71.0809 114.668 71.1023 114.752 71.136C114.808 71.1548 114.856 71.1907 114.889 71.2387C114.915 71.2814 114.929 71.3305 114.928 71.3805V72.2899C115.091 72.0508 115.272 71.8252 115.471 71.6152C115.62 71.459 115.783 71.3181 115.96 71.1947C116.099 71.0941 116.254 71.0196 116.42 70.9747C116.57 70.936 116.724 70.9163 116.879 70.916C116.956 70.9115 117.032 70.9115 117.109 70.916C117.194 70.9246 117.279 70.9377 117.363 70.9551C117.441 70.973 117.518 70.9959 117.593 71.0236C117.645 71.0401 117.693 71.0667 117.735 71.1018C117.764 71.1254 117.788 71.1555 117.803 71.1898C117.817 71.2347 117.829 71.2804 117.837 71.3267C117.851 71.4125 117.859 71.499 117.862 71.5858C117.828 71.7374 117.828 71.8938 117.828 72.0894Z" fill="#CCD1DC"/>
<path d="M135.393 78.714C135.393 78.7662 135.378 78.8173 135.349 78.8606C135.309 78.9137 135.252 78.9517 135.188 78.9682C135.084 79.0008 134.978 79.0237 134.87 79.0366C134.707 79.0454 134.544 79.0454 134.381 79.0366C134.218 79.0456 134.055 79.0456 133.892 79.0366C133.786 79.0243 133.681 79.0014 133.579 78.9682C133.515 78.9503 133.459 78.9127 133.418 78.8606C133.385 78.8189 133.368 78.767 133.369 78.714V70.075L130.259 78.714C130.242 78.7819 130.204 78.8432 130.152 78.89C130.095 78.9428 130.026 78.9814 129.951 79.0024C129.846 79.0339 129.738 79.052 129.629 79.0562C129.497 79.0562 129.34 79.0562 129.14 79.0562C128.977 79.0653 128.814 79.0653 128.651 79.0562C128.541 79.0459 128.433 79.0246 128.328 78.9926C128.255 78.9685 128.187 78.9303 128.128 78.8802C128.079 78.8399 128.045 78.785 128.03 78.7237L125.062 70.0994V78.714C125.063 78.7662 125.047 78.8173 125.018 78.8606C124.977 78.915 124.918 78.9531 124.852 78.9682C124.748 79.0003 124.642 79.0232 124.534 79.0366C124.371 79.0457 124.208 79.0457 124.045 79.0366C123.882 79.0456 123.719 79.0456 123.556 79.0366C123.449 79.0237 123.342 79.0008 123.239 78.9682C123.174 78.9517 123.117 78.9137 123.077 78.8606C123.048 78.8173 123.033 78.7662 123.033 78.714V69.2536C123.025 69.1376 123.041 69.0211 123.078 68.9111C123.116 68.8011 123.176 68.6998 123.253 68.6131C123.332 68.5381 123.425 68.4799 123.526 68.4421C123.628 68.4042 123.737 68.3876 123.845 68.3931H125.253C125.471 68.3898 125.689 68.4095 125.903 68.4518C126.07 68.4892 126.228 68.5589 126.368 68.6571C126.504 68.7582 126.616 68.8885 126.695 69.0385C126.796 69.2204 126.873 69.4142 126.925 69.6154L129.223 75.937H129.257L131.633 69.6301C131.694 69.4296 131.773 69.235 131.868 69.0483C131.943 68.9025 132.044 68.7717 132.166 68.662C132.28 68.5622 132.416 68.4903 132.562 68.4518C132.737 68.4102 132.916 68.3905 133.095 68.3931H134.562C134.691 68.3904 134.82 68.4102 134.943 68.4518C135.044 68.4834 135.135 68.5407 135.207 68.618C135.276 68.6958 135.328 68.7875 135.359 68.8869C135.398 69.0051 135.416 69.1292 135.412 69.2536L135.393 78.714Z" fill="#CCD1DC"/>
<path d="M144.337 74.8566C144.354 75.0567 144.294 75.2555 144.171 75.414C144.111 75.4751 144.038 75.5228 143.958 75.5539C143.878 75.5851 143.793 75.599 143.707 75.5949H139.253C139.251 75.8807 139.288 76.1654 139.365 76.4407C139.432 76.6814 139.552 76.9037 139.717 77.0909C139.89 77.2747 140.105 77.4139 140.343 77.4967C140.638 77.5952 140.947 77.6415 141.257 77.6336C141.575 77.638 141.893 77.6118 142.206 77.5554C142.446 77.5143 142.683 77.4572 142.915 77.3843C143.115 77.3207 143.281 77.2669 143.404 77.2131C143.504 77.1678 143.612 77.1412 143.721 77.1349C143.764 77.1329 143.807 77.1431 143.844 77.1643C143.882 77.1881 143.912 77.2243 143.927 77.2669C143.955 77.3334 143.97 77.4048 143.971 77.4772C143.977 77.5895 143.977 77.7021 143.971 77.8145C143.971 77.9367 143.971 78.0394 143.971 78.1225C143.971 78.2056 143.971 78.279 143.946 78.3425C143.939 78.3955 143.922 78.4468 143.897 78.4941C143.875 78.5365 143.847 78.5759 143.814 78.6114C143.724 78.6772 143.626 78.7299 143.521 78.7679C143.323 78.8441 143.121 78.9078 142.915 78.9585C142.67 79.0221 142.387 79.0759 142.069 79.1248C141.732 79.171 141.392 79.1938 141.052 79.1932C140.472 79.2029 139.895 79.1204 139.341 78.9488C138.875 78.8006 138.452 78.5397 138.111 78.1891C137.77 77.8386 137.521 77.4093 137.385 76.9394C137.215 76.3586 137.134 75.7551 137.146 75.15C137.137 74.5535 137.223 73.9595 137.4 73.3899C137.552 72.9007 137.803 72.448 138.138 72.0601C138.462 71.6961 138.865 71.4117 139.316 71.2289C140.327 70.8604 141.435 70.8604 142.445 71.2289C142.855 71.3922 143.222 71.6482 143.516 71.977C143.8 72.3084 144.01 72.6968 144.132 73.1161C144.267 73.5797 144.333 74.0608 144.328 74.5437L144.337 74.8566ZM142.338 74.265C142.381 73.7841 142.259 73.3028 141.991 72.901C141.852 72.7323 141.675 72.5996 141.474 72.5145C141.273 72.4293 141.054 72.3942 140.837 72.4121C140.6 72.4063 140.366 72.4566 140.152 72.5588C139.961 72.6529 139.793 72.7901 139.664 72.9597C139.531 73.136 139.432 73.3347 139.37 73.5463C139.301 73.7835 139.26 74.028 139.248 74.2748L142.338 74.265ZM141.184 67.8164C141.262 67.6917 141.384 67.601 141.526 67.5621C141.628 67.5334 141.733 67.5153 141.839 67.5083C141.992 67.4998 142.146 67.4998 142.299 67.5083C142.496 67.5066 142.694 67.5181 142.89 67.5426C142.999 67.5546 143.105 67.5861 143.203 67.6355C143.23 67.6492 143.253 67.6702 143.268 67.6962C143.284 67.7221 143.292 67.7519 143.291 67.7821C143.281 67.8461 143.252 67.9057 143.208 67.9532L141.619 69.8551C141.579 69.9042 141.535 69.95 141.487 69.992C141.436 70.0306 141.378 70.0589 141.316 70.0751C141.232 70.1021 141.145 70.1185 141.057 70.124C140.927 70.1327 140.796 70.1327 140.666 70.124C140.514 70.1254 140.362 70.1173 140.211 70.0996C140.128 70.0912 140.048 70.0645 139.976 70.0213C139.955 70.006 139.939 69.985 139.93 69.9607C139.92 69.9365 139.918 69.91 139.923 69.8844C139.938 69.817 139.968 69.7536 140.011 69.6986L141.184 67.8164Z" fill="#CCD1DC"/>
<path d="M152.976 78.7141C152.978 78.7681 152.963 78.8214 152.932 78.8657C152.899 78.9147 152.851 78.951 152.795 78.9683C152.709 79.0024 152.618 79.0222 152.526 79.027C152.414 79.027 152.277 79.027 152.115 79.027C151.954 79.027 151.798 79.027 151.685 79.027C151.595 79.0212 151.506 79.0014 151.421 78.9683C151.362 78.9508 151.311 78.9148 151.274 78.8657C151.243 78.8214 151.228 78.7681 151.23 78.7141V77.9025C150.888 78.2789 150.487 78.5975 150.042 78.8461C149.621 79.0736 149.148 79.1897 148.669 79.1834C148.178 79.199 147.691 79.0879 147.256 78.8608C146.875 78.6494 146.551 78.3492 146.312 77.9856C146.057 77.5954 145.878 77.1609 145.784 76.7047C145.67 76.196 145.615 75.6761 145.618 75.1549C145.61 74.5631 145.681 73.9729 145.828 73.3997C145.947 72.9236 146.154 72.4741 146.439 72.0747C146.698 71.7145 147.043 71.424 147.441 71.2289C147.87 71.0263 148.341 70.9259 148.815 70.9356C149.201 70.9295 149.583 71.015 149.93 71.1849C150.293 71.3761 150.623 71.6236 150.908 71.9183V67.9581C150.908 67.9038 150.925 67.851 150.957 67.8066C150.998 67.755 151.054 67.7175 151.118 67.699C151.221 67.664 151.328 67.6394 151.436 67.6257C151.598 67.6088 151.761 67.6007 151.925 67.6012C152.088 67.6005 152.251 67.6087 152.414 67.6257C152.52 67.6386 152.625 67.6632 152.726 67.699C152.791 67.7187 152.848 67.756 152.893 67.8066C152.924 67.851 152.941 67.9038 152.942 67.9581L152.976 78.7141ZM150.922 73.825C150.68 73.5034 150.395 73.2157 150.077 72.9694C149.832 72.7822 149.534 72.6793 149.226 72.6761C148.979 72.6705 148.737 72.7404 148.532 72.8765C148.335 73.015 148.176 73.1997 148.067 73.4143C147.946 73.6506 147.857 73.9022 147.803 74.1624C147.746 74.4423 147.718 74.7274 147.72 75.0131C147.72 75.3128 147.744 75.6121 147.793 75.9078C147.835 76.1756 147.916 76.4359 148.033 76.6802C148.136 76.8968 148.29 77.0848 148.483 77.2278C148.689 77.371 148.936 77.4431 149.187 77.4332C149.328 77.434 149.468 77.4125 149.602 77.3696C149.747 77.3242 149.884 77.2566 150.008 77.1691C150.165 77.0631 150.309 76.9402 150.438 76.8025C150.614 76.6298 150.777 76.4452 150.927 76.25L150.922 73.825Z" fill="#CCD1DC"/>
<path d="M157.279 68.936C157.311 69.2452 157.22 69.5547 157.024 69.7965C156.747 69.9835 156.413 70.0666 156.081 70.0312C155.75 70.0704 155.417 69.9887 155.142 69.8014C155.048 69.6869 154.978 69.5549 154.936 69.413C154.894 69.2711 154.881 69.1222 154.898 68.9751C154.864 68.6651 154.953 68.3543 155.147 68.1098C155.423 67.9162 155.76 67.8293 156.095 67.8653C156.425 67.8279 156.757 67.9113 157.029 68.1C157.124 68.2157 157.195 68.3493 157.238 68.4928C157.281 68.6364 157.295 68.7871 157.279 68.936ZM157.122 78.7142C157.124 78.7674 157.107 78.8195 157.073 78.8608C157.026 78.9091 156.967 78.9445 156.902 78.9635C156.8 78.9928 156.695 79.0124 156.589 79.0222C156.264 79.0532 155.937 79.0532 155.611 79.0222C155.505 79.0124 155.401 78.9928 155.298 78.9635C155.234 78.9445 155.175 78.9091 155.127 78.8608C155.096 78.8184 155.079 78.767 155.078 78.7142V71.4246C155.079 71.3732 155.096 71.3234 155.127 71.2828C155.174 71.2327 155.233 71.1957 155.298 71.1752C155.4 71.1397 155.505 71.1167 155.611 71.1068C155.937 71.0758 156.264 71.0758 156.589 71.1068C156.696 71.1167 156.801 71.1397 156.902 71.1752C156.967 71.1957 157.026 71.2327 157.073 71.2828C157.106 71.3224 157.124 71.3729 157.122 71.4246V78.7142Z" fill="#CCD1DC"/>
<path d="M164.713 77.5602C164.713 77.702 164.713 77.8242 164.713 77.9171C164.706 77.9991 164.695 78.0807 164.679 78.1615C164.668 78.2153 164.652 78.2678 164.63 78.318C164.596 78.3768 164.553 78.4297 164.503 78.4744C164.401 78.5655 164.287 78.6428 164.165 78.7042C163.993 78.8029 163.811 78.8847 163.623 78.9487C163.407 79.0219 163.187 79.0791 162.963 79.1198C162.215 79.2479 161.447 79.1805 160.733 78.9242C160.311 78.7564 159.936 78.4898 159.638 78.1469C159.331 77.7806 159.102 77.3544 158.968 76.8953C158.812 76.3469 158.736 75.7787 158.743 75.2086C158.73 74.5635 158.824 73.9208 159.022 73.3067C159.178 72.8168 159.438 72.3664 159.785 71.9867C160.109 71.6398 160.509 71.3722 160.953 71.2044C161.423 71.0329 161.92 70.9468 162.42 70.9502C162.635 70.9501 162.849 70.9697 163.06 71.0088C163.262 71.0442 163.46 71.0965 163.652 71.1653C163.821 71.2242 163.985 71.2978 164.141 71.3853C164.252 71.4447 164.355 71.5169 164.449 71.6004C164.498 71.6452 164.54 71.6962 164.576 71.752C164.602 71.801 164.62 71.8538 164.63 71.9084C164.646 71.9892 164.657 72.0708 164.664 72.1529C164.664 72.2507 164.664 72.3631 164.664 72.5C164.676 72.7264 164.648 72.9532 164.581 73.1698C164.527 73.2969 164.454 73.3605 164.366 73.3605C164.258 73.3563 164.155 73.3168 164.072 73.248C163.97 73.1698 163.843 73.0867 163.701 72.9938C163.547 72.8928 163.383 72.8076 163.212 72.7396C162.987 72.6563 162.748 72.6164 162.508 72.6222C162.267 72.6118 162.027 72.6634 161.811 72.7721C161.595 72.8808 161.411 73.043 161.276 73.2431C160.957 73.794 160.809 74.4269 160.851 75.0619C160.845 75.412 160.882 75.7616 160.958 76.1033C161.014 76.3724 161.122 76.6282 161.276 76.8562C161.407 77.0512 161.588 77.208 161.799 77.3109C162.029 77.4168 162.28 77.4687 162.532 77.4624C162.783 77.4674 163.032 77.4242 163.266 77.3353C163.454 77.2597 163.635 77.1646 163.804 77.0517C163.937 76.9642 164.066 76.8696 164.19 76.7682C164.262 76.6981 164.354 76.6535 164.454 76.641C164.499 76.6401 164.542 76.6558 164.576 76.6851C164.616 76.7272 164.643 76.7797 164.654 76.8366C164.677 76.9297 164.692 77.0246 164.698 77.1202C164.708 77.231 164.713 77.3777 164.713 77.5602Z" fill="#CCD1DC"/>
<path d="M173.522 74.9936C173.528 75.5715 173.446 76.1469 173.278 76.6999C173.125 77.1908 172.87 77.6439 172.53 78.0297C172.184 78.4107 171.754 78.7054 171.273 78.8902C170.711 79.1019 170.114 79.2047 169.513 79.1933C168.935 79.2062 168.358 79.1151 167.812 78.9244C167.357 78.759 166.946 78.4895 166.614 78.1372C166.287 77.7715 166.047 77.3371 165.91 76.8661C165.75 76.305 165.672 75.7236 165.68 75.1402C165.674 74.5619 165.758 73.9862 165.93 73.434C166.082 72.9418 166.339 72.4882 166.682 72.1041C167.027 71.7247 167.456 71.4316 167.934 71.2485C168.494 71.034 169.09 70.931 169.689 70.9454C170.269 70.9327 170.847 71.0221 171.396 71.2094C171.851 71.368 172.261 71.6367 172.588 71.9917C172.917 72.3563 173.158 72.791 173.293 73.2628C173.453 73.8255 173.53 74.4085 173.522 74.9936ZM171.396 75.0767C171.398 74.7489 171.37 74.4215 171.312 74.0989C171.263 73.8195 171.163 73.5513 171.019 73.3068C170.887 73.0882 170.7 72.9078 170.476 72.7837C170.211 72.6478 169.914 72.5822 169.616 72.593C169.339 72.588 169.065 72.6465 168.814 72.7642C168.586 72.8753 168.391 73.0438 168.247 73.2531C168.091 73.4924 167.979 73.7571 167.915 74.0353C167.838 74.3754 167.802 74.7233 167.807 75.0718C167.806 75.3998 167.835 75.7271 167.895 76.0496C167.945 76.329 168.044 76.5972 168.188 76.8416C168.318 77.0611 168.506 77.2404 168.731 77.3599C168.997 77.4913 169.29 77.5551 169.587 77.5457C169.867 77.5512 170.144 77.4927 170.398 77.3745C170.626 77.2634 170.822 77.0949 170.965 76.8856C171.121 76.6484 171.232 76.3851 171.293 76.1083C171.365 75.7692 171.399 75.4233 171.396 75.0767Z" fill="#CCD1DC"/>
</svg>
