<svg width="385" height="83" viewBox="0 0 385 83" fill="none" xmlns="http://www.w3.org/2000/svg">
<g clip-path="url(#clip0_6875_13730)">
<path d="M267.18 1.04297H281.138V4.0079H270.576V9.13456H280.35V11.9372H270.576V17.6363H281.299V20.5927H267.18V1.04297Z" fill="#5B585A"/>
<path d="M295.933 20.7475H292.86V18.7586H292.8C292.389 19.4711 291.802 20.0645 291.095 20.4809C290.389 20.8973 289.587 21.1227 288.768 21.1349C285.061 21.1349 283.469 19.258 283.469 15.53V6.47266H286.628V15.2287C286.628 17.7427 287.638 18.6725 289.341 18.6725C291.952 18.6725 292.826 16.9506 292.826 14.7724V6.47266H295.959L295.933 20.7475Z" fill="#5B585A"/>
<path d="M298.68 6.31725H301.554V9.08093H301.613C301.897 8.19421 302.437 7.41752 303.162 6.8545C303.887 6.29148 304.761 5.96891 305.669 5.92982C306.056 5.92747 306.443 5.95626 306.825 6.01592V9.0551C306.39 8.9794 305.951 8.93338 305.51 8.91735C303.406 8.91735 301.747 10.6393 301.747 13.799V20.592H298.68V6.31725Z" fill="#5B585A"/>
<path d="M306.273 13.5237C306.273 9.11341 308.899 5.92969 313.6 5.92969C318.301 5.92969 320.936 9.11341 320.936 13.5237C320.936 17.9339 318.266 21.135 313.609 21.135C308.952 21.135 306.273 17.96 306.273 13.5237ZM317.723 13.5237C317.723 11.0359 316.463 8.44361 313.6 8.44361C310.738 8.44361 309.468 11.0533 309.468 13.5237C309.468 15.9941 310.738 18.6298 313.6 18.6298C316.463 18.6298 317.723 16.0289 317.723 13.5237Z" fill="#5B585A"/>
<path d="M323.109 6.33072H326.084V8.28168H326.178C326.625 7.51803 327.273 6.89485 328.05 6.48151C328.826 6.06817 329.701 5.8809 330.576 5.94053C335.06 5.94053 337.228 9.40891 337.228 13.5883C337.228 17.4556 335.308 21.0974 331.099 21.0974C330.183 21.1502 329.269 20.9718 328.438 20.5782C327.608 20.1847 326.887 19.5883 326.341 18.8429H326.29V26.0225H323.152L323.109 6.33072ZM330.122 8.44643C327.481 8.44643 326.135 10.4754 326.135 13.5363C326.135 16.4237 327.593 18.6001 330.122 18.6001C332.985 18.6001 334.057 15.9988 334.057 13.5363C334.057 11.0738 332.711 8.44643 330.122 8.44643Z" fill="#5B585A"/>
<path d="M341.471 14.3588C341.471 16.6204 342.674 18.6298 345.278 18.6298C346.032 18.6906 346.783 18.4851 347.405 18.0478C348.027 17.6105 348.482 16.9682 348.693 16.229H351.656C350.973 19.3779 348.343 21.135 345.253 21.135C340.813 21.135 338.32 17.9861 338.32 13.5498C338.32 9.44396 340.95 5.92969 345.15 5.92969C349.615 5.92969 352.347 10.0355 351.835 14.3588H341.471ZM348.753 12.2624C348.777 11.7601 348.7 11.258 348.528 10.7867C348.356 10.3154 348.092 9.88463 347.751 9.52053C347.411 9.15642 347.001 8.86655 346.548 8.66849C346.094 8.47043 345.605 8.3683 345.112 8.3683C344.618 8.3683 344.13 8.47043 343.676 8.66849C343.222 8.86655 342.813 9.15642 342.472 9.52053C342.132 9.88463 341.868 10.3154 341.695 10.7867C341.523 11.258 341.447 11.7601 341.471 12.2624H348.753Z" fill="#5B585A"/>
<path d="M365.578 17.514C365.578 18.2967 365.749 18.6098 366.32 18.6098C366.58 18.6212 366.84 18.6066 367.097 18.5663V20.7753C366.457 20.9783 365.795 21.0981 365.126 21.1319C363.863 21.1319 362.968 20.6884 362.72 19.3925C361.353 20.5656 359.61 21.1848 357.823 21.1319C355.264 21.1319 352.977 19.7404 352.977 16.9226C352.977 13.3221 355.793 12.7394 358.42 12.435C360.664 12.0089 362.686 12.2611 362.686 10.3912C362.686 8.74749 360.98 8.44309 359.76 8.44309C358.011 8.44309 356.774 9.16494 356.637 10.7304H353.523C353.745 7.0168 356.834 5.92969 359.956 5.92969C362.72 5.92969 365.612 7.07768 365.612 10.1129L365.578 17.514ZM362.464 13.5047C361.509 14.1396 359.999 14.1135 358.634 14.3744C357.269 14.6353 356.074 15.0963 356.074 16.7748C356.074 18.1924 357.849 18.6185 358.941 18.6185C360.314 18.6185 362.447 17.888 362.447 15.879L362.464 13.5047Z" fill="#5B585A"/>
<path d="M368.188 6.3172H371.164V8.41795L371.216 8.46961C371.666 7.69277 372.312 7.04886 373.089 6.6029C373.866 6.15695 374.747 5.92475 375.642 5.92977C378.73 5.92977 380.678 7.59143 380.678 10.7942V20.592H377.546V11.6208C377.486 9.38223 376.611 8.41795 374.767 8.41795C374.289 8.416 373.816 8.51424 373.379 8.70636C372.941 8.89848 372.548 9.18025 372.225 9.53362C371.902 9.887 371.656 10.3042 371.503 10.7585C371.35 11.2128 371.293 11.6942 371.336 12.1718V20.592H368.196L368.188 6.3172Z" fill="#5B585A"/>
<path d="M266.111 30.9102H269.579V42.349C269.579 44.9794 269.744 48.0298 274.253 48.0298C278.761 48.0298 278.917 44.9794 278.917 42.349V30.9102H282.385V43.4714C282.385 48.501 279.134 51.003 274.244 51.003C269.354 51.003 266.094 48.501 266.094 43.4714L266.111 30.9102Z" fill="#5B585A"/>
<path d="M285.102 36.1848H288.06V38.2855L288.119 38.3372C288.571 37.554 289.222 36.9059 290.005 36.4596C290.788 36.0133 291.674 35.7847 292.573 35.7974C295.643 35.7974 297.592 37.459 297.592 40.6617V50.4592H294.463V41.4882C294.412 39.2498 293.531 38.2855 291.693 38.2855C289.616 38.2855 288.273 39.9385 288.273 42.0392V50.4592H285.144L285.102 36.1848Z" fill="#5B585A"/>
<path d="M300.305 30.9102H303.563V33.8726H300.305V30.9102ZM300.305 36.3056H303.563V50.4599H300.305V36.3056Z" fill="#5B585A"/>
<path d="M304.648 36.3398H308.164L311.865 47.1804H311.918L315.435 36.3398H318.767L313.545 50.459H309.94L304.648 36.3398Z" fill="#5B585A"/>
<path d="M322.464 44.2259C322.464 46.4876 323.676 48.497 326.273 48.497C327.027 48.5594 327.779 48.3546 328.402 47.917C329.024 47.4795 329.48 46.8362 329.691 46.0961H332.655C331.971 49.2451 329.341 51.0022 326.24 51.0022C321.807 51.0022 319.312 47.8533 319.312 43.4169C319.312 39.3112 321.943 35.7969 326.146 35.7969C330.605 35.7969 333.347 39.9027 332.826 44.2259H322.464ZM329.759 42.1295C329.759 41.1444 329.375 40.1997 328.691 39.5031C328.007 38.8065 327.079 38.4152 326.112 38.4152C325.144 38.4152 324.217 38.8065 323.533 39.5031C322.849 40.1997 322.464 41.1444 322.464 42.1295H329.759Z" fill="#5B585A"/>
<path d="M334.516 36.1845H337.398V38.9482H337.449C337.735 38.0627 338.276 37.2874 339 36.7247C339.724 36.162 340.598 35.8385 341.505 35.7971C341.892 35.7943 342.279 35.8231 342.661 35.8832V38.9224C342.226 38.8467 341.787 38.8006 341.346 38.7846C339.251 38.7846 337.583 40.5065 337.583 43.6662V50.4592H334.516V36.1845Z" fill="#5B585A"/>
<path d="M345.88 45.9831C346.057 47.8272 347.471 48.497 349.203 48.497C350.422 48.497 352.543 48.2447 352.463 46.592C352.384 44.9392 350.024 44.7305 347.665 44.1998C345.306 43.6692 342.964 42.8602 342.964 39.9288C342.964 36.7711 346.419 35.7969 349.088 35.7969C352.092 35.7969 354.814 37.0234 355.211 40.2332H351.836C351.553 38.7284 350.281 38.3108 348.858 38.3108C347.922 38.3108 346.207 38.537 346.207 39.7896C346.207 41.3467 348.584 41.5728 350.97 42.1034C353.356 42.6341 355.697 43.4691 355.697 46.3136C355.697 49.7931 352.163 51.0022 349.15 51.0022C345.465 51.0022 342.717 49.3843 342.664 45.9831H345.88Z" fill="#5B585A"/>
<path d="M357.32 30.9102H360.579V33.8726H357.32V30.9102ZM357.32 36.3056H360.579V50.4599H357.32V36.3056Z" fill="#5B585A"/>
<path d="M361.672 36.2426H364.139V31.9961H367.402V36.2426H370.361V38.5611H367.402V46.0774C367.402 47.3598 367.518 48.0138 368.984 48.0138C369.446 48.0316 369.908 47.9945 370.361 47.9034V50.2984C369.637 50.3578 368.948 50.4597 368.233 50.4597C364.827 50.4597 364.193 49.2113 364.139 46.8672V38.5611H361.672V36.2426Z" fill="#5B585A"/>
<path d="M370.352 36.3398H373.794L377.52 47.0802H377.58L381.194 36.3398H384.472L378.931 51.5048C377.907 54.1074 377.158 56.4325 373.88 56.4325C373.149 56.4304 372.418 56.3753 371.695 56.2677V53.5956C372.18 53.6932 372.672 53.7541 373.166 53.7778C374.629 53.7778 374.99 52.997 375.377 51.7737L375.739 50.6632L370.352 36.3398Z" fill="#5B585A"/>
<path d="M49.6954 1.04297V58.331C49.6954 68.4029 52.8756 72.8907 58.9617 72.8907C65.0477 72.8907 68.1336 68.4114 68.1336 58.331V1.04297H78.197V57.329C78.197 75.7855 70.9451 82.5 58.9445 82.5C46.9439 82.5 39.6406 75.7855 39.6406 57.329V1.04297H49.6954Z" fill="#5B585A"/>
<path d="M283.467 80.4166H281.282L280.763 78.1044C280.077 79.006 279.186 79.7274 278.166 80.2076C277.146 80.6879 276.027 80.9129 274.903 80.8635C269.06 80.8635 265.547 76.179 265.547 70.549C265.547 64.9189 269.034 60.2344 274.903 60.2344C279.155 60.2344 282.727 62.5208 283.246 66.9561H279.921C279.589 64.3774 277.369 63.0451 274.903 63.0451C270.727 63.0451 268.949 66.767 268.949 70.5404C268.949 74.3138 270.693 78.0442 274.903 78.0442C278.39 78.0958 280.303 75.9727 280.355 72.6377H275.175V70.059H283.467V80.4166Z" fill="#5B585A"/>
<path d="M298.257 77.2657C298.257 78.0484 298.427 78.3615 298.999 78.3615C299.256 78.3666 299.513 78.3462 299.767 78.3006V80.5096C299.127 80.7126 298.465 80.8324 297.796 80.8662C296.533 80.8662 295.638 80.4226 295.39 79.1268C294.02 80.3012 292.274 80.9204 290.485 80.8662C287.925 80.8662 285.648 79.4747 285.648 76.6569C285.648 73.0564 288.463 72.4737 291.09 72.1693C293.334 71.7432 295.356 71.9954 295.356 70.1256C295.356 68.4819 293.693 68.1775 292.43 68.1775C290.681 68.1775 289.444 68.8993 289.307 70.4648H286.194C286.407 66.7512 289.504 65.6641 292.618 65.6641C295.382 65.6641 298.282 66.8121 298.282 69.8473L298.257 77.2657ZM295.143 73.2564C294.187 73.8913 292.677 73.8652 291.312 74.1261C289.947 74.387 288.753 74.848 288.753 76.5265C288.753 77.944 290.536 78.3702 291.628 78.3702C293.001 78.3702 295.134 77.6396 295.134 75.6307L295.143 73.2564Z" fill="#5B585A"/>
<path d="M303.402 75.8503C303.563 77.6944 304.917 78.3642 306.575 78.3642C307.743 78.3642 309.782 78.112 309.698 76.4679C309.613 74.8239 307.362 74.5977 305.111 74.0671C302.86 73.5364 300.584 72.7275 300.584 69.796C300.584 66.6384 303.901 65.6641 306.448 65.6641C309.325 65.6641 311.932 66.8906 312.313 70.1005H309.08C308.809 68.5956 307.591 68.178 306.237 68.178C305.34 68.178 303.698 68.4042 303.698 69.6568C303.698 71.2139 305.983 71.3966 308.259 71.9707C310.535 72.5448 312.795 73.3364 312.795 76.1808C312.795 79.6168 309.41 80.8694 306.524 80.8694C302.996 80.8694 300.364 79.2515 300.305 75.8503H303.402Z" fill="#5B585A"/>
<path d="M312.797 66.2347H315.264V61.8633H318.527V66.2347H321.486V68.6214H318.527V76.3587C318.527 77.6789 318.643 78.3521 320.109 78.3521C320.571 78.3704 321.033 78.3322 321.486 78.2384V80.7038C320.771 80.765 320.082 80.87 319.358 80.87C315.952 80.87 315.318 79.5848 315.264 77.1718V68.6214H312.797V66.2347Z" fill="#5B585A"/>
<path d="M325.31 74.0932C325.31 76.3548 326.563 78.3642 329.263 78.3642C330.047 78.4267 330.83 78.2218 331.477 77.7843C332.125 77.3467 332.598 76.7034 332.817 75.9634H335.899C335.188 79.1123 332.452 80.8694 329.228 80.8694C324.617 80.8694 322.023 77.7205 322.023 73.2842C322.023 69.1784 324.759 65.6641 329.13 65.6641C333.776 65.6641 336.619 69.7699 336.077 74.0932H325.31ZM332.888 71.9968C332.913 71.4945 332.833 70.9924 332.654 70.5211C332.475 70.0498 332.2 69.6191 331.845 69.255C331.491 68.8909 331.065 68.601 330.593 68.4029C330.121 68.2049 329.613 68.1027 329.099 68.1027C328.585 68.1027 328.077 68.2049 327.605 68.4029C327.133 68.601 326.707 68.8909 326.353 69.255C325.998 69.6191 325.723 70.0498 325.544 70.5211C325.365 70.9924 325.285 71.4945 325.31 71.9968H332.888Z" fill="#5B585A"/>
<path d="M337.773 60.7773H341.032V63.7396H337.773V60.7773ZM337.773 66.1726H341.032V80.327H337.773V66.1726Z" fill="#5B585A"/>
<path d="M343.212 66.207H354.743V68.3956L346.593 77.8737H355.154V80.3262H342.664V78.1462L350.514 68.6681H343.212V66.207Z" fill="#5B585A"/>
<path d="M101.19 80.6737H90.1406V0.5H101.19L121.857 52.817V0.5H131.955V80.8709H121.669L102.141 31.3756V80.6737H101.19Z" fill="#5B585A"/>
<path d="M144.453 80.3279V0.5H172.406L173.235 11.6014H155.964V35.5122H169.78V45.7597H155.964V69.6705H173.235L172.181 80.3279H144.453Z" fill="#5B585A"/>
<path d="M0 80.3279V0.5H27.9525L28.7815 11.6014H11.5109V35.5122H25.3274V45.7597H11.5109V69.6705H28.7815L27.728 80.3279H0Z" fill="#5B585A"/>
<path d="M186.094 0.5H197.563L192.739 52.5914L199.835 80.3279H187.609L180.828 53.4453L186.094 0.5Z" fill="#5B585A"/>
<path d="M205.273 80.8709H243.867L245.652 70.8278H220.938L247.631 0.5H210.416L209.283 11.6495H232.119L205.273 80.8709Z" fill="#5B585A"/>
</g>
<defs>
<clipPath id="clip0_6875_13730">
<rect width="385" height="82" fill="white" transform="translate(0 0.5)"/>
</clipPath>
</defs>
</svg>
