<svg width="82" height="82" viewBox="0 0 82 82" fill="none" xmlns="http://www.w3.org/2000/svg">
<path d="M82 39.1543V42.8442C81.9298 43.1389 81.8129 43.4321 81.7941 43.73C81.306 51.4592 78.8294 58.5021 74.2708 64.7435C67.2029 74.4221 57.7021 80.0833 45.7699 81.5711C44.3881 81.7427 43.0001 81.8581 41.6152 81.9984H40.3848C39.3383 81.9049 38.2903 81.8191 37.2438 81.7162C29.8796 80.9972 23.1329 78.5736 17.1598 74.1975C8.00209 67.4899 2.4142 58.538 0.608228 47.2889C0.371175 45.812 0.201183 44.3258 0 42.8442C0 41.6137 0 40.3848 0 39.1543C0.0732992 38.7909 0.190266 38.4291 0.2121 38.0626C0.467868 33.7675 1.35058 29.5957 3.0505 25.6547C8.80371 12.3112 18.7506 3.96128 32.9956 0.865555C34.9513 0.441355 36.9631 0.28228 38.95 0C40.3161 0 41.6839 0 43.05 0C44.0294 0.10449 45.0135 0.182468 45.9882 0.31659C54.951 1.53616 62.794 5.14654 69.3177 11.4456C75.938 17.8367 80.024 25.5814 81.4058 34.7095C81.6288 36.188 81.8035 37.6727 82 39.1558V39.1543ZM1.89174 40.8729C1.84184 62.4775 19.2559 79.9585 40.915 80.0459C62.4431 80.1316 80.0724 62.6568 80.1114 41.1474C80.1504 19.3011 62.674 2.01963 41.3938 1.86523C19.5381 1.70772 1.94321 19.1607 1.89174 40.8729Z" fill="#CCD1DC"/>
<path d="M1.89073 40.8729C1.9422 19.1607 19.5371 1.70768 41.3928 1.86519C62.6729 2.01803 80.1494 19.3011 80.1104 41.1473C80.0714 62.6568 62.4437 80.1316 40.914 80.0458C19.2549 79.9601 1.84083 62.479 1.89073 40.8729ZM76.7885 40.9976C76.5826 20.5206 60.2743 5.30246 41.293 5.22604C21.3197 5.1465 5.20947 21.0166 5.23754 40.9196C5.26718 61.3717 21.8468 76.7053 41.0107 76.7021C60.0576 76.699 76.5686 61.4824 76.7885 40.9961V40.9976Z" fill="white"/>
<path d="M76.6838 40.9258C76.4639 61.4106 59.9529 76.6272 40.906 76.6319C21.7421 76.635 5.16248 61.2999 5.13285 40.8494C5.10478 20.9463 21.215 5.07628 41.1883 5.15582C60.1696 5.23223 76.4795 20.4488 76.6838 40.9274V40.9258Z" fill="#CCD1DC"/>
<path d="M42.2134 45.8603C42.2618 49.48 42.2399 53.5099 42.2306 57.1312L40.9128 58.828L39.5637 57.1671C39.4483 54.0636 39.5076 50.9538 39.506 47.8456C39.506 47.5088 39.506 47.1735 39.506 46.8132L39.5294 44.6782L39.5528 42.6164C39.4842 39.7874 39.5076 36.949 39.5092 34.1153C39.5092 33.7488 39.5092 33.3823 39.5092 32.969H42.1776V42.8238L42.2165 45.8619L42.2134 45.8603Z" fill="white" stroke="white" stroke-width="0.5" stroke-miterlimit="10"/>
<path d="M55.9767 24.9825H47.8561L47.8888 23.7021L48.8464 23.7193C50.3327 23.66 50.4387 23.2608 50.4403 21.7589C50.4418 19.2309 50.4543 16.7028 50.42 14.1763C50.3935 12.3064 49.5139 11.0323 48.1197 10.7126C46.4494 10.3305 44.8352 11.1539 43.979 12.8492C43.6921 13.4153 43.4691 14.2013 43.4254 15.0528C43.3037 17.4732 43.3614 19.9015 43.3708 22.325C43.3739 23.1266 43.7841 23.5898 44.645 23.5867L45.9144 23.5976L45.9488 25.0574C43.4613 25.0621 40.2189 25.0574 37.758 25.0574L37.7486 23.685H39.0914C39.0914 23.685 40.2423 23.5976 40.3125 22.952L40.2798 21.7823C40.2548 19.0515 40.4186 16.2927 40.2938 13.5666C40.2252 12.0538 39.1631 11.0058 38.0402 10.7204C36.6148 10.357 35.0568 10.9059 34.2037 12.1879C33.5674 13.1439 33.2805 14.1685 33.2633 15.1417C33.2228 17.4935 33.1853 19.8516 33.1604 22.2065C33.151 23.0783 33.5347 23.5462 34.4299 23.5789L35.6947 23.5898L35.6697 24.9778H27.4805V23.5898L28.9667 23.5774C29.706 23.5119 30.0787 23.1064 30.0803 22.3749L30.2783 12.4951C30.2783 12.4951 30.4093 11.7621 29.8338 10.7937C29.2584 9.82517 27.9764 10.0607 27.9764 10.0607V8.77871L32.5833 8.48083C32.9748 9.43372 33.0886 10.3071 33.0793 11.6577C34.4626 9.86416 36.1469 8.53074 38.4317 8.49799C40.8085 8.46368 42.421 9.83765 43.0854 11.8588C43.0854 11.8588 45.4918 7.81802 49.6667 8.58533C51.5507 8.93155 53.1258 10.6486 53.3239 12.9958C53.4861 14.9296 53.4565 16.8806 53.4955 18.8254C53.5157 19.85 53.4923 20.8746 53.4986 21.8993C53.5064 23.2452 53.6826 23.5212 54.9786 23.5774L55.9736 23.6179V24.9856L55.9767 24.9825Z" fill="white" stroke="white" stroke-width="0.5" stroke-miterlimit="10"/>
<path d="M20.0532 55.1553H9.3125V53.6847L11.1434 53.6659C11.9747 53.6519 12.4675 53.2246 12.4722 52.4261C12.4987 48.1295 12.4846 43.8329 12.4846 39.4178L9.51212 39.3929L9.49497 37.5432L10.9204 37.5136C11.3945 37.5136 11.8671 37.5136 12.5361 37.5136C12.5361 36.5482 12.5049 35.6718 12.5423 34.8C12.6515 32.3078 13.3736 29.9996 14.8209 28.4666C16.4724 26.7168 19.3202 26.3706 21.5613 27.1613C23.23 27.7492 24.094 29.4741 23.7135 31.2161C23.5248 32.0817 23.0912 32.7429 22.1352 32.8614C21.279 32.9675 20.4321 32.877 20.022 31.9943C19.6118 31.1132 19.7678 30.2726 20.4899 29.5552C20.6848 29.3618 21.0341 29.0296 20.9577 28.8378C20.847 28.5586 20.3713 28.3855 20.0688 28.3262C18.3408 27.9863 16.3196 29.1107 15.9547 30.9697C15.4104 33.7317 15.6303 35.1493 15.5383 37.5136L19.9986 37.5105L20.022 39.343L15.7238 39.3773C15.7192 43.1686 15.7426 47.9283 15.7488 51.7181C15.7519 53.2059 16.0108 53.5677 17.5111 53.6706C17.954 53.7003 19.5947 53.7268 20.0391 53.7299L20.0547 55.1569L20.0532 55.1553Z" fill="white" stroke="white" stroke-width="0.5" stroke-miterlimit="10"/>
<path d="M57.7422 36.3032C57.7734 32.735 58.9415 29.7624 62.1386 27.827C64.9801 26.1068 68.9866 26.4765 71.0234 28.7019C71.8874 29.6455 72.4254 30.734 72.0621 32.0628C71.8203 32.9486 71.2729 33.5927 70.3403 33.7627C69.4529 33.9249 68.6981 33.6083 68.2396 32.8192C67.7655 32.0051 67.8778 31.1879 68.4018 30.4112C68.9991 29.5238 68.8306 28.9936 67.8263 28.5382C66.2324 27.8161 63.957 28.2762 63.0587 29.7843C62.3257 31.0148 61.769 32.4324 61.5007 33.836C61.0765 36.0615 61.1623 38.326 62.1277 40.4579C62.8669 42.0923 64.0787 43.17 65.894 43.3899C67.8918 43.63 69.2938 42.6818 70.2654 40.9975C70.4697 40.6435 70.5774 40.1881 70.8674 39.9432C71.1341 39.7171 71.5864 39.6563 71.9591 39.6469C72.0433 39.6454 72.2726 40.1928 72.2118 40.4314C71.5053 43.2136 69.3328 44.9837 66.4726 45.16C61.3494 45.475 57.686 41.757 57.7437 36.3048L57.7422 36.3032Z" fill="white" stroke="white" stroke-width="0.5" stroke-miterlimit="10"/>
<path d="M39.7442 29.8655C37.8369 29.8748 36.0465 30.3396 34.618 31.5607C33.637 32.3982 33.5575 33.5507 33.8663 34.7578C34.083 35.6078 34.6086 36.1458 35.4445 36.3142C35.9717 36.4203 36.5394 36.414 37.0602 36.4374C37.7979 36.4733 38.5715 36.8538 38.8974 37.3747C39.3294 38.0687 38.9099 38.9312 38.1379 39.1027C37.3222 39.2836 36.5284 39.0856 35.6301 38.5054C35.2231 38.2434 34.788 37.9346 34.3388 37.6944C32.6015 36.7681 31.9075 35.2647 31.973 33.3776C32.0338 31.6246 33.6448 29.9622 34.827 29.46C36.1541 28.897 36.9386 28.6662 38.4264 28.2825C38.9036 28.1593 39.5852 28.1281 39.7442 28.0829C39.7442 28.0829 39.6756 29.8998 39.6912 29.9606" fill="white"/>
<path d="M39.7442 29.8655C37.8369 29.8748 36.0465 30.3396 34.618 31.5607C33.637 32.3982 33.5575 33.5507 33.8663 34.7578C34.083 35.6078 34.6086 36.1458 35.4445 36.3142C35.9717 36.4203 36.5394 36.414 37.0602 36.4374C37.7979 36.4733 38.5715 36.8538 38.8974 37.3747C39.3294 38.0687 38.9099 38.9312 38.1379 39.1027C37.3222 39.2836 36.5284 39.0856 35.6301 38.5054C35.2231 38.2434 34.788 37.9346 34.3388 37.6944C32.6015 36.7681 31.9075 35.2647 31.973 33.3776C32.0338 31.6246 33.6448 29.9622 34.827 29.46C36.1541 28.897 36.9386 28.6662 38.4264 28.2825C38.9036 28.1593 39.5852 28.1281 39.7442 28.0829C39.7442 28.0829 39.6756 29.8998 39.6912 29.9606" stroke="white" stroke-width="0.5" stroke-miterlimit="10"/>
<path d="M42.8821 32.8224C41.4707 32.8209 40.156 32.8209 38.7617 32.8209V31.8087H42.8821V32.8224Z" fill="white" stroke="white" stroke-width="0.5" stroke-miterlimit="10"/>
<path d="M41.9638 27.813L41.9404 31.8086H39.7461V27.852C39.7461 27.852 39.835 27.1221 40.8206 27.1128C41.8063 27.1034 41.9638 27.813 41.9638 27.813Z" fill="white" stroke="white" stroke-width="0.5" stroke-miterlimit="10"/>
<path d="M46.4766 72.5739C47.7835 72.117 49.0873 71.6507 50.3989 71.2046C51.6465 70.7804 52.066 70.2673 52.0785 68.8715C52.1035 65.8008 52.0785 62.7284 52.0957 59.6577C52.0988 59.1165 52.0847 58.4989 52.2189 57.9765C52.2812 57.7316 52.6493 57.4602 52.863 57.4478C53.0735 57.4353 53.415 57.7332 53.5055 57.9702C53.6599 58.371 53.7176 58.8295 53.7192 59.2647C53.7347 62.7456 53.7316 66.2265 53.7254 69.7075C53.7223 71.0877 53.3885 71.5742 52.0535 71.8565C50.2289 72.2417 48.3621 72.4398 46.5265 72.7751L46.4781 72.5739H46.4766Z" fill="white"/>
<path d="M31.7698 57.3356C31.8197 60.4718 31.8493 63.6112 31.7714 66.7459C31.7339 68.2665 32.3141 69.249 33.6288 69.9586C34.9653 70.6807 36.6232 71.7116 37.9238 72.5007C37.8786 72.5802 37.8474 72.4726 37.8022 72.5522C35.7233 71.8161 33.2233 71.1283 31.1819 70.3033C30.7982 70.1489 30.4146 69.4518 30.4068 68.9979C30.3459 65.0429 30.3537 61.0879 30.4005 57.1328C30.4005 57.1328 30.3631 56.1176 31.2068 56.1176C31.9492 56.1176 31.7698 57.3356 31.7698 57.3356Z" fill="white"/>
<path d="M35.9891 72.9201C34.1114 72.5988 31.758 72.3088 29.8897 71.9454C28.3582 71.6475 28.0244 71.1906 28.0229 69.6388C28.0197 66.1563 28.0151 62.6723 28.0291 59.1898C28.0322 58.4958 27.9137 57.4524 28.8214 57.4664C29.7103 57.4805 29.5715 58.5254 29.5746 59.2163C29.5902 62.3245 29.5746 65.4311 29.5824 68.5393C29.5855 70.2423 29.963 70.7336 31.574 71.2873C32.9214 71.7504 34.9192 72.4133 36.1029 72.8328C36.078 72.9014 36.014 72.8499 35.9891 72.9201Z" fill="white"/>
<path d="M47.9627 69.2273C47.9939 69.2101 48.0251 69.1929 48.0563 69.1758C48.8282 68.7516 49.1979 68.1184 49.1994 67.2669C49.2057 63.4413 49.2135 59.6173 49.1932 55.7917C49.1869 54.7624 48.8329 54.5986 47.9143 55.1444C46.2129 56.155 44.5332 57.2015 42.8193 58.1934C41.9288 58.708 41.4999 59.3911 41.5436 60.4423C41.595 61.6525 41.5654 62.8674 41.5591 64.1914L41.5981 67.1359C41.6106 67.2825 41.6075 67.4384 41.5903 67.6069C41.4515 68.9247 41.5451 70.2675 41.5638 71.5993C41.5779 72.7082 41.8867 72.8673 42.8661 72.3074C43.1047 72.1701 43.3417 72.0298 43.6193 71.866L47.9658 69.2288" fill="white"/>
<path d="M45.0508 72.2527C46.6946 71.5961 48.0826 71.2078 49.7591 70.6339C51.1097 70.1707 51.2952 69.943 51.2968 68.4957C51.2999 64.8417 51.2968 61.1861 51.2952 57.532L51.2984 56.6633C51.2984 56.6633 51.2906 56.2953 50.6995 56.2579C49.9322 56.2095 49.9478 57.702 49.9384 57.7036C50.1895 60.7276 49.9603 63.6751 50.0273 66.9003C50.0523 68.0778 49.9353 68.7624 49.469 69.1336C48.0857 70.2377 46.5636 71.0316 45.0633 71.9907L45.0508 72.2527Z" fill="white"/>
<path d="M40.1442 62.6614C40.1395 62.518 40.152 62.3651 40.1832 62.2014C40.3048 61.5401 40.2035 60.8399 40.2097 60.1568C40.2175 59.2975 39.8713 58.6565 39.1165 58.2151C37.8205 57.4588 36.5198 56.7055 35.2643 55.8836C35.0616 55.751 34.7809 55.6294 34.5547 55.4859C32.8268 54.3864 32.585 55.5904 32.585 55.5904C32.5242 59.4831 32.5289 63.3773 32.6022 67.2699C32.6131 67.8236 33.0045 68.5737 33.4584 68.8778C35.2971 70.113 37.2216 71.225 39.132 72.351C39.8307 72.7627 40.1863 72.5241 40.1972 71.6461C40.2206 69.837 40.2019 68.0263 40.2081 66.2157L40.1442 62.6614Z" fill="white"/>
<path d="M34.5419 59.0448C35.4901 60.3969 36.4788 61.8333 37.7343 62.7128C40.5742 64.7013 42.7592 67.7861 43.8587 69.3815C44.9581 70.9785 43.7011 73.2024 43.9366 73.5159C44.1721 73.8294 44.8381 72.5474 44.8786 70.5325C44.9316 67.9717 41.5583 64.0416 38.2583 61.5822C34.9567 59.1227 34.4904 54.8386 34.4904 54.8386C34.2019 51.3234 36.0343 49.2819 39.1925 46.9145C39.3406 46.8038 39.6182 46.5683 39.86 46.3905L43.1007 44.1931C44.5137 43.1809 45.9563 42.1844 47.2273 41.0085C49.052 39.3179 50.0813 37.2281 49.8863 34.6268C49.576 30.5033 45.6943 27.9908 42.0309 27.9768C41.9092 27.9768 41.9326 28.0797 41.9373 28.2014C41.9544 28.6271 41.9373 29.1745 41.956 29.541C41.9622 29.6518 41.9014 29.7672 42.0121 29.7719C43.3783 29.8311 44.6852 30.1493 45.7301 30.6998C46.5161 31.1146 47.232 32.1892 47.664 32.9721C48.7869 35.0104 48.3814 36.9817 46.9887 38.7923C45.7317 40.4283 44.2361 41.5808 42.3287 42.8191L41.8312 43.2511L39.5153 44.8824C39.5153 44.8824 38.9648 45.3113 37.8668 46.0084C35.6164 47.4339 33.5827 49.3365 33.0416 52.0907C32.9605 52.504 32.6517 56.3436 34.5434 59.0416L34.5419 59.0448Z" fill="white" stroke="white" stroke-width="0.5" stroke-miterlimit="10"/>
<path d="M40.7695 45.84V58.7329H41.0596V45.5858C41.0596 45.5858 41.0487 45.5874 41.044 45.5889C40.9863 45.6981 40.8943 45.7886 40.7695 45.84Z" fill="white"/>
<path d="M41.0565 43.8453V32.9674H40.7664L40.7539 43.9108C40.8272 43.8344 40.9364 43.8687 41.058 43.8453H41.0565Z" fill="white"/>
<path d="M42.6992 60.7774L47.8941 57.532V57.8985L42.6992 61.0644V60.7774Z" fill="white"/>
<path d="M42.6992 63.4411L47.8941 60.1973V60.5622L42.6992 63.7297V63.4411Z" fill="white"/>
<path d="M42.9023 65.9802L47.8929 62.8611V63.2276L42.9211 66.2594L42.9023 65.9802Z" fill="white"/>
<path d="M44.1133 67.822L47.8936 65.4608V65.8273L44.1881 68.0855L44.1133 67.822Z" fill="white"/>
<path d="M35.8359 58.6222C35.8749 58.6939 35.9124 58.7688 35.9435 58.8514C35.9669 58.9138 35.9732 58.9793 35.9685 59.0433L39.2841 61.0645V60.7759L35.8359 58.6222Z" fill="white"/>
<path d="M37.832 62.8345C37.6885 62.7066 37.5716 62.5787 37.4187 62.4711C37.2425 62.3463 37.1006 62.273 37.0039 62.0641C36.9945 62.0438 36.9883 62.0219 36.9805 62.0001L34.0938 60.1973V60.5638L37.8819 62.8719C37.8663 62.8594 37.8492 62.8485 37.8336 62.8345H37.832Z" fill="white"/>
<path d="M39.082 65.9802L34.0898 62.8611V63.2276L39.0633 66.2594L39.082 65.9802Z" fill="white"/>
<path d="M39.2847 68.7063L34.0898 65.4608V65.8273L39.2847 68.9948V68.7063Z" fill="white"/>
</svg>
