<svg width="65" height="83" viewBox="0 0 65 83" fill="none" xmlns="http://www.w3.org/2000/svg">
<g clip-path="url(#clip0_6875_13795)">
<path d="M30.4757 2.17206C28.3452 4.5453 26.9968 5.75889 24.8932 7.13429C21.657 9.26481 17.9893 10.7211 14.2945 11.3414C13.5664 11.4762 11.2471 11.665 10.492 11.665H10.1953V24.4482V37.2313L10.7347 38.2022C12.3258 41.0609 14.726 44.1353 17.5578 46.8591C21.4412 50.6347 25.8102 53.6013 30.7994 55.8127L31.986 56.3521L32.9029 55.9476C35.411 54.8418 38.2967 53.2507 40.4272 51.7944C45.6861 48.2076 50.5674 43.0565 53.2373 38.2561L53.7767 37.2853V24.5291V11.692L52.1585 11.5841C47.439 11.2875 42.8544 9.66934 38.7821 6.89157C36.8673 5.59708 35.5998 4.43742 33.4423 2.06418C32.6602 1.20118 32.013 0.5 32.013 0.5C31.986 0.5 31.3118 1.25512 30.4757 2.17206ZM32.9838 4.08683C34.0626 5.27345 35.4649 6.56795 36.8134 7.59276C40.8856 10.6942 46.5491 12.8786 51.3495 13.2292L52.1585 13.2831V25.0415V36.7998L51.7001 37.5819C50.2438 40.1709 48.2211 42.7329 45.6591 45.2949C42.0723 48.8548 38.6742 51.309 34.0356 53.6013C31.7433 54.734 32.2287 54.734 29.9364 53.6283C23.8954 50.6617 18.4747 46.2388 14.5912 41.0878C13.7012 39.9012 12.8382 38.6067 12.2719 37.5819L11.8674 36.8538V25.0415V13.2831L12.7304 13.2292C16.0475 12.9865 20.4434 11.6381 23.7875 9.77722C26.3765 8.34788 28.0216 7.08035 30.287 4.78802C31.2039 3.84411 31.986 3.08899 32.013 3.08899C32.0399 3.03505 32.4714 3.49352 32.9838 4.08683Z" fill="#5B585A"/>
<path d="M24.2974 18.8372C24.0817 19.026 24.0547 19.1069 24.0547 19.4575C24.0547 19.8081 24.1086 19.9159 24.2974 20.0777C24.648 20.3744 25.0795 20.3474 25.4301 20.0238C26.1852 19.2687 25.1065 18.136 24.2974 18.8372ZM25.2952 19.2687C25.484 19.3226 25.484 19.3496 25.3762 19.4844C25.2952 19.5653 25.2413 19.7541 25.2413 19.889C25.2413 20.1047 25.2413 20.1047 25.0256 19.9968C24.8907 19.9159 24.7828 19.889 24.7019 19.9429C24.4862 20.0777 24.4053 20.0508 24.4862 19.8081C24.5132 19.6732 24.4862 19.5653 24.4053 19.4844C24.2165 19.3226 24.2435 19.2147 24.4592 19.2147C24.5401 19.2147 24.675 19.1338 24.7289 19.026L24.8368 18.8372L24.9986 19.026C25.0525 19.1338 25.1874 19.2417 25.2952 19.2687Z" fill="#5B585A"/>
<path d="M28.584 24.2072C28.2334 24.4768 28.1525 24.8544 28.3413 25.205C28.8267 26.1489 30.283 25.4747 29.8785 24.5038C29.6897 23.9914 29.0155 23.8296 28.584 24.2072ZM29.5549 24.6117C29.7706 24.6117 29.7706 24.7196 29.5819 24.8814C29.5009 24.9353 29.447 25.0702 29.474 25.205C29.5009 25.3668 29.474 25.4207 29.3661 25.3668C29.1773 25.2859 28.9885 25.2859 28.7998 25.3668C28.6649 25.4207 28.638 25.3938 28.6919 25.205C28.7189 25.0432 28.6919 24.9083 28.584 24.8005C28.4222 24.6387 28.4222 24.6117 28.611 24.6117C28.7189 24.6117 28.8537 24.5038 28.9616 24.3959L29.0964 24.1802L29.2313 24.3959C29.3391 24.5038 29.447 24.6117 29.5549 24.6117Z" fill="#5B585A"/>
<path d="M33.3091 14.4713C32.9855 14.768 32.9316 15.2534 33.1743 15.5231C33.3361 15.6579 33.3361 15.6579 33.2282 15.4692C32.9046 14.8219 33.6058 14.1207 34.1721 14.5253C34.3609 14.6601 34.4148 14.7949 34.4418 15.1455L34.4957 15.577L34.6036 15.3073C34.7385 14.9837 34.6576 14.6601 34.307 14.3904C34.0103 14.1477 33.6597 14.1747 33.3091 14.4713Z" fill="#5B585A"/>
<path d="M38.7815 17.7855C38.0804 18.1631 38.3231 19.1879 39.1052 19.2958C39.4288 19.3497 39.5097 19.3227 39.7524 19.08C39.9951 18.8373 40.0221 18.7564 39.9682 18.4328C39.9412 18.244 39.8333 18.0013 39.7524 17.8934C39.5636 17.6777 39.0782 17.6237 38.7815 17.7855ZM39.6445 18.3249C39.8333 18.3788 39.8333 18.4058 39.7254 18.5407C39.6445 18.6216 39.5906 18.8103 39.5906 18.9452C39.5906 19.1609 39.5636 19.1609 39.4558 19.08C39.3748 18.9991 39.213 18.9991 39.0512 19.0261C38.8085 19.08 38.7815 19.0531 38.8085 18.8643C38.8355 18.7294 38.8085 18.5946 38.7276 18.5407C38.5388 18.4058 38.5658 18.2979 38.7815 18.2979C38.8624 18.2979 38.9973 18.217 39.0512 18.1092L39.1591 17.9204L39.3209 18.0552C39.3748 18.1631 39.5367 18.271 39.6445 18.3249Z" fill="#5B585A"/>
<path d="M33.4157 21.2399C32.5257 21.7254 33.173 23.0199 34.1169 22.6693C34.7372 22.4535 34.8181 21.5905 34.2787 21.2669C33.9551 21.0512 33.7393 21.0512 33.4157 21.2399ZM34.2248 21.6984C34.4405 21.6984 34.4405 21.8063 34.2517 21.9681C34.1708 22.049 34.1439 22.1569 34.1708 22.2917C34.2248 22.4805 34.1978 22.5075 34.0629 22.4535C33.8472 22.3726 33.7663 22.3726 33.5775 22.4535C33.4427 22.5075 33.4157 22.4805 33.4157 22.2648C33.4157 22.1299 33.3618 21.9411 33.2539 21.8602C33.119 21.6984 33.119 21.6984 33.3348 21.6984C33.4966 21.6984 33.6045 21.6175 33.6584 21.5096L33.7663 21.3209L33.9011 21.5096C34.009 21.6175 34.1439 21.6984 34.2248 21.6984Z" fill="#5B585A"/>
<path d="M38.4815 21.9939C38.1849 22.2906 38.131 22.6142 38.2928 22.9648C38.6434 23.7469 39.857 23.4772 39.857 22.6142C39.83 21.913 38.967 21.5085 38.4815 21.9939ZM39.2367 22.3445C39.2367 22.3715 39.3445 22.4254 39.4524 22.4254C39.6951 22.4254 39.7491 22.5602 39.5333 22.6411C39.4524 22.6681 39.3985 22.803 39.3985 22.9648C39.3985 23.1805 39.3715 23.2345 39.2367 23.1805C39.0209 23.0996 38.94 23.0996 38.7512 23.1805C38.6164 23.2345 38.5894 23.2075 38.6164 23.0187C38.6164 22.8839 38.5625 22.7221 38.4815 22.6142C38.3197 22.4254 38.3197 22.4254 38.5625 22.4254C38.7243 22.4254 38.8321 22.3715 38.8861 22.2096C38.994 21.9939 38.994 21.9939 39.1018 22.1287C39.1827 22.1827 39.2367 22.2906 39.2367 22.3445Z" fill="#5B585A"/>
<path d="M40.7452 24.9891C40.2328 25.2049 40.098 25.8791 40.5025 26.3106C40.934 26.769 41.7431 26.5263 41.9049 25.906C42.0667 25.2858 41.3655 24.7464 40.7452 24.9891ZM41.5004 25.5824C41.7161 25.5824 41.7161 25.6903 41.5273 25.8521C41.4464 25.933 41.4195 26.0409 41.4464 26.1757C41.5004 26.3645 41.4734 26.3915 41.3386 26.3375C41.1498 26.2566 40.961 26.2566 40.7722 26.3375C40.6643 26.3915 40.6374 26.3645 40.6643 26.1757C40.6913 26.0409 40.6374 25.8791 40.5565 25.7982C40.4216 25.6364 40.4216 25.6364 40.6374 25.5824C40.7722 25.5555 40.9071 25.4476 40.961 25.3397C41.0689 25.1509 41.0689 25.1509 41.1767 25.3936C41.2846 25.4745 41.4195 25.5824 41.5004 25.5824Z" fill="#5B585A"/>
<path d="M22.9837 27.0622C22.4983 27.251 22.3634 27.9792 22.741 28.3297C23.1185 28.7343 23.7658 28.5725 23.9815 28.0601C24.1433 27.6555 24.0085 27.251 23.604 27.0892C23.2803 26.9543 23.2534 26.9543 22.9837 27.0622ZM23.4422 27.4128C23.4691 27.5207 23.577 27.6016 23.7118 27.6016C23.9546 27.6016 23.9815 27.7095 23.7928 27.8713C23.7118 27.9252 23.6579 28.087 23.6579 28.1949C23.6579 28.3837 23.6309 28.4107 23.4961 28.3567C23.2804 28.2758 23.1994 28.2758 22.9837 28.3567C22.8219 28.4107 22.8219 28.4107 22.8758 28.1949C22.9298 28.0331 22.9028 27.9252 22.7949 27.8713C22.6061 27.7095 22.6331 27.6016 22.8489 27.6016C22.9298 27.6016 23.0646 27.5207 23.1185 27.4128C23.1725 27.3049 23.2534 27.224 23.3073 27.224C23.3613 27.251 23.4152 27.3319 23.4422 27.4128Z" fill="#5B585A"/>
<path d="M3.31878 34.1562C3.10303 34.7495 3.18393 36.2058 3.45362 37.0418C3.69634 37.77 4.04693 38.4172 4.37055 38.6869C4.55933 38.8487 4.55933 38.8487 4.61327 38.5251C4.69418 38.0397 4.5863 36.4755 4.42449 35.8283C4.23571 35.154 3.77724 34.0753 3.56149 33.9135C3.45362 33.8595 3.42665 33.8865 3.31878 34.1562Z" fill="#5B585A"/>
<path d="M60.7675 33.995C60.5518 34.2377 60.1203 35.2086 59.9585 35.8558C59.7967 36.5031 59.6888 38.0403 59.7697 38.5527C59.8236 38.8763 59.8236 38.8763 60.0124 38.7145C60.336 38.4448 60.6866 37.7706 60.9293 37.0694C61.1181 36.4761 61.1451 36.2064 61.1451 35.3974C61.1451 34.7501 61.1181 34.3456 61.0103 34.1298C60.9293 33.8332 60.9293 33.8332 60.7675 33.995Z" fill="#5B585A"/>
<path d="M6.0649 38.4737C5.68734 38.7164 5.41765 39.4445 5.36372 40.2266L5.30978 40.9278L4.98615 40.0918C4.60859 39.1209 4.55466 39.1479 4.85131 40.1997L5.06706 40.9548L4.55466 40.4154C3.96135 39.7682 3.28713 39.3636 2.85563 39.4176C2.61291 39.4445 2.58594 39.4715 2.58594 39.6872C2.61291 40.1187 3.12532 41.0357 3.63772 41.5751C4.258 42.1953 4.63556 42.4111 5.17493 42.4381H5.57946L5.79521 42.9235C5.90309 43.1932 6.17277 43.7595 6.38852 44.191C6.60427 44.6225 6.76609 44.9731 6.73912 45.0001C6.71215 45.027 6.46943 44.8383 6.17277 44.5955C5.87612 44.3528 5.30978 43.9753 4.90525 43.7865C4.31194 43.4898 4.09619 43.4359 3.66469 43.4089C2.90957 43.4089 2.8826 43.4898 3.26016 44.2719C3.85347 45.4585 4.87828 46.5103 6.03793 47.0767C6.52337 47.3194 6.68518 47.3463 7.22455 47.3463C7.54818 47.3463 7.89877 47.3194 7.97967 47.2924C8.08755 47.2385 8.24936 47.4273 8.59995 47.9397C8.86964 48.3442 9.35508 48.9645 9.6787 49.342C10.0023 49.7196 10.245 50.0162 10.2181 50.0162C10.1911 50.0162 9.75961 49.8275 9.27417 49.5847C7.46727 48.7217 5.84915 48.533 5.33675 49.1532C5.09403 49.4499 6.65821 51.122 7.95271 51.8771C9.08539 52.5513 9.78658 52.767 10.9193 52.767C11.7823 52.767 11.9441 52.7401 12.2677 52.5513L12.6183 52.3356L13.3734 52.9558C13.7779 53.2795 14.4522 53.7919 14.8567 54.0615C15.2612 54.3582 15.477 54.5739 15.3691 54.52C13.8049 54.0885 13.1846 53.9806 11.9441 53.9806C10.7844 53.9806 10.6226 53.9806 10.2181 54.1694C9.73264 54.3852 9.38205 54.6818 9.38205 54.8436C9.38205 54.8976 9.57083 55.1133 9.81354 55.3291C12.4834 57.6753 16.7715 58.4035 18.4165 56.7854L18.7941 56.4078L19.9538 56.9202C22.7585 58.1608 25.752 59.0238 28.5028 59.4013C29.177 59.4822 29.9591 59.5092 29.5816 59.4283C26.3993 58.7811 23.163 57.7023 20.4122 56.3539C19.2526 55.7875 19.1447 55.7336 19.1986 55.5448C19.3335 55.0324 19.3604 54.493 19.2256 53.8997C19.0368 53.0367 18.2008 51.3377 17.4996 50.3668C16.9063 49.5308 15.6388 48.2633 15.45 48.2633C15.2612 48.2633 14.8567 48.9105 14.7218 49.4229C14.4252 50.5556 14.7758 51.985 15.6657 53.3064C16.0972 53.9537 16.0163 53.9267 14.614 52.848C12.9689 51.6074 13.1577 51.7962 13.3195 51.4186C13.4543 51.1759 13.4813 50.9332 13.4813 50.0162C13.4813 49.0184 13.4543 48.8296 13.1846 48.0475C12.861 47.0497 12.2947 45.89 11.8362 45.2428L11.5395 44.8113L11.1889 45.1349C10.6226 45.6473 10.4338 46.2137 10.4338 47.2654C10.4338 47.9666 10.4878 48.2902 10.6496 48.7757C10.7574 49.1263 10.8384 49.396 10.8114 49.396C10.7305 49.369 9.62476 48.0745 9.11236 47.4003L8.68086 46.8609L8.86964 46.6452C8.97751 46.5103 9.11236 46.2137 9.19326 45.9709C9.40901 45.3237 9.40901 43.5707 9.13933 42.6268C8.89661 41.7099 8.65389 41.1705 8.49208 41.1705C8.22239 41.1705 7.65605 41.7908 7.46727 42.3032C7.30546 42.7077 7.25152 42.9774 7.25152 43.7595V44.7034L7.03577 44.3798C6.9279 44.191 6.63124 43.6516 6.38852 43.1932L5.95703 42.3302L6.19974 42.0335C6.33459 41.8717 6.52337 41.5211 6.63124 41.2784C6.9279 40.4154 6.76609 38.3928 6.41549 38.3928C6.33459 38.3388 6.17278 38.3928 6.0649 38.4737Z" fill="#5B585A"/>
<path d="M57.7649 38.4733C57.7379 38.5542 57.684 38.9318 57.603 39.3363C57.4412 40.469 57.6839 41.6286 58.1964 42.0871L58.4121 42.3028L57.8727 43.3546C57.5761 43.921 57.2525 44.4873 57.1715 44.5952C57.0097 44.8109 57.0097 44.784 57.0906 44.2446C57.1985 43.5704 57.0637 42.6804 56.794 42.0871C56.6052 41.6826 56.0928 41.1702 55.877 41.1702C55.6883 41.1702 55.5265 41.5207 55.2568 42.4647C55.068 43.1119 55.0141 43.4355 55.0141 44.3794C55.0141 45.62 55.095 46.0515 55.4456 46.5639L55.6613 46.8875L55.2298 47.4539C54.6904 48.1281 53.5308 49.5035 53.5038 49.4765C53.5038 49.4765 53.5847 49.1529 53.7196 48.8023C54.0432 47.8854 54.0432 46.5909 53.7735 45.9436C53.5577 45.5121 53.2341 45.0806 52.9644 44.9188C52.8296 44.8649 52.7487 44.9458 52.452 45.4042C51.1306 47.4269 50.4833 50.1507 51.0227 51.3643L51.2115 51.7419L50.8878 52.0116C50.3754 52.4431 48.9461 53.5218 48.6495 53.6836C48.4067 53.8454 48.4067 53.8185 48.8113 53.1982C49.4315 52.2003 49.7552 51.3104 49.7552 50.3395C49.7552 49.4226 49.5934 48.8832 49.1888 48.5056L48.9191 48.2629L48.6495 48.4517C47.8134 49.045 46.3841 50.9058 45.7368 52.2812C45.1166 53.5488 44.9008 54.9242 45.1705 55.5984C45.2244 55.7332 45.0626 55.8411 44.3075 56.2187C41.7724 57.4862 38.9138 58.511 35.5157 59.347L34.6797 59.5628L35.3809 59.5088C37.862 59.347 41.7994 58.2143 44.8469 56.812L45.5211 56.4884L45.9256 56.8659C47.5707 58.4301 51.616 57.8368 54.3129 55.5984C54.6365 55.3557 54.9062 55.059 54.9331 55.0051C55.0141 54.8163 54.6635 54.4927 54.1511 54.25C53.7465 54.0612 53.5577 54.0342 52.4251 54.0612C51.3463 54.0612 50.9688 54.0881 50.1058 54.3039C49.5394 54.4387 49 54.5736 48.9191 54.6005C48.8382 54.6275 49.1619 54.3848 49.6203 54.0612C50.0788 53.7376 50.753 53.2251 51.1036 52.9285L51.7508 52.3891L52.1284 52.6049C52.452 52.7937 52.6138 52.8206 53.4768 52.8206C54.3129 52.8206 54.5286 52.7936 55.095 52.5779C56.4434 52.0925 58.0076 50.9058 58.7627 49.8001C59.1133 49.2877 59.1403 49.2608 58.9784 49.1259C58.3582 48.5865 56.8479 48.7753 55.1219 49.6113C54.6095 49.8541 54.178 50.0428 54.178 50.0428C54.1511 50.0428 54.3938 49.7462 54.6904 49.3956C54.9871 49.045 55.4725 48.4247 55.7422 48.0472L56.2816 47.319L56.821 47.3729C57.5491 47.4539 58.1964 47.2381 59.0324 46.6987C59.7875 46.1863 60.5696 45.3233 61.0281 44.4873C61.5135 43.6243 61.5135 43.5704 61.082 43.4355C60.4348 43.2198 59.3021 43.6782 58.1424 44.6491C57.8727 44.8649 57.657 45.0267 57.657 44.9997C57.657 44.9727 57.8458 44.5952 58.0345 44.1906C58.2503 43.7591 58.52 43.1928 58.6279 42.9501C58.8166 42.4647 58.8436 42.4647 59.1942 42.4647C59.7066 42.4647 60.1651 42.2219 60.7314 41.6556C61.1899 41.1702 61.7832 40.1453 61.8371 39.7138C61.8641 39.5251 61.8371 39.4981 61.5674 39.4711C61.1359 39.4172 60.5696 39.7678 59.9763 40.3881C59.6796 40.6847 59.4369 40.9005 59.4369 40.8465C59.4369 40.7926 59.5178 40.469 59.6257 40.1453C59.8684 39.2014 59.8414 39.2284 59.4639 40.1453L59.1403 40.9814L59.0863 40.3341C59.0324 39.606 58.7897 38.9587 58.4391 38.6351C58.0885 38.3115 57.8458 38.2845 57.7649 38.4733Z" fill="#5B585A"/>
<path d="M34.4689 59.5891C34.5229 59.6161 34.6038 59.6161 34.6307 59.5891C34.6577 59.5622 34.6038 59.5352 34.5229 59.5352C34.415 59.5352 34.388 59.5622 34.4689 59.5891Z" fill="#5B585A"/>
<path d="M3.99136 63.4722C2.64293 63.7419 1.53721 64.524 1.02481 65.5757C0.782091 66.0882 0.728154 66.2769 0.701185 67.0051C0.674216 67.7063 0.701185 67.922 0.862997 68.3805C1.24056 69.4053 2.13052 70.0256 4.09924 70.6728C5.25889 71.0504 5.66342 71.2931 5.69039 71.6167C5.74432 71.9673 5.44767 72.1291 4.77345 72.1291C4.09924 72.1291 3.39805 71.8864 2.80474 71.4279L2.34627 71.0774L1.45631 72.0213C0.970872 72.5337 0.431498 73.1 0.269687 73.2888L0 73.6124L0.377561 73.8821C0.59331 74.0439 1.07875 74.3136 1.48328 74.5024C4.63861 75.9856 8.25241 75.2305 9.35812 72.8303C9.60084 72.3179 9.65478 72.1022 9.68175 71.4279C9.73568 70.3762 9.51993 69.8098 8.87269 69.1626C8.30635 68.5693 7.6591 68.2456 6.22976 67.7602C4.74648 67.2478 4.77345 67.2748 4.69255 67.086C4.5577 66.8433 4.71952 66.6006 5.09708 66.4657C5.71736 66.25 6.63429 66.5197 7.28154 67.086L7.60516 67.3826L8.79178 66.1691L10.0054 64.9555L9.65478 64.6588C9.16934 64.2273 8.03666 63.6879 7.14669 63.4722C6.20279 63.2834 4.9083 63.2564 3.99136 63.4722Z" fill="#5B585A"/>
<path d="M14.4519 63.6594C14.4249 63.7134 13.3731 66.3293 12.1326 69.5116L9.86719 75.2829H11.9438H14.0204L14.2901 74.4739L14.5597 73.6648L16.4475 73.6378L18.3354 73.6109L18.4432 73.9884C18.4972 74.2042 18.632 74.5817 18.7399 74.8245L18.9017 75.2829H23.1358H27.3698L28.3407 73.6109C28.8801 72.6939 29.3386 71.9658 29.3655 71.9658C29.3925 71.9658 29.8779 72.7209 30.4443 73.6109L31.4421 75.229L33.8154 75.256C35.1368 75.256 36.1886 75.256 36.1886 75.229C36.1886 75.202 35.2717 73.8536 34.139 72.2624C33.0063 70.6443 32.0624 69.2959 32.0354 69.2419C32.0085 69.188 32.7636 68.0014 33.8963 66.3833L35.838 63.6325L33.6266 63.6055C32.413 63.6055 31.3612 63.6055 31.3073 63.6325C31.2533 63.6594 30.8218 64.3336 30.3364 65.1697C29.7701 66.1675 29.4464 66.626 29.3925 66.572C29.3655 66.5181 28.934 65.8169 28.4756 65.0618L27.6126 63.6594L25.2663 63.6325C23.9718 63.6325 22.92 63.6325 22.92 63.6594C22.92 63.6864 23.783 64.927 24.8618 66.4372C25.9135 67.9205 26.8035 69.188 26.8035 69.2419C26.8035 69.2959 23.2167 74.6087 23.0549 74.7975C23.0279 74.8245 23.0009 74.8245 22.974 74.7975C22.947 74.7705 19.3062 65.5203 18.7669 64.0909L18.605 63.6325H16.5554C15.4227 63.5785 14.4788 63.6325 14.4519 63.6594ZM16.933 69.0532C17.1487 69.7543 17.3645 70.3746 17.3914 70.4286C17.4184 70.5095 17.2027 70.5364 16.4745 70.5364C15.7733 70.5364 15.5306 70.5095 15.5576 70.4286C15.5845 70.3746 15.7733 69.7543 16.016 69.0532C16.2318 68.3789 16.4475 67.8126 16.4745 67.8126C16.5015 67.8126 16.6903 68.3789 16.933 69.0532Z" fill="#5B585A"/>
<path d="M37.027 67.3811C37.027 71.5612 37.0539 71.8309 37.5663 72.8288C38.1057 73.8806 39.1845 74.6896 40.5599 75.0672C41.2611 75.2829 43.4455 75.2829 44.1467 75.1211C46.0615 74.6357 47.3829 73.3951 47.7875 71.6691C47.8953 71.2106 47.9223 70.3746 47.9223 67.3541V63.6055H45.9806H44.0388V66.9496C44.0388 69.161 44.0119 70.4286 43.9309 70.6983C43.5804 72.0467 41.7195 72.2624 41.0992 71.0488C40.9105 70.7252 40.9105 70.5364 40.8835 67.1384L40.8565 63.6055H38.9148H37V67.3811H37.027Z" fill="#5B585A"/>
<path d="M49.9766 69.43V75.2822H51.7835H53.6173L53.5634 72.2078C53.5364 70.5357 53.4825 69.0255 53.4555 68.8906C53.3207 68.1625 53.6713 69.0794 54.6152 71.992L55.6669 75.2283H57.0693H58.4717L59.5504 71.992C60.1437 70.2121 60.6292 68.7288 60.6831 68.7018C60.7101 68.6749 60.7101 70.1312 60.6831 71.9651L60.6292 75.2822H62.517H64.4318V69.43V63.5778H61.7888H59.1459L59.0111 63.9823C58.9301 64.2251 58.5256 65.6005 58.1211 67.0837C57.6896 68.567 57.312 69.8076 57.2851 69.8345C57.2581 69.8885 56.7457 68.4861 56.1793 66.7601L55.1276 63.6048L52.5655 63.5778L50.0035 63.5508V69.43H49.9766Z" fill="#5B585A"/>
<path d="M32.3616 76.5507C32.2537 76.6585 31.8492 76.6855 29.7187 76.6855C27.3724 76.6855 26.9678 76.7125 27.2645 76.9013C27.3184 76.9282 27.3454 77.8991 27.3454 79.5172C27.3454 81.1623 27.3184 82.0523 27.2645 82.0523C27.2106 82.0523 27.1836 82.1062 27.1836 82.1871C27.1836 82.295 27.5342 82.322 29.8265 82.322C31.4986 82.322 32.4964 82.3489 32.5234 82.4029C32.6852 82.6456 32.7391 82.4298 32.7391 81.7556C32.7391 81.3511 32.7122 81.0005 32.6582 81.0005C32.6313 81.0005 32.5234 81.0814 32.4425 81.1893C32.3076 81.3511 32.1998 81.3781 30.4468 81.3781H28.586V80.6229V79.8678H29.7726C30.8513 79.8678 30.9592 79.8948 31.0671 80.0566C31.121 80.1645 31.2019 80.2454 31.2559 80.2454C31.3098 80.2454 31.3368 79.8678 31.3368 79.4093C31.3368 78.6273 31.2289 78.3306 31.121 78.7621C31.0671 78.9239 30.9862 78.9509 29.8265 78.9509H28.586V78.3036V77.6564H30.3389C31.7143 77.6564 32.1189 77.6834 32.3346 77.7912C32.4695 77.8721 32.6043 77.9261 32.6043 77.9261C32.6043 77.9261 32.6313 77.6024 32.6313 77.2249C32.6313 76.4428 32.5773 76.308 32.3616 76.5507Z" fill="#5B585A"/>
<path d="M52.0781 77.1732C52.0781 77.7665 52.1051 77.9283 52.213 77.9283C52.2939 77.9283 52.3478 77.8744 52.4017 77.7935C52.4287 77.6856 52.6445 77.6586 53.4266 77.6586H54.3974V79.8161C54.3974 81.1645 54.3705 82.0006 54.3165 82.0275C54.2626 82.0545 54.2356 82.1354 54.2356 82.2163C54.2356 82.3242 54.3974 82.3512 55.0177 82.3512C55.665 82.3512 55.7998 82.3242 55.7998 82.2163C55.7998 82.1354 55.7728 82.0815 55.7189 82.0815C55.665 82.0815 55.638 81.2994 55.638 79.87V77.6586H56.5549C57.2561 77.6586 57.4988 77.6856 57.5797 77.7935C57.7955 78.0362 57.8494 77.9283 57.8494 77.1732C57.8494 76.445 57.7955 76.3102 57.5797 76.5529C57.4719 76.6608 57.0943 76.6877 54.9638 76.6877C52.8332 76.6877 52.4557 76.6608 52.4287 76.5529C52.4017 76.472 52.3208 76.418 52.2399 76.418C52.1051 76.445 52.0781 76.6068 52.0781 77.1732Z" fill="#5B585A"/>
<path d="M43.8522 76.6586C42.4229 76.8474 41.5599 77.9531 41.9914 79.0049C42.2881 79.6791 42.8005 79.9218 44.3107 80.0297C45.6322 80.1375 45.8209 80.1644 46.0367 80.3532C46.3873 80.6768 46.1446 81.1083 45.4164 81.3241C44.4455 81.6207 42.9353 81.2971 42.5308 80.7308C42.3959 80.542 42.3959 80.5421 42.2341 80.8927C42.1262 81.0815 41.9914 81.378 41.9105 81.5668C41.7756 81.8904 41.7756 81.8904 41.9375 81.8634C42.0184 81.8365 42.369 81.9175 42.6656 82.0523C43.178 82.2681 43.3129 82.2681 44.4186 82.295C45.767 82.295 46.2794 82.1602 46.8188 81.7017C47.8436 80.8657 47.466 79.4364 46.1715 79.0858C45.9828 79.0318 45.3894 78.9508 44.7961 78.8969C43.5286 78.789 43.1241 78.6272 43.1241 78.2496C43.1241 78.0609 43.205 77.9531 43.3668 77.8182C43.5825 77.6564 43.7444 77.6295 44.4725 77.6295C45.1737 77.6295 45.4164 77.6834 45.794 77.8452C46.0637 77.9801 46.3334 78.1687 46.4143 78.3306L46.5761 78.5733L46.9267 77.9261C47.1154 77.5755 47.2773 77.2519 47.2773 77.2249C47.2773 77.198 47.1694 77.171 47.0345 77.171C46.8997 77.171 46.5491 77.0901 46.3064 77.0092C45.5243 76.6856 44.5804 76.5777 43.8522 76.6586Z" fill="#5B585A"/>
<path d="M0.320312 76.7677C0.320312 76.7946 0.401218 76.8755 0.509093 76.9565C0.670906 77.0643 0.697875 77.1722 0.697875 78.9521C0.697875 81.0018 0.751811 81.2445 1.15634 81.7029C1.61481 82.1884 2.04631 82.2963 3.50261 82.2963C5.22861 82.2963 5.76798 82.1075 6.17251 81.3524C6.36129 81.0018 6.36129 80.8399 6.38826 78.9791C6.41523 77.334 6.4422 76.9565 6.55007 76.9295C6.8737 76.7946 6.60401 76.7137 5.79495 76.7137C4.95892 76.7137 4.68923 76.7946 5.09376 76.9295C5.25558 76.9834 5.28254 77.0643 5.28254 78.7903C5.28254 80.786 5.22861 81.0018 4.7162 81.2714C4.36561 81.4602 2.9093 81.4872 2.4778 81.2984C1.91146 81.0827 1.88449 80.9209 1.85753 78.8982C1.83056 77.334 1.83056 77.0643 1.9654 76.9834C2.23509 76.7677 2.10024 76.7137 1.23725 76.7137C0.724842 76.6868 0.320312 76.7137 0.320312 76.7677Z" fill="#5B585A"/>
<path d="M8.33594 76.7683C8.33594 76.8223 8.38988 76.8762 8.41684 76.9032C8.47078 76.9301 8.49775 77.901 8.49775 79.5191C8.49775 81.1642 8.47078 82.0542 8.41684 82.0542C8.36291 82.0542 8.33594 82.1081 8.33594 82.189C8.33594 82.2969 8.47078 82.3239 9.06409 82.3239C9.79225 82.3239 10.0619 82.243 9.76528 82.0811C9.6574 82.0002 9.63043 81.7575 9.6574 80.2203L9.68437 78.4404L11.3834 80.2203C12.3273 81.2181 13.0555 82.0272 13.0015 82.0542C12.9476 82.0811 12.8936 82.1351 12.8936 82.216C12.8936 82.3239 13.0824 82.3508 13.7297 82.3508C14.5657 82.3508 14.7814 82.2969 14.5387 82.0811C14.323 81.9193 14.3499 76.9841 14.5387 76.9301C14.8624 76.7953 14.5927 76.7144 13.8375 76.7144C13.3791 76.7144 13.0015 76.7413 13.0015 76.7953C13.0015 76.8223 13.0824 76.9032 13.1903 76.9841C13.3521 77.0919 13.3791 77.1998 13.3791 78.764C13.3791 79.7618 13.3521 80.4361 13.2982 80.4091C13.2442 80.3821 12.4891 79.654 11.6261 78.737C10.3586 77.4156 10.0619 77.065 10.0889 76.9032C10.1428 76.7144 10.1159 76.7144 9.25287 76.7144C8.74047 76.6874 8.33594 76.7414 8.33594 76.7683Z" fill="#5B585A"/>
<path d="M16.5312 76.7683C16.5312 76.8223 16.5852 76.8762 16.6661 76.9032C16.8818 76.9841 16.8818 82.0542 16.6661 82.0542C16.5852 82.0542 16.5312 82.1081 16.5312 82.189C16.5312 82.2969 16.6931 82.3239 17.4212 82.3239C17.9606 82.3239 18.3112 82.2969 18.3112 82.243C18.3112 82.189 18.2572 82.1351 18.1763 82.1081C18.0685 82.0542 18.0415 81.6766 18.0415 79.5191C18.0415 77.3347 18.0685 76.9571 18.1763 76.9301C18.5 76.7953 18.2303 76.7144 17.4212 76.7144C16.9088 76.6874 16.5312 76.7414 16.5312 76.7683Z" fill="#5B585A"/>
<path d="M19.4219 76.7684C19.4219 76.8223 19.5028 76.9033 19.6107 76.9842C19.8803 77.1729 22.0648 81.8925 21.9569 82.0812C21.903 82.1621 21.903 82.243 21.93 82.297C21.9569 82.324 22.3345 82.3509 22.766 82.3509H23.5481L23.4941 82.1352C23.4672 81.9734 23.7369 81.2991 24.5459 79.5192C25.1392 78.1977 25.7325 77.0651 25.8134 76.9572C25.9213 76.8763 26.0022 76.7954 26.0022 76.7684C26.0022 76.7414 25.5977 76.7145 25.0853 76.7145C24.5189 76.7145 24.1684 76.7414 24.1684 76.7954C24.1684 76.8493 24.2223 76.8763 24.2493 76.8763C24.3032 76.8763 24.3571 76.9302 24.3841 76.9842C24.438 77.119 22.8469 80.6519 22.739 80.6519C22.712 80.6519 22.3345 79.8428 21.876 78.872C21.2018 77.4157 21.067 77.0651 21.1479 76.9572C21.2018 76.8763 21.2557 76.7684 21.2557 76.7414C21.2557 76.7145 20.8512 76.6875 20.3388 76.6875C19.8264 76.6875 19.4219 76.7414 19.4219 76.7684Z" fill="#5B585A"/>
<path d="M34.2266 76.7673C34.2266 76.7943 34.3075 76.9021 34.4153 76.9561C34.5771 77.064 34.6041 77.1718 34.6041 79.5181C34.6041 81.8913 34.6041 81.9723 34.4153 82.0801C34.0647 82.2689 34.2535 82.3498 35.1705 82.3498C36.0874 82.3498 36.2762 82.2689 35.9256 82.0801C35.7638 81.9992 35.7368 81.8913 35.7368 81.0284V80.0575H36.5189H37.301L37.8943 80.9205C38.7034 82.0532 38.6764 81.9992 38.5146 82.1071C38.2179 82.2689 38.5146 82.3498 39.4315 82.3498C40.0518 82.3498 40.4024 82.3228 40.4024 82.2419C40.4024 82.188 40.3215 82.1341 40.2406 82.1071C40.0788 82.0532 38.7034 80.1654 38.7303 80.0035C38.7303 79.9496 38.8921 79.8687 39.0539 79.8148C39.7551 79.572 40.1057 79.0866 40.1057 78.3315C40.1057 77.7112 39.836 77.2527 39.2697 76.9831C38.8382 76.7673 38.8112 76.7673 36.5189 76.7403C35.2514 76.6864 34.2266 76.7134 34.2266 76.7673ZM38.4876 77.7651C38.7843 77.927 38.8652 78.0618 38.8652 78.4124C38.8652 79.0327 38.5146 79.1405 36.9234 79.1405H35.7098V78.4124C35.7098 78.0079 35.7368 77.6573 35.7907 77.6033C35.8986 77.4955 38.1909 77.6303 38.4876 77.7651Z" fill="#5B585A"/>
<path d="M49.0781 76.7684C49.0781 76.8223 49.1321 76.9033 49.213 76.9572C49.3208 77.0651 49.3478 77.4426 49.3478 79.5192C49.3478 81.6228 49.3208 81.9734 49.213 82.0273C49.1321 82.0543 49.0781 82.1352 49.0781 82.2161C49.0781 82.324 49.2669 82.3509 49.9142 82.3509C50.7502 82.3509 50.9929 82.27 50.6693 82.0812C50.5075 82.0003 50.4805 81.8925 50.4805 79.5192C50.4805 77.146 50.4805 77.0651 50.6693 76.9572C50.7772 76.9033 50.8581 76.8223 50.8581 76.7684C50.8581 76.7145 50.4535 76.6875 49.9681 76.6875C49.4827 76.6875 49.0781 76.7414 49.0781 76.7684Z" fill="#5B585A"/>
<path d="M58.3281 76.7684C58.3281 76.8223 58.409 76.8763 58.5169 76.9033C58.6248 76.9302 59.1911 77.6584 59.7844 78.4944L60.8902 80.0316V81.0295C60.8902 81.8655 60.8632 82.0543 60.7553 82.0812C60.4317 82.2161 60.7823 82.297 61.5104 82.297C62.1307 82.297 62.2925 82.27 62.2925 82.1621C62.2925 82.0812 62.2656 82.0273 62.2116 82.0273C62.1577 82.0273 62.1307 81.6228 62.1307 80.9755V79.9507L63.1825 78.4674C63.7758 77.6314 64.3152 76.9302 64.423 76.9033C64.7736 76.7414 64.5849 76.6875 63.6679 76.6875C62.8049 76.6875 62.5352 76.7684 62.8858 76.9033C62.9667 76.9302 63.0207 77.0111 62.9667 77.092C62.8858 77.2808 61.6722 78.9798 61.5913 78.9798C61.5644 78.9798 61.2407 78.5483 60.8902 78.009C60.2699 77.119 60.2429 77.0111 60.3778 76.9302C60.4587 76.8763 60.5396 76.7954 60.5396 76.7414C60.5396 76.7145 60.0541 76.6875 59.4338 76.6875C58.7866 76.6875 58.3281 76.7414 58.3281 76.7684Z" fill="#5B585A"/>
<path d="M50.3475 14.5246C43.902 13.6616 37.7532 10.722 33.1955 6.27217C32.5212 5.59796 31.9549 5.05859 31.9549 5.05859C31.9549 5.05859 31.5234 5.51705 30.984 6.05643C27.4781 9.61629 22.7586 12.3401 17.6076 13.7425C16.6637 13.9852 14.9377 14.3628 14.2365 14.4437C13.9668 14.4707 13.6432 14.5246 13.5083 14.5516L13.2656 14.6055V25.5817V36.558L13.7241 37.3401C15.1265 39.7133 16.8794 41.8978 19.3605 44.3789C21.1405 46.1588 22.5159 47.3454 24.3767 48.6669C26.3724 50.1232 29.1232 51.7413 31.1998 52.6852L32.0088 53.0628L33.3573 52.3886C36.4047 50.9053 39.1825 49.0984 41.6367 47.1027C45.0347 44.325 48.2979 40.6303 50.1857 37.421L50.7521 36.4771V25.5278V14.5785L50.3475 14.5246ZM25.9409 34.0499C25.9409 33.4836 26.2375 33.1599 26.75 33.133C26.9927 33.133 27.1545 33.1869 27.3433 33.3757C27.6939 33.7263 27.6939 34.2656 27.3702 34.5623C26.8578 35.1017 25.9409 34.7511 25.9409 34.0499ZM31.9819 33.9151C31.847 34.0229 31.847 34.6702 31.847 39.6324C31.847 44.4868 31.8201 45.2419 31.7122 45.3498C31.6313 45.4037 31.5234 45.4307 31.4425 45.4037C31.3346 45.3498 31.3077 44.7834 31.3077 40.846V36.3422L30.175 35.2365L29.0423 34.1308L27.9905 35.1286C26.9657 36.1265 26.9387 36.1265 26.7769 35.9647C26.5881 35.8029 26.6151 35.7759 27.1275 35.2096C27.4242 34.8859 27.8557 34.4544 28.1254 34.2117C28.3681 33.996 28.5838 33.7532 28.5569 33.6723C28.5299 33.5914 27.5051 32.5397 26.2915 31.2991L24.0531 29.0607L23.5137 29.1146C23.0552 29.1686 22.9204 29.1416 22.6237 28.9528C21.8686 28.5213 21.6798 27.4965 22.2732 26.8762C22.435 26.7144 22.6507 26.5256 22.7586 26.4987C23.0552 26.3638 23.6216 26.3908 23.9452 26.5796C24.5655 26.8762 24.8082 27.6314 24.5655 28.3595C24.4576 28.6292 24.4846 28.6562 25.0509 29.2225C25.3746 29.5461 25.6712 29.7889 25.6712 29.7619C25.6982 29.7349 25.7251 29.3574 25.7251 28.9259C25.7251 28.1977 25.7251 28.1168 25.5094 27.8471C25.2667 27.5505 25.2127 27.2538 25.3746 26.9302C25.5094 26.6605 25.6173 26.6065 25.9948 26.6065C26.5881 26.6065 26.9118 27.1729 26.6151 27.6583C26.5342 27.7932 26.3994 27.928 26.3454 27.955C26.2645 28.0089 26.2375 28.3056 26.2375 29.2225V30.4361L28.7456 32.8902L31.2537 35.3444V34.6702C31.2537 34.1308 31.2267 33.996 31.0919 33.8611C30.8762 33.6454 30.7953 33.2678 30.9031 32.9712C31.038 32.6475 31.2267 32.4857 31.6043 32.4857C31.901 32.4857 32.1707 32.7015 32.3325 33.133C32.3594 33.3487 32.1976 33.7532 31.9819 33.9151ZM33.1955 26.3638L32.9797 26.5796L32.9527 35.9916C32.9258 45.3498 32.9258 45.4037 32.737 45.4037C32.5482 45.4037 32.5482 45.3228 32.5212 38.3379L32.4673 31.2721L31.5504 30.3552L30.6334 29.4383L30.121 29.9507C29.7974 30.2743 29.6086 30.517 29.6356 30.6249C29.6626 31.0024 29.6086 31.1912 29.3929 31.407C29.0423 31.7576 28.4759 31.7306 28.1793 31.353C27.8557 30.9755 27.8826 30.544 28.2332 30.1934C28.4759 29.9507 28.5299 29.9237 28.8805 29.9776C29.2311 30.0316 29.258 30.0316 29.7435 29.5192L30.2559 29.0068L27.6669 26.4178L25.0779 23.8288L24.6194 23.7748C24.2688 23.7209 24.107 23.667 23.9722 23.4782C23.3519 22.777 24.1879 21.7522 25.024 22.2107C25.3206 22.3725 25.4285 22.5613 25.4285 22.9928C25.4285 23.3433 25.4824 23.4512 25.7791 23.7479C25.9679 23.9367 26.1297 24.0715 26.1566 24.0445C26.1836 24.0176 26.2106 23.4242 26.2375 22.6961L26.2915 21.3746L25.9948 21.051C25.6982 20.7274 25.6712 20.7274 24.997 20.7274C24.3767 20.7274 24.2958 20.7004 23.9991 20.4847C23.4598 20.0801 23.3519 19.1902 23.7564 18.6508C24.0261 18.3002 24.4576 18.0305 24.8352 18.0305C25.887 18.0305 26.5072 18.9744 26.1297 20.0262C26.0218 20.2959 26.0218 20.3229 26.2915 20.5386L26.5612 20.7544L27.3702 19.9183L28.1793 19.0823V18.1923C28.1793 17.3293 28.1793 17.3024 27.9096 17.0327C27.6939 16.8169 27.6399 16.6821 27.6399 16.3854C27.6399 16.0618 27.6939 15.9539 27.9096 15.7652C28.1254 15.5764 28.2602 15.5494 28.5299 15.5764C29.312 15.6842 29.5277 16.4394 28.9883 17.0327L28.6917 17.3563V18.3541V19.352L27.7208 20.3498L26.75 21.3207V22.9928V24.6378L27.7478 25.6357C28.2872 26.1751 28.7726 26.6335 28.7996 26.6335C28.8265 26.6335 28.8805 26.5256 28.8805 26.4178C28.8805 26.256 28.7726 26.1481 28.5299 25.9863C27.9635 25.6357 27.8287 25.366 27.8287 24.7996C27.8287 23.9097 28.449 23.3433 29.285 23.4243C29.7974 23.4782 30.0671 23.64 30.3098 24.0445C30.5795 24.476 30.6065 24.8536 30.4447 25.3121C30.3098 25.6357 30.2019 25.7436 29.8513 25.9323L29.4198 26.1751V26.7414V27.3077L30.9571 28.8449L32.4943 30.3822V29.2225V28.0359L31.6852 27.1999C31.2267 26.7414 30.8492 26.3638 30.8222 26.3369C30.7953 26.3099 30.7953 25.5817 30.7953 24.6648L30.8222 23.0467L30.5256 22.7231C29.8783 21.9679 29.6356 21.8061 29.2041 21.8061C28.5299 21.8061 28.0984 21.2128 28.3411 20.6734C28.5299 20.215 29.1232 19.9992 29.5817 20.2419C29.7974 20.3768 30.0132 20.7813 30.0132 21.1319C30.0132 21.3477 30.0941 21.5095 30.2828 21.6983C30.4447 21.8601 30.6065 21.9949 30.6334 21.9949C30.6604 21.9949 30.7143 21.3477 30.7143 20.5656C30.7143 19.2441 30.7143 19.1362 30.5256 19.0284C30.4177 18.9744 30.3098 18.7856 30.2289 18.5969C30.121 18.3272 30.121 18.2463 30.2289 18.0036C30.2828 17.8417 30.4447 17.626 30.5795 17.5181L30.7953 17.3024V15.5764V13.8504L30.4716 13.4998C30.0401 13.0143 30.0132 12.6368 30.4177 12.2592C30.7953 11.9086 31.2267 11.9086 31.5773 12.2592C31.9549 12.6368 31.9279 13.0953 31.5234 13.4998L31.2267 13.7964V15.5494V17.3024L31.5234 17.5721C31.9549 17.9496 31.9549 18.3272 31.5234 18.8396L31.2267 19.1902V22.5343V25.8784L31.7661 26.4717C32.0628 26.7953 32.3325 27.065 32.3864 27.092C32.4134 27.092 32.4403 26.9571 32.4403 26.7684C32.4403 26.5256 32.3864 26.3638 32.2246 26.229C31.7392 25.7705 32.0628 24.9075 32.71 24.9075C33.3573 25.0424 33.6809 25.9054 33.1955 26.3638ZM39.8837 30.2473C39.6679 30.9215 38.9128 31.1643 38.4274 30.6788C38.1038 30.3282 38.0768 29.9237 38.4004 29.5461C38.5892 29.3304 38.6971 29.2764 38.9668 29.2764C39.1555 29.2764 39.3983 29.3304 39.5331 29.4113C39.7758 29.5731 39.9646 29.9776 39.8837 30.2473ZM41.8524 30.1125C42.3918 30.6518 42.4727 30.8406 42.23 31.0564C42.1221 31.1643 41.8794 30.9485 40.504 29.6001L38.9398 28.0359L36.5126 30.4631L34.0854 32.8902V38.3109C34.0854 41.2775 34.0585 43.7856 34.0045 43.8395C33.9506 43.9204 33.8427 43.9474 33.7618 43.9204C33.6 43.8935 33.6 43.6507 33.573 36.4501L33.5461 29.0068L34.3821 28.1438L35.2181 27.2808V26.1481V25.0154L34.9484 24.7187C34.5978 24.3142 34.5978 23.8827 34.9215 23.5861C35.1911 23.3433 35.326 23.3164 35.7305 23.4512C36.2159 23.613 36.3238 24.2872 35.9193 24.6648C35.7575 24.8266 35.7305 24.9615 35.7305 25.7705C35.7305 26.2829 35.7575 26.6875 35.7844 26.6875C35.8114 26.6875 36.0541 26.4717 36.3238 26.229L36.7823 25.7705V23.3433V20.9162L35.4608 19.6217C34.7327 18.9205 34.1124 18.3272 34.0854 18.3272C34.0585 18.3272 34.0315 18.8396 34.0315 19.4599V20.5925L34.4091 20.8083C35.0563 21.1859 35.2451 21.8601 34.8945 22.5882C34.7057 22.9928 34.1663 23.3164 33.7079 23.3164C32.737 23.3164 32.0897 22.3185 32.4673 21.4555C32.6021 21.1589 33.0876 20.7004 33.2764 20.7004C33.3303 20.7004 33.4112 20.6465 33.4382 20.5656C33.4651 20.4847 33.4921 19.5408 33.4921 18.462V16.4394L33.1146 16.2236C32.4403 15.8461 32.1976 14.9291 32.6561 14.2819C32.7909 14.0931 32.8988 13.9583 32.8988 13.9583C32.8988 13.9583 33.0876 13.9043 33.2764 13.8234C33.7348 13.6616 33.8966 13.6616 34.3281 13.8504C35.299 14.2819 35.326 15.6842 34.3821 16.2236C34.0315 16.4394 34.0045 16.4394 34.0045 16.9248V17.4102L34.9484 18.3002C35.4608 18.8126 35.9193 19.2171 35.9732 19.2171C36.0002 19.2171 36.0272 18.6778 36.0272 18.0305C36.0272 17.0596 36.0002 16.8439 35.8923 16.736C35.4608 16.3854 35.4608 15.7652 35.8923 15.4955C36.2429 15.2797 36.4856 15.2797 36.7823 15.5224C37.1059 15.7652 37.1059 16.3585 36.7823 16.6551C36.5665 16.8709 36.5665 16.8709 36.5665 18.3811C36.5665 19.8374 36.5665 19.8914 36.7823 20.0801L36.9711 20.2689L37.4565 19.8374L37.9419 19.4059L37.8341 18.9205C37.6992 18.3272 37.8071 17.8417 38.1577 17.5181C38.8049 16.8978 39.5331 16.9518 40.1534 17.626C40.504 18.0036 40.5849 18.7047 40.2882 19.1632C39.9916 19.6486 39.5061 19.8644 38.8319 19.7835L38.2925 19.7295L37.7801 20.2419L37.2677 20.7544V23.3703V25.9593L35.6496 27.5235L34.0315 29.0877V30.49C34.0315 31.2721 34.0585 31.8924 34.1124 31.8924C34.1394 31.8924 35.1642 30.8946 36.4047 29.654L38.6162 27.4156L38.5892 25.6626L38.5622 23.9097L38.3195 23.8018C37.3756 23.3703 37.3217 21.9679 38.1847 21.4555C39.1825 20.8622 40.2612 21.5095 40.2612 22.6691C40.2612 23.2085 39.9916 23.5861 39.3983 23.8557L39.1016 23.9906V25.7705V27.5505L39.8567 28.2786C40.2882 28.6831 40.6388 28.9798 40.6658 28.9259C40.6927 28.8719 40.6927 28.4674 40.6927 28.0089L40.6658 27.1459L40.3152 26.9302C39.8567 26.6605 39.614 26.256 39.614 25.7705C39.614 24.7187 40.5579 24.0985 41.4748 24.503C42.5536 24.9615 42.6075 26.3099 41.6097 26.9302L41.1782 27.1999V28.3865V29.6001L41.8524 30.1125Z" fill="#5B585A"/>
<path d="M27.1848 33.9948C27.1848 33.779 27.023 33.6172 26.8072 33.6172C26.5915 33.6172 26.4297 33.779 26.4297 33.9948C26.4297 34.2105 26.5915 34.3723 26.8072 34.3723C27.023 34.3723 27.1848 34.2105 27.1848 33.9948Z" fill="#5B585A"/>
<path d="M28.8072 31.1887C29.0158 31.1887 29.1848 31.0196 29.1848 30.8111C29.1848 30.6026 29.0158 30.4336 28.8072 30.4336C28.5987 30.4336 28.4297 30.6026 28.4297 30.8111C28.4297 31.0196 28.5987 31.1887 28.8072 31.1887Z" fill="#5B585A"/>
<path d="M39.0494 29.707C38.8337 29.707 38.6719 29.8688 38.6719 30.0845C38.6719 30.3003 38.8337 30.4621 39.0494 30.4621C39.2652 30.4621 39.427 30.3003 39.427 30.0845C39.427 29.8688 39.2382 29.707 39.0494 29.707Z" fill="#5B585A"/>
<path d="M24.5963 23.341C24.8048 23.341 24.9739 23.172 24.9739 22.9634C24.9739 22.7549 24.8048 22.5859 24.5963 22.5859C24.3878 22.5859 24.2188 22.7549 24.2188 22.9634C24.2188 23.172 24.3878 23.341 24.5963 23.341Z" fill="#5B585A"/>
<path d="M29.1276 21.3996C29.3361 21.3996 29.5051 21.2306 29.5051 21.022C29.5051 20.8135 29.3361 20.6445 29.1276 20.6445C28.919 20.6445 28.75 20.8135 28.75 21.022C28.75 21.2306 28.919 21.3996 29.1276 21.3996Z" fill="#5B585A"/>
<path d="M30.9947 18.7317C31.2033 18.7317 31.3723 18.5627 31.3723 18.3542C31.3723 18.1456 31.2033 17.9766 30.9947 17.9766C30.7862 17.9766 30.6172 18.1456 30.6172 18.3542C30.6172 18.5627 30.7862 18.7317 30.9947 18.7317Z" fill="#5B585A"/>
<path d="M28.4244 16.8176C28.633 16.8176 28.802 16.6486 28.802 16.44C28.802 16.2315 28.633 16.0625 28.4244 16.0625C28.2159 16.0625 28.0469 16.2315 28.0469 16.44C28.0469 16.6486 28.2159 16.8176 28.4244 16.8176Z" fill="#5B585A"/>
<path d="M31.0104 13.3098C31.2189 13.3098 31.3879 13.1408 31.3879 12.9323C31.3879 12.7237 31.2189 12.5547 31.0104 12.5547C30.8019 12.5547 30.6328 12.7237 30.6328 12.9323C30.6328 13.1408 30.8019 13.3098 31.0104 13.3098Z" fill="#5B585A"/>
</g>
<defs>
<clipPath id="clip0_6875_13795">
<rect width="65" height="82" fill="white" transform="translate(0 0.5)"/>
</clipPath>
</defs>
</svg>
