<svg width="65" height="82" viewBox="0 0 65 82" fill="none" xmlns="http://www.w3.org/2000/svg">
<path d="M30.4757 1.67206C28.3452 4.0453 26.9968 5.25889 24.8932 6.63429C21.657 8.76481 17.9893 10.2211 14.2945 10.8414C13.5664 10.9762 11.2471 11.165 10.492 11.165H10.1953V23.9482V36.7313L10.7347 37.7022C12.3258 40.5609 14.726 43.6353 17.5578 46.3591C21.4412 50.1347 25.8102 53.1013 30.7994 55.3127L31.986 55.8521L32.9029 55.4476C35.411 54.3418 38.2967 52.7507 40.4272 51.2944C45.6861 47.7076 50.5674 42.5565 53.2373 37.7561L53.7767 36.7853V24.0291V11.192L52.1585 11.0841C47.439 10.7875 42.8544 9.16934 38.7821 6.39157C36.8673 5.09708 35.5998 3.93742 33.4423 1.56418C32.6602 0.701185 32.013 0 32.013 0C31.986 0 31.3118 0.755122 30.4757 1.67206ZM32.9838 3.58683C34.0626 4.77345 35.4649 6.06795 36.8134 7.09276C40.8856 10.1942 46.5491 12.3786 51.3495 12.7292L52.1585 12.7831V24.5415V36.2998L51.7001 37.0819C50.2438 39.6709 48.2211 42.2329 45.6591 44.7949C42.0723 48.3548 38.6742 50.809 34.0356 53.1013C31.7433 54.234 32.2287 54.234 29.9364 53.1283C23.8954 50.1617 18.4747 45.7388 14.5912 40.5878C13.7012 39.4012 12.8382 38.1067 12.2719 37.0819L11.8674 36.3538V24.5415V12.7831L12.7304 12.7292C16.0475 12.4865 20.4434 11.1381 23.7875 9.27722C26.3765 7.84788 28.0216 6.58035 30.287 4.28802C31.2039 3.34411 31.986 2.58899 32.013 2.58899C32.0399 2.53505 32.4714 2.99352 32.9838 3.58683Z" fill="#CCD1DC"/>
<path d="M24.2974 18.3386C24.0817 18.5274 24.0547 18.6083 24.0547 18.9589C24.0547 19.3095 24.1086 19.4173 24.2974 19.5791C24.648 19.8758 25.0795 19.8488 25.4301 19.5252C26.1852 18.7701 25.1065 17.6374 24.2974 18.3386ZM25.2952 18.7701C25.484 18.824 25.484 18.851 25.3762 18.9858C25.2952 19.0667 25.2413 19.2555 25.2413 19.3904C25.2413 19.6061 25.2413 19.6061 25.0256 19.4982C24.8907 19.4173 24.7828 19.3904 24.7019 19.4443C24.4862 19.5791 24.4053 19.5522 24.4862 19.3095C24.5132 19.1746 24.4862 19.0667 24.4053 18.9858C24.2165 18.824 24.2435 18.7161 24.4592 18.7161C24.5401 18.7161 24.675 18.6352 24.7289 18.5274L24.8368 18.3386L24.9986 18.5274C25.0525 18.6352 25.1874 18.7431 25.2952 18.7701Z" fill="#CCD1DC"/>
<path d="M28.584 23.7055C28.2334 23.9751 28.1525 24.3527 28.3413 24.7033C28.8267 25.6472 30.283 24.973 29.8785 24.0021C29.6897 23.4897 29.0155 23.3279 28.584 23.7055ZM29.5549 24.11C29.7706 24.11 29.7706 24.2179 29.5819 24.3797C29.5009 24.4336 29.447 24.5685 29.474 24.7033C29.5009 24.8651 29.474 24.919 29.3661 24.8651C29.1773 24.7842 28.9885 24.7842 28.7998 24.8651C28.6649 24.919 28.638 24.8921 28.6919 24.7033C28.7189 24.5415 28.6919 24.4066 28.584 24.2988C28.4222 24.137 28.4222 24.11 28.611 24.11C28.7189 24.11 28.8537 24.0021 28.9616 23.8942L29.0964 23.6785L29.2313 23.8942C29.3391 24.0021 29.447 24.11 29.5549 24.11Z" fill="#CCD1DC"/>
<path d="M33.3091 13.9697C32.9855 14.2664 32.9316 14.7518 33.1743 15.0215C33.3361 15.1563 33.3361 15.1563 33.2282 14.9676C32.9046 14.3203 33.6058 13.6191 34.1721 14.0237C34.3609 14.1585 34.4148 14.2933 34.4418 14.6439L34.4957 15.0754L34.6036 14.8057C34.7385 14.4821 34.6576 14.1585 34.307 13.8888C34.0103 13.6461 33.6597 13.6731 33.3091 13.9697Z" fill="#CCD1DC"/>
<path d="M38.7815 17.2868C38.0804 17.6644 38.3231 18.6892 39.1052 18.7971C39.4288 18.851 39.5097 18.824 39.7524 18.5813C39.9951 18.3386 40.0221 18.2577 39.9682 17.9341C39.9412 17.7453 39.8333 17.5026 39.7524 17.3947C39.5636 17.179 39.0782 17.125 38.7815 17.2868ZM39.6445 17.8262C39.8333 17.8801 39.8333 17.9071 39.7254 18.042C39.6445 18.1229 39.5906 18.3116 39.5906 18.4465C39.5906 18.6622 39.5636 18.6622 39.4558 18.5813C39.3748 18.5004 39.213 18.5004 39.0512 18.5274C38.8085 18.5813 38.7815 18.5544 38.8085 18.3656C38.8355 18.2307 38.8085 18.0959 38.7276 18.042C38.5388 17.9071 38.5658 17.7992 38.7815 17.7992C38.8624 17.7992 38.9973 17.7183 39.0512 17.6105L39.1591 17.4217L39.3209 17.5565C39.3748 17.6644 39.5367 17.7723 39.6445 17.8262Z" fill="#CCD1DC"/>
<path d="M33.4157 20.7388C32.5257 21.2243 33.173 22.5188 34.1169 22.1682C34.7372 21.9524 34.8181 21.0894 34.2787 20.7658C33.9551 20.5501 33.7393 20.5501 33.4157 20.7388ZM34.2248 21.1973C34.4405 21.1973 34.4405 21.3052 34.2517 21.467C34.1708 21.5479 34.1439 21.6558 34.1708 21.7906C34.2248 21.9794 34.1978 22.0064 34.0629 21.9524C33.8472 21.8715 33.7663 21.8715 33.5775 21.9524C33.4427 22.0064 33.4157 21.9794 33.4157 21.7637C33.4157 21.6288 33.3618 21.44 33.2539 21.3591C33.119 21.1973 33.119 21.1973 33.3348 21.1973C33.4966 21.1973 33.6045 21.1164 33.6584 21.0085L33.7663 20.8198L33.9011 21.0085C34.009 21.1164 34.1439 21.1973 34.2248 21.1973Z" fill="#CCD1DC"/>
<path d="M38.4815 21.4939C38.1849 21.7906 38.131 22.1142 38.2928 22.4648C38.6434 23.2469 39.857 22.9772 39.857 22.1142C39.83 21.413 38.967 21.0085 38.4815 21.4939ZM39.2367 21.8445C39.2367 21.8715 39.3445 21.9254 39.4524 21.9254C39.6951 21.9254 39.7491 22.0602 39.5333 22.1411C39.4524 22.1681 39.3985 22.303 39.3985 22.4648C39.3985 22.6805 39.3715 22.7345 39.2367 22.6805C39.0209 22.5996 38.94 22.5996 38.7512 22.6805C38.6164 22.7345 38.5894 22.7075 38.6164 22.5187C38.6164 22.3839 38.5625 22.2221 38.4815 22.1142C38.3197 21.9254 38.3197 21.9254 38.5625 21.9254C38.7243 21.9254 38.8321 21.8715 38.8861 21.7096C38.994 21.4939 38.994 21.4939 39.1018 21.6287C39.1827 21.6827 39.2367 21.7906 39.2367 21.8445Z" fill="#CCD1DC"/>
<path d="M40.7491 24.4874C40.2367 24.7032 40.1019 25.3774 40.5064 25.8089C40.9379 26.2673 41.747 26.0246 41.9088 25.4043C42.0706 24.7841 41.3694 24.2447 40.7491 24.4874ZM41.5043 25.0807C41.72 25.0807 41.72 25.1886 41.5312 25.3504C41.4503 25.4313 41.4234 25.5392 41.4503 25.674C41.5043 25.8628 41.4773 25.8898 41.3425 25.8358C41.1537 25.7549 40.9649 25.7549 40.7761 25.8358C40.6682 25.8898 40.6413 25.8628 40.6682 25.674C40.6952 25.5392 40.6413 25.3774 40.5604 25.2965C40.4255 25.1347 40.4255 25.1347 40.6413 25.0807C40.7761 25.0538 40.911 24.9459 40.9649 24.838C41.0728 24.6492 41.0728 24.6492 41.1806 24.8919C41.2885 24.9728 41.4234 25.0807 41.5043 25.0807Z" fill="#CCD1DC"/>
<path d="M22.9798 26.564C22.4944 26.7528 22.3595 27.481 22.7371 27.8315C23.1146 28.2361 23.7619 28.0743 23.9776 27.5619C24.1394 27.1573 24.0046 26.7528 23.6001 26.591C23.2764 26.4561 23.2495 26.4561 22.9798 26.564ZM23.4383 26.9146C23.4652 27.0225 23.5731 27.1034 23.7079 27.1034C23.9507 27.1034 23.9776 27.2113 23.7889 27.3731C23.7079 27.427 23.654 27.5888 23.654 27.6967C23.654 27.8855 23.627 27.9125 23.4922 27.8585C23.2765 27.7776 23.1955 27.7776 22.9798 27.8585C22.818 27.9125 22.818 27.9125 22.8719 27.6967C22.9259 27.5349 22.8989 27.427 22.791 27.3731C22.6022 27.2113 22.6292 27.1034 22.845 27.1034C22.9259 27.1034 23.0607 27.0225 23.1146 26.9146C23.1686 26.8067 23.2495 26.7258 23.3034 26.7258C23.3574 26.7528 23.4113 26.8337 23.4383 26.9146Z" fill="#CCD1DC"/>
<path d="M3.31878 33.6569C3.10303 34.2502 3.18393 35.7065 3.45362 36.5425C3.69634 37.2707 4.04693 37.9179 4.37055 38.1876C4.55933 38.3494 4.55933 38.3494 4.61327 38.0258C4.69418 37.5404 4.5863 35.9762 4.42449 35.329C4.23571 34.6547 3.77724 33.576 3.56149 33.4142C3.45362 33.3602 3.42665 33.3872 3.31878 33.6569Z" fill="#CCD1DC"/>
<path d="M60.7636 33.495C60.5479 33.7377 60.1164 34.7086 59.9546 35.3558C59.7928 36.0031 59.6849 37.5403 59.7658 38.0527C59.8197 38.3763 59.8197 38.3763 60.0085 38.2145C60.3321 37.9448 60.6827 37.2706 60.9254 36.5694C61.1142 35.9761 61.1412 35.7064 61.1412 34.8974C61.1412 34.2501 61.1142 33.8456 61.0064 33.6298C60.9254 33.3332 60.9254 33.3332 60.7636 33.495Z" fill="#CCD1DC"/>
<path d="M6.0688 37.9718C5.69124 38.2145 5.42155 38.9426 5.36762 39.7247L5.31368 40.4259L4.99005 39.5899C4.61249 38.619 4.55856 38.646 4.85521 39.6978L5.07096 40.4529L4.55856 39.9135C3.96525 39.2663 3.29103 38.8617 2.85953 38.9157C2.61681 38.9426 2.58984 38.9696 2.58984 39.1853C2.61681 39.6168 3.12922 40.5338 3.64162 41.0732C4.2619 41.6934 4.63946 41.9092 5.17883 41.9362H5.58336L5.79911 42.4216C5.90699 42.6913 6.17667 43.2576 6.39242 43.6891C6.60817 44.1206 6.76999 44.4712 6.74302 44.4982C6.71605 44.5251 6.47333 44.3364 6.17667 44.0936C5.88002 43.8509 5.31368 43.4734 4.90915 43.2846C4.31584 42.9879 4.10009 42.934 3.66859 42.907C2.91347 42.907 2.8865 42.9879 3.26406 43.77C3.85737 44.9566 4.88218 46.0084 6.04183 46.5748C6.52727 46.8175 6.68908 46.8444 7.22845 46.8444C7.55208 46.8444 7.90267 46.8175 7.98357 46.7905C8.09145 46.7366 8.25326 46.9254 8.60385 47.4378C8.87354 47.8423 9.35898 48.4626 9.6826 48.8401C10.0062 49.2177 10.2489 49.5143 10.222 49.5143C10.195 49.5143 9.76351 49.3256 9.27807 49.0828C7.47117 48.2198 5.85305 48.0311 5.34065 48.6513C5.09793 48.948 6.66211 50.6201 7.95661 51.3752C9.08929 52.0494 9.79048 52.2651 10.9232 52.2651C11.7862 52.2651 11.948 52.2382 12.2716 52.0494L12.6222 51.8337L13.3773 52.4539C13.7818 52.7776 14.4561 53.29 14.8606 53.5596C15.2651 53.8563 15.4809 54.072 15.373 54.0181C13.8088 53.5866 13.1885 53.4787 11.948 53.4787C10.7883 53.4787 10.6265 53.4787 10.222 53.6675C9.73654 53.8833 9.38595 54.1799 9.38595 54.3417C9.38595 54.3957 9.57473 54.6114 9.81744 54.8272C12.4873 57.1734 16.7754 57.9016 18.4204 56.2835L18.798 55.9059L19.9577 56.4183C22.7624 57.6589 25.7559 58.5219 28.5067 58.8994C29.1809 58.9803 29.963 59.0073 29.5855 58.9264C26.4032 58.2792 23.1669 57.2004 20.4161 55.852C19.2565 55.2856 19.1486 55.2317 19.2025 55.0429C19.3374 54.5305 19.3643 53.9911 19.2295 53.3978C19.0407 52.5348 18.2047 50.8358 17.5035 49.8649C16.9102 49.0289 15.6427 47.7614 15.4539 47.7614C15.2651 47.7614 14.8606 48.4086 14.7257 48.921C14.4291 50.0537 14.7797 51.4831 15.6696 52.8045C16.1011 53.4518 16.0202 53.4248 14.6179 52.3461C12.9728 51.1055 13.1616 51.2943 13.3234 50.9167C13.4582 50.674 13.4852 50.4313 13.4852 49.5143C13.4852 48.5165 13.4582 48.3277 13.1885 47.5456C12.8649 46.5478 12.2986 45.3881 11.8401 44.7409L11.5434 44.3094L11.1928 44.633C10.6265 45.1454 10.4377 45.7118 10.4377 46.7635C10.4377 47.4647 10.4917 47.7883 10.6535 48.2738C10.7613 48.6244 10.8423 48.8941 10.8153 48.8941C10.7344 48.8671 9.62866 47.5726 9.11626 46.8984L8.68476 46.359L8.87354 46.1433C8.98141 46.0084 9.11626 45.7118 9.19716 45.469C9.41291 44.8218 9.41291 43.0688 9.14323 42.1249C8.90051 41.208 8.65779 40.6686 8.49598 40.6686C8.22629 40.6686 7.65995 41.2889 7.47117 41.8013C7.30936 42.2058 7.25542 42.4755 7.25542 43.2576V44.2015L7.03967 43.8779C6.9318 43.6891 6.63514 43.1497 6.39242 42.6913L5.96093 41.8283L6.20364 41.5316C6.33849 41.3698 6.52727 41.0192 6.63514 40.7765C6.9318 39.9135 6.76999 37.8909 6.41939 37.8909C6.33849 37.8369 6.17668 37.8909 6.0688 37.9718Z" fill="#CCD1DC"/>
<path d="M57.7649 37.9716C57.7379 38.0525 57.684 38.4301 57.603 38.8346C57.4412 39.9673 57.6839 41.1269 58.1964 41.5854L58.4121 41.8011L57.8727 42.8529C57.5761 43.4193 57.2525 43.9856 57.1715 44.0935C57.0097 44.3092 57.0097 44.2823 57.0906 43.7429C57.1985 43.0687 57.0637 42.1787 56.794 41.5854C56.6052 41.1809 56.0928 40.6685 55.877 40.6685C55.6883 40.6685 55.5265 41.019 55.2568 41.963C55.068 42.6102 55.0141 42.9338 55.0141 43.8777C55.0141 45.1183 55.095 45.5498 55.4456 46.0622L55.6613 46.3858L55.2298 46.9522C54.6904 47.6264 53.5308 49.0018 53.5038 48.9748C53.5038 48.9748 53.5847 48.6512 53.7196 48.3006C54.0432 47.3837 54.0432 46.0892 53.7735 45.4419C53.5577 45.0104 53.2341 44.5789 52.9644 44.4171C52.8296 44.3632 52.7487 44.4441 52.452 44.9025C51.1306 46.9252 50.4833 49.649 51.0227 50.8626L51.2115 51.2402L50.8878 51.5099C50.3754 51.9414 48.9461 53.0201 48.6495 53.1819C48.4067 53.3437 48.4067 53.3168 48.8113 52.6965C49.4315 51.6986 49.7552 50.8087 49.7552 49.8378C49.7552 48.9209 49.5934 48.3815 49.1888 48.0039L48.9191 47.7612L48.6495 47.95C47.8134 48.5433 46.3841 50.4041 45.7368 51.7795C45.1166 53.0471 44.9008 54.4225 45.1705 55.0967C45.2244 55.2315 45.0626 55.3394 44.3075 55.717C41.7724 56.9845 38.9138 58.0093 35.5157 58.8453L34.6797 59.0611L35.3809 59.0071C37.862 58.8453 41.7994 57.7126 44.8469 56.3103L45.5211 55.9867L45.9256 56.3642C47.5707 57.9284 51.616 57.3351 54.3129 55.0967C54.6365 54.854 54.9062 54.5573 54.9331 54.5034C55.0141 54.3146 54.6635 53.991 54.1511 53.7483C53.7465 53.5595 53.5577 53.5325 52.4251 53.5595C51.3463 53.5595 50.9688 53.5864 50.1058 53.8022C49.5394 53.937 49 54.0719 48.9191 54.0988C48.8382 54.1258 49.1619 53.8831 49.6203 53.5595C50.0788 53.2359 50.753 52.7234 51.1036 52.4268L51.7508 51.8874L52.1284 52.1032C52.452 52.292 52.6138 52.3189 53.4768 52.3189C54.3129 52.3189 54.5286 52.2919 55.095 52.0762C56.4434 51.5908 58.0076 50.4041 58.7627 49.2984C59.1133 48.786 59.1403 48.7591 58.9784 48.6242C58.3582 48.0848 56.8479 48.2736 55.1219 49.1096C54.6095 49.3524 54.178 49.5411 54.178 49.5411C54.1511 49.5411 54.3938 49.2445 54.6904 48.8939C54.9871 48.5433 55.4725 47.923 55.7422 47.5455L56.2816 46.8173L56.821 46.8712C57.5491 46.9522 58.1964 46.7364 59.0324 46.197C59.7875 45.6846 60.5696 44.8216 61.0281 43.9856C61.5135 43.1226 61.5135 43.0687 61.082 42.9338C60.4348 42.7181 59.3021 43.1765 58.1424 44.1474C57.8727 44.3632 57.657 44.525 57.657 44.498C57.657 44.471 57.8458 44.0935 58.0345 43.6889C58.2503 43.2574 58.52 42.6911 58.6279 42.4484C58.8166 41.963 58.8436 41.963 59.1942 41.963C59.7066 41.963 60.1651 41.7202 60.7314 41.1539C61.1899 40.6685 61.7832 39.6436 61.8371 39.2121C61.8641 39.0234 61.8371 38.9964 61.5674 38.9694C61.1359 38.9155 60.5696 39.2661 59.9763 39.8864C59.6796 40.183 59.4369 40.3988 59.4369 40.3448C59.4369 40.2909 59.5178 39.9673 59.6257 39.6436C59.8684 38.6997 59.8414 38.7267 59.4639 39.6436L59.1403 40.4797L59.0863 39.8324C59.0324 39.1043 58.7897 38.457 58.4391 38.1334C58.0885 37.8098 57.8458 37.7828 57.7649 37.9716Z" fill="#CCD1DC"/>
<path d="M34.4689 59.0882C34.5229 59.1152 34.6038 59.1152 34.6307 59.0882C34.6577 59.0613 34.6038 59.0343 34.5229 59.0343C34.415 59.0343 34.388 59.0613 34.4689 59.0882Z" fill="#CCD1DC"/>
<path d="M3.99136 62.9717C2.64293 63.2414 1.53721 64.0235 1.02481 65.0752C0.782091 65.5877 0.728154 65.7764 0.701185 66.5046C0.674216 67.2058 0.701185 67.4215 0.862997 67.88C1.24056 68.9048 2.13052 69.5251 4.09924 70.1723C5.25889 70.5499 5.66342 70.7926 5.69039 71.1162C5.74432 71.4668 5.44767 71.6286 4.77345 71.6286C4.09924 71.6286 3.39805 71.3859 2.80474 70.9274L2.34627 70.5769L1.45631 71.5208C0.970872 72.0332 0.431498 72.5995 0.269687 72.7883L0 73.1119L0.377561 73.3816C0.59331 73.5434 1.07875 73.8131 1.48328 74.0019C4.63861 75.4851 8.25241 74.73 9.35812 72.3298C9.60084 71.8174 9.65478 71.6017 9.68175 70.9274C9.73568 69.8757 9.51993 69.3093 8.87269 68.6621C8.30635 68.0688 7.6591 67.7451 6.22976 67.2597C4.74648 66.7473 4.77345 66.7743 4.69255 66.5855C4.5577 66.3428 4.71952 66.1001 5.09708 65.9652C5.71736 65.7495 6.63429 66.0192 7.28154 66.5855L7.60516 66.8821L8.79178 65.6686L10.0054 64.455L9.65478 64.1583C9.16934 63.7268 8.03666 63.1874 7.14669 62.9717C6.20279 62.7829 4.9083 62.7559 3.99136 62.9717Z" fill="#CCD1DC"/>
<path d="M14.4558 63.1606C14.4288 63.2146 13.377 65.8305 12.1365 69.0128L9.87109 74.7841H11.9477H14.0243L14.294 73.9751L14.5636 73.166L16.4514 73.139L18.3393 73.1121L18.4471 73.4896C18.5011 73.7054 18.6359 74.0829 18.7438 74.3257L18.9056 74.7841H23.1397H27.3737L28.3446 73.1121C28.884 72.1951 29.3425 71.467 29.3694 71.467C29.3964 71.467 29.8818 72.2221 30.4482 73.1121L31.446 74.7302L33.8193 74.7572C35.1407 74.7572 36.1925 74.7572 36.1925 74.7302C36.1925 74.7032 35.2756 73.3548 34.1429 71.7636C33.0102 70.1455 32.0663 68.7971 32.0393 68.7431C32.0124 68.6892 32.7675 67.5026 33.9002 65.8845L35.8419 63.1337L33.6305 63.1067C32.4169 63.1067 31.3651 63.1067 31.3112 63.1337C31.2572 63.1606 30.8257 63.8348 30.3403 64.6709C29.774 65.6687 29.4503 66.1272 29.3964 66.0732C29.3694 66.0193 28.9379 65.3181 28.4795 64.563L27.6165 63.1606L25.2702 63.1337C23.9757 63.1337 22.9239 63.1337 22.9239 63.1606C22.9239 63.1876 23.7869 64.4282 24.8657 65.9384C25.9174 67.4217 26.8074 68.6892 26.8074 68.7431C26.8074 68.7971 23.2206 74.1099 23.0588 74.2987C23.0318 74.3257 23.0048 74.3257 22.9779 74.2987C22.9509 74.2717 19.3101 65.0215 18.7708 63.5921L18.6089 63.1337H16.5593C15.4266 63.0797 14.4827 63.1337 14.4558 63.1606ZM16.9369 68.5544C17.1526 69.2555 17.3684 69.8758 17.3953 69.9298C17.4223 70.0107 17.2066 70.0376 16.4784 70.0376C15.7772 70.0376 15.5345 70.0107 15.5615 69.9298C15.5884 69.8758 15.7772 69.2555 16.0199 68.5544C16.2357 67.8801 16.4514 67.3138 16.4784 67.3138C16.5054 67.3138 16.6942 67.8801 16.9369 68.5544Z" fill="#CCD1DC"/>
<path d="M37.027 66.8823C37.027 71.0624 37.0539 71.3321 37.5663 72.33C38.1057 73.3818 39.1845 74.1908 40.5599 74.5684C41.2611 74.7841 43.4455 74.7841 44.1467 74.6223C46.0615 74.1369 47.3829 72.8963 47.7875 71.1703C47.8953 70.7118 47.9223 69.8758 47.9223 66.8553V63.1067H45.9806H44.0388V66.4508C44.0388 68.6622 44.0119 69.9298 43.9309 70.1995C43.5804 71.5479 41.7195 71.7636 41.0992 70.55C40.9105 70.2264 40.9105 70.0376 40.8835 66.6396L40.8565 63.1067H38.9148H37V66.8823H37.027Z" fill="#CCD1DC"/>
<path d="M49.9727 68.9319V74.7841H51.7796H53.6134L53.5595 71.7097C53.5325 70.0376 53.4786 68.5274 53.4516 68.3925C53.3168 67.6644 53.6674 68.5813 54.6113 71.4939L55.663 74.7302H57.0654H58.4678L59.5465 71.4939C60.1398 69.714 60.6253 68.2307 60.6792 68.2037C60.7062 68.1768 60.7062 69.6331 60.6792 71.467L60.6253 74.7841H62.5131H64.4279V68.9319V63.0797H61.7849H59.142L59.0072 63.4842C58.9262 63.727 58.5217 65.1024 58.1172 66.5856C57.6857 68.0689 57.3081 69.3095 57.2812 69.3364C57.2542 69.3904 56.7418 67.988 56.1754 66.262L55.1237 63.1067L52.5616 63.0797L49.9996 63.0527V68.9319H49.9727Z" fill="#CCD1DC"/>
<path d="M32.3616 76.0515C32.2537 76.1593 31.8492 76.1863 29.7187 76.1863C27.3724 76.1863 26.9678 76.2133 27.2645 76.4021C27.3184 76.429 27.3454 77.3999 27.3454 79.018C27.3454 80.6631 27.3184 81.5531 27.2645 81.5531C27.2106 81.5531 27.1836 81.607 27.1836 81.6879C27.1836 81.7958 27.5342 81.8228 29.8265 81.8228C31.4986 81.8228 32.4964 81.8497 32.5234 81.9037C32.6852 82.1464 32.7391 81.9306 32.7391 81.2564C32.7391 80.8519 32.7122 80.5013 32.6582 80.5013C32.6313 80.5013 32.5234 80.5822 32.4425 80.6901C32.3076 80.8519 32.1998 80.8789 30.4468 80.8789H28.586V80.1237V79.3686H29.7726C30.8513 79.3686 30.9592 79.3956 31.0671 79.5574C31.121 79.6653 31.2019 79.7462 31.2559 79.7462C31.3098 79.7462 31.3368 79.3686 31.3368 78.9101C31.3368 78.1281 31.2289 77.8314 31.121 78.2629C31.0671 78.4247 30.9862 78.4517 29.8265 78.4517H28.586V77.8044V77.1572H30.3389C31.7143 77.1572 32.1189 77.1842 32.3346 77.292C32.4695 77.3729 32.6043 77.4269 32.6043 77.4269C32.6043 77.4269 32.6313 77.1032 32.6313 76.7257C32.6313 75.9436 32.5773 75.8088 32.3616 76.0515Z" fill="#CCD1DC"/>
<path d="M52.0781 76.6719C52.0781 77.2652 52.1051 77.427 52.213 77.427C52.2939 77.427 52.3478 77.3731 52.4017 77.2922C52.4287 77.1843 52.6445 77.1573 53.4266 77.1573H54.3974V79.3148C54.3974 80.6632 54.3705 81.4993 54.3165 81.5262C54.2626 81.5532 54.2356 81.6341 54.2356 81.715C54.2356 81.8229 54.3974 81.8499 55.0177 81.8499C55.665 81.8499 55.7998 81.8229 55.7998 81.715C55.7998 81.6341 55.7728 81.5802 55.7189 81.5802C55.665 81.5802 55.638 80.7981 55.638 79.3687V77.1573H56.5549C57.2561 77.1573 57.4988 77.1843 57.5797 77.2922C57.7955 77.5349 57.8494 77.427 57.8494 76.6719C57.8494 75.9437 57.7955 75.8089 57.5797 76.0516C57.4719 76.1595 57.0943 76.1864 54.9638 76.1864C52.8332 76.1864 52.4557 76.1595 52.4287 76.0516C52.4017 75.9707 52.3208 75.9167 52.2399 75.9167C52.1051 75.9437 52.0781 76.1055 52.0781 76.6719Z" fill="#CCD1DC"/>
<path d="M43.8522 76.1593C42.4229 76.3481 41.5599 77.4538 41.9914 78.5056C42.2881 79.1798 42.8005 79.4225 44.3107 79.5304C45.6322 79.6382 45.8209 79.6652 46.0367 79.854C46.3873 80.1776 46.1446 80.6091 45.4164 80.8249C44.4455 81.1215 42.9353 80.7979 42.5308 80.2316C42.3959 80.0428 42.3959 80.0428 42.2341 80.3934C42.1262 80.5822 41.9914 80.8788 41.9105 81.0676C41.7756 81.3912 41.7756 81.3912 41.9375 81.3642C42.0184 81.3373 42.369 81.4182 42.6656 81.553C43.178 81.7688 43.3129 81.7688 44.4186 81.7957C45.767 81.7957 46.2794 81.6609 46.8188 81.2024C47.8436 80.3664 47.466 78.9371 46.1715 78.5865C45.9828 78.5325 45.3894 78.4516 44.7961 78.3977C43.5286 78.2898 43.1241 78.128 43.1241 77.7504C43.1241 77.5617 43.205 77.4538 43.3668 77.3189C43.5825 77.1571 43.7444 77.1302 44.4725 77.1302C45.1737 77.1302 45.4164 77.1841 45.794 77.3459C46.0637 77.4808 46.3334 77.6695 46.4143 77.8314L46.5761 78.0741L46.9267 77.4268C47.1154 77.0762 47.2773 76.7526 47.2773 76.7256C47.2773 76.6987 47.1694 76.6717 47.0345 76.6717C46.8997 76.6717 46.5491 76.5908 46.3064 76.5099C45.5243 76.1863 44.5804 76.0784 43.8522 76.1593Z" fill="#CCD1DC"/>
<path d="M0.320312 76.2673C0.320312 76.2942 0.401218 76.3751 0.509093 76.4561C0.670905 76.5639 0.697874 76.6718 0.697874 78.4517C0.697874 80.5014 0.751811 80.7441 1.15634 81.2025C1.61481 81.688 2.04631 81.7959 3.50261 81.7959C5.22861 81.7959 5.76798 81.6071 6.17251 80.852C6.36129 80.5014 6.36129 80.3395 6.38826 78.4787C6.41523 76.8336 6.4422 76.4561 6.55007 76.4291C6.8737 76.2942 6.60401 76.2133 5.79495 76.2133C4.95892 76.2133 4.68923 76.2942 5.09376 76.4291C5.25558 76.483 5.28254 76.5639 5.28254 78.2899C5.28254 80.2856 5.22861 80.5014 4.7162 80.771C4.36561 80.9598 2.9093 80.9868 2.4778 80.798C1.91146 80.5823 1.88449 80.4205 1.85753 78.3978C1.83056 76.8336 1.83056 76.5639 1.9654 76.483C2.23509 76.2673 2.10024 76.2133 1.23725 76.2133C0.724842 76.1864 0.320312 76.2133 0.320312 76.2673Z" fill="#CCD1DC"/>
<path d="M8.33594 76.2672C8.33594 76.3212 8.38988 76.3751 8.41684 76.4021C8.47078 76.429 8.49775 77.3999 8.49775 79.018C8.49775 80.6631 8.47078 81.5531 8.41684 81.5531C8.36291 81.5531 8.33594 81.607 8.33594 81.6879C8.33594 81.7958 8.47078 81.8228 9.06409 81.8228C9.79225 81.8228 10.0619 81.7419 9.76528 81.58C9.6574 81.4991 9.63043 81.2564 9.6574 79.7192L9.68437 77.9393L11.3834 79.7192C12.3273 80.717 13.0555 81.5261 13.0015 81.5531C12.9476 81.58 12.8936 81.634 12.8936 81.7149C12.8936 81.8228 13.0824 81.8497 13.7297 81.8497C14.5657 81.8497 14.7814 81.7958 14.5387 81.58C14.323 81.4182 14.3499 76.483 14.5387 76.429C14.8624 76.2942 14.5927 76.2133 13.8375 76.2133C13.3791 76.2133 13.0015 76.2402 13.0015 76.2942C13.0015 76.3212 13.0824 76.4021 13.1903 76.483C13.3521 76.5908 13.3791 76.6987 13.3791 78.2629C13.3791 79.2607 13.3521 79.935 13.2982 79.908C13.2442 79.881 12.4891 79.1529 11.6261 78.2359C10.3586 76.9145 10.0619 76.5639 10.0889 76.4021C10.1428 76.2133 10.1159 76.2133 9.25287 76.2133C8.74047 76.1863 8.33594 76.2403 8.33594 76.2672Z" fill="#CCD1DC"/>
<path d="M16.5312 76.2672C16.5312 76.3212 16.5852 76.3751 16.6661 76.4021C16.8818 76.483 16.8818 81.5531 16.6661 81.5531C16.5852 81.5531 16.5312 81.607 16.5312 81.6879C16.5312 81.7958 16.6931 81.8228 17.4212 81.8228C17.9606 81.8228 18.3112 81.7958 18.3112 81.7419C18.3112 81.6879 18.2572 81.634 18.1763 81.607C18.0685 81.5531 18.0415 81.1755 18.0415 79.018C18.0415 76.8336 18.0685 76.456 18.1763 76.429C18.5 76.2942 18.2303 76.2133 17.4212 76.2133C16.9088 76.1863 16.5312 76.2403 16.5312 76.2672Z" fill="#CCD1DC"/>
<path d="M19.418 76.2673C19.418 76.3212 19.4989 76.4022 19.6068 76.4831C19.8764 76.6718 22.0609 81.3914 21.953 81.5801C21.8991 81.661 21.8991 81.7419 21.9261 81.7959C21.953 81.8229 22.3306 81.8498 22.7621 81.8498H23.5442L23.4902 81.6341C23.4633 81.4723 23.733 80.798 24.542 79.0181C25.1353 77.6966 25.7286 76.564 25.8095 76.4561C25.9174 76.3752 25.9983 76.2943 25.9983 76.2673C25.9983 76.2403 25.5938 76.2134 25.0814 76.2134C24.515 76.2134 24.1645 76.2403 24.1645 76.2943C24.1645 76.3482 24.2184 76.3752 24.2454 76.3752C24.2993 76.3752 24.3532 76.4291 24.3802 76.4831C24.4341 76.6179 22.843 80.1508 22.7351 80.1508C22.7081 80.1508 22.3306 79.3417 21.8721 78.3709C21.1979 76.9146 21.0631 76.564 21.144 76.4561C21.1979 76.3752 21.2518 76.2673 21.2518 76.2403C21.2518 76.2134 20.8473 76.1864 20.3349 76.1864C19.8225 76.1864 19.418 76.2403 19.418 76.2673Z" fill="#CCD1DC"/>
<path d="M34.2227 76.2673C34.2227 76.2943 34.3036 76.4021 34.4114 76.4561C34.5732 76.564 34.6002 76.6718 34.6002 79.0181C34.6002 81.3913 34.6002 81.4723 34.4114 81.5801C34.0608 81.7689 34.2496 81.8498 35.1666 81.8498C36.0835 81.8498 36.2723 81.7689 35.9217 81.5801C35.7599 81.4992 35.7329 81.3913 35.7329 80.5284V79.5575H36.515H37.2971L37.8904 80.4205C38.6995 81.5532 38.6725 81.4992 38.5107 81.6071C38.214 81.7689 38.5107 81.8498 39.4276 81.8498C40.0479 81.8498 40.3985 81.8228 40.3985 81.7419C40.3985 81.688 40.3176 81.6341 40.2367 81.6071C40.0749 81.5532 38.6995 79.6654 38.7264 79.5035C38.7264 79.4496 38.8882 79.3687 39.05 79.3148C39.7512 79.072 40.1018 78.5866 40.1018 77.8315C40.1018 77.2112 39.8321 76.7527 39.2658 76.4831C38.8343 76.2673 38.8073 76.2673 36.515 76.2403C35.2475 76.1864 34.2227 76.2134 34.2227 76.2673ZM38.4837 77.2651C38.7804 77.427 38.8613 77.5618 38.8613 77.9124C38.8613 78.5327 38.5107 78.6405 36.9195 78.6405H35.7059V77.9124C35.7059 77.5079 35.7329 77.1573 35.7868 77.1033C35.8947 76.9955 38.187 77.1303 38.4837 77.2651Z" fill="#CCD1DC"/>
<path d="M49.082 76.2673C49.082 76.3212 49.136 76.4022 49.2169 76.4561C49.3247 76.564 49.3517 76.9415 49.3517 79.0181C49.3517 81.1217 49.3247 81.4723 49.2169 81.5262C49.136 81.5532 49.082 81.6341 49.082 81.715C49.082 81.8229 49.2708 81.8498 49.9181 81.8498C50.7541 81.8498 50.9968 81.7689 50.6732 81.5801C50.5114 81.4992 50.4844 81.3914 50.4844 79.0181C50.4844 76.6449 50.4844 76.564 50.6732 76.4561C50.7811 76.4022 50.862 76.3212 50.862 76.2673C50.862 76.2134 50.4574 76.1864 49.972 76.1864C49.4866 76.1864 49.082 76.2403 49.082 76.2673Z" fill="#CCD1DC"/>
<path d="M58.332 76.2673C58.332 76.3212 58.4129 76.3752 58.5208 76.4022C58.6287 76.4291 59.195 77.1573 59.7883 77.9933L60.8941 79.5305V80.5284C60.8941 81.3644 60.8671 81.5532 60.7592 81.5801C60.4356 81.715 60.7862 81.7959 61.5143 81.7959C62.1346 81.7959 62.2964 81.7689 62.2964 81.661C62.2964 81.5801 62.2695 81.5262 62.2155 81.5262C62.1616 81.5262 62.1346 81.1217 62.1346 80.4744V79.4496L63.1864 77.9663C63.7797 77.1303 64.3191 76.4291 64.4269 76.4022C64.7775 76.2403 64.5888 76.1864 63.6718 76.1864C62.8088 76.1864 62.5391 76.2673 62.8897 76.4022C62.9706 76.4291 63.0246 76.51 62.9706 76.5909C62.8897 76.7797 61.6761 78.4787 61.5952 78.4787C61.5683 78.4787 61.2446 78.0472 60.8941 77.5079C60.2738 76.6179 60.2468 76.51 60.3817 76.4291C60.4626 76.3752 60.5435 76.2943 60.5435 76.2403C60.5435 76.2134 60.058 76.1864 59.4377 76.1864C58.7905 76.1864 58.332 76.2403 58.332 76.2673Z" fill="#CCD1DC"/>
<path d="M50.3475 14.0235C43.902 13.1605 37.7532 10.2209 33.1955 5.77108C32.5212 5.09687 31.9549 4.5575 31.9549 4.5575C31.9549 4.5575 31.5234 5.01596 30.984 5.55534C27.4781 9.1152 22.7586 11.839 17.6076 13.2414C16.6637 13.4841 14.9377 13.8617 14.2365 13.9426C13.9668 13.9696 13.6432 14.0235 13.5083 14.0505L13.2656 14.1044V25.0806V36.0569L13.7241 36.839C15.1265 39.2122 16.8794 41.3967 19.3605 43.8778C21.1405 45.6577 22.5159 46.8443 24.3767 48.1658C26.3724 49.6221 29.1232 51.2402 31.1998 52.1841L32.0088 52.5617L33.3573 51.8875C36.4047 50.4042 39.1825 48.5973 41.6367 46.6016C45.0347 43.8239 48.2979 40.1292 50.1857 36.9199L50.7521 35.976V25.0267V14.0774L50.3475 14.0235ZM25.9409 33.5488C25.9409 32.9825 26.2375 32.6588 26.75 32.6319C26.9927 32.6319 27.1545 32.6858 27.3433 32.8746C27.6939 33.2252 27.6939 33.7645 27.3702 34.0612C26.8578 34.6006 25.9409 34.25 25.9409 33.5488ZM31.9819 33.414C31.847 33.5218 31.847 34.1691 31.847 39.1313C31.847 43.9857 31.8201 44.7408 31.7122 44.8487C31.6313 44.9026 31.5234 44.9296 31.4425 44.9026C31.3346 44.8487 31.3077 44.2823 31.3077 40.3449V35.8411L30.175 34.7354L29.0423 33.6297L27.9905 34.6275C26.9657 35.6254 26.9387 35.6254 26.7769 35.4636C26.5881 35.3018 26.6151 35.2748 27.1275 34.7085C27.4242 34.3848 27.8557 33.9533 28.1254 33.7106C28.3681 33.4949 28.5838 33.2521 28.5569 33.1712C28.5299 33.0903 27.5051 32.0386 26.2915 30.798L24.0531 28.5596L23.5137 28.6135C23.0552 28.6675 22.9204 28.6405 22.6237 28.4517C21.8686 28.0202 21.6798 26.9954 22.2732 26.3751C22.435 26.2133 22.6507 26.0245 22.7586 25.9976C23.0552 25.8627 23.6216 25.8897 23.9452 26.0785C24.5655 26.3751 24.8082 27.1303 24.5655 27.8584C24.4576 28.1281 24.4846 28.1551 25.0509 28.7214C25.3746 29.045 25.6712 29.2878 25.6712 29.2608C25.6982 29.2338 25.7251 28.8563 25.7251 28.4248C25.7251 27.6966 25.7251 27.6157 25.5094 27.346C25.2667 27.0494 25.2127 26.7527 25.3746 26.4291C25.5094 26.1594 25.6173 26.1054 25.9948 26.1054C26.5881 26.1054 26.9118 26.6718 26.6151 27.1572C26.5342 27.2921 26.3994 27.4269 26.3454 27.4539C26.2645 27.5078 26.2375 27.8045 26.2375 28.7214V29.935L28.7456 32.3891L31.2537 34.8433V34.1691C31.2537 33.6297 31.2267 33.4949 31.0919 33.36C30.8762 33.1443 30.7953 32.7667 30.9031 32.4701C31.038 32.1464 31.2267 31.9846 31.6043 31.9846C31.901 31.9846 32.1707 32.2004 32.3325 32.6319C32.3594 32.8476 32.1976 33.2521 31.9819 33.414ZM33.1955 25.8627L32.9797 26.0785L32.9527 35.4905C32.9258 44.8487 32.9258 44.9026 32.737 44.9026C32.5482 44.9026 32.5482 44.8217 32.5212 37.8368L32.4673 30.771L31.5504 29.8541L30.6334 28.9372L30.121 29.4496C29.7974 29.7732 29.6086 30.0159 29.6356 30.1238C29.6626 30.5013 29.6086 30.6901 29.3929 30.9059C29.0423 31.2565 28.4759 31.2295 28.1793 30.8519C27.8557 30.4744 27.8826 30.0429 28.2332 29.6923C28.4759 29.4496 28.5299 29.4226 28.8805 29.4765C29.2311 29.5305 29.258 29.5305 29.7435 29.0181L30.2559 28.5057L27.6669 25.9167L25.0779 23.3277L24.6194 23.2737C24.2688 23.2198 24.107 23.1659 23.9722 22.9771C23.3519 22.2759 24.1879 21.2511 25.024 21.7096C25.3206 21.8714 25.4285 22.0602 25.4285 22.4917C25.4285 22.8422 25.4824 22.9501 25.7791 23.2468C25.9679 23.4356 26.1297 23.5704 26.1566 23.5434C26.1836 23.5165 26.2106 22.9231 26.2375 22.195L26.2915 20.8735L25.9948 20.5499C25.6982 20.2263 25.6712 20.2263 24.997 20.2263C24.3767 20.2263 24.2958 20.1993 23.9991 19.9836C23.4598 19.579 23.3519 18.6891 23.7564 18.1497C24.0261 17.7991 24.4576 17.5294 24.8352 17.5294C25.887 17.5294 26.5072 18.4733 26.1297 19.5251C26.0218 19.7948 26.0218 19.8218 26.2915 20.0375L26.5612 20.2533L27.3702 19.4172L28.1793 18.5812V17.6912C28.1793 16.8282 28.1793 16.8013 27.9096 16.5316C27.6939 16.3158 27.6399 16.181 27.6399 15.8843C27.6399 15.5607 27.6939 15.4528 27.9096 15.2641C28.1254 15.0753 28.2602 15.0483 28.5299 15.0753C29.312 15.1831 29.5277 15.9383 28.9883 16.5316L28.6917 16.8552V17.853V18.8509L27.7208 19.8487L26.75 20.8196V22.4917V24.1367L27.7478 25.1346C28.2872 25.674 28.7726 26.1324 28.7996 26.1324C28.8265 26.1324 28.8805 26.0245 28.8805 25.9167C28.8805 25.7549 28.7726 25.647 28.5299 25.4852C27.9635 25.1346 27.8287 24.8649 27.8287 24.2985C27.8287 23.4086 28.449 22.8422 29.285 22.9232C29.7974 22.9771 30.0671 23.1389 30.3098 23.5434C30.5795 23.9749 30.6065 24.3525 30.4447 24.811C30.3098 25.1346 30.2019 25.2425 29.8513 25.4312L29.4198 25.674V26.2403V26.8066L30.9571 28.3438L32.4943 29.8811V28.7214V27.5348L31.6852 26.6988C31.2267 26.2403 30.8492 25.8627 30.8222 25.8358C30.7953 25.8088 30.7953 25.0806 30.7953 24.1637L30.8222 22.5456L30.5256 22.222C29.8783 21.4668 29.6356 21.305 29.2041 21.305C28.5299 21.305 28.0984 20.7117 28.3411 20.1723C28.5299 19.7139 29.1232 19.4981 29.5817 19.7408C29.7974 19.8757 30.0132 20.2802 30.0132 20.6308C30.0132 20.8466 30.0941 21.0084 30.2828 21.1972C30.4447 21.359 30.6065 21.4938 30.6334 21.4938C30.6604 21.4938 30.7143 20.8466 30.7143 20.0645C30.7143 18.743 30.7143 18.6351 30.5256 18.5273C30.4177 18.4733 30.3098 18.2845 30.2289 18.0958C30.121 17.8261 30.121 17.7452 30.2289 17.5025C30.2828 17.3406 30.4447 17.1249 30.5795 17.017L30.7953 16.8013V15.0753V13.3493L30.4716 12.9987C30.0401 12.5132 30.0132 12.1357 30.4177 11.7581C30.7953 11.4075 31.2267 11.4075 31.5773 11.7581C31.9549 12.1357 31.9279 12.5942 31.5234 12.9987L31.2267 13.2953V15.0483V16.8013L31.5234 17.071C31.9549 17.4485 31.9549 17.8261 31.5234 18.3385L31.2267 18.6891V22.0332V25.3773L31.7661 25.9706C32.0628 26.2942 32.3325 26.5639 32.3864 26.5909C32.4134 26.5909 32.4403 26.456 32.4403 26.2673C32.4403 26.0245 32.3864 25.8627 32.2246 25.7279C31.7392 25.2694 32.0628 24.4064 32.71 24.4064C33.3573 24.5413 33.6809 25.4043 33.1955 25.8627ZM39.8837 29.7462C39.6679 30.4204 38.9128 30.6632 38.4274 30.1777C38.1038 29.8271 38.0768 29.4226 38.4004 29.045C38.5892 28.8293 38.6971 28.7753 38.9668 28.7753C39.1555 28.7753 39.3983 28.8293 39.5331 28.9102C39.7758 29.072 39.9646 29.4765 39.8837 29.7462ZM41.8524 29.6114C42.3918 30.1507 42.4727 30.3395 42.23 30.5553C42.1221 30.6632 41.8794 30.4474 40.504 29.099L38.9398 27.5348L36.5126 29.962L34.0854 32.3891V37.8098C34.0854 40.7764 34.0585 43.2845 34.0045 43.3384C33.9506 43.4193 33.8427 43.4463 33.7618 43.4193C33.6 43.3924 33.6 43.1496 33.573 35.949L33.5461 28.5057L34.3821 27.6427L35.2181 26.7797V25.647V24.5143L34.9484 24.2176C34.5978 23.8131 34.5978 23.3816 34.9215 23.085C35.1911 22.8422 35.326 22.8153 35.7305 22.9501C36.2159 23.1119 36.3238 23.7861 35.9193 24.1637C35.7575 24.3255 35.7305 24.4604 35.7305 25.2694C35.7305 25.7818 35.7575 26.1864 35.7844 26.1864C35.8114 26.1864 36.0541 25.9706 36.3238 25.7279L36.7823 25.2694V22.8422V20.4151L35.4608 19.1206C34.7327 18.4194 34.1124 17.8261 34.0854 17.8261C34.0585 17.8261 34.0315 18.3385 34.0315 18.9588V20.0914L34.4091 20.3072C35.0563 20.6848 35.2451 21.359 34.8945 22.0871C34.7057 22.4917 34.1663 22.8153 33.7079 22.8153C32.737 22.8153 32.0897 21.8174 32.4673 20.9544C32.6021 20.6578 33.0876 20.1993 33.2764 20.1993C33.3303 20.1993 33.4112 20.1454 33.4382 20.0645C33.4651 19.9836 33.4921 19.0397 33.4921 17.9609V15.9383L33.1146 15.7225C32.4403 15.345 32.1976 14.428 32.6561 13.7808C32.7909 13.592 32.8988 13.4572 32.8988 13.4572C32.8988 13.4572 33.0876 13.4032 33.2764 13.3223C33.7348 13.1605 33.8966 13.1605 34.3281 13.3493C35.299 13.7808 35.326 15.1831 34.3821 15.7225C34.0315 15.9383 34.0045 15.9383 34.0045 16.4237V16.9091L34.9484 17.7991C35.4608 18.3115 35.9193 18.716 35.9732 18.716C36.0002 18.716 36.0272 18.1767 36.0272 17.5294C36.0272 16.5585 36.0002 16.3428 35.8923 16.2349C35.4608 15.8843 35.4608 15.2641 35.8923 14.9944C36.2429 14.7786 36.4856 14.7786 36.7823 15.0213C37.1059 15.2641 37.1059 15.8574 36.7823 16.154C36.5665 16.3698 36.5665 16.3698 36.5665 17.88C36.5665 19.3363 36.5665 19.3903 36.7823 19.579L36.9711 19.7678L37.4565 19.3363L37.9419 18.9048L37.8341 18.4194C37.6992 17.8261 37.8071 17.3406 38.1577 17.017C38.8049 16.3967 39.5331 16.4507 40.1534 17.1249C40.504 17.5025 40.5849 18.2036 40.2882 18.6621C39.9916 19.1475 39.5061 19.3633 38.8319 19.2824L38.2925 19.2284L37.7801 19.7408L37.2677 20.2533V22.8692V25.4582L35.6496 27.0224L34.0315 28.5866V29.9889C34.0315 30.771 34.0585 31.3913 34.1124 31.3913C34.1394 31.3913 35.1642 30.3935 36.4047 29.1529L38.6162 26.9145L38.5892 25.1615L38.5622 23.4086L38.3195 23.3007C37.3756 22.8692 37.3217 21.4668 38.1847 20.9544C39.1825 20.3611 40.2612 21.0084 40.2612 22.168C40.2612 22.7074 39.9916 23.085 39.3983 23.3546L39.1016 23.4895V25.2694V27.0494L39.8567 27.7775C40.2882 28.182 40.6388 28.4787 40.6658 28.4248C40.6927 28.3708 40.6927 27.9663 40.6927 27.5078L40.6658 26.6448L40.3152 26.4291C39.8567 26.1594 39.614 25.7549 39.614 25.2694C39.614 24.2176 40.5579 23.5974 41.4748 24.0019C42.5536 24.4604 42.6075 25.8088 41.6097 26.4291L41.1782 26.6988V27.8854V29.099L41.8524 29.6114Z" fill="#CCD1DC"/>
<path d="M27.1809 33.4949C27.1809 33.2791 27.0191 33.1173 26.8033 33.1173C26.5876 33.1173 26.4258 33.2791 26.4258 33.4949C26.4258 33.7106 26.5876 33.8724 26.8033 33.8724C27.0191 33.8724 27.1809 33.7106 27.1809 33.4949Z" fill="#CCD1DC"/>
<path d="M28.8033 30.6902C29.0119 30.6902 29.1809 30.5211 29.1809 30.3126C29.1809 30.1041 29.0119 29.9351 28.8033 29.9351C28.5948 29.9351 28.4258 30.1041 28.4258 30.3126C28.4258 30.5211 28.5948 30.6902 28.8033 30.6902Z" fill="#CCD1DC"/>
<path d="M39.0455 29.2068C38.8298 29.2068 38.668 29.3686 38.668 29.5843C38.668 29.8001 38.8298 29.9619 39.0455 29.9619C39.2613 29.9619 39.4231 29.8001 39.4231 29.5843C39.4231 29.3686 39.2343 29.2068 39.0455 29.2068Z" fill="#CCD1DC"/>
<path d="M24.5963 22.8424C24.8048 22.8424 24.9739 22.6734 24.9739 22.4648C24.9739 22.2563 24.8048 22.0873 24.5963 22.0873C24.3878 22.0873 24.2188 22.2563 24.2188 22.4648C24.2188 22.6734 24.3878 22.8424 24.5963 22.8424Z" fill="#CCD1DC"/>
<path d="M29.1276 20.9005C29.3361 20.9005 29.5051 20.7315 29.5051 20.5229C29.5051 20.3144 29.3361 20.1454 29.1276 20.1454C28.919 20.1454 28.75 20.3144 28.75 20.5229C28.75 20.7315 28.919 20.9005 29.1276 20.9005Z" fill="#CCD1DC"/>
<path d="M30.9908 18.2308C31.1994 18.2308 31.3684 18.0618 31.3684 17.8533C31.3684 17.6447 31.1994 17.4757 30.9908 17.4757C30.7823 17.4757 30.6133 17.6447 30.6133 17.8533C30.6133 18.0618 30.7823 18.2308 30.9908 18.2308Z" fill="#CCD1DC"/>
<path d="M28.4244 16.3158C28.633 16.3158 28.802 16.1468 28.802 15.9382C28.802 15.7297 28.633 15.5607 28.4244 15.5607C28.2159 15.5607 28.0469 15.7297 28.0469 15.9382C28.0469 16.1468 28.2159 16.3158 28.4244 16.3158Z" fill="#CCD1DC"/>
<path d="M31.0143 12.8099C31.2228 12.8099 31.3918 12.6409 31.3918 12.4324C31.3918 12.2238 31.2228 12.0548 31.0143 12.0548C30.8058 12.0548 30.6367 12.2238 30.6367 12.4324C30.6367 12.6409 30.8058 12.8099 31.0143 12.8099Z" fill="#CCD1DC"/>
</svg>
