<svg width="169" height="83" viewBox="0 0 169 83" fill="none" xmlns="http://www.w3.org/2000/svg">
<g clip-path="url(#clip0_6875_13919)">
<path d="M38.3359 80.3296H41.6408V79.5871H39.1956V77.1503H41.4116V76.3888H39.1956V74.2185H41.5071V73.457H38.3359V80.3296Z" fill="#5B585A"/>
<path d="M42.8464 80.3292H43.6678V77.3022C43.6678 76.3884 44.0881 75.9505 44.7185 75.9505C45.2534 75.9505 45.5399 76.2932 45.5399 77.0928V80.3292H46.3614V76.8453C46.3614 75.7411 45.7692 75.2461 44.9095 75.2461C44.3364 75.2461 43.9162 75.4936 43.6487 76.0647H43.6296L43.5914 75.3223H42.7891C42.8082 75.684 42.8273 76.0457 42.8273 76.4074V80.3292H42.8464Z" fill="#5B585A"/>
<path fill-rule="evenodd" clip-rule="evenodd" d="M50.4636 77.815C50.4636 79.0715 50.1198 79.7188 49.3748 79.7188C48.6297 79.7188 48.2859 79.0715 48.2859 77.815C48.2859 76.5585 48.6297 75.9112 49.3748 75.9112C50.1198 75.9112 50.4636 76.5585 50.4636 77.815ZM51.2851 72.9414H50.4636V75.9874H50.4445C50.1198 75.4544 49.7377 75.2259 49.1646 75.2259C48.133 75.2259 47.4453 76.0636 47.4453 77.796C47.4453 79.5284 48.133 80.366 49.1646 80.366C49.8905 80.366 50.2535 79.9472 50.4827 79.5665H50.5018L50.5401 80.3089H51.3424C51.3233 80.0043 51.3042 79.6807 51.3042 79.3761V72.9414H51.2851Z" fill="#5B585A"/>
<path fill-rule="evenodd" clip-rule="evenodd" d="M53.1643 77.8162C53.1643 76.5597 53.5273 75.9124 54.3105 75.9124C55.0938 75.9124 55.4567 76.5597 55.4567 77.8162C55.4567 79.0727 55.0938 79.7199 54.3105 79.7199C53.5273 79.739 53.1643 79.0727 53.1643 77.8162ZM52.3047 77.8162C52.3047 79.3963 52.9924 80.3863 54.3105 80.3863C55.6287 80.3863 56.3164 79.3773 56.3164 77.8162C56.3164 76.2361 55.6287 75.2461 54.3105 75.2461C52.9924 75.2461 52.3047 76.2551 52.3047 77.8162Z" fill="#5B585A"/>
<path d="M60.3848 75.4365C60.1174 75.3032 59.7352 75.2461 59.3913 75.2461C57.9968 75.2461 57.1562 76.2551 57.1562 77.8733C57.1562 79.2821 57.8822 80.4053 59.3722 80.4053C59.7352 80.4053 60.1747 80.2911 60.423 80.1959L60.3848 79.4344C60.0983 79.5867 59.7734 79.7009 59.3722 79.7009C58.5699 79.7009 58.0159 79.0346 58.0159 77.8733C58.0159 76.5216 58.589 75.9505 59.3913 75.9505C59.7734 75.9505 60.0599 76.0267 60.3465 76.179L60.3848 75.4365Z" fill="#5B585A"/>
<path d="M61.3585 80.3292H62.18V77.6639C62.18 76.5788 62.6384 76.0267 63.2689 76.0267C63.3835 76.0267 63.479 76.0457 63.5745 76.0647V75.2461C62.8486 75.2461 62.4283 75.4936 62.1609 76.1028H62.1418L62.1036 75.3223H61.3203C61.3394 75.684 61.3585 76.0457 61.3585 76.4074V80.3292Z" fill="#5B585A"/>
<path fill-rule="evenodd" clip-rule="evenodd" d="M64.4757 80.328H65.2971V75.3021H64.4757V80.328ZM64.4375 73.2461V74.236H65.3354V73.2461H64.4375Z" fill="#5B585A"/>
<path d="M66.7101 80.3292H67.5315V77.3022C67.5315 76.3884 67.9518 75.9505 68.5822 75.9505C69.1171 75.9505 69.4036 76.2932 69.4036 77.0928V80.3292H70.2251V76.8453C70.2251 75.7411 69.6329 75.2461 68.7732 75.2461C68.2001 75.2461 67.7799 75.4936 67.5124 76.0647H67.4933L67.4551 75.3223H66.6719C66.691 75.684 66.7101 76.0457 66.7101 76.4074V80.3292Z" fill="#5B585A"/>
<path fill-rule="evenodd" clip-rule="evenodd" d="M72.1878 77.8162C72.1878 76.5597 72.5507 75.9124 73.334 75.9124C74.1172 75.9124 74.4802 76.5597 74.4802 77.8162C74.4802 79.0727 74.1172 79.7199 73.334 79.7199C72.5507 79.739 72.1878 79.0727 72.1878 77.8162ZM71.3281 77.8162C71.3281 79.3963 72.0158 80.3863 73.334 80.3863C74.6521 80.3863 75.3398 79.3773 75.3398 77.8162C75.3398 76.2361 74.6521 75.2461 73.334 75.2461C72.0158 75.2461 71.3281 76.2551 71.3281 77.8162Z" fill="#5B585A"/>
<path d="M76.5078 80.328H77.3293V72.9414H76.5078V80.328Z" fill="#5B585A"/>
<path fill-rule="evenodd" clip-rule="evenodd" d="M79.3596 77.8162C79.3596 76.5597 79.7226 75.9124 80.5058 75.9124C81.2891 75.9124 81.652 76.5597 81.652 77.8162C81.652 79.0727 81.2891 79.7199 80.5058 79.7199C79.7226 79.739 79.3596 79.0727 79.3596 77.8162ZM78.5 77.8162C78.5 79.3963 79.1877 80.3863 80.5058 80.3863C81.824 80.3863 82.5117 79.3773 82.5117 77.8162C82.5117 76.2361 81.824 75.2461 80.5058 75.2461C79.1877 75.2461 78.5 76.2551 78.5 77.8162Z" fill="#5B585A"/>
<path fill-rule="evenodd" clip-rule="evenodd" d="M84.1687 77.8162C84.1687 76.5597 84.5125 75.9124 85.2576 75.9124C86.0026 75.9124 86.3464 76.5597 86.3464 77.8162C86.3464 79.0727 86.0026 79.72 85.2576 79.72C84.5125 79.739 84.1687 79.0727 84.1687 77.8162ZM87.187 76.2361C87.187 75.9315 87.2252 75.6078 87.2252 75.3223H86.4229L86.3846 76.0457H86.3655C86.0981 75.5698 85.6396 75.2461 85.1429 75.2461C84.0349 75.2461 83.3281 76.0838 83.3281 77.8162C83.3281 79.5486 84.0158 80.3863 85.0474 80.3863C85.6014 80.3863 86.0408 80.1197 86.3655 79.5486H86.3846V80.3292C86.3846 81.1858 85.9835 81.795 84.9901 81.795C84.5316 81.795 83.9776 81.6047 83.6147 81.3572L83.5765 82.1948C83.9394 82.3471 84.608 82.4994 85.0283 82.4994C86.1172 82.4994 87.1679 81.9283 87.1679 80.5386V76.2361H87.187Z" fill="#5B585A"/>
<path fill-rule="evenodd" clip-rule="evenodd" d="M88.4453 74.6192H89.0757L90.0691 73.1914H89.0948L88.4453 74.6192ZM88.5217 80.3305H89.3432V75.3046H88.5217V80.3305Z" fill="#5B585A"/>
<path fill-rule="evenodd" clip-rule="evenodd" d="M91.0471 76.4268C91.3337 76.1032 91.8304 75.9128 92.3271 75.9128C92.6709 75.9128 92.9957 76.008 93.1676 76.2365C93.3204 76.4459 93.3586 76.6743 93.3586 77.0361V77.2645H92.8811C91.1618 77.2645 90.5312 77.9879 90.5312 78.9588C90.5312 79.9298 91.1427 80.4057 91.9641 80.4057C92.7282 80.4057 93.1485 80.044 93.3586 79.6632H93.3777L93.4351 80.3486H94.1801C94.161 80.1772 94.1419 79.8726 94.1419 79.5871V76.9789C94.1419 76.2745 93.9317 75.9699 93.7025 75.7415C93.5497 75.5892 93.1102 75.2656 92.3652 75.2656C91.8685 75.2656 91.3719 75.4179 90.9516 75.6844L91.0471 76.4268ZM93.3395 78.5019C93.3395 79.1873 92.8811 79.7775 92.1742 79.7775C91.6011 79.7775 91.3337 79.4348 91.3337 78.9017C91.3337 78.3116 91.7921 77.8547 92.7663 77.8547C92.9956 77.8547 93.2058 77.8547 93.3395 77.8737V78.5019Z" fill="#5B585A"/>
<path d="M101.226 75.3047H100.405L99.373 79.3978H99.3348L98.2268 75.3047H97.3672L98.9528 80.4068L98.7617 81.1683C98.628 81.6823 98.4561 81.7965 98.2077 81.7965C98.0358 81.7965 97.883 81.7585 97.7493 81.7013L97.711 82.4438C97.8639 82.4819 98.074 82.5009 98.265 82.5009C98.8955 82.5009 99.2393 82.1963 99.4876 81.3396L101.226 75.3047Z" fill="#5B585A"/>
<path d="M104.688 80.3296H105.527V74.6945H105.546L108.106 80.3296H109.176V73.457H108.354V79.1302H108.335L105.757 73.457H104.688V80.3296Z" fill="#5B585A"/>
<path d="M114.202 75.3047H113.381V78.3317C113.381 79.2455 112.96 79.6834 112.329 79.6834C111.795 79.6834 111.508 79.3407 111.508 78.5411V75.3047H110.688V78.7886C110.688 79.8928 111.28 80.3878 112.139 80.3878C112.713 80.3878 113.133 80.1403 113.4 79.5691H113.419L113.458 80.3116H114.259C114.24 79.9499 114.222 79.5882 114.222 79.2265L114.202 75.3047Z" fill="#5B585A"/>
<path d="M117.733 79.6058C117.581 79.682 117.428 79.7391 117.218 79.7391C116.855 79.7391 116.702 79.5297 116.702 78.9586V75.9887H117.733V75.3224H116.702V74.0469L115.88 74.2944V75.3224H115.078V75.9887H115.88V79.2251C115.88 80.1199 116.282 80.4245 117.027 80.4245C117.256 80.4245 117.523 80.3673 117.714 80.2912V79.6058H117.733Z" fill="#5B585A"/>
<path d="M118.549 80.3292H119.371V77.6639C119.371 76.5788 119.829 76.0267 120.46 76.0267C120.574 76.0267 120.67 76.0457 120.765 76.0647V75.2461C120.039 75.2461 119.619 75.4936 119.352 76.1028H119.333L119.294 75.3223H118.492C118.511 75.684 118.53 76.0457 118.53 76.4074V80.3292H118.549Z" fill="#5B585A"/>
<path fill-rule="evenodd" clip-rule="evenodd" d="M121.687 80.328H122.508V75.3021H121.687V80.328ZM121.648 73.2461V74.236H122.546V73.2461H121.648Z" fill="#5B585A"/>
<path d="M126.885 75.4365C126.617 75.3032 126.235 75.2461 125.891 75.2461C124.497 75.2461 123.656 76.2551 123.656 77.8733C123.656 79.2821 124.382 80.4053 125.872 80.4053C126.235 80.4053 126.674 80.2911 126.923 80.1959L126.885 79.4344C126.598 79.5867 126.273 79.7009 125.872 79.7009C125.07 79.7009 124.516 79.0346 124.516 77.8733C124.516 76.5216 125.089 75.9505 125.891 75.9505C126.273 75.9505 126.56 76.0267 126.846 76.179L126.885 75.4365Z" fill="#5B585A"/>
<path fill-rule="evenodd" clip-rule="evenodd" d="M127.937 80.328H128.758V75.3021H127.937V80.328ZM127.898 73.2461V74.236H128.796V73.2461H127.898Z" fill="#5B585A"/>
<path fill-rule="evenodd" clip-rule="evenodd" d="M131.45 74.6192H132.081L133.074 73.1914H132.1L131.45 74.6192ZM130.801 77.8175C130.801 76.5611 131.164 75.9138 131.947 75.9138C132.73 75.9138 133.093 76.5611 133.093 77.8175C133.093 79.074 132.73 79.7213 131.947 79.7213C131.164 79.7403 130.801 79.074 130.801 77.8175ZM129.922 77.8175C129.922 79.3977 130.61 80.3876 131.928 80.3876C133.246 80.3876 133.934 79.3786 133.934 77.8175C133.934 76.2374 133.246 75.2475 131.928 75.2475C130.61 75.2475 129.922 76.2565 129.922 77.8175Z" fill="#5B585A"/>
<path d="M135.042 80.3292H135.863V77.3022C135.863 76.3884 136.283 75.9505 136.914 75.9505C137.449 75.9505 137.735 76.2932 137.735 77.0928V80.3292H138.557V76.8453C138.557 75.7411 137.964 75.2461 137.105 75.2461C136.532 75.2461 136.111 75.4936 135.844 76.0647H135.825L135.787 75.3223H134.984C135.003 75.684 135.023 76.0457 135.023 76.4074V80.3292H135.042Z" fill="#5B585A"/>
<path d="M41.1486 62.2246C40.8429 62.0913 40.3653 61.9961 39.9068 61.9961C38.8753 61.9961 38.0156 62.5863 38.0156 63.7095C38.0156 64.6043 38.2831 65.0231 39.5248 65.7655C40.4417 66.3176 40.5755 66.6222 40.5755 67.1553C40.5755 67.7074 40.1361 68.2404 39.3529 68.2404C38.9517 68.2404 38.4359 68.031 38.0538 67.8026V68.6973C38.4168 68.8687 38.9326 69.0019 39.4866 69.0019C40.8047 69.0019 41.4733 68.1452 41.4733 67.0601C41.4733 66.2796 41.1295 65.6704 40.0597 65.0612C39.0854 64.49 38.9135 64.2235 38.9135 63.7666C38.9135 63.1764 39.3338 62.7386 39.9833 62.7386C40.4035 62.7386 40.8238 62.8528 41.1486 63.0622V62.2246Z" fill="#5B585A"/>
<path fill-rule="evenodd" clip-rule="evenodd" d="M43.285 66.4137C43.285 65.1573 43.648 64.51 44.4312 64.51C45.2144 64.51 45.5774 65.1573 45.5774 66.4137C45.5774 67.6702 45.2144 68.3176 44.4312 68.3176C43.6289 68.3366 43.285 67.6702 43.285 66.4137ZM42.4062 66.4137C42.4062 67.9938 43.0941 68.9838 44.4122 68.9838C45.7303 68.9838 46.4179 67.9748 46.4179 66.4137C46.4179 64.8336 45.7303 63.8438 44.4122 63.8438C43.0941 63.8438 42.4062 64.8527 42.4062 66.4137Z" fill="#5B585A"/>
<path d="M50.4863 64.034C50.2188 63.9008 49.8368 63.8438 49.4929 63.8438C48.0984 63.8438 47.2578 64.8527 47.2578 66.4708C47.2578 67.8796 47.9837 69.0028 49.4738 69.0028C49.8368 69.0028 50.2761 68.8886 50.5245 68.7934L50.4863 68.032C50.1997 68.1843 49.875 68.2984 49.4738 68.2984C48.6715 68.2984 48.1175 67.6321 48.1175 66.4708C48.1175 65.1192 48.6906 64.5481 49.4929 64.5481C49.875 64.5481 50.1615 64.6243 50.4481 64.7766L50.4863 64.034Z" fill="#5B585A"/>
<path fill-rule="evenodd" clip-rule="evenodd" d="M51.5382 68.9258H52.3596V63.8998H51.5382V68.9258ZM51.5 61.8438V62.8338H52.3979V61.8438H51.5Z" fill="#5B585A"/>
<path fill-rule="evenodd" clip-rule="evenodd" d="M57.2104 66.6612V66.2234C57.2104 64.7384 56.58 63.8438 55.4529 63.8438C54.2112 63.8438 53.5234 64.8527 53.5234 66.4137C53.5234 67.9938 54.2112 68.9838 55.5293 68.9838C56.026 68.9838 56.5418 68.8696 56.9238 68.6792L56.8856 67.9368C56.5991 68.1462 56.1597 68.3557 55.7394 68.3557C54.8225 68.3557 54.3831 67.8225 54.3831 66.6612H57.2104ZM54.4022 66.0331C54.4213 64.8528 54.8989 64.472 55.4147 64.472C56.0642 64.472 56.3889 64.986 56.3889 66.0331H54.4022Z" fill="#5B585A"/>
<path fill-rule="evenodd" clip-rule="evenodd" d="M61.0261 66.4127C61.0261 67.6691 60.6823 68.3164 59.9372 68.3164C59.1922 68.3164 58.8484 67.6691 58.8484 66.4127C58.8484 65.1562 59.1922 64.5089 59.9372 64.5089C60.6823 64.5089 61.0261 65.1562 61.0261 66.4127ZM61.8476 61.5391H61.0261V64.5851H61.007C60.6823 64.052 60.3002 63.8236 59.7271 63.8236C58.6955 63.8236 58.0078 64.6612 58.0078 66.3936C58.0078 68.126 58.6955 68.9637 59.7271 68.9637C60.453 68.9637 60.816 68.5449 61.0452 68.1641H61.0643L61.1025 68.9066H61.9049C61.8858 68.602 61.8667 68.2783 61.8667 67.9737V61.5391H61.8476Z" fill="#5B585A"/>
<path fill-rule="evenodd" clip-rule="evenodd" d="M63.3986 65.0246C63.6851 64.7009 64.1818 64.5105 64.6785 64.5105C65.0224 64.5105 65.3471 64.6057 65.5191 64.8342C65.6719 65.0436 65.7101 65.272 65.7101 65.6338V65.8622H65.2325C63.5132 65.8622 62.8828 66.5856 62.8828 67.5566C62.8828 68.5275 63.4941 69.0034 64.3156 69.0034C65.0797 69.0034 65.5 68.6417 65.7101 68.2609H65.7292L65.7865 68.9463H66.5315C66.5124 68.775 66.4933 68.4704 66.4933 68.1848V65.5767C66.4933 64.8723 66.2832 64.5677 66.054 64.3392C65.9011 64.1869 65.4618 63.8633 64.7167 63.8633C64.22 63.8633 63.7234 64.0156 63.3031 64.2821L63.3986 65.0246ZM65.691 67.0997C65.691 67.785 65.2325 68.3752 64.5257 68.3752C63.9526 68.3752 63.6851 68.0325 63.6851 67.4994C63.6851 66.9283 64.1436 66.4524 65.1179 66.4524C65.3471 66.4524 65.5573 66.4524 65.691 66.4714V67.0997Z" fill="#5B585A"/>
<path fill-rule="evenodd" clip-rule="evenodd" d="M70.573 66.4127C70.573 67.6691 70.2291 68.3164 69.4841 68.3164C68.7391 68.3164 68.3952 67.6691 68.3952 66.4127C68.3952 65.1562 68.7391 64.5089 69.4841 64.5089C70.2291 64.5089 70.573 65.1562 70.573 66.4127ZM71.3944 61.5391H70.573V64.5851H70.5539C70.2291 64.052 69.8471 63.8236 69.274 63.8236C68.2424 63.8236 67.5547 64.6612 67.5547 66.3936C67.5547 68.126 68.2424 68.9637 69.274 68.9637C69.9999 68.9637 70.3629 68.5449 70.5921 68.1641H70.6112L70.6494 68.9066H71.4517C71.4326 68.602 71.4135 68.2783 71.4135 67.9737V61.5391H71.3944Z" fill="#5B585A"/>
<path d="M77.7656 68.9273H81.0896V68.1848H78.6253V65.748H80.8413V64.9865H78.6253V62.8162H80.9559V62.0547H77.7656V68.9273Z" fill="#5B585A"/>
<path d="M82.0312 68.6988C82.3943 68.8892 82.8719 69.0034 83.3877 69.0034C84.5339 69.0034 84.9924 68.3181 84.9924 67.4423C84.9924 66.8141 84.6103 66.4143 83.999 66.1668L83.7124 66.0526C83.1584 65.8432 82.8719 65.6147 82.8719 65.2149C82.8719 64.8152 83.1584 64.5296 83.6933 64.5296C84.0563 64.5296 84.4193 64.6248 84.6676 64.739L84.7058 64.0346C84.4193 63.9204 84.0563 63.8633 83.6551 63.8633C82.6809 63.8633 82.0505 64.4915 82.0505 65.3101C82.0505 65.9574 82.3179 66.281 83.0247 66.6047L83.5787 66.8522C84.0372 67.0616 84.2091 67.29 84.2091 67.6327C84.2091 68.0135 83.8844 68.3371 83.254 68.3371C82.8337 68.3371 82.4516 68.1848 82.0696 67.9563L82.0312 68.6988Z" fill="#5B585A"/>
<path fill-rule="evenodd" clip-rule="evenodd" d="M86.8084 66.4143C86.8084 65.1578 87.1523 64.5105 87.8973 64.5105C88.6423 64.5105 88.9862 65.1578 88.9862 66.4143C88.9862 67.6708 88.6423 68.3181 87.8973 68.3181C87.1523 68.3371 86.8084 67.6708 86.8084 66.4143ZM85.987 71.0595H86.8084V68.2419H86.8275C87.1523 68.775 87.5344 69.0034 88.1075 69.0034C89.139 69.0034 89.8268 68.1658 89.8268 66.4333C89.8268 64.7009 89.139 63.8633 88.1075 63.8633C87.3815 63.8633 87.0186 64.2821 86.7893 64.6629H86.7702L86.732 63.9204H85.9297C85.9488 64.225 85.9679 64.5486 85.9679 64.8532V71.0595H85.987Z" fill="#5B585A"/>
<path fill-rule="evenodd" clip-rule="evenodd" d="M91.1798 65.0246C91.4664 64.7009 91.944 64.5105 92.4598 64.5105C92.8036 64.5105 93.1284 64.6057 93.3003 64.8342C93.4531 65.0436 93.4913 65.272 93.4913 65.6338V65.8622H93.0138C91.2945 65.8622 90.6641 66.5856 90.6641 67.5566C90.6641 68.5275 91.2754 69.0034 92.0968 69.0034C92.8609 69.0034 93.2812 68.6417 93.4913 68.2609H93.5104L93.5678 68.9463H94.3128C94.2937 68.775 94.2746 68.4704 94.2746 68.1848V65.5767C94.2746 64.8723 94.0644 64.5677 93.8352 64.3392C93.6824 64.1869 93.243 63.8633 92.498 63.8633C92.0013 63.8633 91.5046 64.0156 91.0843 64.2821L91.1798 65.0246ZM93.4913 67.0997C93.4913 67.785 93.0329 68.3752 92.326 68.3752C91.7529 68.3752 91.4855 68.0325 91.4855 67.4994C91.4855 66.9283 91.944 66.4524 92.9182 66.4524C93.1475 66.4524 93.3576 66.4524 93.4913 66.4714V67.0997Z" fill="#5B585A"/>
<path fill-rule="evenodd" clip-rule="evenodd" d="M98.2665 61.9375C98.2092 62.204 98.1137 62.3563 97.9417 62.3563C97.8653 62.3563 97.7889 62.3182 97.5979 62.223C97.1967 62.0327 97.0248 61.9756 96.8529 61.9756C96.2989 61.9756 95.9932 62.3563 95.9168 63.0226H96.4326C96.4708 62.699 96.6427 62.6038 96.8146 62.6038C96.9102 62.6038 96.9675 62.6228 97.2731 62.7751C97.6361 62.9465 97.7889 62.9845 97.9417 62.9845C98.4193 62.9845 98.6677 62.5848 98.7823 61.9375H98.2665ZM95.5729 68.9243H96.3944V65.8973C96.3944 64.9835 96.8146 64.5456 97.4451 64.5456C97.9799 64.5456 98.2665 64.8883 98.2665 65.6879V68.9243H99.0879V65.4404C99.0879 64.3362 98.4957 63.8412 97.6361 63.8412C97.063 63.8412 96.6427 64.0887 96.3753 64.6598H96.3562L96.318 63.9174H95.5156C95.5347 64.2791 95.5538 64.6408 95.5538 65.0025L95.5729 68.9243Z" fill="#5B585A"/>
<path fill-rule="evenodd" clip-rule="evenodd" d="M101.055 66.4137C101.055 65.1573 101.418 64.51 102.201 64.51C102.984 64.51 103.347 65.1573 103.347 66.4137C103.347 67.6702 102.984 68.3176 102.201 68.3176C101.418 68.3366 101.055 67.6702 101.055 66.4137ZM100.195 66.4137C100.195 67.9938 100.883 68.9838 102.201 68.9838C103.519 68.9838 104.207 67.9748 104.207 66.4137C104.207 64.8336 103.519 63.8438 102.201 63.8438C100.883 63.8438 100.195 64.8527 100.195 66.4137Z" fill="#5B585A"/>
<path d="M105.367 68.9256H106.189V61.5391H105.367V68.9256Z" fill="#5B585A"/>
<path fill-rule="evenodd" clip-rule="evenodd" d="M107.899 65.0246C108.185 64.7009 108.663 64.5105 109.179 64.5105C109.522 64.5105 109.847 64.6057 110.019 64.8342C110.172 65.0436 110.21 65.272 110.21 65.6338V65.8622H109.733C108.013 65.8622 107.383 66.5856 107.383 67.5566C107.383 68.5275 107.994 69.0034 108.816 69.0034C109.58 69.0034 110 68.6417 110.21 68.2609H110.229L110.287 68.9463H111.032C111.013 68.775 110.993 68.4704 110.993 68.1848V65.5767C110.993 64.8723 110.783 64.5677 110.554 64.3392C110.401 64.1869 109.962 63.8633 109.217 63.8633C108.72 63.8633 108.223 64.0156 107.803 64.2821L107.899 65.0246ZM110.191 67.0997C110.191 67.785 109.733 68.3752 109.026 68.3752C108.453 68.3752 108.185 68.0325 108.185 67.4994C108.185 66.9283 108.644 66.4524 109.618 66.4524C109.847 66.4524 110.057 66.4524 110.191 66.4714V67.0997Z" fill="#5B585A"/>
<path fill-rule="evenodd" clip-rule="evenodd" d="M120.026 66.4127C120.026 67.6691 119.682 68.3164 118.937 68.3164C118.192 68.3164 117.848 67.6691 117.848 66.4127C117.848 65.1562 118.192 64.5089 118.937 64.5089C119.682 64.5089 120.026 65.1562 120.026 66.4127ZM120.848 61.5391H120.026V64.5851H120.007C119.682 64.052 119.3 63.8236 118.727 63.8236C117.696 63.8236 117.008 64.6612 117.008 66.3936C117.008 68.126 117.696 68.9637 118.727 68.9637C119.453 68.9637 119.816 68.5449 120.045 68.1641H120.064L120.103 68.9066H120.905C120.886 68.602 120.867 68.2783 120.867 67.9737V61.5391H120.848Z" fill="#5B585A"/>
<path fill-rule="evenodd" clip-rule="evenodd" d="M125.546 66.6612V66.2234C125.546 64.7384 124.916 63.8438 123.789 63.8438C122.547 63.8438 121.859 64.8527 121.859 66.4137C121.859 67.9938 122.547 68.9838 123.865 68.9838C124.362 68.9838 124.878 68.8696 125.26 68.6792L125.222 67.9368C124.935 68.1462 124.496 68.3557 124.075 68.3557C123.158 68.3557 122.719 67.8225 122.719 66.6612H125.546ZM122.719 66.0331C122.738 64.8528 123.216 64.472 123.731 64.472C124.381 64.472 124.706 64.986 124.706 66.0331H122.719Z" fill="#5B585A"/>
<path d="M12.7992 42.3491C12.7992 38.4464 10.5832 36.3142 7.10642 33.9345C4.96685 32.4495 3.87796 31.1931 3.87796 29.5178C3.87796 27.7092 5.13878 26.3766 7.14463 26.3766C8.67289 26.3766 10.1247 26.9858 10.8125 27.5378L11.5002 24.5109C10.736 23.9017 9.07406 23.2734 7.06821 23.2734C2.71267 23.2734 0.401169 26.2052 0.401169 29.67C0.401169 32.9255 2.17777 35.0196 5.69278 37.3231C8.19531 38.9794 9.20778 40.4263 9.20778 42.5965C9.20778 44.8049 7.71772 46.1756 5.44443 46.1756C3.34307 46.1756 1.37544 45.4141 0 44.2909L0.362962 47.9842C1.41364 48.7457 3.34307 49.3929 5.52085 49.3929C10.2203 49.3929 12.7992 46.6706 12.7992 42.3491Z" fill="#5B585A"/>
<path d="M31.3033 48.8981V45.795H22.5731V37.6279H29.9851V34.6581H22.5731V26.8527H30.3099V23.8828H19.3828V48.8981H31.3033Z" fill="#5B585A"/>
<path d="M68.7305 49.0314H71.0802V23.8828H68.3102L68.8833 43.7961L58.6631 23.997L58.6057 23.8828H56.3516V48.7839H59.1024V36.2382C59.1024 34.4296 59.1024 32.3164 59.0451 30.1271L68.7305 49.0314Z" fill="#5B585A"/>
<path d="M49.4786 48.8981V45.795H40.7484V37.6279H48.1605V34.6581H40.7484V26.8527H48.4661V23.8828H37.5391V48.8981H49.4786Z" fill="#5B585A"/>
<path d="M119.337 54.4C100.674 46.0044 88.9442 29.6512 93.1278 17.886C97.3114 6.10175 115.822 3.36035 134.486 11.7559C153.15 20.1515 164.88 36.5047 160.696 48.2699C156.493 60.0542 137.982 62.7956 119.337 54.4Z" fill="url(#paint0_linear_6875_13919)"/>
<path d="M107.687 41.0927C110.992 34.7151 117.257 31.0218 121.67 32.8304C126.083 34.658 126.981 41.3021 123.676 47.6797C120.371 54.0572 114.105 57.7505 109.693 55.942C105.261 54.1144 104.363 47.4703 107.687 41.0927Z" fill="url(#paint1_linear_6875_13919)"/>
<path d="M145.245 45.5286C132.962 43.5297 123.525 35.4578 124.155 27.5382C124.785 19.5995 135.254 14.802 147.518 16.801C159.802 18.7999 169.239 26.8718 168.608 34.7915C167.978 42.7301 157.528 47.5276 145.245 45.5286Z" fill="url(#paint2_linear_6875_13919)"/>
<path d="M168.686 16.3242H168.648V45.9847H168.686V16.3242Z" fill="white"/>
<path d="M104.288 20.4369C100.2 12.9933 100.563 4.54059 105.109 1.5517C109.637 -1.4372 116.629 2.1609 120.717 9.60458C124.805 17.0483 124.442 25.5009 119.895 28.4898C115.349 31.4787 108.357 27.8806 104.288 20.4369Z" fill="url(#paint3_linear_6875_13919)"/>
<path fill-rule="evenodd" clip-rule="evenodd" d="M116.858 19.1434C116.82 20.9329 117.126 20.9329 117.947 22.5321C118.769 24.1122 121.214 24.8737 121.214 24.8737C125.512 26.1682 126.238 28.9096 128.741 29.9567C131.243 31.0038 134.586 30.6611 137.165 28.4527C139.744 26.2444 143.508 25.3306 146.144 27.063C148.78 28.7764 149.487 32.2222 147.71 34.7732C145.934 37.3242 142.342 37.9906 139.687 36.2772C139.687 36.2772 138.235 35.4014 137.051 34.1069C135.866 32.8314 133.459 31.4226 132.733 31.099C132.007 30.7563 129.256 30.604 127.805 31.8224C126.353 33.0598 120.736 35.6299 119.571 36.6198C118.387 37.6288 118.329 39.0186 118.119 39.9133C117.89 40.8081 118.673 43.1497 118.673 43.1497C119.208 45.0154 118.138 46.9763 116.304 47.5664C114.471 48.1566 112.56 47.1666 112.025 45.339C111.49 43.5114 112.56 41.5696 114.394 40.9794L114.337 40.9985C115.177 40.6748 115.808 40.1037 117.794 37.9144C119.781 35.7251 118.291 34.8303 117.699 32.7552C117.107 30.6801 118.291 27.6912 118.196 24.3026C118.1 20.9329 113.019 19.6384 113.019 19.6384C110.879 19.6384 109.141 17.7917 109.141 15.5263C109.141 13.2417 110.879 11.4141 113.019 11.4141C115.158 11.4141 116.897 13.2608 116.897 15.5263C116.954 15.5072 116.897 17.3539 116.858 19.1434Z" fill="white" stroke="white" stroke-width="0.5868" stroke-miterlimit="3.8637"/>
</g>
<defs>
<linearGradient id="paint0_linear_6875_13919" x1="92.2812" y1="33.078" x2="161.543" y2="33.078" gradientUnits="userSpaceOnUse">
<stop stop-color="#5B585A"/>
<stop offset="1" stop-color="white"/>
</linearGradient>
<linearGradient id="paint1_linear_6875_13919" x1="108.235" y1="40.1025" x2="123.102" y2="48.7155" gradientUnits="userSpaceOnUse">
<stop stop-color="white"/>
<stop offset="1" stop-color="#5B585A"/>
</linearGradient>
<linearGradient id="paint2_linear_6875_13919" x1="165.412" y1="42.1142" x2="127.418" y2="20.1026" gradientUnits="userSpaceOnUse">
<stop stop-color="white"/>
<stop offset="1" stop-color="#5B585A"/>
</linearGradient>
<linearGradient id="paint3_linear_6875_13919" x1="112.502" y1="0.500007" x2="112.502" y2="29.5415" gradientUnits="userSpaceOnUse">
<stop stop-color="white"/>
<stop offset="1" stop-color="#5B585A"/>
</linearGradient>
<clipPath id="clip0_6875_13919">
<rect width="169" height="82" fill="white" transform="translate(0 0.5)"/>
</clipPath>
</defs>
</svg>
