<svg width="169" height="82" viewBox="0 0 169 82" fill="none" xmlns="http://www.w3.org/2000/svg">
<path d="M38.3398 79.8291H41.6447V79.0866H39.1995V76.6498H41.4155V75.8883H39.1995V73.718H41.511V72.9565H38.3398V79.8291Z" fill="#CCD1DC"/>
<path d="M42.8464 79.8288H43.6678V76.8018C43.6678 75.888 44.0881 75.4501 44.7185 75.4501C45.2534 75.4501 45.5399 75.7928 45.5399 76.5924V79.8288H46.3614V76.3449C46.3614 75.2407 45.7692 74.7457 44.9095 74.7457C44.3364 74.7457 43.9162 74.9932 43.6487 75.5643H43.6296L43.5914 74.8219H42.7891C42.8082 75.1836 42.8273 75.5453 42.8273 75.907V79.8288H42.8464Z" fill="#CCD1DC"/>
<path fill-rule="evenodd" clip-rule="evenodd" d="M50.4675 77.3155C50.4675 78.572 50.1237 79.2193 49.3787 79.2193C48.6336 79.2193 48.2898 78.572 48.2898 77.3155C48.2898 76.059 48.6336 75.4117 49.3787 75.4117C50.1237 75.4117 50.4675 76.059 50.4675 77.3155ZM51.289 72.4419H50.4675V75.4879H50.4484C50.1237 74.9549 49.7416 74.7264 49.1685 74.7264C48.1369 74.7264 47.4492 75.5641 47.4492 77.2965C47.4492 79.0289 48.1369 79.8665 49.1685 79.8665C49.8944 79.8665 50.2574 79.4477 50.4866 79.067H50.5057L50.544 79.8094H51.3463C51.3272 79.5048 51.3081 79.1812 51.3081 78.8766V72.4419H51.289Z" fill="#CCD1DC"/>
<path fill-rule="evenodd" clip-rule="evenodd" d="M53.1643 77.3158C53.1643 76.0593 53.5273 75.412 54.3105 75.412C55.0938 75.412 55.4567 76.0593 55.4567 77.3158C55.4567 78.5723 55.0938 79.2195 54.3105 79.2195C53.5273 79.2386 53.1643 78.5723 53.1643 77.3158ZM52.3047 77.3158C52.3047 78.8959 52.9924 79.8859 54.3105 79.8859C55.6287 79.8859 56.3164 78.8769 56.3164 77.3158C56.3164 75.7357 55.6287 74.7457 54.3105 74.7457C52.9924 74.7457 52.3047 75.7547 52.3047 77.3158Z" fill="#CCD1DC"/>
<path d="M60.3847 74.9361C60.1173 74.8028 59.7352 74.7457 59.3913 74.7457C57.9968 74.7457 57.1562 75.7547 57.1562 77.3729C57.1562 78.7817 57.8822 79.9049 59.3722 79.9049C59.7352 79.9049 60.1746 79.7907 60.4229 79.6955L60.3847 78.934C60.0982 79.0863 59.7734 79.2005 59.3722 79.2005C58.5699 79.2005 58.0159 78.5342 58.0159 77.3729C58.0159 76.0212 58.589 75.4501 59.3913 75.4501C59.7734 75.4501 60.0599 75.5263 60.3465 75.6786L60.3847 74.9361Z" fill="#CCD1DC"/>
<path d="M61.3624 79.8288H62.1839V77.1635C62.1839 76.0784 62.6423 75.5263 63.2728 75.5263C63.3874 75.5263 63.4829 75.5453 63.5784 75.5643V74.7457C62.8525 74.7457 62.4322 74.9932 62.1648 75.6024H62.1457L62.1075 74.8219H61.3242C61.3433 75.1836 61.3624 75.5453 61.3624 75.907V79.8288Z" fill="#CCD1DC"/>
<path fill-rule="evenodd" clip-rule="evenodd" d="M64.4718 79.8285H65.2932V74.8026H64.4718V79.8285ZM64.4336 72.7466V73.7365H65.3315V72.7466H64.4336Z" fill="#CCD1DC"/>
<path d="M66.7062 79.8288H67.5276V76.8018C67.5276 75.888 67.9479 75.4501 68.5783 75.4501C69.1132 75.4501 69.3997 75.7928 69.3997 76.5924V79.8288H70.2212V76.3449C70.2212 75.2407 69.629 74.7457 68.7693 74.7457C68.1962 74.7457 67.776 74.9932 67.5085 75.5643H67.4894L67.4512 74.8219H66.668C66.6871 75.1836 66.7062 75.5453 66.7062 75.907V79.8288Z" fill="#CCD1DC"/>
<path fill-rule="evenodd" clip-rule="evenodd" d="M72.1917 77.3158C72.1917 76.0593 72.5546 75.412 73.3379 75.412C74.1211 75.412 74.4841 76.0593 74.4841 77.3158C74.4841 78.5723 74.1211 79.2195 73.3379 79.2195C72.5546 79.2386 72.1917 78.5723 72.1917 77.3158ZM71.332 77.3158C71.332 78.8959 72.0197 79.8859 73.3379 79.8859C74.656 79.8859 75.3437 78.8769 75.3437 77.3158C75.3437 75.7357 74.656 74.7457 73.3379 74.7457C72.0197 74.7457 71.332 75.7547 71.332 77.3158Z" fill="#CCD1DC"/>
<path d="M76.5078 79.8285H77.3293V72.4419H76.5078V79.8285Z" fill="#CCD1DC"/>
<path fill-rule="evenodd" clip-rule="evenodd" d="M79.3596 77.3158C79.3596 76.0593 79.7226 75.412 80.5058 75.412C81.2891 75.412 81.652 76.0593 81.652 77.3158C81.652 78.5723 81.2891 79.2195 80.5058 79.2195C79.7226 79.2386 79.3596 78.5723 79.3596 77.3158ZM78.5 77.3158C78.5 78.8959 79.1877 79.8859 80.5058 79.8859C81.824 79.8859 82.5117 78.8769 82.5117 77.3158C82.5117 75.7357 81.824 74.7457 80.5058 74.7457C79.1877 74.7457 78.5 75.7547 78.5 77.3158Z" fill="#CCD1DC"/>
<path fill-rule="evenodd" clip-rule="evenodd" d="M84.1687 77.3158C84.1687 76.0593 84.5125 75.412 85.2576 75.412C86.0026 75.412 86.3464 76.0593 86.3464 77.3158C86.3464 78.5723 86.0026 79.2196 85.2576 79.2196C84.5125 79.2386 84.1687 78.5723 84.1687 77.3158ZM87.187 75.7357C87.187 75.4311 87.2252 75.1074 87.2252 74.8219H86.4229L86.3846 75.5453H86.3655C86.0981 75.0694 85.6396 74.7457 85.1429 74.7457C84.0349 74.7457 83.3281 75.5834 83.3281 77.3158C83.3281 79.0482 84.0158 79.8859 85.0474 79.8859C85.6014 79.8859 86.0408 79.6193 86.3655 79.0482H86.3846V79.8288C86.3846 80.6854 85.9835 81.2946 84.9901 81.2946C84.5316 81.2946 83.9776 81.1043 83.6147 80.8568L83.5765 81.6944C83.9394 81.8467 84.608 81.999 85.0283 81.999C86.1172 81.999 87.1679 81.4279 87.1679 80.0382V75.7357H87.187Z" fill="#CCD1DC"/>
<path fill-rule="evenodd" clip-rule="evenodd" d="M88.4453 74.1176H89.0757L90.0691 72.6898H89.0948L88.4453 74.1176ZM88.5217 79.8289H89.3432V74.803H88.5217V79.8289Z" fill="#CCD1DC"/>
<path fill-rule="evenodd" clip-rule="evenodd" d="M91.047 75.9265C91.3336 75.6029 91.8303 75.4125 92.327 75.4125C92.6708 75.4125 92.9956 75.5077 93.1675 75.7362C93.3203 75.9456 93.3585 76.174 93.3585 76.5358V76.7642H92.881C91.1617 76.7642 90.5312 77.4876 90.5312 78.4585C90.5312 79.4295 91.1426 79.9054 91.964 79.9054C92.7281 79.9054 93.1484 79.5437 93.3585 79.1629H93.3776L93.435 79.8483H94.18C94.1609 79.6769 94.1418 79.3723 94.1418 79.0868V76.4786C94.1418 75.7742 93.9316 75.4696 93.7024 75.2412C93.5496 75.0889 93.1102 74.7653 92.3652 74.7653C91.8685 74.7653 91.3718 74.9176 90.9515 75.1841L91.047 75.9265ZM93.3394 78.0016C93.3394 78.687 92.881 79.2772 92.1741 79.2772C91.601 79.2772 91.3336 78.9345 91.3336 78.4014C91.3336 77.8113 91.7921 77.3544 92.7663 77.3544C92.9956 77.3544 93.2057 77.3544 93.3394 77.3734V78.0016Z" fill="#CCD1DC"/>
<path d="M101.226 74.8038H100.405L99.373 78.8969H99.3348L98.2268 74.8038H97.3672L98.9528 79.9059L98.7617 80.6674C98.628 81.1814 98.4561 81.2956 98.2077 81.2956C98.0358 81.2956 97.883 81.2576 97.7493 81.2004L97.711 81.9429C97.8639 81.981 98.074 82 98.265 82C98.8955 82 99.2393 81.6954 99.4876 80.8387L101.226 74.8038Z" fill="#CCD1DC"/>
<path d="M104.688 79.8291H105.528V74.194H105.547L108.107 79.8291H109.177V72.9565H108.355V78.6297H108.336L105.757 72.9565H104.688V79.8291Z" fill="#CCD1DC"/>
<path d="M114.199 74.8038H113.377V77.8308C113.377 78.7446 112.957 79.1825 112.326 79.1825C111.792 79.1825 111.505 78.8398 111.505 78.0402V74.8038H110.684V78.2877C110.684 79.3919 111.276 79.8869 112.135 79.8869C112.709 79.8869 113.129 79.6394 113.396 79.0682H113.415L113.454 79.8107H114.256C114.237 79.449 114.218 79.0873 114.218 78.7256L114.199 74.8038Z" fill="#CCD1DC"/>
<path d="M117.733 79.1058C117.581 79.182 117.428 79.2391 117.218 79.2391C116.855 79.2391 116.702 79.0297 116.702 78.4586V75.4887H117.733V74.8224H116.702V73.5469L115.88 73.7944V74.8224H115.078V75.4887H115.88V78.7251C115.88 79.6199 116.282 79.9245 117.027 79.9245C117.256 79.9245 117.523 79.8673 117.714 79.7912V79.1058H117.733Z" fill="#CCD1DC"/>
<path d="M118.553 79.8288H119.375V77.1635C119.375 76.0784 119.833 75.5263 120.464 75.5263C120.578 75.5263 120.674 75.5453 120.769 75.5643V74.7457C120.043 74.7457 119.623 74.9932 119.356 75.6024H119.337L119.298 74.8219H118.496C118.515 75.1836 118.534 75.5453 118.534 75.907V79.8288H118.553Z" fill="#CCD1DC"/>
<path fill-rule="evenodd" clip-rule="evenodd" d="M121.687 79.8285H122.508V74.8026H121.687V79.8285ZM121.648 72.7466V73.7365H122.546V72.7466H121.648Z" fill="#CCD1DC"/>
<path d="M126.889 74.9361C126.621 74.8028 126.239 74.7457 125.895 74.7457C124.501 74.7457 123.66 75.7547 123.66 77.3729C123.66 78.7817 124.386 79.9049 125.876 79.9049C126.239 79.9049 126.678 79.7907 126.927 79.6955L126.889 78.934C126.602 79.0863 126.277 79.2005 125.876 79.2005C125.074 79.2005 124.52 78.5342 124.52 77.3729C124.52 76.0212 125.093 75.4501 125.895 75.4501C126.277 75.4501 126.564 75.5263 126.85 75.6786L126.889 74.9361Z" fill="#CCD1DC"/>
<path fill-rule="evenodd" clip-rule="evenodd" d="M127.937 79.8285H128.758V74.8026H127.937V79.8285ZM127.898 72.7466V73.7365H128.796V72.7466H127.898Z" fill="#CCD1DC"/>
<path fill-rule="evenodd" clip-rule="evenodd" d="M131.45 74.1176H132.081L133.074 72.6898H132.1L131.45 74.1176ZM130.801 77.3159C130.801 76.0595 131.164 75.4122 131.947 75.4122C132.73 75.4122 133.093 76.0595 133.093 77.3159C133.093 78.5724 132.73 79.2197 131.947 79.2197C131.164 79.2387 130.801 78.5724 130.801 77.3159ZM129.922 77.3159C129.922 78.8961 130.61 79.886 131.928 79.886C133.246 79.886 133.934 78.877 133.934 77.3159C133.934 75.7358 133.246 74.7459 131.928 74.7459C130.61 74.7459 129.922 75.7549 129.922 77.3159Z" fill="#CCD1DC"/>
<path d="M135.042 79.8288H135.863V76.8018C135.863 75.888 136.283 75.4501 136.914 75.4501C137.449 75.4501 137.735 75.7928 137.735 76.5924V79.8288H138.557V76.3449C138.557 75.2407 137.964 74.7457 137.105 74.7457C136.532 74.7457 136.111 74.9932 135.844 75.5643H135.825L135.787 74.8219H134.984C135.003 75.1836 135.023 75.5453 135.023 75.907V79.8288H135.042Z" fill="#CCD1DC"/>
<path d="M41.1486 61.7247C40.8429 61.5914 40.3653 61.4962 39.9068 61.4962C38.8753 61.4962 38.0156 62.0864 38.0156 63.2096C38.0156 64.1044 38.2831 64.5232 39.5248 65.2656C40.4417 65.8177 40.5755 66.1223 40.5755 66.6554C40.5755 67.2075 40.1361 67.7405 39.3529 67.7405C38.9517 67.7405 38.4359 67.5311 38.0538 67.3027V68.1974C38.4168 68.3688 38.9326 68.502 39.4866 68.502C40.8047 68.502 41.4733 67.6453 41.4733 66.5602C41.4733 65.7797 41.1295 65.1705 40.0597 64.5613C39.0854 63.9901 38.9135 63.7236 38.9135 63.2667C38.9135 62.6765 39.3338 62.2387 39.9833 62.2387C40.4035 62.2387 40.8238 62.3529 41.1486 62.5623V61.7247Z" fill="#CCD1DC"/>
<path fill-rule="evenodd" clip-rule="evenodd" d="M43.285 65.9122C43.285 64.6558 43.648 64.0085 44.4312 64.0085C45.2144 64.0085 45.5774 64.6558 45.5774 65.9122C45.5774 67.1687 45.2144 67.816 44.4312 67.816C43.6289 67.835 43.285 67.1687 43.285 65.9122ZM42.4062 65.9122C42.4062 67.4923 43.094 68.4823 44.4121 68.4823C45.7302 68.4823 46.4179 67.4733 46.4179 65.9122C46.4179 64.3321 45.7302 63.3422 44.4121 63.3422C43.094 63.3422 42.4062 64.3512 42.4062 65.9122Z" fill="#CCD1DC"/>
<path d="M50.4902 63.5325C50.2227 63.3993 49.8407 63.3422 49.4968 63.3422C48.1023 63.3422 47.2617 64.3512 47.2617 65.9693C47.2617 67.3781 47.9876 68.5013 49.4777 68.5013C49.8407 68.5013 50.28 68.3871 50.5284 68.2919L50.4902 67.5304C50.2036 67.6827 49.8789 67.7969 49.4777 67.7969C48.6754 67.7969 48.1214 67.1306 48.1214 65.9693C48.1214 64.6177 48.6945 64.0466 49.4968 64.0466C49.8789 64.0466 50.1654 64.1227 50.452 64.275L50.4902 63.5325Z" fill="#CCD1DC"/>
<path fill-rule="evenodd" clip-rule="evenodd" d="M51.5382 68.4262H52.3596V63.4003H51.5382V68.4262ZM51.5 61.3442V62.3342H52.3979V61.3442H51.5Z" fill="#CCD1DC"/>
<path fill-rule="evenodd" clip-rule="evenodd" d="M57.2143 66.1597V65.7219C57.2143 64.2369 56.5839 63.3422 55.4568 63.3422C54.2151 63.3422 53.5273 64.3512 53.5273 65.9122C53.5273 67.4923 54.2151 68.4823 55.5332 68.4823C56.0299 68.4823 56.5457 68.3681 56.9277 68.1777L56.8895 67.4352C56.603 67.6446 56.1636 67.8541 55.7433 67.8541C54.8264 67.8541 54.387 67.321 54.387 66.1597H57.2143ZM54.4061 65.5315C54.4252 64.3512 54.9028 63.9704 55.4186 63.9704C56.0681 63.9704 56.3928 64.4844 56.3928 65.5315H54.4061Z" fill="#CCD1DC"/>
<path fill-rule="evenodd" clip-rule="evenodd" d="M61.03 65.9132C61.03 67.1696 60.6862 67.8169 59.9411 67.8169C59.1961 67.8169 58.8523 67.1696 58.8523 65.9132C58.8523 64.6567 59.1961 64.0094 59.9411 64.0094C60.6862 64.0094 61.03 64.6567 61.03 65.9132ZM61.8515 61.0396H61.03V64.0856H61.0109C60.6862 63.5525 60.3041 63.3241 59.731 63.3241C58.6994 63.3241 58.0117 64.1617 58.0117 65.8941C58.0117 67.6265 58.6994 68.4642 59.731 68.4642C60.4569 68.4642 60.8199 68.0454 61.0491 67.6646H61.0682L61.1064 68.4071H61.9088C61.8897 68.1025 61.8706 67.7788 61.8706 67.4742V61.0396H61.8515Z" fill="#CCD1DC"/>
<path fill-rule="evenodd" clip-rule="evenodd" d="M63.3986 64.5229C63.6851 64.1992 64.1818 64.0088 64.6785 64.0088C65.0224 64.0088 65.3471 64.104 65.5191 64.3325C65.6719 64.5419 65.7101 64.7703 65.7101 65.1321V65.3605H65.2325C63.5132 65.3605 62.8828 66.0839 62.8828 67.0549C62.8828 68.0258 63.4941 68.5017 64.3156 68.5017C65.0797 68.5017 65.5 68.14 65.7101 67.7592H65.7292L65.7865 68.4446H66.5315C66.5124 68.2733 66.4933 67.9687 66.4933 67.6831V65.075C66.4933 64.3706 66.2832 64.066 66.054 63.8375C65.9011 63.6852 65.4618 63.3616 64.7167 63.3616C64.22 63.3616 63.7234 63.5139 63.3031 63.7804L63.3986 64.5229ZM65.691 66.598C65.691 67.2833 65.2325 67.8735 64.5257 67.8735C63.9526 67.8735 63.6851 67.5308 63.6851 66.9977C63.6851 66.4266 64.1436 65.9507 65.1179 65.9507C65.3471 65.9507 65.5573 65.9507 65.691 65.9697V66.598Z" fill="#CCD1DC"/>
<path fill-rule="evenodd" clip-rule="evenodd" d="M70.5691 65.9132C70.5691 67.1696 70.2252 67.8169 69.4802 67.8169C68.7352 67.8169 68.3913 67.1696 68.3913 65.9132C68.3913 64.6567 68.7352 64.0094 69.4802 64.0094C70.2252 64.0094 70.5691 64.6567 70.5691 65.9132ZM71.3905 61.0396H70.5691V64.0856H70.55C70.2252 63.5525 69.8432 63.3241 69.2701 63.3241C68.2385 63.3241 67.5508 64.1617 67.5508 65.8941C67.5508 67.6265 68.2385 68.4642 69.2701 68.4642C69.996 68.4642 70.359 68.0454 70.5882 67.6646H70.6073L70.6455 68.4071H71.4478C71.4287 68.1025 71.4096 67.7788 71.4096 67.4742V61.0396H71.3905Z" fill="#CCD1DC"/>
<path d="M77.7695 68.4257H81.0935V67.6832H78.6292V65.2464H80.8452V64.4849H78.6292V62.3146H80.9598V61.5531H77.7695V68.4257Z" fill="#CCD1DC"/>
<path d="M82.0312 68.1971C82.3942 68.3875 82.8718 68.5017 83.3876 68.5017C84.5338 68.5017 84.9923 67.8164 84.9923 66.9406C84.9923 66.3124 84.6102 65.9126 83.9989 65.6651L83.7123 65.5509C83.1583 65.3415 82.8718 65.113 82.8718 64.7132C82.8718 64.3135 83.1583 64.0279 83.6932 64.0279C84.0562 64.0279 84.4192 64.1231 84.6675 64.2373L84.7057 63.5329C84.4192 63.4187 84.0562 63.3616 83.655 63.3616C82.6808 63.3616 82.0504 63.9898 82.0504 64.8084C82.0504 65.4557 82.3178 65.7793 83.0246 66.103L83.5786 66.3505C84.0371 66.5599 84.209 66.7883 84.209 67.131C84.209 67.5118 83.8843 67.8354 83.2539 67.8354C82.8336 67.8354 82.4515 67.6831 82.0695 67.4546L82.0312 68.1971Z" fill="#CCD1DC"/>
<path fill-rule="evenodd" clip-rule="evenodd" d="M86.8045 65.9126C86.8045 64.6561 87.1484 64.0088 87.8934 64.0088C88.6384 64.0088 88.9823 64.6561 88.9823 65.9126C88.9823 67.1691 88.6384 67.8164 87.8934 67.8164C87.1484 67.8354 86.8045 67.1691 86.8045 65.9126ZM85.9831 70.5578H86.8045V67.7402H86.8236C87.1484 68.2733 87.5305 68.5017 88.1036 68.5017C89.1351 68.5017 89.8229 67.6641 89.8229 65.9316C89.8229 64.1992 89.1351 63.3616 88.1036 63.3616C87.3776 63.3616 87.0147 63.7804 86.7854 64.1612H86.7663L86.7281 63.4187H85.9258C85.9449 63.7233 85.964 64.0469 85.964 64.3515V70.5578H85.9831Z" fill="#CCD1DC"/>
<path fill-rule="evenodd" clip-rule="evenodd" d="M91.1798 64.5229C91.4664 64.1992 91.944 64.0088 92.4598 64.0088C92.8036 64.0088 93.1284 64.104 93.3003 64.3325C93.4531 64.5419 93.4913 64.7703 93.4913 65.1321V65.3605H93.0138C91.2945 65.3605 90.6641 66.0839 90.6641 67.0549C90.6641 68.0258 91.2754 68.5017 92.0968 68.5017C92.8609 68.5017 93.2812 68.14 93.4913 67.7592H93.5104L93.5678 68.4446H94.3128C94.2937 68.2733 94.2746 67.9687 94.2746 67.6831V65.075C94.2746 64.3706 94.0644 64.066 93.8352 63.8375C93.6824 63.6852 93.243 63.3616 92.498 63.3616C92.0013 63.3616 91.5046 63.5139 91.0843 63.7804L91.1798 64.5229ZM93.4913 66.598C93.4913 67.2833 93.0329 67.8735 92.326 67.8735C91.7529 67.8735 91.4855 67.5308 91.4855 66.9977C91.4855 66.4266 91.944 65.9507 92.9182 65.9507C93.1475 65.9507 93.3576 65.9507 93.4913 65.9697V66.598Z" fill="#CCD1DC"/>
<path fill-rule="evenodd" clip-rule="evenodd" d="M98.2665 61.4385C98.2092 61.705 98.1137 61.8573 97.9417 61.8573C97.8653 61.8573 97.7889 61.8192 97.5979 61.724C97.1967 61.5337 97.0248 61.4766 96.8529 61.4766C96.2989 61.4766 95.9932 61.8573 95.9168 62.5236H96.4326C96.4708 62.2 96.6427 62.1048 96.8146 62.1048C96.9102 62.1048 96.9675 62.1238 97.2731 62.2761C97.6361 62.4475 97.7889 62.4855 97.9417 62.4855C98.4193 62.4855 98.6677 62.0858 98.7823 61.4385H98.2665ZM95.5729 68.4253H96.3944V65.3983C96.3944 64.4845 96.8146 64.0466 97.4451 64.0466C97.9799 64.0466 98.2665 64.3893 98.2665 65.1889V68.4253H99.0879V64.9414C99.0879 63.8372 98.4957 63.3422 97.6361 63.3422C97.063 63.3422 96.6427 63.5897 96.3753 64.1608H96.3562L96.318 63.4184H95.5156C95.5347 63.7801 95.5538 64.1418 95.5538 64.5035L95.5729 68.4253Z" fill="#CCD1DC"/>
<path fill-rule="evenodd" clip-rule="evenodd" d="M101.055 65.9122C101.055 64.6558 101.418 64.0085 102.201 64.0085C102.984 64.0085 103.347 64.6558 103.347 65.9122C103.347 67.1687 102.984 67.816 102.201 67.816C101.418 67.835 101.055 67.1687 101.055 65.9122ZM100.195 65.9122C100.195 67.4923 100.883 68.4823 102.201 68.4823C103.519 68.4823 104.207 67.4733 104.207 65.9122C104.207 64.3321 103.519 63.3422 102.201 63.3422C100.883 63.3422 100.195 64.3512 100.195 65.9122Z" fill="#CCD1DC"/>
<path d="M105.371 68.4261H106.193V61.0396H105.371V68.4261Z" fill="#CCD1DC"/>
<path fill-rule="evenodd" clip-rule="evenodd" d="M107.895 64.5229C108.181 64.1992 108.659 64.0088 109.175 64.0088C109.518 64.0088 109.843 64.104 110.015 64.3325C110.168 64.5419 110.206 64.7703 110.206 65.1321V65.3605H109.729C108.009 65.3605 107.379 66.0839 107.379 67.0549C107.379 68.0258 107.99 68.5017 108.812 68.5017C109.576 68.5017 109.996 68.14 110.206 67.7592H110.225L110.283 68.4446H111.028C111.009 68.2733 110.989 67.9687 110.989 67.6831V65.075C110.989 64.3706 110.779 64.066 110.55 63.8375C110.397 63.6852 109.958 63.3616 109.213 63.3616C108.716 63.3616 108.219 63.5139 107.799 63.7804L107.895 64.5229ZM110.187 66.598C110.187 67.2833 109.729 67.8735 109.022 67.8735C108.449 67.8735 108.181 67.5308 108.181 66.9977C108.181 66.4266 108.64 65.9507 109.614 65.9507C109.843 65.9507 110.053 65.9507 110.187 65.9697V66.598Z" fill="#CCD1DC"/>
<path fill-rule="evenodd" clip-rule="evenodd" d="M120.026 65.9132C120.026 67.1696 119.682 67.8169 118.937 67.8169C118.192 67.8169 117.848 67.1696 117.848 65.9132C117.848 64.6567 118.192 64.0094 118.937 64.0094C119.682 64.0094 120.026 64.6567 120.026 65.9132ZM120.848 61.0396H120.026V64.0856H120.007C119.682 63.5525 119.3 63.3241 118.727 63.3241C117.696 63.3241 117.008 64.1617 117.008 65.8941C117.008 67.6265 117.696 68.4642 118.727 68.4642C119.453 68.4642 119.816 68.0454 120.045 67.6646H120.064L120.103 68.4071H120.905C120.886 68.1025 120.867 67.7788 120.867 67.4742V61.0396H120.848Z" fill="#CCD1DC"/>
<path fill-rule="evenodd" clip-rule="evenodd" d="M125.546 66.1597V65.7219C125.546 64.2369 124.916 63.3422 123.789 63.3422C122.547 63.3422 121.859 64.3512 121.859 65.9122C121.859 67.4923 122.547 68.4823 123.865 68.4823C124.362 68.4823 124.878 68.3681 125.26 68.1777L125.222 67.4352C124.935 67.6446 124.496 67.8541 124.075 67.8541C123.158 67.8541 122.719 67.321 122.719 66.1597H125.546ZM122.719 65.5315C122.738 64.3512 123.216 63.9704 123.731 63.9704C124.381 63.9704 124.706 64.4844 124.706 65.5315H122.719Z" fill="#CCD1DC"/>
<path d="M12.7992 41.8491C12.7992 37.9464 10.5832 35.8142 7.10642 33.4345C4.96685 31.9495 3.87796 30.6931 3.87796 29.0178C3.87796 27.2092 5.13878 25.8766 7.14463 25.8766C8.67289 25.8766 10.1247 26.4858 10.8125 27.0378L11.5002 24.0109C10.736 23.4017 9.07406 22.7734 7.06821 22.7734C2.71267 22.7734 0.401169 25.7052 0.401169 29.17C0.401169 32.4255 2.17777 34.5196 5.69278 36.8231C8.19531 38.4794 9.20778 39.9263 9.20778 42.0965C9.20778 44.3049 7.71772 45.6756 5.44443 45.6756C3.34307 45.6756 1.37544 44.9141 0 43.7909L0.362962 47.4842C1.41364 48.2457 3.34307 48.8929 5.52085 48.8929C10.2203 48.8929 12.7992 46.1706 12.7992 41.8491Z" fill="#CCD1DC"/>
<path d="M31.3072 48.3981V45.295H22.577V37.1279H29.989V34.1581H22.577V26.3527H30.3138V23.3828H19.3867V48.3981H31.3072Z" fill="#CCD1DC"/>
<path d="M68.7305 48.5314H71.0802V23.3828H68.3102L68.8833 43.2961L58.6631 23.497L58.6057 23.3828H56.3516V48.2839H59.1024V35.7382C59.1024 33.9296 59.1024 31.8164 59.0451 29.6271L68.7305 48.5314Z" fill="#CCD1DC"/>
<path d="M49.4747 48.3981V45.295H40.7445V37.1279H48.1566V34.1581H40.7445V26.3527H48.4622V23.3828H37.5352V48.3981H49.4747Z" fill="#CCD1DC"/>
<path d="M119.337 53.9C100.674 45.5044 88.9442 29.1512 93.1278 17.386C97.3114 5.60175 115.822 2.86035 134.486 11.2559C153.15 19.6515 164.88 36.0047 160.696 47.7699C156.493 59.5542 137.982 62.2956 119.337 53.9Z" fill="url(#paint0_linear_6759_12723)"/>
<path d="M107.683 40.5934C110.988 34.2158 117.253 30.5225 121.666 32.3311C126.079 34.1587 126.977 40.8028 123.672 47.1804C120.367 53.5579 114.101 57.2512 109.689 55.4427C105.257 53.6151 104.359 46.971 107.683 40.5934Z" fill="url(#paint1_linear_6759_12723)"/>
<path d="M145.241 45.0281C132.958 43.0292 123.521 34.9573 124.151 27.0377C124.781 19.099 135.25 14.3015 147.514 16.3005C159.798 18.2994 169.235 26.3713 168.604 34.291C167.974 42.2296 157.524 47.0271 145.241 45.0281Z" fill="url(#paint2_linear_6759_12723)"/>
<path d="M168.683 15.8247H168.645V45.4852H168.683V15.8247Z" fill="white"/>
<path d="M104.284 19.9369C100.196 12.4933 100.559 4.04059 105.105 1.0517C109.633 -1.9372 116.625 1.6609 120.713 9.10458C124.801 16.5483 124.438 25.0009 119.891 27.9898C115.345 30.9787 108.353 27.3806 104.284 19.9369Z" fill="url(#paint3_linear_6759_12723)"/>
<path fill-rule="evenodd" clip-rule="evenodd" d="M116.854 18.6421C116.816 20.4316 117.122 20.4316 117.943 22.0308C118.765 23.6109 121.21 24.3724 121.21 24.3724C125.508 25.6669 126.234 28.4083 128.737 29.4554C131.239 30.5025 134.582 30.1598 137.161 27.9514C139.74 25.7431 143.504 24.8293 146.14 26.5617C148.776 28.2751 149.483 31.7209 147.706 34.2719C145.93 36.8229 142.338 37.4893 139.683 35.7759C139.683 35.7759 138.231 34.9001 137.047 33.6056C135.862 32.3301 133.455 30.9213 132.729 30.5977C132.003 30.255 129.252 30.1027 127.801 31.3211C126.349 32.5585 120.732 35.1286 119.567 36.1185C118.383 37.1275 118.325 38.5173 118.115 39.412C117.886 40.3068 118.669 42.6484 118.669 42.6484C119.204 44.5141 118.134 46.475 116.3 47.0651C114.467 47.6553 112.556 46.6653 112.021 44.8377C111.486 43.0101 112.556 41.0683 114.39 40.4781L114.333 40.4972C115.173 40.1735 115.804 39.6024 117.79 37.4131C119.777 35.2238 118.287 34.329 117.695 32.2539C117.103 30.1788 118.287 27.1899 118.192 23.8013C118.096 20.4316 113.015 19.1371 113.015 19.1371C110.875 19.1371 109.137 17.2904 109.137 15.025C109.137 12.7404 110.875 10.9128 113.015 10.9128C115.154 10.9128 116.893 12.7595 116.893 15.025C116.95 15.0059 116.893 16.8526 116.854 18.6421Z" fill="white" stroke="white" stroke-width="0.5868" stroke-miterlimit="3.8637"/>
<defs>
<linearGradient id="paint0_linear_6759_12723" x1="92.2812" y1="32.578" x2="161.543" y2="32.578" gradientUnits="userSpaceOnUse">
<stop stop-color="#CCD1DC"/>
<stop offset="1" stop-color="white"/>
</linearGradient>
<linearGradient id="paint1_linear_6759_12723" x1="108.231" y1="39.6032" x2="123.098" y2="48.2162" gradientUnits="userSpaceOnUse">
<stop stop-color="white"/>
<stop offset="1" stop-color="#CCD1DC"/>
</linearGradient>
<linearGradient id="paint2_linear_6759_12723" x1="165.408" y1="41.6137" x2="127.414" y2="19.6021" gradientUnits="userSpaceOnUse">
<stop stop-color="white"/>
<stop offset="1" stop-color="#CCD1DC"/>
</linearGradient>
<linearGradient id="paint3_linear_6759_12723" x1="112.498" y1="6.50997e-06" x2="112.498" y2="29.0415" gradientUnits="userSpaceOnUse">
<stop stop-color="white"/>
<stop offset="1" stop-color="#CCD1DC"/>
</linearGradient>
</defs>
</svg>
