<svg width="82" height="82" viewBox="0 0 82 82" fill="none" xmlns="http://www.w3.org/2000/svg">
<path d="M40.7256 0C18.2339 0 0 18.3563 0 40.9989C0 63.6415 18.2339 82 40.7256 82C51.5272 82 61.8865 77.6803 69.5244 69.9911C77.1624 62.3018 81.4533 51.8731 81.4533 40.9989C81.4533 18.3563 63.2194 0 40.7256 0ZM40.7256 72.8732C34.4634 72.8732 28.3419 71.0039 23.1352 67.5015C17.9284 63.9991 13.8702 59.021 11.4738 53.1967C9.07739 47.3724 8.45038 40.9635 9.67206 34.7805C10.8937 28.5975 13.9092 22.918 18.3372 18.4603C22.7652 14.0026 28.4068 10.9669 34.5486 9.73698C40.6904 8.5071 47.0566 9.13832 52.842 11.5508C58.6275 13.9633 63.5724 18.0487 67.0514 23.2904C70.5305 28.5321 72.3874 34.6947 72.3874 40.9989C72.3877 45.1848 71.569 49.3297 69.9779 53.197C68.3868 57.0643 66.0547 60.5782 63.1145 63.5381C60.1744 66.498 56.6839 68.8458 52.8424 70.4476C49.0008 72.0493 44.8835 72.8735 40.7256 72.8732Z" fill="#CCD1DC"/>
<path d="M43.4468 17.7217C41.0516 18.6156 40.4678 18.6335 38.774 18.1329C36.4387 17.429 35.0358 17.5452 33.0024 18.5799C30.161 19.9855 27.9722 22.9242 27.9722 25.3355C27.9722 26.2764 27.768 26.777 27.0976 27.5412C26.0454 28.7748 25.8411 29.8632 25.9876 33.3516C26.0742 35.792 26.1919 36.2903 26.9799 37.5261C27.4772 38.3776 28.2652 39.1709 28.849 39.4659C29.6371 39.8771 29.959 40.3174 30.5139 41.8169C30.9801 43.1108 31.5351 43.9935 32.352 44.6975L33.5196 45.7568L32.3231 46.6685C30.7692 47.8731 29.4906 48.0496 26.8623 47.52C23.2417 46.7266 21.3437 45.3456 20.0295 42.494C19.4457 41.2001 19.388 40.5542 19.388 37.3541C19.388 32.679 19.7964 31.1504 21.1106 30.5045C23.1262 29.5346 25.3439 27.0362 25.3439 25.7132C25.3439 25.3311 25.1685 25.2663 24.527 25.3892C23.6213 25.5657 22.7178 25.2126 23.2705 24.8908C23.8233 24.569 23.6812 22.3633 23.1551 22.3633C21.6656 22.3633 18.3957 25.2126 17.197 27.5949C15.299 31.3314 14.3933 35.9797 14.653 40.4492C14.875 44.6528 15.8495 47.2987 17.7786 49.1804C18.9174 50.2665 21.9231 52.3538 22.3626 52.3538C23.2372 52.3538 22.5668 52.8834 21.135 53.3237C20.2604 53.6186 19.4701 54.0589 19.3836 54.3248C19.004 55.2634 20.085 58.9687 20.9885 59.9676C21.6545 60.6738 22.0119 60.5844 24.2006 58.9687C27.3839 56.6467 28.2896 55.9115 28.8624 55.1696C29.8835 53.8756 31.2265 53.2298 33.0379 53.2298C34.4386 53.2298 34.6739 53.317 34.6739 53.7885C34.6739 54.5528 32.5695 56.8456 31.0822 57.7261C30.4163 58.1396 29.0089 58.6379 28.0144 58.8435C25.9122 59.2905 25.8256 59.4916 27.0509 61.6079C28.1897 63.6058 30.2054 65.5746 31.1111 65.5746C31.777 65.5746 31.7526 65.5165 30.7026 64.7232C28.6293 63.1588 27.9855 62.4594 27.4305 61.1364L26.8778 59.8424L29.3596 59.0201C31.9679 58.1708 33.7438 56.9864 34.5985 55.5539C34.8915 55.0846 35.2112 54.7025 35.3288 54.7025C35.7373 54.7025 35.5908 58.1105 35.1246 59.2279C34.5985 60.4637 34.9781 60.6403 35.7084 59.4938C36.1746 58.7876 36.2056 58.1999 36.0591 54.4947L35.8838 50.262L36.9648 51.1157C38.5698 52.3202 39.4755 52.6443 41.4889 52.6443C43.3444 52.6876 45.1481 52.0262 46.5413 50.7917L47.4182 50.0274L47.3005 54.231C47.1829 57.9049 47.2428 58.4346 47.6801 58.8167C48.1174 59.1988 48.1774 59.1407 48.0886 58.0524C48.0597 57.4356 48.0308 56.3763 48.0597 55.7305L48.1174 54.5841L49.5204 56.0836C50.2796 56.8769 51.4472 57.7887 52.1465 58.1105C52.8457 58.4323 53.3741 58.6983 53.3741 58.7809C53.3741 59.105 48.8766 60.5442 46.8921 60.8973C42.9496 61.5431 40.0882 62.8951 38.9494 64.6003C38.1325 65.807 38.2191 66.3881 39.1536 65.7757C42.7054 63.4248 43.4158 63.2773 51.6226 62.7789L54.979 62.5733L54.2487 63.3957C53.8402 63.865 53.1987 64.5421 52.7902 64.9243L52.0599 65.5947L53.2853 64.9466C54.0794 64.494 54.7905 63.9074 55.3875 63.2125C56.0534 62.361 56.5573 62.066 57.9292 61.7733C61.703 60.9196 64.2647 59.1564 65.5211 56.5998C67.4191 52.6309 65.8408 49.1916 61.1125 47.0462C57.9581 45.6048 54.191 45.0171 51.2718 45.5176C49.345 45.8104 48.9943 45.4283 50.5415 44.693C51.2075 44.3712 51.7092 43.7835 52.3174 42.4292L53.1942 40.5788L56.3864 38.9743C61.3456 36.4266 63.7985 34.3595 65.7542 31.0632C67.3592 28.3592 67.186 25.9479 65.288 24.4193C64.7729 24.0514 64.165 23.8375 63.5344 23.8025C63.0105 23.8025 61.4321 23.8315 60.0314 23.8606C57.5785 23.8919 57.432 23.9209 56.7327 24.7433C56.2799 25.3345 55.8788 25.9641 55.534 26.625C55.272 27.1837 54.9502 27.653 54.8036 27.653C54.424 27.653 53.6649 26.4194 53.6649 25.7713C53.6649 25.4786 53.3452 24.9199 52.9367 24.5377C52.7124 24.3386 52.5317 24.0948 52.406 23.8216C52.2802 23.5485 52.2123 23.252 52.2064 22.951C52.2064 20.3051 48.6546 17.0133 45.811 17.1004C45.4025 17.1049 44.3215 17.3686 43.4468 17.7217ZM47.8555 18.6625C48.5284 18.9531 49.1303 19.3876 49.6195 19.936C50.1086 20.4844 50.4733 21.1335 50.688 21.8381C51.0077 22.9846 50.91 23.3064 50.3661 23.0717C50.1619 23.0136 48.3216 22.7186 46.2194 22.4259L42.4235 21.9007V21.0448C42.4235 20.3386 42.6277 20.0749 43.3869 19.6615C44.7899 18.9911 44.9053 18.7519 43.8309 18.8972C43.3048 18.9575 42.8675 18.9285 42.8675 18.81C42.863 18.1932 46.5125 18.1016 47.8555 18.6625ZM39.7952 19.2503C40.8474 19.6972 41.4023 20.4861 41.4023 21.5141C41.4023 22.1845 41.4023 22.1599 40.5854 21.3957C39.7685 20.6314 38.1014 19.9274 37.7818 20.2492C37.693 20.3386 37.8683 20.5733 38.1902 20.8079C39.0959 21.456 38.8917 22.0147 37.693 22.2493C34.3632 22.808 32.2032 23.3377 30.9779 23.8651C29.051 24.6897 28.7003 24.3657 30.5339 23.4181C32.3098 22.5063 32.4607 22.2136 31.0001 22.4773C30.0367 22.6829 29.9789 22.6538 30.2697 22.1242C30.6205 21.4538 32.372 20.0079 33.6573 19.333C34.7738 18.7229 38.4233 18.6916 39.7952 19.2503ZM23.0064 23.5142C23.0064 23.807 22.6268 24.5131 22.1295 25.0428C21.6323 25.5724 21.2549 26.1289 21.2549 26.2473C21.2549 26.7457 22.8599 26.8641 23.6479 26.3948C24.0919 26.1289 24.467 26.0417 24.467 26.1892C24.467 26.8351 22.4225 29.0095 21.1372 29.7157C19.9696 30.3325 19.6189 30.6855 19.3858 31.6264C18.9418 33.155 18.3336 33.3315 18.3336 31.9191C18.3336 30.7727 17.692 30.5671 17.4878 31.6554C17.3701 32.2722 16.2913 33.9192 16.1159 33.7427C15.9405 33.5662 17.3701 28.6877 17.985 27.4519C18.7132 26.0127 20.6489 24.0707 21.9564 23.4293C23.0885 22.8661 23.0064 22.8661 23.0064 23.5142ZM48.7012 23.9612C50.7746 24.5198 52.7303 25.3713 52.3218 25.5255C52.1176 25.5836 51.0965 25.4383 50.0154 25.1724C47.709 24.6428 44.5856 24.5847 43.2715 25.0852C42.5411 25.3489 42.1327 25.3489 41.5777 25.0852C40.8762 24.7903 40.8762 24.7903 41.1093 25.673C41.2646 26.2554 41.3046 26.8629 41.227 27.4608L41.0516 28.4016L41.9395 27.4608C43.5911 25.6998 44.1772 25.454 47.063 25.4763C49.8645 25.5054 51.4716 26.035 52.99 27.4451L53.6316 28.0329L53.0566 28.8642C52.7347 29.3335 52.2108 29.8632 51.889 30.0107C51.3917 30.3034 51.3629 30.2453 51.5094 28.9223L51.6847 27.51L51.1875 28.2452C50.5215 29.186 49.8733 29.7157 49.3783 29.7157C49.0853 29.7157 49.0276 29.3335 49.1741 28.0999C49.3184 27.0407 49.2607 26.482 49.0564 26.482C48.8522 26.482 48.648 26.7457 48.5592 27.0697C48.2972 27.863 47.8311 27.8049 47.8311 26.9826C47.8022 26.3635 47.8022 26.3635 47.1651 27.1278C46.2905 28.1871 46.0552 28.158 46.2905 27.0116L46.4636 26.0708L45.2871 27.0407C44.5105 27.6374 43.6432 28.1038 42.7187 28.4217C41.2292 28.8687 37.6952 28.9514 35.7106 28.6273C34.6584 28.4508 34.6007 28.4217 35.2667 28.2161C35.8033 28.0892 36.35 28.0107 36.9005 27.9815C37.5664 27.9524 37.8639 27.7759 37.9815 27.3356C38.128 26.777 38.0393 26.7457 37.3689 26.8887C36.9249 26.9781 35.6152 27.1546 34.4475 27.2708C33.2799 27.387 32.2587 27.5368 32.1988 27.653C32.1389 27.7692 32.463 28.2407 32.9291 28.6832L33.8171 29.5056L32.0656 30.6811C30.9523 31.4417 29.9484 32.3531 29.0821 33.3896C28.4162 34.2835 27.7968 34.9182 27.7391 34.8601C27.6814 34.802 27.7102 34.1539 27.7968 33.4187C27.9722 32.3616 28.2941 31.832 29.3751 30.7369L30.747 29.3961L29.5794 29.8676C28.9356 30.1313 28.1764 30.6029 27.9145 30.9537L27.3884 31.5415V30.9537C27.3884 30.2498 28.7203 28.5447 29.3152 28.5447C29.5194 28.5447 30.2209 28.015 30.8691 27.3692C31.5173 26.7233 32.2721 26.1937 32.5629 26.1624C33.0312 26.1624 33.0313 26.1333 32.5051 25.8987C31.5417 25.4875 31.3375 25.5456 30.2276 26.6339C29.1176 27.7223 28.5627 27.9279 28.5627 27.2798C28.5627 26.2808 30.8402 24.9579 33.7305 24.2517C35.3088 23.9008 36.0081 24.1355 35.0757 24.7232C34.6651 24.9869 34.7827 25.016 35.7417 24.8998C37.1136 24.6942 37.4643 24.8998 36.9382 25.5456C36.6474 25.9277 36.734 25.9568 37.6397 25.7691C38.7208 25.5925 39.3912 26.035 40.1792 27.5033C40.5011 28.0619 40.5011 28.0619 40.5299 27.358C40.5299 26.4172 39.5665 24.8282 38.865 24.5936C38.7019 24.5364 38.5607 24.4291 38.4616 24.2867C38.3624 24.1443 38.3101 23.9741 38.3123 23.8003C38.3123 23.1544 38.37 23.1544 42.7209 23.331C45.1095 23.4248 47.8266 23.7198 48.7012 23.9545V23.9612ZM65.1127 24.931C66.3958 26.4306 65.9584 28.3413 63.6231 31.28C61.9583 33.3963 60.0603 35.1595 58.6884 35.8657C57.3742 36.5361 57.7827 36.0132 59.8272 34.25C61.9871 32.4264 64.7619 29.2531 64.7619 28.634C64.7619 28.015 64.6731 28.1357 63.4478 29.7805C62.1619 31.5428 60.6385 33.1163 58.9215 34.4556C56.5263 36.3663 56.7016 36.0423 59.6807 33.1036C62.3667 30.4218 64.7619 27.2932 64.7619 26.4306C64.7619 26.225 64.2358 26.8775 63.6231 27.8407C62.1048 30.1917 59.7384 32.7795 58.0735 33.8969C57.3432 34.3952 56.3509 35.1595 55.8825 35.573L55.0367 36.3373L55.2987 35.4545C55.4628 34.6716 55.5513 33.8746 55.5628 33.0745C55.5939 32.2521 55.7093 31.4297 55.827 31.2241C55.9446 31.0185 55.8847 30.4308 55.7093 29.843C55.1255 28.0552 56.5263 25.0204 57.9581 25.0204C58.624 25.0204 58.624 25.0517 57.4608 27.3736C56.8193 28.6653 56.2932 29.7827 56.2932 29.8721C56.2932 30.319 56.9058 29.9011 57.2854 29.2017C57.665 28.5022 57.7294 28.4977 57.7538 28.9961C57.7827 29.3201 58.0158 28.967 58.3377 28.1737C59.2434 25.8518 61.1125 24.4685 63.4766 24.4394C64.2647 24.4238 64.8219 24.6003 65.1127 24.9243V24.931ZM47.3294 30.0107C47.8266 30.4218 48.1774 31.0967 48.4104 32.127C48.6415 33.1401 49.0256 34.1116 49.5492 35.0076C50.2485 36.125 50.3661 36.6524 50.395 38.505C50.4239 39.6805 50.2485 41.1219 50.0443 41.7387C49.84 42.3555 49.345 43.7075 48.9943 44.8539C48.0597 47.6183 46.366 50.3224 44.8187 51.3504C41.227 53.7907 35.3577 50.557 34.2766 45.5601C34.2153 45.3346 34.1086 45.1242 33.9631 44.942C33.8176 44.7597 33.6364 44.6096 33.4308 44.5008C33.2174 44.3957 33.0303 44.2435 32.8835 44.0554C32.7366 43.8674 32.6339 43.6484 32.5828 43.4147C32.4963 43.0013 32.554 42.7443 32.6716 42.8248C32.7564 42.8971 32.824 42.9876 32.8693 43.0897C32.9147 43.1918 32.9366 43.3029 32.9336 43.4147C32.9229 43.5121 32.9507 43.6098 33.0109 43.6867C33.0711 43.7636 33.1589 43.8136 33.2555 43.8259C33.4597 43.8259 33.4774 43.6203 33.3731 43.2963C32.1744 40.5028 31.8836 37.506 32.7072 36.5652C32.9964 36.1831 33.2214 35.7558 33.3731 35.3003C33.7216 34.1829 34.6873 32.9494 35.4465 32.6544C36.0303 32.4197 36.1457 32.156 36.1457 31.1861V30.0107L38.8606 29.9794C40.1496 29.9871 41.4378 29.9087 42.7165 29.7447C44.9053 29.2754 46.5125 29.3916 47.3294 30.0107ZM54.8347 29.9794C55.3009 30.8621 54.7171 32.0085 53.4895 32.5963L52.4106 33.0969L53.5494 33.2421C54.424 33.3606 54.7171 33.5371 54.7748 34.0377C54.8347 34.4489 54.6882 34.7081 54.3086 34.831C53.929 34.9539 53.7825 35.2132 53.8646 35.6244C53.9823 35.9775 53.7781 36.4758 53.3696 36.9183C52.9203 37.4445 52.5732 38.0509 52.3463 38.7061C51.8801 40.1162 51.4428 40.2928 51.1786 39.153C50.9144 38.0133 51.2674 36.449 51.8801 35.9797C52.3241 35.6557 52.2885 35.6266 51.8512 35.5975C51.0343 35.5975 51.2385 34.8623 52.142 34.5383C52.9012 34.2455 52.8724 34.2142 51.5582 34.0086C50.799 33.8924 50.0998 33.6868 50.0043 33.5393C49.9089 33.3918 50.4483 33.0387 51.1431 32.6857C52.919 31.8633 53.3918 31.1571 51.7869 31.7761C51.3429 31.9214 51.0277 31.9527 51.0277 31.7761C51.0277 31.5996 51.2607 31.4521 51.5804 31.3292C51.9001 31.2062 52.4573 30.7705 52.8946 30.3012C53.7825 29.2754 54.3885 29.186 54.8325 29.9794H54.8347ZM34.8316 31.7672C34.8316 31.9906 34.452 32.2655 33.9281 32.384C32.9935 32.5605 31.504 33.5013 31.4751 33.8835C31.4751 34.031 31.8547 34.107 32.3209 34.107C33.0224 34.107 33.1378 34.2254 33.0224 34.6657C32.8286 35.1321 32.5397 35.5523 32.1744 35.8992C31.5906 36.4579 31.4751 36.8401 31.4751 38.3396C31.4751 40.3509 31.211 40.2794 30.3941 38.0759C29.8968 36.7529 29.7525 36.6054 29.0621 36.6948C28.0099 36.811 28.0388 36.2814 29.2375 34.5182C30.434 32.6968 32.7116 31.1079 33.9392 31.2264C34.4808 31.3023 34.8316 31.5102 34.8316 31.7739V31.7672ZM18.7442 33.5013C19.0062 33.9125 18.5977 34.7059 18.1293 34.7059C17.8385 34.7059 17.7497 34.5293 17.8674 34.2366C17.9537 33.9991 18.0126 33.7524 18.0428 33.5013C18.0428 33.155 18.54 33.155 18.7442 33.508V33.5013ZM18.6266 35.7048C18.6266 36.1518 18.4224 36.4691 18.0428 36.5585C17.5744 36.6747 17.4589 36.5585 17.4589 36.0289C17.4441 35.8537 17.4876 35.6785 17.5824 35.5309C17.6772 35.3832 17.8181 35.2715 17.9828 35.2132C18.2448 35.1238 18.5067 35.0657 18.5666 35.0366C18.6235 35.2567 18.6437 35.4848 18.6266 35.7115V35.7048ZM15.9405 37.734C15.3279 38.2636 15.2746 38.2636 15.1814 37.7921C15.1236 37.5284 15.3856 36.9697 15.7652 36.5585L16.4311 35.8233L16.5177 36.4937C16.6109 36.9473 16.4067 37.3876 15.9405 37.7407V37.734ZM18.6266 37.9105C18.6266 38.4089 18.1005 38.8223 17.4301 38.8223C17.1371 38.8223 17.0793 37.8524 17.3701 37.5574C17.7808 37.1239 18.6266 37.3585 18.6266 37.9172V37.9105ZM18.9196 40.0023C18.9196 40.3241 18.5977 40.6481 18.0317 40.8537C17.2147 41.1196 17.1437 41.0884 17.1437 40.4067C17.1349 40.1942 17.1952 39.9845 17.3154 39.8095C17.4355 39.6345 17.609 39.5037 17.8097 39.4369C18.6266 39.1218 18.9196 39.2693 18.9196 40.0023ZM16.2913 41.0593C16.0871 41.2649 15.8229 41.4705 15.6786 41.4705C15.2346 41.4705 15.3856 40.5297 15.9405 39.9062C16.4378 39.3475 16.4378 39.3475 16.5244 39.9665C16.5746 40.3477 16.4923 40.7346 16.2913 41.0615V41.0593ZM19.2104 42.3532C19.2104 42.5879 18.9196 42.97 18.5977 43.2047C18.0716 43.5287 17.9318 43.5287 17.7098 43.1756C17.2658 42.5052 17.419 41.8526 18.1182 41.5599C18.8175 41.2671 19.2104 41.5331 19.2104 42.3555V42.3532ZM50.8634 43.3544C50.688 44.0896 50.1619 44.4427 50.1619 43.8013C50.1619 43.3544 50.7746 42.2728 50.9211 42.4471C51.0077 42.532 50.9788 42.9074 50.8634 43.3544ZM17.1659 43.3253C17.1659 43.884 16.3779 44.8897 16.1159 44.6483C15.8518 44.3533 16.4667 42.9432 16.8751 42.9432C16.9617 42.9599 17.0391 43.0081 17.0927 43.0786C17.1464 43.149 17.1724 43.2368 17.1659 43.3253ZM20.1161 44.1477C20.378 44.6774 20.3203 44.883 19.8519 45.3545C19.2681 45.9422 19.2681 45.9422 18.742 45.1489C18.2159 44.3556 18.2448 44.3243 18.7709 43.9421C19.5034 43.3834 19.7077 43.4147 20.1161 44.1477ZM21.67 45.8529C22.0785 46.2998 22.114 46.559 21.8454 47.0283C21.4658 47.7926 21.2038 47.7926 20.5601 47.0887C20.1161 46.6171 20.1161 46.4406 20.4446 45.9132C20.9042 45.1422 21.0218 45.1422 21.6633 45.8529H21.67ZM18.0494 46.9121C17.8452 47.1468 17.581 47.3591 17.4367 47.3591C16.9928 47.3591 17.1437 46.7132 17.6987 46.0964C18.1426 45.5959 18.1959 45.5959 18.2825 46.0071C18.3168 46.3282 18.2314 46.6508 18.0428 46.9121H18.0494ZM59.1612 46.7937C60.0669 47.1758 59.9493 47.2049 57.119 47.1177C54.7814 47.0283 53.5272 47.1468 51.5116 47.6474C50.1109 47.9692 48.8478 48.2061 48.7678 48.1167C48.3882 47.7055 49.3206 46.5009 50.0798 46.3825C51.798 46.0897 58.1911 46.3825 59.1546 46.7937H59.1612ZM23.8654 47.0887C24.8289 47.4418 24.9754 47.853 24.4182 48.6173C24.0697 49.0285 23.9232 49.0284 23.0863 48.6754C22.2494 48.3223 22.1828 48.2061 22.5025 47.4999C22.5979 47.2398 22.7254 46.9928 22.8821 46.7646C22.8887 46.7646 23.3282 46.9121 23.8543 47.0887H23.8654ZM33.8548 47.853C34.1478 48.6173 34.059 48.7647 32.4829 50.2039C30.9068 51.6431 30.03 52.0856 30.9068 51.0554C31.0773 50.8285 31.1566 50.5452 31.1288 50.262C31.0689 50.0855 30.1055 50.7917 28.9978 51.851C27.011 53.7304 26.9533 53.7907 27.5371 54.26C27.9811 54.6131 28.0033 54.7897 27.7413 54.9081C27.3218 55.1358 26.9299 55.4117 26.5737 55.7305C25.668 56.4948 24.063 57.3462 23.5658 57.3462C23.3615 57.3462 23.3904 57.0825 23.7123 56.6132C24.1784 55.878 24.063 55.6724 23.4193 56.1126C23.1264 56.3764 22.8887 56.6962 22.72 57.0535L22.3404 57.7887L21.8964 56.7585C21.6896 56.2104 21.4047 55.6955 21.0507 55.2299C20.6067 54.7316 20.7865 54.6131 23.4748 53.3482C26.163 52.0834 27.9988 50.9682 31.7659 48.2642C32.3091 47.842 32.8746 47.4496 33.4597 47.0887C33.4885 47.0596 33.6639 47.4105 33.8393 47.853H33.8548ZM20.014 48.1167C20.1028 48.4698 19.2837 49.5581 19.0794 49.3525C18.7886 49.0575 19.2837 47.6183 19.6055 47.7345C19.6941 47.7666 19.775 47.8173 19.8427 47.8832C19.9104 47.949 19.9635 48.0286 19.9985 48.1167H20.014ZM55.3741 48.6173C56.1622 49.8218 56.1933 49.9983 55.4341 49.7927C54.5572 49.5581 53.565 48.2061 54.0311 47.882C54.5706 47.5289 54.6283 47.558 55.3586 48.6173H55.3741ZM58.26 47.882C58.6684 48.1457 59.2811 50.5861 58.9259 50.5861C58.5707 50.5861 58.109 49.9157 57.6118 48.7335C57.1412 47.6183 57.3742 47.3233 58.2511 47.882H58.26ZM27.6259 48.881C27.7147 49.529 27.597 49.7033 27.1819 49.7033C26.1319 49.7033 25.3417 49.3212 25.3417 48.8519C25.3417 48.0876 25.6635 47.9111 26.6558 48.0005C27.3573 48.0586 27.5615 48.2351 27.6192 48.881H27.6259ZM29.7592 48.8229C28.9689 49.4933 28.5605 49.5581 28.5605 49.0284C28.5605 48.4407 28.8535 48.2351 29.6992 48.2351L30.4584 48.2642L29.7592 48.8229ZM52.5327 49.7637C52.768 50.2106 52.7081 50.2933 52.1243 50.2933C51.2186 50.2933 50.1686 48.881 50.7813 48.5055C51.1831 48.2351 52.0599 48.881 52.5261 49.7637H52.5327ZM61.5565 49.9872C61.5565 51.5157 61.1769 51.956 60.855 50.7805C60.5331 49.605 60.6508 48.5167 61.1191 48.5167C61.4321 48.5279 61.5498 48.881 61.5498 49.9983L61.5565 49.9872ZM21.6345 50.0587C21.5457 50.5302 21.3703 50.8833 21.226 50.8833C20.9301 50.8833 20.9005 50.4125 21.1372 49.4709C21.4014 48.5279 21.8387 49.0575 21.6345 50.0587ZM23.5902 50.6174C23.5902 51.1761 23.4437 51.471 23.1462 51.471C22.8488 51.471 22.7022 51.147 22.7022 50.4408C22.7022 49.6765 22.7888 49.4709 23.1462 49.5894C23.4148 49.7033 23.5902 50.1458 23.5902 50.6151V50.6174ZM48.8189 50.9124C48.5969 51.2945 48.1174 50.9414 48.1174 50.3827C48.1174 50.0006 48.2062 50.0006 48.5614 50.2956C48.79 50.5056 48.9055 50.7626 48.8189 50.9101V50.9124ZM63.3901 52.0297C62.7752 53.5583 62.5998 53.527 62.8351 51.9694C63.0393 50.2062 63.3301 49.6765 63.6231 50.4699C63.7119 50.7626 63.6231 51.4979 63.3901 52.0275V52.0297ZM25.6347 50.8833C25.6347 51.2051 25.4305 51.471 25.1907 51.471C24.951 51.471 24.7467 51.2051 24.7467 50.8833C24.7467 50.5615 24.951 50.2956 25.1907 50.2956C25.4305 50.2956 25.6347 50.557 25.6347 50.8811V50.8833ZM34.3942 51.9694C34.3942 53.0577 33.8681 52.9996 33.7527 51.9113C33.6928 51.3235 33.6928 50.7939 33.7816 50.7358C34.0146 50.5056 34.3942 51.2632 34.3942 51.9672V51.9694ZM58.5707 51.3235C60.8195 52.2644 61.5498 53.8801 60.3222 55.4377C59.5941 56.3786 56.9924 58.1195 55.9136 58.3787C54.8924 58.6424 51.0965 56.9976 49.9577 55.7908C49.0808 54.9103 48.1174 52.9996 48.1174 52.2152C48.1174 51.9225 49.5781 51.3347 51.7669 50.776C52.9656 50.4676 57.3454 50.8207 58.5707 51.3213V51.3235ZM32.5251 52.5571C32.2032 52.8812 31.9702 52.3806 32.2032 51.8532C32.4363 51.3258 32.4385 51.3526 32.554 51.8532C32.6339 52.1437 32.6139 52.4677 32.5251 52.5549V52.5571ZM65.0439 53.3482C65.0439 54.0544 63.4389 55.8176 63.0882 55.4958C63.0016 55.3774 63.1747 54.9081 63.4966 54.4656C63.8261 54.0157 64.0914 53.5215 64.2847 52.9974C64.5577 52.2018 65.0439 52.4387 65.0439 53.3482ZM61.774 55.2902C61.5698 57.3462 60.5176 58.6424 58.5619 59.2279C57.7161 59.4938 56.4308 59.8983 55.7005 60.1397C54.9701 60.381 53.0144 60.8101 51.3207 61.1677C45.8598 62.256 42.1527 63.284 40.8385 64.0192C40.137 64.4304 39.642 64.607 39.7574 64.4304C40.3124 63.5209 44.4591 62.0213 49.4227 60.8749C56.9569 59.1698 60.138 57.6122 61.1325 55.1718C61.4521 54.4366 61.7451 53.8309 61.7984 53.8309C61.8517 53.8309 61.8406 54.4656 61.7829 55.2902H61.774ZM21.6345 57.4647C21.8099 57.9943 21.8099 58.3764 21.6056 58.582C21.1084 59.0804 20.6711 58.553 20.6711 57.4647C20.6711 56.2311 21.226 56.2311 21.6345 57.4647ZM64.8774 56.906C64.7619 57.201 64.2935 57.3529 63.4189 57.3529C61.2279 57.3529 61.9582 56.6199 64.2358 56.5015C64.8485 56.4657 64.995 56.5819 64.8774 56.906ZM63.0105 58.7876C63.0105 58.9351 62.804 59.1407 62.5421 59.2346C61.9294 59.4692 60.6441 59.1184 60.8483 58.7876C61.0526 58.4569 63.0105 58.4345 63.0105 58.7876ZM60.3822 60.2872C60.3822 60.4347 59.9138 60.5799 59.3299 60.5799C58.7461 60.5799 58.3665 60.4637 58.4842 60.2872C58.6018 60.1106 59.0391 59.9922 59.5342 59.9922C60.0292 59.9922 60.3822 60.1151 60.3822 60.2872ZM56.4397 61.4559C56.3531 61.6034 55.9424 61.7487 55.5517 61.7487C55.161 61.7487 54.7637 61.6034 54.6771 61.4559C54.5905 61.3084 54.9102 61.161 55.5517 61.161C56.1933 61.161 56.5573 61.2861 56.4397 61.4559ZM52.4972 62.0437C52.4972 62.1912 52.1465 62.3364 51.738 62.3364C51.3296 62.3364 51.0721 62.2202 51.183 62.0437C51.294 61.8671 51.627 61.7487 51.9422 61.7487C52.2575 61.7487 52.4972 61.8738 52.4972 62.0504V62.0437Z" fill="#CCD1DC"/>
<path d="M18.8292 26.9825C18.7116 27.0697 18.625 27.4518 18.625 27.7759C18.6539 28.3927 18.6539 28.3927 19.069 27.834C19.3043 27.5099 19.5129 27.1635 19.5129 27.0116C19.5018 26.7166 19.0912 26.6875 18.8292 26.9825Z" fill="#CCD1DC"/>
<path d="M35.9974 35.5058C34.8875 35.6533 33.5156 36.1762 33.5156 36.4756C33.5156 36.5941 34.0417 36.536 34.6855 36.3885C35.7954 36.0645 37.1673 36.241 39.2984 36.9181C39.7645 37.0634 39.9399 37.0053 39.9399 36.6812C39.9094 36.4038 39.7856 36.1452 39.5892 35.9482C39.123 35.5952 37.1673 35.3292 35.9974 35.5058Z" fill="#CCD1DC"/>
<path d="M44.2067 35.5328C43.3587 35.7384 42.5707 36.592 42.9214 36.9161C43.008 37.0323 43.7095 36.8848 44.4398 36.6501C46.0159 36.1205 47.9139 36.0333 48.7308 36.4736C49.0815 36.6792 49.2857 36.6792 49.2857 36.5026C49.2857 36.3261 49.0638 36.0914 48.7907 35.9462C48.0604 35.5663 45.2278 35.3294 44.2067 35.5328Z" fill="#CCD1DC"/>
<path d="M33.9245 37.7406C33.6603 38.5049 34.0399 38.887 34.7125 38.5049C34.8566 38.4201 35.0204 38.375 35.1873 38.3741C35.3542 38.3733 35.5184 38.4168 35.6634 38.5002C35.8083 38.5835 35.9289 38.7039 36.0129 38.8491C36.097 38.9943 36.1415 39.1592 36.1421 39.3273C36.1421 39.8279 37.1655 39.5932 37.918 38.9451C38.1942 38.7008 38.5433 38.5562 38.9103 38.5339C39.4364 38.5339 39.4364 38.5049 39.0257 38.0646C38.706 37.7696 37.7715 37.564 36.3397 37.4456C34.4772 37.3003 34.0687 37.3584 33.9245 37.7406ZM37.3097 38.3864C37.3097 38.6233 37.1943 38.8334 37.0189 38.8334C36.8436 38.8334 36.7259 38.6278 36.7259 38.3864C36.7259 38.1451 36.8724 37.9395 37.0189 37.9395C37.1655 37.9395 37.3097 38.1518 37.3097 38.3864Z" fill="#CCD1DC"/>
<path d="M44.9017 37.6222C44.289 37.7407 43.8517 37.9753 43.7917 38.2926C43.7318 38.61 43.8517 38.7396 44.289 38.6167C44.6397 38.5273 44.9017 38.5854 44.9017 38.7619C44.9017 38.9385 45.3101 39.2089 45.7785 39.381C46.5954 39.6447 46.7131 39.6156 46.9462 38.9675C47.2392 38.1742 47.7942 38.0267 48.3469 38.5854C48.8996 39.1441 49.5168 38.4089 48.9907 37.7921C48.6133 37.3205 46.9173 37.2691 44.9017 37.6222ZM46.3623 38.1809C46.3623 38.5631 46.0116 38.829 45.7208 38.6524C45.43 38.4759 45.6897 37.9463 46.1004 37.9463C46.1654 37.9448 46.2286 37.9682 46.2772 38.0118C46.3258 38.0553 46.3562 38.1157 46.3623 38.1809Z" fill="#CCD1DC"/>
<path d="M40.1433 38.8848C40.3653 40.1787 40.5229 40.2949 40.5229 39.1776C40.5229 38.6792 40.4075 38.1786 40.2321 38.0915C40.0568 38.0043 40.0279 38.2702 40.1433 38.8848Z" fill="#CCD1DC"/>
<path d="M42.1582 39.4749C42.069 39.8908 42.0199 40.3144 42.0117 40.7398C42.0406 41.0616 42.1582 40.7979 42.3047 40.1811C42.5955 38.9453 42.4801 38.3575 42.1582 39.4749Z" fill="#CCD1DC"/>
<path d="M43.6191 43.3834C43.8522 44.4718 44.0276 44.7064 44.0276 43.9421C44.0064 43.5911 43.9062 43.2495 43.7346 42.9432C43.5081 42.6191 43.4726 42.7376 43.6191 43.3834Z" fill="#CCD1DC"/>
<path d="M39.1836 43.3835C39.0939 43.6387 39.074 43.9134 39.1259 44.179C39.2125 44.3846 39.3301 44.2081 39.4167 43.7321C39.5921 42.8851 39.4478 42.684 39.1836 43.3835Z" fill="#CCD1DC"/>
<path d="M40.4344 43.7074C40.0836 44.0895 40.2301 44.2951 40.814 44.2951C41.1336 44.2951 41.3689 44.1476 41.309 44.0024C41.2823 43.9158 41.2355 43.8367 41.1725 43.7719C41.1096 43.707 41.0322 43.6582 40.9467 43.6294C40.8613 43.6006 40.7703 43.5926 40.6812 43.6062C40.5921 43.6197 40.5075 43.6544 40.4344 43.7074Z" fill="#CCD1DC"/>
<path d="M42.1903 43.7074C41.8395 44.0896 41.9572 44.2952 42.5987 44.3242C42.9206 44.3533 43.1537 44.2371 43.096 44.0605C42.9494 43.6203 42.4522 43.4437 42.1903 43.7074Z" fill="#CCD1DC"/>
<path d="M39.2375 46.3534C38.6537 46.7646 38.1875 47.1758 38.1875 47.2942C38.1875 47.4126 38.7425 47.8819 39.4129 48.3222C41.1066 49.4105 42.4208 49.3815 43.9392 48.206L45.1379 47.2651L44.2899 46.5299C43.6484 46.0003 43.2088 45.8595 42.4807 45.9712C41.9835 46.0293 41.2531 46.0003 40.9268 45.8528C40.4651 45.7075 40.0278 45.8237 39.2375 46.3534ZM43.3265 46.8003C43.413 46.9478 42.7715 47.0662 41.8658 47.0662C40.9601 47.0662 40.2031 46.9478 40.1143 46.8003C40.0255 46.6528 40.6693 46.5366 41.5461 46.5366C42.423 46.5366 43.2088 46.6461 43.3265 46.7936V46.8003ZM43.0046 47.6942C43.0934 47.8104 42.8004 48.0473 42.3386 48.2239C41.4907 48.5747 39.9434 48.2529 39.9434 47.7233C39.939 47.4104 42.7138 47.4104 43.0046 47.6763V47.6942Z" fill="#CCD1DC"/>
<path d="M25.37 54.6712C25.2712 54.7315 25.1914 54.8187 25.1396 54.9226C25.0877 55.0266 25.066 55.1431 25.077 55.2589C25.1636 55.4667 25.521 55.3483 26.0693 54.9952C26.7996 54.5259 26.8573 54.4075 26.3623 54.4075C26.0155 54.4151 25.6754 54.5055 25.37 54.6712Z" fill="#CCD1DC"/>
<path d="M39.0956 54.8478C39.0667 55.7305 39.3864 56.7585 39.7082 56.7585C39.8548 56.7585 39.8836 56.6133 39.766 56.4054C39.5666 56.0149 39.4174 55.6003 39.322 55.1718C39.211 54.6132 39.1244 54.4947 39.0956 54.8478Z" fill="#CCD1DC"/>
<path d="M43.9119 55.1986C43.7942 55.6455 43.6499 56.2579 43.5611 56.5216C43.4723 56.7853 43.5323 57.0512 43.6788 57.0512C43.8253 57.0512 44.0584 56.5216 44.1738 55.8467C44.4091 54.4946 44.2049 53.9672 43.9119 55.1986Z" fill="#CCD1DC"/>
<path d="M52.4968 74.9628C52.4968 74.7929 52.1505 72.5314 51.8952 71.3022C48.4921 72.9515 44.5119 73.6465 40.4829 73.6465C36.4183 73.6465 32.5402 72.9761 29.115 71.3022C28.8641 72.5135 28.3713 74.7907 28.3713 74.9628C28.3713 75.1349 26.6776 76.9227 25.5898 78.1272C29.9807 80.2659 35.2773 81.1307 40.4829 81.1307C45.6885 81.1307 50.7742 80.2368 55.1495 78.1272C54.0551 76.916 52.4968 75.108 52.4968 74.9628Z" fill="white"/>
<path d="M35.3661 74.7035C35.2891 74.72 35.2145 74.7463 35.1441 74.7817C35.1006 74.8053 35.0633 74.839 35.0353 74.88C35.0013 74.9323 34.9807 74.9921 34.9754 75.0543C34.9595 75.1743 34.9528 75.2954 34.9554 75.4164V78.4847C34.9528 78.6004 34.958 78.7161 34.9709 78.8311C34.978 78.892 34.996 78.951 35.0242 79.0054C35.0505 79.0501 35.088 79.0871 35.133 79.1127C35.208 79.1498 35.2869 79.1783 35.3683 79.1976V79.3719H33.8987V79.1976C33.9979 79.1789 34.0923 79.1401 34.1762 79.0836C34.2312 79.0345 34.2687 78.9685 34.2828 78.8959C34.3045 78.76 34.3134 78.6223 34.3094 78.4847V77.126C34.3094 76.7684 34.3094 76.4086 34.3272 76.0421C34.3449 75.6756 34.3494 75.4275 34.3627 75.2912H34.3027L32.9087 78.8065H32.5024L31.206 75.2309H31.1461C31.1572 75.3762 31.1705 75.6376 31.1794 76.0153C31.1883 76.393 31.1949 76.7818 31.1949 77.1818V78.4802C31.1928 78.596 31.1987 78.7117 31.2127 78.8266C31.218 78.8876 31.2354 78.9468 31.2638 79.0009C31.2909 79.0457 31.3292 79.0827 31.3747 79.1082C31.4453 79.1449 31.5198 79.1734 31.5967 79.1931V79.3674H30.3203V79.1931C30.4261 79.1728 30.5261 79.1293 30.6133 79.0657C30.6657 79.0125 30.6992 78.9434 30.7088 78.8691C30.7268 78.7403 30.7342 78.6102 30.731 78.4802V75.4164C30.7335 75.297 30.7283 75.1775 30.7154 75.0588C30.7079 74.9978 30.6875 74.9391 30.6555 74.8867C30.6291 74.8446 30.5925 74.8099 30.549 74.7862C30.4776 74.7518 30.4033 74.7241 30.327 74.7035V74.5292H31.5834L32.8199 77.9796L34.1829 74.5292H35.3749L35.3661 74.7035Z" fill="#CCD1DC"/>
<path d="M38.7943 74.5292V75.6019H38.448C38.4173 75.4979 38.381 75.3957 38.3392 75.2957C38.3073 75.2175 38.2679 75.1427 38.2215 75.0722C38.1868 75.017 38.1424 74.9686 38.0906 74.9292C38.04 74.8921 37.9814 74.8676 37.9196 74.8577C37.8421 74.8433 37.7632 74.8365 37.6843 74.8376H36.5744V76.6969H37.3292C37.4121 76.7005 37.4948 76.6852 37.5711 76.6522C37.6345 76.6182 37.6858 76.565 37.7176 76.5002C37.7692 76.3947 37.8066 76.2827 37.8286 76.1673H38.1594V77.5461H37.8286C37.8066 77.4345 37.7701 77.3263 37.7199 77.2243C37.6869 77.1611 37.6379 77.1079 37.5778 77.0701C37.4999 77.0343 37.4146 77.0182 37.3292 77.0232H36.5744V79.0702H37.671C37.7651 79.0717 37.859 79.0619 37.9507 79.0412C38.0194 79.0211 38.0825 78.9851 38.135 78.9361C38.1916 78.8815 38.2382 78.8171 38.2726 78.7462C38.3127 78.6687 38.3461 78.588 38.3725 78.5048C38.3991 78.4199 38.4369 78.297 38.4835 78.1383H38.832L38.7654 79.3831H35.5V79.2088C35.6053 79.1891 35.7047 79.1455 35.7908 79.0814C35.8447 79.029 35.8791 78.9596 35.8885 78.8847C35.9065 78.7559 35.9139 78.6259 35.9107 78.4959V75.4164C35.9139 75.2969 35.9079 75.1774 35.8929 75.0588C35.8861 74.998 35.8664 74.9393 35.8352 74.8867C35.8088 74.8446 35.7721 74.8099 35.7286 74.7862C35.6573 74.7518 35.583 74.7241 35.5067 74.7035V74.5292H38.7943Z" fill="#CCD1DC"/>
<path d="M40.1948 74.5292V74.7035C40.1063 74.7096 40.0215 74.7414 39.9506 74.7951C39.9259 74.8189 39.9065 74.8478 39.8938 74.8798C39.8812 74.9118 39.8756 74.9462 39.8774 74.9806C39.8828 75.067 39.9055 75.1513 39.944 75.2287C40.0004 75.3509 40.0641 75.4696 40.1349 75.584L40.6454 76.4444L41.1493 75.6265C41.2226 75.5036 41.2803 75.403 41.3181 75.3315C41.35 75.2721 41.3767 75.21 41.398 75.146C41.412 75.0966 41.4195 75.0455 41.4202 74.994C41.4217 74.9264 41.3988 74.8605 41.3558 74.8085C41.2999 74.7497 41.2253 74.7125 41.1449 74.7035V74.5292H42.4524V74.7035C42.3674 74.7312 42.2877 74.7736 42.2171 74.8287C42.1335 74.8979 42.0589 74.9775 41.9951 75.0655C41.9174 75.1683 41.8042 75.3337 41.6599 75.5572L40.863 76.7997L41.7509 78.2814C41.8775 78.4937 41.9729 78.6389 42.024 78.7283C42.0711 78.806 42.123 78.8806 42.1794 78.9518C42.2255 79.008 42.2776 79.0589 42.3347 79.1038C42.398 79.15 42.4675 79.1869 42.5412 79.2133V79.3876H40.9873V79.2133C41.0734 79.2029 41.1558 79.1714 41.227 79.1216C41.2535 79.099 41.2743 79.0704 41.2878 79.0382C41.3013 79.006 41.3071 78.971 41.3047 78.9361C41.3028 78.859 41.2854 78.783 41.2537 78.7127C41.2073 78.6097 41.1547 78.5097 41.0961 78.4132L40.4723 77.3227L39.8063 78.44C39.7107 78.5758 39.6525 78.7346 39.6376 78.9004C39.6342 78.97 39.6563 79.0384 39.6998 79.0926C39.76 79.1513 39.8383 79.1875 39.9218 79.1954V79.3697H38.5898V79.1954C38.7365 79.1578 38.8682 79.0759 38.9672 78.9607C39.0293 78.8898 39.0872 78.8152 39.1404 78.7373C39.2047 78.6501 39.3046 78.4981 39.4445 78.2791L40.2747 76.974L39.2824 75.3292C39.187 75.1773 39.1159 75.0678 39.0605 74.9985C39.0208 74.9397 38.9762 74.8844 38.9273 74.8331C38.8952 74.797 38.8577 74.7661 38.8163 74.7415C38.78 74.7224 38.7421 74.7067 38.7031 74.6946V74.5203L40.1948 74.5292Z" fill="#CCD1DC"/>
<path d="M43.4025 78.4847C43.4 78.6004 43.4051 78.7161 43.4181 78.8311C43.4251 78.892 43.4432 78.951 43.4714 79.0054C43.4983 79.0496 43.5357 79.0865 43.5801 79.1127C43.6551 79.1498 43.7341 79.1783 43.8154 79.1976V79.3719H42.3281V79.1976C42.4342 79.1783 42.5345 79.1347 42.6211 79.0702C42.6735 79.017 42.707 78.9479 42.7166 78.8735C42.7356 78.7448 42.7437 78.6148 42.741 78.4847V75.4164C42.7431 75.2969 42.7371 75.1775 42.7233 75.0588C42.7154 74.9982 42.6958 74.9397 42.6655 74.8867C42.6378 74.845 42.6005 74.8105 42.5568 74.7862C42.4856 74.7515 42.4113 74.7238 42.3348 74.7035V74.5292H43.8221V74.7035C43.7452 74.7204 43.6707 74.7466 43.6001 74.7817C43.5566 74.8053 43.5193 74.839 43.4913 74.88C43.4595 74.9333 43.4391 74.9927 43.4314 75.0543C43.4155 75.1743 43.4088 75.2954 43.4114 75.4164L43.4025 78.4847Z" fill="#CCD1DC"/>
<path d="M47.1914 74.6409V75.6242H46.8384C46.7933 75.4486 46.7182 75.2822 46.6164 75.1326C46.5388 75.0208 46.4341 74.9308 46.3123 74.8711C46.1809 74.8161 46.0395 74.7895 45.8972 74.7929C45.6596 74.7921 45.4298 74.8787 45.2512 75.0365C45.0402 75.235 44.8867 75.4876 44.8073 75.7672C44.6908 76.1493 44.6361 76.5477 44.6452 76.9472C44.6378 77.3469 44.6826 77.7458 44.7784 78.1338C44.8407 78.412 44.9773 78.6678 45.1735 78.8735C45.2585 78.9561 45.3591 79.0208 45.4692 79.0638C45.5794 79.1068 45.697 79.1272 45.8151 79.1238C45.976 79.13 46.1364 79.1018 46.2857 79.0411C46.4108 78.9838 46.5177 78.8925 46.5942 78.7774C46.6992 78.613 46.7793 78.4337 46.8318 78.2456H47.1825V79.2602C46.9592 79.3189 46.7322 79.3629 46.5032 79.392C46.2498 79.4228 45.9948 79.4377 45.7396 79.4367C45.482 79.453 45.2243 79.4059 44.9888 79.2997C44.7533 79.1934 44.547 79.031 44.3877 78.8266C44.0814 78.4199 43.9304 77.8143 43.9304 77.0075C43.921 76.5493 44.0041 76.0939 44.1746 75.6689C44.312 75.3041 44.5601 74.9922 44.8837 74.7775C45.2073 74.5629 45.5899 74.4564 45.9771 74.4733C46.1744 74.4724 46.3716 74.4835 46.5676 74.5068C46.7782 74.5379 46.9865 74.5827 47.1914 74.6409Z" fill="#CCD1DC"/>
<path d="M49.1162 79.4278C48.8528 79.4313 48.5913 79.3835 48.3459 79.287C48.1135 79.1906 47.9089 79.0369 47.751 78.84C47.5718 78.6173 47.441 78.3592 47.367 78.0824C47.2696 77.7236 47.224 77.3526 47.2315 76.9807C47.22 76.5162 47.3015 76.0541 47.4713 75.622C47.6094 75.2714 47.8482 74.9703 48.1572 74.7571C48.4643 74.5572 48.8238 74.4545 49.1895 74.4621C49.561 74.449 49.9282 74.5453 50.2461 74.7392C50.5402 74.9386 50.7652 75.2253 50.8899 75.5594C51.1895 76.4418 51.1793 77.4011 50.861 78.2769C50.7216 78.6275 50.4782 78.9264 50.164 79.1328C49.8502 79.3306 49.4864 79.4331 49.1162 79.4278ZM47.9574 76.8913C47.9574 77.6184 48.0625 78.1703 48.2727 78.5473C48.356 78.7208 48.4872 78.8666 48.6505 78.9672C48.8138 79.0679 49.0025 79.1191 49.1939 79.1149C49.4348 79.1209 49.6687 79.0329 49.8465 78.8691C50.0436 78.6704 50.1819 78.4205 50.2461 78.1472C50.3431 77.783 50.3886 77.4069 50.3815 77.0299C50.3919 76.5975 50.3388 76.166 50.2239 75.7493C50.1544 75.4666 50.0057 75.2098 49.7955 75.0096C49.6195 74.8602 49.3952 74.7807 49.165 74.7862C48.9731 74.7814 48.784 74.8335 48.6212 74.9359C48.4626 75.0441 48.333 75.1899 48.2438 75.3605C48.1332 75.5699 48.0581 75.7965 48.0218 76.0309C47.9754 76.3153 47.9539 76.6032 47.9574 76.8913Z" fill="#CCD1DC"/>
<path d="M20.1067 68.8663C20.2195 68.6577 20.2946 68.4308 20.3287 68.1958C20.3477 68.0097 20.313 67.8219 20.2288 67.655C20.1179 67.4576 19.9666 67.2862 19.7848 67.1522C19.6728 67.0473 19.541 66.966 19.3973 66.9131C19.2536 66.8601 19.1008 66.8366 18.948 66.8438C18.797 66.8653 18.6521 66.9179 18.5223 66.9982C18.3924 67.0786 18.2804 67.185 18.1932 67.3109C18.0599 67.4673 17.9655 67.6534 17.9179 67.8539C17.8808 68.0552 17.8899 68.2624 17.9446 68.4595C18.0333 68.776 18.1491 69.084 18.2909 69.3803C18.4386 69.6897 18.5532 70.0141 18.6327 70.3479C18.6875 70.5932 18.6927 70.847 18.6483 71.0943C18.6003 71.3225 18.4982 71.5356 18.3508 71.7156C18.1531 71.9724 17.8866 72.167 17.5827 72.2765C17.2767 72.3707 16.9498 72.3707 16.6437 72.2765C16.2829 72.1731 15.9478 71.9942 15.6604 71.7513C15.4795 71.607 15.3068 71.4525 15.1431 71.2887C14.9413 71.0794 14.755 70.8553 14.5859 70.6183L15.3829 69.6261L15.7447 69.9211C15.6414 70.1313 15.5761 70.3583 15.5516 70.5915C15.5371 70.7628 15.571 70.9348 15.6493 71.0876C15.75 71.2565 15.8819 71.4044 16.0377 71.5234C16.1827 71.6449 16.3525 71.7326 16.535 71.7804C16.7037 71.8248 16.8818 71.8162 17.0455 71.7558C17.2219 71.6883 17.3758 71.5721 17.4895 71.4206C17.6197 71.2732 17.7119 71.096 17.7581 70.9044C17.7923 70.7143 17.7847 70.519 17.7359 70.3323C17.661 70.0458 17.5584 69.7673 17.4296 69.5009C17.2731 69.171 17.1482 68.8268 17.0566 68.4729C16.9936 68.2148 16.983 67.9465 17.0256 67.6841C17.0748 67.4175 17.1927 67.1686 17.3674 66.9623C17.5404 66.7329 17.7598 66.5433 18.0112 66.4058C18.2226 66.2968 18.4574 66.2416 18.6949 66.2449C18.9398 66.2522 19.1804 66.3116 19.4008 66.4192C19.6562 66.5371 19.8957 66.6873 20.1134 66.8662C20.5542 67.2397 20.9465 67.6676 21.281 68.14L20.4708 69.1478L20.1067 68.8663Z" fill="white"/>
<path d="M16.3838 63.3665C16.6244 63.6256 16.8129 63.9292 16.9388 64.2604C17.0543 64.5743 17.0909 64.9121 17.0453 65.2437C16.9867 65.6199 16.8514 65.9798 16.648 66.3008C16.3834 66.7177 16.0604 67.0941 15.689 67.4181C15.2419 67.8476 14.7134 68.182 14.1351 68.4014C13.6678 68.5796 13.1582 68.6123 12.6722 68.4953C12.1996 68.3705 11.7751 68.1058 11.4535 67.7355C11.1117 67.3764 10.8804 66.9255 10.7875 66.4371C10.7161 65.9661 10.7938 65.4845 11.0095 65.0605C11.2832 64.5287 11.6554 64.0546 12.1061 63.6637C12.5629 63.2194 13.1054 62.8741 13.7 62.6492C14.1684 62.4737 14.679 62.4472 15.1629 62.5732C15.6376 62.7131 16.0617 62.9887 16.3838 63.3665ZM14.9409 66.7946C15.6513 66.1421 16.0952 65.5417 16.2728 64.9934C16.3679 64.755 16.393 64.494 16.3449 64.2416C16.2969 63.9893 16.1779 63.7561 16.002 63.5699C15.7922 63.325 15.4961 63.172 15.1762 63.143C14.8041 63.1246 14.4342 63.2113 14.1085 63.3933C13.6676 63.6233 13.2604 63.9136 12.8986 64.256C12.4667 64.6343 12.0927 65.0748 11.7887 65.5633C11.5744 65.8859 11.4566 66.2636 11.4491 66.6516C11.4561 66.9639 11.5779 67.2625 11.7909 67.4897C11.9595 67.6848 12.1821 67.8249 12.4302 67.8919C12.6771 67.9556 12.9359 67.9556 13.1828 67.8919C13.4839 67.8122 13.7703 67.6839 14.0308 67.512C14.3539 67.2995 14.6584 67.0595 14.9409 66.7946Z" fill="white"/>
<path d="M6.55469 60.6982L7.64464 59.9831L7.89992 60.3764C7.73543 60.5511 7.60314 60.7539 7.50923 60.9753C7.43877 61.1431 7.41498 61.3269 7.44041 61.5072C7.47651 61.6962 7.55218 61.8752 7.6624 62.0324C7.8335 62.296 8.09379 62.4881 8.39495 62.5732C8.76925 62.6689 9.16252 62.6588 9.53152 62.5441C10.0398 62.3989 10.5217 62.1725 10.9589 61.8737C11.4089 61.5926 11.8195 61.2521 12.1798 60.8614C12.442 60.5924 12.6275 60.2574 12.717 59.8915C12.7732 59.5801 12.7054 59.259 12.5283 58.9976C12.4155 58.8103 12.2641 58.6495 12.0844 58.526C11.9294 58.4277 11.7504 58.3743 11.5671 58.3718C11.3083 58.3747 11.0512 58.4146 10.8035 58.4903L10.5482 58.097L11.6759 57.3595C11.9042 57.5685 12.1185 57.7924 12.3174 58.0299C12.5353 58.2929 12.737 58.569 12.9212 58.8568C13.3549 59.5272 13.4562 60.1827 13.2254 60.8234C12.9945 61.464 12.4329 62.0696 11.5405 62.6402C11.0425 62.9818 10.4818 63.2196 9.89114 63.3397C9.38571 63.4493 8.85886 63.396 8.38517 63.1874C7.91148 62.9789 7.51495 62.6256 7.25172 62.1776C7.10616 61.9566 6.97563 61.7259 6.86103 61.4871C6.74127 61.2314 6.63892 60.9679 6.55469 60.6982Z" fill="white"/>
<path d="M9.86888 55.869C10.0082 55.8034 10.1432 55.7288 10.2729 55.6455C10.3419 55.6021 10.4016 55.5451 10.4483 55.4779C10.4859 55.4199 10.5074 55.3528 10.5104 55.2835C10.5118 55.1721 10.4991 55.061 10.4727 54.9528L10.6791 54.85L11.5671 56.6378L11.3606 56.7428C11.2752 56.6269 11.1652 56.5315 11.0387 56.4635C10.9443 56.4321 10.8424 56.4321 10.7479 56.4635C10.5835 56.5177 10.4238 56.5857 10.2707 56.6668L6.62566 58.4815C6.48309 58.5463 6.34513 58.621 6.21277 58.7049C6.14512 58.7504 6.08703 58.8089 6.04184 58.877C6.00914 58.9344 5.99014 58.9987 5.98634 59.0647C5.98774 59.1745 6.00038 59.2838 6.02408 59.391L5.81763 59.4938L4.92969 57.706L5.13613 57.6032C5.20066 57.6866 5.27523 57.7617 5.35812 57.8267C5.41192 57.8643 5.47332 57.8895 5.53793 57.9004C5.62077 57.9069 5.70402 57.8954 5.78211 57.8669C5.93488 57.8155 6.08334 57.752 6.22609 57.6769L9.86888 55.869Z" fill="white"/>
<path d="M2.82422 52.2062L4.15613 51.7302L4.31153 52.1771C4.1958 52.262 4.08465 52.353 3.97855 52.4497C3.8978 52.5252 3.82354 52.6075 3.75656 52.6956C3.70511 52.7629 3.66533 52.8384 3.63891 52.919C3.61566 52.9996 3.61035 53.0843 3.62337 53.1671C3.64048 53.2724 3.66799 53.3757 3.7055 53.4755L4.20053 54.8856L6.52251 54.0588L6.18731 53.1045C6.15477 52.9972 6.09862 52.8987 6.02304 52.8162C5.95364 52.7512 5.8661 52.709 5.77219 52.6956C5.61743 52.6757 5.46078 52.6757 5.30602 52.6956L5.15951 52.2933L6.85992 51.6877L7.00644 52.1056C6.87961 52.1808 6.76318 52.2724 6.66014 52.3782C6.59418 52.4478 6.54882 52.5344 6.52917 52.6285C6.52029 52.7429 6.53855 52.8578 6.58244 52.9637L6.91764 53.918L9.47492 53.0084L8.98211 51.6229C8.9433 51.5022 8.88881 51.3873 8.82006 51.281C8.76659 51.2015 8.69405 51.1369 8.60917 51.0933C8.51616 51.0457 8.4154 51.0154 8.31171 51.0039C8.19622 50.9882 8.07971 50.9815 7.96319 50.9837L7.45707 51.0061L7.30168 50.5591L8.88666 50.0898L10.3362 54.2197L10.1142 54.2979C10.0434 54.1726 9.94555 54.0649 9.82788 53.9828C9.73789 53.9404 9.63682 53.9278 9.5393 53.947C9.37002 53.9823 9.20376 54.0308 9.04205 54.0923L5.20835 55.4577C5.05577 55.506 4.9073 55.5665 4.76438 55.6387C4.69057 55.6739 4.62539 55.725 4.57347 55.7885C4.53297 55.8413 4.50626 55.9036 4.49577 55.9695C4.48512 56.078 4.48512 56.1873 4.49577 56.2958L4.27379 56.374L2.82422 52.2062Z" fill="white"/>
<path d="M8.67607 49.4441L8.45409 49.4843C8.41155 49.3826 8.35794 49.2859 8.29426 49.196C8.25446 49.1417 8.20076 49.0992 8.13887 49.0731C8.06206 49.0456 7.98047 49.0342 7.89912 49.0396C7.74109 49.0478 7.58383 49.0673 7.42851 49.0977L3.43276 49.8017C3.275 49.826 3.1192 49.8618 2.96659 49.9089C2.88469 49.9299 2.80872 49.9697 2.74461 50.0251C2.69786 50.0703 2.66281 50.1263 2.64249 50.1883C2.61216 50.2954 2.59355 50.4056 2.587 50.5168L2.36501 50.557L1.99873 48.5144C1.89944 48.0285 1.87994 47.5295 1.94102 47.0373C1.99515 46.662 2.13247 46.3038 2.34281 45.9892C2.5577 45.6787 2.84309 45.4243 3.17526 45.2472C3.58258 45.0362 4.02111 44.8928 4.47388 44.8226C4.93757 44.7336 5.41159 44.7126 5.88127 44.76C6.2642 44.7978 6.63487 44.9166 6.969 45.1087C7.24401 45.2688 7.48411 45.4831 7.67492 45.7389C7.85159 45.976 7.98948 46.2401 8.08337 46.521C8.21446 46.9244 8.31319 47.3376 8.37861 47.7568L8.67607 49.4441ZM8.01012 48.1032C8.01012 47.9759 7.9746 47.7926 7.93242 47.549C7.89456 47.3138 7.83282 47.0832 7.74817 46.8607C7.67349 46.6725 7.57178 46.4963 7.44627 46.3378C7.3175 46.1809 7.15999 46.0504 6.98232 45.9534C6.78577 45.8482 6.57481 45.7729 6.35632 45.7299C6.10975 45.6836 5.85894 45.6641 5.60823 45.6718C5.3155 45.6811 5.02388 45.7125 4.73582 45.7657C4.20448 45.8392 3.69459 46.025 3.23964 46.311C2.89691 46.5282 2.63419 46.8523 2.49154 47.2339C2.36235 47.6328 2.33788 48.0585 2.42051 48.4697C2.45602 48.6798 2.4982 48.8809 2.5426 49.0664L8.01012 48.1032Z" fill="white"/>
<path d="M7.72143 40.6859H7.49944C7.47738 40.565 7.44085 40.4472 7.39067 40.3351C7.35562 40.2635 7.29991 40.2043 7.23084 40.1652C7.14668 40.1241 7.05338 40.1056 6.96001 40.1116C6.84335 40.1144 6.7273 40.1293 6.61372 40.1563C6.49236 40.1831 6.35473 40.2211 6.20082 40.2703L5.59702 40.4557L5.63254 42.6614L6.09649 42.8134C6.26928 42.8751 6.44573 42.9259 6.62482 42.9654C6.73127 42.9887 6.83998 42.9999 6.94891 42.9989C7.02419 43.0047 7.09983 42.9942 7.17069 42.9679C7.24155 42.9417 7.30598 42.9004 7.35959 42.8469C7.45879 42.7182 7.51754 42.5626 7.5283 42.4H7.75028L7.78358 44.4113H7.5616C7.54133 44.3196 7.50323 44.233 7.44951 44.1563C7.39579 44.0796 7.3275 44.0143 7.2486 43.9643C7.01343 43.8085 6.75892 43.6845 6.49162 43.5956L1.24609 41.7139V40.9675L6.45833 39.2736C6.64781 39.2141 6.83383 39.1439 7.01551 39.0635C7.12955 39.0115 7.23103 38.9353 7.31297 38.84C7.39126 38.7422 7.44393 38.6262 7.46614 38.5026H7.68813L7.72143 40.6859ZM5.21298 42.5452L5.18191 40.5675L2.16512 41.515L5.21298 42.5452Z" fill="white"/>
<path d="M7.74182 38.3663L7.51983 38.3305C7.51285 38.2201 7.49424 38.1107 7.46433 38.0043C7.44274 37.9412 7.40616 37.8844 7.35778 37.8389C7.29252 37.7862 7.21684 37.7481 7.13579 37.7271C6.98326 37.6814 6.82739 37.6478 6.66962 37.6266L2.665 36.9696C2.50814 36.9402 2.34937 36.9223 2.18995 36.9159C2.10873 36.9102 2.02733 36.924 1.95242 36.9562C1.89331 36.9838 1.84157 37.0251 1.80147 37.0768C1.73818 37.1673 1.6853 37.2648 1.64386 37.3673L1.42188 37.3294L1.75263 35.2846C1.81831 34.793 1.96223 34.3154 2.17885 33.8699C2.34941 33.5356 2.59121 33.2434 2.88698 33.014C3.19125 32.792 3.54348 32.6457 3.91478 32.5872C4.36825 32.5209 4.82944 32.53 5.27999 32.614C5.7479 32.6826 6.20335 32.8196 6.63189 33.0207C6.98195 33.1831 7.29428 33.4176 7.54869 33.709C7.75471 33.9525 7.91155 34.2342 8.01042 34.5381C8.09802 34.8209 8.14146 35.1157 8.13917 35.4119C8.13251 35.8362 8.09168 36.2592 8.01708 36.6768L7.74182 38.3663ZM7.54869 36.8735C7.59382 36.693 7.62939 36.5102 7.65524 36.326C7.69638 36.0915 7.71275 35.8533 7.70408 35.6153C7.69707 35.4124 7.65888 35.2119 7.59087 35.0209C7.51993 34.8304 7.41372 34.6552 7.27787 34.5046C7.1274 34.3383 6.95215 34.1966 6.75842 34.0845C6.54144 33.9589 6.31141 33.8578 6.07248 33.7828C5.79309 33.6945 5.50736 33.628 5.21784 33.5839C4.69247 33.4794 4.15133 33.4855 3.62842 33.6018C3.23331 33.6948 2.87887 33.9143 2.61838 34.2275C2.36666 34.5618 2.20528 34.956 2.14999 35.3717C2.11447 35.584 2.08783 35.7851 2.07007 35.9773L7.54869 36.8735Z" fill="white"/>
<path d="M6.22807 22.1374C6.20631 22.2417 6.19737 22.3483 6.20143 22.4548C6.2076 22.5203 6.22807 22.5836 6.26137 22.6403C6.3087 22.7084 6.37002 22.7656 6.44118 22.8079C6.57858 22.8924 6.72174 22.9671 6.86961 23.0313L10.5879 24.6873C10.7271 24.7521 10.8702 24.808 11.0163 24.8549C11.0938 24.8792 11.175 24.8891 11.2561 24.884C11.3248 24.8754 11.3899 24.8484 11.4447 24.8057C11.5293 24.7358 11.604 24.6546 11.6667 24.5644L11.8776 24.6582L11.0984 26.4617L10.8765 26.3701C10.9079 26.2375 10.9124 26.0999 10.8898 25.9656C10.8583 25.8745 10.7983 25.7961 10.7188 25.7421C10.5687 25.6368 10.408 25.5477 10.2394 25.4762L8.59444 24.7432C8.16231 24.548 7.72722 24.3461 7.28917 24.1375C6.84519 23.9275 6.55661 23.7778 6.40122 23.6906L6.37014 23.7643L9.8753 27.3735L9.65332 27.8718L4.62533 27.5366L4.59203 27.6104C4.77406 27.6729 5.09668 27.8003 5.55989 27.9925C6.0231 28.1847 6.49815 28.3888 6.98504 28.6048L8.55893 29.3043C8.69779 29.3705 8.84092 29.4273 8.98736 29.4742C9.06485 29.4985 9.1461 29.5083 9.2271 29.5032C9.29556 29.4936 9.36048 29.4667 9.41579 29.425C9.49979 29.3545 9.5744 29.2734 9.63778 29.1836L9.84866 29.2775L9.15385 30.8575L8.93186 30.7636C8.96327 30.6231 8.96327 30.4773 8.93186 30.3368C8.8963 30.2434 8.83064 30.1647 8.74539 30.1133C8.59894 30.0211 8.44526 29.9412 8.28588 29.8742L4.56762 28.2182C4.42383 28.151 4.27546 28.0943 4.12364 28.0484C4.04542 28.024 3.96316 28.0157 3.88168 28.0238C3.81669 28.0351 3.75559 28.0628 3.70409 28.1042C3.62265 28.1708 3.54825 28.2457 3.4821 28.3277L3.27344 28.2339L3.9394 26.6896L8.82309 27.0405L5.37565 23.5051L6.01719 22.0436L6.22807 22.1374Z" fill="white"/>
<path d="M9.50125 16.8613L10.6689 17.6725L10.407 18.0547C10.2708 18.0096 10.1322 17.9723 9.99184 17.943C9.88378 17.9198 9.77376 17.9071 9.6633 17.905C9.57748 17.904 9.49205 17.9168 9.41023 17.943C9.33157 17.9713 9.26026 18.0172 9.20157 18.077C9.12704 18.1527 9.05943 18.235 8.99956 18.3229L8.15601 19.5542L10.1827 20.9621L10.7555 20.1285C10.8221 20.0392 10.8683 19.9362 10.8909 19.8269C10.9005 19.7319 10.882 19.6363 10.8376 19.552C10.7608 19.4153 10.6668 19.2891 10.5579 19.1765L10.8087 18.81L12.2938 19.8425L12.043 20.209C11.9011 20.1483 11.7518 20.1069 11.599 20.0861C11.5046 20.0727 11.4084 20.0866 11.3215 20.1263C11.2312 20.1882 11.1561 20.27 11.1018 20.3654L10.529 21.199L12.7622 22.7499L13.5925 21.5387C13.6635 21.436 13.7216 21.3249 13.7656 21.2079C13.7963 21.1167 13.8054 21.0195 13.7922 20.9241C13.7759 20.8204 13.7414 20.7205 13.6901 20.6291C13.6347 20.5268 13.5717 20.429 13.5014 20.3364C13.4304 20.2425 13.3238 20.1129 13.184 19.9341L13.4504 19.5497L14.7557 20.5599L12.2827 24.1712L12.094 24.0394C12.1528 23.9074 12.1816 23.7639 12.1784 23.6192C12.1607 23.5207 12.1107 23.431 12.0363 23.3645C11.9104 23.2457 11.7744 23.138 11.6301 23.0427L8.28477 20.7185C8.15601 20.6251 8.02102 20.5407 7.88075 20.466C7.80833 20.4281 7.72905 20.4053 7.64767 20.399C7.58211 20.3983 7.51737 20.4136 7.45898 20.4436C7.3642 20.4969 7.2756 20.5606 7.19481 20.6336L7.00391 20.5018L9.50125 16.8613Z" fill="white"/>
<path d="M15.1508 20.0168L14.9865 19.8536C15.044 19.7597 15.0902 19.6591 15.1241 19.5542C15.1418 19.4898 15.1418 19.4219 15.1241 19.3575C15.103 19.2756 15.0643 19.1994 15.0109 19.134C14.911 19.0104 14.8027 18.894 14.6868 18.7854L11.7655 15.945C11.6534 15.8313 11.5332 15.726 11.4059 15.6299C11.3402 15.5794 11.2645 15.5436 11.1839 15.5249C11.1194 15.5137 11.0531 15.5183 10.9908 15.5383C10.8877 15.5775 10.7888 15.6269 10.6955 15.6858L10.5312 15.5249L11.9631 14.0343C12.2946 13.6689 12.683 13.3602 13.1129 13.1203C13.4513 12.9415 13.8254 12.8422 14.2073 12.8298C14.5837 12.8236 14.9562 12.9062 15.2951 13.0711C15.7062 13.2774 16.0811 13.5499 16.405 13.8779C16.7541 14.2043 17.0533 14.5808 17.2929 14.9953C17.4815 15.3321 17.5973 15.7053 17.6326 16.0903C17.6621 16.405 17.6297 16.7224 17.5371 17.0244C17.45 17.3079 17.3189 17.5756 17.1487 17.8178C16.9012 18.1614 16.6273 18.4849 16.3295 18.7854L15.1508 20.0168ZM15.8345 18.6759C15.9307 18.5925 16.0639 18.4629 16.2341 18.2871C16.4013 18.118 16.5501 17.9315 16.678 17.7306C16.7871 17.5603 16.8694 17.3741 16.9222 17.1786C16.9732 16.981 16.9853 16.7753 16.9577 16.573C16.929 16.3508 16.8661 16.1344 16.7713 15.9316C16.6649 15.7028 16.5331 15.4869 16.3784 15.288C16.1986 15.0554 16.002 14.8366 15.7901 14.6332C15.4176 14.2467 14.9693 13.9423 14.4737 13.7393C14.0967 13.5893 13.6815 13.5665 13.2905 13.6745C12.8937 13.8038 12.5372 14.0349 12.2561 14.345C12.1074 14.4992 11.9719 14.6489 11.8476 14.7919L15.8345 18.6759Z" fill="white"/>
<path d="M19.7709 14.012C19.8648 14.1347 19.9656 14.2518 20.0728 14.3628C20.1306 14.4201 20.1983 14.4663 20.2726 14.4991C20.3369 14.5241 20.4067 14.531 20.4746 14.5192C20.5836 14.4962 20.6894 14.4602 20.7899 14.412L20.9319 14.593L19.378 15.8355L19.2337 15.6545C19.3285 15.5464 19.3976 15.418 19.4357 15.2791C19.4475 15.1794 19.4256 15.0786 19.3736 14.993C19.2867 14.8425 19.1872 14.6997 19.0761 14.5662L16.5499 11.3615C16.4532 11.2358 16.3487 11.1163 16.2369 11.004C16.1786 10.9463 16.1091 10.9014 16.0327 10.8721C15.9706 10.8509 15.904 10.8463 15.8396 10.8587C15.7333 10.8817 15.6299 10.9161 15.531 10.9615L15.3867 10.7805L16.9406 9.53796L17.0827 9.71898C17.016 9.80124 16.9593 9.89128 16.914 9.98715C16.8881 10.0485 16.8767 10.115 16.8807 10.1816C16.8926 10.2609 16.9205 10.337 16.9628 10.4051C17.0454 10.543 17.1382 10.6744 17.2403 10.7984L19.7709 14.012Z" fill="white"/>
<path d="M21.8452 6.45618L22.5312 7.57356L22.136 7.82161C21.9663 7.65261 21.7678 7.51562 21.55 7.41712C21.3853 7.34226 21.2035 7.31368 21.0239 7.33444C20.8362 7.36527 20.657 7.4353 20.4978 7.54004C20.2286 7.70583 20.0289 7.96491 19.9362 8.26857C19.8325 8.64282 19.8325 9.0385 19.9362 9.41276C20.0709 9.9282 20.2867 10.4186 20.5755 10.8654C20.8463 11.3236 21.1762 11.7436 21.5567 12.1146C21.8209 12.3866 22.1541 12.5806 22.5201 12.6755C22.6743 12.7087 22.8336 12.7107 22.9887 12.6816C23.1438 12.6524 23.2916 12.5926 23.4236 12.5057C23.6124 12.3956 23.7759 12.2463 23.903 12.0677C24.0045 11.9142 24.0621 11.7356 24.0695 11.5514C24.0708 11.2902 24.0364 11.03 23.9674 10.7782L24.3626 10.5324L25.0707 11.6833C24.8627 11.9078 24.6402 12.1183 24.4047 12.3135C24.1385 12.5268 23.8598 12.7238 23.5701 12.9035C22.8923 13.3266 22.2389 13.4152 21.6099 13.1694C20.981 12.9236 20.3846 12.344 19.8207 11.4308C19.4907 10.922 19.2643 10.3523 19.1548 9.75468C19.0631 9.24916 19.1242 8.72758 19.3301 8.25739C19.5526 7.78341 19.9125 7.38839 20.3624 7.12437C20.586 6.98285 20.8181 6.85524 21.0572 6.74223C21.3136 6.63026 21.5768 6.53472 21.8452 6.45618Z" fill="white"/>
<path d="M28.6 10.3045L28.5112 10.081C28.6132 10.0174 28.7078 9.94247 28.7931 9.85753C28.847 9.79887 28.8812 9.72458 28.8908 9.64523C28.8966 9.55148 28.8791 9.45776 28.8397 9.37259C28.7933 9.26465 28.7368 9.16139 28.671 9.06419C28.6 8.95916 28.5134 8.84071 28.4113 8.72004L28.0162 8.22616L25.9961 9.07536L26.0272 9.56701C26.0335 9.7513 26.0521 9.93495 26.0827 10.1168C26.1009 10.2247 26.1306 10.3304 26.1714 10.4319C26.1941 10.5045 26.2319 10.5715 26.2825 10.6282C26.3331 10.6848 26.3951 10.7299 26.4645 10.7604C26.6185 10.8084 26.7833 10.8084 26.9373 10.7604L27.0261 10.9838L25.1747 11.7638L25.0859 11.5403C25.1644 11.4876 25.2316 11.4198 25.2838 11.3408C25.336 11.2618 25.3721 11.1731 25.3901 11.0799C25.4464 10.8014 25.4658 10.5166 25.4478 10.233L25.2502 4.64607L25.9339 4.35779L29.4302 8.60383C29.5546 8.76059 29.688 8.90983 29.8298 9.05078C29.9186 9.13796 30.0244 9.20568 30.1406 9.24967C30.2601 9.28568 30.3866 9.29182 30.5091 9.26755L30.5978 9.49103L28.6 10.3045ZM25.9561 8.64853L27.7675 7.88647L25.7697 5.42824L25.9561 8.64853Z" fill="white"/>
<path d="M32.4723 8.95245L32.4346 8.72897C32.5356 8.68614 32.6317 8.63218 32.7209 8.56807C32.7744 8.52838 32.8165 8.47519 32.843 8.41387C32.8723 8.33702 32.8844 8.25462 32.8785 8.17252C32.8715 8.0127 32.853 7.85361 32.8231 7.69651L32.1438 3.67395C32.1211 3.51523 32.0869 3.35838 32.0417 3.20465C32.0201 3.1229 31.9815 3.04671 31.9284 2.98117C31.8824 2.93449 31.8261 2.89929 31.7642 2.87837C31.6587 2.84654 31.55 2.82705 31.4401 2.82027L31.4023 2.59679L33.4313 2.23476C33.9144 2.13767 34.41 2.12031 34.8986 2.18336C35.271 2.24072 35.626 2.38122 35.9375 2.59456C36.2443 2.81332 36.4953 3.10201 36.6701 3.43706C36.878 3.84729 37.0182 4.28884 37.0852 4.7444C37.1716 5.21225 37.1903 5.69023 37.1407 6.16347C37.1007 6.54937 36.9804 6.92247 36.7877 7.2585C36.6258 7.5327 36.4124 7.77255 36.1595 7.96468C35.9216 8.14021 35.6579 8.27742 35.3781 8.37141C34.9772 8.50094 34.5667 8.59809 34.1505 8.66193L32.4723 8.95245ZM33.8042 8.28202C33.9308 8.28202 34.1128 8.2485 34.3548 8.20827C34.5886 8.17122 34.8178 8.10903 35.0385 8.02279C35.2264 7.95 35.4022 7.84904 35.5601 7.72333C35.7238 7.59543 35.8604 7.43587 35.9619 7.25403C36.0673 7.05655 36.1422 6.84404 36.1839 6.62383C36.2338 6.37685 36.2547 6.12483 36.2461 5.87295C36.2383 5.57848 36.2094 5.28496 36.1595 4.99469C36.0884 4.45995 35.9069 3.94612 35.6267 3.48623C35.4121 3.13952 35.091 2.87275 34.7122 2.72641C34.3166 2.59392 33.8936 2.56697 33.4846 2.64819C33.2759 2.68395 33.0761 2.72417 32.8919 2.76887L33.8042 8.28202Z" fill="white"/>
<path d="M42.5494 1.56433L42.5716 2.99234H42.1121C42.0694 2.85447 42.0182 2.71939 41.959 2.58785C41.9156 2.48582 41.862 2.38849 41.7991 2.29733C41.751 2.22498 41.691 2.16148 41.6215 2.10961C41.5545 2.06416 41.479 2.03297 41.3996 2.01799C41.2956 1.99931 41.1899 1.99182 41.0843 1.99564L39.5904 2.01128L39.6303 4.48963L40.6359 4.47399C40.7474 4.47705 40.8582 4.4549 40.96 4.40918C41.0431 4.36297 41.1098 4.2919 41.1509 4.20582C41.2167 4.06342 41.2644 3.91326 41.293 3.75886H41.737L41.7658 5.57572H41.3219C41.2902 5.42712 41.2387 5.28353 41.1687 5.14888C41.1242 5.06447 41.0573 4.99409 40.9756 4.94552C40.8707 4.89998 40.7564 4.8808 40.6426 4.88965L39.637 4.90753L39.6814 7.63617L41.142 7.61159C41.2677 7.61247 41.393 7.59745 41.515 7.56689C41.6074 7.53998 41.6919 7.4909 41.7614 7.42387C41.8349 7.35006 41.895 7.26383 41.939 7.16911C41.9906 7.06405 42.0337 6.95493 42.0677 6.84283C42.1032 6.73109 42.1499 6.56572 42.2076 6.35118H42.6738L42.6205 8.01161L38.2695 8.08312V7.85965C38.4096 7.83138 38.5416 7.77181 38.6558 7.68533C38.7254 7.61364 38.7698 7.52106 38.7823 7.42163C38.8026 7.24886 38.81 7.07481 38.8045 6.90093L38.7379 2.80686C38.7385 2.6484 38.7281 2.4901 38.7069 2.33309C38.695 2.25372 38.667 2.17765 38.6247 2.10961C38.5885 2.0541 38.5388 2.00874 38.4804 1.97776C38.3814 1.93223 38.278 1.89704 38.1719 1.87273V1.64925L42.5494 1.56433Z" fill="white"/>
<path d="M44.8161 7.87528L46.0348 8.05182C46.147 8.07036 46.2606 8.07933 46.3744 8.07864C46.457 8.08069 46.5395 8.06937 46.6186 8.04512C46.6887 8.02147 46.7535 7.98427 46.8095 7.93561C46.878 7.87522 46.9385 7.80611 46.9893 7.73002C47.0601 7.62379 47.1218 7.51164 47.1735 7.3948C47.2357 7.25848 47.3178 7.05512 47.4199 6.77801L47.8906 6.84729L47.5221 8.71555L43.3398 8.10546L43.3731 7.88198C43.5162 7.87541 43.6563 7.83807 43.7838 7.77248C43.8639 7.71286 43.9218 7.62785 43.9481 7.53112C43.9981 7.36393 44.0338 7.19271 44.0546 7.01936L44.6362 2.96998C44.6625 2.81336 44.6774 2.65502 44.6806 2.49621C44.6833 2.41369 44.6689 2.33152 44.6385 2.25486C44.6099 2.19477 44.5673 2.1426 44.5142 2.10289C44.4244 2.04142 44.3284 1.98973 44.2278 1.9487L44.2611 1.72522L46.219 2.01127L46.1857 2.23474C46.0827 2.24419 45.9809 2.26365 45.8816 2.29285C45.8212 2.31225 45.7664 2.34598 45.7218 2.39118C45.6668 2.45576 45.6273 2.53223 45.6063 2.61465C45.5622 2.76842 45.5296 2.92529 45.5086 3.08395L44.8161 7.87528Z" fill="white"/>
<path d="M54.7217 9.87541C54.6573 10.0475 54.6129 10.1771 54.5885 10.2665C54.5675 10.3391 54.5563 10.4143 54.5552 10.49C54.5539 10.5426 54.5629 10.5951 54.5818 10.6442C54.604 10.6946 54.6348 10.7408 54.6729 10.7805C54.74 10.8489 54.8145 10.9096 54.8948 10.9615L54.8127 11.185L52.9724 10.481L53.0546 10.2576C53.1836 10.2828 53.3163 10.2828 53.4453 10.2576C53.5371 10.2259 53.6154 10.1636 53.6673 10.081C53.7628 9.92052 53.8417 9.75052 53.9026 9.57372L54.6018 7.71887L52.16 6.78474L51.4607 8.63735C51.4019 8.7826 51.3536 8.93198 51.3164 9.08431C51.296 9.16301 51.29 9.24479 51.2987 9.32566C51.3112 9.39394 51.341 9.45782 51.3852 9.51114C51.4599 9.59611 51.5449 9.6712 51.6383 9.73462L51.5562 9.9581L49.707 9.24968L49.7892 9.0262C49.9302 9.0506 50.0747 9.04451 50.2132 9.00832C50.3069 8.96846 50.3849 8.89854 50.4351 8.80943C50.52 8.65611 50.5941 8.49707 50.6571 8.33343L52.1023 4.50752C52.1619 4.36234 52.2109 4.21296 52.2488 4.06057C52.265 3.97944 52.265 3.89587 52.2488 3.81474C52.2351 3.75018 52.2053 3.6902 52.1622 3.64043C52.0872 3.55837 52.0047 3.48355 51.9158 3.41696L51.9979 3.19348L53.8471 3.9019L53.7649 4.12538C53.6607 4.1091 53.5549 4.10534 53.4497 4.1142C53.3845 4.12285 53.3222 4.14656 53.2677 4.18348C53.2024 4.23492 53.1487 4.29965 53.1101 4.37343C53.0341 4.51738 52.9688 4.66677 52.9147 4.82039L52.322 6.38472L54.7639 7.31885L55.3544 5.75451C55.428 5.58082 55.4824 5.39944 55.5164 5.2137C55.5287 5.1233 55.5132 5.03128 55.472 4.95C55.395 4.83793 55.296 4.74288 55.1812 4.67066L55.2633 4.44718L57.0947 5.13996L57.0126 5.36343C56.8821 5.33809 56.748 5.33809 56.6175 5.36343C56.5247 5.39577 56.4462 5.45983 56.3955 5.54445C56.3052 5.70507 56.2309 5.87423 56.1735 6.0495L54.7217 9.87541Z" fill="white"/>
<path d="M57.4693 12.8364C57.1667 12.6569 56.9007 12.421 56.6857 12.1414C56.4858 11.874 56.3553 11.5606 56.3061 11.2296C56.255 10.8503 56.2829 10.4644 56.3883 10.0966C56.5244 9.62312 56.727 9.17162 56.9898 8.75575C57.2953 8.21782 57.7052 7.74735 58.1952 7.37243C58.5931 7.06789 59.0725 6.8904 59.5715 6.86291C60.06 6.84916 60.5415 6.9822 60.9545 7.24505C61.3871 7.48846 61.7391 7.85448 61.9668 8.29762C62.1673 8.72821 62.2279 9.21147 62.1399 9.6787C62.0253 10.2685 61.7992 10.8307 61.474 11.3347C61.1603 11.8902 60.7373 12.3753 60.2308 12.7604C59.8324 13.0645 59.3498 13.2363 58.8501 13.2521C58.3598 13.2493 57.8806 13.105 57.4693 12.8364ZM57.8867 9.13566C57.3894 9.9655 57.1304 10.6687 57.1097 11.2453C57.0859 11.5019 57.136 11.76 57.2541 11.9887C57.3722 12.2174 57.5533 12.407 57.7757 12.5347C58.0467 12.7074 58.3732 12.769 58.688 12.7068C59.0501 12.6173 59.3805 12.4286 59.6426 12.1615C59.9993 11.8144 60.3071 11.4197 60.5571 10.9883C60.8657 10.5042 61.1021 9.97712 61.2586 9.42394C61.3709 9.04753 61.3739 8.64668 61.2675 8.26857C61.1715 7.97359 60.9718 7.72406 60.7059 7.56686C60.4902 7.42725 60.2386 7.35423 59.9822 7.35679C59.7271 7.37045 59.4793 7.44721 59.2607 7.58026C58.9944 7.74318 58.756 7.94845 58.5548 8.18812C58.305 8.48368 58.0814 8.80075 57.8867 9.13566Z" fill="white"/>
<path d="M61.5353 13.728C61.4219 13.9363 61.3467 14.1634 61.3133 14.3985C61.2895 14.5836 61.3203 14.7717 61.4021 14.9393C61.5063 15.1385 61.6516 15.313 61.8283 15.451C61.9384 15.5578 62.0685 15.6414 62.2111 15.6971C62.3536 15.7527 62.5057 15.7792 62.6585 15.7751C62.8094 15.7572 62.9551 15.7083 63.0864 15.6314C63.2178 15.5545 63.332 15.4513 63.4222 15.3281C63.5577 15.1742 63.6558 14.9906 63.7085 14.7918C63.7476 14.5904 63.7415 14.3827 63.6908 14.1839C63.6087 13.8653 63.498 13.5549 63.36 13.2565C63.2192 12.9415 63.1135 12.6117 63.0448 12.2732C62.9948 12.0277 62.9948 11.7745 63.0448 11.529C63.0965 11.3013 63.2024 11.0896 63.3533 10.9123C63.5538 10.6579 63.8239 10.4684 64.1303 10.367C64.4362 10.272 64.7634 10.272 65.0693 10.367C65.4282 10.4761 65.7597 10.6613 66.0416 10.91C66.2165 11.0635 66.3832 11.2261 66.5411 11.3972C66.7375 11.6077 66.9193 11.8317 67.0849 12.0676L66.2702 13.0487L65.9128 12.747C66.02 12.5373 66.0898 12.3104 66.1193 12.0766C66.1363 11.9054 66.1056 11.7328 66.0305 11.5782C65.9325 11.4062 65.8029 11.2545 65.6487 11.1313C65.5055 11.0078 65.3373 10.917 65.1559 10.8653C64.988 10.819 64.8101 10.8244 64.6453 10.881C64.4653 10.9441 64.3068 11.0572 64.188 11.2072C64.0577 11.354 63.9648 11.5304 63.9172 11.7212C63.88 11.9105 63.8837 12.1057 63.9283 12.2933C64.0007 12.5774 64.0988 12.8541 64.2213 13.1202C64.3735 13.4524 64.4925 13.799 64.5765 14.1549C64.6365 14.4138 64.6425 14.6824 64.5943 14.9438C64.5404 15.2096 64.4188 15.4569 64.2413 15.6611C64.0631 15.8862 63.84 16.0712 63.5864 16.2042C63.3732 16.3093 63.1378 16.3607 62.9005 16.3539C62.6557 16.3416 62.4161 16.2784 62.1968 16.1684C61.9439 16.0451 61.7068 15.8913 61.4909 15.7103C61.0584 15.3288 60.6744 14.8949 60.3477 14.4186L61.1757 13.4241L61.5353 13.728Z" fill="white"/>
<path d="M65.3989 17.6546C65.2867 17.751 65.1842 17.858 65.0925 17.9742C65.0322 18.046 64.9876 18.1297 64.9615 18.22C64.9417 18.2932 64.9417 18.3703 64.9615 18.4435C64.9992 18.5563 65.0483 18.6649 65.1081 18.7675L64.9371 18.9217L63.5586 17.3775L63.7295 17.2233C63.8423 17.3117 63.9737 17.3728 64.1136 17.4021C64.2136 17.4088 64.313 17.3813 64.3955 17.3239C64.5383 17.2257 64.6734 17.1167 64.7995 16.9976L67.8229 14.2623C67.9419 14.158 68.0538 14.0461 68.1581 13.9271C68.2132 13.8622 68.2534 13.7859 68.2758 13.7036C68.2924 13.6399 68.2924 13.5729 68.2758 13.5092C68.246 13.4038 68.205 13.3019 68.1537 13.2052L68.3268 13.051L69.8808 14.7941C70.3721 15.3439 70.6325 15.8475 70.6621 16.3048C70.6695 16.5478 70.6197 16.7891 70.5167 17.0089C70.4137 17.2288 70.2604 17.4209 70.0694 17.5697C69.8484 17.7758 69.5878 17.934 69.3036 18.0345C69.0484 18.123 68.7756 18.1476 68.5089 18.106C68.2373 18.0598 67.979 17.9546 67.7519 17.7977C67.5067 17.6284 67.2831 17.4295 67.0859 17.2054C66.864 16.944 66.6775 16.7384 66.5598 16.5864L65.3989 17.6546ZM66.8506 16.3406L67.2147 16.7607C67.4074 16.9892 67.6408 17.1794 67.9029 17.3216C68.1181 17.4313 68.3645 17.4621 68.5999 17.4088C68.8863 17.3281 69.1471 17.1741 69.3569 16.9619C69.5319 16.8127 69.6773 16.6315 69.7853 16.4277C69.8674 16.2682 69.91 16.0911 69.9096 15.9115C69.9048 15.7382 69.86 15.5683 69.7786 15.4154C69.689 15.2426 69.5771 15.0826 69.4457 14.9394C69.2392 14.7159 69.0772 14.5371 68.964 14.4276L66.8506 16.3406Z" fill="white"/>
<path d="M68.6307 21.7218C68.5033 21.8091 68.3817 21.9046 68.2667 22.0079C68.2058 22.0617 68.1561 22.127 68.1202 22.2001C68.0926 22.2632 68.0818 22.3326 68.0891 22.4012C68.1051 22.5118 68.135 22.6199 68.1779 22.723L67.9892 22.8571L66.8438 21.2302L67.0324 21.0961C67.1356 21.196 67.259 21.2723 67.3943 21.3196C67.4923 21.3367 67.5931 21.3201 67.6806 21.2726C67.8368 21.1951 67.9854 21.103 68.1246 20.9978L71.4544 18.6356C71.5851 18.5468 71.7091 18.4482 71.8251 18.3406C71.8865 18.2861 71.9357 18.2191 71.9694 18.144C71.993 18.0821 72.0014 18.0154 71.9938 17.9496C71.977 17.8415 71.9479 17.7358 71.9073 17.6345L72.0959 17.5004L73.2414 19.1295L73.0527 19.2636C72.974 19.1923 72.8876 19.1301 72.7952 19.0781C72.7363 19.0494 72.6719 19.0341 72.6065 19.0334C72.5239 19.0402 72.4437 19.0646 72.3712 19.1049C72.2291 19.1794 72.0933 19.2654 71.965 19.3619L68.6307 21.7218Z" fill="white"/>
<path d="M73.9503 20.1262L76.3611 24.6337L74.9204 25.4159L74.6984 25.0069C74.8652 24.8567 75.0203 24.6938 75.1623 24.5198C75.2561 24.4134 75.3312 24.2917 75.3843 24.16C75.4198 24.0652 75.4334 23.9636 75.4243 23.8627C75.3998 23.7324 75.3524 23.6076 75.2844 23.494L75.0025 22.9644L70.7648 25.2639C70.6337 25.3325 70.5089 25.4125 70.3919 25.5031C70.3162 25.5587 70.2527 25.6294 70.2054 25.7109C70.1693 25.7796 70.1518 25.8567 70.1543 25.9344C70.1644 26.0535 70.1875 26.1712 70.2231 26.2852L70.0189 26.3947L69 24.4907L69.2042 24.3812C69.2597 24.448 69.3198 24.5107 69.384 24.5689C69.432 24.6154 69.4876 24.6532 69.5483 24.6807C69.6039 24.7037 69.6636 24.7151 69.7237 24.7142C69.8041 24.7111 69.8835 24.6952 69.959 24.6673C70.0931 24.6176 70.223 24.557 70.3475 24.4862L74.5852 22.1867L74.3032 21.6615C74.2478 21.5518 74.1776 21.4503 74.0946 21.3598C74.0164 21.2838 73.9188 21.2312 73.8127 21.2078C73.6667 21.1765 73.5164 21.1713 73.3687 21.1922C73.1533 21.2187 72.9403 21.2621 72.7316 21.3218L72.5096 20.9084L73.9503 20.1262Z" fill="white"/>
<path d="M71.6682 30.3927L71.8902 30.3123C71.9519 30.4194 72.0265 30.5184 72.1122 30.6073C72.1679 30.6642 72.2402 30.7018 72.3186 30.7145C72.4115 30.7236 72.5052 30.7098 72.5917 30.6743C72.7006 30.6322 72.8054 30.5798 72.9047 30.5179C73.0112 30.4508 73.1266 30.3681 73.2576 30.272L73.766 29.8966L73.009 27.8272H72.5206C72.3374 27.8275 72.1543 27.8387 71.9723 27.8607C71.864 27.874 71.7575 27.8994 71.6549 27.9367C71.582 27.9567 71.5141 27.992 71.4556 28.0401C71.3971 28.0882 71.3493 28.1482 71.3152 28.2161C71.2682 28.3712 71.2682 28.5369 71.3152 28.6921L71.0933 28.7725L70.3984 26.8752L70.6204 26.797C70.6695 26.8781 70.7339 26.9487 70.8101 27.0047C70.8863 27.0607 70.9727 27.101 71.0644 27.1233C71.338 27.1921 71.6193 27.2245 71.9013 27.2194L77.4509 27.2596L77.7084 27.9613L73.3331 31.2866C73.1733 31.4056 73.0206 31.534 72.8758 31.671C72.7857 31.7555 72.7146 31.8583 72.6671 31.9727C72.6258 32.0917 72.6136 32.2189 72.6316 32.3437L72.4096 32.4241L71.6682 30.3927ZM73.4241 27.8049L74.1034 29.6597L76.6407 27.7624L73.4241 27.8049Z" fill="white"/>
<path d="M73.0982 33.9438L73.338 35.1595C73.3581 35.2714 73.3878 35.3813 73.4268 35.488C73.4548 35.5679 73.4945 35.6432 73.5444 35.7115C73.5911 35.7701 73.6484 35.8194 73.7131 35.8567C73.7926 35.8998 73.8768 35.9336 73.964 35.9573C74.0871 35.9885 74.2126 36.0094 74.3391 36.0199C74.4879 36.0333 74.7076 36.0422 75.0051 36.0489L75.0983 36.5182L73.227 36.7976L72.3945 32.6275L72.6165 32.5828C72.6704 32.7158 72.7522 32.8355 72.8563 32.9337C72.939 32.9903 73.0384 33.017 73.1382 33.0097C73.3108 33.0006 73.4824 32.9767 73.651 32.9381L77.6467 32.1381C77.8025 32.1106 77.9561 32.0718 78.1062 32.0219C78.1839 31.9953 78.2556 31.9536 78.3171 31.899C78.364 31.8535 78.3985 31.7965 78.417 31.7336C78.444 31.6275 78.4604 31.519 78.4659 31.4096L78.6878 31.3649L79.0741 33.318L78.8521 33.3627C78.8093 33.2677 78.7572 33.1771 78.6967 33.0923C78.6575 33.0421 78.6074 33.0016 78.5502 32.9739C78.4734 32.9432 78.3907 32.9302 78.3082 32.9359C78.1439 32.9457 77.9805 32.9689 77.8199 33.0052L73.0982 33.9438Z" fill="white"/>
<path d="M73.4096 43.5623L73.3164 43.1913L73.6893 42.8516C73.5694 42.6499 73.4797 42.4315 73.423 42.2035C73.3631 41.9504 73.337 41.6904 73.3453 41.4303C73.3586 40.6325 73.6383 40.038 74.1888 39.6425C74.7393 39.2469 75.5496 39.0592 76.6307 39.0771C77.233 39.0726 77.8297 39.1951 78.3821 39.4369C78.8558 39.6337 79.2573 39.9733 79.5315 40.4091C79.8058 40.8448 79.9393 41.3553 79.9138 41.8705C79.9098 42.1532 79.8883 42.4353 79.8495 42.7153C79.8067 43.0168 79.7451 43.3154 79.6652 43.6092L78.371 43.5891V43.1198C78.6079 43.0608 78.8331 42.9618 79.037 42.827C79.187 42.7244 79.306 42.5821 79.3811 42.4158C79.4568 42.2192 79.4945 42.0099 79.4921 41.799C79.5008 41.4673 79.3887 41.1437 79.1768 40.8895C78.9185 40.5999 78.5871 40.386 78.2179 40.2705C77.7159 40.1077 77.1913 40.0269 76.664 40.0313C76.1333 40.0121 75.6024 40.0647 75.0856 40.1878C74.7127 40.2663 74.3691 40.4482 74.0934 40.7129C73.8692 40.9494 73.745 41.2643 73.7471 41.5912C73.7169 41.8871 73.7959 42.1838 73.969 42.4248C74.0658 42.5218 74.1819 42.5971 74.3097 42.6456C74.4376 42.6942 74.5741 42.7149 74.7105 42.7063H74.9924C75.1966 42.7166 75.4012 42.7046 75.6029 42.6706C75.7148 42.6513 75.818 42.5974 75.8981 42.5164C75.984 42.4079 76.044 42.2809 76.0735 42.1454H76.2955L76.2644 44.0561H76.0424C76.0172 43.9623 75.9742 43.8743 75.9159 43.7969C75.8676 43.7397 75.8068 43.6946 75.7383 43.6651C75.6537 43.6306 75.5648 43.6081 75.4741 43.598C75.3676 43.5868 75.2188 43.5779 75.0301 43.5757L73.4096 43.5623Z" fill="white"/>
<path d="M78.9255 49.9157L77.527 49.6766L77.6025 49.2296C77.7451 49.2111 77.8866 49.185 78.0264 49.1514C78.134 49.1269 78.2388 49.0917 78.3394 49.0464C78.4212 49.0121 78.4963 48.9637 78.5614 48.9033C78.6213 48.8445 78.6669 48.7727 78.6946 48.6933C78.731 48.5934 78.757 48.4901 78.7723 48.3849L79.0209 46.9099L76.5858 46.4831L76.417 47.4798C76.3931 47.5895 76.3931 47.7031 76.417 47.8128C76.4484 47.9021 76.5056 47.98 76.5813 48.0362C76.7091 48.1279 76.8478 48.203 76.9942 48.2597L76.9187 48.7067L75.1429 48.405L75.2161 47.958C75.3667 47.9531 75.5159 47.9283 75.6601 47.8843C75.7503 47.8553 75.831 47.802 75.8932 47.7301C75.9562 47.6343 75.9958 47.5247 76.0086 47.4105L76.1751 46.4116L73.5113 45.9646L73.2671 47.415C73.2434 47.5394 73.2359 47.6663 73.2449 47.7927C73.2522 47.8887 73.2843 47.9812 73.3381 48.0608C73.3983 48.148 73.4735 48.2237 73.5601 48.2843C73.6527 48.3557 73.7515 48.4185 73.8553 48.472C73.9574 48.5257 74.1106 48.6016 74.3104 48.6955L74.2327 49.1581L72.6211 48.7916L73.3314 44.4718L73.5534 44.512C73.5542 44.6555 73.5877 44.797 73.6511 44.9255C73.7087 45.0082 73.7924 45.0688 73.8886 45.0975C74.0531 45.151 74.2216 45.1906 74.3925 45.216L78.4016 45.8976C78.5564 45.9264 78.7128 45.9451 78.87 45.9534C78.9516 45.9561 79.0329 45.9433 79.1097 45.9155C79.1698 45.8885 79.2224 45.847 79.2629 45.7948C79.3273 45.7057 79.3816 45.6098 79.425 45.5087L79.647 45.549L78.9255 49.9157Z" fill="white"/>
<path d="M73.6346 53.9024C73.4126 53.9471 73.235 53.9806 73.0752 54.0074C72.9153 54.0342 72.7422 54.0566 72.5491 54.0745L72.5291 54.1326C72.7155 54.1817 73.0774 54.2935 73.619 54.4722C74.1607 54.651 74.6468 54.8142 75.0775 54.9661L76.0098 55.2946C76.155 55.3494 76.3033 55.3956 76.4538 55.4332C76.5326 55.4546 76.6151 55.4592 76.6958 55.4466C76.7577 55.4321 76.8149 55.4021 76.8622 55.3594C76.9382 55.2829 77.0066 55.1991 77.0665 55.1091L77.2885 55.1851L76.729 56.7919L76.5071 56.7159C76.5186 56.6105 76.5186 56.5041 76.5071 56.3986C76.4988 56.336 76.476 56.2763 76.4405 56.2243C76.3899 56.1601 76.3264 56.1075 76.254 56.0701C76.1069 55.9945 75.954 55.9309 75.7967 55.8801L70.8242 54.1281L71.0196 53.5694L76.0276 52.5414C76.3384 52.4766 76.5648 52.4341 76.7046 52.4096C76.8445 52.385 76.9843 52.3649 77.1197 52.3492L77.1464 52.2732C76.9111 52.2151 76.4937 52.0848 75.8944 51.8822C75.295 51.6833 74.7001 51.4777 74.1185 51.2698L73.2128 50.9525C73.0675 50.8991 72.9193 50.8544 72.7688 50.8184C72.6895 50.8043 72.6084 50.8043 72.5291 50.8184C72.4616 50.8328 72.399 50.8644 72.347 50.91C72.2664 50.9868 72.1962 51.0739 72.1384 51.1693L71.9164 51.0933L72.4825 49.4619L72.7044 49.5401C72.6821 49.682 72.692 49.8272 72.7333 49.9647C72.7753 50.0556 72.8465 50.1296 72.9353 50.1748C73.0889 50.2559 73.2494 50.3232 73.4148 50.3759L77.2507 51.7168C77.3959 51.771 77.5441 51.8165 77.6947 51.8531C77.7752 51.8699 77.8583 51.8699 77.9389 51.8531C78.003 51.8372 78.0618 51.8049 78.1098 51.7592C78.1872 51.6826 78.2564 51.5979 78.3162 51.5067L78.5382 51.5827L78.0521 52.9817L73.6346 53.9024Z" fill="white"/>
<path d="M73.8766 62.1776L72.6357 61.4871L72.8577 61.0804C72.9985 61.1108 73.1408 61.1339 73.2839 61.1497C73.3932 61.1595 73.5032 61.1595 73.6125 61.1497C73.699 61.1432 73.7838 61.122 73.8633 61.0871C73.9385 61.0512 74.0046 60.9984 74.0564 60.9329C74.1235 60.8511 74.1823 60.7628 74.2318 60.6692L74.9533 59.3596L72.7978 58.1595L72.3116 59.0534C72.2531 59.1491 72.2167 59.2568 72.2051 59.3685C72.2025 59.4642 72.2305 59.5582 72.285 59.6367C72.3749 59.7653 72.4809 59.8817 72.6002 59.9831L72.3782 60.372L70.8132 59.487L71.0352 59.0981C71.1788 59.1453 71.3282 59.1716 71.4792 59.1764C71.5739 59.1801 71.6678 59.1569 71.75 59.1093C71.8443 59.0419 71.9205 58.9521 71.972 58.8478L72.4581 57.9539L70.0873 56.631L69.3792 57.916C69.3149 58.025 69.2657 58.1422 69.2327 58.2646C69.2082 58.3576 69.2082 58.4554 69.2327 58.5484C69.259 58.6502 69.3034 58.7463 69.3636 58.8322C69.4299 58.9306 69.5042 59.0233 69.5856 59.1093C69.6656 59.1942 69.7832 59.3172 69.9408 59.4758L69.7188 59.8848L68.3203 59.002L70.4292 55.1694L70.629 55.2834C70.5839 55.4201 70.5695 55.5651 70.5868 55.708C70.6152 55.8043 70.6736 55.8889 70.7533 55.9494C70.8933 56.054 71.0418 56.1467 71.1973 56.2265L74.749 58.2109C74.8855 58.2905 75.0272 58.3607 75.173 58.421C75.2485 58.4517 75.3292 58.4669 75.4105 58.4657C75.4766 58.4591 75.5403 58.4378 75.597 58.4031C75.6854 58.3367 75.7671 58.2619 75.8412 58.1797L76.0432 58.2914L73.8766 62.1776Z" fill="white"/>
<path d="M69.2254 62.4749L67.9689 61.4804C67.842 61.3762 67.7077 61.2813 67.5671 61.1966C67.4992 61.1547 67.4238 61.1267 67.3451 61.1139C67.2812 61.1098 67.2172 61.1213 67.1587 61.1475C67.0613 61.1951 66.969 61.2528 66.8834 61.3195L66.7014 61.1765L67.9267 59.6122L68.1065 59.7552C68.0407 59.8826 68.0036 60.023 67.9978 60.1664C68.0082 60.2666 68.0521 60.3603 68.1221 60.4323C68.2427 60.5569 68.3726 60.6719 68.5106 60.7765L71.7027 63.3018C71.8253 63.4019 71.9543 63.4937 72.089 63.5766C72.1565 63.6189 72.2322 63.6463 72.311 63.6571C72.3769 63.6635 72.4434 63.6527 72.5041 63.6258C72.6014 63.578 72.6936 63.5204 72.7794 63.4537L72.9592 63.5968L71.5229 65.4382C71.0701 66.0192 70.6261 66.3708 70.191 66.493C69.9613 66.5495 69.7212 66.5479 69.4923 66.4882C69.2634 66.4285 69.0527 66.3127 68.8791 66.1511C68.5607 65.9152 68.3332 65.5757 68.2353 65.1901C68.1495 64.7619 68.1857 64.318 68.3396 63.9096L68.3108 63.885C68.1365 63.9859 67.9427 64.0476 67.7425 64.0661C67.4693 64.0772 67.1958 64.0554 66.9278 64.0013L66.0598 63.8582C65.8619 63.8201 65.6617 63.7954 65.4605 63.7845C65.3318 63.7784 65.2029 63.7928 65.0787 63.8269C64.9568 63.8717 64.8456 63.9417 64.7523 64.0325L64.5703 63.8895L65.3761 62.8593C65.5874 62.8683 65.7979 62.8899 66.0066 62.9241C66.2211 62.9584 66.4387 62.9963 66.6592 63.0381L67.5316 63.199C67.7311 63.238 67.9327 63.2657 68.1354 63.2817C68.2442 63.2911 68.3537 63.282 68.4595 63.2548C68.5351 63.2308 68.6052 63.1921 68.666 63.1409C68.7495 63.0641 68.824 62.9778 68.8879 62.8839L69.2254 62.4749ZM71.7382 64.4616L69.5428 62.7252L69.2165 63.1476C69.0745 63.3201 68.9524 63.5083 68.8524 63.7085C68.7793 63.8684 68.7399 64.042 68.737 64.218C68.7378 64.4141 68.7891 64.6065 68.8857 64.7767C69.0083 64.9925 69.1738 65.1804 69.3719 65.3287C69.5681 65.4949 69.801 65.6113 70.0511 65.6684C70.2678 65.7107 70.4922 65.6809 70.6905 65.5835C70.9433 65.4461 71.1619 65.2528 71.3298 65.0181C71.5052 64.7946 71.6406 64.6091 71.7382 64.4616Z" fill="white"/>
<path d="M62.1546 66.0595L62.31 66.2315C62.2342 66.3282 62.1708 66.434 62.1213 66.5466C62.0928 66.6175 62.0851 66.695 62.0991 66.7701C62.1248 66.861 62.1738 66.9434 62.2412 67.0092C62.32 67.0924 62.407 67.1673 62.5009 67.2327C62.603 67.3057 62.7229 67.3839 62.8605 67.4673L63.3977 67.8003L65.016 66.3164L64.8251 65.8695C64.7555 65.6982 64.6762 65.531 64.5876 65.3689C64.5335 65.2737 64.4695 65.1845 64.3966 65.103C64.3511 65.0425 64.2933 64.9925 64.2271 64.9563C64.1609 64.9201 64.0878 64.8985 64.0126 64.8929C63.8512 64.9025 63.6965 64.961 63.5686 65.0605L63.4133 64.8884L64.8961 63.5275L65.0515 63.6995C64.9948 63.7759 64.9538 63.8628 64.9309 63.9553C64.908 64.0478 64.9037 64.1439 64.9183 64.2381C64.9559 64.5188 65.0306 64.7931 65.1403 65.0538L67.1981 70.2541L66.6498 70.7569L61.9326 67.9568C61.7638 67.8522 61.5889 67.7582 61.4087 67.6752C61.2964 67.6235 61.1748 67.5954 61.0513 67.5925C60.9268 67.5993 60.8058 67.6361 60.6984 67.6998L60.543 67.5299L62.1546 66.0595ZM65.198 66.7299L63.7462 68.0707L66.4478 69.72L65.198 66.7299Z" fill="white"/>
<path d="M59.411 68.7433L58.381 69.4271C58.2856 69.4884 58.1957 69.5579 58.1124 69.635C58.0509 69.6896 57.9985 69.7538 57.957 69.8249C57.9224 69.8913 57.8991 69.9631 57.8881 70.0372C57.876 70.1277 57.876 70.2194 57.8881 70.3099C57.9054 70.4365 57.9337 70.5614 57.9725 70.6831C58.0169 70.8261 58.0902 71.0339 58.1945 71.3088L57.7994 71.5725L56.8359 69.9344L60.3589 67.5857L60.4854 67.7801C60.3817 67.879 60.3019 68.0006 60.2523 68.1354C60.2314 68.2336 60.2439 68.3359 60.2878 68.426C60.363 68.5814 60.4498 68.7308 60.5475 68.8729L62.7918 72.2854C62.876 72.4199 62.9695 72.5484 63.0715 72.6698C63.1255 72.7319 63.1912 72.7828 63.2647 72.8195C63.3248 72.8455 63.3903 72.8563 63.4556 72.8508C63.5637 72.8354 63.67 72.8092 63.773 72.7726L63.8995 72.967L62.2502 74.0665L62.1214 73.8721C62.1928 73.7957 62.2567 73.7126 62.3123 73.624C62.343 73.5691 62.3612 73.5081 62.3656 73.4452C62.3639 73.3615 62.3442 73.2792 62.3079 73.2039C62.2367 73.0543 62.1536 72.9108 62.0593 72.7748L59.411 68.7433Z" fill="white"/>
</svg>
