<svg width="82" height="83" viewBox="0 0 82 83" fill="none" xmlns="http://www.w3.org/2000/svg">
<g clip-path="url(#clip0_6875_13862)">
<path d="M40.7256 0.5C18.2339 0.5 0 18.8563 0 41.4989C0 64.1415 18.2339 82.5 40.7256 82.5C51.5272 82.5 61.8865 78.1803 69.5244 70.4911C77.1624 62.8018 81.4533 52.3731 81.4533 41.4989C81.4533 18.8563 63.2194 0.5 40.7256 0.5ZM40.7256 73.3732C34.4634 73.3732 28.3419 71.5039 23.1352 68.0015C17.9284 64.4991 13.8702 59.521 11.4738 53.6967C9.07739 47.8724 8.45038 41.4635 9.67206 35.2805C10.8937 29.0975 13.9092 23.418 18.3372 18.9603C22.7652 14.5026 28.4068 11.4669 34.5486 10.237C40.6904 9.0071 47.0566 9.63832 52.842 12.0508C58.6275 14.4633 63.5724 18.5487 67.0514 23.7904C70.5305 29.0321 72.3874 35.1947 72.3874 41.4989C72.3877 45.6848 71.569 49.8297 69.9779 53.697C68.3868 57.5643 66.0547 61.0782 63.1145 64.0381C60.1744 66.998 56.6839 69.3458 52.8424 70.9476C49.0008 72.5493 44.8835 73.3735 40.7256 73.3732Z" fill="#5B585A"/>
<path d="M43.4468 18.2206C41.0516 19.1145 40.4678 19.1324 38.774 18.6318C36.4387 17.9279 35.0358 18.0441 33.0024 19.0788C30.161 20.4844 27.9722 23.4231 27.9722 25.8344C27.9722 26.7753 27.768 27.2759 27.0976 28.0401C26.0454 29.2737 25.8411 30.3621 25.9876 33.8505C26.0742 36.2909 26.1919 36.7892 26.9799 38.025C27.4772 38.8765 28.2652 39.6698 28.849 39.9648C29.6371 40.376 29.959 40.8163 30.5139 42.3158C30.9801 43.6097 31.5351 44.4924 32.352 45.1964L33.5196 46.2557L32.3231 47.1674C30.7692 48.372 29.4906 48.5485 26.8623 48.0189C23.2417 47.2255 21.3437 45.8445 20.0295 42.9929C19.4457 41.699 19.388 41.0531 19.388 37.853C19.388 33.1779 19.7964 31.6493 21.1106 31.0034C23.1262 30.0335 25.3439 27.5351 25.3439 26.2121C25.3439 25.83 25.1685 25.7652 24.527 25.8881C23.6213 26.0646 22.7178 25.7115 23.2705 25.3897C23.8233 25.0679 23.6812 22.8622 23.1551 22.8622C21.6656 22.8622 18.3957 25.7115 17.197 28.0938C15.299 31.8303 14.3933 36.4786 14.653 40.9481C14.875 45.1517 15.8495 47.7976 17.7786 49.6793C18.9174 50.7654 21.9231 52.8527 22.3626 52.8527C23.2372 52.8527 22.5668 53.3823 21.135 53.8226C20.2604 54.1175 19.4701 54.5578 19.3836 54.8237C19.004 55.7623 20.085 59.4676 20.9885 60.4665C21.6545 61.1727 22.0119 61.0833 24.2006 59.4676C27.3839 57.1456 28.2896 56.4104 28.8624 55.6685C29.8835 54.3745 31.2265 53.7287 33.0379 53.7287C34.4386 53.7287 34.6739 53.8159 34.6739 54.2874C34.6739 55.0517 32.5695 57.3445 31.0822 58.225C30.4163 58.6385 29.0089 59.1368 28.0144 59.3424C25.9122 59.7894 25.8256 59.9905 27.0509 62.1068C28.1897 64.1047 30.2054 66.0735 31.1111 66.0735C31.777 66.0735 31.7526 66.0154 30.7026 65.2221C28.6293 63.6577 27.9855 62.9583 27.4305 61.6353L26.8778 60.3413L29.3596 59.519C31.9679 58.6697 33.7438 57.4853 34.5985 56.0528C34.8915 55.5835 35.2112 55.2014 35.3288 55.2014C35.7373 55.2014 35.5908 58.6094 35.1246 59.7268C34.5985 60.9626 34.9781 61.1392 35.7084 59.9927C36.1746 59.2865 36.2056 58.6988 36.0591 54.9936L35.8838 50.7609L36.9648 51.6146C38.5698 52.8191 39.4755 53.1432 41.4889 53.1432C43.3444 53.1865 45.1481 52.5251 46.5413 51.2906L47.4182 50.5263L47.3005 54.7299C47.1829 58.4038 47.2428 58.9335 47.6801 59.3156C48.1174 59.6977 48.1774 59.6396 48.0886 58.5513C48.0597 57.9345 48.0308 56.8752 48.0597 56.2294L48.1174 55.083L49.5204 56.5825C50.2796 57.3758 51.4472 58.2876 52.1465 58.6094C52.8457 58.9312 53.3741 59.1972 53.3741 59.2798C53.3741 59.6039 48.8766 61.0431 46.8921 61.3962C42.9496 62.042 40.0882 63.3941 38.9494 65.0993C38.1325 66.306 38.2191 66.8871 39.1536 66.2747C42.7054 63.9238 43.4158 63.7762 51.6226 63.2778L54.979 63.0722L54.2487 63.8946C53.8402 64.3639 53.1987 65.041 52.7902 65.4232L52.0599 66.0937L53.2853 65.4455C54.0794 64.9929 54.7905 64.4063 55.3875 63.7114C56.0534 62.8599 56.5573 62.5649 57.9292 62.2722C61.703 61.4185 64.2647 59.6553 65.5211 57.0987C67.4191 53.1298 65.8408 49.6905 61.1125 47.5451C57.9581 46.1037 54.191 45.516 51.2718 46.0165C49.345 46.3093 48.9943 45.9272 50.5415 45.1919C51.2075 44.8701 51.7092 44.2824 52.3174 42.9281L53.1942 41.0777L56.3864 39.4732C61.3456 36.9255 63.7985 34.8584 65.7542 31.5621C67.3592 28.8581 67.186 26.4468 65.288 24.9182C64.7729 24.5503 64.165 24.3364 63.5344 24.3014C63.0105 24.3014 61.4321 24.3304 60.0314 24.3595C57.5785 24.3908 57.432 24.4198 56.7327 25.2422C56.2799 25.8334 55.8788 26.463 55.534 27.1239C55.272 27.6826 54.9502 28.1519 54.8036 28.1519C54.424 28.1519 53.6649 26.9183 53.6649 26.2702C53.6649 25.9775 53.3452 25.4188 52.9367 25.0366C52.7124 24.8375 52.5317 24.5937 52.406 24.3205C52.2802 24.0474 52.2123 23.7509 52.2064 23.4499C52.2064 20.804 48.6546 17.5122 45.811 17.5993C45.4025 17.6038 44.3215 17.8675 43.4468 18.2206ZM47.8555 19.1614C48.5284 19.452 49.1303 19.8865 49.6195 20.4349C50.1086 20.9833 50.4733 21.6324 50.688 22.337C51.0077 23.4835 50.91 23.8053 50.3661 23.5706C50.1619 23.5125 48.3216 23.2175 46.2194 22.9248L42.4235 22.3996V21.5437C42.4235 20.8375 42.6277 20.5738 43.3869 20.1604C44.7899 19.49 44.9053 19.2508 43.8309 19.3961C43.3048 19.4564 42.8675 19.4274 42.8675 19.3089C42.863 18.6921 46.5125 18.6005 47.8555 19.1614ZM39.7952 19.7492C40.8474 20.1961 41.4023 20.985 41.4023 22.013C41.4023 22.6834 41.4023 22.6588 40.5854 21.8946C39.7685 21.1303 38.1014 20.4263 37.7818 20.7481C37.693 20.8375 37.8683 21.0722 38.1902 21.3068C39.0959 21.9549 38.8917 22.5136 37.693 22.7482C34.3632 23.3069 32.2032 23.8366 30.9779 24.364C29.051 25.1886 28.7003 24.8646 30.5339 23.917C32.3098 23.0052 32.4607 22.7125 31.0001 22.9762C30.0367 23.1818 29.9789 23.1527 30.2697 22.6231C30.6205 21.9527 32.372 20.5068 33.6573 19.8319C34.7738 19.2218 38.4233 19.1905 39.7952 19.7492ZM23.0064 24.0131C23.0064 24.3059 22.6268 25.012 22.1295 25.5417C21.6323 26.0713 21.2549 26.6278 21.2549 26.7462C21.2549 27.2446 22.8599 27.363 23.6479 26.8937C24.0919 26.6278 24.467 26.5406 24.467 26.6881C24.467 27.334 22.4225 29.5084 21.1372 30.2146C19.9696 30.8314 19.6189 31.1844 19.3858 32.1253C18.9418 33.6539 18.3336 33.8304 18.3336 32.418C18.3336 31.2716 17.692 31.066 17.4878 32.1543C17.3701 32.7711 16.2913 34.4181 16.1159 34.2416C15.9405 34.0651 17.3701 29.1866 17.985 27.9508C18.7132 26.5116 20.6489 24.5696 21.9564 23.9282C23.0885 23.365 23.0064 23.365 23.0064 24.0131ZM48.7012 24.4601C50.7746 25.0187 52.7303 25.8702 52.3218 26.0244C52.1176 26.0825 51.0965 25.9372 50.0154 25.6713C47.709 25.1417 44.5856 25.0836 43.2715 25.5841C42.5411 25.8478 42.1327 25.8478 41.5777 25.5841C40.8762 25.2892 40.8762 25.2892 41.1093 26.1719C41.2646 26.7543 41.3046 27.3618 41.227 27.9597L41.0516 28.9005L41.9395 27.9597C43.5911 26.1987 44.1772 25.9529 47.063 25.9752C49.8645 26.0043 51.4716 26.5339 52.99 27.944L53.6316 28.5318L53.0566 29.3631C52.7347 29.8324 52.2108 30.3621 51.889 30.5096C51.3917 30.8023 51.3629 30.7442 51.5094 29.4212L51.6847 28.0089L51.1875 28.7441C50.5215 29.6849 49.8733 30.2146 49.3783 30.2146C49.0853 30.2146 49.0276 29.8324 49.1741 28.5988C49.3184 27.5396 49.2607 26.9809 49.0564 26.9809C48.8522 26.9809 48.648 27.2446 48.5592 27.5686C48.2972 28.3619 47.8311 28.3038 47.8311 27.4815C47.8022 26.8624 47.8022 26.8624 47.1651 27.6267C46.2905 28.686 46.0552 28.6569 46.2905 27.5105L46.4636 26.5697L45.2871 27.5396C44.5105 28.1363 43.6432 28.6027 42.7187 28.9206C41.2292 29.3676 37.6952 29.4503 35.7106 29.1262C34.6584 28.9497 34.6007 28.9206 35.2667 28.715C35.8033 28.5881 36.35 28.5096 36.9005 28.4804C37.5664 28.4513 37.8639 28.2748 37.9815 27.8345C38.128 27.2759 38.0393 27.2446 37.3689 27.3876C36.9249 27.477 35.6152 27.6535 34.4475 27.7697C33.2799 27.8859 32.2587 28.0357 32.1988 28.1519C32.1389 28.2681 32.463 28.7396 32.9291 29.1821L33.8171 30.0045L32.0656 31.18C30.9523 31.9406 29.9484 32.852 29.0821 33.8885C28.4162 34.7824 27.7968 35.4171 27.7391 35.359C27.6814 35.3009 27.7102 34.6528 27.7968 33.9176C27.9722 32.8605 28.2941 32.3309 29.3751 31.2358L30.747 29.895L29.5794 30.3665C28.9356 30.6302 28.1764 31.1018 27.9145 31.4526L27.3884 32.0404V31.4526C27.3884 30.7487 28.7203 29.0436 29.3152 29.0436C29.5194 29.0436 30.2209 28.5139 30.8691 27.8681C31.5173 27.2222 32.2721 26.6926 32.5629 26.6613C33.0312 26.6613 33.0313 26.6322 32.5051 26.3976C31.5417 25.9864 31.3375 26.0445 30.2276 27.1328C29.1176 28.2212 28.5627 28.4268 28.5627 27.7787C28.5627 26.7797 30.8402 25.4568 33.7305 24.7506C35.3088 24.3997 36.0081 24.6344 35.0757 25.2221C34.6651 25.4858 34.7827 25.5149 35.7417 25.3987C37.1136 25.1931 37.4643 25.3987 36.9382 26.0445C36.6474 26.4266 36.734 26.4557 37.6397 26.268C38.7208 26.0914 39.3912 26.5339 40.1792 28.0022C40.5011 28.5608 40.5011 28.5608 40.5299 27.8569C40.5299 26.9161 39.5665 25.3271 38.865 25.0925C38.7019 25.0353 38.5607 24.928 38.4616 24.7856C38.3624 24.6432 38.3101 24.473 38.3123 24.2992C38.3123 23.6533 38.37 23.6533 42.7209 23.8299C45.1095 23.9237 47.8266 24.2187 48.7012 24.4534V24.4601ZM65.1127 25.4299C66.3958 26.9295 65.9584 28.8402 63.6231 31.7789C61.9583 33.8952 60.0603 35.6584 58.6884 36.3646C57.3742 37.035 57.7827 36.5121 59.8272 34.7489C61.9871 32.9253 64.7619 29.752 64.7619 29.1329C64.7619 28.5139 64.6731 28.6346 63.4478 30.2794C62.1619 32.0417 60.6385 33.6152 58.9215 34.9545C56.5263 36.8652 56.7016 36.5412 59.6807 33.6025C62.3667 30.9207 64.7619 27.7921 64.7619 26.9295C64.7619 26.7239 64.2358 27.3764 63.6231 28.3396C62.1048 30.6906 59.7384 33.2784 58.0735 34.3958C57.3432 34.8941 56.3509 35.6584 55.8825 36.0719L55.0367 36.8362L55.2987 35.9534C55.4628 35.1705 55.5513 34.3735 55.5628 33.5734C55.5939 32.751 55.7093 31.9286 55.827 31.723C55.9446 31.5174 55.8847 30.9297 55.7093 30.3419C55.1255 28.5541 56.5263 25.5193 57.9581 25.5193C58.624 25.5193 58.624 25.5506 57.4608 27.8725C56.8193 29.1642 56.2932 30.2816 56.2932 30.371C56.2932 30.8179 56.9058 30.4 57.2854 29.7006C57.665 29.0011 57.7294 28.9966 57.7538 29.495C57.7827 29.819 58.0158 29.4659 58.3377 28.6726C59.2434 26.3507 61.1125 24.9674 63.4766 24.9383C64.2647 24.9227 64.8219 25.0992 65.1127 25.4232V25.4299ZM47.3294 30.5096C47.8266 30.9207 48.1774 31.5956 48.4104 32.6259C48.6415 33.639 49.0256 34.6105 49.5492 35.5065C50.2485 36.6239 50.3661 37.1513 50.395 39.0039C50.4239 40.1794 50.2485 41.6208 50.0443 42.2376C49.84 42.8544 49.345 44.2064 48.9943 45.3528C48.0597 48.1172 46.366 50.8213 44.8187 51.8493C41.227 54.2896 35.3577 51.0559 34.2766 46.059C34.2153 45.8335 34.1086 45.6231 33.9631 45.4409C33.8176 45.2586 33.6364 45.1085 33.4308 44.9997C33.2174 44.8946 33.0303 44.7424 32.8835 44.5543C32.7366 44.3663 32.6339 44.1473 32.5828 43.9136C32.4963 43.5002 32.554 43.2432 32.6716 43.3237C32.7564 43.396 32.824 43.4865 32.8693 43.5886C32.9147 43.6907 32.9366 43.8018 32.9336 43.9136C32.9229 44.011 32.9507 44.1087 33.0109 44.1856C33.0711 44.2625 33.1589 44.3125 33.2555 44.3248C33.4597 44.3248 33.4774 44.1192 33.3731 43.7952C32.1744 41.0017 31.8836 38.0049 32.7072 37.0641C32.9964 36.682 33.2214 36.2547 33.3731 35.7992C33.7216 34.6818 34.6873 33.4483 35.4465 33.1533C36.0303 32.9186 36.1457 32.6549 36.1457 31.685V30.5096L38.8606 30.4783C40.1496 30.486 41.4378 30.4076 42.7165 30.2436C44.9053 29.7743 46.5125 29.8905 47.3294 30.5096ZM54.8347 30.4783C55.3009 31.361 54.7171 32.5074 53.4895 33.0952L52.4106 33.5958L53.5494 33.741C54.424 33.8595 54.7171 34.036 54.7748 34.5366C54.8347 34.9478 54.6882 35.207 54.3086 35.3299C53.929 35.4528 53.7825 35.7121 53.8646 36.1233C53.9823 36.4764 53.7781 36.9747 53.3696 37.4172C52.9203 37.9434 52.5732 38.5498 52.3463 39.205C51.8801 40.6151 51.4428 40.7917 51.1786 39.6519C50.9144 38.5122 51.2674 36.9479 51.8801 36.4786C52.3241 36.1546 52.2885 36.1255 51.8512 36.0964C51.0343 36.0964 51.2385 35.3612 52.142 35.0372C52.9012 34.7444 52.8724 34.7131 51.5582 34.5075C50.799 34.3913 50.0998 34.1857 50.0043 34.0382C49.9089 33.8907 50.4483 33.5376 51.1431 33.1846C52.919 32.3622 53.3918 31.656 51.7869 32.275C51.3429 32.4203 51.0277 32.4516 51.0277 32.275C51.0277 32.0985 51.2607 31.951 51.5804 31.8281C51.9001 31.7051 52.4573 31.2694 52.8946 30.8001C53.7825 29.7743 54.3885 29.6849 54.8325 30.4783H54.8347ZM34.8316 32.2661C34.8316 32.4895 34.452 32.7644 33.9281 32.8829C32.9935 33.0594 31.504 34.0002 31.4751 34.3824C31.4751 34.5299 31.8547 34.6059 32.3209 34.6059C33.0224 34.6059 33.1378 34.7243 33.0224 35.1646C32.8286 35.631 32.5397 36.0512 32.1744 36.3981C31.5906 36.9568 31.4751 37.339 31.4751 38.8385C31.4751 40.8498 31.211 40.7783 30.3941 38.5748C29.8968 37.2518 29.7525 37.1043 29.0621 37.1937C28.0099 37.3099 28.0388 36.7803 29.2375 35.0171C30.434 33.1957 32.7116 31.6068 33.9392 31.7253C34.4808 31.8012 34.8316 32.0091 34.8316 32.2728V32.2661ZM18.7442 34.0002C19.0062 34.4114 18.5977 35.2048 18.1293 35.2048C17.8385 35.2048 17.7497 35.0282 17.8674 34.7355C17.9537 34.498 18.0126 34.2513 18.0428 34.0002C18.0428 33.6539 18.54 33.6539 18.7442 34.0069V34.0002ZM18.6266 36.2037C18.6266 36.6507 18.4224 36.968 18.0428 37.0574C17.5744 37.1736 17.4589 37.0574 17.4589 36.5278C17.4441 36.3526 17.4876 36.1774 17.5824 36.0298C17.6772 35.8821 17.8181 35.7704 17.9828 35.7121C18.2448 35.6227 18.5067 35.5646 18.5666 35.5355C18.6235 35.7556 18.6437 35.9837 18.6266 36.2104V36.2037ZM15.9405 38.2329C15.3279 38.7625 15.2746 38.7625 15.1814 38.291C15.1236 38.0273 15.3856 37.4686 15.7652 37.0574L16.4311 36.3222L16.5177 36.9926C16.6109 37.4462 16.4067 37.8865 15.9405 38.2396V38.2329ZM18.6266 38.4094C18.6266 38.9078 18.1005 39.3212 17.4301 39.3212C17.1371 39.3212 17.0793 38.3513 17.3701 38.0563C17.7808 37.6228 18.6266 37.8574 18.6266 38.4161V38.4094ZM18.9196 40.5012C18.9196 40.823 18.5977 41.147 18.0317 41.3526C17.2147 41.6185 17.1437 41.5873 17.1437 40.9056C17.1349 40.6931 17.1952 40.4834 17.3154 40.3084C17.4355 40.1334 17.609 40.0026 17.8097 39.9358C18.6266 39.6207 18.9196 39.7682 18.9196 40.5012ZM16.2913 41.5582C16.0871 41.7638 15.8229 41.9694 15.6786 41.9694C15.2346 41.9694 15.3856 41.0286 15.9405 40.4051C16.4378 39.8464 16.4378 39.8464 16.5244 40.4654C16.5746 40.8466 16.4923 41.2335 16.2913 41.5604V41.5582ZM19.2104 42.8521C19.2104 43.0868 18.9196 43.4689 18.5977 43.7036C18.0716 44.0276 17.9318 44.0276 17.7098 43.6745C17.2658 43.0041 17.419 42.3515 18.1182 42.0588C18.8175 41.766 19.2104 42.032 19.2104 42.8544V42.8521ZM50.8634 43.8533C50.688 44.5885 50.1619 44.9416 50.1619 44.3002C50.1619 43.8533 50.7746 42.7717 50.9211 42.946C51.0077 43.0309 50.9788 43.4063 50.8634 43.8533ZM17.1659 43.8242C17.1659 44.3829 16.3779 45.3886 16.1159 45.1472C15.8518 44.8522 16.4667 43.4421 16.8751 43.4421C16.9617 43.4588 17.0391 43.507 17.0927 43.5775C17.1464 43.6479 17.1724 43.7357 17.1659 43.8242ZM20.1161 44.6466C20.378 45.1763 20.3203 45.3819 19.8519 45.8534C19.2681 46.4411 19.2681 46.4411 18.742 45.6478C18.2159 44.8545 18.2448 44.8232 18.7709 44.441C19.5034 43.8823 19.7077 43.9136 20.1161 44.6466ZM21.67 46.3518C22.0785 46.7987 22.114 47.0579 21.8454 47.5272C21.4658 48.2915 21.2038 48.2915 20.5601 47.5876C20.1161 47.116 20.1161 46.9395 20.4446 46.4121C20.9042 45.6411 21.0218 45.6411 21.6633 46.3518H21.67ZM18.0494 47.411C17.8452 47.6457 17.581 47.858 17.4367 47.858C16.9928 47.858 17.1437 47.2121 17.6987 46.5953C18.1426 46.0948 18.1959 46.0948 18.2825 46.506C18.3168 46.8271 18.2314 47.1497 18.0428 47.411H18.0494ZM59.1612 47.2926C60.0669 47.6747 59.9493 47.7038 57.119 47.6166C54.7814 47.5272 53.5272 47.6457 51.5116 48.1463C50.1109 48.4681 48.8478 48.705 48.7678 48.6156C48.3882 48.2044 49.3206 46.9998 50.0798 46.8814C51.798 46.5886 58.1911 46.8814 59.1546 47.2926H59.1612ZM23.8654 47.5876C24.8289 47.9407 24.9754 48.3519 24.4182 49.1162C24.0697 49.5274 23.9232 49.5273 23.0863 49.1743C22.2494 48.8212 22.1828 48.705 22.5025 47.9988C22.5979 47.7387 22.7254 47.4917 22.8821 47.2635C22.8887 47.2635 23.3282 47.411 23.8543 47.5876H23.8654ZM33.8548 48.3519C34.1478 49.1162 34.059 49.2636 32.4829 50.7028C30.9068 52.142 30.03 52.5845 30.9068 51.5543C31.0773 51.3274 31.1566 51.0441 31.1288 50.7609C31.0689 50.5844 30.1055 51.2906 28.9978 52.3499C27.011 54.2293 26.9533 54.2896 27.5371 54.7589C27.9811 55.112 28.0033 55.2886 27.7413 55.407C27.3218 55.6347 26.9299 55.9106 26.5737 56.2294C25.668 56.9937 24.063 57.8451 23.5658 57.8451C23.3615 57.8451 23.3904 57.5814 23.7123 57.1121C24.1784 56.3769 24.063 56.1713 23.4193 56.6115C23.1264 56.8753 22.8887 57.1951 22.72 57.5524L22.3404 58.2876L21.8964 57.2574C21.6896 56.7093 21.4047 56.1944 21.0507 55.7288C20.6067 55.2305 20.7865 55.112 23.4748 53.8471C26.163 52.5823 27.9988 51.4671 31.7659 48.7631C32.3091 48.3409 32.8746 47.9485 33.4597 47.5876C33.4885 47.5585 33.6639 47.9094 33.8393 48.3519H33.8548ZM20.014 48.6156C20.1028 48.9687 19.2837 50.057 19.0794 49.8514C18.7886 49.5564 19.2837 48.1172 19.6055 48.2334C19.6941 48.2655 19.775 48.3162 19.8427 48.3821C19.9104 48.4479 19.9635 48.5275 19.9985 48.6156H20.014ZM55.3741 49.1162C56.1622 50.3207 56.1933 50.4972 55.4341 50.2916C54.5572 50.057 53.565 48.705 54.0311 48.3809C54.5706 48.0278 54.6283 48.0569 55.3586 49.1162H55.3741ZM58.26 48.3809C58.6684 48.6446 59.2811 51.085 58.9259 51.085C58.5707 51.085 58.109 50.4146 57.6118 49.2324C57.1412 48.1172 57.3742 47.8222 58.2511 48.3809H58.26ZM27.6259 49.3799C27.7147 50.0279 27.597 50.2022 27.1819 50.2022C26.1319 50.2022 25.3417 49.8201 25.3417 49.3508C25.3417 48.5865 25.6635 48.41 26.6558 48.4994C27.3573 48.5575 27.5615 48.734 27.6192 49.3799H27.6259ZM29.7592 49.3218C28.9689 49.9922 28.5605 50.057 28.5605 49.5273C28.5605 48.9396 28.8535 48.734 29.6992 48.734L30.4584 48.7631L29.7592 49.3218ZM52.5327 50.2626C52.768 50.7095 52.7081 50.7922 52.1243 50.7922C51.2186 50.7922 50.1686 49.3799 50.7813 49.0044C51.1831 48.734 52.0599 49.3799 52.5261 50.2626H52.5327ZM61.5565 50.4861C61.5565 52.0146 61.1769 52.4549 60.855 51.2794C60.5331 50.1039 60.6508 49.0156 61.1191 49.0156C61.4321 49.0268 61.5498 49.3799 61.5498 50.4972L61.5565 50.4861ZM21.6345 50.5576C21.5457 51.0291 21.3703 51.3822 21.226 51.3822C20.9301 51.3822 20.9005 50.9114 21.1372 49.9698C21.4014 49.0268 21.8387 49.5564 21.6345 50.5576ZM23.5902 51.1163C23.5902 51.675 23.4437 51.9699 23.1462 51.9699C22.8488 51.9699 22.7022 51.6459 22.7022 50.9397C22.7022 50.1754 22.7888 49.9698 23.1462 50.0883C23.4148 50.2022 23.5902 50.6447 23.5902 51.114V51.1163ZM48.8189 51.4113C48.5969 51.7934 48.1174 51.4403 48.1174 50.8816C48.1174 50.4995 48.2062 50.4995 48.5614 50.7945C48.79 51.0045 48.9055 51.2615 48.8189 51.409V51.4113ZM63.3901 52.5286C62.7752 54.0572 62.5998 54.0259 62.8351 52.4683C63.0393 50.7051 63.3301 50.1754 63.6231 50.9688C63.7119 51.2615 63.6231 51.9968 63.3901 52.5264V52.5286ZM25.6347 51.3822C25.6347 51.704 25.4305 51.9699 25.1907 51.9699C24.951 51.9699 24.7467 51.704 24.7467 51.3822C24.7467 51.0604 24.951 50.7945 25.1907 50.7945C25.4305 50.7945 25.6347 51.0559 25.6347 51.38V51.3822ZM34.3942 52.4683C34.3942 53.5566 33.8681 53.4985 33.7527 52.4102C33.6928 51.8224 33.6928 51.2928 33.7816 51.2347C34.0146 51.0045 34.3942 51.7621 34.3942 52.4661V52.4683ZM58.5707 51.8224C60.8195 52.7633 61.5498 54.379 60.3222 55.9366C59.5941 56.8775 56.9924 58.6184 55.9136 58.8776C54.8924 59.1413 51.0965 57.4965 49.9577 56.2897C49.0808 55.4092 48.1174 53.4985 48.1174 52.7141C48.1174 52.4214 49.5781 51.8336 51.7669 51.2749C52.9656 50.9665 57.3454 51.3196 58.5707 51.8202V51.8224ZM32.5251 53.056C32.2032 53.3801 31.9702 52.8795 32.2032 52.3521C32.4363 51.8247 32.4385 51.8515 32.554 52.3521C32.6339 52.6426 32.6139 52.9666 32.5251 53.0538V53.056ZM65.0439 53.8471C65.0439 54.5533 63.4389 56.3165 63.0882 55.9947C63.0016 55.8763 63.1747 55.407 63.4966 54.9645C63.8261 54.5146 64.0914 54.0204 64.2847 53.4963C64.5577 52.7007 65.0439 52.9376 65.0439 53.8471ZM61.774 55.7891C61.5698 57.8451 60.5176 59.1413 58.5619 59.7268C57.7161 59.9927 56.4308 60.3972 55.7005 60.6386C54.9701 60.8799 53.0144 61.309 51.3207 61.6666C45.8598 62.7549 42.1527 63.783 40.8385 64.5182C40.137 64.9294 39.642 65.1059 39.7574 64.9293C40.3124 64.0198 44.4591 62.5202 49.4227 61.3738C56.9569 59.6687 60.138 58.1111 61.1325 55.6707C61.4521 54.9355 61.7451 54.3298 61.7984 54.3298C61.8517 54.3298 61.8406 54.9645 61.7829 55.7891H61.774ZM21.6345 57.9636C21.8099 58.4932 21.8099 58.8753 21.6056 59.0809C21.1084 59.5793 20.6711 59.0519 20.6711 57.9636C20.6711 56.73 21.226 56.73 21.6345 57.9636ZM64.8774 57.4049C64.7619 57.6999 64.2935 57.8518 63.4189 57.8518C61.2279 57.8518 61.9582 57.1188 64.2358 57.0004C64.8485 56.9646 64.995 57.0808 64.8774 57.4049ZM63.0105 59.2865C63.0105 59.434 62.804 59.6396 62.5421 59.7335C61.9294 59.9681 60.6441 59.6173 60.8483 59.2865C61.0526 58.9558 63.0105 58.9334 63.0105 59.2865ZM60.3822 60.7861C60.3822 60.9336 59.9138 61.0788 59.3299 61.0788C58.7461 61.0788 58.3665 60.9626 58.4842 60.7861C58.6018 60.6095 59.0391 60.4911 59.5342 60.4911C60.0292 60.4911 60.3822 60.614 60.3822 60.7861ZM56.4397 61.9548C56.3531 62.1023 55.9424 62.2476 55.5517 62.2476C55.161 62.2476 54.7637 62.1023 54.6771 61.9548C54.5905 61.8073 54.9102 61.6599 55.5517 61.6599C56.1933 61.6599 56.5573 61.785 56.4397 61.9548ZM52.4972 62.5426C52.4972 62.6901 52.1465 62.8353 51.738 62.8353C51.3296 62.8353 51.0721 62.7191 51.183 62.5426C51.294 62.366 51.627 62.2476 51.9422 62.2476C52.2575 62.2476 52.4972 62.3727 52.4972 62.5493V62.5426Z" fill="#5B585A"/>
<path d="M18.8292 27.4807C18.7116 27.5679 18.625 27.95 18.625 28.2741C18.6539 28.8909 18.6539 28.8909 19.069 28.3322C19.3043 28.0081 19.5129 27.6617 19.5129 27.5098C19.5018 27.2148 19.0912 27.1857 18.8292 27.4807Z" fill="#5B585A"/>
<path d="M35.9974 36.0053C34.8875 36.1528 33.5156 36.6757 33.5156 36.9751C33.5156 37.0936 34.0417 37.0355 34.6855 36.888C35.7954 36.564 37.1673 36.7405 39.2984 37.4176C39.7645 37.5629 39.9399 37.5048 39.9399 37.1807C39.9094 36.9033 39.7856 36.6447 39.5892 36.4477C39.123 36.0947 37.1673 35.8287 35.9974 36.0053Z" fill="#5B585A"/>
<path d="M44.2067 36.0317C43.3587 36.2373 42.5707 37.0909 42.9214 37.415C43.008 37.5312 43.7095 37.3837 44.4398 37.149C46.0159 36.6194 47.9139 36.5322 48.7308 36.9725C49.0815 37.1781 49.2857 37.1781 49.2857 37.0015C49.2857 36.825 49.0638 36.5903 48.7907 36.4451C48.0604 36.0652 45.2278 35.8283 44.2067 36.0317Z" fill="#5B585A"/>
<path d="M33.9284 38.2392C33.6642 39.0035 34.0438 39.3856 34.7164 39.0035C34.8605 38.9187 35.0243 38.8736 35.1912 38.8727C35.3581 38.8719 35.5223 38.9154 35.6673 38.9988C35.8122 39.0821 35.9328 39.2025 36.0168 39.3477C36.1009 39.4929 36.1454 39.6578 36.146 39.8259C36.146 40.3265 37.1694 40.0918 37.9219 39.4437C38.1981 39.1994 38.5472 39.0548 38.9142 39.0325C39.4403 39.0325 39.4403 39.0035 39.0296 38.5632C38.7099 38.2682 37.7754 38.0626 36.3436 37.9442C34.4811 37.7989 34.0726 37.857 33.9284 38.2392ZM37.3136 38.885C37.3136 39.1219 37.1982 39.332 37.0228 39.332C36.8475 39.332 36.7298 39.1264 36.7298 38.885C36.7298 38.6437 36.8763 38.4381 37.0228 38.4381C37.1694 38.4381 37.3136 38.6504 37.3136 38.885Z" fill="#5B585A"/>
<path d="M44.8978 38.1205C44.2851 38.239 43.8478 38.4736 43.7878 38.7909C43.7279 39.1083 43.8478 39.2379 44.2851 39.115C44.6358 39.0256 44.8978 39.0837 44.8978 39.2602C44.8978 39.4368 45.3062 39.7072 45.7746 39.8793C46.5915 40.143 46.7092 40.1139 46.9423 39.4658C47.2353 38.6725 47.7903 38.525 48.343 39.0837C48.8957 39.6424 49.5129 38.9072 48.9868 38.2904C48.6094 37.8188 46.9134 37.7674 44.8978 38.1205ZM46.3584 38.6792C46.3584 39.0614 46.0077 39.3273 45.7169 39.1507C45.4261 38.9742 45.6858 38.4446 46.0965 38.4446C46.1615 38.4431 46.2247 38.4665 46.2733 38.5101C46.3219 38.5536 46.3523 38.614 46.3584 38.6792Z" fill="#5B585A"/>
<path d="M40.1472 39.3837C40.3692 40.6776 40.5268 40.7938 40.5268 39.6765C40.5268 39.1781 40.4114 38.6775 40.236 38.5904C40.0607 38.5032 40.0318 38.7691 40.1472 39.3837Z" fill="#5B585A"/>
<path d="M42.1543 39.9764C42.0651 40.3923 42.016 40.8159 42.0078 41.2413C42.0367 41.5631 42.1543 41.2994 42.3008 40.6826C42.5916 39.4468 42.4762 38.859 42.1543 39.9764Z" fill="#5B585A"/>
<path d="M43.6191 43.8838C43.8522 44.9722 44.0276 45.2068 44.0276 44.4425C44.0064 44.0915 43.9062 43.7499 43.7346 43.4436C43.5081 43.1195 43.4726 43.238 43.6191 43.8838Z" fill="#5B585A"/>
<path d="M39.1875 43.8847C39.0978 44.1399 39.0779 44.4146 39.1298 44.6802C39.2164 44.8858 39.334 44.7093 39.4206 44.2333C39.596 43.3863 39.4517 43.1852 39.1875 43.8847Z" fill="#5B585A"/>
<path d="M40.4305 44.2092C40.0797 44.5913 40.2262 44.7969 40.8101 44.7969C41.1297 44.7969 41.365 44.6494 41.3051 44.5042C41.2784 44.4176 41.2316 44.3385 41.1686 44.2737C41.1057 44.2088 41.0283 44.16 40.9428 44.1312C40.8574 44.1024 40.7664 44.0944 40.6773 44.108C40.5882 44.1215 40.5036 44.1562 40.4305 44.2092Z" fill="#5B585A"/>
<path d="M42.1942 44.2057C41.8434 44.5879 41.9611 44.7935 42.6026 44.8225C42.9245 44.8516 43.1576 44.7354 43.0999 44.5588C42.9533 44.1186 42.4561 43.942 42.1942 44.2057Z" fill="#5B585A"/>
<path d="M39.2375 46.8551C38.6537 47.2663 38.1875 47.6775 38.1875 47.7959C38.1875 47.9143 38.7425 48.3836 39.4129 48.8239C41.1066 49.9122 42.4208 49.8832 43.9392 48.7077L45.1379 47.7668L44.2899 47.0316C43.6484 46.502 43.2088 46.3612 42.4807 46.4729C41.9835 46.531 41.2531 46.502 40.9268 46.3545C40.4651 46.2092 40.0278 46.3254 39.2375 46.8551ZM43.3265 47.302C43.413 47.4495 42.7715 47.5679 41.8658 47.5679C40.9601 47.5679 40.2031 47.4495 40.1143 47.302C40.0255 47.1545 40.6693 47.0383 41.5461 47.0383C42.423 47.0383 43.2088 47.1478 43.3265 47.2953V47.302ZM43.0046 48.1959C43.0934 48.3121 42.8004 48.549 42.3386 48.7256C41.4907 49.0764 39.9434 48.7546 39.9434 48.225C39.939 47.9121 42.7138 47.9121 43.0046 48.178V48.1959Z" fill="#5B585A"/>
<path d="M25.3661 55.1699C25.2673 55.2302 25.1875 55.3174 25.1357 55.4213C25.0838 55.5253 25.0621 55.6418 25.0731 55.7576C25.1597 55.9654 25.5171 55.847 26.0654 55.4939C26.7957 55.0246 26.8534 54.9062 26.3584 54.9062C26.0116 54.9139 25.6715 55.0042 25.3661 55.1699Z" fill="#5B585A"/>
<path d="M39.0956 55.3484C39.0667 56.2311 39.3864 57.2591 39.7082 57.2591C39.8548 57.2591 39.8836 57.1139 39.766 56.906C39.5666 56.5155 39.4174 56.1009 39.322 55.6724C39.211 55.1138 39.1244 54.9953 39.0956 55.3484Z" fill="#5B585A"/>
<path d="M43.908 55.6975C43.7903 56.1444 43.646 56.7568 43.5572 57.0205C43.4684 57.2842 43.5284 57.5501 43.6749 57.5501C43.8214 57.5501 44.0545 57.0205 44.1699 56.3456C44.4052 54.9935 44.201 54.4661 43.908 55.6975Z" fill="#5B585A"/>
<path d="M52.4929 75.4614C52.4929 75.2915 52.1466 73.03 51.8913 71.8008C48.4882 73.4501 44.508 74.1451 40.479 74.1451C36.4144 74.1451 32.5363 73.4747 29.1111 71.8008C28.8602 73.0121 28.3674 75.2893 28.3674 75.4614C28.3674 75.6335 26.6737 77.4213 25.5859 78.6258C29.9768 80.7645 35.2734 81.6293 40.479 81.6293C45.6846 81.6293 50.7703 80.7354 55.1456 78.6258C54.0512 77.4146 52.4929 75.6066 52.4929 75.4614Z" fill="white"/>
<path d="M35.3661 75.2016C35.2891 75.2181 35.2145 75.2444 35.1441 75.2798C35.1006 75.3034 35.0633 75.3371 35.0353 75.3781C35.0013 75.4304 34.9807 75.4902 34.9754 75.5524C34.9595 75.6724 34.9528 75.7935 34.9554 75.9145V78.9828C34.9528 79.0985 34.958 79.2142 34.9709 79.3292C34.978 79.3901 34.996 79.4491 35.0242 79.5035C35.0505 79.5482 35.088 79.5852 35.133 79.6108C35.208 79.6479 35.2869 79.6764 35.3683 79.6957V79.87H33.8987V79.6957C33.9979 79.677 34.0923 79.6382 34.1762 79.5817C34.2312 79.5326 34.2687 79.4666 34.2828 79.394C34.3045 79.2581 34.3134 79.1204 34.3094 78.9828V77.6241C34.3094 77.2665 34.3094 76.9067 34.3272 76.5402C34.3449 76.1737 34.3494 75.9256 34.3627 75.7893H34.3027L32.9087 79.3046H32.5024L31.206 75.729H31.1461C31.1572 75.8743 31.1705 76.1357 31.1794 76.5134C31.1883 76.8911 31.1949 77.2799 31.1949 77.6799V78.9783C31.1928 79.0941 31.1987 79.2098 31.2127 79.3247C31.218 79.3857 31.2354 79.4449 31.2638 79.499C31.2909 79.5438 31.3292 79.5808 31.3747 79.6063C31.4453 79.643 31.5198 79.6715 31.5967 79.6912V79.8655H30.3203V79.6912C30.4261 79.6709 30.5261 79.6274 30.6133 79.5638C30.6657 79.5106 30.6992 79.4415 30.7088 79.3672C30.7268 79.2384 30.7342 79.1083 30.731 78.9783V75.9145C30.7335 75.7951 30.7283 75.6756 30.7154 75.5569C30.7079 75.4959 30.6875 75.4372 30.6555 75.3848C30.6291 75.3427 30.5925 75.308 30.549 75.2843C30.4776 75.2499 30.4033 75.2222 30.327 75.2016V75.0273H31.5834L32.8199 78.4777L34.1829 75.0273H35.3749L35.3661 75.2016Z" fill="#5B585A"/>
<path d="M38.7943 75.0273V76.1H38.448C38.4173 75.996 38.381 75.8938 38.3392 75.7938C38.3073 75.7156 38.2679 75.6408 38.2215 75.5703C38.1868 75.5151 38.1424 75.4667 38.0906 75.4273C38.04 75.3902 37.9814 75.3657 37.9196 75.3558C37.8421 75.3414 37.7632 75.3346 37.6843 75.3357H36.5744V77.195H37.3292C37.4121 77.1986 37.4948 77.1833 37.5711 77.1503C37.6345 77.1163 37.6858 77.0631 37.7176 76.9983C37.7692 76.8928 37.8066 76.7808 37.8286 76.6654H38.1594V78.0442H37.8286C37.8066 77.9326 37.7701 77.8244 37.7199 77.7224C37.6869 77.6592 37.6379 77.606 37.5778 77.5682C37.4999 77.5324 37.4146 77.5163 37.3292 77.5213H36.5744V79.5683H37.671C37.7651 79.5698 37.859 79.56 37.9507 79.5393C38.0194 79.5192 38.0825 79.4832 38.135 79.4342C38.1916 79.3796 38.2382 79.3152 38.2726 79.2443C38.3127 79.1668 38.3461 79.0861 38.3725 79.0029C38.3991 78.918 38.4369 78.7951 38.4835 78.6364H38.832L38.7654 79.8812H35.5V79.7069C35.6053 79.6872 35.7047 79.6436 35.7908 79.5795C35.8447 79.5271 35.8791 79.4577 35.8885 79.3828C35.9065 79.254 35.9139 79.124 35.9107 78.994V75.9145C35.9139 75.795 35.9079 75.6755 35.8929 75.5569C35.8861 75.4961 35.8664 75.4374 35.8352 75.3848C35.8088 75.3427 35.7721 75.308 35.7286 75.2843C35.6573 75.2499 35.583 75.2222 35.5067 75.2016V75.0273H38.7943Z" fill="#5B585A"/>
<path d="M40.1909 75.0284V75.2027C40.1024 75.2088 40.0176 75.2406 39.9467 75.2943C39.922 75.3181 39.9026 75.347 39.8899 75.379C39.8773 75.411 39.8717 75.4454 39.8735 75.4798C39.8789 75.5662 39.9016 75.6505 39.9401 75.7279C39.9965 75.8501 40.0602 75.9688 40.131 76.0832L40.6415 76.9436L41.1454 76.1257C41.2187 76.0028 41.2764 75.9022 41.3142 75.8307C41.3461 75.7713 41.3728 75.7092 41.3941 75.6452C41.4081 75.5958 41.4156 75.5447 41.4163 75.4932C41.4178 75.4256 41.3949 75.3597 41.3519 75.3077C41.296 75.2489 41.2214 75.2117 41.141 75.2027V75.0284H42.4485V75.2027C42.3635 75.2304 42.2838 75.2728 42.2132 75.3279C42.1296 75.3971 42.055 75.4767 41.9912 75.5647C41.9135 75.6675 41.8003 75.8329 41.656 76.0564L40.8591 77.2989L41.747 78.7806C41.8736 78.9929 41.969 79.1381 42.0201 79.2275C42.0672 79.3052 42.1191 79.3798 42.1755 79.451C42.2216 79.5072 42.2737 79.5581 42.3308 79.603C42.3941 79.6492 42.4636 79.6861 42.5373 79.7125V79.8868H40.9834V79.7125C41.0695 79.7021 41.1519 79.6706 41.2231 79.6208C41.2496 79.5982 41.2704 79.5696 41.2839 79.5374C41.2974 79.5052 41.3032 79.4702 41.3008 79.4353C41.2989 79.3582 41.2815 79.2822 41.2498 79.2119C41.2034 79.1089 41.1508 79.0089 41.0922 78.9124L40.4684 77.8219L39.8024 78.9392C39.7068 79.075 39.6486 79.2338 39.6337 79.3996C39.6303 79.4692 39.6524 79.5376 39.6959 79.5918C39.7561 79.6505 39.8344 79.6867 39.9179 79.6946V79.8689H38.5859V79.6946C38.7326 79.657 38.8643 79.5751 38.9633 79.4599C39.0254 79.389 39.0833 79.3144 39.1365 79.2365C39.2008 79.1493 39.3007 78.9973 39.4406 78.7783L40.2708 77.4732L39.2785 75.8284C39.1831 75.6765 39.112 75.567 39.0566 75.4977C39.0169 75.4389 38.9723 75.3836 38.9234 75.3323C38.8913 75.2962 38.8538 75.2653 38.8124 75.2407C38.7761 75.2216 38.7382 75.2059 38.6992 75.1938V75.0195L40.1909 75.0284Z" fill="#5B585A"/>
<path d="M43.4025 78.9828C43.4 79.0985 43.4051 79.2142 43.4181 79.3292C43.4251 79.3901 43.4432 79.4491 43.4714 79.5035C43.4983 79.5477 43.5357 79.5846 43.5801 79.6108C43.6551 79.6479 43.7341 79.6764 43.8154 79.6957V79.87H42.3281V79.6957C42.4342 79.6764 42.5345 79.6328 42.6211 79.5683C42.6735 79.5151 42.707 79.446 42.7166 79.3716C42.7356 79.2429 42.7437 79.1129 42.741 78.9828V75.9145C42.7431 75.795 42.7371 75.6756 42.7233 75.5569C42.7154 75.4963 42.6958 75.4378 42.6655 75.3848C42.6378 75.3431 42.6005 75.3086 42.5568 75.2843C42.4856 75.2496 42.4113 75.2219 42.3348 75.2016V75.0273H43.8221V75.2016C43.7452 75.2185 43.6707 75.2447 43.6001 75.2798C43.5566 75.3034 43.5193 75.3371 43.4913 75.3781C43.4595 75.4314 43.4391 75.4908 43.4314 75.5524C43.4155 75.6724 43.4088 75.7935 43.4114 75.9145L43.4025 78.9828Z" fill="#5B585A"/>
<path d="M47.1914 75.142V76.1253H46.8384C46.7933 75.9497 46.7182 75.7833 46.6164 75.6337C46.5388 75.5219 46.4341 75.4319 46.3123 75.3722C46.1809 75.3172 46.0395 75.2906 45.8972 75.294C45.6596 75.2932 45.4298 75.3798 45.2512 75.5376C45.0402 75.7361 44.8867 75.9887 44.8073 76.2683C44.6908 76.6504 44.6361 77.0488 44.6452 77.4483C44.6378 77.848 44.6826 78.2469 44.7784 78.6349C44.8407 78.9131 44.9773 79.1689 45.1735 79.3746C45.2585 79.4572 45.3591 79.5219 45.4692 79.5649C45.5794 79.6079 45.697 79.6283 45.8151 79.6249C45.976 79.6311 46.1364 79.6029 46.2857 79.5422C46.4108 79.4849 46.5177 79.3936 46.5942 79.2785C46.6992 79.1141 46.7793 78.9348 46.8318 78.7467H47.1825V79.7613C46.9592 79.82 46.7322 79.864 46.5032 79.8931C46.2498 79.9239 45.9948 79.9388 45.7396 79.9378C45.482 79.9541 45.2243 79.907 44.9888 79.8008C44.7533 79.6945 44.547 79.5321 44.3877 79.3277C44.0814 78.921 43.9304 78.3154 43.9304 77.5086C43.921 77.0504 44.0041 76.595 44.1746 76.17C44.312 75.8052 44.5601 75.4933 44.8837 75.2786C45.2073 75.064 45.5899 74.9575 45.9771 74.9744C46.1744 74.9735 46.3716 74.9846 46.5676 75.0079C46.7782 75.039 46.9865 75.0838 47.1914 75.142Z" fill="#5B585A"/>
<path d="M49.1123 79.9278C48.8489 79.9313 48.5874 79.8835 48.342 79.787C48.1096 79.6906 47.905 79.5369 47.7471 79.34C47.5679 79.1173 47.4371 78.8592 47.3631 78.5824C47.2657 78.2236 47.2201 77.8526 47.2276 77.4807C47.2161 77.0162 47.2976 76.5541 47.4674 76.122C47.6055 75.7714 47.8443 75.4703 48.1533 75.2571C48.4604 75.0572 48.8199 74.9545 49.1856 74.9621C49.5571 74.949 49.9243 75.0453 50.2422 75.2392C50.5363 75.4386 50.7613 75.7253 50.886 76.0594C51.1856 76.9418 51.1754 77.9011 50.8571 78.7769C50.7177 79.1275 50.4743 79.4264 50.1601 79.6328C49.8463 79.8306 49.4825 79.9331 49.1123 79.9278ZM47.9535 77.3913C47.9535 78.1184 48.0586 78.6703 48.2688 79.0473C48.3521 79.2208 48.4833 79.3666 48.6466 79.4672C48.8099 79.5679 48.9986 79.6191 49.19 79.6149C49.4309 79.6209 49.6648 79.5329 49.8426 79.3691C50.0397 79.1704 50.178 78.9205 50.2422 78.6472C50.3392 78.283 50.3847 77.9069 50.3776 77.5299C50.388 77.0975 50.3349 76.666 50.22 76.2493C50.1505 75.9666 50.0018 75.7098 49.7916 75.5096C49.6156 75.3602 49.3913 75.2807 49.1611 75.2862C48.9692 75.2814 48.7801 75.3335 48.6173 75.4359C48.4587 75.5441 48.3291 75.6899 48.2399 75.8605C48.1293 76.0699 48.0542 76.2965 48.0179 76.5309C47.9715 76.8153 47.95 77.1032 47.9535 77.3913Z" fill="#5B585A"/>
<path d="M20.1067 69.3676C20.2195 69.159 20.2946 68.9321 20.3287 68.6971C20.3477 68.511 20.313 68.3232 20.2288 68.1563C20.1179 67.9589 19.9666 67.7875 19.7848 67.6535C19.6728 67.5486 19.541 67.4673 19.3973 67.4144C19.2536 67.3614 19.1008 67.3379 18.948 67.3451C18.797 67.3666 18.6521 67.4192 18.5223 67.4995C18.3924 67.5799 18.2804 67.6863 18.1932 67.8122C18.0599 67.9686 17.9655 68.1547 17.9179 68.3552C17.8808 68.5565 17.8899 68.7637 17.9446 68.9608C18.0333 69.2773 18.1491 69.5853 18.2909 69.8816C18.4386 70.191 18.5532 70.5154 18.6327 70.8492C18.6875 71.0945 18.6927 71.3483 18.6483 71.5956C18.6003 71.8238 18.4982 72.0369 18.3508 72.2169C18.1531 72.4737 17.8866 72.6683 17.5827 72.7778C17.2767 72.872 16.9498 72.872 16.6437 72.7778C16.2829 72.6744 15.9478 72.4955 15.6604 72.2526C15.4795 72.1083 15.3068 71.9538 15.1431 71.79C14.9413 71.5807 14.755 71.3566 14.5859 71.1196L15.3829 70.1274L15.7447 70.4224C15.6414 70.6326 15.5761 70.8596 15.5516 71.0928C15.5371 71.2641 15.571 71.4361 15.6493 71.5889C15.75 71.7578 15.8819 71.9057 16.0377 72.0247C16.1827 72.1462 16.3525 72.2339 16.535 72.2817C16.7037 72.3261 16.8818 72.3175 17.0455 72.2571C17.2219 72.1896 17.3758 72.0734 17.4895 71.9219C17.6197 71.7745 17.7119 71.5973 17.7581 71.4057C17.7923 71.2156 17.7847 71.0203 17.7359 70.8336C17.661 70.5471 17.5584 70.2686 17.4296 70.0022C17.2731 69.6723 17.1482 69.3281 17.0566 68.9742C16.9936 68.7161 16.983 68.4478 17.0256 68.1854C17.0748 67.9188 17.1927 67.6699 17.3674 67.4636C17.5404 67.2342 17.7598 67.0446 18.0112 66.9071C18.2226 66.7981 18.4574 66.7429 18.6949 66.7462C18.9398 66.7535 19.1804 66.8129 19.4008 66.9205C19.6562 67.0384 19.8957 67.1886 20.1134 67.3675C20.5542 67.741 20.9465 68.1689 21.281 68.6413L20.4708 69.6491L20.1067 69.3676Z" fill="white"/>
<path d="M16.3799 63.8677C16.6205 64.1268 16.809 64.4304 16.9349 64.7616C17.0504 65.0755 17.087 65.4133 17.0414 65.7449C16.9828 66.1211 16.8475 66.481 16.6441 66.802C16.3795 67.2189 16.0565 67.5953 15.6851 67.9193C15.238 68.3488 14.7095 68.6832 14.1312 68.9026C13.6639 69.0808 13.1543 69.1135 12.6683 68.9965C12.1957 68.8717 11.7712 68.607 11.4496 68.2367C11.1078 67.8776 10.8765 67.4267 10.7836 66.9383C10.7122 66.4673 10.7899 65.9857 11.0056 65.5617C11.2793 65.0299 11.6515 64.5558 12.1022 64.1649C12.559 63.7206 13.1015 63.3753 13.6961 63.1504C14.1645 62.9749 14.6751 62.9484 15.159 63.0744C15.6337 63.2143 16.0578 63.4899 16.3799 63.8677ZM14.937 67.2958C15.6474 66.6433 16.0913 66.0429 16.2689 65.4946C16.364 65.2562 16.3891 64.9952 16.341 64.7428C16.293 64.4905 16.174 64.2573 15.9981 64.0711C15.7883 63.8262 15.4922 63.6732 15.1723 63.6442C14.8002 63.6258 14.4303 63.7125 14.1046 63.8945C13.6637 64.1245 13.2565 64.4148 12.8947 64.7572C12.4628 65.1355 12.0888 65.576 11.7848 66.0645C11.5705 66.3871 11.4527 66.7648 11.4452 67.1528C11.4522 67.4651 11.574 67.7637 11.787 67.9909C11.9556 68.186 12.1782 68.3261 12.4263 68.3931C12.6732 68.4568 12.932 68.4568 13.1789 68.3931C13.48 68.3134 13.7664 68.1851 14.0269 68.0132C14.35 67.8007 14.6545 67.5607 14.937 67.2958Z" fill="white"/>
<path d="M6.55469 61.1981L7.64464 60.483L7.89992 60.8763C7.73543 61.051 7.60314 61.2538 7.50923 61.4752C7.43877 61.643 7.41498 61.8268 7.44041 62.0071C7.47651 62.1961 7.55218 62.3751 7.6624 62.5323C7.8335 62.7959 8.09379 62.988 8.39495 63.0731C8.76925 63.1688 9.16252 63.1587 9.53152 63.044C10.0398 62.8988 10.5217 62.6724 10.9589 62.3736C11.4089 62.0925 11.8195 61.752 12.1798 61.3613C12.442 61.0923 12.6275 60.7573 12.717 60.3914C12.7732 60.08 12.7054 59.7589 12.5283 59.4975C12.4155 59.3102 12.2641 59.1494 12.0844 59.0259C11.9294 58.9276 11.7504 58.8742 11.5671 58.8717C11.3083 58.8746 11.0512 58.9145 10.8035 58.9902L10.5482 58.5969L11.6759 57.8594C11.9042 58.0684 12.1185 58.2923 12.3174 58.5298C12.5353 58.7928 12.737 59.0689 12.9212 59.3567C13.3549 60.0271 13.4562 60.6826 13.2254 61.3233C12.9945 61.9639 12.4329 62.5695 11.5405 63.1401C11.0425 63.4817 10.4818 63.7195 9.89114 63.8396C9.38571 63.9492 8.85886 63.8959 8.38517 63.6873C7.91148 63.4788 7.51495 63.1255 7.25172 62.6775C7.10616 62.4565 6.97563 62.2258 6.86103 61.987C6.74127 61.7313 6.63892 61.4678 6.55469 61.1981Z" fill="white"/>
<path d="M9.86888 56.3706C10.0082 56.305 10.1432 56.2304 10.2729 56.1471C10.3419 56.1037 10.4016 56.0467 10.4483 55.9795C10.4859 55.9215 10.5074 55.8544 10.5104 55.7851C10.5118 55.6737 10.4991 55.5626 10.4727 55.4544L10.6791 55.3516L11.5671 57.1394L11.3606 57.2444C11.2752 57.1285 11.1652 57.0331 11.0387 56.9651C10.9443 56.9337 10.8424 56.9337 10.7479 56.9651C10.5835 57.0193 10.4238 57.0873 10.2707 57.1684L6.62566 58.9831C6.48309 59.0479 6.34513 59.1226 6.21277 59.2065C6.14512 59.252 6.08703 59.3105 6.04184 59.3786C6.00914 59.436 5.99014 59.5003 5.98634 59.5663C5.98774 59.6761 6.00038 59.7854 6.02408 59.8926L5.81763 59.9954L4.92969 58.2076L5.13613 58.1048C5.20066 58.1882 5.27523 58.2633 5.35812 58.3283C5.41192 58.3659 5.47332 58.3911 5.53793 58.402C5.62077 58.4085 5.70402 58.397 5.78211 58.3685C5.93488 58.3171 6.08334 58.2536 6.22609 58.1785L9.86888 56.3706Z" fill="white"/>
<path d="M2.82812 52.7062L4.16003 52.2302L4.31544 52.6771C4.19971 52.762 4.08856 52.853 3.98246 52.9497C3.90171 53.0252 3.82745 53.1075 3.76047 53.1956C3.70902 53.2629 3.66924 53.3384 3.64282 53.419C3.61957 53.4996 3.61425 53.5843 3.62727 53.6671C3.64438 53.7724 3.67189 53.8757 3.7094 53.9755L4.20444 55.3856L6.52642 54.5588L6.19122 53.6045C6.15868 53.4972 6.10252 53.3987 6.02694 53.3162C5.95754 53.2512 5.87001 53.209 5.7761 53.1956C5.62134 53.1757 5.46468 53.1757 5.30992 53.1956L5.16342 52.7933L6.86382 52.1877L7.01035 52.6056C6.88352 52.6808 6.76709 52.7724 6.66405 52.8782C6.59809 52.9478 6.55273 53.0344 6.53308 53.1285C6.5242 53.2429 6.54245 53.3578 6.58634 53.4637L6.92155 54.418L9.47883 53.5084L8.98602 52.1229C8.94721 52.0022 8.89272 51.8873 8.82397 51.781C8.7705 51.7015 8.69796 51.6369 8.61308 51.5933C8.52007 51.5457 8.41931 51.5154 8.31562 51.5039C8.20013 51.4882 8.08362 51.4815 7.9671 51.4837L7.46097 51.5061L7.30558 51.0591L8.89056 50.5898L10.3401 54.7197L10.1181 54.7979C10.0473 54.6726 9.94946 54.5649 9.83179 54.4828C9.7418 54.4404 9.64073 54.4278 9.54321 54.447C9.37393 54.4823 9.20767 54.5308 9.04596 54.5923L5.21226 55.9577C5.05968 56.006 4.91121 56.0665 4.76829 56.1387C4.69448 56.1739 4.6293 56.225 4.57738 56.2885C4.53688 56.3413 4.51017 56.4036 4.49968 56.4695C4.48903 56.578 4.48903 56.6873 4.49968 56.7958L4.27769 56.874L2.82812 52.7062Z" fill="white"/>
<path d="M8.67607 49.9431L8.45409 49.9833C8.41155 49.8816 8.35794 49.7849 8.29426 49.695C8.25446 49.6407 8.20076 49.5982 8.13887 49.5721C8.06206 49.5446 7.98047 49.5332 7.89912 49.5386C7.74109 49.5468 7.58383 49.5663 7.42851 49.5967L3.43276 50.3007C3.275 50.325 3.1192 50.3608 2.96659 50.4079C2.88469 50.4289 2.80872 50.4687 2.74461 50.5241C2.69786 50.5693 2.66281 50.6253 2.64249 50.6873C2.61216 50.7944 2.59355 50.9046 2.587 51.0158L2.36501 51.056L1.99873 49.0134C1.89944 48.5275 1.87994 48.0285 1.94102 47.5363C1.99515 47.161 2.13247 46.8028 2.34281 46.4882C2.5577 46.1777 2.84309 45.9233 3.17526 45.7462C3.58258 45.5352 4.02111 45.3918 4.47388 45.3216C4.93757 45.2326 5.41159 45.2116 5.88127 45.259C6.2642 45.2968 6.63487 45.4156 6.969 45.6077C7.24401 45.7678 7.48411 45.9821 7.67492 46.2379C7.85159 46.475 7.98948 46.7391 8.08337 47.02C8.21446 47.4234 8.31319 47.8366 8.37861 48.2558L8.67607 49.9431ZM8.01012 48.6022C8.01012 48.4749 7.9746 48.2916 7.93242 48.048C7.89456 47.8128 7.83282 47.5822 7.74817 47.3597C7.67349 47.1715 7.57178 46.9953 7.44627 46.8368C7.3175 46.6799 7.15999 46.5494 6.98232 46.4524C6.78577 46.3472 6.57481 46.2719 6.35632 46.2289C6.10975 46.1826 5.85894 46.1631 5.60823 46.1708C5.3155 46.1801 5.02388 46.2115 4.73582 46.2647C4.20448 46.3382 3.69459 46.524 3.23964 46.81C2.89691 47.0272 2.63419 47.3513 2.49154 47.7329C2.36235 48.1318 2.33788 48.5575 2.42051 48.9687C2.45602 49.1788 2.4982 49.3799 2.5426 49.5654L8.01012 48.6022Z" fill="white"/>
<path d="M7.71753 41.1872H7.49554C7.47348 41.0663 7.43695 40.9485 7.38677 40.8364C7.35172 40.7648 7.29601 40.7056 7.22694 40.6665C7.14278 40.6254 7.04948 40.6069 6.95611 40.6129C6.83945 40.6157 6.7234 40.6306 6.60982 40.6576C6.48846 40.6844 6.35083 40.7224 6.19692 40.7716L5.59312 40.957L5.62864 43.1627L6.09259 43.3147C6.26538 43.3764 6.44183 43.4272 6.62092 43.4667C6.72737 43.49 6.83608 43.5012 6.94501 43.5002C7.02029 43.506 7.09593 43.4955 7.16679 43.4692C7.23765 43.443 7.30208 43.4017 7.35569 43.3482C7.45489 43.2195 7.51364 43.0639 7.5244 42.9013H7.74638L7.77968 44.9126H7.5577C7.53743 44.8209 7.49933 44.7343 7.44561 44.6576C7.39189 44.5809 7.3236 44.5156 7.2447 44.4656C7.00953 44.3098 6.75502 44.1858 6.48772 44.0969L1.24219 42.2152V41.4688L6.45443 39.7749C6.64391 39.7154 6.82993 39.6452 7.01161 39.5648C7.12565 39.5128 7.22713 39.4366 7.30907 39.3413C7.38736 39.2435 7.44003 39.1275 7.46224 39.0039H7.68423L7.71753 41.1872ZM5.20908 43.0465L5.17801 41.0688L2.16122 42.0163L5.20908 43.0465Z" fill="white"/>
<path d="M7.74181 38.8658L7.51982 38.83C7.51284 38.7196 7.49423 38.6102 7.46432 38.5038C7.44273 38.4407 7.40615 38.3839 7.35777 38.3384C7.29251 38.2857 7.21684 38.2476 7.13579 38.2266C6.98326 38.1809 6.82738 38.1473 6.66961 38.1261L2.66499 37.4691C2.50813 37.4397 2.34936 37.4218 2.18994 37.4154C2.10872 37.4097 2.02732 37.4235 1.95241 37.4557C1.8933 37.4833 1.84157 37.5246 1.80147 37.5763C1.73818 37.6668 1.68529 37.7643 1.64385 37.8668L1.42188 37.8289L1.75262 35.7841C1.8183 35.2925 1.96222 34.8149 2.17884 34.3694C2.3494 34.0351 2.59121 33.7429 2.88698 33.5135C3.19125 33.2915 3.54347 33.1452 3.91477 33.0867C4.36824 33.0204 4.82944 33.0295 5.27999 33.1135C5.7479 33.1821 6.20334 33.3191 6.63188 33.5202C6.98194 33.6826 7.29428 33.9171 7.54869 34.2085C7.75471 34.452 7.91155 34.7337 8.01042 35.0376C8.09802 35.3204 8.14145 35.6152 8.13916 35.9114C8.1325 36.3357 8.09168 36.7587 8.01708 37.1763L7.74181 38.8658ZM7.54869 37.373C7.59382 37.1925 7.62939 37.0097 7.65524 36.8255C7.69638 36.591 7.71274 36.3528 7.70407 36.1148C7.69706 35.9119 7.65888 35.7114 7.59087 35.5204C7.51993 35.3299 7.41372 35.1547 7.27787 35.0041C7.1274 34.8378 6.95215 34.6961 6.75842 34.584C6.54144 34.4584 6.31141 34.3573 6.07248 34.2823C5.79309 34.194 5.50736 34.1275 5.21784 34.0834C4.69247 33.9789 4.15133 33.985 3.62842 34.1013C3.23331 34.1943 2.87887 34.4138 2.61838 34.727C2.36666 35.0613 2.20528 35.4555 2.14999 35.8712C2.11447 36.0835 2.08783 36.2846 2.07007 36.4768L7.54869 37.373Z" fill="white"/>
<path d="M6.22807 22.6368C6.20631 22.7411 6.19737 22.8477 6.20143 22.9542C6.2076 23.0197 6.22807 23.083 6.26137 23.1397C6.3087 23.2078 6.37002 23.265 6.44118 23.3073C6.57858 23.3918 6.72174 23.4665 6.86961 23.5307L10.5879 25.1867C10.7271 25.2515 10.8702 25.3074 11.0163 25.3543C11.0938 25.3786 11.175 25.3885 11.2561 25.3834C11.3248 25.3748 11.3899 25.3478 11.4447 25.3051C11.5293 25.2352 11.604 25.154 11.6667 25.0638L11.8776 25.1576L11.0984 26.9611L10.8765 26.8695C10.9079 26.7369 10.9124 26.5993 10.8898 26.465C10.8583 26.3739 10.7983 26.2955 10.7188 26.2415C10.5687 26.1362 10.408 26.0471 10.2394 25.9756L8.59444 25.2426C8.16231 25.0474 7.72722 24.8455 7.28917 24.6369C6.84519 24.4269 6.55661 24.2772 6.40122 24.19L6.37014 24.2637L9.8753 27.8729L9.65332 28.3712L4.62533 28.036L4.59203 28.1098C4.77406 28.1723 5.09668 28.2997 5.55989 28.4919C6.0231 28.6841 6.49815 28.8882 6.98504 29.1042L8.55893 29.8037C8.69779 29.8699 8.84092 29.9267 8.98736 29.9736C9.06485 29.9979 9.1461 30.0077 9.2271 30.0026C9.29556 29.993 9.36048 29.9661 9.41579 29.9244C9.49979 29.8539 9.5744 29.7728 9.63778 29.683L9.84866 29.7769L9.15385 31.3569L8.93186 31.263C8.96327 31.1225 8.96327 30.9767 8.93186 30.8362C8.8963 30.7428 8.83064 30.6641 8.74539 30.6127C8.59894 30.5205 8.44526 30.4406 8.28588 30.3736L4.56762 28.7176C4.42383 28.6504 4.27546 28.5937 4.12364 28.5478C4.04542 28.5234 3.96316 28.5151 3.88168 28.5232C3.81669 28.5345 3.75559 28.5622 3.70409 28.6036C3.62265 28.6702 3.54825 28.7451 3.4821 28.8271L3.27344 28.7333L3.9394 27.189L8.82309 27.5399L5.37565 24.0045L6.01719 22.543L6.22807 22.6368Z" fill="white"/>
<path d="M9.50515 17.3594L10.6728 18.1706L10.4109 18.5528C10.2747 18.5077 10.1361 18.4704 9.99574 18.4411C9.88768 18.4179 9.77766 18.4052 9.6672 18.4031C9.58138 18.4021 9.49595 18.4149 9.41413 18.4411C9.33547 18.4694 9.26416 18.5153 9.20547 18.5751C9.13094 18.6508 9.06333 18.7331 9.00346 18.821L8.15991 20.0523L10.1866 21.4602L10.7594 20.6266C10.826 20.5373 10.8722 20.4343 10.8948 20.325C10.9044 20.23 10.8859 20.1344 10.8415 20.0501C10.7647 19.9134 10.6707 19.7872 10.5618 19.6746L10.8126 19.3081L12.2977 20.3406L12.0469 20.7071C11.905 20.6464 11.7557 20.605 11.6029 20.5842C11.5085 20.5708 11.4123 20.5847 11.3254 20.6244C11.2351 20.6863 11.16 20.7681 11.1057 20.8635L10.5329 21.6971L12.7661 23.248L13.5964 22.0368C13.6674 21.9341 13.7255 21.823 13.7695 21.706C13.8002 21.6148 13.8093 21.5176 13.7961 21.4222C13.7798 21.3185 13.7453 21.2186 13.694 21.1272C13.6386 21.0249 13.5756 20.9271 13.5053 20.8345C13.4343 20.7406 13.3277 20.611 13.1879 20.4322L13.4543 20.0478L14.7596 21.058L12.2866 24.6693L12.0979 24.5375C12.1567 24.4055 12.1855 24.262 12.1823 24.1173C12.1646 24.0188 12.1146 23.9291 12.0402 23.8626C11.9143 23.7438 11.7783 23.6361 11.634 23.5408L8.28867 21.2166C8.15991 21.1232 8.02492 21.0388 7.88465 20.9641C7.81223 20.9262 7.73295 20.9034 7.65157 20.8971C7.58601 20.8964 7.52127 20.9117 7.46288 20.9417C7.3681 20.995 7.2795 21.0587 7.19871 21.1317L7.00781 20.9999L9.50515 17.3594Z" fill="white"/>
<path d="M15.1508 20.5155L14.9865 20.3522C15.044 20.2583 15.0902 20.1577 15.1241 20.0528C15.1418 19.9884 15.1418 19.9206 15.1241 19.8562C15.103 19.7743 15.0643 19.6981 15.0109 19.6327C14.911 19.5091 14.8027 19.3927 14.6868 19.2841L11.7655 16.4437C11.6534 16.33 11.5332 16.2247 11.4059 16.1286C11.3402 16.0781 11.2645 16.0423 11.1839 16.0236C11.1194 16.0124 11.0531 16.0169 10.9908 16.0369C10.8877 16.0761 10.7888 16.1255 10.6955 16.1844L10.5312 16.0236L11.9632 14.533C12.2947 14.1676 12.683 13.8589 13.1129 13.619C13.4513 13.4402 13.8254 13.3408 14.2073 13.3284C14.5837 13.3222 14.9562 13.4049 15.2951 13.5698C15.7062 13.7761 16.0812 14.0486 16.4051 14.3766C16.7542 14.703 17.0533 15.0795 17.2929 15.494C17.4815 15.8308 17.5974 16.2039 17.6327 16.5889C17.6622 16.9036 17.6297 17.2211 17.5371 17.5231C17.45 17.8066 17.319 18.0743 17.1488 18.3165C16.9013 18.6601 16.6273 18.9836 16.3295 19.2841L15.1508 20.5155ZM15.8345 19.1745C15.9307 19.0911 16.0639 18.9615 16.2341 18.7857C16.4013 18.6166 16.5501 18.4302 16.678 18.2293C16.7871 18.059 16.8694 17.8728 16.9222 17.6773C16.9732 17.4797 16.9854 17.274 16.9578 17.0717C16.9291 16.8495 16.8661 16.633 16.7713 16.4302C16.6649 16.2014 16.5332 15.9856 16.3785 15.7867C16.1987 15.5541 16.002 15.3353 15.7901 15.1319C15.4176 14.7454 14.9693 14.441 14.4737 14.238C14.0967 14.088 13.6815 14.0652 13.2905 14.1732C12.8937 14.3025 12.5372 14.5336 12.2561 14.8437C12.1074 14.9979 11.9719 15.1475 11.8476 15.2905L15.8345 19.1745Z" fill="white"/>
<path d="M19.767 14.5131C19.8609 14.6358 19.9617 14.7529 20.0689 14.8639C20.1267 14.9212 20.1944 14.9674 20.2687 15.0002C20.333 15.0252 20.4028 15.0321 20.4707 15.0203C20.5797 14.9973 20.6855 14.9613 20.786 14.9131L20.928 15.0941L19.3741 16.3366L19.2298 16.1556C19.3246 16.0475 19.3937 15.9191 19.4318 15.7802C19.4436 15.6805 19.4217 15.5797 19.3697 15.4941C19.2828 15.3436 19.1833 15.2008 19.0722 15.0673L16.546 11.8626C16.4493 11.7369 16.3448 11.6174 16.233 11.5051C16.1747 11.4474 16.1052 11.4025 16.0288 11.3732C15.9667 11.352 15.9001 11.3474 15.8357 11.3598C15.7294 11.3828 15.626 11.4172 15.5271 11.4626L15.3828 11.2816L16.9367 10.0391L17.0788 10.2201C17.0121 10.3023 16.9554 10.3924 16.9101 10.4883C16.8842 10.5496 16.8728 10.6161 16.8768 10.6827C16.8887 10.762 16.9166 10.8381 16.9589 10.9062C17.0415 11.0441 17.1343 11.1755 17.2364 11.2995L19.767 14.5131Z" fill="white"/>
<path d="M21.8491 6.95703L22.5351 8.07441L22.1399 8.32246C21.9702 8.15346 21.7717 8.01647 21.5539 7.91797C21.3892 7.84311 21.2074 7.81453 21.0278 7.83529C20.8401 7.86612 20.6609 7.93615 20.5017 8.04089C20.2325 8.20668 20.0328 8.46576 19.9401 8.76942C19.8364 9.14367 19.8364 9.53935 19.9401 9.91361C20.0748 10.4291 20.2906 10.9195 20.5794 11.3663C20.8502 11.8245 21.1801 12.2445 21.5606 12.6155C21.8248 12.8875 22.158 13.0815 22.524 13.1764C22.6782 13.2096 22.8375 13.2116 22.9926 13.1825C23.1477 13.1533 23.2955 13.0935 23.4275 13.0066C23.6163 12.8965 23.7798 12.7472 23.9069 12.5686C24.0084 12.4151 24.066 12.2365 24.0734 12.0523C24.0747 11.7911 24.0403 11.5309 23.9713 11.2791L24.3665 11.0333L25.0746 12.1842C24.8666 12.4087 24.6441 12.6192 24.4086 12.8144C24.1424 13.0277 23.8637 13.2247 23.574 13.4044C22.8962 13.8275 22.2428 13.9161 21.6138 13.6703C20.9849 13.4245 20.3885 12.8449 19.8246 11.9317C19.4946 11.4229 19.2682 10.8532 19.1587 10.2555C19.067 9.75001 19.1281 9.22843 19.334 8.75824C19.5565 8.28426 19.9164 7.88924 20.3663 7.62522C20.5899 7.4837 20.822 7.35609 21.0611 7.24308C21.3175 7.13111 21.5807 7.03557 21.8491 6.95703Z" fill="white"/>
<path d="M28.6 10.8061L28.5112 10.5826C28.6132 10.519 28.7078 10.4441 28.7931 10.3591C28.847 10.3005 28.8812 10.2262 28.8908 10.1468C28.8966 10.0531 28.8791 9.95935 28.8397 9.87418C28.7933 9.76624 28.7368 9.66297 28.671 9.56577C28.6 9.46074 28.5134 9.3423 28.4113 9.22163L28.0162 8.72775L25.9961 9.57695L26.0272 10.0686C26.0335 10.2529 26.0521 10.4365 26.0827 10.6184C26.1009 10.7263 26.1306 10.832 26.1714 10.9335C26.1941 11.0061 26.2319 11.0731 26.2825 11.1298C26.3331 11.1864 26.3951 11.2315 26.4645 11.262C26.6185 11.31 26.7833 11.31 26.9373 11.262L27.0261 11.4854L25.1747 12.2654L25.0859 12.0419C25.1644 11.9892 25.2316 11.9214 25.2838 11.8424C25.336 11.7634 25.3721 11.6747 25.3901 11.5815C25.4464 11.303 25.4658 11.0182 25.4478 10.7346L25.2502 5.14766L25.9339 4.85938L29.4302 9.10542C29.5546 9.26218 29.688 9.41142 29.8298 9.55237C29.9186 9.63955 30.0244 9.70727 30.1406 9.75126C30.2601 9.78727 30.3866 9.79341 30.5091 9.76914L30.5978 9.99261L28.6 10.8061ZM25.9561 9.15012L27.7675 8.38805L25.7697 5.92982L25.9561 9.15012Z" fill="white"/>
<path d="M32.4684 9.45074L32.4307 9.22726C32.5317 9.18443 32.6278 9.13047 32.717 9.06636C32.7705 9.02667 32.8126 8.97348 32.8391 8.91216C32.8684 8.83531 32.8805 8.75291 32.8746 8.67081C32.8676 8.51099 32.8491 8.3519 32.8192 8.1948L32.1399 4.17224C32.1172 4.01352 32.083 3.85667 32.0378 3.70294C32.0162 3.62119 31.9776 3.545 31.9245 3.47946C31.8785 3.43278 31.8222 3.39758 31.7603 3.37666C31.6548 3.34483 31.5461 3.32534 31.4362 3.31856L31.3984 3.09508L33.4274 2.73305C33.9105 2.63596 34.4061 2.6186 34.8947 2.68165C35.2671 2.73901 35.6221 2.87951 35.9336 3.09285C36.2404 3.31161 36.4914 3.6003 36.6662 3.93535C36.8741 4.34558 37.0143 4.78713 37.0813 5.24269C37.1677 5.71054 37.1864 6.18852 37.1368 6.66176C37.0968 7.04766 36.9765 7.42076 36.7838 7.75679C36.6219 8.03099 36.4085 8.27084 36.1556 8.46297C35.9177 8.6385 35.654 8.77571 35.3742 8.8697C34.9733 8.99923 34.5628 9.09638 34.1466 9.16022L32.4684 9.45074ZM33.8003 8.78031C33.9269 8.78031 34.1089 8.74679 34.3509 8.70656C34.5847 8.66951 34.8139 8.60732 35.0346 8.52108C35.2225 8.44829 35.3983 8.34733 35.5562 8.22162C35.7199 8.09372 35.8565 7.93416 35.958 7.75232C36.0634 7.55484 36.1383 7.34233 36.18 7.12212C36.2299 6.87514 36.2508 6.62312 36.2422 6.37124C36.2344 6.07677 36.2055 5.78325 36.1556 5.49298C36.0845 4.95824 35.903 4.44441 35.6228 3.98452C35.4082 3.63781 35.0871 3.37104 34.7083 3.2247C34.3127 3.09221 33.8897 3.06526 33.4807 3.14648C33.272 3.18224 33.0722 3.22246 32.888 3.26716L33.8003 8.78031Z" fill="white"/>
<path d="M42.5494 2.0625L42.5716 3.49051H42.1121C42.0694 3.35264 42.0182 3.21756 41.959 3.08602C41.9156 2.98399 41.862 2.88666 41.7991 2.7955C41.751 2.72315 41.691 2.65965 41.6215 2.60778C41.5545 2.56233 41.479 2.53114 41.3996 2.51616C41.2956 2.49748 41.1899 2.48999 41.0843 2.49381L39.5904 2.50945L39.6303 4.9878L40.6359 4.97216C40.7474 4.97522 40.8582 4.95307 40.96 4.90735C41.0431 4.86114 41.1098 4.79007 41.1509 4.70399C41.2167 4.56159 41.2644 4.41143 41.293 4.25703H41.737L41.7658 6.07389H41.3219C41.2902 5.92529 41.2387 5.7817 41.1687 5.64705C41.1242 5.56264 41.0573 5.49226 40.9756 5.44369C40.8707 5.39815 40.7564 5.37897 40.6426 5.38782L39.637 5.4057L39.6814 8.13434L41.142 8.10976C41.2677 8.11064 41.393 8.09562 41.515 8.06506C41.6074 8.03815 41.6919 7.98907 41.7614 7.92204C41.8349 7.84823 41.895 7.762 41.939 7.66728C41.9906 7.56222 42.0337 7.4531 42.0677 7.341C42.1032 7.22926 42.1499 7.06389 42.2076 6.84935H42.6738L42.6205 8.50978L38.2695 8.58129V8.35782C38.4096 8.32955 38.5416 8.26998 38.6558 8.1835C38.7254 8.11181 38.7698 8.01923 38.7823 7.9198C38.8026 7.74703 38.81 7.57298 38.8045 7.3991L38.7379 3.30503C38.7385 3.14657 38.7281 2.98827 38.7069 2.83126C38.695 2.75189 38.667 2.67582 38.6247 2.60778C38.5885 2.55227 38.5388 2.50691 38.4804 2.47593C38.3814 2.4304 38.278 2.39521 38.1719 2.3709V2.14742L42.5494 2.0625Z" fill="white"/>
<path d="M44.8122 8.37662L46.0309 8.55316C46.1431 8.5717 46.2567 8.58067 46.3705 8.57998C46.4531 8.58203 46.5356 8.57071 46.6147 8.54646C46.6848 8.52281 46.7496 8.48561 46.8056 8.43695C46.8741 8.37656 46.9346 8.30745 46.9854 8.23136C47.0562 8.12513 47.1179 8.01298 47.1696 7.89614C47.2318 7.75982 47.3139 7.55646 47.416 7.27935L47.8867 7.34863L47.5182 9.21689L43.3359 8.6068L43.3692 8.38332C43.5123 8.37675 43.6524 8.33941 43.7799 8.27382C43.86 8.2142 43.9179 8.12919 43.9442 8.03246C43.9942 7.86527 44.0299 7.69405 44.0507 7.5207L44.6323 3.47132C44.6586 3.3147 44.6735 3.15636 44.6767 2.99755C44.6794 2.91503 44.665 2.83286 44.6346 2.7562C44.606 2.69611 44.5634 2.64394 44.5103 2.60423C44.4205 2.54276 44.3245 2.49107 44.2239 2.45004L44.2572 2.22656L46.2151 2.51261L46.1818 2.73608C46.0788 2.74553 45.977 2.76499 45.8777 2.79419C45.8173 2.81359 45.7625 2.84732 45.7179 2.89252C45.6629 2.9571 45.6234 3.03357 45.6024 3.11599C45.5583 3.26976 45.5257 3.42663 45.5047 3.58529L44.8122 8.37662Z" fill="white"/>
<path d="M54.7178 10.3772C54.6534 10.5493 54.609 10.6789 54.5846 10.7683C54.5636 10.8409 54.5524 10.9161 54.5513 10.9918C54.55 11.0444 54.559 11.0969 54.5779 11.146C54.6001 11.1964 54.6309 11.2426 54.669 11.2823C54.7361 11.3507 54.8106 11.4114 54.8909 11.4633L54.8088 11.6868L52.9685 10.9828L53.0507 10.7594C53.1797 10.7846 53.3124 10.7846 53.4414 10.7594C53.5332 10.7277 53.6115 10.6654 53.6634 10.5828C53.7589 10.4224 53.8378 10.2524 53.8987 10.0756L54.5979 8.2207L52.1561 7.28657L51.4568 9.13918C51.398 9.28443 51.3497 9.43381 51.3125 9.58614C51.2921 9.66484 51.2861 9.74662 51.2948 9.82749C51.3073 9.89577 51.3371 9.95965 51.3813 10.013C51.456 10.0979 51.541 10.173 51.6344 10.2365L51.5523 10.4599L49.7031 9.75151L49.7853 9.52803C49.9263 9.55243 50.0708 9.54634 50.2093 9.51015C50.303 9.47029 50.381 9.40037 50.4312 9.31126C50.5161 9.15794 50.5902 8.9989 50.6532 8.83526L52.0984 5.00935C52.158 4.86417 52.207 4.71479 52.2449 4.5624C52.2611 4.48127 52.2611 4.3977 52.2449 4.31657C52.2312 4.25201 52.2014 4.19203 52.1583 4.14226C52.0833 4.0602 52.0008 3.98538 51.9119 3.91879L51.994 3.69531L53.8432 4.40373L53.761 4.62721C53.6568 4.61093 53.551 4.60717 53.4458 4.61603C53.3806 4.62468 53.3183 4.64839 53.2638 4.68531C53.1985 4.73675 53.1448 4.80148 53.1062 4.87526C53.0302 5.01921 52.9649 5.1686 52.9108 5.32222L52.3181 6.88655L54.76 7.82068L55.3505 6.25634C55.4241 6.08265 55.4785 5.90127 55.5125 5.71553C55.5248 5.62513 55.5093 5.53311 55.4681 5.45183C55.3911 5.33976 55.2921 5.24471 55.1773 5.17249L55.2594 4.94901L57.0908 5.64179L57.0087 5.86526C56.8782 5.83992 56.7441 5.83992 56.6136 5.86526C56.5208 5.8976 56.4423 5.96166 56.3916 6.04628C56.3013 6.2069 56.227 6.37606 56.1696 6.55133L54.7178 10.3772Z" fill="white"/>
<path d="M57.4693 13.3377C57.1667 13.1582 56.9007 12.9223 56.6857 12.6427C56.4858 12.3753 56.3553 12.0619 56.3061 11.7309C56.255 11.3516 56.2829 10.9657 56.3883 10.5979C56.5244 10.1245 56.727 9.67296 56.9898 9.25709C57.2953 8.71916 57.7052 8.24869 58.1952 7.87377C58.5931 7.56923 59.0725 7.39174 59.5715 7.36425C60.06 7.3505 60.5415 7.48354 60.9545 7.74639C61.3871 7.9898 61.7391 8.35582 61.9668 8.79896C62.1673 9.22955 62.2279 9.71281 62.1399 10.18C62.0253 10.7698 61.7992 11.332 61.474 11.836C61.1603 12.3915 60.7373 12.8766 60.2308 13.2617C59.8324 13.5658 59.3498 13.7376 58.8501 13.7534C58.3598 13.7506 57.8806 13.6063 57.4693 13.3377ZM57.8867 9.637C57.3894 10.4668 57.1304 11.17 57.1097 11.7466C57.0859 12.0032 57.136 12.2613 57.2541 12.49C57.3722 12.7187 57.5533 12.9083 57.7757 13.036C58.0467 13.2087 58.3732 13.2703 58.688 13.2081C59.0501 13.1186 59.3805 12.9299 59.6426 12.6628C59.9993 12.3157 60.3071 11.921 60.5571 11.4896C60.8657 11.0055 61.1021 10.4785 61.2586 9.92528C61.3709 9.54887 61.3739 9.14802 61.2675 8.76991C61.1715 8.47493 60.9718 8.2254 60.7059 8.0682C60.4902 7.92859 60.2386 7.85557 59.9822 7.85813C59.7271 7.87179 59.4793 7.94855 59.2607 8.0816C58.9944 8.24452 58.756 8.44979 58.5548 8.68946C58.305 8.98502 58.0814 9.30209 57.8867 9.637Z" fill="white"/>
<path d="M61.5392 14.2291C61.4258 14.4374 61.3506 14.6645 61.3172 14.8996C61.2934 15.0847 61.3242 15.2728 61.406 15.4404C61.5102 15.6396 61.6555 15.8141 61.8322 15.9521C61.9423 16.0589 62.0724 16.1425 62.215 16.1982C62.3575 16.2538 62.5096 16.2803 62.6624 16.2762C62.8133 16.2583 62.959 16.2094 63.0903 16.1325C63.2217 16.0556 63.3359 15.9524 63.4261 15.8292C63.5616 15.6753 63.6597 15.4917 63.7124 15.2929C63.7515 15.0915 63.7454 14.8838 63.6947 14.685C63.6126 14.3664 63.5019 14.056 63.3639 13.7576C63.2231 13.4426 63.1174 13.1128 63.0487 12.7743C62.9987 12.5288 62.9987 12.2756 63.0487 12.0301C63.1004 11.8024 63.2063 11.5907 63.3572 11.4134C63.5577 11.159 63.8278 10.9695 64.1342 10.8681C64.4401 10.7731 64.7673 10.7731 65.0732 10.8681C65.4321 10.9772 65.7636 11.1624 66.0455 11.4111C66.2204 11.5646 66.3871 11.7272 66.545 11.8983C66.7414 12.1088 66.9232 12.3328 67.0888 12.5687L66.2741 13.5498L65.9167 13.2481C66.0239 13.0384 66.0937 12.8115 66.1232 12.5777C66.1402 12.4065 66.1095 12.2339 66.0344 12.0793C65.9364 11.9073 65.8068 11.7556 65.6526 11.6324C65.5094 11.5089 65.3412 11.4181 65.1598 11.3664C64.9919 11.3201 64.814 11.3255 64.6492 11.3821C64.4692 11.4452 64.3107 11.5583 64.1919 11.7083C64.0616 11.8551 63.9687 12.0315 63.9211 12.2223C63.8839 12.4116 63.8876 12.6068 63.9322 12.7944C64.0046 13.0785 64.1027 13.3552 64.2252 13.6213C64.3774 13.9535 64.4964 14.3001 64.5804 14.656C64.6404 14.9149 64.6464 15.1835 64.5982 15.4449C64.5443 15.7107 64.4227 15.958 64.2452 16.1622C64.067 16.3873 63.8439 16.5723 63.5903 16.7053C63.3771 16.8104 63.1417 16.8618 62.9044 16.855C62.6596 16.8427 62.42 16.7795 62.2007 16.6695C61.9478 16.5462 61.7107 16.3924 61.4948 16.2114C61.0623 15.8299 60.6783 15.396 60.3516 14.9197L61.1796 13.9252L61.5392 14.2291Z" fill="white"/>
<path d="M65.4028 18.1544C65.2906 18.2508 65.1881 18.3578 65.0964 18.474C65.0361 18.5458 64.9915 18.6295 64.9654 18.7198C64.9456 18.793 64.9456 18.8701 64.9654 18.9433C65.0031 19.0561 65.0522 19.1647 65.112 19.2673L64.941 19.4215L63.5625 17.8773L63.7334 17.7231C63.8462 17.8115 63.9776 17.8726 64.1175 17.9019C64.2175 17.9086 64.3169 17.8811 64.3994 17.8237C64.5422 17.7255 64.6773 17.6165 64.8034 17.4974L67.8268 14.7621C67.9458 14.6578 68.0577 14.5459 68.162 14.4269C68.2171 14.362 68.2573 14.2857 68.2797 14.2034C68.2963 14.1397 68.2963 14.0727 68.2797 14.009C68.2499 13.9036 68.2089 13.8017 68.1576 13.705L68.3307 13.5508L69.8847 15.2939C70.376 15.8437 70.6364 16.3473 70.666 16.8046C70.6734 17.0476 70.6236 17.2889 70.5206 17.5087C70.4176 17.7286 70.2643 17.9207 70.0733 18.0695C69.8523 18.2756 69.5917 18.4338 69.3075 18.5343C69.0523 18.6228 68.7795 18.6474 68.5128 18.6058C68.2412 18.5596 67.9829 18.4544 67.7558 18.2975C67.5106 18.1282 67.287 17.9293 67.0898 17.7052C66.8679 17.4438 66.6814 17.2382 66.5637 17.0862L65.4028 18.1544ZM66.8545 16.8404L67.2186 17.2605C67.4113 17.489 67.6447 17.6792 67.9068 17.8214C68.122 17.9311 68.3684 17.9619 68.6038 17.9086C68.8902 17.8279 69.151 17.6739 69.3608 17.4617C69.5358 17.3125 69.6812 17.1313 69.7892 16.9275C69.8713 16.768 69.9139 16.5909 69.9135 16.4113C69.9087 16.238 69.8639 16.0681 69.7825 15.9152C69.6929 15.7424 69.581 15.5824 69.4496 15.4392C69.2431 15.2157 69.0811 15.0369 68.9679 14.9274L66.8545 16.8404Z" fill="white"/>
<path d="M68.6306 22.2214C68.5032 22.3087 68.3816 22.4042 68.2666 22.5075C68.2057 22.5613 68.156 22.6266 68.1201 22.6997C68.0925 22.7628 68.0818 22.8322 68.0891 22.9008C68.1051 23.0114 68.1349 23.1195 68.1778 23.2226L67.9891 23.3567L66.8438 21.7298L67.0323 21.5957C67.1355 21.6956 67.2589 21.7719 67.3942 21.8192C67.4922 21.8363 67.593 21.8197 67.6805 21.7722C67.8367 21.6947 67.9853 21.6026 68.1245 21.4974L71.4543 19.1352C71.585 19.0464 71.7091 18.9478 71.8251 18.8402C71.8865 18.7857 71.9356 18.7187 71.9693 18.6436C71.9929 18.5817 72.0013 18.515 71.9937 18.4492C71.9769 18.3411 71.9478 18.2354 71.9072 18.1341L72.0958 18L73.2413 19.6291L73.0526 19.7632C72.9739 19.6919 72.8875 19.6297 72.7951 19.5777C72.7362 19.549 72.6718 19.5337 72.6064 19.533C72.5238 19.5398 72.4436 19.5642 72.3711 19.6045C72.229 19.679 72.0932 19.765 71.9649 19.8615L68.6306 22.2214Z" fill="white"/>
<path d="M73.9503 20.625L76.3611 25.1325L74.9204 25.9147L74.6984 25.5057C74.8652 25.3555 75.0203 25.1926 75.1623 25.0186C75.2561 24.9122 75.3312 24.7905 75.3843 24.6588C75.4198 24.564 75.4334 24.4624 75.4243 24.3615C75.3998 24.2312 75.3524 24.1064 75.2844 23.9928L75.0025 23.4632L70.7648 25.7627C70.6337 25.8313 70.5089 25.9113 70.3919 26.0019C70.3162 26.0575 70.2527 26.1282 70.2054 26.2097C70.1693 26.2784 70.1518 26.3555 70.1543 26.4332C70.1644 26.5523 70.1875 26.67 70.2231 26.784L70.0189 26.8935L69 24.9895L69.2042 24.88C69.2597 24.9468 69.3198 25.0095 69.384 25.0677C69.432 25.1142 69.4876 25.152 69.5483 25.1795C69.6039 25.2025 69.6636 25.2139 69.7237 25.213C69.8041 25.2099 69.8835 25.194 69.959 25.1661C70.0931 25.1164 70.223 25.0558 70.3475 24.985L74.5852 22.6855L74.3032 22.1603C74.2478 22.0506 74.1776 21.9491 74.0946 21.8586C74.0164 21.7826 73.9188 21.73 73.8127 21.7066C73.6667 21.6753 73.5164 21.6701 73.3687 21.691C73.1533 21.7175 72.9403 21.7609 72.7316 21.8206L72.5096 21.4072L73.9503 20.625Z" fill="white"/>
<path d="M71.6682 30.8926L71.8902 30.8122C71.9519 30.9193 72.0265 31.0183 72.1122 31.1072C72.1679 31.1641 72.2402 31.2017 72.3186 31.2144C72.4115 31.2235 72.5052 31.2097 72.5917 31.1742C72.7006 31.1321 72.8054 31.0797 72.9047 31.0178C73.0112 30.9507 73.1266 30.868 73.2576 30.7719L73.766 30.3965L73.009 28.3271H72.5206C72.3374 28.3274 72.1543 28.3386 71.9723 28.3606C71.864 28.3739 71.7575 28.3993 71.6549 28.4366C71.582 28.4566 71.5141 28.4919 71.4556 28.54C71.3971 28.5881 71.3493 28.6481 71.3152 28.716C71.2682 28.8711 71.2682 29.0368 71.3152 29.192L71.0933 29.2724L70.3984 27.3751L70.6204 27.2969C70.6695 27.378 70.7339 27.4486 70.8101 27.5046C70.8863 27.5606 70.9727 27.6009 71.0644 27.6232C71.338 27.692 71.6193 27.7244 71.9013 27.7193L77.4509 27.7595L77.7084 28.4612L73.3331 31.7865C73.1733 31.9055 73.0206 32.0339 72.8758 32.1709C72.7857 32.2554 72.7146 32.3582 72.6671 32.4726C72.6258 32.5916 72.6136 32.7188 72.6316 32.8436L72.4096 32.924L71.6682 30.8926ZM73.4241 28.3048L74.1034 30.1596L76.6407 28.2623L73.4241 28.3048Z" fill="white"/>
<path d="M73.0943 34.4422L73.3341 35.6579C73.3542 35.7698 73.3839 35.8797 73.4229 35.9864C73.4509 36.0663 73.4906 36.1416 73.5405 36.2099C73.5872 36.2685 73.6445 36.3178 73.7092 36.3551C73.7887 36.3982 73.8729 36.432 73.9601 36.4557C74.0832 36.4869 74.2087 36.5078 74.3352 36.5183C74.484 36.5317 74.7037 36.5406 75.0012 36.5473L75.0944 37.0166L73.2231 37.296L72.3906 33.1259L72.6126 33.0812C72.6665 33.2142 72.7483 33.3339 72.8524 33.4321C72.9351 33.4887 73.0345 33.5154 73.1343 33.5081C73.3069 33.499 73.4785 33.4751 73.6471 33.4365L77.6428 32.6365C77.7986 32.609 77.9522 32.5702 78.1023 32.5203C78.18 32.4937 78.2517 32.452 78.3132 32.3974C78.3601 32.3519 78.3946 32.2949 78.4131 32.232C78.4401 32.1259 78.4565 32.0174 78.462 31.908L78.6839 31.8633L79.0702 33.8164L78.8482 33.8611C78.8054 33.7661 78.7533 33.6755 78.6928 33.5907C78.6536 33.5405 78.6035 33.5 78.5463 33.4723C78.4695 33.4416 78.3868 33.4286 78.3043 33.4343C78.14 33.4441 77.9766 33.4673 77.816 33.5036L73.0943 34.4422Z" fill="white"/>
<path d="M73.4057 44.0606L73.3125 43.6896L73.6854 43.3499C73.5655 43.1482 73.4758 42.9298 73.4191 42.7018C73.3592 42.4487 73.3331 42.1887 73.3414 41.9286C73.3547 41.1308 73.6344 40.5363 74.1849 40.1408C74.7354 39.7452 75.5457 39.5575 76.6268 39.5754C77.2291 39.5709 77.8258 39.6934 78.3782 39.9352C78.8519 40.132 79.2534 40.4716 79.5276 40.9074C79.8019 41.3431 79.9354 41.8536 79.9099 42.3688C79.9059 42.6515 79.8844 42.9336 79.8456 43.2136C79.8028 43.5151 79.7412 43.8137 79.6613 44.1075L78.3671 44.0874V43.6181C78.604 43.5591 78.8292 43.4601 79.0331 43.3253C79.1831 43.2227 79.3021 43.0804 79.3772 42.9141C79.4529 42.7175 79.4906 42.5082 79.4882 42.2973C79.4969 41.9656 79.3848 41.642 79.1729 41.3878C78.9146 41.0982 78.5832 40.8843 78.214 40.7688C77.712 40.606 77.1874 40.5252 76.6601 40.5296C76.1294 40.5104 75.5985 40.563 75.0817 40.6861C74.7088 40.7646 74.3652 40.9465 74.0895 41.2112C73.8653 41.4477 73.7411 41.7626 73.7432 42.0895C73.713 42.3854 73.792 42.6821 73.9651 42.9231C74.0619 43.0201 74.178 43.0954 74.3058 43.1439C74.4337 43.1925 74.5702 43.2132 74.7066 43.2046H74.9885C75.1927 43.2149 75.3973 43.2029 75.599 43.1689C75.7109 43.1496 75.8141 43.0957 75.8942 43.0147C75.9801 42.9062 76.0401 42.7792 76.0696 42.6437H76.2916L76.2605 44.5544H76.0385C76.0133 44.4606 75.9703 44.3726 75.912 44.2952C75.8637 44.238 75.8029 44.1929 75.7344 44.1634C75.6498 44.1289 75.5609 44.1064 75.4702 44.0963C75.3637 44.0851 75.2149 44.0762 75.0262 44.074L73.4057 44.0606Z" fill="white"/>
<path d="M78.9294 50.4166L77.5309 50.1775L77.6064 49.7305C77.749 49.712 77.8905 49.6859 78.0303 49.6523C78.1379 49.6278 78.2427 49.5926 78.3433 49.5473C78.4251 49.513 78.5002 49.4646 78.5653 49.4042C78.6252 49.3454 78.6708 49.2736 78.6985 49.1942C78.7349 49.0943 78.7609 48.991 78.7762 48.8858L79.0248 47.4108L76.5897 46.984L76.4209 47.9807C76.397 48.0904 76.397 48.204 76.4209 48.3137C76.4523 48.403 76.5095 48.4809 76.5852 48.5371C76.713 48.6288 76.8517 48.7039 76.9981 48.7606L76.9226 49.2076L75.1468 48.9059L75.22 48.4589C75.3706 48.454 75.5198 48.4292 75.664 48.3852C75.7542 48.3562 75.8349 48.3029 75.8971 48.231C75.9601 48.1352 75.9997 48.0256 76.0125 47.9114L76.179 46.9125L73.5152 46.4655L73.271 47.9159C73.2473 48.0403 73.2398 48.1672 73.2488 48.2936C73.2561 48.3896 73.2882 48.4821 73.342 48.5617C73.4022 48.6489 73.4774 48.7246 73.564 48.7852C73.6566 48.8566 73.7554 48.9194 73.8592 48.9729C73.9613 49.0266 74.1145 49.1025 74.3143 49.1964L74.2366 49.659L72.625 49.2925L73.3353 44.9727L73.5573 45.0129C73.5581 45.1564 73.5916 45.2979 73.655 45.4264C73.7126 45.5091 73.7963 45.5697 73.8925 45.5984C74.057 45.6519 74.2255 45.6915 74.3964 45.7169L78.4055 46.3985C78.5603 46.4273 78.7167 46.446 78.8739 46.4543C78.9555 46.457 79.0368 46.4442 79.1136 46.4164C79.1737 46.3894 79.2263 46.3479 79.2668 46.2957C79.3312 46.2066 79.3855 46.1107 79.4289 46.0096L79.6509 46.0499L78.9294 50.4166Z" fill="white"/>
<path d="M73.6307 54.4014C73.4087 54.4461 73.2311 54.4796 73.0713 54.5064C72.9114 54.5332 72.7383 54.5556 72.5452 54.5735L72.5252 54.6316C72.7116 54.6807 73.0735 54.7925 73.6151 54.9712C74.1568 55.15 74.6429 55.3132 75.0736 55.4651L76.0059 55.7936C76.1511 55.8484 76.2994 55.8946 76.4499 55.9322C76.5287 55.9536 76.6112 55.9582 76.6919 55.9456C76.7538 55.9311 76.811 55.9011 76.8583 55.8584C76.9343 55.7819 77.0027 55.6981 77.0626 55.6081L77.2846 55.6841L76.7251 57.2909L76.5032 57.2149C76.5147 57.1095 76.5147 57.0031 76.5032 56.8976C76.4949 56.835 76.4721 56.7753 76.4366 56.7233C76.386 56.6591 76.3225 56.6065 76.2501 56.5691C76.103 56.4935 75.9501 56.4299 75.7928 56.3791L70.8203 54.6271L71.0157 54.0684L76.0237 53.0404C76.3345 52.9756 76.5609 52.9331 76.7007 52.9086C76.8406 52.884 76.9804 52.8639 77.1158 52.8482L77.1425 52.7722C76.9072 52.7141 76.4898 52.5838 75.8905 52.3812C75.2911 52.1823 74.6962 51.9767 74.1146 51.7688L73.2089 51.4515C73.0636 51.3981 72.9154 51.3534 72.7649 51.3174C72.6856 51.3033 72.6045 51.3033 72.5252 51.3174C72.4577 51.3318 72.3951 51.3634 72.3431 51.409C72.2625 51.4858 72.1923 51.5729 72.1345 51.6683L71.9125 51.5923L72.4786 49.9609L72.7005 50.0391C72.6782 50.181 72.6881 50.3262 72.7294 50.4637C72.7714 50.5546 72.8426 50.6286 72.9314 50.6738C73.085 50.7549 73.2455 50.8222 73.4109 50.8749L77.2468 52.2158C77.392 52.27 77.5402 52.3155 77.6908 52.3521C77.7713 52.3689 77.8544 52.3689 77.935 52.3521C77.9991 52.3362 78.0579 52.3039 78.1059 52.2582C78.1833 52.1816 78.2525 52.0969 78.3123 52.0057L78.5343 52.0817L78.0482 53.4807L73.6307 54.4014Z" fill="white"/>
<path d="M73.8766 62.6762L72.6357 61.9857L72.8577 61.579C72.9985 61.6094 73.1408 61.6325 73.2839 61.6483C73.3932 61.6581 73.5032 61.6581 73.6125 61.6483C73.699 61.6418 73.7838 61.6206 73.8633 61.5857C73.9385 61.5498 74.0046 61.497 74.0564 61.4315C74.1235 61.3497 74.1823 61.2614 74.2318 61.1678L74.9533 59.8582L72.7978 58.6581L72.3116 59.552C72.2531 59.6477 72.2167 59.7554 72.2051 59.8671C72.2025 59.9628 72.2305 60.0568 72.285 60.1353C72.3749 60.2639 72.4809 60.3803 72.6002 60.4817L72.3782 60.8706L70.8132 59.9856L71.0352 59.5967C71.1788 59.6439 71.3282 59.6702 71.4792 59.675C71.5739 59.6787 71.6678 59.6555 71.75 59.6079C71.8443 59.5405 71.9205 59.4507 71.972 59.3464L72.4581 58.4525L70.0873 57.1296L69.3792 58.4146C69.3149 58.5236 69.2657 58.6408 69.2327 58.7632C69.2082 58.8562 69.2082 58.954 69.2327 59.047C69.259 59.1488 69.3034 59.2449 69.3636 59.3308C69.4299 59.4292 69.5042 59.5219 69.5856 59.6079C69.6656 59.6928 69.7832 59.8158 69.9408 59.9744L69.7188 60.3834L68.3203 59.5006L70.4292 55.668L70.629 55.782C70.5839 55.9187 70.5695 56.0637 70.5868 56.2066C70.6152 56.3029 70.6736 56.3875 70.7533 56.448C70.8933 56.5526 71.0418 56.6453 71.1973 56.7251L74.749 58.7095C74.8855 58.7891 75.0272 58.8593 75.173 58.9196C75.2485 58.9503 75.3292 58.9655 75.4105 58.9643C75.4766 58.9577 75.5403 58.9364 75.597 58.9017C75.6854 58.8353 75.7671 58.7605 75.8412 58.6783L76.0432 58.79L73.8766 62.6762Z" fill="white"/>
<path d="M69.2254 62.976L67.9689 61.9815C67.842 61.8773 67.7077 61.7824 67.5671 61.6977C67.4992 61.6558 67.4238 61.6278 67.3451 61.615C67.2812 61.6109 67.2172 61.6224 67.1587 61.6486C67.0613 61.6962 66.969 61.7539 66.8834 61.8206L66.7014 61.6776L67.9267 60.1133L68.1065 60.2563C68.0407 60.3837 68.0036 60.5241 67.9978 60.6675C68.0082 60.7677 68.0521 60.8614 68.1221 60.9334C68.2427 61.058 68.3726 61.173 68.5106 61.2776L71.7027 63.8029C71.8253 63.903 71.9543 63.9948 72.089 64.0777C72.1565 64.12 72.2322 64.1474 72.311 64.1582C72.3769 64.1646 72.4434 64.1538 72.5041 64.1269C72.6014 64.0791 72.6936 64.0215 72.7794 63.9548L72.9592 64.0979L71.5229 65.9393C71.0701 66.5203 70.6261 66.8719 70.191 66.9941C69.9613 67.0506 69.7212 67.049 69.4923 66.9893C69.2634 66.9296 69.0527 66.8138 68.8791 66.6522C68.5607 66.4163 68.3332 66.0768 68.2353 65.6912C68.1495 65.263 68.1857 64.8191 68.3396 64.4107L68.3108 64.3861C68.1365 64.487 67.9427 64.5487 67.7425 64.5672C67.4693 64.5783 67.1958 64.5565 66.9278 64.5024L66.0598 64.3593C65.8619 64.3212 65.6617 64.2965 65.4605 64.2856C65.3318 64.2795 65.2029 64.2939 65.0787 64.328C64.9568 64.3728 64.8456 64.4428 64.7523 64.5336L64.5703 64.3906L65.3761 63.3604C65.5874 63.3694 65.7979 63.391 66.0066 63.4252C66.2211 63.4595 66.4387 63.4974 66.6592 63.5392L67.5316 63.7001C67.7311 63.7391 67.9327 63.7668 68.1354 63.7828C68.2442 63.7922 68.3537 63.7831 68.4595 63.7559C68.5351 63.7319 68.6052 63.6932 68.666 63.642C68.7495 63.5652 68.824 63.4789 68.8879 63.385L69.2254 62.976ZM71.7382 64.9627L69.5428 63.2263L69.2165 63.6487C69.0745 63.8212 68.9524 64.0094 68.8524 64.2096C68.7793 64.3695 68.7399 64.5431 68.737 64.7191C68.7378 64.9152 68.7891 65.1076 68.8857 65.2778C69.0083 65.4936 69.1738 65.6815 69.3719 65.8298C69.5681 65.996 69.801 66.1124 70.0511 66.1695C70.2678 66.2118 70.4922 66.182 70.6905 66.0846C70.9433 65.9472 71.1619 65.7539 71.3298 65.5192C71.5052 65.2957 71.6406 65.1102 71.7382 64.9627Z" fill="white"/>
<path d="M62.1585 66.5593L62.3139 66.7313C62.2381 66.828 62.1747 66.9338 62.1252 67.0464C62.0967 67.1173 62.089 67.1948 62.103 67.2699C62.1287 67.3608 62.1777 67.4432 62.2451 67.509C62.3239 67.5922 62.4109 67.6671 62.5048 67.7325C62.6069 67.8055 62.7268 67.8837 62.8644 67.9671L63.4016 68.3001L65.0199 66.8162L64.829 66.3693C64.7594 66.198 64.6801 66.0308 64.5915 65.8687C64.5374 65.7735 64.4734 65.6843 64.4005 65.6028C64.355 65.5423 64.2972 65.4923 64.231 65.4561C64.1648 65.4199 64.0917 65.3983 64.0165 65.3927C63.8551 65.4023 63.7004 65.4608 63.5725 65.5603L63.4172 65.3882L64.9 64.0273L65.0554 64.1993C64.9987 64.2757 64.9577 64.3626 64.9348 64.4551C64.9119 64.5476 64.9076 64.6437 64.9222 64.7379C64.9598 65.0186 65.0345 65.2929 65.1442 65.5536L67.202 70.7539L66.6537 71.2567L61.9365 68.4566C61.7677 68.352 61.5928 68.258 61.4126 68.175C61.3003 68.1233 61.1787 68.0952 61.0552 68.0923C60.9307 68.0991 60.8097 68.1359 60.7023 68.1996L60.5469 68.0297L62.1585 66.5593ZM65.2019 67.2297L63.7501 68.5705L66.4517 70.2198L65.2019 67.2297Z" fill="white"/>
<path d="M59.411 69.2435L58.381 69.9273C58.2856 69.9886 58.1957 70.0581 58.1124 70.1352C58.0509 70.1898 57.9985 70.254 57.957 70.3251C57.9224 70.3915 57.8991 70.4633 57.8881 70.5374C57.876 70.6279 57.876 70.7196 57.8881 70.8101C57.9054 70.9367 57.9337 71.0616 57.9725 71.1833C58.0169 71.3263 58.0902 71.5341 58.1945 71.809L57.7994 72.0727L56.8359 70.4346L60.3589 68.0859L60.4854 68.2803C60.3817 68.3792 60.3019 68.5008 60.2523 68.6356C60.2314 68.7338 60.2439 68.8361 60.2878 68.9262C60.363 69.0816 60.4498 69.231 60.5475 69.3731L62.7918 72.7856C62.876 72.9201 62.9695 73.0486 63.0715 73.17C63.1255 73.2321 63.1912 73.283 63.2647 73.3197C63.3248 73.3457 63.3903 73.3565 63.4556 73.351C63.5637 73.3356 63.67 73.3094 63.773 73.2728L63.8995 73.4672L62.2502 74.5667L62.1214 74.3723C62.1928 74.2959 62.2567 74.2128 62.3123 74.1242C62.343 74.0693 62.3612 74.0083 62.3656 73.9454C62.3639 73.8617 62.3442 73.7794 62.3079 73.7041C62.2367 73.5545 62.1536 73.411 62.0593 73.275L59.411 69.2435Z" fill="white"/>
</g>
<defs>
<clipPath id="clip0_6875_13862">
<rect width="82" height="82" fill="white" transform="translate(0 0.5)"/>
</clipPath>
</defs>
</svg>
