<svg width="323" height="83" viewBox="0 0 323 83" fill="none" xmlns="http://www.w3.org/2000/svg">
<path d="M81.9984 41.9225C81.9984 64.566 63.6419 82.9225 40.9984 82.9225C18.3549 82.9225 0 64.566 0 41.9225C0 19.279 18.3565 0.922485 41 0.922485C63.6435 0.922485 82 19.279 82 41.9225H81.9984ZM41 2.72463C19.352 2.72463 1.80215 20.2745 1.80215 41.9225C1.80215 63.5705 19.352 81.1203 41 81.1203C62.648 81.1203 80.1979 63.5705 80.1979 41.9225C80.1979 20.2745 62.648 2.72463 41 2.72463Z" fill="#CCD1DC"/>
<path d="M56.3305 75.7588C56.3305 75.7588 56.3217 75.7623 56.3164 75.7658C56.3217 75.7641 56.3252 75.7623 56.3305 75.7588Z" fill="#CCD1DC"/>
<path d="M78.2959 41.7177C78.2959 21.0939 61.5765 4.37439 40.9526 4.37439C31.564 4.37439 22.9852 7.84054 16.4244 13.5614C14.4444 16.4369 10.332 23.9011 10.332 36.3129C10.332 54.4169 22.3739 59.8233 24.3395 60.9697C24.3395 60.9697 33.4328 65.0249 40.2524 61.7684C57.5864 53.4912 46.5194 43.8676 46.5194 43.8676L41.6656 49.4201L42.1165 31.07L57.68 22.796L55.2221 27.4657C55.2221 27.4657 67.6736 35.1665 67.6736 46.3064C67.6736 60.7236 56.5575 67.2875 56.5575 67.2875C35.2937 85.8774 13.5854 66.5667 11.3244 64.447C15.4939 69.874 21.1179 74.1214 27.6168 76.6079L27.8073 74.8295C27.8073 74.8295 31.4163 76.2776 35.2143 76.2443L35.262 78.6323C37.1181 78.9165 39.0187 79.0642 40.9542 79.0642C43.9885 79.0642 46.9386 78.699 49.7633 78.0162L47.9643 73.5641C47.9643 73.5641 52.091 71.7826 54.5283 70.0312L56.5448 75.6615C69.3837 69.755 78.2991 56.7795 78.2991 41.7193L78.2959 41.7177ZM41.3528 30.5857L41.0352 51.2079L46.5575 44.9409C46.5575 44.9409 50.8779 48.8961 48.7598 53.6547C47.0498 57.494 42.4229 59.7804 42.4229 59.7804L40.4636 54.8011C40.4636 54.8011 38.3709 61.4921 37.9612 61.8605C37.9612 61.8605 34.1696 62.8401 30.0794 61.9446C30.0794 61.9446 30.605 58.6849 31.8339 50.8824C33.0629 43.08 32.8882 37.3767 31.926 32.9054C31.4497 30.6937 29.5507 30.8572 28.0042 31.8162C24.2141 34.1662 12.2136 45.1061 12.2136 45.1061C12.2136 45.1061 11.5991 43.2579 11.2926 41.0969C11.2926 41.0969 25.6193 25.4492 31.6609 23.7502C33.9822 23.0977 36.5846 23.5089 37.4674 22.5832C37.9454 22.0815 38.0613 20.789 38.0613 20.0951L38.0311 18.058C38.0311 18.058 37.785 17.7087 37.4992 17.4133C36.8958 16.7909 35.9241 14.9157 35.9844 12.0244C36.0352 9.52995 37.5516 7.17843 40.7049 7.18002C43.871 7.18002 45.2 9.87451 45.2 12.2705C45.2 14.6665 44.5347 16.7227 43.5725 17.5547C43.3407 17.7547 43.4185 18.5375 43.4185 18.7534C43.4185 18.9694 43.5106 20.5175 43.6328 20.8557C43.7551 21.1939 44.6776 22.2688 47.3292 22.7293C50.3746 23.258 52.091 24.8792 52.091 24.8792L41.3575 30.5873L41.3528 30.5857Z" fill="#CCD1DC"/>
<path d="M27.6133 76.6079C29.914 77.5082 32.6625 78.3211 35.2585 78.6292C32.6069 78.2243 30.049 77.5368 27.6133 76.6047V76.6079Z" fill="#CCD1DC"/>
<path d="M49.7633 78.0161C51.8513 77.5509 54.2187 76.7189 56.3177 75.7646C54.2282 76.7094 52.0354 77.4636 49.7617 78.013V78.0161H49.7633Z" fill="#CCD1DC"/>
<path d="M56.5447 75.6616C56.4733 75.6918 56.4034 75.7267 56.332 75.7584C56.4034 75.7267 56.4749 75.6934 56.5463 75.6616H56.5447Z" fill="#CCD1DC"/>
<path d="M16.427 13.56C17.0558 12.6486 17.9466 12.3549 17.9466 12.3549C9.34389 19.1967 3.35156 29.5951 3.35156 41.4416C3.35156 50.0348 6.25405 57.9499 11.1317 64.2614C11.1317 64.2614 11.1984 64.3265 11.3255 64.4472C6.48904 58.1516 3.45318 50.2714 3.45318 41.7195C3.45318 30.4843 8.5754 20.4081 16.427 13.5616V13.56Z" fill="#CCD1DC"/>
<path d="M92.0023 33.4949L94.8979 33.2127C95.0731 34.1847 95.426 34.8972 95.9587 35.3525C96.4913 35.8078 97.2107 36.0354 98.1144 36.0354C99.0728 36.0354 99.7944 35.8328 100.279 35.4276C100.764 35.0224 101.008 34.5466 101.008 34.0048C101.008 33.6566 100.905 33.3606 100.7 33.117C100.496 32.8735 100.138 32.6595 99.6305 32.4774C99.2822 32.3567 98.4878 32.1427 97.2494 31.8332C95.6536 31.4371 94.5359 30.9522 93.8917 30.3763C92.988 29.5659 92.535 28.5779 92.535 27.4124C92.535 26.6612 92.7467 25.96 93.1724 25.3067C93.598 24.6557 94.2104 24.1571 95.0117 23.8157C95.813 23.4742 96.7782 23.3035 97.9118 23.3035C99.7603 23.3035 101.153 23.7087 102.087 24.5191C103.022 25.3295 103.512 26.4108 103.56 27.7652L100.584 27.895C100.457 27.1369 100.184 26.5929 99.7648 26.2628C99.346 25.9304 98.7177 25.7643 97.88 25.7643C97.0422 25.7643 96.3388 25.9418 95.8494 26.2969C95.5353 26.5246 95.3759 26.8296 95.3759 27.2121C95.3759 27.5603 95.5239 27.8586 95.8175 28.1067C96.1931 28.4208 97.1037 28.7509 98.5515 29.0924C99.9993 29.4338 101.069 29.7889 101.764 30.1532C102.458 30.5197 103 31.0182 103.391 31.651C103.783 32.2839 103.978 33.067 103.978 33.998C103.978 34.8426 103.744 35.6325 103.275 36.37C102.806 37.1076 102.144 37.6562 101.285 38.0136C100.427 38.371 99.3596 38.5508 98.0803 38.5508C96.2182 38.5508 94.7863 38.1206 93.7893 37.2601C92.7899 36.3996 92.1935 35.143 92 33.4949H92.0023Z" fill="#CCD1DC"/>
<path d="M105.879 31.0138C105.879 29.5137 106.104 28.2525 106.553 27.235C106.887 26.4838 107.345 25.8122 107.925 25.2158C108.506 24.6194 109.139 24.1778 109.831 23.8887C110.748 23.4994 111.807 23.3059 113.006 23.3059C115.178 23.3059 116.915 23.9797 118.217 25.3251C119.519 26.6704 120.172 28.5439 120.172 30.9432C120.172 33.3426 119.526 35.1842 118.233 36.525C116.94 37.8703 115.212 38.5396 113.047 38.5396C110.882 38.5396 109.114 37.8703 107.821 36.5341C106.528 35.1956 105.881 33.3562 105.881 31.0115L105.879 31.0138ZM108.943 30.9137C108.943 32.5823 109.328 33.8479 110.099 34.7084C110.869 35.5689 111.848 35.9991 113.034 35.9991C114.22 35.9991 115.192 35.5735 115.954 34.7175C116.715 33.8639 117.095 32.5823 117.095 30.875C117.095 29.1677 116.724 27.927 115.984 27.0961C115.244 26.2652 114.261 25.8509 113.034 25.8509C111.807 25.8509 110.819 26.2721 110.07 27.1121C109.319 27.9521 108.945 29.22 108.945 30.9159L108.943 30.9137Z" fill="#CCD1DC"/>
<path d="M131.923 32.8736L134.807 33.7888C134.365 35.3959 133.63 36.591 132.601 37.3718C131.572 38.1526 130.268 38.5442 128.686 38.5442C126.73 38.5442 125.121 37.8749 123.862 36.5386C122.603 35.2001 121.973 33.3744 121.973 31.0548C121.973 28.6031 122.605 26.6978 123.871 25.341C125.137 23.982 126.803 23.3059 128.866 23.3059C130.669 23.3059 132.132 23.8386 133.257 24.9039C133.926 25.5345 134.429 26.4382 134.764 27.6174L131.818 28.3208C131.643 27.556 131.281 26.955 130.728 26.5111C130.175 26.0695 129.503 25.8487 128.713 25.8487C127.62 25.8487 126.735 26.2402 126.054 27.0256C125.374 27.8086 125.034 29.0789 125.034 30.834C125.034 32.6961 125.369 34.0232 126.041 34.8131C126.71 35.603 127.582 35.9991 128.654 35.9991C129.444 35.9991 130.124 35.7487 130.694 35.2456C131.263 34.7426 131.672 33.9527 131.921 32.8736H131.923Z" fill="#CCD1DC"/>
<path d="M137.27 38.289V23.5562H140.245V38.289H137.27Z" fill="#CCD1DC"/>
<path d="M143.074 38.289V23.5562H153.999V26.0488H146.049V29.3155H153.446V31.799H146.049V35.81H154.281V38.2936H143.074V38.289Z" fill="#CCD1DC"/>
<path d="M156.797 23.5562H162.235C163.462 23.5562 164.396 23.6495 165.04 23.8384C165.905 24.0934 166.645 24.5464 167.262 25.1952C167.878 25.8439 168.347 26.6407 168.668 27.5808C168.989 28.5233 169.151 29.6842 169.151 31.0637C169.151 32.2771 169.001 33.3219 168.698 34.1983C168.329 35.2705 167.803 36.1378 167.12 36.8003C166.604 37.3034 165.907 37.6949 165.031 37.9772C164.375 38.1843 163.496 38.289 162.397 38.289H156.799V23.5562H156.797ZM159.772 26.0488V35.8078H161.994C162.825 35.8078 163.423 35.76 163.792 35.6666C164.275 35.546 164.676 35.3411 164.994 35.0543C165.313 34.7674 165.572 34.2917 165.773 33.6315C165.973 32.9736 166.073 32.0722 166.073 30.934C166.073 29.7958 165.973 28.9216 165.773 28.3116C165.572 27.7015 165.29 27.2257 164.928 26.8843C164.566 26.5428 164.106 26.3106 163.551 26.19C163.137 26.0966 162.322 26.0488 161.108 26.0488H159.772Z" fill="#CCD1DC"/>
<path d="M184.959 38.289H181.722L180.436 34.9427H174.546L173.331 38.289H170.176L175.915 23.5562H179.061L184.961 38.289H184.959ZM179.482 32.4614L177.451 26.9935L175.462 32.4614H179.482Z" fill="#CCD1DC"/>
<path d="M186.523 23.5562H191.962C193.189 23.5562 194.122 23.6495 194.766 23.8384C195.631 24.0934 196.371 24.5464 196.988 25.1952C197.605 25.8462 198.074 26.6407 198.395 27.5808C198.716 28.5233 198.877 29.6842 198.877 31.0637C198.877 32.2771 198.727 33.3219 198.424 34.1983C198.056 35.2705 197.53 36.1378 196.847 36.8003C196.33 37.3034 195.634 37.6949 194.757 37.9772C194.102 38.1843 193.223 38.289 192.123 38.289H186.526V23.5562H186.523ZM189.496 26.0488V35.8078H191.718C192.549 35.8078 193.148 35.76 193.517 35.6666C193.999 35.546 194.4 35.3411 194.718 35.0543C195.037 34.7674 195.297 34.2917 195.497 33.6315C195.697 32.9736 195.798 32.0722 195.798 30.934C195.798 29.7958 195.697 28.9216 195.497 28.3116C195.297 27.7015 195.014 27.2257 194.652 26.8843C194.291 26.5428 193.831 26.3106 193.275 26.19C192.861 26.0966 192.046 26.0488 190.833 26.0488H189.496Z" fill="#CCD1DC"/>
<path d="M207.117 38.289V23.5562H211.891C213.701 23.5562 214.88 23.629 215.428 23.777C216.273 23.9978 216.979 24.4804 217.55 25.2202C218.121 25.96 218.404 26.9161 218.404 28.0885C218.404 28.9922 218.24 29.7525 217.912 30.3694C217.584 30.9863 217.165 31.4712 216.66 31.8218C216.155 32.1746 215.64 32.4068 215.119 32.5206C214.409 32.6618 213.38 32.7323 212.034 32.7323H210.095V38.289H207.119H207.117ZM210.092 26.0488V30.2306H211.72C212.892 30.2306 213.676 30.1532 214.072 29.9984C214.468 29.8436 214.777 29.6023 215 29.2745C215.223 28.9467 215.337 28.5642 215.337 28.1295C215.337 27.5945 215.18 27.1506 214.864 26.8023C214.547 26.454 214.151 26.2355 213.669 26.149C213.314 26.083 212.601 26.0488 211.529 26.0488H210.092Z" fill="#CCD1DC"/>
<path d="M220.848 38.289V23.5562H231.772V26.0488H223.823V29.3155H231.219V31.799H223.823V35.81H232.054V38.2936H220.848V38.289Z" fill="#CCD1DC"/>
<path d="M234.59 38.289V23.5562H240.852C242.428 23.5562 243.57 23.6882 244.283 23.9545C244.995 24.2209 245.569 24.6898 245.997 25.3659C246.425 26.042 246.641 26.816 246.641 27.6878C246.641 28.7942 246.316 29.707 245.667 30.4263C245.016 31.1457 244.046 31.601 242.753 31.7876C243.397 32.1632 243.928 32.5753 244.347 33.0237C244.765 33.4722 245.33 34.2689 246.04 35.4162L247.839 38.2913H244.281L242.129 35.0861C241.364 33.9411 240.843 33.2195 240.561 32.9213C240.279 32.6231 239.98 32.4182 239.666 32.3067C239.352 32.1974 238.851 32.1405 238.168 32.1405H237.565V38.2913H234.59V38.289ZM237.565 29.7867H239.766C241.194 29.7867 242.084 29.7275 242.439 29.6068C242.794 29.4862 243.072 29.279 243.272 28.9831C243.472 28.6872 243.573 28.3207 243.573 27.8768C243.573 27.3805 243.441 26.9821 243.174 26.6748C242.91 26.3721 242.537 26.1786 242.054 26.0966C241.813 26.0625 241.089 26.0465 239.882 26.0465H237.561V29.7844L237.565 29.7867Z" fill="#CCD1DC"/>
<path d="M249.414 23.5562H252.389V31.5372C252.389 32.8029 252.426 33.6247 252.501 34.0003C252.628 34.6035 252.931 35.0884 253.409 35.4526C253.887 35.8169 254.543 35.999 255.374 35.999C256.205 35.999 256.853 35.826 257.284 35.48C257.712 35.1362 257.971 34.7105 258.058 34.2097C258.144 33.7089 258.187 32.8735 258.187 31.708V23.5562H261.163V31.2959C261.163 33.0647 261.083 34.3144 260.921 35.0452C260.76 35.7759 260.464 36.3928 260.031 36.8936C259.599 37.3967 259.023 37.7973 258.299 38.0933C257.575 38.3915 256.63 38.5417 255.465 38.5417C254.058 38.5417 252.99 38.3778 252.264 38.0546C251.538 37.7313 250.964 37.3079 250.541 36.7889C250.12 36.2699 249.84 35.7258 249.708 35.1567C249.514 34.3122 249.416 33.067 249.416 31.4189V23.5584L249.414 23.5562Z" fill="#CCD1DC"/>
<path d="M277.588 38.289H274.351L273.064 34.9427H267.175L265.96 38.289H262.805L268.544 23.5562H271.69L277.59 38.289H277.588ZM272.111 32.4614L270.08 26.9935L268.091 32.4614H272.111Z" fill="#CCD1DC"/>
<path d="M279.203 38.289V23.5562H282.099L288.129 33.3948V23.5562H290.892V38.289H287.908L281.969 28.6803V38.289H279.205H279.203Z" fill="#CCD1DC"/>
<path d="M307.326 38.289H304.089L302.803 34.9427H296.914L295.698 38.289H292.543L298.282 23.5562H301.428L307.328 38.289H307.326ZM301.849 32.4614L299.818 26.9935L297.829 32.4614H301.849Z" fill="#CCD1DC"/>
<path d="M92 46.4274H97.4383C98.6653 46.4274 99.5986 46.5207 100.243 46.7096C101.108 46.9646 101.848 47.4176 102.465 48.0664C103.082 48.7152 103.55 49.5119 103.871 50.452C104.192 51.3945 104.354 52.5555 104.354 53.935C104.354 55.1483 104.204 56.1931 103.901 57.0696C103.532 58.1417 103.006 59.0091 102.323 59.6715C101.807 60.1746 101.11 60.5661 100.234 60.8484C99.5781 61.0555 98.6995 61.1603 97.5999 61.1603H92.0023V46.4274H92ZM94.973 48.92V58.679H97.1948C98.0256 58.679 98.6243 58.6312 98.9931 58.5378C99.4757 58.4172 99.8764 58.2123 100.195 57.9255C100.514 57.6387 100.773 57.1629 100.974 56.5027C101.174 55.8449 101.274 54.9434 101.274 53.8052C101.274 52.667 101.174 51.7929 100.974 51.1828C100.773 50.5727 100.491 50.0969 100.129 49.7555C99.7671 49.414 99.3073 49.1818 98.7518 49.0612C98.3375 48.9678 97.5226 48.92 96.3092 48.92H94.973Z" fill="#CCD1DC"/>
<path d="M106.879 61.1603V46.4274H117.803V48.92H109.854V52.1867H117.25V54.6702H109.854V58.6813H118.086V61.1648H106.879V61.1603Z" fill="#CCD1DC"/>
<path d="M126.285 61.1603V46.4274H130.738L133.41 56.4777L136.053 46.4274H140.515V61.1603H137.751V49.562L134.826 61.1603H131.963L129.049 49.562V61.1603H126.285Z" fill="#CCD1DC"/>
<path d="M143.469 61.1603V46.4274H154.393V48.92H146.444V52.1867H153.84V54.6702H146.444V58.6813H154.675V61.1648H143.469V61.1603Z" fill="#CCD1DC"/>
<path d="M157.188 46.4274H162.626C163.853 46.4274 164.786 46.5207 165.43 46.7096C166.295 46.9646 167.035 47.4176 167.652 48.0664C168.269 48.7152 168.738 49.5119 169.059 50.452C169.38 51.3945 169.542 52.5555 169.542 53.935C169.542 55.1483 169.391 56.1931 169.089 57.0696C168.72 58.1417 168.194 59.0091 167.511 59.6715C166.994 60.1746 166.298 60.5661 165.421 60.8484C164.766 61.0555 163.887 61.1603 162.787 61.1603H157.19V46.4274H157.188ZM160.163 48.92V58.679H162.385C163.215 58.679 163.814 58.6312 164.183 58.5378C164.665 58.4172 165.066 58.2123 165.385 57.9255C165.704 57.6387 165.963 57.1629 166.163 56.5027C166.364 55.8449 166.464 54.9434 166.464 53.8052C166.464 52.667 166.364 51.7929 166.163 51.1828C165.963 50.5727 165.681 50.0969 165.319 49.7555C164.957 49.414 164.497 49.1818 163.942 49.0612C163.527 48.9678 162.712 48.92 161.499 48.92H160.163Z" fill="#CCD1DC"/>
<path d="M171.969 61.1603V46.4274H174.944V61.1603H171.969Z" fill="#CCD1DC"/>
<path d="M187.204 55.7422L190.088 56.6573C189.647 58.2644 188.911 59.4595 187.882 60.2403C186.854 61.0211 185.549 61.4127 183.967 61.4127C182.012 61.4127 180.402 60.7434 179.143 59.4072C177.884 58.0686 177.254 56.243 177.254 53.9233C177.254 51.4716 177.887 49.5663 179.152 48.2095C180.418 46.8505 182.084 46.1744 184.147 46.1744C185.95 46.1744 187.414 46.7071 188.538 47.7725C189.207 48.403 189.71 49.3068 190.045 50.4859L187.099 51.1894C186.924 50.4245 186.562 49.8235 186.009 49.3796C185.456 48.9357 184.784 48.7172 183.994 48.7172C182.902 48.7172 182.016 49.1087 181.335 49.8941C180.655 50.6772 180.316 51.9474 180.316 53.7025C180.316 55.5646 180.65 56.8917 181.322 57.6817C181.991 58.4716 182.863 58.8677 183.935 58.8677C184.725 58.8677 185.406 58.6173 185.975 58.1142C186.544 57.6111 186.954 56.8212 187.202 55.7422H187.204Z" fill="#CCD1DC"/>
<path d="M192.555 61.1603V46.4274H195.53V61.1603H192.555Z" fill="#CCD1DC"/>
<path d="M198.395 61.1603V46.4274H201.29L207.32 56.266V46.4274H210.084V61.1603H207.1L201.16 51.5516V61.1603H198.397H198.395Z" fill="#CCD1DC"/>
<path d="M226.517 61.1603H223.28L221.994 57.8139H216.105L214.889 61.1603H211.734L217.473 46.4274H220.619L226.52 61.1603H226.517ZM221.04 55.3304L219.01 49.8625L217.02 55.3304H221.04Z" fill="#CCD1DC"/>
<path d="M232.957 61.1603V46.4274H235.932V61.1603H232.957Z" fill="#CCD1DC"/>
<path d="M238.797 61.1603V46.4274H241.692L247.723 56.266V46.4274H250.486V61.1603H247.502L241.563 51.5516V61.1603H238.799H238.797Z" fill="#CCD1DC"/>
<path d="M256.947 61.1603V48.92H252.574V46.4274H264.282V48.92H259.92V61.1603H256.945H256.947Z" fill="#CCD1DC"/>
<path d="M266.203 61.1603V46.4274H277.128V48.92H269.178V52.1867H276.574V54.6702H269.178V58.6813H277.41V61.1648H266.203V61.1603Z" fill="#CCD1DC"/>
<path d="M279.941 61.1603V46.4274H286.204C287.779 46.4274 288.924 46.5594 289.637 46.8257C290.349 47.0921 290.921 47.561 291.351 48.2371C291.781 48.9132 291.995 49.6872 291.995 50.559C291.995 51.6654 291.669 52.5782 291.021 53.2976C290.37 54.0169 289.4 54.4722 288.107 54.6588C288.751 55.0345 289.281 55.4465 289.7 55.8949C290.119 56.3434 290.684 57.1401 291.394 58.2874L293.192 61.1625H289.634L287.483 57.9574C286.718 56.8123 286.197 56.0907 285.915 55.7925C285.632 55.4943 285.334 55.2894 285.02 55.1779C284.706 55.0686 284.205 55.0117 283.522 55.0117H282.919V61.1625H279.944L279.941 61.1603ZM282.917 52.6579H285.118C286.545 52.6579 287.435 52.5987 287.79 52.4781C288.146 52.3574 288.423 52.1502 288.624 51.8543C288.824 51.5584 288.924 51.1919 288.924 50.748C288.924 50.2517 288.792 49.8534 288.528 49.546C288.264 49.2433 287.888 49.0498 287.406 48.9678C287.164 48.9337 286.441 48.9178 285.234 48.9178H282.912V52.6556L282.917 52.6579Z" fill="#CCD1DC"/>
<path d="M294.828 61.1603V46.4274H297.724L303.754 56.266V46.4274H306.517V61.1603H303.533L297.594 51.5516V61.1603H294.83H294.828Z" fill="#CCD1DC"/>
<path d="M322.951 61.1603H319.714L318.428 57.8139H312.539L311.323 61.1603H308.168L313.907 46.4274H317.053L322.953 61.1603H322.951ZM317.474 55.3304L315.443 49.8625L313.454 55.3304H317.474Z" fill="#CCD1DC"/>
</svg>
