<svg width="323" height="84" viewBox="0 0 323 84" fill="none" xmlns="http://www.w3.org/2000/svg">
<g clip-path="url(#clip0_6875_14035)">
<path d="M81.9984 42.4219C81.9984 65.0654 63.6419 83.4219 40.9984 83.4219C18.3549 83.4219 0 65.0654 0 42.4219C0 19.7784 18.3565 1.42188 41 1.42188C63.6435 1.42188 82 19.7784 82 42.4219H81.9984ZM41 3.22402C19.352 3.22402 1.80215 20.7739 1.80215 42.4219C1.80215 64.0699 19.352 81.6197 41 81.6197C62.648 81.6197 80.1979 64.0699 80.1979 42.4219C80.1979 20.7739 62.648 3.22402 41 3.22402Z" fill="#5B585A"/>
<path d="M56.3266 76.2578C56.3266 76.2578 56.3178 76.2613 56.3125 76.2648C56.3178 76.2631 56.3213 76.2613 56.3266 76.2578Z" fill="#5B585A"/>
<path d="M78.292 42.2183C78.292 21.5945 61.5726 4.875 40.9487 4.875C31.5601 4.875 22.9813 8.34115 16.4205 14.062C14.4405 16.9375 10.3281 24.4017 10.3281 36.8135C10.3281 54.9175 22.37 60.3239 24.3356 61.4703C24.3356 61.4703 33.4289 65.5255 40.2485 62.269C57.5825 53.9918 46.5155 44.3682 46.5155 44.3682L41.6617 49.9207L42.1126 31.5706L57.6761 23.2966L55.2182 27.9663C55.2182 27.9663 67.6697 35.6671 67.6697 46.807C67.6697 61.2242 56.5536 67.7881 56.5536 67.7881C35.2898 86.378 13.5815 67.0673 11.3205 64.9476C15.49 70.3746 21.114 74.622 27.6129 77.1085L27.8034 75.3301C27.8034 75.3301 31.4124 76.7782 35.2104 76.7449L35.2581 79.1329C37.1142 79.4171 39.0148 79.5648 40.9503 79.5648C43.9846 79.5648 46.9347 79.1996 49.7594 78.5168L47.9604 74.0647C47.9604 74.0647 52.0871 72.2832 54.5244 70.5318L56.5409 76.1621C69.3798 70.2556 78.2952 57.2801 78.2952 42.2199L78.292 42.2183ZM41.3489 31.0863L41.0313 51.7085L46.5536 45.4415C46.5536 45.4415 50.874 49.3967 48.7559 54.1553C47.0459 57.9946 42.419 60.281 42.419 60.281L40.4597 55.3017C40.4597 55.3017 38.367 61.9927 37.9573 62.3611C37.9573 62.3611 34.1657 63.3407 30.0755 62.4452C30.0755 62.4452 30.6011 59.1855 31.83 51.383C33.059 43.5806 32.8843 37.8773 31.9221 33.406C31.4458 31.1943 29.5468 31.3578 28.0003 32.3168C24.2102 34.6668 12.2097 45.6067 12.2097 45.6067C12.2097 45.6067 11.5952 43.7585 11.2887 41.5975C11.2887 41.5975 25.6154 25.9498 31.657 24.2508C33.9783 23.5983 36.5807 24.0095 37.4635 23.0838C37.9415 22.5821 38.0574 21.2896 38.0574 20.5957L38.0272 18.5586C38.0272 18.5586 37.7811 18.2093 37.4953 17.9139C36.8919 17.2915 35.9202 15.4163 35.9805 12.525C36.0313 10.0306 37.5477 7.67904 40.701 7.68063C43.8671 7.68063 45.1961 10.3751 45.1961 12.7711C45.1961 15.1671 44.5308 17.2233 43.5686 18.0553C43.3368 18.2553 43.4146 19.0381 43.4146 19.254C43.4146 19.47 43.5067 21.0181 43.6289 21.3563C43.7512 21.6945 44.6737 22.7694 47.3253 23.2299C50.3707 23.7586 52.0871 25.3798 52.0871 25.3798L41.3536 31.0879L41.3489 31.0863Z" fill="#5B585A"/>
<path d="M27.6172 77.1087C29.9179 78.009 32.6664 78.8219 35.2624 79.13C32.6108 78.7251 30.0529 78.0376 27.6172 77.1055V77.1087Z" fill="#5B585A"/>
<path d="M49.7594 78.5171C51.8474 78.0519 54.2148 77.2199 56.3138 76.2656C54.2243 77.2104 52.0315 77.9646 49.7578 78.514V78.5171H49.7594Z" fill="#5B585A"/>
<path d="M56.5408 76.1602C56.4694 76.1904 56.3995 76.2253 56.3281 76.257C56.3995 76.2253 56.471 76.192 56.5424 76.1602H56.5408Z" fill="#5B585A"/>
<path d="M16.427 14.0606C17.0558 13.1492 17.9466 12.8555 17.9466 12.8555C9.34389 19.6973 3.35156 30.0957 3.35156 41.9422C3.35156 50.5354 6.25405 58.4505 11.1317 64.762C11.1317 64.762 11.1984 64.8271 11.3255 64.9478C6.48904 58.6522 3.45318 50.772 3.45318 42.2201C3.45318 30.9849 8.5754 20.9087 16.427 14.0622V14.0606Z" fill="#5B585A"/>
<path d="M92.0023 33.9961L94.8979 33.7139C95.0731 34.6859 95.426 35.3984 95.9587 35.8537C96.4913 36.309 97.2107 36.5366 98.1144 36.5366C99.0728 36.5366 99.7944 36.334 100.279 35.9288C100.764 35.5236 101.008 35.0478 101.008 34.506C101.008 34.1578 100.905 33.8618 100.7 33.6182C100.496 33.3747 100.138 33.1607 99.6305 32.9786C99.2822 32.8579 98.4878 32.6439 97.2494 32.3344C95.6536 31.9383 94.5359 31.4534 93.8917 30.8775C92.988 30.0671 92.535 29.0791 92.535 27.9136C92.535 27.1624 92.7467 26.4612 93.1724 25.8079C93.598 25.1569 94.2104 24.6583 95.0117 24.3169C95.813 23.9754 96.7782 23.8047 97.9118 23.8047C99.7603 23.8047 101.153 24.2099 102.087 25.0203C103.022 25.8307 103.512 26.912 103.56 28.2664L100.584 28.3962C100.457 27.6381 100.184 27.0941 99.7648 26.764C99.346 26.4316 98.7177 26.2655 97.88 26.2655C97.0422 26.2655 96.3388 26.443 95.8494 26.7981C95.5353 27.0258 95.3759 27.3308 95.3759 27.7133C95.3759 28.0615 95.5239 28.3598 95.8175 28.6079C96.1931 28.922 97.1037 29.2521 98.5515 29.5936C99.9993 29.935 101.069 30.2901 101.764 30.6544C102.458 31.0209 103 31.5194 103.391 32.1522C103.783 32.7851 103.978 33.5682 103.978 34.4992C103.978 35.3438 103.744 36.1337 103.275 36.8712C102.806 37.6088 102.144 38.1574 101.285 38.5148C100.427 38.8722 99.3596 39.052 98.0803 39.052C96.2182 39.052 94.7863 38.6218 93.7893 37.7613C92.7899 36.9008 92.1935 35.6442 92 33.9961H92.0023Z" fill="#5B585A"/>
<path d="M105.883 31.5126C105.883 30.0125 106.108 28.7513 106.557 27.7338C106.891 26.9826 107.349 26.311 107.929 25.7146C108.51 25.1182 109.143 24.6766 109.835 24.3875C110.752 23.9982 111.811 23.8047 113.01 23.8047C115.182 23.8047 116.919 24.4785 118.221 25.8239C119.523 27.1692 120.176 29.0427 120.176 31.442C120.176 33.8414 119.53 35.683 118.237 37.0238C116.944 38.3691 115.216 39.0384 113.051 39.0384C110.886 39.0384 109.118 38.3691 107.825 37.0329C106.532 35.6944 105.885 33.855 105.885 31.5103L105.883 31.5126ZM108.947 31.4125C108.947 33.0811 109.332 34.3467 110.103 35.2072C110.873 36.0677 111.852 36.4979 113.038 36.4979C114.224 36.4979 115.196 36.0723 115.958 35.2163C116.719 34.3627 117.099 33.0811 117.099 31.3738C117.099 29.6665 116.728 28.4258 115.988 27.5949C115.248 26.764 114.265 26.3497 113.038 26.3497C111.811 26.3497 110.823 26.7709 110.074 27.6109C109.323 28.4509 108.949 29.7188 108.949 31.4147L108.947 31.4125Z" fill="#5B585A"/>
<path d="M131.927 33.3724L134.811 34.2876C134.369 35.8947 133.634 37.0898 132.605 37.8706C131.576 38.6514 130.272 39.043 128.69 39.043C126.734 39.043 125.125 38.3737 123.866 37.0374C122.607 35.6989 121.977 33.8732 121.977 31.5536C121.977 29.1019 122.609 27.1966 123.875 25.8398C125.141 24.4808 126.807 23.8047 128.87 23.8047C130.673 23.8047 132.136 24.3374 133.261 25.4027C133.93 26.0333 134.433 26.937 134.768 28.1162L131.822 28.8196C131.647 28.0548 131.285 27.4538 130.732 27.0099C130.179 26.5683 129.507 26.3475 128.717 26.3475C127.624 26.3475 126.739 26.739 126.058 27.5244C125.378 28.3074 125.038 29.5777 125.038 31.3328C125.038 33.1949 125.373 34.522 126.045 35.3119C126.714 36.1018 127.586 36.4979 128.658 36.4979C129.448 36.4979 130.128 36.2475 130.698 35.7444C131.267 35.2414 131.676 34.4515 131.925 33.3724H131.927Z" fill="#5B585A"/>
<path d="M137.273 38.7875V24.0547H140.248V38.7875H137.273Z" fill="#5B585A"/>
<path d="M143.07 38.7875V24.0547H153.995V26.5473H146.045V29.814H153.442V32.2975H146.045V36.3085H154.277V38.7921H143.07V38.7875Z" fill="#5B585A"/>
<path d="M156.797 24.0547H162.235C163.462 24.0547 164.396 24.148 165.04 24.3369C165.905 24.5919 166.645 25.0449 167.262 25.6937C167.878 26.3424 168.347 27.1392 168.668 28.0793C168.989 29.0218 169.151 30.1827 169.151 31.5622C169.151 32.7756 169.001 33.8204 168.698 34.6968C168.329 35.769 167.803 36.6363 167.12 37.2988C166.604 37.8019 165.907 38.1934 165.031 38.4757C164.375 38.6828 163.496 38.7875 162.397 38.7875H156.799V24.0547H156.797ZM159.772 26.5473V36.3063H161.994C162.825 36.3063 163.423 36.2585 163.792 36.1651C164.275 36.0445 164.676 35.8396 164.994 35.5528C165.313 35.2659 165.572 34.7902 165.773 34.13C165.973 33.4721 166.073 32.5707 166.073 31.4325C166.073 30.2943 165.973 29.4201 165.773 28.8101C165.572 28.2 165.29 27.7242 164.928 27.3828C164.566 27.0413 164.106 26.8091 163.551 26.6885C163.137 26.5951 162.322 26.5473 161.108 26.5473H159.772Z" fill="#5B585A"/>
<path d="M184.963 38.7875H181.726L180.44 35.4412H174.55L173.335 38.7875H170.18L175.919 24.0547H179.065L184.965 38.7875H184.963ZM179.486 32.9599L177.455 27.492L175.466 32.9599H179.486Z" fill="#5B585A"/>
<path d="M186.523 24.0547H191.962C193.189 24.0547 194.122 24.148 194.766 24.3369C195.631 24.5919 196.371 25.0449 196.988 25.6937C197.605 26.3447 198.074 27.1392 198.395 28.0793C198.716 29.0218 198.877 30.1827 198.877 31.5622C198.877 32.7756 198.727 33.8204 198.424 34.6968C198.056 35.769 197.53 36.6363 196.847 37.2988C196.33 37.8019 195.634 38.1934 194.757 38.4757C194.102 38.6828 193.223 38.7875 192.123 38.7875H186.526V24.0547H186.523ZM189.496 26.5473V36.3063H191.718C192.549 36.3063 193.148 36.2585 193.517 36.1651C193.999 36.0445 194.4 35.8396 194.718 35.5528C195.037 35.2659 195.297 34.7902 195.497 34.13C195.697 33.4721 195.798 32.5707 195.798 31.4325C195.798 30.2943 195.697 29.4201 195.497 28.8101C195.297 28.2 195.014 27.7242 194.652 27.3828C194.291 27.0413 193.831 26.8091 193.275 26.6885C192.861 26.5951 192.046 26.5473 190.833 26.5473H189.496Z" fill="#5B585A"/>
<path d="M207.117 38.7875V24.0547H211.891C213.701 24.0547 214.88 24.1275 215.428 24.2755C216.273 24.4963 216.979 24.9789 217.55 25.7187C218.121 26.4585 218.404 27.4146 218.404 28.587C218.404 29.4907 218.24 30.251 217.912 30.8679C217.584 31.4848 217.165 31.9697 216.66 32.3203C216.155 32.6731 215.64 32.9053 215.119 33.0191C214.409 33.1603 213.38 33.2308 212.034 33.2308H210.095V38.7875H207.119H207.117ZM210.092 26.5473V30.7291H211.72C212.892 30.7291 213.676 30.6517 214.072 30.4969C214.468 30.3421 214.777 30.1008 215 29.773C215.223 29.4452 215.337 29.0627 215.337 28.628C215.337 28.093 215.18 27.6491 214.864 27.3008C214.547 26.9525 214.151 26.734 213.669 26.6475C213.314 26.5815 212.601 26.5473 211.529 26.5473H210.092Z" fill="#5B585A"/>
<path d="M220.852 38.7875V24.0547H231.776V26.5473H223.827V29.814H231.223V32.2975H223.827V36.3085H232.058V38.7921H220.852V38.7875Z" fill="#5B585A"/>
<path d="M234.594 38.7875V24.0547H240.856C242.432 24.0547 243.574 24.1867 244.287 24.453C244.999 24.7194 245.573 25.1883 246.001 25.8644C246.429 26.5405 246.645 27.3145 246.645 28.1863C246.645 29.2927 246.32 30.2055 245.671 30.9248C245.02 31.6442 244.05 32.0995 242.757 32.2861C243.401 32.6617 243.932 33.0738 244.351 33.5222C244.769 33.9707 245.334 34.7674 246.044 35.9147L247.843 38.7898H244.285L242.133 35.5846C241.368 34.4396 240.847 33.718 240.565 33.4198C240.283 33.1216 239.984 32.9167 239.67 32.8052C239.356 32.6959 238.855 32.639 238.172 32.639H237.569V38.7898H234.594V38.7875ZM237.569 30.2852H239.77C241.198 30.2852 242.088 30.226 242.443 30.1053C242.798 29.9847 243.076 29.7775 243.276 29.4816C243.476 29.1857 243.577 28.8192 243.577 28.3753C243.577 27.879 243.445 27.4806 243.178 27.1733C242.914 26.8706 242.541 26.6771 242.058 26.5951C241.817 26.561 241.093 26.545 239.886 26.545H237.565V30.2829L237.569 30.2852Z" fill="#5B585A"/>
<path d="M249.414 24.0547H252.389V32.0357C252.389 33.3014 252.426 34.1232 252.501 34.4988C252.628 35.102 252.931 35.5869 253.409 35.9511C253.887 36.3154 254.543 36.4975 255.374 36.4975C256.205 36.4975 256.853 36.3245 257.284 35.9785C257.712 35.6347 257.971 35.209 258.058 34.7082C258.144 34.2074 258.187 33.372 258.187 32.2065V24.0547H261.163V31.7944C261.163 33.5632 261.083 34.8129 260.921 35.5437C260.76 36.2744 260.464 36.8913 260.031 37.3921C259.599 37.8952 259.023 38.2958 258.299 38.5918C257.575 38.89 256.63 39.0402 255.465 39.0402C254.058 39.0402 252.99 38.8763 252.264 38.5531C251.538 38.2298 250.964 37.8064 250.541 37.2874C250.12 36.7684 249.84 36.2243 249.708 35.6552C249.514 34.8107 249.416 33.5655 249.416 31.9174V24.0569L249.414 24.0547Z" fill="#5B585A"/>
<path d="M277.588 38.7875H274.351L273.064 35.4412H267.175L265.96 38.7875H262.805L268.544 24.0547H271.69L277.59 38.7875H277.588ZM272.111 32.9599L270.08 27.492L268.091 32.9599H272.111Z" fill="#5B585A"/>
<path d="M279.203 38.7875V24.0547H282.099L288.129 33.8933V24.0547H290.892V38.7875H287.908L281.969 29.1788V38.7875H279.205H279.203Z" fill="#5B585A"/>
<path d="M307.33 38.7875H304.093L302.807 35.4412H296.918L295.702 38.7875H292.547L298.286 24.0547H301.432L307.332 38.7875H307.33ZM301.853 32.9599L299.822 27.492L297.833 32.9599H301.853Z" fill="#5B585A"/>
<path d="M92 46.9258H97.4383C98.6653 46.9258 99.5986 47.0191 100.243 47.208C101.108 47.463 101.848 47.916 102.465 48.5648C103.082 49.2136 103.55 50.0103 103.871 50.9504C104.192 51.8929 104.354 53.0539 104.354 54.4334C104.354 55.6467 104.204 56.6915 103.901 57.568C103.532 58.6401 103.006 59.5075 102.323 60.1699C101.807 60.673 101.11 61.0645 100.234 61.3468C99.5781 61.5539 98.6995 61.6587 97.5999 61.6587H92.0023V46.9258H92ZM94.973 49.4184V59.1774H97.1948C98.0256 59.1774 98.6243 59.1296 98.9931 59.0362C99.4757 58.9156 99.8764 58.7107 100.195 58.4239C100.514 58.1371 100.773 57.6613 100.974 57.0011C101.174 56.3433 101.274 55.4418 101.274 54.3036C101.274 53.1654 101.174 52.2913 100.974 51.6812C100.773 51.0711 100.491 50.5953 100.129 50.2539C99.7671 49.9124 99.3073 49.6802 98.7518 49.5596C98.3375 49.4662 97.5226 49.4184 96.3092 49.4184H94.973Z" fill="#5B585A"/>
<path d="M106.883 61.6587V46.9258H117.807V49.4184H109.858V52.6851H117.254V55.1686H109.858V59.1797H118.09V61.6632H106.883V61.6587Z" fill="#5B585A"/>
<path d="M126.281 61.6587V46.9258H130.734L133.406 56.9761L136.049 46.9258H140.511V61.6587H137.747V50.0604L134.822 61.6587H131.959L129.045 50.0604V61.6587H126.281Z" fill="#5B585A"/>
<path d="M143.469 61.6587V46.9258H154.393V49.4184H146.444V52.6851H153.84V55.1686H146.444V59.1797H154.675V61.6632H143.469V61.6587Z" fill="#5B585A"/>
<path d="M157.188 46.9258H162.626C163.853 46.9258 164.785 47.0191 165.429 47.208C166.294 47.463 167.034 47.916 167.651 48.5648C168.268 49.2136 168.738 50.0103 169.059 50.9504C169.38 51.8929 169.542 53.0539 169.542 54.4334C169.542 55.6467 169.391 56.6915 169.089 57.568C168.72 58.6401 168.193 59.5075 167.51 60.1699C166.993 60.673 166.298 61.0645 165.421 61.3468C164.766 61.5539 163.886 61.6587 162.786 61.6587H157.189V46.9258H157.188ZM160.162 49.4184V59.1774H162.384C163.214 59.1774 163.813 59.1296 164.182 59.0362C164.664 58.9156 165.065 58.7107 165.384 58.4239C165.703 58.1371 165.962 57.6613 166.162 57.0011C166.363 56.3433 166.464 55.4418 166.464 54.3036C166.464 53.1654 166.363 52.2913 166.162 51.6812C165.962 51.0711 165.68 50.5953 165.318 50.2539C164.956 49.9124 164.496 49.6802 163.941 49.5596C163.526 49.4662 162.711 49.4184 161.498 49.4184H160.162Z" fill="#5B585A"/>
<path d="M171.969 61.6587V46.9258H174.944V61.6587H171.969Z" fill="#5B585A"/>
<path d="M187.208 56.2436L190.092 57.1587C189.651 58.7658 188.915 59.9609 187.886 60.7417C186.858 61.5225 185.553 61.9141 183.971 61.9141C182.016 61.9141 180.406 61.2448 179.147 59.9086C177.888 58.57 177.258 56.7444 177.258 54.4247C177.258 51.973 177.891 50.0677 179.156 48.7109C180.422 47.3519 182.088 46.6758 184.151 46.6758C185.954 46.6758 187.418 47.2085 188.542 48.2739C189.211 48.9044 189.714 49.8082 190.049 50.9873L187.103 51.6908C186.928 50.9259 186.566 50.3249 186.013 49.881C185.46 49.4371 184.788 49.2186 183.998 49.2186C182.906 49.2186 182.02 49.6101 181.339 50.3955C180.659 51.1786 180.32 52.4488 180.32 54.2039C180.32 56.066 180.654 57.3931 181.326 58.1831C181.995 58.973 182.867 59.3691 183.939 59.3691C184.729 59.3691 185.41 59.1187 185.979 58.6156C186.548 58.1125 186.958 57.3226 187.206 56.2436H187.208Z" fill="#5B585A"/>
<path d="M192.555 61.6587V46.9258H195.53V61.6587H192.555Z" fill="#5B585A"/>
<path d="M198.398 61.6587V46.9258H201.293L207.323 56.7644V46.9258H210.087V61.6587H207.103L201.163 52.05V61.6587H198.4H198.398Z" fill="#5B585A"/>
<path d="M226.517 61.6587H223.28L221.994 58.3123H216.105L214.889 61.6587H211.734L217.473 46.9258H220.619L226.52 61.6587H226.517ZM221.04 55.8288L219.01 50.3609L217.02 55.8288H221.04Z" fill="#5B585A"/>
<path d="M232.953 61.6587V46.9258H235.928V61.6587H232.953Z" fill="#5B585A"/>
<path d="M238.797 61.6587V46.9258H241.692L247.723 56.7644V46.9258H250.486V61.6587H247.502L241.563 52.05V61.6587H238.799H238.797Z" fill="#5B585A"/>
<path d="M256.943 61.6587V49.4184H252.57V46.9258H264.278V49.4184H259.916V61.6587H256.941H256.943Z" fill="#5B585A"/>
<path d="M266.203 61.6587V46.9258H277.128V49.4184H269.178V52.6851H276.574V55.1686H269.178V59.1797H277.41V61.6632H266.203V61.6587Z" fill="#5B585A"/>
<path d="M279.938 61.6587V46.9258H286.201C287.776 46.9258 288.92 47.0578 289.633 47.3241C290.345 47.5905 290.918 48.0594 291.348 48.7355C291.778 49.4116 291.991 50.1856 291.991 51.0574C291.991 52.1638 291.665 53.0766 291.017 53.796C290.366 54.5153 289.396 54.9706 288.103 55.1572C288.747 55.5329 289.278 55.9449 289.697 56.3933C290.116 56.8418 290.681 57.6385 291.391 58.7858L293.188 61.6609H289.63L287.479 58.4558C286.714 57.3107 286.193 56.5891 285.911 56.2909C285.628 55.9927 285.33 55.7878 285.016 55.6763C284.702 55.567 284.201 55.5101 283.518 55.5101H282.915V61.6609H279.94L279.938 61.6587ZM282.913 53.1563H285.115C286.542 53.1563 287.431 53.0971 287.786 52.9765C288.142 52.8558 288.419 52.6486 288.62 52.3527C288.82 52.0568 288.921 51.6903 288.921 51.2464C288.921 50.7501 288.789 50.3518 288.525 50.0444C288.261 49.7417 287.884 49.5482 287.402 49.4662C287.16 49.4321 286.437 49.4162 285.23 49.4162H282.908V53.154L282.913 53.1563Z" fill="#5B585A"/>
<path d="M294.828 61.6587V46.9258H297.724L303.754 56.7644V46.9258H306.517V61.6587H303.533L297.594 52.05V61.6587H294.83H294.828Z" fill="#5B585A"/>
<path d="M322.955 61.6587H319.718L318.432 58.3123H312.543L311.327 61.6587H308.172L313.911 46.9258H317.057L322.957 61.6587H322.955ZM317.478 55.8288L315.447 50.3609L313.458 55.8288H317.478Z" fill="#5B585A"/>
</g>
<defs>
<clipPath id="clip0_6875_14035">
<rect width="323" height="83" fill="white" transform="translate(0 0.5)"/>
</clipPath>
</defs>
</svg>
