<svg width="266" height="82" viewBox="0 0 266 82" fill="none" xmlns="http://www.w3.org/2000/svg">
<path d="M198.629 0.120915C190.779 0.867167 184.375 5.23807 181.069 11.9543C177.971 18.3508 178.177 26.6661 181.689 32.8494C188.3 44.363 205.033 47.2414 215.671 38.6062C218.77 36.0476 221.352 32.2097 222.592 28.1586C223.315 25.6001 223.625 20.6961 223.108 17.9243C221.249 6.41075 210.817 -1.05177 198.629 0.120915ZM204.929 8.6495C211.127 10.3552 214.948 16.8583 214.019 24.001C213.296 29.3313 210.3 33.1692 205.549 34.8749C203.173 35.7278 199.145 35.7278 196.769 34.8749C190.985 32.7428 187.783 27.3058 188.3 20.5895C188.713 14.7261 192.018 10.3552 197.286 8.6495C198.732 8.11647 203.173 8.11647 204.929 8.6495Z" fill="#CCD1DC"/>
<path d="M246.647 0.122218C237.557 0.975077 231.876 6.51866 232.496 13.9812C232.806 18.6719 235.595 21.9767 240.553 23.789C241.689 24.2155 244.891 25.0683 247.68 25.9212C254.497 27.7335 255.943 28.5864 256.149 31.145C256.356 32.8507 255.53 34.13 253.67 35.0894C252.431 35.8357 252.121 35.8357 247.989 35.8357C243.961 35.8357 243.445 35.7291 241.379 35.0894C240.139 34.663 238.074 33.8101 236.834 33.1705L234.665 31.9978L233.116 35.5159L231.566 39.0339L232.496 39.7801C233.942 40.7396 237.247 42.2321 239.933 42.8718C250.365 45.5369 260.281 42.9784 263.793 36.7951C265.445 33.8101 265.755 29.4392 264.516 26.5608C263.689 24.6419 261.211 22.2965 259.041 21.2305C258.112 20.804 255.633 19.9512 253.67 19.4181C244.064 16.753 242.722 16.2199 241.895 14.834C240.862 13.0217 241.585 10.6763 243.548 9.29045C246.337 7.37152 253.36 7.79795 258.422 10.1433C259.558 10.6763 260.591 10.9962 260.694 10.8896C260.901 10.5697 263.38 4.38651 263.38 4.06669C263.38 3.85347 260.694 2.46758 258.835 1.82794C255.633 0.335433 250.675 -0.197604 246.647 0.122218Z" fill="#CCD1DC"/>
<path d="M94.9103 0.545565C86.6472 2.35789 80.5531 8.11469 78.4873 16.2168C77.7643 19.0952 77.661 24.2124 78.384 27.0908C79.9334 33.5938 84.9945 39.5639 91.1919 42.0158C94.3939 43.2951 96.1498 43.6149 100.281 43.6149C104.723 43.5083 107.098 42.9753 110.61 41.2696C114.949 39.1374 118.357 35.6194 120.32 31.3551C121.869 28.0503 122.282 26.2379 122.282 21.7604C122.282 18.4556 122.179 17.4961 121.662 15.7904C119.287 7.90147 113.296 2.35789 105.549 0.652172C102.45 0.0125279 97.6992 0.0125279 94.9103 0.545565ZM103.38 8.54112C109.061 9.92701 112.883 15.0442 112.986 21.5472C112.986 24.5322 112.573 26.5578 111.437 28.7965C106.789 37.9647 93.0511 37.7515 88.6097 28.5833C85.6143 22.1869 87.2669 14.2979 92.3281 10.6733C95.4268 8.43451 99.7649 7.68826 103.38 8.54112Z" fill="#CCD1DC"/>
<path d="M0 4.59755V8.54202H8.98619H17.9724V25.919V43.296H22.7237H27.475V21.8679V0.653076H13.6342H0V4.59755Z" fill="#CCD1DC"/>
<path d="M40.5938 4.59755V8.54202H44.4155C49.3734 8.54202 51.749 8.86184 53.5049 9.82131C56.0872 11.3138 57.4299 14.4054 56.7069 17.6036C56.2938 19.8424 55.2609 21.2283 53.2984 22.2944C51.749 23.1472 51.5424 23.1472 47.824 23.2538C45.6549 23.3604 44.0023 23.467 44.0023 23.467C44.0023 23.5737 51.6457 34.9806 55.674 40.7374L57.2234 42.9762L62.1813 43.0828C65.1767 43.0828 67.1392 43.0828 67.1392 42.8696C67.1392 42.763 65.1767 39.6714 62.801 36.1533C60.4253 32.6353 58.4628 29.6503 58.4628 29.5437C58.4628 29.4371 59.1859 28.904 60.0122 28.371C64.1438 25.919 66.5194 21.4415 66.5194 16.1111C66.5194 8.75523 62.3878 3.53147 55.2609 1.50593C53.5049 1.07951 52.1622 0.866291 46.9977 0.759683L40.8003 0.653076V4.59755H40.5938Z" fill="#CCD1DC"/>
<path d="M134.379 4.59893V8.5434H143.985C149.769 8.5434 154.107 8.65001 154.934 8.86322C156.896 9.28965 158.549 10.4623 159.478 12.0614C160.201 13.2341 160.201 13.6606 160.201 15.8993C160.201 17.9248 160.098 18.6711 159.582 19.524C158.755 21.0165 157.722 21.9759 155.863 22.7222C154.417 23.2552 153.797 23.3618 144.398 23.3618H134.379V33.0631V42.871H139.027H143.675V37.0076V31.1442L150.285 31.0376C155.347 30.9309 157.206 30.8243 158.445 30.3979C165.779 28.2658 169.704 23.2552 169.807 16.1125C169.91 10.0359 167.432 5.665 162.37 2.99982C158.549 0.974281 157.619 0.867674 145.431 0.654459L134.482 0.547852V4.59893H134.379Z" fill="#CCD1DC"/>
<path d="M0.100594 54.173C0.100594 54.3862 -0.00269557 56.0919 0.100594 58.1175L0.203883 61.7421L48.75 61.8487L97.296 61.9553L99.2585 63.7677C100.395 64.8337 105.249 69.3113 110.207 73.8954C115.062 78.4795 119.193 82.1041 119.4 81.9975C119.503 81.8909 119.607 77.3068 119.607 71.7632V61.8487H192.426H265.348L265.245 57.9043L265.142 53.9598H188.501H111.86L111.757 59.1836C111.757 62.062 111.653 64.4073 111.55 64.4073C111.447 64.4073 108.864 62.062 105.662 59.0769L99.8783 53.7466H50.0927C9.39665 53.7466 0.203883 53.8532 0.100594 54.173Z" fill="#CCD1DC"/>
<path d="M239.102 63.9787L237.656 65.4713H238.896C240.032 65.4713 240.342 65.258 241.891 63.9787C242.821 63.2325 243.647 62.4862 243.647 62.4862C243.647 62.3796 242.924 62.3796 242.098 62.3796C240.652 62.4862 240.548 62.4862 239.102 63.9787Z" fill="#CCD1DC"/>
<path d="M145.833 66.6434C144.284 67.0699 143.561 67.4963 142.425 68.5624C140.669 70.1615 140.152 71.5474 140.152 74.106C140.152 76.6645 140.669 78.0504 142.425 79.6495C144.077 81.142 145.214 81.5685 147.692 81.6751C152.444 81.6751 155.439 78.7967 155.439 74.106C155.439 69.7351 152.754 66.8567 148.312 66.5368C147.383 66.4302 146.246 66.5368 145.833 66.6434ZM150.068 69.8417C151.617 70.9077 152.237 72.0804 152.237 74.106C152.237 76.1315 151.617 77.3042 150.068 78.3702C148.932 79.1165 147.176 79.2231 145.833 78.5835C142.631 77.091 142.631 71.3342 145.73 69.7351C147.073 68.9888 148.932 68.9888 150.068 69.8417Z" fill="#CCD1DC"/>
<path d="M215.139 66.5393C213.383 66.9658 212.66 67.3922 211.524 68.4582C209.665 70.2706 209.148 71.4433 209.148 74.1084C209.148 76.667 209.665 77.9463 211.421 79.652C213.9 82.2106 218.238 82.4238 221.337 80.3983L222.679 79.5454L221.646 78.4793L220.614 77.4133L219.684 78.1595C218.341 79.2256 216.275 79.3322 214.829 78.5859C213.28 77.7331 212.454 76.3472 212.454 74.215C212.454 72.1895 213.28 70.697 214.829 69.8441C216.379 68.9913 217.928 69.0979 219.477 70.0574L220.717 70.8036L221.75 69.8441C222.989 68.7781 222.886 68.4583 220.717 67.3922C219.271 66.6459 216.379 66.2195 215.139 66.5393Z" fill="#CCD1DC"/>
<path d="M237.657 66.6434C236.108 67.0699 235.385 67.4963 234.249 68.5624C232.493 70.1615 231.977 71.5474 231.977 74.106C231.977 76.6645 232.493 78.0504 234.249 79.6495C235.902 81.142 237.038 81.5685 239.517 81.6751C244.268 81.6751 247.263 78.7967 247.263 74.106C247.263 69.7351 244.578 66.8567 240.136 66.5368C239.207 66.4302 238.071 66.5368 237.657 66.6434ZM241.892 69.8417C243.442 70.9077 244.061 72.0804 244.061 74.106C244.061 76.1315 243.442 77.3042 241.892 78.3702C240.756 79.1165 239 79.2231 237.657 78.5835C234.456 77.091 234.456 71.3342 237.554 69.7351C238.897 68.9888 240.756 68.9888 241.892 69.8417Z" fill="#CCD1DC"/>
<path d="M127.242 73.9999V81.3558H128.895H130.444L130.547 78.584L130.651 75.9188L133.956 75.8122L137.261 75.7056V74.6395V73.3602H133.853H130.444L130.547 71.3347L130.651 69.3091L134.369 69.2025L138.088 69.0959V67.8166V66.5374H132.717H127.345V73.9999H127.242Z" fill="#CCD1DC"/>
<path d="M158.435 73.9999V81.3558H160.088H161.637L161.741 79.3302L161.844 77.3047L163.29 77.1981L164.736 77.0915L166.182 79.2236L167.628 81.3558H169.384H171.14L169.487 79.0104L167.835 76.7717L168.764 76.132C171.14 74.5329 171.45 70.4818 169.384 68.3497C168.041 66.9638 166.285 66.5374 161.947 66.5374H158.332V73.9999H158.435ZM165.975 69.629C167.112 70.2686 167.731 71.3347 167.525 72.614C167.215 74.2131 166.492 74.6395 163.91 74.7461L161.637 74.8527V72.1875C161.637 70.695 161.741 69.4157 161.844 69.4157C162.257 68.9893 165.046 69.2025 165.975 69.629Z" fill="#CCD1DC"/>
<path d="M174.127 73.9985V81.461H175.779H177.329L177.432 77.3033L177.535 73.1456L179.498 76.4505C181.254 79.3288 181.564 79.7553 182.183 79.7553C183.01 79.8619 183.113 79.6487 185.075 76.2372L187.141 72.6126V76.9835V81.3544H188.587H190.033V73.9985V66.6426H188.794H187.451L184.869 71.2267C183.423 73.7853 182.183 75.7042 182.08 75.5976C181.977 75.491 180.737 73.4654 179.394 71.1201L176.916 66.8558L175.469 66.7492L174.023 66.6426V73.9985H174.127Z" fill="#CCD1DC"/>
<path d="M198.005 67.8183C197.695 68.4579 196.353 71.7627 194.906 75.0676C193.46 78.3724 192.324 81.2508 192.324 81.2508C192.324 81.3574 193.047 81.464 193.874 81.464H195.423L196.043 79.9715L196.662 78.479H200.071H203.479L204.203 79.9715L204.822 81.464H206.475C207.404 81.464 208.128 81.3574 208.024 81.2508C208.024 81.1442 206.578 77.7328 204.822 73.8949L201.724 66.7522H200.174H198.625L198.005 67.8183ZM201.31 73.042C201.827 74.3213 202.24 75.494 202.24 75.6006C202.24 75.7072 201.31 75.8138 200.071 75.8138C198.522 75.8138 197.902 75.7072 197.902 75.494C197.902 74.7478 199.864 70.1636 200.071 70.4835C200.278 70.5901 200.794 71.7627 201.31 73.042Z" fill="#CCD1DC"/>
<path d="M225.371 73.9985V81.3544H227.024H228.676V73.9985V66.6426H227.024H225.371V73.9985Z" fill="#CCD1DC"/>
<path d="M250.263 73.9985V81.3544H251.916H253.569L253.672 76.8769L253.775 72.3994L257.287 76.8769L260.799 81.3544H262.142H263.381V73.9985V66.6426H261.935H260.283L260.179 71.1201L260.076 75.7042L256.564 71.2267L253.052 66.7492H251.606H250.16V73.9985H250.263Z" fill="#CCD1DC"/>
</svg>
