<svg width="200" height="82" viewBox="0 0 200 82" fill="none" xmlns="http://www.w3.org/2000/svg">
<path fill-rule="evenodd" clip-rule="evenodd" d="M20.6331 0H20.1651L20.2755 1.23573L19.1187 0.788765L18.9609 1.24625L20.2177 1.50917L19.3974 2.45569L19.7918 2.72387L20.407 1.63011L21.0065 2.72387L21.3903 2.41362L20.5911 1.50917L21.8215 1.2147L21.6795 0.77299L20.5385 1.23573L20.6331 0Z" fill="#CCD1DC"/>
<path fill-rule="evenodd" clip-rule="evenodd" d="M16.1071 0H15.6339L15.7443 1.23573L14.5822 0.788765L14.4297 1.24625L15.6865 1.50917L14.8661 2.45569L15.2605 2.72387L15.8758 1.63011L16.47 2.72387L16.8591 2.41362L16.0598 1.50917L17.2903 1.2147L17.1483 0.77299L16.0125 1.23573L16.1071 0Z" fill="#CCD1DC"/>
<path fill-rule="evenodd" clip-rule="evenodd" d="M25.2048 0H24.7315L24.842 1.23573L23.6851 0.788765L23.5273 1.24625L24.7841 1.50917L23.9691 2.45569L24.3634 2.72387L24.9734 1.63011L25.5729 2.72387L25.9567 2.41362L25.1627 1.50917L26.3879 1.2147L26.246 0.77299L25.1101 1.23573L25.2048 0Z" fill="#CCD1DC"/>
<path fill-rule="evenodd" clip-rule="evenodd" d="M29.7478 0H29.2798L29.3902 1.23573L28.2333 0.788765L28.0703 1.24625L29.3323 1.50917L28.5173 2.45569L28.9064 2.72387L29.5216 1.63011L30.1211 2.72387L30.505 2.41362L29.7057 1.50917L30.9362 1.2147L30.7942 0.77299L29.6531 1.23573L29.7478 0Z" fill="#CCD1DC"/>
<path fill-rule="evenodd" clip-rule="evenodd" d="M22.9079 4.19104H22.4294L22.5451 5.42677L21.3882 4.97981L21.2305 5.43729L22.482 5.70021L21.6669 6.64673L22.0666 6.90965L22.6765 5.82115L23.276 6.90965L23.6599 6.5994L22.8606 5.70021L24.0911 5.40048L23.9491 4.96403L22.808 5.42677L22.9079 4.19104Z" fill="#CCD1DC"/>
<path fill-rule="evenodd" clip-rule="evenodd" d="M18.3806 4.19104H17.9073L18.0177 5.42677L16.8609 4.97981L16.7031 5.43729L17.9599 5.70021L17.1448 6.64673L17.5392 6.90965L18.1545 5.82115L18.7487 6.90965L19.1325 6.5994L18.3385 5.70021L19.5637 5.40048L19.4217 4.96403L18.2859 5.42677L18.3806 4.19104Z" fill="#CCD1DC"/>
<path fill-rule="evenodd" clip-rule="evenodd" d="M27.4743 4.19104H27.0011L27.1167 5.42677L25.9546 4.97981L25.7969 5.43729L27.0536 5.70021L26.2386 6.64673L26.633 6.90965L27.2429 5.82115L27.8424 6.90965L28.2315 6.5994L27.4322 5.70021L28.6627 5.40048L28.5207 4.96403L27.3744 5.42677L27.4743 4.19104Z" fill="#CCD1DC"/>
<path fill-rule="evenodd" clip-rule="evenodd" d="M17.9879 17.3107L22.6784 23.7839L27.3794 17.3107V26.9863H34.0366V8.47132H28.2208L22.6784 15.9646L17.1412 8.47132L11.3359 8.46606V26.9863H17.9879V17.3107Z" fill="#CCD1DC"/>
<path fill-rule="evenodd" clip-rule="evenodd" d="M0 26.9862H11.3319V60.1143C11.3319 67.7759 15.8174 71.0045 22.6586 71.0045C29.4998 71.0045 34.0326 67.7759 34.0326 60.1143V26.9862H45.3961V60.2142C45.3961 75.5373 36.3358 81.9999 22.6481 81.9999C8.96037 81.9999 0 75.5373 0 60.2142V26.9862Z" fill="#CCD1DC"/>
<path fill-rule="evenodd" clip-rule="evenodd" d="M17.9832 26.9862H27.38V60.0775C27.38 63.4009 25.8866 65.1361 22.6474 65.1361C19.4082 65.1361 17.9727 63.4009 17.9727 60.0775V26.9862" fill="#CCD1DC"/>
<path fill-rule="evenodd" clip-rule="evenodd" d="M59.0074 27.0493V39.1437C58.2134 39.8536 57.3615 40.5845 56.5938 40.5845C55.5947 40.5845 55.2371 39.8799 55.2371 38.8229V27.0493H51.5352V39.2489C51.5352 42.2252 52.713 43.3767 54.9847 43.3767C56.5149 43.3767 57.7822 42.4302 59.1388 41.2734V43.0981H62.7304V27.0493H59.0179" fill="#CCD1DC"/>
<path fill-rule="evenodd" clip-rule="evenodd" d="M73.7328 39.4382C73.4716 39.7836 73.1371 40.067 72.7535 40.2679C72.3698 40.4688 71.9464 40.5823 71.5137 40.6003C70.5146 40.6003 69.689 39.9535 69.689 36.7774V33.3542C69.689 30.1991 70.5146 29.526 71.5137 29.526C71.9481 29.5411 72.3738 29.6522 72.7602 29.8513C73.1466 30.0504 73.4841 30.3326 73.7485 30.6776V39.4382M77.4662 43.0612V21.8066H73.7485V28.5269C71.987 27.2333 71.0404 26.7548 70.0413 26.7548C67.1544 26.7548 65.9766 29.0002 65.9766 33.1228V37.0088C65.9766 41.1366 67.1544 43.3767 70.0413 43.3767C71.6872 43.3767 73.3384 42.1357 73.9904 41.1366H74.043V43.077L77.4662 43.0612Z" fill="#CCD1DC"/>
<path fill-rule="evenodd" clip-rule="evenodd" d="M81.457 27.0494V43.0771H85.1853V27.0494H81.457ZM85.1853 24.2835V20.9286H81.4728V24.2835H85.1853Z" fill="#CCD1DC"/>
<path fill-rule="evenodd" clip-rule="evenodd" d="M89.1641 43.0771H92.8765V30.9827C93.3182 30.3623 94.3804 29.5367 95.1744 29.5367C95.7634 29.5367 96.1735 29.8312 96.1735 30.8934V43.0771H99.907V30.9827C100.38 30.3623 101.527 29.5367 102.237 29.5367C102.825 29.5367 103.204 29.8312 103.204 30.8934V43.0771H106.922V31.0248C106.922 28.1379 105.77 26.776 103.535 26.776C101.91 26.776 100.738 27.9276 99.5863 29.2001C99.1393 27.7225 98.1349 26.776 96.7572 26.776C95.1797 26.776 93.9913 27.8277 92.7766 28.8794V27.0494H89.1851V43.0771" fill="#CCD1DC"/>
<path fill-rule="evenodd" clip-rule="evenodd" d="M113.786 31.7347C113.789 31.4687 113.846 31.206 113.952 30.9621C114.058 30.7181 114.212 30.4979 114.404 30.3142C114.597 30.1305 114.824 29.9871 115.073 29.8925C115.321 29.7978 115.586 29.7537 115.852 29.7628C116.113 29.732 116.376 29.7602 116.624 29.8455C116.872 29.9308 117.097 30.071 117.283 30.2555C117.469 30.44 117.611 30.6641 117.698 30.9111C117.786 31.1582 117.816 31.4217 117.787 31.6822V32.8548C113.16 34.243 109.621 35.8311 109.621 39.5435C109.621 42.1359 111.062 43.3769 113.302 43.3769C114.125 43.3808 114.941 43.2183 115.7 42.8994C116.459 42.5804 117.146 42.1115 117.719 41.5207C117.84 42.1675 117.898 42.667 117.982 43.0982H121.694C121.567 42.6767 121.498 42.2397 121.489 41.7994V31.6191C121.489 28.7637 119.985 26.755 116.036 26.755C113.065 26.755 110.357 28.1695 110.089 31.7347H113.77M117.787 39.1334C116.899 40.0115 116.105 40.6005 114.99 40.6005C114.764 40.6211 114.536 40.5914 114.323 40.5136C114.11 40.4357 113.917 40.3117 113.758 40.1503C113.598 39.9889 113.477 39.7942 113.402 39.5801C113.326 39.3661 113.3 39.1381 113.323 38.9125C113.323 37.2351 115.558 35.9993 117.772 35.2316L117.787 39.1334Z" fill="#CCD1DC"/>
<path fill-rule="evenodd" clip-rule="evenodd" d="M51.7461 70.7889H54.4331C54.9044 70.8153 55.3762 70.7457 55.8198 70.5843C56.2633 70.4229 56.6695 70.1731 57.0137 69.8501C57.3579 69.5271 57.6329 69.1375 57.822 68.705C58.0112 68.2726 58.1105 67.8062 58.1141 67.3342C58.1141 65.7146 56.994 63.8951 54.4331 63.8951H51.7461V70.7889ZM52.7399 64.7786H54.2649C56.1895 64.7786 57.0729 65.9564 57.0729 67.3342C57.0729 68.186 56.547 69.8898 54.3122 69.8898H52.7347L52.7399 64.7786Z" fill="#CCD1DC"/>
<path fill-rule="evenodd" clip-rule="evenodd" d="M64.2351 63.8951H60.3281V70.7889H64.3245V69.8898H61.3114V67.7496H64.1352V66.8662H61.3114V64.7786H64.2351V63.8951Z" fill="#CCD1DC"/>
<path fill-rule="evenodd" clip-rule="evenodd" d="M76.6172 63.8951H75.697L73.4043 66.7189L71.1222 63.8951H70.1914V70.7889H71.18V65.4201H71.201L73.3254 68.0861H73.4832L75.6023 65.4201H75.6234V70.7889H76.6172V63.8951Z" fill="#CCD1DC"/>
<path fill-rule="evenodd" clip-rule="evenodd" d="M82.0286 63.8531H81.3292L78.3477 70.789H79.3573L80.2249 68.7488H83.1591L84.0793 70.789H85.0837L82.0286 63.8531ZM81.6657 65.3676L82.7753 67.8601H80.6351L81.6657 65.3676Z" fill="#CCD1DC"/>
<path fill-rule="evenodd" clip-rule="evenodd" d="M86.8711 70.7889H89.5582C90.0294 70.8153 90.5012 70.7457 90.9448 70.5843C91.3883 70.4229 91.7945 70.1731 92.1387 69.8501C92.4829 69.5271 92.7579 69.1375 92.947 68.705C93.1362 68.2726 93.2355 67.8062 93.2391 67.3342C93.2391 65.7146 92.119 63.8951 89.5582 63.8951H86.8764V70.7889M87.8649 64.7786H89.3951C91.3302 64.7786 92.2084 65.9564 92.2084 67.3342C92.2084 68.186 91.6826 69.8898 89.453 69.8898H87.8755L87.8649 64.7786Z" fill="#CCD1DC"/>
<path fill-rule="evenodd" clip-rule="evenodd" d="M95.4648 63.8951V70.7889H96.4639V67.7916H96.8688C97.3947 67.7916 97.7943 67.9494 98.704 69.3692L99.6137 70.7942H100.792C100.318 70.1316 100.145 69.895 99.8504 69.4218C99.4855 68.6801 98.9612 68.0282 98.3149 67.5129C98.6617 67.391 98.9604 67.1615 99.1676 66.8579C99.3747 66.5542 99.4795 66.1923 99.4665 65.825C99.4665 64.6366 98.5989 63.9004 97.2054 63.9004H95.4648M96.4639 64.7417H97.095C98.0572 64.7417 98.4359 65.1414 98.4464 65.7934C98.4569 66.4455 98.1572 66.9082 97.095 66.9082H96.4639V64.7417Z" fill="#CCD1DC"/>
<path d="M103.559 63.8951H102.57V70.7889H103.559V63.8951Z" fill="#CCD1DC"/>
<path fill-rule="evenodd" clip-rule="evenodd" d="M106.105 70.7889H108.798C109.269 70.8145 109.74 70.7444 110.184 70.5827C110.627 70.4211 111.033 70.1713 111.377 69.8484C111.721 69.5255 111.996 69.1362 112.185 68.7041C112.375 68.272 112.474 67.8059 112.479 67.3342C112.479 65.7146 111.353 63.8951 108.798 63.8951H106.116V70.7889M107.11 64.7786H108.635C110.565 64.7786 111.443 65.9564 111.443 67.3342C111.443 68.186 110.917 69.8898 108.687 69.8898H107.11V64.7786Z" fill="#CCD1DC"/>
<path fill-rule="evenodd" clip-rule="evenodd" d="M57.9198 51.6273H56.9259V55.6342C56.9573 55.9014 56.9348 56.1721 56.8599 56.4304C56.7849 56.6887 56.659 56.9293 56.4895 57.1382C56.048 57.5295 55.4694 57.73 54.8804 57.6956C54.6053 57.7043 54.3313 57.6565 54.0753 57.5552C53.8194 57.4539 53.5869 57.3013 53.3923 57.1066C53.0768 56.7964 52.9769 56.4703 52.9769 55.6973V51.6273H51.9883V55.9077C51.9883 57.7849 53.4028 58.6053 54.8541 58.6053C56.9049 58.6053 57.9198 57.4905 57.9198 55.8078V51.6273Z" fill="#CCD1DC"/>
<path fill-rule="evenodd" clip-rule="evenodd" d="M66.6689 51.6273H65.7434V56.9646L61.0687 51.6273H60.2852V58.5106H61.2159V53.2048L65.8223 58.5106H66.6689V51.6273Z" fill="#CCD1DC"/>
<path d="M70.1931 51.6273H69.1992V58.5106H70.1931V51.6273Z" fill="#CCD1DC"/>
<path fill-rule="evenodd" clip-rule="evenodd" d="M78.0724 51.6273H77.0944L75.0331 56.4598L72.9612 51.6273H71.9727L74.9542 58.5737H75.154L78.0724 51.6273Z" fill="#CCD1DC"/>
<path fill-rule="evenodd" clip-rule="evenodd" d="M83.7482 51.6273H79.8359V58.5106H83.8376V57.6219H80.8298V55.4818H83.643V54.5931H80.8298V52.5107H83.7482V51.6273Z" fill="#CCD1DC"/>
<path fill-rule="evenodd" clip-rule="evenodd" d="M85.9219 51.6273V58.5106H86.9105V55.5238H87.3259C87.8517 55.5238 88.2461 55.6816 89.1558 57.1013L90.0603 58.5159H91.2487C90.7702 57.8586 90.6019 57.6272 90.3074 57.1592C89.9438 56.4152 89.4194 55.7614 88.772 55.2451C89.1187 55.1232 89.4175 54.8937 89.6246 54.59C89.8318 54.2864 89.9365 53.9245 89.9235 53.5572C89.9235 52.3635 89.0506 51.6326 87.6624 51.6326H85.9219M86.9105 52.4739H87.5467C88.509 52.4739 88.8929 52.8683 88.9034 53.5256C88.9139 54.1829 88.6089 54.6457 87.5467 54.6457H86.9105V52.4739Z" fill="#CCD1DC"/>
<path fill-rule="evenodd" clip-rule="evenodd" d="M96.2873 52.0164C95.8346 51.7074 95.2999 51.5408 94.7518 51.5378C93.4898 51.5378 92.6484 52.253 92.6484 53.373C92.6484 55.2556 95.6247 55.4186 95.6247 56.8489C95.6247 57.2275 95.2671 57.7112 94.5047 57.7112C94.1445 57.6983 93.7923 57.6012 93.4763 57.4277C93.1604 57.2542 92.8895 57.0092 92.6852 56.7121V57.9689C93.2375 58.3942 93.9182 58.6186 94.6151 58.6052C94.8667 58.6167 95.118 58.5766 95.3535 58.4873C95.589 58.3981 95.8038 58.2616 95.9846 58.0862C96.1653 57.9108 96.3083 57.7003 96.4047 57.4676C96.5011 57.235 96.5488 56.985 96.5449 56.7332C96.5449 54.5404 93.5634 54.5614 93.5634 53.2416C93.5634 52.7578 94.0209 52.4213 94.6572 52.4213C95.2688 52.4363 95.8494 52.6935 96.2715 53.1364V52.0164" fill="#CCD1DC"/>
<path d="M99.6487 51.6273H98.6602V58.5106H99.6487V51.6273Z" fill="#CCD1DC"/>
<path fill-rule="evenodd" clip-rule="evenodd" d="M102.199 58.5106H104.886C105.355 58.534 105.823 58.4625 106.263 58.3004C106.703 58.1383 107.106 57.8889 107.448 57.5672C107.789 57.2455 108.062 56.8581 108.25 56.4284C108.438 55.9986 108.537 55.5353 108.541 55.0663C108.541 53.4415 107.421 51.6273 104.86 51.6273H102.184V58.5106M103.172 52.5107H104.697C106.627 52.5107 107.505 53.6886 107.505 55.0663C107.505 55.9182 106.979 57.6219 104.75 57.6219H103.172V52.5107Z" fill="#CCD1DC"/>
<path fill-rule="evenodd" clip-rule="evenodd" d="M113.121 51.5852H112.421L109.461 58.5106H110.471L111.338 56.4808H114.272L115.193 58.5106H116.213L113.121 51.5852ZM112.758 53.0944L113.867 55.5974H111.727L112.758 53.0944Z" fill="#CCD1DC"/>
<path fill-rule="evenodd" clip-rule="evenodd" d="M117.977 58.5106H120.664C121.134 58.5377 121.605 58.4689 122.049 58.3084C122.492 58.148 122.898 57.8992 123.242 57.5771C123.586 57.2551 123.861 56.8664 124.051 56.4349C124.24 56.0033 124.34 55.5377 124.345 55.0663C124.345 53.4415 123.224 51.6273 120.664 51.6273H117.982V58.5106M118.97 52.5107H120.501C122.43 52.5107 123.309 53.6886 123.309 55.0663C123.309 55.9182 122.783 57.6219 120.553 57.6219H118.976L118.97 52.5107Z" fill="#CCD1DC"/>
<path fill-rule="evenodd" clip-rule="evenodd" d="M132.265 51.5852H131.566L128.605 58.5106H129.62L130.488 56.4808H133.417L134.337 58.5106H135.347L132.265 51.5852ZM131.903 53.0944L133.017 55.5974H130.872L131.903 53.0944Z" fill="#CCD1DC"/>
<path fill-rule="evenodd" clip-rule="evenodd" d="M140.926 58.5106H143.613C144.083 58.5369 144.554 58.4676 144.997 58.3069C145.44 58.1461 145.846 57.8973 146.19 57.5754C146.534 57.2535 146.809 56.8652 146.999 56.4339C147.188 56.0027 147.289 55.5375 147.294 55.0663C147.294 53.4415 146.168 51.6273 143.613 51.6273H140.926V58.5106ZM141.914 52.5107H143.439C145.369 52.5107 146.253 53.6886 146.253 55.0663C146.253 55.9182 145.727 57.6219 143.492 57.6219H141.914V52.5107Z" fill="#CCD1DC"/>
<path d="M150.524 51.6273H149.535V58.5106H150.524V51.6273Z" fill="#CCD1DC"/>
<path fill-rule="evenodd" clip-rule="evenodd" d="M156.338 52.0164C155.885 51.7089 155.35 51.5424 154.803 51.5378C153.535 51.5378 152.699 52.253 152.699 53.373C152.699 55.2556 155.681 55.4186 155.681 56.8489C155.681 57.2275 155.328 57.7112 154.561 57.7112C154.201 57.6983 153.85 57.6012 153.535 57.4277C153.22 57.2541 152.95 57.009 152.747 56.7121V57.9689C153.296 58.3957 153.976 58.6204 154.671 58.6052C154.923 58.6167 155.174 58.5766 155.41 58.4873C155.645 58.3981 155.86 58.2616 156.041 58.0862C156.221 57.9108 156.364 57.7003 156.461 57.4676C156.557 57.235 156.605 56.985 156.601 56.7332C156.601 54.5404 153.619 54.5614 153.619 53.2416C153.619 52.7578 154.082 52.4213 154.713 52.4213C155.017 52.428 155.316 52.4947 155.594 52.6174C155.872 52.7401 156.123 52.9165 156.333 53.1364V52.0164" fill="#CCD1DC"/>
<path fill-rule="evenodd" clip-rule="evenodd" d="M163.873 51.6273H158.109V52.5107H160.491V58.5106H161.485V52.5107H163.873V51.6273Z" fill="#CCD1DC"/>
<path fill-rule="evenodd" clip-rule="evenodd" d="M167.696 51.5852H166.997L164.062 58.5106H165.072L165.945 56.4808H168.874L169.789 58.5106H170.799L167.696 51.5852ZM167.333 53.0944L168.443 55.5974H166.303L167.333 53.0944Z" fill="#CCD1DC"/>
<path fill-rule="evenodd" clip-rule="evenodd" d="M178.919 51.6273H177.993V56.9646L173.329 51.6273H172.535V58.5106H173.466V53.2048L178.078 58.5106H178.919V51.6273Z" fill="#CCD1DC"/>
<path fill-rule="evenodd" clip-rule="evenodd" d="M187.319 52.1005C186.578 51.7522 185.772 51.5607 184.953 51.5378C184.462 51.5119 183.972 51.5869 183.512 51.758C183.051 51.9292 182.631 52.193 182.277 52.533C181.922 52.8731 181.641 53.2822 181.451 53.7351C181.261 54.188 181.166 54.6751 181.172 55.1662C181.183 55.6383 181.289 56.1034 181.484 56.5338C181.678 56.9643 181.957 57.3514 182.304 57.6721C182.65 57.9928 183.058 58.2406 183.502 58.4009C183.946 58.5612 184.418 58.6306 184.89 58.6052C185.762 58.6212 186.624 58.413 187.393 58.0005V56.9172C186.677 57.3981 185.841 57.6678 184.979 57.6955C183.328 57.6955 182.198 56.6438 182.198 55.0663C182.197 54.711 182.269 54.3594 182.408 54.0326C182.547 53.7059 182.751 53.4107 183.008 53.165C183.265 52.9193 183.568 52.7281 183.901 52.603C184.233 52.4779 184.588 52.4214 184.942 52.437C185.786 52.4499 186.609 52.6976 187.319 53.1522V52.1005Z" fill="#CCD1DC"/>
<path d="M190.603 51.6273H189.625V58.5106H190.603V51.6273Z" fill="#CCD1DC"/>
<path fill-rule="evenodd" clip-rule="evenodd" d="M196.054 51.5852H195.355L192.395 58.5106H193.404L194.272 56.4808H197.195L198.121 58.5106H199.131L196.054 51.5852ZM195.686 53.0944L196.801 55.5974H194.661L195.686 53.0944Z" fill="#CCD1DC"/>
</svg>
