<svg width="17" height="17" viewBox="0 0 17 17" fill="none" xmlns="http://www.w3.org/2000/svg">
<path d="M10.1 0.5H6.9C6.26348 0.5 5.65303 0.752856 5.20294 1.20294C4.75286 1.65303 4.5 2.26348 4.5 2.9V3.7H2.9C2.26348 3.7 1.65303 3.95286 1.20294 4.40294C0.752856 4.85303 0.5 5.46348 0.5 6.1V14.1C0.5 14.7365 0.752856 15.347 1.20294 15.7971C1.65303 16.2471 2.26348 16.5 2.9 16.5H14.1C14.7365 16.5 15.347 16.2471 15.7971 15.7971C16.2471 15.347 16.5 14.7365 16.5 14.1V6.1C16.5 5.46348 16.2471 4.85303 15.7971 4.40294C15.347 3.95286 14.7365 3.7 14.1 3.7H12.5V2.9C12.5 2.26348 12.2471 1.65303 11.7971 1.20294C11.347 0.752856 10.7365 0.5 10.1 0.5ZM6.1 2.9C6.1 2.68783 6.18429 2.48434 6.33431 2.33431C6.48434 2.18429 6.68783 2.1 6.9 2.1H10.1C10.3122 2.1 10.5157 2.18429 10.6657 2.33431C10.8157 2.48434 10.9 2.68783 10.9 2.9V3.7H6.1V2.9ZM14.9 6.1V14.1C14.9 14.3122 14.8157 14.5157 14.6657 14.6657C14.5157 14.8157 14.3122 14.9 14.1 14.9H2.9C2.68783 14.9 2.48434 14.8157 2.33431 14.6657C2.18429 14.5157 2.1 14.3122 2.1 14.1V6.1C2.1 5.88783 2.18429 5.68434 2.33431 5.53431C2.48434 5.38429 2.68783 5.3 2.9 5.3H14.1C14.3122 5.3 14.5157 5.38429 14.6657 5.53431C14.8157 5.68434 14.9 5.88783 14.9 6.1ZM9.3 9.3H10.9V10.9H9.3V12.5H7.7V10.9H6.1V9.3H7.7V7.7H9.3V9.3Z" fill="black"/>
</svg>
