<svg width="20" height="16" viewBox="0 0 20 16" fill="none" xmlns="http://www.w3.org/2000/svg">
<path d="M19.5 6.13638C19.5004 5.90287 19.4325 5.67343 19.3032 5.47139C19.1739 5.26935 18.9878 5.10192 18.7638 4.98611L10.7612 0.686032C10.5305 0.564198 10.2683 0.5 10.0013 0.5C9.73424 0.5 9.47201 0.564198 9.24137 0.686032L1.22681 4.98611C1.00534 5.10509 0.82187 5.2742 0.694439 5.47682C0.567008 5.67944 0.5 5.90859 0.5 6.14176C0.5 6.37492 0.567008 6.60408 0.694439 6.80669C0.82187 7.00931 1.00534 7.17842 1.22681 7.2974L3.50651 8.50143V11.5222C3.50788 11.7583 3.57632 11.9901 3.70524 12.1953C3.83416 12.4005 4.01924 12.5723 4.24266 12.694L9.28886 15.3278C9.51417 15.4407 9.76748 15.5 10.025 15.5C10.2825 15.5 10.5359 15.4407 10.7612 15.3278L15.8074 12.694C16.0308 12.5723 16.2159 12.4005 16.3448 12.1953C16.4737 11.9901 16.5421 11.7583 16.5435 11.5222V8.46918L18.0158 7.68441V10.6085H19.5V6.13638ZM15.0712 11.5115L10.0013 14.156L4.99068 11.5222V9.29694L9.24137 11.5867C9.47279 11.7065 9.73472 11.7694 10.0013 11.7694C10.2678 11.7694 10.5297 11.7065 10.7612 11.5867L15.0593 9.26469L15.0712 11.5115ZM10.0013 10.4257L1.98671 6.12563L10.0013 1.8148L18.0158 6.11488L10.0013 10.4257Z" fill="black"/>
</svg>
