            <svg
              width="100"
              height="50"
              viewBox="0 0 196 66"
              fill="none"
              xmlns="http://www.w3.org/2000/svg"
              className="object-contain my-auto"
            >
              <path
                d="M62.8776 33.0001C62.8776 50.6869 48.982 65.0365 31.8549 65.0365C14.7279 65.0365 0.832336 50.6869 0.832336 33.0001C0.832336 15.3133 14.7279 0.963623 31.8549 0.963623C48.982 0.963623 62.8776 15.3133 62.8776 33.0001Z"
                fill="white"
              />
              <path
                d="M61.0463 33.0027C61.0463 49.6884 47.9047 63.2594 31.7471 63.2594C15.5895 63.2594 2.448 49.6884 2.448 33.0027C2.448 16.3171 15.6972 2.74609 31.8548 2.74609C48.0125 2.74609 61.0463 16.3171 61.0463 33.0027Z"
                fill="white"
              />
              <path
                d="M31.8547 63.5938C15.4816 63.5938 2.2324 49.9116 2.2324 33.0034C2.12468 16.0953 15.4816 2.41309 31.8547 2.41309C48.2277 2.41309 61.477 16.0953 61.477 33.0034C61.477 49.9116 48.2277 63.5938 31.8547 63.5938ZM31.8547 3.19175C15.9125 3.19175 2.98642 16.5403 2.98642 33.0034C2.98642 49.4666 15.9125 62.8151 31.8547 62.8151C47.7969 62.8151 60.723 49.4666 60.723 33.0034C60.723 16.5403 47.7969 3.19175 31.8547 3.19175Z"
                fill="#838790"
              />
              <path
                d="M61.4763 33.0034C61.4763 49.9116 48.2271 63.5938 31.854 63.5938C15.481 63.5938 2.23175 49.9116 2.23175 33.0034C2.23175 16.0953 15.481 2.41309 31.854 2.41309C48.2271 2.41309 61.4763 16.0953 61.4763 33.0034Z"
                fill="#838790"
              />
              <path
                d="M33.0398 33.7794C32.7167 33.6682 30.2392 32.667 30.2392 32.5558C30.2392 32.4446 30.2392 32.1109 30.5624 32.2221L33.2553 33.3345C33.4707 33.4457 33.5784 33.8907 33.0398 33.7794Z"
                fill="white"
              />
              <path
                d="M57.7072 33.002C57.7072 47.7966 46.1814 59.699 31.855 59.699C17.5286 59.699 6.00281 47.7966 6.00281 33.002C6.00281 18.2074 17.5286 6.30493 31.855 6.30493C46.1814 6.30493 57.7072 18.2074 57.7072 33.002Z"
                fill="white"
              />
              <path
                d="M31.8551 60.0334C17.421 60.0334 5.67981 47.9085 5.67981 33.0027C5.67981 18.0968 17.3133 5.97192 31.8551 5.97192C46.397 5.97192 58.0305 18.0968 58.0305 33.0027C58.0305 47.9085 46.2893 60.0334 31.8551 60.0334ZM31.8551 6.75059C17.7442 6.75059 6.32611 18.4305 6.32611 33.0027C6.32611 47.5748 17.7442 59.2548 31.7474 59.2548C45.8584 59.2548 57.1687 47.4636 57.1687 33.0027C57.2764 18.5418 45.8584 6.75059 31.8551 6.75059Z"
                fill="#838790"
              />
              <path
                d="M55.1219 33.0011C55.1219 46.3496 44.6733 57.1397 31.7472 57.1397C18.8211 57.1397 8.37256 46.3496 8.37256 33.0011C8.37256 19.6526 18.8211 8.86255 31.7472 8.86255C44.6733 8.86255 55.1219 19.6526 55.1219 33.0011Z"
                fill="white"
              />
              <mask
                id="mask0_109_12501"
                maskUnits="userSpaceOnUse"
                x="8"
                y="8"
                width="48"
                height="50"
              >
                <path
                  d="M55.1233 33.0011C55.1233 46.3496 44.6747 57.1397 31.7486 57.1397C18.8226 57.1397 8.37396 46.3496 8.37396 33.0011C8.37396 19.6526 18.8226 8.86255 31.7486 8.86255C44.6747 8.86255 55.1233 19.6526 55.1233 33.0011Z"
                  fill="white"
                />
              </mask>
              <g mask="url(#mask0_109_12501)">
                <path
                  d="M26.1387 8.86356C26.5696 8.9748 27.0004 9.08604 27.4313 9.08604C27.6467 9.08604 27.6467 8.86356 27.539 8.86356C27.4313 8.86356 26.031 8.52985 25.8155 8.52985C25.6001 8.52985 25.4924 8.41861 25.2769 8.30737C25.1692 8.30737 24.9538 8.0849 24.9538 8.30737V8.41861C25.1692 8.64109 26.031 8.75232 26.1387 8.86356Z"
                  fill="#838790"
                />
                <path
                  d="M43.8011 49.7999C44.0166 49.6887 44.1243 49.4662 43.9088 49.5774C43.3702 49.7999 42.9394 49.9112 42.4008 49.9112C42.1854 49.7999 41.8622 50.1336 42.1854 50.1336C42.6162 50.1336 43.2625 50.0224 43.8011 49.7999Z"
                  fill="#838790"
                />
                <path
                  d="M46.4986 49.2455C46.6063 48.9118 46.3909 49.3567 46.1755 49.5792C43.4825 51.359 40.251 52.1377 37.1272 51.9152C36.3732 51.9152 35.7269 51.9152 34.9729 51.9152C34.8651 51.9152 34.7574 52.1377 34.6497 52.1377C34.542 52.1377 34.2188 52.2489 34.6497 52.3601C35.0806 52.4714 36.804 52.2489 36.9118 52.3601C38.9584 52.4714 41.005 52.1377 42.9439 51.5815C43.3748 51.359 46.0677 50.1354 46.4986 49.2455Z"
                  fill="#838790"
                />
                <path
                  d="M29.5864 23.6599C29.5864 23.4374 29.8019 23.5486 30.0173 23.4374C30.2327 23.3262 31.0945 23.8823 31.4176 23.7711C31.9562 23.6599 32.3871 23.7711 32.818 23.9936C33.2488 24.3273 33.7874 24.5498 34.326 24.661C34.5414 24.661 34.6492 24.8835 34.5414 24.9947C34.4337 25.106 35.1877 25.9959 35.2955 26.2183C35.4032 26.4408 35.7263 26.8858 36.0495 27.5532C36.3726 28.2206 37.5575 28.5543 37.773 28.5543C37.9884 28.5543 38.0961 28.888 38.3115 28.7768C38.527 28.6656 38.3115 28.5543 38.3115 28.4431C38.3115 28.3319 38.4193 28.4431 38.527 28.4431C38.6347 28.4431 38.7424 28.6656 38.8501 28.5543C38.9579 28.4431 38.9579 28.4431 39.0656 28.5543C39.1733 28.6656 39.281 28.7768 39.3887 28.7768C39.4964 28.7768 39.4964 28.7768 39.3887 28.5543C39.281 28.3319 39.3887 28.3319 39.6042 28.4431C39.8196 28.5543 40.035 28.888 40.1427 28.888C40.2505 28.888 40.1427 28.6656 40.035 28.5543C39.9273 28.4431 40.1427 28.4431 40.2505 28.5543C40.3582 28.6656 40.6813 29.1105 41.0045 29.1105C41.3276 29.1105 41.0045 28.888 41.0045 28.6656C41.0045 28.4431 41.1122 28.6656 41.2199 28.7768C41.3276 28.888 41.9739 29.8892 42.0817 29.7779C42.1894 29.6667 42.9434 31.1128 43.1588 31.7802C43.3743 32.4476 43.482 32.3364 43.482 32.2252C42.6202 28.7768 41.5431 28.5543 41.2199 28.3319C40.8968 28.1094 36.1572 26.997 36.1572 26.7745C35.834 26.3296 35.5109 25.7734 35.1877 25.4397C35.1877 25.4397 34.5414 24.4385 34.326 24.3273C33.6797 23.7711 32.9257 23.3262 32.1717 22.8812C31.6331 22.6587 31.0945 22.5475 30.5559 22.4363C29.8019 22.2138 29.8019 22.2138 29.371 22.1025C28.9401 21.9913 28.5093 22.6587 28.4016 22.77C28.7247 23.1037 29.2633 23.6599 29.6942 24.2161C29.9096 24.3273 30.125 24.3273 30.2327 24.3273C30.3405 24.4385 29.5864 23.8823 29.5864 23.6599Z"
                  fill="#838790"
                />
                <path
                  d="M35.5122 47.4633L34.9736 47.3521C34.7582 47.3521 34.6505 47.5745 34.8659 47.5745C35.0813 47.6858 35.2968 47.6858 35.5122 47.6858C35.6199 47.6858 35.7276 47.4633 35.5122 47.4633Z"
                  fill="#838790"
                />
                <path
                  d="M34.2201 45.9047C34.4355 45.7935 34.3278 45.6823 34.3278 45.571C34.1124 45.4598 33.7892 45.3486 33.5738 45.3486C33.3583 45.2373 33.1429 45.571 33.4661 45.6823C33.7892 45.7935 33.8969 45.9047 34.2201 45.9047Z"
                  fill="#838790"
                />
                <path
                  d="M34.654 46.6822C34.4386 46.6822 34.1155 46.571 33.9 46.4597C33.6846 46.3485 33.5769 46.6822 33.6846 46.6822C33.9 46.7934 34.2232 46.7934 34.4386 46.9047C34.5463 46.9047 34.7618 46.6822 34.654 46.6822Z"
                  fill="#838790"
                />
                <path
                  d="M35.2979 48.4633C35.7288 48.5748 36.2674 48.6862 36.6982 48.5748C36.9137 48.5748 36.9137 48.3519 36.9137 48.3519C36.9137 48.3519 36.806 48.2405 36.5905 48.3519C36.2674 48.3519 35.8365 48.3519 35.5133 48.2405C35.4056 48.2405 35.1902 48.3519 35.2979 48.4633Z"
                  fill="#838790"
                />
                <path
                  d="M35.4042 49.3545C35.835 49.4659 36.3736 49.5773 36.8045 49.4659C37.0199 49.4659 37.0199 49.243 37.0199 49.243C37.0199 49.243 36.8045 49.1316 36.6968 49.243C36.3736 49.243 35.9428 49.243 35.6196 49.1316C35.5119 49.1316 35.2965 49.3545 35.4042 49.3545Z"
                  fill="#838790"
                />
                <path
                  d="M35.9478 50.1323C36.3786 50.2437 36.9172 50.3551 37.3481 50.2437C37.5635 50.2437 37.5635 50.0209 37.5635 50.0209C37.5635 50.0209 37.4558 49.9094 37.2404 50.0209C36.9172 50.0209 36.4863 50.0209 36.1632 49.9094C36.0555 49.9094 35.84 50.0209 35.9478 50.1323Z"
                  fill="#838790"
                />
                <path
                  d="M45.7451 23.2139C43.0521 20.6554 39.4975 19.2093 35.8351 19.3205C35.9428 18.7644 36.0505 18.0969 36.1582 17.207C36.5891 17.207 37.3431 17.207 37.8817 17.3183C38.0971 17.3183 38.4203 17.207 38.3126 16.9846C38.2049 16.7621 37.9894 16.2059 37.5586 16.0947C37.3431 16.0947 36.6968 15.6497 36.2659 15.5385C36.3737 13.9811 36.4814 12.2013 36.4814 10.644C36.5891 7.30687 34.7579 4.63717 31.8495 4.52593C31.3109 4.52593 31.0955 4.19222 31.2032 3.52479C31.4187 2.41242 31.7418 1.30004 32.1727 0.187663C32.3881 -0.14605 32.065 -0.702238 31.6341 -0.591001C31.3109 -0.479763 30.9878 -0.479763 30.6646 -0.591001C30.4492 -0.591001 30.2338 -0.591001 30.0183 -0.368525C29.6952 -0.257288 29.4798 0.0764254 29.372 0.410138C29.2643 0.743851 28.618 2.30118 28.5103 2.63489C28.4026 2.9686 28.2949 3.96974 28.0794 3.63603C27.9717 3.52479 27.864 3.41356 27.7563 3.30232C27.6486 2.18994 27.5408 1.07756 27.4331 0.632614C27.4331 0.298901 27.11 -0.0348123 26.7868 -0.0348123C26.5714 -0.0348123 26.3559 0.0764254 26.2482 0.298901C26.0328 0.521376 25.9251 0.743851 25.7096 0.966327C25.4942 1.1888 25.1711 1.30004 24.8479 1.1888C24.5248 1.07756 24.2016 1.1888 23.9862 1.52252C23.7707 1.85623 23.3399 1.85623 23.0167 1.63375C22.8013 1.63375 22.5858 1.41128 22.3704 1.41128C22.155 1.41128 21.9395 1.52251 22.0473 1.74499C22.155 2.74613 22.2627 3.85851 22.3704 4.97088L22.4781 6.86192C22.4781 7.64059 22.4781 8.30801 22.3704 9.08668C22.3704 9.64286 22.3704 10.3103 22.3704 10.9777C22.3704 11.3114 22.3704 11.6451 22.2627 11.9789C22.0473 12.8688 21.9395 13.6474 21.9395 14.5373C21.9395 15.5385 21.9395 17.207 21.9395 18.5419C21.9395 19.988 21.7241 22.4352 21.8318 24.5487C21.5087 24.7712 21.1855 24.8824 20.9701 25.1049L21.0778 24.9937C20.8624 22.8801 21.1855 20.3217 20.7546 17.8745C20.5392 16.7621 19.462 16.7621 19.1389 17.7632C19.0312 18.0969 18.9234 18.3194 18.8157 18.6531C18.708 19.0981 18.3849 19.3205 17.954 19.3205C17.4154 19.4318 16.7691 19.543 16.2305 19.7655C16.0151 19.8767 15.9074 20.2104 15.9074 20.4329C16.0151 21.3228 16.1228 23.3251 16.2305 25.9948C15.9074 26.106 15.6919 26.2173 15.4765 26.551C14.9379 27.2184 14.8302 28.2196 15.1533 29.1095C15.5842 30.2218 15.5842 31.4454 15.1533 32.5578C14.3993 34.8938 14.8302 37.4523 16.3382 39.3433C16.3382 39.3433 16.3382 39.4546 16.4459 39.4546C16.5537 39.5658 16.6614 39.677 16.8768 39.7883C17.0923 45.7951 17.3077 51.357 17.3077 53.693C17.3077 54.0267 17.5231 54.4716 17.8463 54.5829C18.2771 54.8054 18.9234 54.6941 19.2466 54.3604C19.5698 54.0267 19.8929 54.2492 19.8929 54.6941C20.0006 55.0278 20.2161 55.3615 20.4315 55.584C20.6469 55.8065 20.9701 56.029 21.1855 56.2514C21.6164 56.5852 22.0473 56.4739 22.155 56.1402C22.155 53.693 22.0473 49.7997 21.8318 47.2412H21.7241C23.5553 49.5772 25.9251 51.2458 28.618 52.2469C29.1566 54.4716 29.9106 58.8099 29.9106 58.9212C30.0183 59.3661 30.4492 59.8111 31.3109 59.9223C31.8495 59.9223 32.2804 59.8111 32.819 59.5886C33.2499 59.4773 33.6807 59.5886 34.0039 59.9223C34.6502 60.256 35.5119 60.3672 36.2659 60.0335C36.5891 59.9223 36.8045 59.5886 36.6968 59.2549L35.2965 53.3593H35.5119C36.1582 53.4705 36.8045 53.4705 37.4508 53.248C39.7129 53.3593 41.8673 52.9143 43.9139 52.0244C45.4219 51.357 46.8223 50.2446 47.684 48.7985C48.2226 47.7974 48.438 46.5738 48.2226 45.4614C48.1149 44.6827 47.7917 44.0153 47.4686 43.4591V43.3479C46.0682 41.5681 45.0988 39.4546 44.5602 37.2298C44.4525 36.2287 44.4525 35.3388 44.5602 34.3376C44.6679 33.559 44.6679 32.6691 44.5602 31.8904C44.3448 30.8893 44.0216 29.8881 43.483 28.9982C43.483 28.9982 44.7756 29.5544 45.8528 30.1106C46.2837 30.3331 46.4991 29.9994 46.2837 29.6656C46.1759 29.4432 45.9605 29.2207 45.8528 28.887C45.6374 28.6645 45.5296 28.3308 45.5296 27.9971C45.6374 27.2184 45.4219 26.551 45.0988 25.8836C44.5602 24.5487 44.8833 23.77 45.5296 23.6588C45.8528 23.6588 45.8528 23.4363 45.7451 23.2139ZM35.4042 19.2093C34.7579 19.2093 32.7113 19.4318 32.065 19.6543C32.065 19.4318 32.1727 18.0969 32.4958 17.9857C32.819 17.8745 34.327 17.7632 34.5425 17.7632C34.9733 17.7632 35.2965 17.652 35.6196 17.652C35.5119 18.2082 35.5119 18.6531 35.4042 19.2093ZM23.7707 15.7609C23.9862 15.7609 24.2016 15.7609 24.417 15.7609C24.8479 15.8722 24.5248 15.6497 24.417 15.5385C24.2016 15.4272 23.9862 15.4272 23.663 15.4272C22.8013 15.316 23.0167 14.7598 23.2321 14.7598C23.4476 14.7598 24.3093 14.871 24.7402 14.871C25.1711 14.871 24.9556 14.7598 24.7402 14.6486C24.5248 14.5373 23.8784 14.5373 23.5553 14.4261C22.5858 14.2036 22.8013 13.6474 23.0167 13.7587C23.2321 13.8699 24.0939 13.8699 24.3093 13.9811C24.5248 14.0924 24.5248 13.7587 24.3093 13.6474L23.0167 13.3137C22.909 13.3137 22.6936 12.7575 23.3399 12.7575C23.663 12.7575 24.7402 12.98 25.0633 12.98C25.3865 12.98 25.2788 12.8688 25.0633 12.7575C24.8479 12.6463 23.663 12.4238 23.3399 12.3126C23.0167 12.2013 22.6936 11.8676 23.2321 11.8676C23.7707 11.8676 24.3093 11.9789 24.7402 12.0901C25.1711 12.2013 24.9556 11.8676 24.7402 11.8676C24.5248 11.8676 23.5553 11.5339 23.2321 11.4227C22.909 11.3114 22.8013 10.9777 23.0167 10.9777C23.2321 10.9777 24.5248 11.3114 24.8479 11.4227C25.1711 11.5339 25.1711 11.2002 24.8479 11.089L22.909 10.5328C22.4781 10.4215 22.5858 10.1991 22.909 10.3103C23.2321 10.4215 24.5248 10.644 24.9556 10.644C25.3865 10.644 25.0633 10.4215 24.8479 10.3103C24.2016 10.1991 23.663 10.0878 23.1244 9.86534C22.909 9.7541 22.909 9.53163 23.1244 9.64286C23.3399 9.7541 24.0939 9.64287 23.8784 9.53163C23.663 9.42039 23.663 9.42039 23.8784 9.42039C24.0939 9.42039 24.3093 9.64286 24.6325 9.64286C24.9556 9.64286 24.8479 9.64286 24.6325 9.42039C24.3093 9.30915 23.9862 9.19791 23.663 9.08668C23.4476 8.97544 23.2321 8.64173 23.5553 8.75296C23.8784 8.8642 24.417 8.97544 24.8479 9.08668C25.2788 9.19791 25.0633 8.97544 24.8479 8.97544C24.3093 8.8642 23.8784 8.64173 23.4476 8.41925C22.909 8.19678 23.2321 8.08554 23.4476 8.08554C23.7707 8.19678 24.0939 8.30801 24.3093 8.41925C24.417 8.41925 24.6325 8.41925 24.3093 8.30801C23.9862 8.19677 23.5553 7.9743 23.3399 7.86306C23.1244 7.75182 23.0167 7.52935 23.3399 7.64059C23.663 7.75183 24.3093 7.9743 24.7402 7.9743C25.1711 7.9743 25.2788 7.86306 24.8479 7.75182C24.3093 7.64059 23.8784 7.41811 23.4476 7.30687C23.3399 7.30687 23.2321 7.0844 23.4476 7.0844C23.663 7.0844 24.2016 7.30687 24.417 7.30687C24.6325 7.30687 24.7402 7.19564 24.3093 7.19564C23.8784 7.19564 23.7707 6.97316 23.3399 6.86192C22.909 6.75069 23.2321 6.52821 23.4476 6.52821C23.663 6.52821 24.2016 6.75069 24.5248 6.75069C24.8479 6.75069 24.6325 6.63945 24.2016 6.63945C23.7707 6.52821 23.3399 6.30574 23.0167 6.08326C22.8013 5.97202 22.8013 5.86078 23.0167 5.86078C23.3399 5.97202 23.7707 6.08326 24.0939 6.1945C24.417 6.30574 24.5248 6.08326 24.3093 5.97202C24.0939 5.86078 23.2321 5.52707 23.0167 5.41583C22.8013 5.3046 22.6936 5.19336 22.909 5.19336C23.2321 5.3046 23.5553 5.3046 23.7707 5.41583C23.9862 5.52707 24.3093 5.3046 23.9862 5.19336C23.663 5.08212 23.0167 4.85965 22.6936 4.74841C22.3704 4.63717 22.5858 4.52593 22.6936 4.52593C22.8013 4.52593 23.663 4.74841 23.8784 4.74841C24.2016 4.74841 24.0939 4.52593 23.8784 4.52593C23.4476 4.41469 23.0167 4.30346 22.5858 3.96974C22.3704 3.74727 22.4781 3.74727 22.6936 3.85851C22.909 3.85851 23.2321 3.96974 23.3399 3.96974C23.4476 3.96974 23.7707 3.85851 23.3399 3.85851C23.3399 3.85851 23.0167 3.85851 22.8013 3.63603C22.5858 3.52479 22.5858 3.41356 22.6936 3.41356C22.8013 3.41356 23.0167 3.41356 23.1244 3.52479C23.2321 3.52479 23.8784 3.52479 23.4476 3.41356C23.0167 3.30232 23.1244 3.19108 22.909 3.07984C22.6936 2.9686 22.3704 2.85737 22.5858 2.85737C22.8013 2.85737 22.909 2.85737 23.2321 2.9686C23.5553 3.07984 23.8784 3.19108 23.7707 2.9686C23.663 2.74613 23.5553 2.85737 22.6936 2.74613C21.8318 2.63489 22.155 2.52365 22.2627 2.30118C22.3704 2.0787 22.4781 2.18994 22.6936 2.18994C23.1244 2.41242 23.663 2.30118 23.9862 1.96747C24.2016 1.63375 24.417 1.52252 24.6325 1.63375C25.0633 1.74499 25.3865 1.63375 25.7096 1.30004C25.8174 1.07756 26.0328 0.966327 26.1405 0.743851L26.2482 0.521376C26.3559 0.410138 26.4637 0.298901 26.6791 0.298901C26.7868 0.298901 26.8945 0.521376 27.0023 0.743851C27.11 0.966327 27.11 1.52252 27.11 2.0787C27.11 2.63489 27.2177 3.41356 27.3254 4.19222C27.4331 4.97088 27.7563 4.85965 27.864 4.85965C28.1871 4.85965 28.4026 4.63717 28.4026 4.41469C28.5103 4.41469 28.618 4.30346 28.5103 4.19222C28.5103 4.08098 28.618 3.85851 28.618 3.85851C28.8334 3.74727 28.8334 3.52479 28.8334 3.41356C28.8334 3.30232 28.9412 2.9686 29.0489 2.74613C29.1566 2.52365 29.0489 2.41242 29.0489 2.18994C29.0489 1.96747 29.1566 1.85623 29.2643 1.63375C29.2643 1.63375 29.372 1.63375 29.4798 1.74499C29.5875 1.85623 29.9106 1.52252 29.9106 1.41128C30.0183 1.07756 30.1261 0.855089 30.2338 0.521376C30.3415 0.298901 30.4492 0.0764254 30.4492 -0.14605C30.7724 -0.0348123 31.2032 -0.0348123 31.5264 -0.14605C31.6341 -0.14605 31.7418 -0.14605 31.7418 -0.0348123C31.7418 0.0764254 31.8495 0.0764254 31.8495 0.187663C31.8495 0.298901 31.8495 0.410138 31.8495 0.521376L31.7418 0.855089C31.4187 1.74499 31.2032 2.74613 30.9878 3.74727C30.9878 3.96974 30.9878 4.08098 30.9878 4.30346C30.9878 4.41469 31.0955 4.63717 31.2032 4.74841C31.4187 4.97088 31.6341 5.08212 31.8495 5.08212C34.0039 5.19336 35.6196 6.86192 36.0505 9.30915C36.1582 9.86534 36.1582 10.3103 36.1582 10.8665C36.1582 12.3126 36.0505 13.9811 35.9428 15.6497C35.7274 15.6497 35.5119 15.6497 35.4042 15.6497C35.0811 15.6497 34.7579 15.6497 34.4348 15.5385C33.7884 15.316 32.9267 15.316 32.2804 15.5385C32.2804 14.9823 32.2804 14.3148 32.2804 13.7587H32.3881C32.3881 13.7587 32.4958 13.8699 32.4958 14.0924C32.4958 14.3148 32.4958 15.0935 32.4958 15.2047C32.4958 15.316 32.7113 15.2047 32.7113 15.0935C32.7113 14.9823 32.7113 14.7598 32.7113 14.4261C32.7113 14.0924 32.7113 13.2025 32.6036 12.8688C32.6036 12.6463 32.6036 12.3126 32.6036 12.0901C32.4958 11.8676 32.3881 11.9789 32.3881 12.2013C32.3881 12.4238 32.3881 12.6463 32.3881 12.8688C32.3881 13.0912 32.2804 12.98 32.1727 12.98C32.1727 12.7575 32.1727 12.6463 32.1727 12.4238C32.1727 12.2013 32.065 11.8676 32.065 11.6451C31.9573 10.8665 31.7418 10.0878 31.3109 9.42039C31.2032 9.19791 30.9878 9.08668 30.7724 9.08668C30.7724 8.8642 30.5569 8.8642 30.4492 8.8642C30.3415 8.75296 30.2338 8.64173 30.2338 8.53049C30.2338 8.41925 30.4492 8.30801 30.1261 8.19678C29.8029 8.08554 29.9106 8.19677 29.8029 8.30801C29.6952 8.41925 29.372 8.41925 29.5875 8.53049C29.8029 8.64173 30.0183 8.75296 30.0183 8.75296C30.0183 8.75296 29.9106 8.97544 29.8029 8.8642C29.6952 8.75296 29.372 8.75296 29.1566 8.75296C28.9412 8.75296 28.8334 8.8642 28.9412 8.97544C29.0489 8.97544 29.4798 8.97544 29.5875 9.08668C29.6952 9.19791 29.9106 9.08668 29.6952 9.86534C29.5875 9.97658 28.4026 12.2013 28.4026 12.2013C28.4026 12.2013 26.6791 14.0924 26.6791 14.2036L26.1405 14.7598C25.3865 15.5385 24.6325 16.4284 23.8784 17.3183L23.4476 17.0958C22.6936 16.5396 23.0167 15.8722 23.7707 15.7609ZM23.9862 18.3194C24.6325 16.9846 25.6019 15.8722 26.6791 14.871C28.2949 13.4249 29.5875 11.6451 30.4492 9.53163C30.4492 9.42039 30.5569 9.42039 30.5569 9.42039C30.6646 9.53163 30.7724 9.7541 30.8801 9.97658C30.8801 9.97658 31.0955 10.644 30.9878 10.644C30.8801 10.644 30.7724 10.5328 30.5569 10.5328C30.3415 10.5328 30.3415 10.644 30.5569 10.7552C30.7724 10.8665 30.9878 11.089 31.0955 11.2002C31.2032 11.3114 31.2032 11.6451 31.0955 11.5339C30.7724 11.4227 30.5569 11.2002 30.3415 10.9777C30.1261 10.7552 30.0183 11.089 30.1261 11.2002C30.2338 11.3114 30.7724 11.8676 30.9878 11.9789C31.2032 12.0901 30.9878 12.2013 31.0955 12.535C30.3415 13.4249 29.8029 14.4261 29.4798 15.5385C29.4798 15.6497 29.4798 15.6497 29.4798 15.7609C29.4798 15.8722 29.5875 15.9834 29.6952 16.0947C29.8029 16.2059 30.1261 16.2059 30.2338 16.0947C30.5569 15.8722 31.0955 15.7609 31.5264 15.8722C31.7418 15.9834 32.065 15.9834 32.2804 15.7609C32.819 15.5385 33.4653 15.5385 34.0039 15.7609C34.327 15.8722 34.7579 15.8722 35.0811 15.8722C35.2965 15.8722 35.5119 15.8722 35.6196 15.8722L36.3737 16.0947C36.5891 16.2059 36.6968 16.3171 36.9123 16.4284C36.9123 16.5396 36.8045 16.5396 36.6968 16.5396C36.5891 16.5396 35.0811 16.7621 35.0811 16.7621H34.7579C34.5425 16.5396 33.8962 16.2059 33.8962 15.9834C33.8962 15.7609 33.573 15.9834 33.6807 16.0947C33.7884 16.2059 34.2193 16.5396 34.327 16.7621H33.8962C33.6807 16.5396 33.4653 16.3171 33.2499 16.0947C33.1421 15.9834 32.9267 16.0947 33.1421 16.2059C33.2499 16.3171 33.4653 16.5396 33.573 16.7621H33.4653C33.3576 16.7621 33.3576 16.7621 33.2499 16.6508C33.0344 16.5396 32.819 16.3171 32.6036 16.2059C32.4958 16.0947 32.2804 16.2059 32.2804 16.3171C32.2804 16.4284 32.819 16.7621 32.9267 16.8733V16.9846H32.819C32.7113 16.9846 32.6036 16.9846 32.6036 16.8733C32.3881 16.7621 32.1727 16.4284 32.065 16.3171C31.9573 16.2059 31.8495 16.4284 31.9573 16.5396C32.065 16.6508 32.2804 16.7621 32.3881 16.9846V17.0958L32.1727 17.207L32.065 17.4295C31.9573 17.207 31.7418 17.0958 31.5264 16.9846C31.3109 16.8733 31.2032 16.8733 31.3109 17.0958C31.4187 17.3183 31.8495 17.4295 31.8495 17.5407V17.652H31.7418C31.6341 17.5407 31.6341 17.5407 31.4187 17.4295C31.2032 17.3183 31.3109 17.7632 31.4187 17.8745L31.2032 18.0969C30.9878 17.8745 30.7724 17.7632 30.5569 17.652C30.5569 17.652 30.2338 17.5407 30.4492 17.7632C30.6646 17.9857 30.8801 18.2082 30.8801 18.3194C30.7724 18.4306 30.4492 18.2082 30.2338 18.0969C30.0183 17.9857 29.9106 18.0969 30.0183 18.2082C30.1261 18.3194 30.6646 18.4306 30.6646 18.6531C30.6646 18.8756 30.6646 18.9868 30.3415 18.8756C30.1261 18.7644 29.8029 18.6531 29.5875 18.5419C29.372 18.4306 29.372 18.6531 29.4798 18.7644C29.5875 18.8756 30.1261 19.2093 30.0183 19.4318C29.9106 19.6543 29.2643 19.3205 29.0489 19.2093C28.8334 19.0981 28.7257 19.2093 28.8334 19.3205C28.9412 19.4318 29.6952 19.7655 29.5875 19.988C29.4798 20.2104 28.8334 19.7655 28.618 19.543C28.4026 19.3205 28.4026 19.543 28.5103 19.6543C28.618 19.7655 29.372 20.0992 29.2643 20.3217C29.1566 20.5442 28.2949 19.988 28.0794 19.8767C27.864 19.7655 27.7563 19.988 27.9717 20.0992C28.1871 20.2104 29.1566 20.6554 28.9412 20.9891C28.7257 21.3228 27.9717 20.6554 27.6486 20.4329C27.3254 20.2104 27.2177 20.4329 27.4331 20.5442C27.6486 20.6554 28.1871 20.9891 28.2949 21.1003C28.4026 21.2116 28.5103 21.4341 28.1871 21.3228C27.7563 20.9891 27.2177 20.7666 26.6791 20.6554C26.4637 20.6554 26.4637 20.8779 26.6791 20.9891C27.11 21.1003 27.4331 21.3228 27.864 21.5453C27.9717 21.6565 27.7563 21.6565 27.5408 21.6565C27.2177 21.4341 26.8945 21.3228 26.5714 21.2116C26.4637 21.2116 26.1405 21.2116 26.4637 21.4341C26.7868 21.6565 27.3254 21.7678 27.11 21.879C26.7868 21.9902 26.4637 21.9902 26.1405 21.879C25.0633 22.4352 24.0939 23.1026 23.2321 23.8813C22.3704 24.1038 21.7241 22.6577 22.8013 20.4329C23.0167 19.8767 23.8784 18.4306 23.9862 18.3194ZM21.8318 25.8836C21.9395 25.8836 22.0473 25.8836 22.0473 25.8836C22.2627 25.9948 23.2321 26.551 23.4476 26.6622C23.5553 26.6622 23.5553 26.7735 23.5553 26.8847C23.5553 26.9959 23.3399 26.9959 23.2321 26.9959C23.0167 26.8847 22.6936 26.6622 22.4781 26.551C22.2627 26.4398 22.155 26.3285 21.9395 26.3285L21.8318 26.2173C21.7241 25.9948 21.7241 25.8836 21.8318 25.8836ZM20.8624 26.6622C20.8624 26.6622 20.8624 26.551 20.9701 26.551C21.0778 26.551 21.1855 26.551 21.1855 26.6622C21.8318 26.9959 22.4781 27.3297 23.1244 27.5521C23.4476 27.6634 23.4476 27.6634 23.4476 27.6634C23.4476 27.6634 23.3399 27.8858 23.0167 27.8858C22.3704 27.7746 21.8318 27.4409 21.2932 27.1072L20.9701 26.9959C20.8624 26.8847 20.8624 26.7735 20.8624 26.6622ZM25.1711 34.1152C25.2788 34.1152 25.3865 34.2264 25.2788 34.2264C25.1711 34.2264 25.0633 34.3376 24.8479 34.3376C24.5248 34.2264 24.2016 34.1152 23.8784 34.0039L23.5553 33.8927C23.4476 33.8927 23.4476 33.7814 23.4476 33.6702V33.559C23.4476 33.559 23.5553 33.559 23.663 33.559C23.7707 33.559 24.9556 34.1152 25.1711 34.1152ZM22.5858 43.2366C22.5858 43.2366 22.8013 43.2366 23.9862 43.6816C24.3093 43.7928 24.6325 43.9041 24.7402 44.0153C24.8479 44.1265 25.8174 44.349 25.9251 44.5715C25.9251 44.6827 25.9251 44.6827 25.9251 44.794C25.9251 44.794 25.8174 45.0164 25.7096 45.0164C25.3865 44.9052 25.0633 44.794 24.7402 44.6827C24.0939 44.4603 23.5553 44.2378 22.909 44.0153C22.6936 43.9041 22.4781 43.6816 22.5858 43.4591C22.5858 43.3479 22.5858 43.3479 22.5858 43.2366ZM26.4637 44.349L26.2482 44.2378C26.1405 44.2378 26.1405 44.1265 26.1405 44.0153C26.1405 44.0153 26.1405 43.9041 26.2482 43.9041C26.3559 43.9041 26.4637 43.9041 26.4637 43.9041L26.6791 44.0153C26.8945 44.1265 27.7563 44.349 27.7563 44.4603C27.7563 44.4603 27.7563 44.5715 27.7563 44.6827L27.6486 44.794C27.3254 44.6827 26.8945 44.5715 26.4637 44.349ZM27.5408 42.6805C27.5408 42.7917 27.4331 42.7917 27.3254 42.7917C26.6791 42.6805 26.0328 42.458 25.3865 42.2355H25.2788H25.1711C25.0633 42.2355 24.9556 42.1243 24.9556 42.013C24.9556 41.9018 24.9556 41.6793 24.9556 41.6793C24.9556 41.6793 26.5714 42.1243 26.7868 42.1243C27.0023 42.1243 27.11 42.1243 27.3254 42.2355C27.4331 42.3467 27.5408 42.5692 27.5408 42.6805ZM27.0023 41.4568C26.2482 41.3456 25.4942 41.0119 24.8479 40.6782L24.3093 40.4557C23.663 40.122 23.1244 39.8995 22.909 39.8995C22.2627 39.677 21.2932 39.5658 21.4009 39.0096C21.4009 38.8984 21.5087 38.7871 21.5087 38.6759C21.5087 38.6759 21.6164 38.6759 21.7241 38.6759C21.8318 38.7871 21.9395 38.7871 22.155 38.8984C22.4781 39.0096 23.3399 39.4546 23.663 39.5658C23.9862 39.677 26.4637 40.6782 26.5714 40.6782C26.7868 40.6782 26.8945 40.7894 27.0023 40.9007V41.0119V41.2344C27.0023 41.2344 27.11 41.4568 27.0023 41.4568ZM18.6003 34.8938C18.6003 34.7826 18.6003 34.6713 18.9234 34.7826L22.4781 36.2287C22.4781 36.3399 22.5858 36.4511 22.5858 36.4511C22.5858 36.5624 22.3704 36.5624 22.2627 36.5624L20.0006 35.6725C19.5698 35.5612 19.0312 35.3388 18.708 35.1163C18.6003 35.0051 18.4926 35.0051 18.6003 34.8938ZM18.4926 38.3422C19.0312 38.5647 19.462 38.7871 20.0006 39.1208C20.3238 39.3433 20.4315 40.122 20.4315 40.122C20.1083 40.0107 19.6775 39.8995 19.3543 39.7883C19.0312 39.677 18.708 39.5658 18.3849 39.3433C18.3849 39.2321 18.3849 39.1208 18.3849 39.0096C18.2771 38.8984 18.2771 38.3422 18.4926 38.3422ZM18.4926 40.6782C18.4926 40.5669 18.4926 40.2332 18.6003 40.2332C18.708 40.2332 20.4315 40.7894 20.5392 40.7894C20.8624 41.0119 20.8624 41.6793 20.8624 41.6793L20.7546 41.7906C20.6469 41.7906 19.2466 41.2344 19.1389 41.2344C18.9234 41.2344 18.8157 41.1231 18.6003 41.0119C18.4926 41.0119 18.3849 40.9007 18.4926 40.6782ZM19.5698 36.2287C19.5698 36.1174 19.6775 36.0062 19.6775 36.0062C20.2161 36.1174 20.6469 36.3399 21.0778 36.5624L21.6164 36.7849C21.6164 36.8961 21.7241 36.8961 21.6164 37.0073C21.6164 37.0073 21.6164 37.2298 21.5087 37.2298C21.4009 37.2298 21.4009 37.2298 21.4009 37.1186C21.4009 37.0073 19.5698 36.4511 19.5698 36.2287ZM26.6791 39.8995C26.6791 40.0108 26.6791 40.122 26.5714 40.122C25.4942 39.7883 24.417 39.3433 23.3399 38.8984C23.3399 38.8984 21.9395 38.2309 21.7241 38.1197C21.5087 38.0085 21.8318 37.8972 21.8318 37.786C21.9395 37.6748 22.0473 37.6748 22.155 37.786C22.2627 37.8972 23.7707 38.3422 23.9862 38.4534L24.417 38.6759C24.7402 38.7871 25.8174 39.2321 25.9251 39.2321H26.0328C26.2482 39.2321 26.3559 39.3433 26.4637 39.4546C26.6791 39.4546 26.6791 39.8995 26.6791 39.8995ZM26.4637 38.7871C26.4637 38.8984 26.2482 38.8984 26.1405 38.8984C26.0328 38.8984 23.4476 37.786 23.1244 37.6748C22.8013 37.5635 22.2627 37.4523 22.2627 37.341C22.2627 37.2298 22.3704 36.5624 23.4476 37.0073C23.663 37.1186 26.1405 37.8972 26.1405 37.8972C26.3559 38.0085 26.3559 38.2309 26.3559 38.4534C26.3559 38.4534 26.4637 38.5647 26.4637 38.7871ZM18.6003 29.9994C18.708 29.8881 18.9234 29.7769 19.1389 29.8881C19.2466 29.9994 22.6936 31.3342 23.0167 31.4454C23.1244 31.4454 23.1244 31.5567 23.2321 31.5567C23.2321 31.7792 23.2321 32.1129 23.2321 32.3354C23.1244 32.4466 23.0167 32.4466 22.909 32.4466C22.6936 32.3354 19.0312 30.778 18.8157 30.5555C18.6003 30.3331 18.708 30.4443 18.708 30.4443C18.6003 30.3331 18.6003 30.1106 18.6003 29.9994ZM18.6003 31.4454L19.1389 31.6679L19.462 31.7792L21.8318 32.7803L22.2627 33.0028C22.3704 33.0028 22.3704 33.114 22.3704 33.2253C22.3704 33.3365 22.3704 33.3365 22.3704 33.4477C22.3704 33.4477 22.3704 33.6702 21.7241 33.559C20.8624 33.3365 18.1694 32.5578 18.3849 31.7792C18.3849 31.5567 18.6003 31.3342 18.6003 31.4454ZM24.9556 35.1163L24.6325 35.0051C24.2016 34.8938 23.7707 34.7826 23.3399 34.5601C23.1244 34.4489 23.1244 34.3376 23.1244 34.3376C23.1244 34.3376 23.2321 34.2264 23.4476 34.2264C23.663 34.2264 24.2016 34.4489 24.6325 34.5601C24.8479 34.5601 24.9556 34.6713 25.1711 34.7826C25.2788 34.7826 25.3865 34.8938 25.3865 34.8938V35.0051C25.1711 35.2275 25.0633 35.2275 24.9556 35.1163ZM22.909 30.5555C22.2627 30.3331 21.6164 30.1106 21.0778 29.8881C20.5392 29.6656 20.1083 29.5544 19.5698 29.3319C19.462 29.3319 19.462 29.2207 19.462 29.1095C19.462 28.9982 19.5698 28.6645 19.6775 28.6645C19.7852 28.6645 19.8929 28.6645 20.0006 28.6645C20.4315 28.887 20.9701 29.1095 21.4009 29.3319C21.7241 29.4432 21.9395 29.5544 22.2627 29.6656C22.5858 29.7769 22.8013 29.8881 22.909 29.8881C23.0167 29.8881 23.0167 29.9994 23.0167 29.9994C23.0167 30.2218 23.0167 30.3331 22.909 30.5555ZM20.2161 27.5521C20.3238 27.5521 20.4315 27.5521 20.5392 27.6634C20.6469 27.7746 22.0473 28.3308 22.8013 28.6645C22.909 28.6645 23.1244 28.7757 23.1244 28.887C23.1244 29.1095 22.909 29.2207 22.8013 29.2207C21.9395 28.887 20.9701 28.5533 20.2161 27.9971L20.1083 27.7746L20.2161 27.5521ZM16.5537 20.4329L18.0617 20.9891C18.1694 20.9891 18.2771 20.8779 18.0617 20.7666C17.8463 20.6554 17.2 20.2104 16.9845 20.0992C16.7691 19.988 17.0923 19.988 17.2 19.988C17.3077 19.988 17.8463 20.2104 18.0617 20.2104C18.2771 20.2104 18.3849 20.0992 18.2771 20.0992C18.1694 19.988 18.0617 19.8767 17.954 19.8767C18.3849 19.7655 18.8157 19.4318 18.9234 18.9868C19.0312 18.6531 19.1389 18.4306 19.2466 18.0969C19.3543 17.652 19.6775 17.4295 19.8929 17.5407C20.1083 17.652 20.3238 17.7632 20.4315 18.2082C20.6469 19.6543 20.7546 21.1003 20.6469 22.5464C20.6469 23.4363 20.6469 24.3262 20.7546 25.2161C20.3238 25.5499 20.0006 25.8836 19.5698 26.3285C19.462 26.3285 19.3543 26.3285 19.2466 26.3285C19.0312 26.3285 18.8157 26.106 19.0312 26.106C19.2466 26.106 19.3543 25.8836 19.2466 25.8836C19.0312 25.8836 18.9234 25.8836 18.708 25.7723C18.3849 25.6611 18.4926 25.5499 18.6003 25.4386C18.8157 25.4386 19.0312 25.5499 19.1389 25.6611C19.3543 25.7723 19.5698 25.4386 19.2466 25.4386C18.9234 25.4386 18.4926 25.1049 18.1694 24.9937C17.8463 24.8824 17.7386 24.6599 17.954 24.7712C18.2771 24.8824 18.6003 24.8824 18.9234 24.8824C19.2466 24.8824 19.1389 24.66 18.9234 24.66C18.708 24.66 18.0617 24.5487 17.8463 24.4375C17.6308 24.3262 17.6308 24.1038 17.8463 24.1038C18.2771 24.215 18.708 24.3262 19.1389 24.5487C19.3543 24.66 19.462 24.3262 19.0312 24.215C18.6003 24.1038 18.1694 23.8813 17.7386 23.77C17.6308 23.77 17.5231 23.5476 17.8463 23.5476C18.1694 23.5476 18.8157 23.77 19.0312 23.8813C19.2466 23.9925 19.2466 23.77 18.9234 23.77C18.6003 23.77 17.954 23.3251 17.7386 23.2139C17.5231 23.1026 17.5231 22.9914 17.7386 22.9914C17.954 22.9914 18.708 23.3251 18.9234 23.3251C19.1389 23.3251 19.2466 23.2139 18.8157 23.1026C18.3849 22.9914 17.8463 22.7689 17.4154 22.5464C17.0923 22.4352 17.2 22.2127 17.4154 22.324C17.6308 22.4352 18.1694 22.7689 18.3849 22.6577C18.6003 22.5464 18.4926 22.5464 18.3849 22.5464C18.0617 22.4352 17.7386 22.2127 17.4154 22.1015C17.3077 21.9902 17.3077 21.9902 17.4154 21.879C17.5231 21.7678 17.8463 22.1015 17.954 22.1015C18.0617 22.1015 18.1694 21.9902 18.0617 21.879C17.954 21.7678 17.4154 21.6565 17.2 21.5453C16.9845 21.4341 17.0923 21.3228 17.2 21.3228C17.3077 21.3228 17.8463 21.5453 18.0617 21.5453C18.2771 21.5453 18.2771 21.5453 18.0617 21.4341C17.6308 21.2116 17.2 21.1003 16.7691 20.7666C16.3382 20.5442 16.4459 20.3217 16.5537 20.4329ZM18.9234 33.114C20.1083 33.4477 21.2932 33.8927 22.4781 34.4489C23.1244 34.6713 22.6936 34.8938 22.909 35.0051C23.3399 35.2275 23.7707 35.45 24.2016 35.5612C24.8479 35.7837 25.3865 36.0062 25.4942 36.1174C25.6019 36.2287 25.7096 36.4511 25.7096 36.5624C25.7096 36.6736 25.7096 36.6736 25.6019 36.6736C25.4942 36.6736 25.4942 36.6736 25.3865 36.5624C24.8479 36.3399 24.3093 36.1174 23.7707 35.895C23.1244 35.6725 22.5858 35.45 22.0473 35.2275C21.7241 35.1163 21.2932 34.8938 20.9701 34.7826C20.7546 34.6713 20.4315 34.6713 20.2161 34.5601C19.6775 34.2264 19.0312 34.1152 18.6003 33.7814C18.4926 33.8927 18.6003 33.114 18.9234 33.114ZM16.0151 38.5647C16.1228 38.5647 16.0151 38.2309 15.7996 38.1197C15.5842 38.0085 15.3688 37.5635 15.5842 37.6748L16.4459 38.2309C16.6614 38.3422 16.7691 38.2309 16.4459 38.0085C16.1228 37.786 15.7996 37.4523 15.4765 37.2298C15.3688 37.1186 15.2611 36.6736 15.3688 36.7849C15.6919 37.0073 15.9074 37.2298 16.2305 37.4523C16.3382 37.5635 16.4459 37.4523 16.3382 37.2298C16.2305 37.0073 15.6919 36.6736 15.4765 36.3399C14.9379 35.895 15.1533 35.1163 15.2611 35.2275C15.7996 35.5612 16.2305 36.0062 16.7691 36.4511C16.8768 36.5624 16.9845 36.4511 16.8768 36.2287C16.6614 36.0062 15.6919 35.1163 15.4765 35.0051C15.2611 34.7826 15.1533 34.4489 15.2611 34.1152C15.2611 34.0039 15.4765 33.8927 15.4765 34.0039C15.4765 34.1152 16.4459 35.0051 16.5537 35.1163C16.6614 35.2275 16.7691 35.1163 16.6614 35.0051C16.5537 34.8938 15.9074 34.3376 15.6919 34.1152C15.4765 33.8927 15.6919 33.7814 15.9074 33.8927C16.1228 34.0039 16.7691 34.6713 16.8768 34.7826C16.9845 34.8938 16.9845 34.6713 16.8768 34.6713C16.7691 34.6713 15.6919 33.559 15.5842 33.4477C15.4765 33.3365 15.3688 33.2253 15.4765 33.114C15.5842 33.0028 15.5842 32.6691 15.9074 32.8915C16.0151 33.0028 16.2305 33.114 16.3382 33.2253C16.4459 33.3365 16.5537 33.2253 16.4459 33.114C16.3382 33.0028 15.9074 32.6691 15.7996 32.5578C15.6919 32.4466 15.6919 32.2241 15.9074 32.3354C16.2305 32.5578 16.4459 32.7803 16.7691 33.114C16.8768 33.2253 17.2 33.114 16.8768 33.0028C16.4459 32.6691 16.0151 32.2241 15.6919 31.7792C15.5842 31.4454 15.5842 30.4443 15.7996 30.5555C16.0151 30.6668 16.3382 30.8893 16.5537 31.1117C16.7691 31.3342 16.6614 31.0005 16.5537 30.778C16.1228 30.4443 15.6919 29.9994 15.3688 29.4432C15.3688 29.3319 15.2611 29.2207 15.2611 29.2207C14.8302 28.442 15.1533 27.3297 15.9074 26.8847C16.0151 26.8847 16.1228 26.7735 16.2305 26.7735C16.5537 26.6622 16.7691 26.6622 17.0923 26.7735C17.3077 26.8847 17.4154 26.9959 17.4154 27.1072C17.4154 27.2184 17.3077 27.2184 17.0923 27.2184C16.6614 27.2184 16.3382 27.4409 16.1228 27.8858C16.0151 28.2196 16.0151 28.5533 16.1228 28.887C16.2305 29.1095 16.4459 29.4432 16.6614 29.7769L17.2 30.5555C17.8463 31.7792 18.0617 33.2253 17.8463 34.5601C17.7386 35.3388 17.7386 36.2287 17.8463 37.0073C18.0617 37.8972 17.8463 38.7871 17.4154 39.5658C17.3077 39.7883 17.0923 39.8995 16.8768 39.8995C16.6614 39.8995 16.5537 39.7883 16.4459 39.677C16.2305 39.3433 15.6919 38.6759 16.0151 38.5647ZM19.1389 54.1379C19.0312 54.1379 18.9234 54.2492 18.9234 54.3604C18.708 54.5829 18.3849 54.6941 18.0617 54.6941V54.5829C17.954 54.3604 18.1694 54.1379 18.2771 54.2492C18.4926 54.2492 18.708 54.1379 18.8157 54.0267C18.8157 53.9155 19.1389 53.9155 19.1389 54.0267V54.1379ZM21.7241 56.3627C21.6164 56.3627 21.5087 56.3627 21.1855 56.2514C21.1855 56.1402 21.2932 56.029 21.4009 56.029C21.6164 56.029 21.6164 56.1402 21.7241 56.3627ZM21.5087 53.248C21.5087 54.0267 21.6164 54.6941 21.7241 55.4728L21.5087 55.2503H21.2932C21.1855 55.1391 17.7386 52.1357 17.4154 52.4694L17.3077 52.6918C17.3077 52.6918 17.5231 52.3581 17.4154 52.2469C17.3077 52.1357 17.4154 51.6907 17.5231 51.5795C17.6308 51.4682 17.6308 51.5795 17.8463 51.6907C18.0617 51.8019 17.954 51.5795 17.8463 51.4682C17.7386 51.357 17.6308 51.357 17.5231 51.2458C17.4154 51.1345 17.4154 50.912 17.5231 51.0233C17.6308 51.1345 17.8463 51.1345 17.954 51.2458C18.1694 51.357 18.0617 51.1345 17.954 51.0233C17.7386 50.912 17.6308 50.8008 17.5231 50.6896C17.4154 50.5783 17.4154 50.3559 17.6308 50.4671C17.8463 50.5783 18.0617 50.6896 18.2771 50.8008C18.4926 50.912 18.4926 50.5783 18.2771 50.5783C18.0617 50.4671 17.8463 50.3559 17.6308 50.1334C17.4154 50.0221 17.3077 49.466 17.6308 49.466C17.8463 49.5772 18.0617 49.6884 18.2771 49.7997C18.4926 49.9109 18.6003 49.6884 18.3849 49.5772C18.1694 49.3547 17.8463 49.2435 17.6308 49.021C17.4154 48.9098 17.5231 48.4648 17.7386 48.4648C17.954 48.4648 18.0617 48.576 18.1694 48.6873C18.2771 48.7985 18.3849 48.5761 18.2771 48.5761L17.8463 48.2423C17.7386 48.1311 17.7386 47.6861 17.954 47.9086C18.1694 48.0199 18.2771 48.1311 18.4926 48.1311C18.708 48.2423 18.6003 47.9086 18.6003 47.9086C18.6003 47.9086 18.1694 47.6861 17.954 47.5749C17.7386 47.4637 17.8463 47.2412 18.0617 47.3524C18.2771 47.4637 18.4926 47.5749 18.6003 47.6861C18.708 47.7974 18.9234 47.6861 18.8157 47.5749C18.708 47.4637 18.4926 47.3524 18.3849 47.2412C17.6308 47.0187 17.954 44.349 19.3543 45.3502C19.6775 45.5726 20.8624 47.0187 21.1855 47.0187C21.5087 47.0187 21.5087 53.1368 21.5087 53.248ZM19.2466 43.2366C19.0312 43.2366 18.708 42.3467 18.9234 42.2355C19.1389 42.1243 20.6469 42.7917 20.9701 42.7917C21.5087 42.9029 21.5087 43.9041 21.1855 43.7928C20.8624 43.6816 19.462 43.2366 19.2466 43.2366ZM27.4331 50.2446C27.3254 50.2446 25.1711 49.3547 25.0633 49.1322C24.9556 48.9098 24.9556 48.4648 25.3865 48.5761L27.7563 49.5772C28.618 50.0221 28.5103 50.5783 27.4331 50.2446ZM23.5553 45.4614C23.3399 45.3502 23.1244 45.2389 23.0167 45.0164C23.0167 44.9052 23.1244 44.6827 23.7707 44.794C24.3093 45.0164 24.7402 45.1277 25.2788 45.3502L25.6019 45.4614L25.8174 45.5726L27.3254 46.1288C27.6486 46.2401 28.618 46.685 28.9412 46.685C29.0489 46.685 29.0489 47.0187 29.0489 47.13C28.7257 47.6861 23.7707 45.5726 23.5553 45.4614ZM32.6036 59.4773C31.9573 59.5886 31.4187 59.6998 30.8801 59.8111C30.4492 59.9223 30.4492 59.5886 30.5569 59.4773C30.6646 59.3661 30.9878 58.9212 31.2032 58.8099C31.4187 58.6987 31.9573 58.365 32.1727 58.5874C32.4958 58.8099 32.819 59.0324 33.1421 59.2549C33.573 59.4773 33.0344 59.4773 32.6036 59.4773ZM35.5119 59.6998C35.5119 59.9223 34.8656 60.0335 34.6502 60.1448C34.2193 60.1448 33.7884 59.9223 33.4653 59.6998C33.2499 59.4773 33.573 59.2549 33.6807 59.1436C33.8962 59.0324 34.1116 59.0324 34.327 59.1436C34.4348 59.1436 34.9733 59.0324 35.0811 59.1436C35.5119 59.2549 35.6196 59.4773 35.5119 59.6998ZM34.0039 58.365C33.7884 58.4762 33.573 58.4762 33.3576 58.4762C33.3576 58.365 33.4653 58.2537 33.3576 58.2537C33.0344 58.1425 32.819 57.92 32.6036 57.6975C32.4958 57.5863 32.4958 57.6975 32.3881 57.6975C32.1727 57.6975 31.9573 57.6975 31.7418 57.6975C31.4187 57.6975 31.4187 56.029 31.4187 55.8065C31.5264 55.3615 32.065 55.0278 32.4958 55.1391C32.819 55.1391 33.1421 55.0278 33.1421 54.8054C33.1421 54.5829 33.1421 54.1379 33.2499 54.1379C33.7884 54.1379 33.573 53.693 33.573 53.4705C34.0039 53.4705 34.4348 53.4705 34.8656 53.3593H34.9733C34.9733 53.5817 35.7274 57.0301 35.9428 58.365C35.2965 58.1425 34.6502 58.1425 34.0039 58.365ZM44.0216 34.2264V34.1152C44.0216 34.2264 44.0216 34.2264 44.0216 34.2264ZM44.0216 33.0028V32.8915C44.0216 32.8915 44.0216 32.8915 44.0216 33.0028ZM44.0216 32.7803V32.6691C44.0216 32.6691 44.0216 32.6691 44.0216 32.7803ZM43.2676 29.8881C43.2676 29.8881 43.2676 29.7769 43.1599 29.7769L43.2676 29.8881ZM43.9139 31.5567V31.4454C43.9139 31.4454 43.8062 31.4454 43.8062 31.5567H43.9139ZM43.9139 31.3342V31.223L43.8062 31.3342H43.9139ZM43.8062 30.8893V30.778L43.5907 30.8893H43.8062ZM43.483 30.1106C43.483 30.1106 43.483 29.9994 43.3753 29.8881C43.2676 29.7769 43.2676 29.9994 43.2676 30.1106H43.483ZM43.2676 29.5544V29.4432C43.2676 29.4432 43.1599 29.4432 43.1599 29.5544H43.2676ZM43.5907 34.3376C43.0521 38.1197 44.7756 41.0119 46.4991 43.7928V43.9041C46.8223 44.4603 47.0377 45.0164 47.2531 45.5726C47.3608 46.1288 47.3608 46.5738 47.3608 47.13C47.1454 47.7974 46.93 48.4648 46.6068 49.021C46.3914 49.3547 46.1759 49.6884 45.8528 49.9109C45.8528 49.9109 43.483 53.9155 32.819 52.9143C32.2804 52.8031 31.8495 52.2469 31.6341 51.6907C31.2032 51.2458 30.5569 51.0233 30.0183 50.8008C29.6952 50.8008 29.8029 50.5783 30.0183 50.4671C30.2338 50.3559 29.8029 50.1334 29.5875 50.0221C28.5103 49.5772 29.0489 48.7985 29.372 48.9098C29.9106 49.1322 30.5569 49.3547 31.2032 49.466C31.6341 49.466 31.3109 49.2435 31.2032 49.2435C31.0955 49.2435 30.1261 48.9098 29.9106 48.7985C28.9412 48.2423 30.0183 47.6861 30.3415 47.6861C30.4492 47.6861 31.5264 48.0199 31.9573 48.1311C32.3881 48.2423 32.1727 48.0199 31.8495 47.9086L30.9878 47.5749C30.5569 47.4637 30.9878 47.3524 31.0955 47.3524C31.2032 47.3524 31.9573 47.5749 31.8495 47.4637C31.7418 47.3524 31.2032 47.13 30.7724 46.9075C30.3415 46.685 28.1871 44.349 31.2032 45.2389C31.3109 45.2389 31.4187 45.2389 31.4187 45.1277C31.4187 45.0164 31.4187 45.0164 31.4187 44.9052C31.3109 44.794 29.6952 44.1265 29.372 44.1265C28.618 43.9041 28.5103 43.0142 28.7257 43.1254C29.2643 43.3479 29.9106 43.5704 30.4492 43.7928C30.6646 43.7928 30.6646 43.4591 30.4492 43.4591C30.2338 43.4591 29.0489 42.9029 28.8334 42.9029C28.618 42.9029 28.2949 42.6805 28.4026 42.5692C28.5103 42.458 28.2949 42.458 28.0794 42.2355C27.864 42.013 28.0794 41.9018 28.5103 42.013C28.9412 42.1243 28.7257 41.7906 28.618 41.7906C28.4026 41.6793 28.0794 41.4568 27.864 41.2344C27.6486 41.0119 27.5408 40.3445 27.4331 40.122C27.3254 39.8995 27.6486 40.0107 27.864 40.122C28.0794 40.2332 27.864 39.8995 27.6486 39.8995C27.4331 39.8995 27.3254 39.677 27.2177 39.4546C27.11 39.2321 27.6486 39.4546 27.864 39.4546C28.0794 39.4546 27.9717 39.3433 27.7563 39.2321C27.5408 39.1208 27.3254 39.0096 27.3254 38.7871C27.3254 38.5647 27.5408 38.7871 27.9717 38.7871C28.4026 38.7871 28.0794 38.5647 27.864 38.4534C27.6486 38.4534 27.4331 38.3422 27.2177 38.2309C27.0023 38.1197 27.11 38.0085 27.11 37.786C27.11 37.5635 27.2177 37.5635 27.5408 37.5635C27.864 37.5635 27.9717 37.5635 27.864 37.4523C27.7563 37.341 27.3254 37.2298 27.2177 37.2298C27.11 37.2298 26.8945 37.0073 27.0023 36.8961C27.11 36.7849 26.8945 36.5624 26.7868 36.4511C26.6791 36.3399 26.8945 36.3399 27.11 36.3399C27.3254 36.3399 27.2177 35.895 26.7868 36.0062C26.3559 36.1174 26.5714 35.5612 26.5714 35.1163C26.5714 34.6713 26.6791 34.7826 26.5714 34.5601C26.4637 34.3376 25.9251 35.0051 25.9251 34.5601C26.0328 34.3376 25.9251 34.1152 25.7096 34.0039C25.6019 34.0039 25.7096 33.7814 25.6019 33.6702C25.4942 33.559 24.2016 33.2253 23.8784 33.114C23.5553 33.0028 23.8784 32.3354 24.6325 32.5578C24.9556 32.6691 25.2788 32.6691 25.2788 32.4466C25.2788 32.2241 25.0633 32.3354 24.5248 32.0016C23.9862 31.6679 24.0939 31.223 24.7402 31.3342C24.9556 31.3342 25.1711 31.223 25.0633 31.1117C24.9556 31.0005 24.7402 31.0005 24.5248 30.8893C24.3093 30.778 23.5553 29.4432 24.5248 29.5544C24.7402 29.5544 24.8479 29.3319 24.5248 29.3319C24.417 29.3319 24.2016 29.2207 24.0939 29.2207C23.8784 29.2207 24.0939 28.3308 24.3093 28.2196C24.5248 28.1083 24.7402 28.3308 24.9556 28.442C25.1711 28.5533 25.1711 28.3308 24.9556 28.2196L24.417 27.8858C24.3093 27.7746 24.417 27.7746 24.5248 27.6634C24.6325 27.5521 24.9556 27.7746 25.2788 27.8858C25.6019 27.9971 25.6019 27.6634 25.2788 27.5521C24.9556 27.4409 24.5248 27.3297 24.6325 27.2184C24.7402 27.1072 24.6325 26.6622 24.8479 26.6622C25.0633 26.6622 25.3865 26.7735 25.6019 26.7735C25.6019 26.7735 25.9251 26.4398 25.6019 26.4398C25.3865 26.4398 25.1711 26.3285 24.9556 26.2173C24.5248 25.9948 24.9556 25.5499 25.1711 25.6611C25.4942 25.7723 25.9251 25.8836 26.2482 25.7723C26.6791 25.6611 26.5714 25.4386 26.2482 25.3274C25.8174 25.2161 25.3865 25.1049 24.9556 24.8824C24.7402 24.7712 25.1711 23.8813 25.4942 23.77C25.8174 23.6588 26.7868 22.8801 27.6486 24.1038C27.7563 24.3262 28.1871 24.5487 28.4026 24.66C28.7257 24.8824 29.0489 25.1049 29.372 25.3274C29.4798 25.5499 29.8029 25.5499 30.1261 25.3274C30.4492 25.1049 30.0183 24.7712 29.4798 24.215C29.2643 24.1038 29.0489 24.1038 28.8334 23.9925C28.618 23.8813 28.0794 22.9914 28.1871 22.7689L27.7563 22.2127L27.2177 21.7678C29.0489 21.5453 30.8801 21.7678 32.6036 22.324C32.6036 22.324 35.7274 25.8836 35.8351 25.9948C35.9428 26.106 36.3737 26.2173 36.4814 26.106C36.5891 25.9948 36.4814 25.4386 36.1582 25.4386C35.8351 25.4386 35.6196 24.5487 35.4042 24.3262C35.1888 24.1038 34.1116 22.7689 33.8962 22.5464C33.6807 22.324 34.0039 22.324 34.1116 22.4352C34.2193 22.5464 34.6502 22.9914 34.7579 22.8801C34.8656 22.7689 34.7579 22.7689 34.5425 22.4352C34.327 22.1015 34.7579 22.4352 34.7579 22.2127C35.9428 22.4352 37.02 22.8801 37.8817 23.5476C39.3898 24.5487 40.5746 25.9948 41.3287 27.6634V27.7746C43.0521 29.4432 43.8062 31.8904 43.5907 34.3376ZM44.1293 28.9982V29.2207L43.8062 28.9982C43.5907 28.5533 43.2676 28.1083 42.9444 27.7746C42.8367 27.6634 43.0521 27.4409 43.483 27.7746C43.6984 28.1083 43.9139 28.5533 44.1293 28.9982ZM43.0521 22.9914C42.729 22.9914 42.5136 23.2139 42.6213 23.5476C42.6213 23.8813 42.6213 24.215 42.6213 24.5487C42.6213 24.7712 42.8367 25.1049 42.9444 25.2161C43.0521 25.3274 43.1599 25.7723 43.0521 25.8836C42.9444 25.9948 42.729 25.9948 42.729 26.2173C42.729 26.4398 42.6213 26.7735 42.5136 26.551C42.4058 26.3285 42.4058 26.2173 42.2981 25.9948C42.1904 25.7723 41.975 25.6611 42.0827 25.8836C42.1904 26.106 42.1904 26.3285 42.2981 26.551C42.4058 26.7735 42.1904 26.8847 42.0827 26.551C41.975 26.2173 41.7595 25.9948 41.7595 25.6611C41.7595 25.3274 41.5441 25.5499 41.6518 25.7723C41.7595 25.9948 41.5441 26.2173 41.4364 25.8836C41.3287 25.5499 41.0055 24.66 40.8978 24.3262C40.7901 23.9925 40.6824 24.1038 40.6824 24.215C40.7901 24.3262 40.7901 24.5487 40.7901 24.7712C40.7901 24.8824 40.5746 25.1049 40.5746 24.7712C40.5746 24.4375 40.3592 24.215 40.3592 23.9925C40.3592 23.77 39.9283 23.5476 40.0361 23.77C40.1438 23.9925 40.1438 24.215 40.1438 24.4375C40.1438 24.66 39.9283 24.5487 39.9283 24.3262C39.9283 24.1038 39.8206 23.9925 39.7129 23.77C39.6052 23.5476 39.4975 23.4363 39.4975 23.5476C39.4975 23.6588 39.4975 23.8813 39.3898 23.77C39.282 23.6588 39.282 23.5476 39.1743 23.3251C39.0666 23.1026 38.9589 22.7689 38.8512 22.5464C38.7434 22.324 38.528 22.324 38.6357 22.4352C38.7434 22.6577 38.7434 22.8801 38.8512 23.2139C38.8512 23.4363 38.6357 23.3251 38.528 23.2139C38.4203 23.1026 38.2049 22.4352 38.0971 22.2127C37.9894 21.9902 37.8817 22.2127 37.8817 22.324C37.9894 22.5464 38.0971 22.7689 38.0971 22.9914C38.0971 23.2139 37.8817 22.8801 37.774 22.7689C37.6663 22.5464 37.5586 22.324 37.4508 22.1015C37.3431 21.879 37.1277 21.9902 37.2354 22.1015C37.3431 22.2127 37.3431 22.324 37.3431 22.5464C37.3431 22.7689 37.1277 22.5464 37.02 22.4352C36.9123 22.324 36.6968 21.7678 36.5891 21.6565C36.4814 21.5453 36.2659 21.6565 36.3737 21.879C36.4814 22.1015 36.4814 22.2127 36.4814 22.324C36.4814 22.4352 36.0505 22.2127 36.0505 22.1015C36.0505 21.9902 35.7274 21.5453 35.5119 21.2116C35.2965 20.8779 35.2965 21.2116 35.4042 21.3228C35.5119 21.5453 35.6196 21.6565 35.6196 21.879C35.6196 22.1015 35.4042 21.9902 35.4042 21.879C35.4042 21.7678 35.1888 21.4341 35.0811 21.3228C34.9733 21.2116 34.6502 21.1003 34.8656 21.5453C35.0811 21.9902 34.9733 21.9902 34.7579 21.9902C34.5425 21.9902 34.4348 21.879 34.4348 21.879C34.4348 21.879 34.327 21.5453 34.327 21.3228C34.327 21.1003 34.1116 21.2116 34.2193 21.3228C34.327 21.4341 34.2193 21.5453 34.2193 21.7678C34.2193 21.9902 34.0039 21.7678 34.0039 21.7678C33.8962 21.5453 33.8962 21.4341 33.7884 21.2116C33.7884 21.1003 33.573 21.1003 33.6807 21.2116C33.7884 21.3228 33.7884 21.4341 33.7884 21.6565C33.7884 21.879 33.7884 21.879 33.6807 21.7678C33.573 21.6565 33.4653 21.4341 33.2499 21.3228C33.1421 21.1003 32.9267 21.4341 32.7113 21.4341C32.4958 21.4341 32.2804 21.1003 32.1727 20.9891C32.065 20.8779 31.9573 20.9891 32.065 21.1003C32.1727 21.2116 32.2804 21.4341 32.2804 21.5453C32.2804 21.6565 32.2804 21.879 32.065 21.9902C31.8495 22.1015 31.6341 21.5453 31.4187 21.5453C31.2032 21.5453 30.8801 21.5453 30.7724 21.7678C30.5569 21.7678 30.3415 21.6565 30.1261 21.6565L29.5875 21.4341C29.4798 21.4341 29.4798 21.3228 29.4798 21.2116C34.327 18.8756 40.0361 19.543 44.1293 23.1026H44.0216C43.8062 22.9914 43.5907 22.9914 43.483 22.9914C43.8062 22.8801 43.2676 22.9914 43.0521 22.9914ZM44.9911 23.77C44.8833 23.8813 44.6679 23.9925 44.6679 24.215C44.5602 24.5487 44.4525 24.9937 44.5602 25.3274C44.5602 25.6611 44.6679 25.8836 44.7756 26.2173C44.8833 26.6622 44.9911 26.9959 44.9911 27.4409C44.9911 27.6634 44.9911 27.8858 44.9911 28.2196C44.9911 28.3308 44.9911 28.442 44.9911 28.6645C45.0988 28.887 45.2065 29.1095 45.3142 29.3319C45.4219 29.5544 45.6374 29.7769 45.7451 29.9994C45.7451 29.9994 45.7451 29.9994 45.7451 30.1106C45.6374 30.1106 45.5296 30.1106 45.5296 29.9994C45.2065 29.7769 44.9911 29.4432 44.7756 29.1095C44.6679 28.9982 44.6679 28.7757 44.5602 28.5533C44.5602 28.442 44.5602 28.2196 44.5602 28.1083C44.7756 27.5521 44.1293 26.3285 44.0216 26.2173C43.9139 25.9948 43.8062 25.7723 43.6984 25.5499C43.6984 25.4386 43.483 24.6599 43.8062 24.215C44.0216 23.9925 44.3448 23.77 44.5602 23.6588C44.7756 23.6588 44.8833 23.6588 44.9911 23.77Z"
                  fill="#838790"
                />
                <path
                  d="M33.1393 22.546C33.0316 22.4347 32.9239 22.4347 32.8162 22.3235C32.2776 22.101 31.739 21.8785 31.2004 21.6561C30.985 21.5448 30.8772 21.5448 30.6618 21.5448L30.1232 21.4336H29.4769C29.0461 21.4336 28.6152 21.4336 28.1843 21.4336C27.9689 21.4336 27.8612 21.5448 27.6457 21.5448C26.784 21.6561 26.03 21.9898 25.2759 22.4347C24.8451 22.6572 24.5219 22.9909 24.1988 23.3246C23.8756 23.5471 23.5525 23.7696 23.2293 23.8808C21.075 24.5482 19.3515 26.1056 18.4897 28.2191C18.4897 28.3303 18.5975 28.4416 18.5975 28.3303C19.6746 26.5505 21.3981 25.2157 23.337 24.5482C23.6602 24.437 23.9833 24.5482 24.0911 24.882C24.0911 24.9932 24.0911 24.9932 24.0911 25.1044C24.1988 25.6606 24.1988 26.3281 24.0911 26.9955C23.9833 27.4404 23.7679 27.8854 23.6602 28.3303C23.4447 28.8865 23.4447 29.3315 23.4447 29.8877C23.7679 31.2225 23.5525 32.6686 23.0139 33.8922C22.9062 34.1147 23.0139 34.2259 23.2293 34.0035C24.1988 33.0023 24.1988 31.5562 24.0911 30.1101C24.0911 29.6652 24.0911 29.109 24.3065 28.664C24.8451 27.8854 25.0605 26.9955 25.0605 26.1056C25.0605 25.5494 25.0605 25.1044 24.9528 24.6595C24.8451 24.3258 25.0605 23.8808 25.2759 23.6583C25.7068 23.2134 26.2454 22.9909 26.8917 22.7684C27.2149 22.7684 27.538 22.8797 27.6457 23.2134C28.3997 24.437 29.5846 25.4382 30.985 25.7719C31.5236 25.8831 31.8467 26.4393 31.6313 26.9955C31.6313 27.6629 31.4158 28.2191 30.985 28.7753C30.1232 29.5539 29.4769 30.5551 29.0461 31.6675C28.9383 32.1124 28.6152 32.4461 28.0766 32.6686C26.2454 33.1135 25.0605 34.5596 25.7068 36.117C26.1377 37.0069 26.4608 38.008 26.6763 39.0091C26.9994 40.2328 27.3226 41.5676 27.7534 42.7912C28.1843 44.1261 28.7229 45.4609 29.4769 46.6845C29.5846 46.907 29.8001 46.7958 29.6924 46.5733C28.9383 45.016 28.292 43.3474 27.8612 41.5676C27.8612 41.4564 27.8612 41.2339 27.9689 41.2339H28.0766C29.2615 41.4564 30.3387 41.7901 31.3081 42.235C31.5236 42.3463 31.6313 42.1238 31.4158 42.0126C30.3387 41.3451 29.0461 40.9002 27.8612 40.5665C27.6457 40.5665 27.538 40.2328 27.4303 40.0103C27.2149 38.6754 26.8917 37.4518 26.4608 36.117C26.1377 35.4495 26.3531 34.6709 26.9994 34.3372C27.4303 34.0034 27.8612 33.8922 28.3997 33.781C28.5075 33.781 28.6152 33.781 28.6152 33.781L28.7229 33.8922C28.7229 34.0034 28.8306 34.0035 28.8306 34.1147C29.0461 35.0046 29.4769 35.7833 30.0155 36.4507C30.4464 36.8956 30.7695 37.4518 30.985 38.1192C31.0927 38.453 31.2004 38.3417 31.2004 38.1192C31.0927 37.4518 30.8772 36.7844 30.4464 36.2282C30.0155 35.5608 29.6924 34.8934 29.4769 34.1147C29.3692 33.4473 29.3692 32.8911 29.5846 32.2236C29.9078 31.1113 30.5541 30.2214 31.4158 29.5539C32.1699 28.8865 32.6007 27.8854 32.493 26.8842C32.493 26.5505 32.8162 26.4393 33.0316 26.773C33.4625 27.8854 34.2165 28.7753 35.1859 29.4427C37.2326 30.7776 37.3403 32.8911 35.6168 34.0035C33.3547 35.5608 33.3547 37.5631 34.4319 39.5653C34.7551 40.1215 35.0782 40.7889 35.5091 41.2339C35.8322 41.6788 35.8322 42.1238 35.6168 42.5687C34.9705 43.7924 34.9705 45.2385 35.7245 46.3508C36.1554 46.907 36.4785 47.4632 36.694 48.1306C36.8017 48.4643 37.0171 48.3531 36.9094 48.1306C36.694 47.4632 36.3708 46.7958 36.0477 46.2396C35.7245 45.3497 35.7245 44.4598 36.0477 43.5699C36.2631 43.1249 36.3708 42.7912 36.4785 42.4575C36.5863 42.1238 36.8017 42.0126 37.0171 42.235C37.448 42.7912 37.7712 43.4587 38.0943 44.2373C38.3097 44.6823 38.6329 45.016 39.0638 45.2385C39.9255 45.5722 40.5718 46.2396 41.0027 47.0183C41.1104 47.2407 41.2181 47.1295 41.2181 47.0183C41.0027 46.0171 40.3564 45.5722 39.3869 44.9047C38.9561 44.6823 38.6329 44.2373 38.4175 43.7924C37.9866 42.68 37.7712 41.7901 37.0171 41.2339C36.4785 40.9002 36.1554 40.9002 35.8322 40.4552C34.9705 39.5653 34.5396 38.3417 34.5396 37.1181C34.6474 36.117 35.2937 35.2271 36.2631 34.6709C37.2326 34.1147 37.8789 33.0023 37.8789 31.8899C37.8789 31.5562 38.0943 31.445 38.4175 31.5562C39.8178 31.7787 40.7872 32.8911 41.0027 34.3372C41.0027 34.6709 41.3258 34.5596 41.3258 34.3372C41.3258 32.8911 40.4641 31.6675 39.2792 31.1113C39.1715 31 39.0638 30.8888 38.8483 30.8888H38.7406L38.4175 30.7776C38.0943 30.7776 37.7712 30.7776 37.5557 30.3326C37.1249 29.5539 36.5863 28.9978 35.8322 28.5528C35.1859 27.9966 34.6474 27.3292 34.2165 26.5505C33.7856 25.6606 33.3547 25.1044 32.493 24.9932C31.0927 24.9932 29.6924 24.2145 28.8306 22.9909C28.7229 22.7684 28.8306 22.4347 29.1538 22.4347C30.8772 22.4347 32.6007 22.9909 33.8933 24.1033C34.6474 24.7707 35.2937 25.6606 35.8322 26.5505C36.694 27.7741 38.202 28.3303 39.6024 28.2191C41.2181 28.2191 42.2953 28.8865 43.0493 31C43.6956 32.3349 43.6956 33.8922 43.0493 35.1158C42.403 36.117 42.1876 37.4518 42.403 38.6754C42.6184 39.4541 42.5107 39.7878 42.6184 40.5665C42.8339 41.4564 43.2647 42.1238 43.9111 42.7912C44.3419 43.2362 44.5574 43.7924 44.6651 44.3486C44.7728 45.016 45.0959 45.5722 45.4191 46.0171C45.5268 46.1284 45.7422 46.0171 45.6345 45.7946C45.3114 45.3497 45.2037 44.6823 45.2037 44.1261C45.0959 43.4587 44.8805 42.9025 44.4496 42.3463C44.1265 42.0126 43.9111 41.5676 43.6956 41.1227C43.5879 40.6777 43.9111 40.5665 44.2342 40.7889C45.6345 41.7901 46.7117 43.2362 47.1426 44.9047C47.2503 45.1272 47.358 45.1272 47.358 44.9047C47.0349 43.0137 46.0654 41.3451 44.6651 40.2328C43.9111 39.6766 43.3725 38.8979 43.0493 38.008C42.9416 37.0069 43.157 35.8945 43.6956 35.1158C44.2342 34.1147 44.3419 32.4461 43.5879 30.3326C43.2647 29.109 42.5107 28.1079 41.4336 27.4404L41.3258 27.3292C40.6795 27.1067 40.0332 26.9955 39.3869 26.9955C38.3097 27.1067 37.1249 26.6618 36.3708 25.7719C35.7245 24.882 34.9705 23.9921 34.2165 23.2134"
                  fill="white"
                />
                <path
                  d="M28.0834 21.3221L27.5448 21.4334C26.6831 21.5446 25.8214 21.8783 25.1751 22.3233C24.7442 22.5458 24.421 22.8795 24.0979 23.2132C23.8824 23.4357 23.5593 23.6581 23.1284 23.7694C20.9741 24.4368 19.2506 26.1054 18.3889 28.2189C18.2811 28.3301 18.3889 28.4414 18.4966 28.5526C18.6043 28.5526 18.712 28.5526 18.712 28.4414C19.7892 26.6616 21.4049 25.3267 23.3439 24.7705C23.4516 24.6593 23.5593 24.6593 23.7747 24.7705C23.8824 24.8817 23.9902 24.993 23.9902 25.2155C24.0979 25.7717 24.0979 26.4391 23.9902 26.9953C23.8824 27.329 23.7747 27.5515 23.667 27.8852L23.5593 28.2189C23.3439 28.7751 23.3439 29.3313 23.3439 29.8874V30.1099C23.5593 31.3335 23.4516 32.6684 22.913 33.7808C22.8053 33.892 22.8053 34.0032 22.913 34.1145C23.0207 34.1145 23.1284 34.2257 23.2361 34.0032C24.2056 33.0021 24.3133 31.556 24.2056 29.9987C24.2056 29.5537 24.2056 28.9975 24.421 28.6638C24.9596 27.8852 25.1751 26.9953 25.1751 25.9941V25.4379V24.548C25.1751 24.2143 25.2828 23.8806 25.4982 23.6581C25.9291 23.2132 26.4677 22.9907 27.0062 22.8795C27.3294 22.7682 27.5448 22.9907 27.6526 23.3244C28.4066 24.6593 29.4837 25.5492 30.8841 26.1054C31.4227 26.3278 31.5304 26.5503 31.5304 27.1065V27.2177C31.5304 27.7739 31.3149 28.3301 30.8841 28.7751C30.0223 29.5537 29.2683 30.5549 28.9452 31.6672C28.8374 32.1122 28.5143 32.3347 28.0834 32.4459C27.114 32.6684 26.2522 33.3358 25.8214 34.2257C25.4982 34.7819 25.4982 35.5606 25.8214 36.1168L26.0368 36.5617C26.3599 37.3404 26.5754 38.119 26.7908 39.0089C27.0062 40.0101 27.4371 41.6786 27.868 42.791C28.2989 44.1259 28.8374 45.4607 29.5915 46.6843C29.6992 46.9068 29.8069 46.9068 29.9146 46.7956C30.0223 46.6843 30.0223 46.4619 29.9146 46.3506C29.1606 44.7933 28.5143 43.1247 28.0834 41.3449C28.0834 41.3449 28.0834 41.2337 28.0834 41.1224H28.1911C29.2683 41.3449 30.3455 41.6786 31.4227 42.1236C31.5304 42.2348 31.6381 42.1236 31.7458 42.0124C31.8535 41.9011 31.7458 41.7899 31.6381 41.6786C30.4532 41.0112 29.2683 40.5663 27.9757 40.2325C27.7603 40.2325 27.7603 39.8988 27.6526 39.6764L27.5448 39.1202C27.3294 38.0078 27.0062 36.8954 26.6831 35.783C26.3599 35.2269 26.5754 34.4482 27.114 34.1145C27.5448 33.7808 27.9757 33.6695 28.4066 33.5583C28.5143 33.5583 28.5143 33.5583 28.622 33.5583L28.7297 33.6695C28.7297 33.7808 28.8374 33.7808 28.8374 33.892C29.0529 34.7819 29.4837 35.5606 30.0223 36.228C30.4532 36.6729 30.7764 37.2291 30.9918 37.8966C31.0995 38.2303 31.2072 38.2303 31.3149 38.2303C31.4227 38.2303 31.5304 38.119 31.5304 37.8966C31.4227 37.2291 31.2072 36.4505 30.7764 35.8943C30.3455 35.3381 30.0223 34.5594 29.8069 33.7808C29.6992 33.2246 29.8069 32.6684 29.9146 32.1122C30.2378 31.1111 30.8841 30.1099 31.6381 29.4425C32.4998 28.7751 32.9307 27.7739 32.823 26.6616C32.823 26.5503 32.823 26.5503 32.9307 26.4391C33.0384 26.4391 33.0384 26.4391 33.0384 26.5503C33.4693 27.6627 34.1156 28.6638 35.0851 29.3313C36.1622 29.9987 36.8085 30.7773 36.8085 31.6672C36.8085 32.4459 36.3777 33.2246 35.7314 33.6695C33.1461 35.4493 33.577 37.6741 34.4387 39.3426C34.7619 39.8988 35.0851 40.455 35.5159 41.0112C35.8391 41.3449 35.8391 41.9011 35.6236 42.2348C34.9773 43.4584 34.9773 44.9045 35.7314 46.1281C36.1622 46.6843 36.4854 47.2405 36.7008 47.7967C36.8085 48.0192 36.9162 48.1304 37.024 48.0192C37.1317 47.9079 37.2394 47.9079 37.1317 47.5742C36.9163 46.9068 36.7008 46.3506 36.3777 45.7944L36.2699 45.6832C35.9468 44.7933 35.9468 43.9034 36.2699 43.1247L36.5931 42.3461L36.7008 42.0124C36.7008 41.9011 36.8085 41.7899 36.9163 41.7899C37.024 41.7899 37.024 41.7899 37.024 41.9011C37.4548 42.4573 37.778 43.1247 38.1011 43.7922V43.9034C38.3166 44.3483 38.7474 44.7933 39.1783 44.9045C40.0401 45.2382 40.6864 45.7944 41.0095 46.5731C41.1172 46.7956 41.2249 46.7956 41.3327 46.7956C41.4404 46.7956 41.5481 46.5731 41.4404 46.4619C41.2249 45.4607 40.5786 45.0158 39.7169 44.3483C39.1783 44.0146 38.9629 43.7922 38.8552 43.3472L38.532 43.0135C38.3166 42.2348 37.8857 41.4562 37.2394 41.0112L36.8085 40.7887C36.4854 40.6775 36.2699 40.455 36.0545 40.2325C35.3005 39.3426 34.8696 38.2303 34.7619 37.0067C34.8696 36.0055 35.5159 35.1156 36.2699 34.6707C37.2394 34.1145 37.8857 33.0021 37.8857 31.7785C37.8857 31.6672 37.8857 31.6672 37.9934 31.556C38.1011 31.556 38.2089 31.556 38.3166 31.556C39.6092 31.7785 40.6864 32.8909 40.7941 34.2257C40.7941 34.4482 41.0095 34.5594 41.1172 34.5594C41.2249 34.5594 41.3327 34.3369 41.3327 34.2257C41.3327 32.7796 40.4709 31.4448 39.1783 30.8886C39.0706 30.7773 38.8552 30.6661 38.7474 30.6661H38.6397L38.3166 30.5549H38.2089C37.9934 30.5549 37.6703 30.4436 37.5626 30.2212C37.1317 29.4425 36.4854 28.7751 35.7314 28.4414C35.0851 27.8852 34.5465 27.2177 34.2233 26.3278C33.7924 25.5492 33.3616 24.8817 32.3921 24.7705C30.9918 24.7705 29.5915 23.9918 28.7297 22.8795V22.7682V22.657C28.7297 22.5458 28.8374 22.5458 28.9452 22.5458C30.6686 22.4345 32.2844 23.1019 33.577 24.2143C34.331 24.8817 34.9773 25.7716 35.5159 26.5503C36.3777 27.7739 37.8857 28.4414 39.3937 28.2189C40.7941 28.2189 41.8713 28.6638 42.733 30.8886C43.3793 32.1122 43.3793 33.6695 42.733 34.8931C41.979 36.0055 41.7635 37.3404 42.0867 38.564C42.1944 38.8977 42.1944 39.2314 42.1944 39.4539C42.1944 39.7876 42.3021 40.1213 42.3021 40.3438C42.5176 41.2337 42.9484 42.0124 43.5947 42.6798C43.9179 43.1247 44.241 43.5697 44.3488 44.1259C44.4565 44.7933 44.7796 45.3495 45.2105 45.9057C45.3182 46.0169 45.4259 46.0169 45.5336 45.9057C45.6414 45.7944 45.6414 45.6832 45.5336 45.572C45.2105 45.127 45.1028 44.5708 44.9951 44.0146C44.8873 43.3472 44.6719 42.6798 44.241 42.2348C43.9179 41.9011 43.7024 41.5674 43.5947 41.1224C43.5947 41.0112 43.5947 40.9 43.5947 40.9C43.7024 40.9 43.8102 40.9 43.9179 41.0112C45.3182 42.0124 46.2877 43.4584 46.8263 45.127C46.8263 45.3495 47.0417 45.4607 47.1494 45.3495C47.2571 45.3495 47.3648 45.127 47.3648 45.0158C47.0417 43.1247 46.0722 41.4562 44.6719 40.2325H44.5642C43.8102 39.7876 43.3793 39.0089 43.0561 38.119C43.0561 37.8966 42.9484 37.6741 42.9484 37.4516C42.9484 36.6729 43.2716 35.8943 43.7024 35.2269C44.0256 34.6707 44.1333 33.892 44.1333 33.2246C44.1333 32.2234 43.9179 31.3335 43.5947 30.3324C43.2716 29.1088 42.5176 27.9964 41.4404 27.4402L41.3327 27.2177C40.6864 26.884 40.0401 26.7728 39.3937 26.7728H39.286C38.1011 26.6616 37.1317 26.884 36.3777 25.8829V25.6604C35.8391 24.8817 35.1928 24.1031 34.4387 23.3244C34.1156 22.9907 33.6847 22.657 33.2539 22.4345C33.2539 22.4345 33.1461 22.3233 32.823 22.212C32.2844 21.9896 31.7458 21.7671 31.2072 21.5446C30.9918 21.4334 30.8841 21.4334 30.6686 21.4334L30.1301 21.3221H29.4837C28.9452 21.3221 28.5143 21.2109 28.0834 21.3221ZM25.2828 22.4345C26.0368 21.9896 26.7908 21.7671 27.6526 21.6559L28.1911 21.5446C28.622 21.5446 29.0529 21.5446 29.4837 21.5446L30.1301 21.6559H30.6686C30.8841 21.6559 30.9918 21.7671 31.2072 21.7671C31.7458 21.8783 32.2844 22.1008 32.823 22.3233C32.9307 22.3233 33.1461 22.4345 33.1461 22.4345C33.577 22.657 33.9002 22.9907 34.331 23.3244C34.9773 23.9918 35.6236 24.7705 36.2699 25.5492L36.4854 25.8829C37.2394 26.7728 38.4243 27.2177 39.5015 27.1065H39.6092C40.2555 27.1065 40.7941 27.2177 41.4404 27.4402H41.5481C42.6253 28.1076 43.2716 29.1088 43.5947 30.2212C43.9179 31.1111 44.0256 32.001 44.1333 33.0021C44.1333 33.6695 44.0256 34.3369 43.7024 34.8931C43.2716 35.6718 43.0561 36.5617 43.0561 37.4516C43.0561 37.6741 43.0561 37.8966 43.1639 38.119C43.3793 39.0089 43.9179 39.7876 44.6719 40.3438H44.7796C46.1799 41.4562 47.1494 43.1247 47.3648 44.9045C47.3648 44.9045 47.3648 44.9045 47.3648 44.7933C46.8263 43.1247 45.8568 41.5674 44.3488 40.5663C44.241 40.455 43.9179 40.3438 43.8102 40.455C43.7024 40.5663 43.7024 40.6775 43.7024 40.7887C43.7024 40.9 43.7024 40.9 43.7024 41.0112C43.8102 41.4562 44.1333 41.9011 44.4565 42.2348C44.8873 42.6798 45.1028 43.3472 45.1028 43.9034C45.1028 44.4596 45.3182 45.127 45.6414 45.572C45.2105 45.127 44.9951 44.5708 44.8873 43.9034C44.7796 43.3472 44.4565 42.791 44.1333 42.3461C43.487 41.6786 43.0561 41.0112 42.8407 40.1213C42.733 39.7876 42.733 39.5651 42.733 39.2314C42.733 38.8977 42.6253 38.564 42.6253 38.2303C42.5176 37.8966 42.5176 37.4516 42.5176 37.1179C42.5176 36.228 42.733 35.4493 43.2716 34.6707C43.5947 34.1145 43.8102 33.447 43.8102 32.8909C43.8102 32.1122 43.5947 31.3335 43.3793 30.5549C42.6253 28.5526 41.5481 27.7739 39.8246 27.7739C38.4243 27.9964 37.024 27.329 36.1622 26.2166C35.6236 25.3267 34.9773 24.548 34.1156 23.7694C32.823 22.657 31.0995 21.9896 29.2683 22.1008C29.0529 22.1008 28.9452 22.212 28.8374 22.3233C28.8374 22.4345 28.8374 22.4345 28.8374 22.5458C28.8374 22.657 28.8374 22.7682 28.9452 22.7682C29.8069 23.9918 31.2072 24.7705 32.7153 24.7705C33.577 24.8817 34.0079 25.4379 34.331 26.2166C34.6542 26.9953 35.3005 27.7739 35.9468 28.3301C36.7008 28.7751 37.2394 29.3313 37.6703 30.1099C37.8857 30.4436 38.1011 30.5549 38.4243 30.5549H38.532L38.9629 30.6661H39.0706C39.1783 30.6661 39.286 30.7773 39.3937 30.7773C40.5786 31.3335 41.4404 32.5571 41.4404 34.0032C41.4404 34.1145 41.4404 34.1145 41.4404 34.1145V34.0032C41.2249 32.5571 40.1478 31.3335 38.7474 31.1111C38.532 31.1111 38.3166 31.1111 38.2089 31.2223C38.1011 31.3335 37.9934 31.4448 37.9934 31.556V31.6672C37.9934 32.7796 37.3471 33.6695 36.4854 34.2257C35.6236 34.7819 34.9773 35.6718 34.7619 36.6729C34.7619 36.7842 34.7619 36.7842 34.7619 36.8954C34.8696 38.119 35.3005 39.2314 36.0545 40.1213C36.2699 40.3438 36.4854 40.5663 36.8085 40.6775L37.2394 40.9C37.8857 41.3449 38.2089 42.0124 38.4243 42.791L38.6397 43.3472C38.8552 43.7922 39.1783 44.2371 39.6092 44.4596L39.7169 44.5708C40.5786 45.127 41.1172 45.572 41.3327 46.5731C40.9018 45.6832 40.2555 45.0158 39.3937 44.6821C38.9629 44.4596 38.6397 44.2371 38.4243 43.7922V43.9034C38.1011 43.236 37.778 42.5685 37.3471 42.0124C37.2394 41.9011 37.1317 41.9011 37.024 41.9011C36.8085 41.9011 36.7008 42.1236 36.7008 42.2348L36.3777 42.5685L36.0545 43.3472C35.9468 43.7922 35.8391 44.2371 35.8391 44.7933C35.8391 45.2382 35.9468 45.6832 36.0545 46.1281L36.1622 46.3506C36.4854 46.9068 36.7008 47.463 36.9163 48.0192V48.1304C36.9163 48.1304 36.9163 48.0192 36.8085 48.0192C36.4854 47.463 36.1622 46.7956 35.8391 46.2394C35.5159 45.7944 35.3005 45.127 35.1928 44.5708C35.1928 43.9034 35.4082 43.236 35.6236 42.6798C35.7314 42.4573 35.7314 42.2348 35.7314 42.0124C35.7314 41.6786 35.6236 41.4562 35.4082 41.1224C34.9773 40.5663 34.6542 40.0101 34.331 39.4539C33.4693 37.8966 33.0384 35.6718 35.5159 34.1145C36.2699 33.6695 36.7008 32.8909 36.8085 32.001C36.7008 30.8886 36.0545 29.8874 35.0851 29.3313C34.1156 28.6638 33.3616 27.7739 32.9307 26.6616C32.823 26.4391 32.7153 26.3278 32.4998 26.4391C32.3921 26.4391 32.2844 26.6616 32.2844 26.7728C32.2844 26.884 32.2844 26.884 32.2844 26.9953C32.2844 27.8852 31.8535 28.7751 31.2072 29.3313C30.3455 29.9987 29.6992 30.9998 29.376 32.1122C29.2683 32.5571 29.1606 32.8909 29.1606 33.3358C29.1606 33.5583 29.1606 33.6695 29.1606 33.892C29.376 34.6707 29.6992 35.4493 30.1301 36.1168C30.5609 36.6729 30.7764 37.3404 30.8841 38.0078V37.8966C30.6686 37.2291 30.3455 36.6729 29.9146 36.228C29.376 35.5606 28.9452 34.7819 28.7297 34.0032C28.7297 33.892 28.622 33.7808 28.622 33.6695L28.5143 33.5583C28.4066 33.5583 28.2989 33.447 28.1911 33.447C27.6526 33.447 27.114 33.6695 26.6831 34.0032C26.2522 34.337 26.0368 34.7819 26.0368 35.2269C26.0368 35.4493 26.1445 35.6718 26.1445 35.8943C26.5754 37.0067 26.7908 38.119 27.0062 39.2314L27.114 39.7876C27.2217 40.2325 27.3294 40.455 27.6526 40.455C28.8374 40.7887 30.1301 41.2337 31.2072 41.9011C30.1301 41.4562 29.0529 41.1224 27.868 40.9C27.7603 40.9 27.6526 40.9 27.5448 41.0112C27.4371 41.1224 27.4371 41.2337 27.4371 41.3449C27.868 43.1247 28.5143 44.7933 29.2683 46.3506C28.5143 45.127 27.9757 43.9034 27.5448 42.5685C27.114 41.3449 26.7908 40.1213 26.4677 38.8977C26.2522 38.119 26.0368 37.2291 25.7136 36.4505L25.4982 36.0055C25.6059 35.6718 25.6059 35.4493 25.6059 35.1156C25.6059 34.7819 25.7136 34.4482 25.8214 34.2257C26.3599 33.447 27.114 32.7796 28.0834 32.6684C28.5143 32.5571 28.9452 32.1122 29.0529 31.6672C29.376 30.5549 30.1301 29.5537 30.9918 28.7751C31.4227 28.3301 31.7458 27.6627 31.7458 26.9953C31.7458 26.884 31.7458 26.7728 31.7458 26.6616C31.7458 26.2166 31.4227 25.7717 30.9918 25.5492C29.5915 25.1042 28.4066 24.2143 27.6526 22.9907C27.5448 22.657 27.114 22.4345 26.6831 22.4345C26.0368 22.5458 25.4982 22.8795 25.0673 23.3244C24.8519 23.5469 24.7442 23.8806 24.7442 24.2143V24.3256V25.2155V25.7717C24.7442 25.8829 24.7442 25.8829 24.7442 25.9941C24.6365 26.7728 24.421 27.6627 23.9902 28.3301C23.7747 28.7751 23.667 29.22 23.667 29.5537C23.667 29.665 23.667 29.665 23.667 29.7762C23.667 30.1099 23.667 30.4436 23.667 30.7773C23.7747 31.7785 23.4516 32.7796 22.8053 33.5583C23.2361 32.7796 23.4516 32.001 23.3439 31.2223C23.3439 30.7773 23.3439 30.2212 23.2361 29.7762V29.5537C23.2361 29.4425 23.2361 29.3313 23.2361 29.22C23.2361 28.7751 23.3439 28.4414 23.4516 27.9964L23.5593 27.6627C23.667 27.329 23.7747 27.1065 23.8824 26.7728C23.9902 26.5503 23.9902 26.3278 23.9902 26.1054C23.9902 25.7716 23.9902 25.3267 23.8824 24.8817C23.8824 24.6593 23.7747 24.4368 23.5593 24.3256C23.3439 24.2143 23.1284 24.2143 23.0207 24.2143C21.1895 24.7705 19.5737 25.9941 18.3889 27.6627C19.2506 25.7716 20.9741 24.3256 22.913 23.6581C23.3439 23.5469 23.667 23.3244 23.8824 23.1019C24.421 22.9907 24.7442 22.657 25.2828 22.4345Z"
                  fill="#838790"
                />
                <path
                  d="M25.7118 43.235C25.281 43.1237 25.0655 42.79 24.6347 42.2338C24.5269 42.1226 24.4192 42.1226 24.3115 42.0114C23.9884 41.6776 23.6652 41.3439 23.3421 41.0102C22.9112 40.6765 22.4803 40.454 22.0494 40.1203C21.08 39.7866 20.7568 38.7855 20.5414 38.3405C20.326 37.8956 20.0028 37.4506 19.7874 37.0057C19.7874 37.1169 19.3565 36.3382 19.2488 36.227C19.1411 36.1158 18.7102 35.7821 18.8179 36.0045C18.9256 36.3382 19.0334 36.5607 19.1411 36.7832C19.3565 37.1169 19.5719 37.4506 19.6797 37.7843C19.8951 38.118 20.1105 38.4518 20.326 38.8967C20.6491 39.4529 20.9723 40.0091 21.1877 40.3428C21.4031 40.7877 21.6186 41.3439 21.7263 41.7889C21.9417 42.5675 22.1572 43.4574 22.4803 44.2361C22.588 44.3473 22.588 44.3474 22.588 44.3474C22.588 44.3474 22.588 44.2361 22.588 44.1249C22.2649 43.235 22.0494 42.2338 21.9417 41.2327C21.9417 41.0102 21.9417 40.899 22.0494 40.899C22.1572 40.899 22.2649 40.899 22.588 41.0102C23.2343 41.4552 23.7729 42.0114 24.3115 42.5675C24.6347 43.0125 25.1733 43.3462 25.8196 43.4574C25.9273 43.4574 26.035 43.4574 26.035 43.4574C25.8196 43.6799 25.8196 43.235 25.7118 43.235Z"
                  fill="white"
                />
              </g>
              <path
                d="M31.752 57.5809C18.6105 57.5809 7.94647 46.5683 7.94647 32.9973C7.94647 19.4263 18.6105 8.41382 31.752 8.41382C44.8935 8.41382 55.5576 19.4263 55.5576 32.9973C55.5576 46.5683 44.8935 57.5809 31.752 57.5809ZM31.752 9.19248C19.0414 9.19248 8.70049 19.8713 8.70049 32.9973C8.70049 46.1234 19.0414 56.8022 31.752 56.8022C44.4627 56.8022 54.8035 46.1234 54.8035 32.9973C54.8035 19.8713 44.4627 9.30372 31.752 9.19248Z"
                fill="#838790"
              />
              <path
                d="M72.8979 8.41382H74.8368L80.2227 21.2062H77.9606L76.668 18.0915H70.8513L69.5586 21.2062H67.4043L72.8979 8.41382ZM76.0217 16.2005L73.8673 11.0835L71.713 16.2005H76.0217Z"
                fill="#838790"
              />
              <path
                d="M82.5878 8.53003H84.8498L88.6199 14.5369L92.39 8.53003H94.6521V21.2111H92.4978V12.0896L88.6199 18.0965H88.5122L84.6344 12.2009V21.3224H82.48L82.5878 8.53003Z"
                fill="#838790"
              />
              <path
                d="M97.9926 8.53003H107.041V10.5323H100.147V13.8694H106.287V15.8717H100.147V19.3201H107.149V21.3224H97.9926V8.53003Z"
                fill="#838790"
              />
              <path
                d="M109.838 8.52608H115.331C116.624 8.41484 117.916 8.85979 118.886 9.74969C119.532 10.5284 119.963 11.4183 119.855 12.5306C119.963 14.4217 118.67 15.979 116.947 16.3127L120.286 21.0959H117.701L114.685 16.6464H111.992V21.0959H109.838V8.52608ZM115.224 14.8666C116.732 14.8666 117.701 13.9767 117.701 12.7531C117.701 11.4183 116.732 10.6396 115.116 10.6396H111.992V14.8666H115.224Z"
                fill="#838790"
              />
              <path
                d="M122.868 8.53003H125.023V21.2111H122.868V8.53003Z"
                fill="#838790"
              />
              <path
                d="M127.942 14.8687C127.835 11.3091 130.528 8.41692 133.975 8.30568C134.082 8.30568 134.19 8.30568 134.19 8.30568C136.021 8.19444 137.745 8.9731 139.037 10.308L137.637 11.9765C136.775 10.9754 135.483 10.4192 134.19 10.4192C131.928 10.4192 130.097 12.4215 130.097 14.7575V14.8687C129.989 17.2047 131.82 19.207 134.082 19.3182H134.19C135.483 19.3182 136.775 18.762 137.745 17.6496L139.145 19.0957C137.852 20.5418 136.021 21.4317 134.19 21.3205C130.743 21.3205 127.942 18.5395 127.942 14.9799C127.942 14.9799 127.942 14.9799 127.942 14.8687Z"
                fill="#838790"
              />
              <path
                d="M145.93 8.41382H147.977L153.363 21.2062H151.1L149.808 18.0915H143.991L142.698 21.2062H140.544L145.93 8.41382ZM149.054 16.2005L146.899 11.0835L144.745 16.2005H149.054Z"
                fill="#838790"
              />
              <path
                d="M155.625 8.53003H157.672L164.243 17.3178V8.53003H166.397V21.2111H164.566L157.78 12.2009V21.2111H155.625V8.53003Z"
                fill="#838790"
              />
              <path
                d="M67.9392 32.9983C67.8315 29.4387 70.6322 26.5466 73.9714 26.4353C74.0791 26.4353 74.1868 26.4353 74.1868 26.4353C76.018 26.3241 77.7415 27.1027 79.0341 28.4376L77.6338 29.9949C76.7721 28.9938 75.4794 28.4376 74.1868 28.4376C71.9248 28.4376 70.0936 30.4399 70.0936 32.7759V32.8871C69.9859 35.2231 71.8171 37.2254 74.0791 37.3366H74.1868C75.4794 37.3366 76.7721 36.7804 77.7415 35.668L79.1418 37.1141C77.8492 38.5602 76.018 39.4501 74.1868 39.3389C70.7399 39.3389 67.9392 36.5579 67.9392 32.9983C67.9392 33.1096 67.9392 33.1096 67.9392 32.9983Z"
                fill="#838790"
              />
              <path
                d="M80.758 32.9989C81.1889 29.3281 84.4204 26.7696 87.9751 27.2145C90.8834 27.5483 93.2532 29.9955 93.5764 32.9989C93.1455 36.6697 89.914 39.2282 86.3593 38.7833C83.4509 38.4496 81.0811 36.1136 80.758 32.9989ZM91.3143 32.9989C91.422 30.5517 89.5908 28.5494 87.3288 28.5494H87.221C84.959 28.5494 83.1278 30.4404 83.1278 32.8877V32.9989C83.0201 35.3349 84.8513 37.3372 87.221 37.4484H87.3288C89.5908 37.4484 91.422 35.5574 91.422 33.2214C91.3143 33.1101 91.3143 33.1101 91.3143 32.9989Z"
                fill="#838790"
              />
              <path
                d="M96.3772 26.6592H98.5315V37.338H104.995V39.3403H96.3772V26.6592Z"
                fill="#838790"
              />
              <path
                d="M107.471 26.6592H109.626V37.338H116.089V39.3403H107.471V26.6592Z"
                fill="#838790"
              />
              <path
                d="M118.455 26.6592H127.503V28.6615H120.609V31.9986H126.749V34.0009H120.609V37.4492H127.611V39.4515H118.455V26.6592Z"
                fill="#838790"
              />
              <path
                d="M129.875 32.9999C129.875 29.4403 132.568 26.5481 136.015 26.4368C136.123 26.4368 136.123 26.4368 136.231 26.4368C137.954 26.3256 139.678 26.993 140.97 28.1054L139.57 29.8852C138.6 28.9953 137.415 28.4391 136.123 28.5504C133.861 28.6616 132.03 30.6639 132.137 32.9999C132.03 35.3359 133.645 37.3381 135.907 37.5606C136.015 37.5606 136.123 37.5606 136.231 37.5606C137.308 37.5606 138.277 37.2269 139.247 36.5595V34.2235H136.123V32.2212H141.401V37.5606C140.001 38.7842 138.169 39.5629 136.231 39.5629C132.891 39.6741 129.983 37.0044 129.875 33.5561C129.768 33.3336 129.768 33.2223 129.875 32.9999Z"
                fill="#838790"
              />
              <path
                d="M144.314 26.6592H153.363V28.6615H146.469V31.9986H152.609V34.0009H146.469V37.4492H153.47V39.4515H144.314V26.6592Z"
                fill="#838790"
              />
              <path
                d="M160.9 34.5566C160.9 31.7756 163.054 29.5509 165.747 29.5509H165.855C168.548 29.4396 170.702 31.6644 170.81 34.3341V34.4453C170.702 37.2263 168.332 39.451 165.639 39.3398C163.054 39.3398 161.007 37.2263 160.9 34.5566ZM168.655 34.5566C168.763 32.888 167.47 31.5532 165.962 31.4419H165.855C164.347 31.4419 163.054 32.6655 163.054 34.3341C163.054 34.4453 163.054 34.4453 163.054 34.5566C162.946 36.2251 164.131 37.56 165.747 37.6712H165.855C167.363 37.6712 168.655 36.4476 168.655 34.779C168.655 34.779 168.655 34.6678 168.655 34.5566Z"
                fill="#838790"
              />
              <path
                d="M173.618 31.6627H172.434V29.8829H173.618V29.2155C173.511 28.3256 173.834 27.5469 174.373 26.8795C174.911 26.3233 175.665 26.1008 176.419 26.1008C176.958 26.1008 177.604 26.2121 178.143 26.3233V28.2143C177.712 28.1031 177.281 27.9919 176.85 27.9919C175.988 27.9919 175.665 28.4368 175.665 29.438V29.9941H178.143V31.6627H175.773V39.3381H173.618V31.6627Z"
                fill="#838790"
              />
              <path
                d="M67.9392 51.1336C67.8315 47.574 70.6322 44.6818 73.9714 44.5706C74.0791 44.5706 74.1868 44.5706 74.1868 44.5706C76.018 44.4593 77.7415 45.238 79.0341 46.5729L77.6338 48.2414C76.7721 47.2403 75.4794 46.6841 74.1868 46.6841C71.9248 46.6841 70.0936 48.6864 70.0936 51.0224V51.1336C69.9859 53.4696 71.8171 55.4719 74.0791 55.5831H74.1868C75.4794 55.5831 76.7721 55.0269 77.7415 53.9145L79.1418 55.3606C77.8492 56.8067 76.018 57.6966 74.1868 57.5854C70.8476 57.5854 68.0469 54.6932 67.9392 51.1336Z"
                fill="#838790"
              />
              <path
                d="M86.0404 44.6792H87.9793L93.3652 57.4715H91.1031L89.8105 54.3569H83.9938L82.7012 57.4715H80.5468L86.0404 44.6792ZM89.0565 52.4658L86.9021 47.3489L84.8555 52.4658H89.0565Z"
                fill="#838790"
              />
              <path
                d="M95.7346 44.788H101.228C102.521 44.6768 103.813 45.1218 104.783 46.0117C105.429 46.7903 105.86 47.6802 105.86 48.7926C105.86 50.6836 104.675 52.241 102.952 52.6859L106.291 57.4691H103.706L100.69 53.0196H97.9967V57.4691H95.8423L95.7346 44.788ZM101.013 51.0174C102.521 51.0174 103.49 50.2387 103.49 48.9038C103.49 47.569 102.521 46.7903 100.905 46.7903H97.7813V51.0174H101.013Z"
                fill="#838790"
              />
              <path
                d="M108.555 44.7888H113.079C116.956 44.7888 119.649 47.5698 119.649 51.1294C119.649 54.5777 116.956 57.4699 113.51 57.4699C113.402 57.4699 113.294 57.4699 113.079 57.4699H108.555V44.7888ZM110.709 46.7911V55.4676H113.079C115.233 55.6901 117.172 53.9103 117.387 51.6856C117.387 51.5743 117.387 51.3518 117.387 51.2406C117.495 48.9046 115.772 47.0136 113.51 46.9023C113.402 46.9023 113.186 46.9023 113.079 46.9023L110.709 46.7911Z"
                fill="#838790"
              />
              <path
                d="M122.548 44.7888H124.702V57.4699H122.548V44.7888Z"
                fill="#838790"
              />
              <path
                d="M127.618 51.1324C127.618 47.5728 130.418 44.5694 133.865 44.5694C133.973 44.5694 133.973 44.5694 134.081 44.5694C137.528 44.4581 140.328 47.2391 140.436 50.7987C140.436 50.9099 140.436 50.9099 140.436 51.0212C140.436 54.5808 137.635 57.5842 134.188 57.5842C134.081 57.5842 134.081 57.5842 133.973 57.5842C130.526 57.6954 127.725 54.8033 127.618 51.2436C127.618 51.2436 127.618 51.2436 127.618 51.1324ZM138.174 51.1324C138.282 48.6852 136.558 46.6829 134.188 46.5717C134.081 46.5717 134.081 46.5717 133.973 46.5717C131.711 46.5717 129.88 48.4627 129.88 50.9099V51.0212C129.772 53.3572 131.603 55.3594 133.973 55.4707H134.081C136.343 55.4707 138.174 53.5796 138.174 51.1324Z"
                fill="#838790"
              />
              <path
                d="M143.237 44.7888H145.391V55.4676H151.854V57.4699H143.237V44.7888Z"
                fill="#838790"
              />
              <path
                d="M153.044 51.1324C153.044 47.5728 155.844 44.5694 159.291 44.5694C159.399 44.5694 159.399 44.5694 159.507 44.5694C162.954 44.4581 165.754 47.2391 165.862 50.7987C165.862 50.9099 165.862 50.9099 165.862 51.0212C165.431 54.692 162.2 57.3617 158.645 56.9168C155.737 56.5831 153.367 54.1358 153.044 51.1324ZM163.6 51.1324C163.708 48.6852 161.984 46.6829 159.614 46.5717C159.507 46.5717 159.507 46.5717 159.399 46.5717C157.137 46.5717 155.198 48.4627 155.198 50.7987C155.198 50.9099 155.198 50.9099 155.198 51.0212C155.09 53.4684 156.922 55.3594 159.291 55.4707H159.399C161.769 55.4707 163.6 53.5796 163.6 51.1324Z"
                fill="#838790"
              />
              <path
                d="M168.118 51.1351C168.118 47.5755 170.811 44.6833 174.258 44.5721C174.366 44.5721 174.366 44.5721 174.473 44.5721C176.197 44.4609 177.92 45.1283 179.213 46.2407L177.812 47.9092C176.843 47.0193 175.658 46.4631 174.366 46.4631C172.103 46.5744 170.272 48.5767 170.38 50.9126C170.272 53.2486 171.888 55.2509 174.15 55.4734C174.258 55.4734 174.366 55.4734 174.581 55.4734C175.658 55.4734 176.628 55.1397 177.597 54.4723V52.1363H174.473V50.2452H179.751V55.5846C178.351 56.9195 176.52 57.5869 174.581 57.5869C171.242 57.6981 168.333 55.0284 168.226 51.5801C168.118 51.5801 168.118 51.3576 168.118 51.1351Z"
                fill="#838790"
              />
              <path
                d="M185.675 52.4642L180.828 44.7888H183.413L186.86 50.3507L190.307 44.7888H192.785L187.937 52.4642V57.4699H185.783L185.675 52.4642Z"
                fill="#838790"
              />
              <path
                d="M190.421 55.1393C190.421 53.8044 191.498 52.5808 192.79 52.5808C194.083 52.5808 195.16 53.6932 195.16 55.028C195.268 56.3629 194.191 57.5865 192.898 57.6977C191.606 57.809 190.421 56.6966 190.313 55.3618C190.421 55.3618 190.421 55.2505 190.421 55.1393ZM194.945 55.1393C194.945 53.9157 193.975 52.9145 192.79 52.9145C191.606 52.9145 190.636 53.9157 190.636 55.1393C190.636 56.3629 191.606 57.364 192.79 57.364C193.975 57.364 194.945 56.2517 194.945 55.1393ZM191.821 53.8044H193.006C193.652 53.8044 194.083 54.0269 194.083 54.6943C194.083 55.028 193.868 55.3618 193.544 55.473L194.191 56.3629H193.437L192.898 55.5842H192.467V56.3629H191.821V53.8044ZM193.006 55.028C193.329 55.028 193.437 54.9168 193.437 54.6943C193.437 54.4719 193.221 54.3606 193.006 54.3606H192.467V55.028H193.006Z"
                fill="#838790"
              />
            </svg>