            <svg
              width="100"
              height="50"
              viewBox="0 0 192 40"
              fill="none"
              xmlns="http://www.w3.org/2000/svg"
              className="object-contain my-auto"
            >
              <path
                d="M19.0115 39.8909C24.4288 39.5244 29.7739 38.4862 34.9136 36.8023C40.3685 35.0257 45.5326 32.5138 50.2509 29.342C53.2147 27.3525 56.1371 25.3184 58.961 21.7125C60.9046 19.2256 62.4373 16.4661 63.5052 13.531C63.6578 15.7516 63.3369 17.9787 62.5622 20.0762C62.2357 20.9715 61.3652 23.3986 56.8625 27.3476C53.6883 30.1134 50.1248 32.4372 46.2766 34.2509C41.7265 36.4073 36.8825 37.9376 31.8876 38.7967C27.6469 39.5906 23.3315 39.9573 19.0115 39.8909Z"
                fill="#838790"
              />
              <path
                d="M61.925 6.95114C59.2824 0.803818 49.0386 -1.3 36.8568 1.02265C37.1673 1.45428 37.3713 1.94816 37.4531 2.46676C37.535 2.98537 37.4927 3.51507 37.3293 4.01562C37.166 4.51617 36.886 4.9744 36.5105 5.35551C36.135 5.73662 35.674 6.03058 35.1625 6.21505V25.7512L36.3283 25.6567C37.9 25.4305 39.457 25.1184 40.9917 24.7217C41.2456 24.662 42.6705 24.2691 43.1316 23.6026C43.1866 23.4853 43.2149 23.3582 43.2149 23.2296C43.2149 23.101 43.1866 22.9739 43.1316 22.8566C42.9762 22.6029 42.4632 22.6477 42.1575 22.6726C41.6863 22.7224 41.2273 22.8486 40.8 23.0456C40.1806 23.2801 39.5226 23.4064 38.8569 23.4186C38.6444 23.4186 37.0744 23.344 36.5252 22.2946C36.4102 22.029 36.351 21.7442 36.351 21.4565C36.351 21.1689 36.4102 20.8841 36.5252 20.6185C36.8655 19.7147 37.5639 18.9765 38.4683 18.5644C39.8184 18.0174 41.3123 17.887 42.743 18.1914C44.6861 18.5644 45.0592 18.7683 46.0488 19.6835C46.8381 20.4267 47.3125 21.4243 47.3805 22.4836C47.3845 23.5502 47.0462 24.5921 46.4116 25.4677C45.1421 27.3229 43.0436 27.9943 41.5513 28.4519C39.8362 28.9791 38.5149 29.1631 37.8879 29.362C37.0431 29.5725 36.1868 29.7386 35.3231 29.8594C35.2557 29.8594 35.1676 29.8892 35.1055 29.8594L35.1366 34.5594C35.9552 34.2709 36.7739 33.9642 37.5926 33.6393L38.3232 33.3458V33.311C38.365 32.5028 38.1323 31.7034 37.66 31.0331C37.3549 30.7185 37.0062 30.4457 36.6237 30.2224C38.1367 29.8594 40.4839 29.5858 41.5461 28.9492C42.214 29.5849 42.7425 30.3425 43.1006 31.1774C56.7746 24.3188 64.9977 14.0982 61.925 6.95114ZM60.9872 9.43792C60.6302 9.98191 60.0767 10.3804 59.4327 10.557L56.1269 10.746C56.0407 11.166 55.8614 11.5634 55.6011 11.911C55.3408 12.2586 55.0056 12.5484 54.6183 12.7607C54.231 12.973 53.8006 13.1029 53.3564 13.1414C52.9122 13.1799 52.4646 13.1263 52.0439 12.9841C51.935 13.5801 51.6611 14.137 51.2509 14.5964C50.8406 15.0558 50.3091 15.4008 49.7122 15.5952C48.7895 15.8181 47.8126 15.6842 46.9919 15.2222C46.545 14.9864 46.1492 14.6707 45.826 14.2921C45.2036 15.3513 44.2528 16.1979 43.1057 16.7142C41.7637 17.2962 40.4683 17.2116 38.6341 17.0873C37.7191 17.0265 36.8099 16.9018 35.9138 16.7142V8.11993C36.3231 7.55792 37.9346 5.47399 39.9968 5.50881C40.6581 5.55578 41.3107 5.68107 41.9399 5.88183C42.7489 6.11266 43.5304 6.42439 44.2716 6.81188C45.2509 7.30924 46.9142 7.80659 49.9091 7.74691L61.3758 7.93093C61.4069 8.45461 61.2713 8.97498 60.9872 9.423V9.43792Z"
                fill="#838790"
              />
              <path
                d="M26.1985 37.0362C24.898 36.3698 24.5145 34.7235 24.4472 34.4251C24.2449 33.3538 24.3802 32.249 24.8358 31.252C25.2771 30.0464 26.0105 28.9588 26.9758 28.0788C27.9297 27.2447 29.0536 26.6096 30.2764 26.2138C30.5406 26.1292 30.7634 26.0646 30.9707 26.0148C31.448 25.8866 31.9347 25.7935 32.4267 25.7363H32.3956H32.6081V6.21506C31.9236 5.96833 31.3338 5.52723 30.9172 4.95054C30.5007 4.37385 30.2771 3.68897 30.2764 2.98722C30.2764 2.87283 30.2764 2.75843 30.2764 2.64404C28.5492 3.17124 26.8048 3.78299 25.043 4.47929C22.6315 5.43227 20.2818 6.52345 18.0065 7.74692C20.8978 7.78173 22.5196 7.2993 23.473 6.81189C24.2162 6.42473 24.9994 6.11303 25.8099 5.88183C26.4388 5.68013 27.0916 5.55482 27.753 5.50882C29.8256 5.474 31.4215 7.55792 31.8308 8.11994V16.6993C30.9348 16.8873 30.0256 17.0119 29.1105 17.0723C27.2763 17.1917 26.0016 17.2812 24.6441 16.6993C23.4953 16.1836 22.5426 15.3369 21.9186 14.2772C21.5954 14.6558 21.1996 14.9715 20.7527 15.2073C19.932 15.6693 18.9551 15.8032 18.0324 15.5803C17.4355 15.3859 16.904 15.0409 16.4938 14.5815C16.0835 14.1221 15.8096 13.5652 15.7008 12.9692C15.2883 13.1055 14.851 13.159 14.416 13.1265C13.9811 13.094 13.5577 12.9761 13.1722 12.7802C12.6323 12.4966 12.1923 12.0656 11.9079 11.5417C2.97494 17.8731 -1.73506 25.5075 0.710616 31.1973C3.38428 37.4043 13.825 39.4932 26.2193 37.0462L26.1985 37.0362ZM21.5248 25.4677C20.8902 24.5921 20.5518 23.5502 20.5558 22.4836C20.6307 21.4209 21.1146 20.4228 21.9134 19.6835C22.9083 18.7683 23.2761 18.5644 25.2192 18.1914C26.6499 17.887 28.1439 18.0174 29.494 18.5644C30.3984 18.9765 31.0967 19.7148 31.437 20.6185C31.5521 20.8841 31.6113 21.1689 31.6113 21.4565C31.6113 21.7442 31.5521 22.029 31.437 22.2946C30.8878 23.344 29.3178 23.4087 29.1054 23.4186C28.4397 23.4064 27.7816 23.2801 27.1623 23.0456C26.735 22.8486 26.2759 22.7224 25.8047 22.6726C25.499 22.6477 24.986 22.603 24.8306 22.8566C24.7757 22.9739 24.7473 23.101 24.7473 23.2296C24.7473 23.3582 24.7757 23.4853 24.8306 23.6026C25.2918 24.2691 26.7167 24.662 26.9706 24.7217C28.2141 25.0102 29.6753 25.3881 30.3696 25.5274C28.9894 25.9086 27.7091 26.5663 26.613 27.4571C26.3401 27.7044 26.0807 27.965 25.8358 28.238C24.4213 27.7456 22.644 27.0991 21.5248 25.4677Z"
                fill="#838790"
              />
              <path
                d="M32.6075 29.8691L32.2189 29.9437C31.4715 30.1271 30.7961 30.516 30.2759 31.0628C29.7999 31.7319 29.5635 32.5314 29.6023 33.3407C29.6023 34.1414 30.5608 35.3301 31.4935 35.7529C31.8597 35.6468 32.2276 35.5373 32.5972 35.4246L32.6075 29.8691Z"
                fill="#838790"
              />
              <path
                d="M70.7908 12.4916V21.9862H74.6044V16.1273H88.0763V21.9862H91.8951V6.56812H76.9464C76.1368 6.56811 75.335 6.72144 74.5872 7.0193C73.8393 7.31717 73.16 7.75373 72.5882 8.30397C72.0164 8.85422 71.5633 9.50734 71.2549 10.2259C70.9465 10.9445 70.7887 11.7144 70.7908 12.4916ZM74.6044 12.4618C74.6044 12.1705 74.6642 11.882 74.7803 11.6129C74.8964 11.3438 75.0667 11.0993 75.2813 10.8933C75.4958 10.6873 75.7506 10.5239 76.031 10.4124C76.3114 10.301 76.6119 10.2436 76.9153 10.2436H88.066V12.4618H74.6044Z"
                fill="#838790"
              />
              <path
                d="M94.8901 11.4919V21.8171H98.911V16.0527H113.419V12.1485H98.911C98.911 11.7013 99.0961 11.2724 99.4255 10.9562C99.7549 10.6401 100.202 10.4624 100.668 10.4624H114.58V6.56812H100.004C98.6461 6.57075 97.3445 7.09083 96.3856 8.01409C95.4266 8.93734 94.8888 10.1882 94.8901 11.4919Z"
                fill="#838790"
              />
              <path
                d="M121.964 10.4624H135.881V6.56812H121.316C119.959 6.57075 118.658 7.09015 117.699 8.01233C116.74 8.9345 116.202 10.1841 116.202 11.487V21.8171H135.891V18.5395H120.207V16.0527H134.715V12.1485H120.207C120.207 11.7013 120.392 11.2724 120.721 10.9562C121.051 10.6401 121.498 10.4624 121.964 10.4624Z"
                fill="#838790"
              />
              <path
                d="M175.001 10.4624H188.914V6.56812H174.338C172.981 6.57075 171.681 7.09031 170.723 8.01263C169.765 8.93495 169.228 10.1846 169.229 11.487V21.8171H188.919V18.5395H173.245V16.0527H187.753V12.1485H173.245C173.245 11.7013 173.43 11.2724 173.759 10.9562C174.089 10.6401 174.536 10.4624 175.001 10.4624Z"
                fill="#838790"
              />
              <path
                d="M152.954 11.7903H149.135V21.817H152.954V11.7903Z"
                fill="#838790"
              />
              <path
                d="M159.742 8.44812C159.427 7.8945 158.967 7.42963 158.407 7.09979C157.847 6.76995 157.207 6.58664 156.55 6.56812H139.093V21.8171H142.912V10.2436H156.42L163.068 21.7474L167.421 21.8171L159.742 8.44812Z"
                fill="#838790"
              />
              <path
                d="M68.2621 31.1377L69.5005 26.5371H70.7958L72.0291 31.1377H71.1223L70.8839 30.1429H69.3813L69.1378 31.1377H68.2621ZM69.5005 29.5212H70.7544L70.1585 27.1489H70.1222L69.5005 29.5212Z"
                fill="#838790"
              />
              <path
                d="M72.8948 31.0876C72.8002 31.0631 72.7126 31.0188 72.6382 30.9577C72.5638 30.8966 72.5045 30.8203 72.4647 30.7345C72.3785 30.4777 72.3417 30.2081 72.3559 29.9387V29.695H73.1279V29.879C73.1216 30.0204 73.1409 30.1617 73.1849 30.2968C73.2002 30.3408 73.2259 30.3808 73.2601 30.4136C73.2943 30.4464 73.336 30.4711 73.3818 30.4858C73.5358 30.5236 73.6945 30.5404 73.8533 30.5355H73.9673C74.1143 30.5427 74.2615 30.5259 74.4026 30.4858C74.4451 30.4732 74.484 30.4514 74.5164 30.4221C74.5487 30.3928 74.5736 30.3567 74.5891 30.3167C74.6261 30.1889 74.6418 30.0563 74.6357 29.9238V29.7696C74.6445 29.6515 74.6213 29.5333 74.5684 29.4264C74.5088 29.3353 74.4167 29.2681 74.3093 29.2374C74.1046 29.1758 73.8949 29.1309 73.6824 29.1031C73.3954 29.0709 73.1156 28.9954 72.8533 28.8793C72.6797 28.8027 72.5427 28.6659 72.4699 28.4964C72.3878 28.2747 72.3508 28.04 72.3611 27.805V27.6658C72.3499 27.4262 72.3923 27.1871 72.4854 26.9645C72.5699 26.795 72.7208 26.6645 72.9051 26.6014C73.1707 26.5178 73.4497 26.4807 73.729 26.492H73.8844C74.2008 26.4794 74.5173 26.5146 74.8223 26.5965C74.9146 26.6228 74.9999 26.668 75.0724 26.729C75.1448 26.7899 75.2027 26.8652 75.242 26.9496C75.3262 27.1845 75.3631 27.4326 75.3508 27.6807V27.8896H74.5736V27.7205C74.579 27.5978 74.5632 27.4751 74.5269 27.3574C74.5094 27.318 74.4839 27.2823 74.4519 27.2524C74.4199 27.2225 74.382 27.199 74.3404 27.1833C74.2045 27.1437 74.0625 27.1269 73.9207 27.1336H73.8067C73.6721 27.1284 73.5374 27.1435 73.4077 27.1784C73.3675 27.1899 73.3306 27.2103 73.3 27.2379C73.2694 27.2655 73.246 27.2996 73.2316 27.3375C73.1902 27.4474 73.1726 27.5641 73.1797 27.6807V27.7951C73.1738 27.9093 73.195 28.0232 73.2419 28.1283C73.2968 28.2163 73.3835 28.2818 73.4855 28.3123C73.6779 28.3712 73.8757 28.4128 74.0761 28.4367C74.378 28.4722 74.6729 28.5492 74.9518 28.6655C75.1267 28.7405 75.268 28.8727 75.3508 29.0385C75.4335 29.2548 75.4705 29.4847 75.4596 29.7149V29.874C75.472 30.1506 75.4316 30.4271 75.3404 30.6897C75.3016 30.7792 75.2438 30.8599 75.1706 30.9267C75.0975 30.9935 75.0106 31.0449 74.9155 31.0776C74.6316 31.1585 74.3358 31.1938 74.0399 31.1821H73.8792C73.5481 31.1945 73.2168 31.1627 72.8948 31.0876Z"
                fill="#838790"
              />
              <path
                d="M76.6558 31.0327C76.5419 30.98 76.4413 30.9043 76.3608 30.8107C76.2803 30.7171 76.2219 30.6079 76.1895 30.4906C76.0866 30.1025 76.043 29.7021 76.06 29.3019V28.3371C76.0437 27.9517 76.0874 27.5662 76.1895 27.1931C76.2218 27.0751 76.2807 26.9653 76.3622 26.8716C76.4437 26.7779 76.5458 26.7026 76.661 26.651C76.9913 26.5297 77.3441 26.4755 77.6973 26.4919H77.8269C78.1801 26.4755 78.5329 26.5297 78.8632 26.651C78.9784 26.7026 79.0804 26.7779 79.1619 26.8716C79.2434 26.9653 79.3024 27.0751 79.3347 27.1931C79.4368 27.5662 79.4804 27.9517 79.4642 28.3371V29.3019C79.4846 29.7016 79.4444 30.102 79.345 30.4906C79.3127 30.6079 79.2543 30.7171 79.1738 30.8107C79.0933 30.9043 78.9926 30.98 78.8787 31.0327C78.5468 31.1473 78.1947 31.198 77.8424 31.1819H77.7129C77.3537 31.2007 76.9942 31.15 76.6558 31.0327ZM77.8372 30.5055C78.0146 30.5206 78.1931 30.4914 78.3554 30.421C78.4128 30.386 78.4616 30.3394 78.4983 30.2844C78.535 30.2294 78.5587 30.1674 78.5678 30.1027C78.6124 29.8564 78.6315 29.6065 78.6248 29.3566V28.2674C78.6319 28.0274 78.6128 27.7874 78.5678 27.5512C78.558 27.4874 78.534 27.4263 78.4973 27.3723C78.4606 27.3182 78.4122 27.2723 78.3554 27.2379C78.1922 27.1703 78.0145 27.1413 77.8372 27.1533H77.7181C77.5408 27.1417 77.3632 27.1706 77.1999 27.2379C77.1416 27.2713 77.0918 27.3167 77.0542 27.371C77.0165 27.4252 76.992 27.4868 76.9823 27.5512C76.9373 27.7874 76.9182 28.0274 76.9253 28.2674V29.3566C76.9186 29.6065 76.9377 29.8564 76.9823 30.1027C76.9912 30.168 77.0155 30.2306 77.0531 30.2857C77.0908 30.3408 77.141 30.3871 77.1999 30.421C77.3622 30.4914 77.5406 30.5206 77.7181 30.5055H77.8372Z"
                fill="#838790"
              />
              <path
                d="M80.6617 31.0327C80.5498 30.9822 80.4511 30.9081 80.3731 30.816C80.2951 30.7239 80.2396 30.6161 80.2109 30.5006C80.1173 30.1077 80.0773 29.7047 80.0918 29.3019V28.3371C80.0782 27.9491 80.1183 27.5611 80.2109 27.1832C80.2422 27.0674 80.2991 26.9595 80.3778 26.8668C80.4565 26.7741 80.5551 26.6988 80.6669 26.6461C80.9972 26.5253 81.3503 26.4727 81.7032 26.4919H81.8017C82.129 26.4794 82.4562 26.518 82.7706 26.6063C82.8719 26.6376 82.9649 26.6899 83.0428 26.7595C83.1207 26.8291 83.1817 26.9143 83.2214 27.0091C83.3172 27.2794 83.3594 27.5645 83.3458 27.8497V28.0585H82.5115V27.8795C82.5185 27.727 82.501 27.5743 82.4597 27.4269C82.4451 27.3796 82.4199 27.336 82.3859 27.2991C82.3519 27.2621 82.3099 27.2328 82.2628 27.213C82.1194 27.1671 81.9683 27.1469 81.8172 27.1534H81.7343C81.5574 27.1393 81.3796 27.1666 81.2161 27.2329C81.1603 27.2656 81.1127 27.3097 81.0769 27.3622C81.041 27.4147 81.0178 27.4742 81.0089 27.5363C80.966 27.7777 80.9486 28.0227 80.9571 28.2674V29.3566C80.9486 29.6146 80.966 29.8728 81.0089 30.1275C81.0172 30.1893 81.0397 30.2485 81.0746 30.3009C81.1095 30.3534 81.1561 30.3978 81.211 30.4309C81.3757 30.4927 81.5528 30.5182 81.7291 30.5055H81.8224C81.9766 30.5142 82.1311 30.4956 82.2784 30.4508C82.3257 30.4328 82.368 30.4047 82.4022 30.3684C82.4363 30.3322 82.4613 30.2889 82.4753 30.2419C82.5218 30.0801 82.541 29.9122 82.5323 29.7446V29.5655H83.3665V29.7844C83.3815 30.0834 83.3357 30.3824 83.2318 30.6647C83.1923 30.7602 83.1315 30.8463 83.0536 30.9167C82.9757 30.9872 82.8826 31.0404 82.781 31.0725C82.4645 31.1588 82.1356 31.1958 81.8068 31.1819H81.7084C81.3525 31.2019 80.9962 31.1511 80.6617 31.0327Z"
                fill="#838790"
              />
              <path
                d="M84.0089 31.1377V26.5371H84.8742V31.1377H84.0089Z"
                fill="#838790"
              />
              <path
                d="M85.3301 31.1377L86.5633 26.5371H87.8587L89.0919 31.1377H88.1851L87.9467 30.1429H86.4441L86.1954 31.1377H85.3301ZM86.5633 29.5212H87.8172L87.2213 27.1489H87.1851L86.5633 29.5212Z"
                fill="#838790"
              />
              <path
                d="M89.9879 31.0327C89.8759 30.9822 89.7773 30.9081 89.6993 30.816C89.6212 30.7239 89.5658 30.6161 89.5371 30.5006C89.4409 30.1081 89.4008 29.7048 89.4179 29.3019V28.3371C89.4017 27.949 89.4418 27.5607 89.5371 27.1832C89.5683 27.0674 89.6252 26.9595 89.7039 26.8668C89.7826 26.7741 89.8813 26.6988 89.9931 26.6461C90.3234 26.5253 90.6765 26.4727 91.0294 26.4919H91.1278C91.4551 26.4799 91.7823 26.5185 92.0968 26.6063C92.1981 26.6376 92.291 26.6899 92.3689 26.7595C92.4468 26.8291 92.5078 26.9143 92.5476 27.0091C92.6434 27.2794 92.6856 27.5645 92.6719 27.8497V28.0585H91.8377V27.8795C91.8446 27.727 91.8272 27.5743 91.7859 27.4269C91.7704 27.3793 91.7443 27.3355 91.7094 27.2986C91.6745 27.2616 91.6316 27.2325 91.5838 27.213C91.4422 27.1667 91.2928 27.1464 91.1434 27.1534H91.0553C90.8784 27.1389 90.7005 27.1662 90.5371 27.2329C90.4813 27.2656 90.4337 27.3097 90.3979 27.3622C90.362 27.4147 90.3388 27.4742 90.3299 27.5363C90.287 27.7777 90.2696 28.0227 90.2781 28.2674V29.3566C90.2696 29.6146 90.287 29.8728 90.3299 30.1275C90.3382 30.1893 90.3606 30.2485 90.3956 30.3009C90.4305 30.3534 90.4771 30.3978 90.5319 30.4309C90.6967 30.4927 90.8737 30.5182 91.0501 30.5055H91.1434C91.2959 30.5147 91.4488 30.4962 91.5942 30.4508C91.6426 30.4338 91.6862 30.406 91.7214 30.3697C91.7565 30.3334 91.7822 30.2896 91.7962 30.2419C91.8402 30.0797 91.8594 29.9121 91.8532 29.7446V29.5655H92.6823V29.7844C92.6984 30.0831 92.6544 30.382 92.5527 30.6647C92.5124 30.7597 92.4513 30.8453 92.3735 30.9156C92.2957 30.986 92.2031 31.0395 92.1019 31.0725C91.7853 31.1582 91.4565 31.1952 91.1278 31.1819H91.0294C90.6752 31.2012 90.3207 31.1504 89.9879 31.0327Z"
                fill="#838790"
              />
              <path
                d="M93.3356 31.1377V26.5371H94.2009V31.1377H93.3356Z"
                fill="#838790"
              />
              <path
                d="M95.5065 31.0331C95.3924 30.9799 95.2914 30.9041 95.2101 30.8106C95.1288 30.7172 95.0691 30.6082 95.035 30.491C94.937 30.1021 94.8951 29.7021 94.9106 29.3023V28.3374C94.8958 27.9524 94.9376 27.5673 95.035 27.1935C95.0691 27.0763 95.1288 26.9673 95.2101 26.8739C95.2914 26.7804 95.3924 26.7046 95.5065 26.6514C95.837 26.531 96.1897 26.4769 96.5428 26.4922H96.6723C97.0255 26.4759 97.3784 26.5301 97.7086 26.6514C97.8233 26.7038 97.9248 26.7794 98.0062 26.8729C98.0876 26.9665 98.1469 27.0759 98.1802 27.1935C98.2797 27.567 98.3233 27.9522 98.3097 28.3374V29.3023C98.324 29.7024 98.2804 30.1024 98.1802 30.491C98.1478 30.6083 98.0894 30.7175 98.0089 30.8111C97.9284 30.9047 97.8277 30.9804 97.7138 31.0331C97.3819 31.1477 97.0298 31.1984 96.6775 31.1823H96.548C96.1939 31.1995 95.8399 31.1488 95.5065 31.0331ZM96.6879 30.5059C96.8568 30.518 97.0261 30.4889 97.1801 30.4214C97.239 30.3875 97.2892 30.3412 97.3269 30.2861C97.3646 30.231 97.3888 30.1684 97.3977 30.1031C97.4423 29.8568 97.4614 29.6069 97.4547 29.357V28.2678C97.4618 28.0278 97.4427 27.7878 97.3977 27.5516C97.388 27.4871 97.3635 27.4255 97.3258 27.3713C97.2882 27.3171 97.2384 27.2717 97.1801 27.2383C97.0253 27.1731 96.8566 27.1441 96.6879 27.1537H96.5635C96.3862 27.1416 96.2085 27.1706 96.0454 27.2383C95.9871 27.2717 95.9373 27.3171 95.8996 27.3713C95.862 27.4255 95.8374 27.4871 95.8277 27.5516C95.7802 27.7875 95.761 28.0278 95.7707 28.2678V29.357C95.7614 29.6069 95.7805 29.8571 95.8277 30.1031C95.8368 30.1678 95.8605 30.2298 95.8972 30.2848C95.9339 30.3398 95.9827 30.3864 96.0402 30.4214C96.2025 30.4918 96.3809 30.5209 96.5583 30.5059H96.6879ZM96.092 26.1889L95.9314 25.9054L97.1283 25.1643L97.4029 25.6915L96.092 26.1889Z"
                fill="#838790"
              />
              <path
                d="M99.035 31.1377V26.5371H100.31L101.864 30.3916H101.895L101.843 26.5371H102.636V31.1377H101.382L99.8278 27.2632H99.7915L99.8226 31.1377H99.035Z"
                fill="#838790"
              />
              <path
                d="M104.922 26.5366H106.528C106.906 26.5215 107.284 26.5651 107.647 26.6659C107.767 26.7062 107.875 26.7718 107.965 26.8579C108.055 26.944 108.123 27.0484 108.165 27.1633C108.278 27.5396 108.327 27.9309 108.31 28.3221V29.3169C108.328 29.7154 108.285 30.1143 108.181 30.5006C108.143 30.6131 108.08 30.7162 107.996 30.8023C107.912 30.8883 107.808 30.9552 107.694 30.9979C107.321 31.1044 106.932 31.1498 106.543 31.1322H104.937L104.922 26.5366ZM106.517 30.4807C106.719 30.4916 106.921 30.4663 107.113 30.4061C107.176 30.3778 107.231 30.3355 107.273 30.2827C107.316 30.23 107.344 30.1682 107.357 30.1027C107.407 29.8554 107.428 29.6035 107.419 29.3517V28.2674C107.43 28.0285 107.407 27.7894 107.352 27.5562C107.337 27.4926 107.308 27.433 107.266 27.3821C107.223 27.3312 107.169 27.2904 107.108 27.2628C106.918 27.2029 106.717 27.1776 106.517 27.1882H105.771V30.4807H106.517Z"
                fill="#838790"
              />
              <path
                d="M109.004 31.1377V26.5371H111.595V27.1886H109.849V28.4519H111.47V29.0786H109.849V30.4762H111.641V31.1377H109.004Z"
                fill="#838790"
              />
              <path
                d="M113.745 31.1377V26.5371H116.289V27.2085H114.61V28.6409H116.165V29.2925H114.61V31.1377H113.745Z"
                fill="#838790"
              />
              <path
                d="M116.175 31.1377L117.408 26.5371H118.725L119.958 31.1377H119.046L118.808 30.1429H117.31L117.061 31.1377H116.175ZM117.408 29.5212H118.662L118.061 27.1489H118.025L117.408 29.5212Z"
                fill="#838790"
              />
              <path
                d="M120.829 31.0329C120.718 30.981 120.62 30.9065 120.542 30.8146C120.464 30.7227 120.408 30.6156 120.378 30.5008C120.284 30.1079 120.244 29.705 120.259 29.3021V28.3373C120.245 27.9493 120.285 27.5613 120.378 27.1834C120.41 27.0673 120.468 26.9592 120.547 26.8666C120.627 26.7739 120.726 26.6987 120.839 26.6463C121.169 26.5249 121.522 26.4724 121.875 26.4921H121.974C122.301 26.4804 122.628 26.519 122.943 26.6065C123.044 26.6378 123.137 26.6901 123.215 26.7597C123.293 26.8293 123.354 26.9146 123.393 27.0093C123.485 27.2806 123.525 27.5651 123.513 27.8499V28.0588H122.684V27.8797C122.691 27.7272 122.673 27.5745 122.632 27.4271C122.616 27.3795 122.59 27.3357 122.555 27.2988C122.52 27.2619 122.478 27.2327 122.43 27.2133C122.286 27.167 122.135 27.1467 121.984 27.1536H121.901C121.724 27.1391 121.546 27.1664 121.383 27.2331C121.326 27.2652 121.278 27.3092 121.241 27.3617C121.204 27.4142 121.18 27.4739 121.171 27.5365C121.13 27.7782 121.113 28.0229 121.119 28.2676V29.3569C121.113 29.6148 121.13 29.8727 121.171 30.1278C121.179 30.1901 121.202 30.2499 121.238 30.3025C121.274 30.3551 121.321 30.3991 121.378 30.4311C121.542 30.4941 121.72 30.5197 121.896 30.5058H121.984C122.138 30.5149 122.293 30.4963 122.44 30.451C122.489 30.434 122.532 30.4062 122.567 30.3699C122.602 30.3336 122.628 30.2898 122.642 30.2422C122.686 30.0799 122.705 29.9124 122.699 29.7448V29.5657H123.528V29.7846C123.544 30.0833 123.5 30.3822 123.399 30.6649C123.358 30.7606 123.296 30.8466 123.217 30.9171C123.139 30.9875 123.045 31.0406 122.943 31.0727C122.628 31.1591 122.301 31.1961 121.974 31.1822H121.875C121.519 31.2012 121.163 31.1504 120.829 31.0329Z"
                fill="#838790"
              />
              <path
                d="M124.746 31.0531C124.64 31.0147 124.545 30.9542 124.467 30.8758C124.389 30.7975 124.33 30.7035 124.295 30.6005C124.197 30.2776 124.155 29.9417 124.17 29.6058V26.5371H125.036V29.6356C125.029 29.8246 125.048 30.0136 125.093 30.1977C125.104 30.2507 125.128 30.3004 125.163 30.3428C125.199 30.3851 125.244 30.4189 125.295 30.4414C125.444 30.4931 125.603 30.5152 125.761 30.506H125.865C126.023 30.5152 126.182 30.4931 126.331 30.4414C126.383 30.4186 126.428 30.3848 126.464 30.3425C126.5 30.3003 126.526 30.2507 126.538 30.1977C126.581 30.0133 126.599 29.8243 126.59 29.6356V26.5371H127.461V29.6008C127.475 29.9367 127.433 30.2726 127.336 30.5955C127.301 30.6981 127.242 30.7919 127.164 30.8701C127.086 30.9484 126.991 31.0091 126.886 31.0481C126.56 31.1515 126.217 31.1954 125.875 31.1774H125.756C125.414 31.197 125.071 31.1548 124.746 31.0531Z"
                fill="#838790"
              />
              <path
                d="M128.217 31.1377V26.5371H129.088V30.4762H130.642V31.1377H128.217Z"
                fill="#838790"
              />
              <path
                d="M131.368 31.1377V27.2036H130.269V26.5371H133.332V27.2036H132.233V31.1377H131.368Z"
                fill="#838790"
              />
              <path
                d="M133.067 31.1377L134.3 26.5371H135.596L136.829 31.1377H135.917L135.679 30.1429H134.181L133.932 31.1377H133.067ZM134.3 29.5212H135.554L134.953 27.1489H134.917L134.3 29.5212Z"
                fill="#838790"
              />
              <path
                d="M137.27 26.5369H138.876C139.254 26.521 139.632 26.5647 139.995 26.6662C140.115 26.7061 140.224 26.7716 140.314 26.8577C140.404 26.9439 140.472 27.0484 140.514 27.1635C140.624 27.5402 140.672 27.9314 140.653 28.3224V29.3171C140.67 29.7153 140.628 30.1138 140.529 30.5008C140.492 30.614 140.428 30.7176 140.342 30.8038C140.257 30.8899 140.153 30.9564 140.037 30.9982C139.664 31.1054 139.275 31.1508 138.887 31.1324H137.28L137.27 26.5369ZM138.871 30.4809C139.073 30.4914 139.275 30.4661 139.467 30.4063C139.53 30.378 139.585 30.3358 139.627 30.283C139.669 30.2302 139.698 30.1685 139.71 30.1029C139.761 29.8556 139.782 29.6037 139.773 29.3519V28.2677C139.783 28.0288 139.76 27.7896 139.705 27.5565C139.689 27.4928 139.659 27.4334 139.616 27.3826C139.573 27.3318 139.518 27.291 139.457 27.263C139.268 27.2034 139.069 27.1781 138.871 27.1884H138.135V30.4809H138.871Z"
                fill="#838790"
              />
              <path
                d="M141.358 31.1377V26.5371H143.949V27.1886H142.203V28.4519H143.824V29.0786H142.203V30.4762H143.99V31.1377H141.358Z"
                fill="#838790"
              />
              <path
                d="M145.021 31.0874C144.926 31.063 144.839 31.0186 144.764 30.9575C144.69 30.8964 144.631 30.8202 144.591 30.7343C144.505 30.4776 144.468 30.2079 144.482 29.9385V29.6948H145.275V29.8789C145.267 30.0199 145.285 30.1612 145.327 30.2966C145.343 30.3403 145.369 30.38 145.403 30.4127C145.437 30.4454 145.478 30.4703 145.524 30.4856C145.679 30.5237 145.84 30.5404 146 30.5354H146.109C146.256 30.5425 146.403 30.5257 146.544 30.4856C146.587 30.4731 146.626 30.4513 146.658 30.4219C146.69 30.3926 146.715 30.3566 146.731 30.3165C146.768 30.1887 146.784 30.0561 146.778 29.9236V29.7694C146.778 29.6579 146.754 29.5475 146.705 29.4462C146.641 29.3572 146.548 29.2909 146.441 29.2572C146.236 29.1955 146.026 29.1506 145.814 29.1229C145.527 29.0907 145.247 29.0151 144.985 28.8991C144.811 28.8225 144.674 28.6857 144.601 28.5161C144.519 28.2945 144.482 28.0598 144.492 27.8248V27.6855C144.482 27.4365 144.53 27.1885 144.632 26.9594C144.717 26.7899 144.868 26.6594 145.052 26.5963C145.318 26.5126 145.597 26.4756 145.876 26.4869H146.031C146.348 26.4742 146.664 26.5095 146.969 26.5913C147.062 26.6177 147.147 26.6629 147.219 26.7238C147.292 26.7848 147.35 26.86 147.389 26.9445C147.473 27.1793 147.51 27.4274 147.498 27.6756V27.8845H146.705V27.7154C146.71 27.5927 146.695 27.47 146.658 27.3523C146.641 27.3129 146.615 27.2772 146.583 27.2473C146.551 27.2174 146.513 27.1939 146.472 27.1782C146.336 27.1386 146.194 27.1217 146.052 27.1285H145.938C145.803 27.1232 145.669 27.1383 145.539 27.1732C145.499 27.1848 145.462 27.2051 145.431 27.2328C145.401 27.2604 145.377 27.2945 145.363 27.3324C145.322 27.4422 145.304 27.559 145.311 27.6756V27.79C145.305 27.9041 145.326 28.0181 145.373 28.1232C145.428 28.2111 145.515 28.2766 145.617 28.3072C145.809 28.366 146.007 28.4077 146.208 28.4316C146.509 28.4671 146.804 28.5441 147.083 28.6603C147.259 28.7339 147.401 28.8665 147.482 29.0334C147.565 29.2497 147.602 29.4796 147.591 29.7098V29.8689C147.606 30.1456 147.565 30.4225 147.472 30.6846C147.433 30.7741 147.375 30.8548 147.302 30.9216C147.229 30.9884 147.142 31.0398 147.047 31.0725C146.763 31.1534 146.467 31.1887 146.171 31.177H146.011C145.678 31.1914 145.345 31.1613 145.021 31.0874Z"
                fill="#838790"
              />
              <path
                d="M149.814 31.1377V26.5371H152.405V27.1886H150.654V28.4519H152.276V29.0786H150.654V30.4762H152.447V31.1377H149.814Z"
                fill="#838790"
              />
              <path
                d="M153.498 31.0331C153.387 30.9811 153.289 30.9066 153.212 30.8147C153.134 30.7228 153.078 30.6157 153.047 30.5009C152.954 30.108 152.914 29.7051 152.928 29.3023V28.3374C152.915 27.9494 152.955 27.5614 153.047 27.1835C153.079 27.0674 153.137 26.9594 153.217 26.8667C153.296 26.774 153.396 26.6988 153.508 26.6464C153.838 26.5247 154.192 26.4722 154.545 26.4922H154.648C154.974 26.4801 155.299 26.5187 155.612 26.6066C155.714 26.6363 155.808 26.688 155.886 26.7578C155.964 26.8277 156.025 26.9137 156.063 27.0094C156.159 27.2797 156.201 27.5648 156.187 27.85V28.0589H155.358V27.8798C155.362 27.7274 155.345 27.5752 155.306 27.4272C155.291 27.3796 155.265 27.3358 155.23 27.2989C155.195 27.262 155.152 27.2328 155.104 27.2134C154.961 27.1671 154.81 27.1468 154.659 27.1537H154.576C154.399 27.1396 154.221 27.1669 154.058 27.2333C154.002 27.2659 153.954 27.31 153.918 27.3625C153.883 27.415 153.859 27.4745 153.85 27.5366C153.81 27.7783 153.793 28.0231 153.799 28.2678V29.357C153.793 29.6149 153.81 29.8728 153.85 30.1279C153.859 30.1902 153.882 30.25 153.917 30.3026C153.953 30.3552 154.001 30.3992 154.058 30.4313C154.222 30.4942 154.399 30.5198 154.576 30.5059H154.664C154.818 30.5145 154.973 30.496 155.12 30.4512C155.167 30.4326 155.21 30.4042 155.245 30.3681C155.28 30.3321 155.306 30.2891 155.322 30.2423C155.366 30.08 155.385 29.9125 155.379 29.7449V29.5659H156.208V29.7847C156.224 30.0834 156.18 30.3823 156.078 30.665C156.038 30.7607 155.976 30.8468 155.897 30.9172C155.819 30.9876 155.725 31.0407 155.622 31.0728C155.308 31.1589 154.981 31.1958 154.654 31.1823H154.55C154.192 31.2029 153.834 31.1521 153.498 31.0331Z"
                fill="#838790"
              />
              <path
                d="M157.41 31.0531C157.305 31.0141 157.21 30.9533 157.132 30.8751C157.054 30.7969 156.995 30.7031 156.959 30.6005C156.867 30.2768 156.827 29.9413 156.84 29.6058V26.5371H157.706V29.6356C157.696 29.8246 157.715 30.014 157.763 30.1977C157.774 30.2507 157.798 30.3004 157.833 30.3428C157.868 30.3851 157.913 30.4189 157.965 30.4414C158.114 30.4931 158.273 30.5152 158.431 30.506H158.535C158.693 30.5152 158.852 30.4931 159.001 30.4414C159.052 30.4189 159.097 30.3851 159.132 30.3428C159.168 30.3004 159.192 30.2507 159.203 30.1977C159.251 30.014 159.27 29.8246 159.26 29.6356V26.5371H160.131V29.6008C160.145 29.9367 160.103 30.2726 160.006 30.5955C159.97 30.6981 159.911 30.7919 159.833 30.8701C159.755 30.9484 159.661 31.0091 159.555 31.0481C159.23 31.1515 158.887 31.1954 158.545 31.1774H158.426C158.082 31.1964 157.738 31.1543 157.41 31.0531Z"
                fill="#838790"
              />
              <path
                d="M160.426 31.1377L161.654 26.5371H162.955L164.188 31.1377H163.286L163.048 30.1429H161.545L161.302 31.1377H160.426ZM161.654 29.5212H162.908L162.312 27.1489H162.276L161.654 29.5212Z"
                fill="#838790"
              />
              <path
                d="M165.037 31.1377V27.2036H163.939V26.5371H167.001V27.2036H165.903V31.1377H165.037Z"
                fill="#838790"
              />
              <path
                d="M167.825 31.0329C167.711 30.9797 167.61 30.9039 167.529 30.8104C167.447 30.717 167.388 30.608 167.353 30.4908C167.255 30.1019 167.214 29.7019 167.229 29.3021V28.3372C167.214 27.9522 167.256 27.5671 167.353 27.1933C167.388 27.0761 167.447 26.9671 167.529 26.8737C167.61 26.7802 167.711 26.7044 167.825 26.6512C168.155 26.5309 168.508 26.4767 168.861 26.4921H168.986C169.339 26.4767 169.691 26.5309 170.022 26.6512C170.137 26.7036 170.238 26.7792 170.319 26.8727C170.401 26.9663 170.46 27.0757 170.493 27.1933C170.591 27.5671 170.633 27.9522 170.618 28.3372V29.3021C170.649 29.6999 170.622 30.0998 170.54 30.4908C170.507 30.6077 170.448 30.7165 170.368 30.81C170.287 30.9034 170.187 30.9794 170.074 31.0329C169.742 31.1471 169.39 31.1978 169.037 31.1821H168.913C168.544 31.2054 168.173 31.1546 167.825 31.0329ZM168.986 30.5057C169.163 30.5207 169.342 30.4916 169.504 30.4212C169.562 30.3865 169.612 30.34 169.649 30.285C169.687 30.2301 169.711 30.1679 169.721 30.1029C169.764 29.8564 169.781 29.6065 169.773 29.3568V28.2676C169.781 28.0278 169.764 27.7878 169.721 27.5514C169.711 27.4873 169.686 27.4261 169.648 27.372C169.611 27.3179 169.561 27.2723 169.504 27.2381C169.341 27.1693 169.163 27.1402 168.986 27.1535H168.866C168.689 27.1415 168.511 27.1705 168.348 27.2381C168.29 27.2715 168.24 27.3169 168.203 27.3711C168.165 27.4253 168.14 27.4869 168.131 27.5514C168.083 27.7873 168.064 28.0276 168.074 28.2676V29.3568C168.064 29.6068 168.083 29.8569 168.131 30.1029C168.14 30.1676 168.163 30.2296 168.2 30.2846C168.237 30.3396 168.286 30.3862 168.343 30.4212C168.505 30.4916 168.684 30.5207 168.861 30.5057H168.986Z"
                fill="#838790"
              />
              <path
                d="M171.349 26.5368H172.976C173.29 26.5238 173.605 26.559 173.908 26.6413C174.003 26.6688 174.09 26.7167 174.163 26.7813C174.236 26.8459 174.292 26.9256 174.328 27.0143C174.418 27.272 174.457 27.5436 174.442 27.815V27.9792C174.447 28.1782 174.426 28.377 174.38 28.571C174.347 28.7013 174.277 28.8202 174.178 28.9142C174.077 28.9999 173.953 29.0568 173.82 29.0783V29.1032C173.965 29.12 174.102 29.177 174.214 29.2673C174.309 29.367 174.37 29.4918 174.39 29.6254C174.432 29.8603 174.449 30.0985 174.442 30.3366V31.1374H173.587V30.4063C173.596 30.1994 173.579 29.9923 173.535 29.7895C173.523 29.7355 173.499 29.6848 173.464 29.6409C173.429 29.597 173.384 29.5612 173.333 29.5359C173.175 29.4852 173.008 29.4633 172.841 29.4712H172.193V31.1374H171.349V26.5368ZM172.991 28.8495C173.115 28.856 173.239 28.8356 173.354 28.7899C173.397 28.7695 173.435 28.741 173.467 28.7059C173.498 28.6708 173.521 28.63 173.535 28.5859C173.576 28.4521 173.594 28.3125 173.587 28.1731V27.8797C173.595 27.7255 173.577 27.5712 173.535 27.4221C173.52 27.3774 173.493 27.3368 173.458 27.3039C173.423 27.271 173.38 27.2467 173.333 27.2331C173.18 27.1935 173.021 27.1767 172.862 27.1834H172.193V28.8495H172.991Z"
                fill="#838790"
              />
              <path
                d="M175.204 31.1377V26.5371H176.074V31.1377H175.204Z"
                fill="#838790"
              />
              <path
                d="M176.483 31.1377L177.716 26.5371H179.012L180.245 31.1377H179.349L179.11 30.1429H177.613L177.364 31.1377H176.483ZM177.716 29.5212H178.97L178.369 27.1489H178.312L177.716 29.5212Z"
                fill="#838790"
              />
              <path
                d="M180.686 31.1377V26.5371H181.965L183.52 30.3916L183.494 26.5371H184.282V31.1377H183.028L181.473 27.2632H181.421L181.447 31.1377H180.686Z"
                fill="#838790"
              />
              <path
                d="M184.717 31.1377L185.95 26.5371H187.246L188.479 31.1377H187.572L187.328 30.1429H185.831L185.582 31.1377H184.717ZM185.95 29.5212H187.204L186.603 27.1489H186.572L185.95 29.5212Z"
                fill="#838790"
              />
              <path
                d="M189.344 31.0875C189.25 31.063 189.163 31.0186 189.09 30.9575C189.016 30.8963 188.958 30.8201 188.919 30.7344C188.833 30.4776 188.796 30.208 188.811 29.9386V29.6949H189.598V29.8789C189.593 30.0199 189.611 30.1608 189.65 30.2967C189.667 30.3405 189.694 30.3802 189.729 30.4129C189.764 30.4455 189.806 30.4704 189.852 30.4857C190.006 30.5239 190.165 30.5406 190.324 30.5354H190.438C190.585 30.5426 190.732 30.5258 190.873 30.4857C190.915 30.4719 190.953 30.4496 190.985 30.4205C191.017 30.3913 191.043 30.3559 191.059 30.3166C191.096 30.1888 191.112 30.0562 191.106 29.9237V29.7695C191.115 29.6514 191.092 29.5332 191.039 29.4263C190.978 29.3364 190.886 29.2696 190.78 29.2373C190.573 29.1758 190.362 29.1309 190.147 29.103C189.861 29.0708 189.581 28.9953 189.318 28.8792C189.147 28.7996 189.011 28.6637 188.935 28.4963C188.857 28.2737 188.822 28.0395 188.831 27.8049V27.6657C188.82 27.4261 188.863 27.187 188.956 26.9644C189.04 26.7949 189.191 26.6644 189.375 26.6013C189.641 26.5177 189.92 26.4806 190.199 26.4919H190.355C190.669 26.4795 190.984 26.5148 191.287 26.5964C191.38 26.6227 191.465 26.6679 191.537 26.7289C191.61 26.7898 191.668 26.8651 191.707 26.9495C191.791 27.1844 191.828 27.4325 191.816 27.6806V27.8895H191.044V27.7204C191.05 27.5973 191.033 27.4742 190.992 27.3573C190.976 27.3169 190.951 27.2804 190.919 27.2503C190.887 27.2202 190.848 27.1973 190.805 27.1832C190.67 27.1429 190.528 27.126 190.386 27.1335H190.277C190.142 27.1279 190.008 27.143 189.878 27.1783C189.837 27.1895 189.799 27.2097 189.768 27.2373C189.736 27.2649 189.712 27.2992 189.697 27.3374C189.66 27.4483 189.645 27.5645 189.65 27.6806V27.795C189.645 27.9086 189.665 28.022 189.707 28.1282C189.766 28.215 189.853 28.28 189.956 28.3122C190.147 28.3706 190.343 28.4123 190.541 28.4366C190.845 28.4715 191.142 28.5485 191.422 28.6654C191.597 28.7404 191.738 28.8726 191.821 29.0384C191.904 29.2547 191.941 29.4846 191.93 29.7148V29.8739C191.937 30.1523 191.888 30.4293 191.785 30.6896C191.746 30.7784 191.689 30.8587 191.617 30.9255C191.545 30.9922 191.459 31.044 191.365 31.0775C191.079 31.1583 190.782 31.1936 190.484 31.182H190.324C189.994 31.1933 189.665 31.1616 189.344 31.0875Z"
                fill="#838790"
              />
              <path
                d="M78.4644 33.5594H80.0706C80.4502 33.544 80.83 33.5876 81.195 33.6887C81.3148 33.729 81.4235 33.7946 81.5132 33.8807C81.6029 33.9668 81.6713 34.0712 81.7132 34.1861C81.8267 34.5623 81.8757 34.9537 81.8583 35.3449V36.3397C81.8737 36.7381 81.8301 37.1367 81.7287 37.5234C81.6928 37.6366 81.6301 37.7404 81.5457 37.8266C81.4612 37.9129 81.3572 37.9793 81.2417 38.0207C80.8681 38.1322 80.4769 38.1793 80.0862 38.16H78.4799L78.4644 33.5594ZM80.0654 37.5035C80.2672 37.5144 80.4693 37.4891 80.6613 37.4289C80.7237 37.3999 80.7782 37.3575 80.8204 37.3048C80.8627 37.2521 80.8916 37.1907 80.9048 37.1255C80.9551 36.8782 80.976 36.6263 80.967 36.3745V35.2902C80.9776 35.0513 80.9549 34.8122 80.8997 34.579C80.8861 34.5151 80.857 34.4552 80.8146 34.4042C80.7723 34.3532 80.718 34.3125 80.6561 34.2856C80.4657 34.226 80.2654 34.2007 80.0654 34.211H79.3452V37.5035H80.0654Z"
                fill="#838790"
              />
              <path
                d="M82.5522 38.1599V33.5593H85.143V34.2109H83.3968V35.4742H85.0446V36.1008H83.4227V37.4934H85.2104V38.1599H82.5522Z"
                fill="#838790"
              />
              <path
                d="M87.7704 38.0555C87.6595 38.0036 87.5617 37.929 87.4839 37.8371C87.406 37.7452 87.35 37.6381 87.3196 37.5233C87.226 37.1304 87.1859 36.7275 87.2004 36.3247V35.3598C87.1869 34.9719 87.227 34.5839 87.3196 34.206C87.3517 34.0899 87.4095 33.9818 87.4891 33.8891C87.5687 33.7964 87.6682 33.7213 87.7807 33.6688C88.1108 33.5472 88.4641 33.4946 88.817 33.5147H88.9155C89.2429 33.4997 89.5706 33.5384 89.8844 33.629C89.9858 33.6603 90.0787 33.7127 90.1566 33.7823C90.2345 33.8519 90.2955 33.9371 90.3352 34.0319C90.4311 34.3022 90.4732 34.5873 90.4596 34.8724V35.0813H89.6305V34.9172C89.6346 34.7664 89.6171 34.6158 89.5787 34.4696C89.5632 34.422 89.5371 34.3782 89.5022 34.3413C89.4674 34.3043 89.4245 34.2751 89.3766 34.2557C89.2333 34.2094 89.0821 34.1892 88.931 34.196H88.8481C88.6712 34.182 88.4935 34.2093 88.33 34.2756C88.2736 34.3077 88.2257 34.3517 88.1898 34.4043C88.1538 34.4569 88.1309 34.5166 88.1227 34.579C88.0798 34.8204 88.0625 35.0654 88.0709 35.3101V36.3993C88.0622 36.6556 88.0795 36.9122 88.1227 37.1652C88.1302 37.2285 88.1527 37.2893 88.1887 37.3428C88.2246 37.3962 88.273 37.441 88.33 37.4736C88.4863 37.5332 88.6544 37.5587 88.8222 37.5482H88.9155C89.0697 37.5569 89.2242 37.5383 89.3715 37.4935C89.419 37.4749 89.4616 37.4466 89.4965 37.4105C89.5315 37.3744 89.5577 37.3315 89.5735 37.2846C89.6152 37.122 89.6327 36.9546 89.6254 36.7873V36.6082H90.4596V36.827C90.4731 37.1256 90.4292 37.4241 90.33 37.7074C90.2895 37.8031 90.2276 37.8891 90.1489 37.9595C90.0702 38.03 89.9764 38.0831 89.8741 38.1152C89.5576 38.2015 89.2287 38.2384 88.8999 38.2246H88.8015C88.4494 38.2361 88.0985 38.1786 87.7704 38.0555Z"
                fill="#838790"
              />
              <path
                d="M91.1384 38.1599V33.5593H92.0037V38.1599H91.1384Z"
                fill="#838790"
              />
              <path
                d="M92.786 38.1599V33.5593H95.3768V34.2109H93.6306V35.4742H95.2524V36.1008H93.6306V37.4934H95.4234V38.1599H92.786Z"
                fill="#838790"
              />
              <path
                d="M96.0143 38.1599V33.5593H97.2889L98.8434 37.4138L98.7968 33.5593H99.5844V38.1599H98.3304L96.776 34.2855H96.7397V38.1599H96.0143Z"
                fill="#838790"
              />
              <path
                d="M100.865 38.0555C100.754 38.0036 100.656 37.929 100.578 37.8371C100.5 37.7452 100.444 37.6381 100.414 37.5233C100.32 37.1304 100.28 36.7275 100.295 36.3247V35.3598C100.281 34.9719 100.321 34.5839 100.414 34.206C100.446 34.0899 100.504 33.9818 100.583 33.8891C100.663 33.7964 100.762 33.7213 100.875 33.6688C101.205 33.5472 101.558 33.4946 101.911 33.5147H102.01C102.337 33.4997 102.665 33.5384 102.979 33.629C103.081 33.6587 103.175 33.7105 103.253 33.7803C103.331 33.8501 103.391 33.9362 103.429 34.0319C103.525 34.3022 103.567 34.5873 103.554 34.8724V35.0813H102.725V34.9172C102.729 34.7664 102.711 34.6158 102.673 34.4696C102.657 34.422 102.631 34.3782 102.596 34.3413C102.562 34.3043 102.519 34.2751 102.471 34.2557C102.328 34.2094 102.176 34.1892 102.025 34.196H101.942C101.765 34.182 101.588 34.2093 101.424 34.2756C101.368 34.3077 101.32 34.3517 101.284 34.4043C101.248 34.4569 101.225 34.5166 101.217 34.579C101.177 34.8207 101.159 35.0654 101.165 35.3101V36.3993C101.159 36.6556 101.176 36.9119 101.217 37.1652C101.224 37.2285 101.247 37.2893 101.283 37.3428C101.319 37.3962 101.367 37.441 101.424 37.4736C101.589 37.5366 101.766 37.5621 101.942 37.5482H102.03C102.185 37.5569 102.339 37.5383 102.486 37.4935C102.534 37.4749 102.577 37.4466 102.612 37.4105C102.646 37.3744 102.673 37.3315 102.689 37.2846C102.733 37.1224 102.752 36.9548 102.746 36.7873V36.6082H103.575V36.827C103.591 37.1258 103.547 37.4246 103.445 37.7074C103.404 37.8031 103.343 37.8891 103.264 37.9595C103.185 38.03 103.091 38.0831 102.989 38.1152C102.673 38.2015 102.344 38.2384 102.015 38.2246H101.916C101.557 38.2389 101.199 38.1813 100.865 38.0555Z"
                fill="#838790"
              />
              <path
                d="M104.216 38.1599V33.5593H105.082V38.1599H104.216Z"
                fill="#838790"
              />
              <path
                d="M105.538 38.1599L106.766 33.5593H108.067L109.295 38.1599H108.388L108.149 37.1652H106.647L106.403 38.1599H105.538ZM106.766 36.5435H108.02L107.424 34.1711H107.388L106.766 36.5435Z"
                fill="#838790"
              />
              <path
                d="M110.165 38.1052C110.07 38.0827 109.982 38.0395 109.908 37.9792C109.833 37.9188 109.774 37.8428 109.735 37.7571C109.649 37.5003 109.612 37.2307 109.626 36.9613V36.7176H110.434V36.9066C110.427 37.0477 110.444 37.1889 110.486 37.3244C110.503 37.368 110.529 37.4074 110.565 37.4393C110.6 37.4713 110.642 37.4949 110.688 37.5084C110.841 37.5513 111.001 37.5698 111.16 37.5631H111.269C111.415 37.5678 111.562 37.551 111.704 37.5134C111.747 37.5007 111.787 37.4782 111.819 37.448C111.851 37.4177 111.876 37.3804 111.89 37.3393C111.93 37.2137 111.948 37.0825 111.942 36.9514V36.7972C111.948 36.6793 111.925 36.5617 111.875 36.454C111.81 36.3651 111.718 36.2987 111.611 36.265C111.405 36.2036 111.196 36.157 110.984 36.1258C110.696 36.0976 110.416 36.0237 110.155 35.9069C109.981 35.8303 109.844 35.6935 109.771 35.5239C109.689 35.3007 109.652 35.0643 109.662 34.8276V34.6934C109.65 34.4537 109.693 34.2145 109.787 33.9921C109.871 33.8226 110.022 33.6921 110.206 33.629C110.472 33.5453 110.751 33.5083 111.03 33.5196H111.186C111.502 33.5069 111.819 33.5422 112.124 33.624C112.216 33.6493 112.301 33.6935 112.373 33.7536C112.446 33.8137 112.504 33.8883 112.543 33.9722C112.627 34.2088 112.664 34.4585 112.652 34.7083V34.9172H111.875V34.7481C111.88 34.6254 111.864 34.5027 111.828 34.385C111.811 34.3451 111.786 34.309 111.754 34.279C111.722 34.2491 111.684 34.2259 111.642 34.2109C111.506 34.1713 111.364 34.1545 111.222 34.1612H111.108C110.973 34.1559 110.839 34.1711 110.709 34.206C110.669 34.2181 110.633 34.2388 110.602 34.2663C110.572 34.2939 110.548 34.3276 110.533 34.3651C110.491 34.4749 110.474 34.5917 110.481 34.7083V34.8227C110.475 34.9368 110.496 35.0508 110.543 35.1559C110.597 35.2436 110.684 35.3078 110.787 35.335C110.979 35.396 111.177 35.4393 111.377 35.4643C111.679 35.4998 111.974 35.5768 112.253 35.693C112.429 35.7666 112.571 35.8992 112.652 36.0661C112.739 36.2813 112.778 36.5118 112.766 36.7425V36.9066C112.78 37.1853 112.738 37.4639 112.642 37.7272C112.603 37.8165 112.546 37.8968 112.472 37.9629C112.399 38.0289 112.312 38.0792 112.217 38.1102C111.934 38.1956 111.637 38.2326 111.341 38.2196H111.18C110.838 38.2316 110.495 38.193 110.165 38.1052Z"
                fill="#838790"
              />
              <path
                d="M114.937 38.1599V33.5593H116.269L117.305 37.3144L118.342 33.5593H119.647V38.1599H118.855L118.891 34.2507H118.86L117.735 38.1599H116.844L115.72 34.2507H115.689L115.725 38.1599H114.937Z"
                fill="#838790"
              />
              <path
                d="M120.435 38.1602V33.5597H123.026V34.2112H121.316V35.4745H122.937V36.1012H121.316V37.4938H123.103V38.1602H120.435ZM121.191 33.1867L121.031 32.8982L122.228 32.1621L122.502 32.6893L121.191 33.1867Z"
                fill="#838790"
              />
              <path
                d="M123.657 33.5596H125.264C125.642 33.5437 126.02 33.5874 126.383 33.6889C126.503 33.7288 126.612 33.7943 126.701 33.8804C126.791 33.9666 126.859 34.0711 126.901 34.1862C127.012 34.5628 127.059 34.9541 127.041 35.3451V36.3398C127.057 36.738 127.016 37.1365 126.917 37.5235C126.88 37.6374 126.817 37.7417 126.732 37.828C126.646 37.9144 126.541 37.9804 126.424 38.0209C126.053 38.1328 125.663 38.18 125.274 38.1601H123.668L123.657 33.5596ZM125.258 37.5036C125.46 37.5141 125.662 37.4888 125.854 37.429C125.916 37.3992 125.97 37.3564 126.012 37.3039C126.054 37.2514 126.084 37.1905 126.098 37.1256C126.148 36.8784 126.169 36.6264 126.16 36.3746V35.2904C126.171 35.0515 126.148 34.8123 126.093 34.5792C126.077 34.5152 126.047 34.4555 126.004 34.4046C125.961 34.3537 125.906 34.3131 125.844 34.2857C125.655 34.2261 125.457 34.2008 125.258 34.2111H124.523V37.5036H125.258Z"
                fill="#838790"
              />
              <path
                d="M127.746 38.1599V33.5593H128.612V38.1599H127.746Z"
                fill="#838790"
              />
              <path
                d="M129.871 38.0555C129.76 38.0036 129.662 37.929 129.584 37.8371C129.506 37.7452 129.45 37.6381 129.42 37.5233C129.326 37.1304 129.286 36.7275 129.301 36.3247V35.3598C129.287 34.9719 129.327 34.5839 129.42 34.206C129.452 34.0899 129.51 33.9818 129.589 33.8891C129.669 33.7964 129.768 33.7213 129.881 33.6688C130.211 33.5472 130.564 33.4946 130.917 33.5147H131.016C131.343 33.4997 131.671 33.5384 131.985 33.629C132.087 33.6587 132.181 33.7105 132.259 33.7803C132.337 33.8501 132.397 33.9362 132.435 34.0319C132.531 34.3022 132.573 34.5873 132.56 34.8724V35.0813H131.731V34.9172C131.735 34.7664 131.717 34.6158 131.679 34.4696C131.663 34.422 131.637 34.3782 131.602 34.3413C131.568 34.3043 131.525 34.2751 131.477 34.2557C131.333 34.2094 131.182 34.1892 131.031 34.196H130.948C130.771 34.182 130.594 34.2093 130.43 34.2756C130.374 34.3077 130.326 34.3517 130.29 34.4043C130.254 34.4569 130.231 34.5166 130.223 34.579C130.18 34.8204 130.163 35.0654 130.171 35.3101V36.3993C130.162 36.6556 130.18 36.9122 130.223 37.1652C130.23 37.2285 130.253 37.2893 130.289 37.3428C130.325 37.3962 130.373 37.441 130.43 37.4736C130.586 37.5332 130.755 37.5587 130.922 37.5482H131.016C131.17 37.5569 131.324 37.5383 131.472 37.4935C131.519 37.4749 131.562 37.4466 131.597 37.4105C131.632 37.3744 131.658 37.3315 131.674 37.2846C131.715 37.122 131.733 36.9546 131.726 36.7873V36.6082H132.56V36.827C132.573 37.1256 132.529 37.4241 132.43 37.7074C132.39 37.8031 132.328 37.8891 132.249 37.9595C132.17 38.03 132.077 38.0831 131.974 38.1152C131.658 38.2015 131.329 38.2384 131 38.2246H130.902C130.55 38.2361 130.199 38.1786 129.871 38.0555Z"
                fill="#838790"
              />
              <path
                d="M132.803 38.1599L134.036 33.5593H135.332L136.565 38.1599H135.653L135.414 37.1652H133.917L133.668 38.1599H132.803ZM134.036 36.5435H135.306L134.705 34.1711H134.668L134.036 36.5435Z"
                fill="#838790"
              />
              <path
                d="M137.43 38.1052C137.337 38.0823 137.249 38.039 137.176 37.9786C137.102 37.9183 137.044 37.8425 137.006 37.7571C136.919 37.5003 136.883 37.2307 136.897 36.9613V36.7176H137.684V36.9066C137.677 37.0477 137.694 37.1889 137.736 37.3244C137.753 37.368 137.779 37.4074 137.815 37.4393C137.85 37.4713 137.892 37.4949 137.938 37.5084C138.091 37.5513 138.251 37.5698 138.41 37.5631H138.524C138.669 37.5679 138.814 37.5511 138.954 37.5134C138.997 37.5007 139.037 37.4782 139.069 37.448C139.101 37.4177 139.126 37.3804 139.14 37.3393C139.183 37.2142 139.2 37.0826 139.192 36.9514V36.7972C139.198 36.6793 139.175 36.5617 139.125 36.454C139.061 36.3651 138.968 36.2987 138.861 36.265C138.656 36.2031 138.446 36.1565 138.234 36.1258C137.946 36.0976 137.666 36.0237 137.405 35.9069C137.232 35.8287 137.096 35.6924 137.021 35.5239C136.941 35.3003 136.906 35.064 136.917 34.8276V34.6934C136.907 34.4543 136.948 34.2156 137.037 33.9921C137.121 33.8226 137.272 33.6921 137.456 33.629C137.722 33.5453 138.001 33.5083 138.28 33.5196H138.436C138.752 33.5069 139.069 33.5422 139.374 33.624C139.466 33.6493 139.551 33.6935 139.623 33.7536C139.696 33.8137 139.754 33.8883 139.793 33.9722C139.877 34.2088 139.914 34.4585 139.902 34.7083V34.9172H139.125V34.7481C139.13 34.6254 139.114 34.5027 139.078 34.385C139.063 34.3442 139.038 34.3074 139.006 34.2772C138.974 34.247 138.935 34.2243 138.892 34.2109C138.756 34.1713 138.614 34.1545 138.472 34.1612H138.358C138.225 34.1555 138.092 34.1707 137.964 34.206C137.923 34.2171 137.885 34.2373 137.854 34.265C137.822 34.2926 137.798 34.3269 137.783 34.3651C137.741 34.4749 137.724 34.5917 137.731 34.7083V34.8227C137.725 34.9368 137.746 35.0508 137.793 35.1559C137.848 35.2426 137.935 35.3065 138.037 35.335C138.229 35.396 138.427 35.4393 138.627 35.4643C138.929 35.499 139.224 35.5761 139.503 35.693C139.68 35.7664 139.824 35.8989 139.907 36.0661C139.99 36.2824 140.027 36.5123 140.016 36.7425V36.9066C140.03 37.1853 139.988 37.4639 139.892 37.7272C139.853 37.8165 139.796 37.8968 139.722 37.9629C139.649 38.0289 139.562 38.0792 139.467 38.1102C139.184 38.1956 138.887 38.2326 138.591 38.2196H138.415C138.083 38.2282 137.751 38.1896 137.43 38.1052Z"
                fill="#838790"
              />
              <path
                d="M143.119 38.1599V36.6679L141.829 33.5693H142.705L143.565 35.892L144.399 33.5693H145.275L143.979 36.6679V38.1599H143.119Z"
                fill="#838790"
              />
              <path
                d="M147.223 33.5596H148.829C149.207 33.5437 149.585 33.5874 149.949 33.6889C150.069 33.7288 150.177 33.7943 150.267 33.8804C150.357 33.9666 150.425 34.0711 150.467 34.1862C150.58 34.5624 150.629 34.9538 150.612 35.3451V36.3398C150.627 36.7383 150.584 37.1368 150.482 37.5235C150.446 37.6367 150.384 37.7405 150.299 37.8268C150.215 37.913 150.111 37.9794 149.995 38.0209C149.622 38.1323 149.23 38.1795 148.84 38.1601H147.223V33.5596ZM148.824 37.5036C149.026 37.5141 149.228 37.4888 149.42 37.429C149.482 37.4001 149.537 37.3576 149.579 37.3049C149.622 37.2523 149.65 37.1909 149.664 37.1256C149.714 36.8784 149.735 36.6264 149.726 36.3746V35.2904C149.736 35.0515 149.714 34.8123 149.658 34.5792C149.644 34.5149 149.614 34.4549 149.571 34.4039C149.527 34.3529 149.472 34.3124 149.41 34.2857C149.221 34.2252 149.023 34.1998 148.824 34.2111H148.094V37.5036H148.824Z"
                fill="#838790"
              />
              <path
                d="M151.306 38.1599V33.5593H153.897V34.2109H152.151V35.4742H153.773V36.1008H152.151V37.4934H153.959V38.1599H151.306Z"
                fill="#838790"
              />
              <path
                d="M156.032 38.1599V33.5593H156.897V37.4934H158.452V38.1599H156.032Z"
                fill="#838790"
              />
              <path
                d="M158.581 38.1599L159.815 33.5593H161.11L162.343 38.1599H161.436L161.193 37.1652H159.695L159.447 38.1599H158.581ZM159.815 36.5435H161.069L160.467 34.1711H160.436L159.815 36.5435Z"
                fill="#838790"
              />
              <path
                d="M164.737 38.1051C164.643 38.0822 164.556 38.0389 164.482 37.9786C164.409 37.9182 164.35 37.8424 164.312 37.757C164.226 37.5002 164.189 37.2306 164.203 36.9612V36.7175H164.991V36.9065C164.983 37.0476 165.001 37.1888 165.043 37.3243C165.059 37.3679 165.086 37.4073 165.121 37.4392C165.156 37.4712 165.199 37.4948 165.245 37.5083C165.398 37.5512 165.557 37.5697 165.716 37.563H165.83C165.975 37.5681 166.121 37.5514 166.26 37.5133C166.304 37.4999 166.344 37.4772 166.377 37.4471C166.41 37.417 166.436 37.3801 166.452 37.3392C166.49 37.2132 166.505 37.0822 166.499 36.9513V36.7971C166.507 36.679 166.484 36.5608 166.431 36.4539C166.37 36.364 166.279 36.2972 166.172 36.2649C165.965 36.2036 165.754 36.1571 165.54 36.1257C165.253 36.0975 164.973 36.0236 164.711 35.9068C164.54 35.8271 164.404 35.6913 164.328 35.5239C164.25 35.2995 164.215 35.0637 164.224 34.8276V34.6933C164.212 34.4536 164.255 34.2144 164.348 33.992C164.433 33.8225 164.584 33.692 164.768 33.6289C165.034 33.5453 165.313 33.5082 165.592 33.5195H165.747C166.062 33.5071 166.377 33.5424 166.68 33.624C166.772 33.6492 166.857 33.6934 166.93 33.7535C167.002 33.8136 167.06 33.8882 167.1 33.9721C167.184 34.2087 167.221 34.4584 167.209 34.7082V34.9171H166.437V34.748C166.443 34.6249 166.425 34.5018 166.385 34.3849C166.37 34.3441 166.345 34.3073 166.312 34.2771C166.28 34.2469 166.241 34.2243 166.198 34.2108C166.062 34.1705 165.92 34.1536 165.778 34.1611H165.67C165.535 34.1555 165.4 34.1706 165.271 34.2059C165.23 34.217 165.192 34.2373 165.16 34.2649C165.129 34.2925 165.105 34.3268 165.089 34.365C165.053 34.4759 165.037 34.5921 165.043 34.7082V34.8226C165.035 34.9364 165.055 35.0502 165.1 35.1558C165.157 35.2425 165.246 35.3062 165.348 35.3349C165.539 35.3954 165.735 35.4387 165.934 35.4642C166.236 35.4989 166.531 35.576 166.81 35.693C166.987 35.7663 167.13 35.8988 167.214 36.066C167.296 36.2823 167.333 36.5122 167.323 36.7424V36.9065C167.337 37.1852 167.294 37.4639 167.198 37.7271C167.16 37.8157 167.103 37.8956 167.031 37.9616C166.959 38.0276 166.873 38.0782 166.779 38.1101C166.494 38.195 166.196 38.232 165.898 38.2195H165.737C165.4 38.2296 165.063 38.191 164.737 38.1051Z"
                fill="#838790"
              />
              <path
                d="M167.638 38.1599L168.871 33.5593H170.167L171.4 38.1599H170.493L170.255 37.1652H168.752L168.504 38.1599H167.638ZM168.871 36.5435H170.125L169.529 34.1711H169.504L168.871 36.5435Z"
                fill="#838790"
              />
              <path
                d="M171.846 38.1599V33.5593H172.712V37.4934H174.266V38.1599H171.846Z"
                fill="#838790"
              />
              <path
                d="M175.204 38.0753C175.098 38.0363 175.003 37.9756 174.926 37.8973C174.848 37.8191 174.789 37.7253 174.753 37.6227C174.656 37.2998 174.614 36.9639 174.628 36.628V33.5593H175.494V36.6579C175.487 36.8468 175.506 37.0358 175.551 37.2199C175.564 37.273 175.589 37.3225 175.625 37.3647C175.661 37.407 175.706 37.4408 175.758 37.4636C175.905 37.5155 176.062 37.5375 176.219 37.5282H176.328C176.485 37.5371 176.642 37.5151 176.789 37.4636C176.841 37.4408 176.886 37.407 176.922 37.3647C176.958 37.3225 176.983 37.273 176.996 37.2199C177.041 37.0358 177.06 36.8468 177.053 36.6579V33.5593H177.919V36.623C177.933 36.9589 177.891 37.2948 177.794 37.6178C177.758 37.7204 177.699 37.8141 177.622 37.8924C177.544 37.9706 177.449 38.0314 177.344 38.0703C177.01 38.1768 176.658 38.2207 176.307 38.1997H176.188C175.855 38.2161 175.521 38.174 175.204 38.0753Z"
                fill="#838790"
              />
              <path
                d="M178.665 33.5596H180.271C180.649 33.5437 181.027 33.5874 181.391 33.6889C181.51 33.7291 181.619 33.7947 181.709 33.8808C181.798 33.9669 181.867 34.0713 181.909 34.1862C182.025 34.5619 182.074 34.9537 182.054 35.3451V36.3398C182.072 36.7384 182.028 37.1373 181.924 37.5235C181.889 37.6371 181.827 37.7412 181.742 37.8276C181.657 37.9139 181.553 37.9801 181.437 38.0209C181.065 38.132 180.676 38.1791 180.287 38.1601H178.681L178.665 33.5596ZM180.261 37.5036C180.463 37.5146 180.665 37.4893 180.857 37.429C180.919 37.4001 180.974 37.3576 181.016 37.3049C181.058 37.2523 181.087 37.1909 181.1 37.1256C181.151 36.8784 181.171 36.6264 181.163 36.3746V35.2904C181.173 35.0515 181.15 34.8123 181.095 34.5792C181.082 34.5153 181.052 34.4554 181.01 34.4044C180.968 34.3533 180.913 34.3127 180.852 34.2857C180.661 34.2258 180.461 34.2005 180.261 34.2111H179.53V37.5036H180.261Z"
                fill="#838790"
              />
            </svg>