            <svg
              width="100"
              height="50"
              viewBox="0 0 194 64"
              fill="none"
              xmlns="http://www.w3.org/2000/svg"
              className="object-contain my-auto"
            >
              <path
                d="M58.5985 28.6682C58.5985 24.0317 55.1462 20.1876 50.6523 19.4871C50.67 19.2419 50.6922 18.9924 50.6922 18.7428C50.6922 13.6116 46.4643 9.43478 41.2702 9.43478C40.2996 9.43478 39.3601 9.57925 38.4738 9.85508C36.7454 7.79733 34.135 6.47949 31.2233 6.47949C28.3117 6.47949 25.7412 7.77544 24.0128 9.8113C23.1796 9.5705 22.3021 9.43915 21.3892 9.43915C16.1951 9.43915 11.9672 13.616 11.9672 18.7472C11.9672 19.0187 11.9849 19.2901 12.0071 19.5572C7.71711 20.4284 4.4819 24.1849 4.4819 28.677C4.4819 30.4589 5.00042 32.1182 5.88235 33.5324C5.00042 34.9465 4.4819 36.6103 4.4819 38.3878C4.4819 42.8711 7.70825 46.6232 11.9849 47.4988C11.9805 47.6302 11.9628 47.7572 11.9628 47.8885C11.9628 53.0198 16.1907 57.1965 21.3848 57.1965C22.2933 57.1965 23.1708 57.0608 24.0084 56.8244C25.7368 58.8559 28.3294 60.1562 31.2189 60.1562C34.1084 60.1562 36.7409 58.8428 38.4693 56.7806C39.3512 57.0521 40.2908 57.2009 41.2658 57.2009C46.4598 57.2009 50.6878 53.0241 50.6878 47.8929C50.6878 47.7834 50.6789 47.6783 50.6745 47.5689C55.1595 46.8552 58.5985 43.0156 58.5985 38.3922C58.5985 36.6146 58.08 34.9553 57.2025 33.5411C58.1155 32.0788 58.5985 30.402 58.5985 28.677V28.6682ZM57.7122 28.6682C57.7122 30.0955 57.3488 31.4878 56.6574 32.7268C56.5909 32.6436 56.5244 32.5648 56.458 32.486C56.4491 32.4772 56.4402 32.4641 56.4314 32.4553C55.2658 31.0631 53.7324 30.0473 52.0173 29.5132C51.9952 29.5044 51.973 29.5001 51.9508 29.4913C51.6849 29.4125 51.4146 29.3424 51.1442 29.2855C51.0955 29.2768 51.0512 29.268 51.0024 29.2549C50.7321 29.2023 50.4618 29.1586 50.1825 29.1323C50.1427 29.1279 50.0983 29.1235 50.054 29.1235C49.7615 29.0973 49.469 29.0798 49.1721 29.0798C48.8752 29.0798 48.5827 29.0973 48.2902 29.1235C48.2503 29.1235 48.206 29.1279 48.1617 29.1323C47.8869 29.1629 47.6121 29.2023 47.3418 29.2549C47.293 29.2636 47.2487 29.2724 47.2 29.2811C46.9252 29.3381 46.6548 29.4081 46.3889 29.4869C46.3668 29.4957 46.3446 29.5001 46.3269 29.5088C44.6118 30.043 43.0784 31.0587 41.9128 32.451C41.904 32.4641 41.8951 32.4772 41.8818 32.486C41.8153 32.5648 41.7488 32.6436 41.6868 32.7268C40.9954 31.4878 40.632 30.0955 40.632 28.6682C40.632 28.4493 40.6498 28.2348 40.6631 28.0202C40.8581 28.0334 41.0575 28.0509 41.2569 28.0509C45.897 28.0509 49.7527 24.7191 50.5282 20.354C54.5877 21.002 57.7033 24.4783 57.7033 28.6682H57.7122ZM39.7545 38.3834C39.7545 38.4929 39.7678 38.598 39.7723 38.7074C37.45 39.0752 35.4335 40.2617 34.0154 41.9517C33.1334 41.6802 32.1939 41.5313 31.2189 41.5313C30.3104 41.5313 29.4329 41.6671 28.5997 41.9035C27.2613 40.3317 25.4133 39.2021 23.3082 38.7687C23.3126 38.6374 23.3303 38.5104 23.3303 38.3791C23.3303 36.5971 22.8118 34.9378 21.9299 33.5236C22.8118 32.1095 23.3303 30.4458 23.3303 28.6682C23.3303 28.3968 23.3126 28.1253 23.2904 27.8582C25.4088 27.4292 27.2657 26.2952 28.6041 24.7191C29.4373 24.9599 30.3148 25.0912 31.2233 25.0912C32.1939 25.0912 33.1334 24.9467 34.0154 24.6753C35.4468 26.3784 37.4855 27.5649 39.7944 27.9239C39.7767 28.1691 39.7545 28.4186 39.7545 28.6682C39.7545 30.3932 40.242 32.0657 41.1506 33.5324C40.2686 34.9465 39.7545 36.6059 39.7545 38.3834ZM40.7871 27.149C41.514 23.2217 44.9973 20.2358 49.1765 20.2358C49.3405 20.2358 49.4956 20.2489 49.6552 20.2577C48.9283 24.1849 45.445 27.1709 41.2658 27.1709C41.1018 27.1709 40.9467 27.1577 40.7871 27.149ZM41.2658 10.3104C45.9723 10.3104 49.8014 14.0932 49.8014 18.7428C49.8014 18.9617 49.7837 19.1763 49.7704 19.3908C49.5754 19.3777 49.376 19.3602 49.1765 19.3602C44.5364 19.3602 40.6808 22.692 39.9052 27.057C37.9331 26.7418 36.1869 25.7611 34.9062 24.3469C38.2743 22.924 40.6365 19.6228 40.6365 15.7832C40.6365 13.8699 40.047 12.088 39.041 10.6081C39.7501 10.4199 40.4946 10.3104 41.2613 10.3104H41.2658ZM34.3256 23.6333C33.324 22.2541 32.7302 20.5685 32.7302 18.7428C32.7302 15.179 34.9859 12.1274 38.1591 10.8971C39.1607 12.2762 39.7545 13.9618 39.7545 15.7875C39.7545 19.3558 37.4988 22.403 34.3256 23.6333ZM31.2189 7.35513C33.745 7.35513 36.0141 8.44968 37.5785 10.1791C34.2104 11.602 31.8482 14.9031 31.8482 18.7428C31.8482 20.6561 32.4376 22.438 33.4437 23.9179C32.7346 24.1061 31.99 24.2156 31.2233 24.2156C30.5187 24.2156 29.8406 24.1236 29.1847 23.9616C30.2129 22.4731 30.8112 20.6736 30.8112 18.7385C30.8112 14.8419 28.3693 11.4969 24.9213 10.1134C26.4858 8.41903 28.7282 7.34637 31.2233 7.34637L31.2189 7.35513ZM28.2806 23.6946C25.0188 22.5081 22.6833 19.4171 22.6833 15.7875C22.6833 13.9356 23.2949 12.2281 24.323 10.8358C27.5848 12.0223 29.9204 15.1133 29.9204 18.7428C29.9204 20.5948 29.3088 22.3023 28.2806 23.6902V23.6946ZM12.8491 18.7472C12.8491 14.0976 16.6782 10.3148 21.3848 10.3148C22.0894 10.3148 22.7675 10.4067 23.4234 10.5687C22.3952 12.0573 21.7969 13.8568 21.7969 15.7919C21.7969 19.6885 24.2388 23.0335 27.6868 24.417C26.5079 25.6954 24.9391 26.6236 23.1619 26.9957C22.3598 22.6657 18.5174 19.3689 13.9039 19.3689C13.5582 19.3689 13.2214 19.3908 12.8846 19.4258C12.8669 19.2025 12.8491 18.9793 12.8491 18.7516V18.7472ZM22.2888 27.1315C21.9919 27.1621 21.6906 27.1796 21.3848 27.1796C17.21 27.1796 13.7355 24.2024 12.9998 20.2883C13.2967 20.2577 13.5981 20.2402 13.9039 20.2402C18.0786 20.2402 21.5532 23.2173 22.2888 27.1315ZM5.36826 28.6726C5.36826 24.6271 8.27109 21.2384 12.1267 20.4284C12.9289 24.7585 16.7713 28.0553 21.3848 28.0553C21.7304 28.0553 22.0673 28.0334 22.4041 27.9983C22.4218 28.2216 22.4395 28.4449 22.4395 28.6726C22.4395 30.148 22.054 31.5315 21.3759 32.7399C19.6519 30.5202 16.9485 29.0798 13.9039 29.0798C10.8593 29.0798 8.15586 30.5202 6.43189 32.7399C5.75383 31.5315 5.36826 30.148 5.36826 28.6726ZM20.8707 33.528C19.324 35.6865 16.7801 37.105 13.9039 37.105C11.0277 37.105 8.48824 35.6908 6.93711 33.528C8.48381 31.3696 11.0277 29.9554 13.9039 29.9554C16.7801 29.9554 19.3195 31.3696 20.8707 33.528ZM5.36826 38.3834C5.36826 36.908 5.75383 35.5245 6.43189 34.3161C8.15586 36.5358 10.8593 37.9763 13.9039 37.9763C16.9485 37.9763 19.6519 36.5358 21.3759 34.3161C22.054 35.5245 22.4395 36.908 22.4395 38.3834C22.4395 38.471 22.4307 38.5542 22.4262 38.6374C22.085 38.598 21.7393 38.5761 21.3848 38.5761C16.6294 38.5761 12.694 42.0786 12.0603 46.6101C8.23563 45.7738 5.36383 42.407 5.36383 38.3791L5.36826 38.3834ZM22.3553 39.513C21.7925 43.6285 18.2249 46.8158 13.9039 46.8158C13.5759 46.8158 13.2524 46.7939 12.9378 46.7589C13.5006 42.6434 17.0682 39.4561 21.3892 39.4561C21.7171 39.4561 22.0407 39.478 22.3553 39.513ZM21.3892 56.3209C16.6826 56.3209 12.8536 52.5382 12.8536 47.8885C12.8536 47.8009 12.8624 47.7177 12.8669 47.6346C13.2081 47.674 13.5538 47.6959 13.9083 47.6959C18.6636 47.6959 22.5991 44.1933 23.2328 39.6619C24.9834 40.0428 26.5301 40.9578 27.6956 42.2231C24.2477 43.6066 21.8058 46.9472 21.8058 50.8482C21.8058 52.7833 22.4085 54.5784 23.4322 56.0714C22.7763 56.229 22.0983 56.3253 21.3936 56.3253L21.3892 56.3209ZM28.2851 42.9411C29.3132 44.3334 29.9248 46.0409 29.9248 47.8885C29.9248 51.518 27.5893 54.609 24.3275 55.7955C23.2993 54.4033 22.6877 52.6958 22.6877 50.8438C22.6877 47.2143 25.0233 44.1233 28.2851 42.9368V42.9411ZM31.2233 59.2806C28.7282 59.2806 26.4813 58.2079 24.9213 56.5135C28.3693 55.13 30.8112 51.7895 30.8112 47.8885C30.8112 45.9533 30.2085 44.1583 29.1847 42.6653C29.8406 42.5077 30.5187 42.4114 31.2233 42.4114C31.9945 42.4114 32.739 42.5208 33.4481 42.7135C32.4421 44.2021 31.8482 45.9796 31.8482 47.8885C31.8482 51.7282 34.2148 55.0293 37.5785 56.4523C36.0141 58.1817 33.7495 59.2762 31.2189 59.2762L31.2233 59.2806ZM34.3167 42.9981C37.4943 44.2239 39.759 47.2755 39.759 50.8482C39.759 52.6695 39.1651 54.3551 38.1635 55.7386C34.9904 54.5083 32.7346 51.4611 32.7346 47.8929C32.7346 46.0759 33.3196 44.3859 34.3167 42.9981ZM49.8014 47.674C49.8014 47.744 49.8014 47.8184 49.8014 47.8929C49.8014 52.5425 45.9723 56.3253 41.2658 56.3253C40.4947 56.3253 39.7545 56.2158 39.0455 56.0276C40.0515 54.5477 40.6409 52.7658 40.6409 50.8525C40.6409 47.0085 38.2699 43.7029 34.9017 42.2844C36.1559 40.8921 37.871 39.9114 39.8343 39.5831C39.8476 39.6706 39.8653 39.7538 39.8786 39.8414C39.9097 40.0253 39.9362 40.2091 39.9761 40.3886C39.9939 40.4762 40.0205 40.5594 40.0426 40.647C40.0958 40.8484 40.1445 41.0541 40.211 41.2512C40.9112 43.3877 42.3782 45.1828 44.2838 46.3299C44.2927 46.3342 44.3016 46.343 44.3104 46.3474C44.532 46.4831 44.7625 46.6057 44.9974 46.7195C45.0284 46.7327 45.055 46.7458 45.086 46.7633C45.3031 46.8684 45.5247 46.9647 45.7552 47.0523C45.8084 47.0742 45.866 47.0917 45.9236 47.1136C46.1319 47.188 46.3402 47.2624 46.5529 47.3237C46.646 47.35 46.739 47.3719 46.8277 47.3938C47.0138 47.4419 47.2 47.4901 47.3861 47.5251C47.5323 47.5514 47.6786 47.5689 47.8293 47.5908C47.9755 47.6127 48.1173 47.6389 48.2636 47.6521C48.5649 47.6827 48.8707 47.6959 49.1765 47.6959C49.3804 47.6959 49.5887 47.6871 49.797 47.674H49.8014ZM50.1205 46.7677C50.0585 46.7764 49.9964 46.7764 49.9344 46.7852C49.6862 46.8071 49.438 46.8246 49.181 46.8246C48.8973 46.8246 48.6181 46.8115 48.3434 46.7808C48.1794 46.7633 48.0243 46.737 47.8647 46.7108C47.7584 46.6933 47.6476 46.6845 47.5412 46.6626C47.3285 46.6188 47.1202 46.5663 46.9119 46.5094C46.8631 46.4962 46.8144 46.4875 46.7656 46.4743C46.5307 46.4043 46.2959 46.3255 46.0698 46.2335C46.0565 46.2292 46.0433 46.2248 46.0255 46.216C44.8068 45.73 43.721 44.977 42.8479 44.0225C42.8479 44.0225 42.8479 44.0226 42.8435 44.0182C42.6751 43.8343 42.5155 43.6417 42.3649 43.4446C42.3516 43.4315 42.3427 43.414 42.3294 43.4008C42.1876 43.217 42.0591 43.0243 41.935 42.8273C41.9128 42.7967 41.8951 42.7616 41.8729 42.731C41.7621 42.5471 41.6558 42.3588 41.5583 42.1662C41.5317 42.1137 41.5051 42.0611 41.4829 42.0086C41.3943 41.8291 41.3145 41.6496 41.2392 41.4613C41.2126 41.3912 41.186 41.3168 41.1594 41.2468C41.0974 41.0716 41.0353 40.8965 40.9821 40.717C40.9556 40.6294 40.9378 40.5419 40.9112 40.4543C40.8669 40.2836 40.827 40.1128 40.7916 39.9377C40.7738 39.8414 40.7606 39.745 40.7473 39.6487C40.7207 39.4736 40.6941 39.2985 40.6808 39.119C40.6586 38.8782 40.6453 38.6374 40.6453 38.3966C40.6453 36.6628 41.1816 35.0472 42.0945 33.7075C42.1078 33.6856 42.1211 33.6681 42.1388 33.6462C42.2762 33.4448 42.4269 33.2478 42.582 33.0595C42.5909 33.0464 42.5998 33.0376 42.6086 33.0245C42.7815 32.8187 42.9587 32.6261 43.1493 32.4378C43.5349 32.0569 43.9559 31.7111 44.4124 31.409C44.8555 31.1156 45.3253 30.8617 45.8217 30.6515C45.8483 30.6428 45.8704 30.6296 45.897 30.6209C46.1363 30.5202 46.3801 30.4326 46.6283 30.3538C46.646 30.3494 46.6681 30.3407 46.6859 30.3363C46.9119 30.2662 47.1468 30.2093 47.3817 30.1612C47.4215 30.1524 47.4614 30.1437 47.5013 30.1349C47.7451 30.0867 47.9888 30.0517 48.2414 30.0211C48.2946 30.0167 48.3478 30.0123 48.401 30.0079C48.658 29.986 48.9195 29.9685 49.181 29.9685C49.4424 29.9685 49.7039 29.986 49.961 30.0079C50.0141 30.0123 50.0673 30.0167 50.1205 30.0211C50.3687 30.0473 50.6169 30.0867 50.8606 30.1305C50.9005 30.1393 50.9404 30.148 50.9803 30.1568C51.2152 30.205 51.4456 30.2662 51.6761 30.3319C51.6982 30.3363 51.7159 30.3451 51.7381 30.3494C51.9863 30.4282 52.23 30.5158 52.4694 30.6121C52.4959 30.6209 52.5225 30.634 52.5447 30.6428C53.0411 30.8529 53.5108 31.1069 53.954 31.4002C54.6321 31.8555 55.2392 32.4028 55.7577 33.0245C55.7666 33.0333 55.771 33.042 55.7799 33.0508C55.9394 33.2434 56.0901 33.4448 56.2319 33.6506C56.2408 33.6681 56.2541 33.6812 56.2674 33.6988C57.1803 35.0429 57.7166 36.6584 57.7166 38.3922C57.7166 42.7266 54.3883 46.308 50.1205 46.7721V46.7677Z"
                fill="#838790"
              />
              <path
                d="M47.3151 41.4701V41.6496H44.4699V41.4701H44.7048C44.9796 41.4701 45.179 41.3913 45.3031 41.2337C45.3829 41.1286 45.4227 40.8834 45.4227 40.4894V36.2513C45.4227 35.9185 45.4006 35.6996 45.3607 35.5946C45.3297 35.5158 45.2632 35.4457 45.1613 35.3844C45.0195 35.3056 44.8688 35.2706 44.7092 35.2706H44.4743V35.0911H47.3195V35.2706H47.0802C46.8099 35.2706 46.6105 35.3494 46.4864 35.507C46.4066 35.6121 46.3623 35.8572 46.3623 36.2513V40.4894C46.3623 40.8221 46.3844 41.041 46.4243 41.1461C46.4554 41.2249 46.5263 41.295 46.6282 41.3563C46.77 41.4351 46.9163 41.4745 47.0758 41.4745H47.3151V41.4701Z"
                fill="#838790"
              />
              <path
                d="M50.6567 41.4701V41.6496H47.8115V41.4701H48.0464C48.3212 41.4701 48.5206 41.3913 48.6447 41.2337C48.7245 41.1286 48.7644 40.8834 48.7644 40.4894V36.2513C48.7644 35.9185 48.7422 35.6996 48.7023 35.5946C48.6713 35.5158 48.6048 35.4457 48.5029 35.3844C48.3611 35.3056 48.2104 35.2706 48.0508 35.2706H47.816V35.0911H50.6612V35.2706H50.4218C50.1515 35.2706 49.9521 35.3494 49.828 35.507C49.7482 35.6121 49.7039 35.8572 49.7039 36.2513V40.4894C49.7039 40.8221 49.7261 41.041 49.7659 41.1461C49.797 41.2249 49.8679 41.295 49.9698 41.3563C50.1116 41.4351 50.2579 41.4745 50.4174 41.4745H50.6567V41.4701Z"
                fill="#838790"
              />
              <path
                d="M53.9938 41.4701V41.6496H51.1486V41.4701H51.3835C51.6583 41.4701 51.8577 41.3913 51.9818 41.2337C52.0616 41.1286 52.1015 40.8834 52.1015 40.4894V36.2513C52.1015 35.9185 52.0793 35.6996 52.0394 35.5946C52.0084 35.5158 51.9419 35.4457 51.84 35.3844C51.6982 35.3056 51.5475 35.2706 51.3879 35.2706H51.1531V35.0911H53.9983V35.2706H53.7589C53.4886 35.2706 53.2892 35.3494 53.1651 35.507C53.0853 35.6121 53.041 35.8572 53.041 36.2513V40.4894C53.041 40.8221 53.0632 41.041 53.103 41.1461C53.1341 41.2249 53.205 41.295 53.3069 41.3563C53.4487 41.4351 53.595 41.4745 53.7545 41.4745H53.9938V41.4701Z"
                fill="#838790"
              />
              <path
                d="M69.5538 17.3986C69.8951 16.8032 70.3604 16.3347 70.9498 15.9976C71.5393 15.6605 72.1952 15.4897 72.9131 15.4897C73.7596 15.4897 74.4953 15.6911 75.129 16.0939C75.7583 16.4967 76.2192 17.0703 76.5073 17.8102H75.293C75.0758 17.3505 74.77 16.9915 74.3623 16.7419C73.959 16.4924 73.476 16.3698 72.9087 16.3698C72.3414 16.3698 71.8805 16.4924 71.4506 16.7419C71.0207 16.9915 70.6839 17.3461 70.4402 17.8014C70.1964 18.2612 70.0723 18.7953 70.0723 19.4126C70.0723 20.0299 70.1964 20.5553 70.4402 21.0107C70.6839 21.4704 71.0207 21.8206 71.4506 22.0702C71.8805 22.3197 72.368 22.4423 72.9087 22.4423C73.4494 22.4423 73.9546 22.3197 74.3623 22.0746C74.7656 21.8294 75.0758 21.4747 75.293 21.015H76.5073C76.2192 21.7462 75.7583 22.3154 75.129 22.7138C74.4997 23.1122 73.7596 23.3136 72.9131 23.3136C72.1952 23.3136 71.5393 23.1472 70.9498 22.8145C70.3604 22.4817 69.8951 22.0176 69.5538 21.4222C69.2126 20.8268 69.0397 20.1569 69.0397 19.4126C69.0397 18.6683 69.2081 17.9941 69.5538 17.3943V17.3986Z"
                fill="#838790"
              />
              <path
                d="M78.8384 22.9633C78.3731 22.705 78.0097 22.3416 77.7482 21.8688C77.4867 21.3959 77.3538 20.8486 77.3538 20.2269C77.3538 19.6052 77.4911 19.0667 77.7615 18.5939C78.0318 18.121 78.3997 17.7576 78.8694 17.5037C79.3348 17.2498 79.8577 17.1228 80.4383 17.1228C81.0189 17.1228 81.5418 17.2498 82.0071 17.5037C82.4725 17.7576 82.8447 18.1167 83.1151 18.5851C83.3854 19.0536 83.5228 19.6009 83.5228 20.2226C83.5228 20.8443 83.3854 21.3915 83.1062 21.8644C82.827 22.3372 82.4503 22.7006 81.9761 22.9589C81.5019 23.2173 80.9745 23.3442 80.394 23.3442C79.8134 23.3442 79.3037 23.2173 78.8428 22.9589L78.8384 22.9633ZM81.4133 22.2146C81.7324 22.0483 81.9894 21.7943 82.1844 21.4572C82.3794 21.1201 82.4813 20.7085 82.4813 20.2269C82.4813 19.7453 82.3838 19.3338 82.1933 18.9967C81.9983 18.6596 81.7501 18.41 81.4354 18.2436C81.1252 18.0772 80.7884 17.9984 80.425 17.9984C80.0616 17.9984 79.7159 18.0816 79.4057 18.2436C79.0999 18.41 78.8517 18.6596 78.6656 18.9967C78.4794 19.3338 78.3864 19.7453 78.3864 20.2269C78.3864 20.7085 78.475 21.1332 78.6611 21.4704C78.8428 21.8075 79.0866 22.057 79.388 22.2234C79.6937 22.3898 80.0261 22.4686 80.3895 22.4686C80.7529 22.4686 81.0942 22.3854 81.4133 22.2146Z"
                fill="#838790"
              />
              <path
                d="M85.5881 15.1174V23.2521H84.5777V15.1174H85.5881Z"
                fill="#838790"
              />
              <path
                d="M92.5638 20.6122H87.6888C87.7242 21.2077 87.9325 21.6674 88.3048 22.0045C88.6771 22.3373 89.1335 22.5036 89.6698 22.5036C90.1085 22.5036 90.4719 22.4029 90.7644 22.2015C91.0569 22.0001 91.2652 21.7287 91.3805 21.3916H92.4707C92.3067 21.9695 91.9832 22.4423 91.4913 22.8057C91.0038 23.1691 90.3922 23.3486 89.6654 23.3486C89.0848 23.3486 88.5707 23.2217 88.1142 22.9633C87.6578 22.705 87.2988 22.3416 87.0417 21.8688C86.7803 21.3959 86.6517 20.8487 86.6517 20.227C86.6517 19.6053 86.7758 19.058 87.0284 18.5895C87.2811 18.121 87.6356 17.7577 88.0921 17.5081C88.5485 17.2542 89.0715 17.1272 89.6654 17.1272C90.2592 17.1272 90.7556 17.2498 91.1988 17.4993C91.6419 17.7489 91.9876 18.0904 92.2269 18.5282C92.4662 18.966 92.5903 19.4564 92.5903 20.0081C92.5903 20.2007 92.5815 20.4021 92.5549 20.6122H92.5638ZM91.2963 18.8172C91.1234 18.5414 90.893 18.3356 90.6005 18.1911C90.308 18.0466 89.9844 17.9766 89.6255 17.9766C89.1158 17.9766 88.6771 18.1386 88.3181 18.4582C87.9591 18.7822 87.7508 19.2287 87.7021 19.7979H91.5533C91.5533 19.417 91.4691 19.0886 91.2963 18.8128V18.8172Z"
                fill="#838790"
              />
              <path
                d="M97.554 17.469C97.9529 17.6966 98.2454 17.9812 98.4404 18.3271V17.2282H99.4641V23.3839C99.4641 23.9356 99.3445 24.4215 99.1096 24.8506C98.8703 25.2797 98.5335 25.6124 98.0903 25.8576C97.6471 26.0984 97.133 26.221 96.548 26.221C95.7459 26.221 95.0811 26.0327 94.5449 25.6606C94.013 25.2884 93.694 24.7762 93.6009 24.1326H94.6025C94.7133 24.5003 94.9437 24.7937 95.2938 25.017C95.6439 25.2403 96.0605 25.3541 96.5525 25.3541C97.1064 25.3541 97.5629 25.1833 97.9175 24.8375C98.272 24.4916 98.4448 24.01 98.4448 23.3883V22.123C98.2454 22.4732 97.9485 22.7666 97.554 23.003C97.1596 23.2394 96.7031 23.3533 96.1758 23.3533C95.6484 23.3533 95.1432 23.2219 94.7 22.9592C94.2568 22.6965 93.9111 22.3244 93.6585 21.8472C93.4059 21.3699 93.2818 20.827 93.2818 20.2185C93.2818 19.6099 93.4059 19.0626 93.6585 18.5985C93.9111 18.1344 94.2568 17.7711 94.7 17.5171C95.1432 17.2588 95.6306 17.1318 96.1758 17.1318C96.7209 17.1318 97.164 17.2457 97.5629 17.4733L97.554 17.469ZM98.1612 19.0407C97.9751 18.7036 97.7269 18.4453 97.4122 18.2658C97.0976 18.0863 96.7519 17.9987 96.3708 17.9987C95.9896 17.9987 95.6484 18.0863 95.3337 18.2614C95.0235 18.4365 94.7753 18.6949 94.5892 19.032C94.403 19.3691 94.31 19.7631 94.31 20.2185C94.31 20.6738 94.403 21.081 94.5892 21.4225C94.7753 21.764 95.0235 22.0223 95.3337 22.2018C95.6439 22.3813 95.9896 22.4689 96.3708 22.4689C96.7519 22.4689 97.0976 22.3813 97.4122 22.2018C97.7269 22.0223 97.9795 21.764 98.1612 21.4225C98.3473 21.081 98.4404 20.6826 98.4404 20.2316C98.4404 19.7806 98.3473 19.3822 98.1612 19.0451V19.0407Z"
                fill="#838790"
              />
              <path
                d="M100.931 16.0499C100.798 15.9185 100.732 15.7565 100.732 15.5683C100.732 15.38 100.798 15.218 100.931 15.0867C101.064 14.9553 101.228 14.8896 101.418 14.8896C101.609 14.8896 101.76 14.9553 101.893 15.0867C102.021 15.218 102.088 15.38 102.088 15.5683C102.088 15.7565 102.021 15.9185 101.893 16.0499C101.764 16.1812 101.605 16.2469 101.418 16.2469C101.232 16.2469 101.064 16.1812 100.931 16.0499ZM101.91 17.2276V23.252H100.9V17.2276H101.91Z"
                fill="#838790"
              />
              <path
                d="M104.463 22.9633C103.998 22.705 103.634 22.3416 103.373 21.8688C103.111 21.3959 102.979 20.8486 102.979 20.2269C102.979 19.6052 103.116 19.0667 103.386 18.5939C103.657 18.121 104.024 17.7576 104.494 17.5037C104.96 17.2498 105.482 17.1228 106.063 17.1228C106.644 17.1228 107.167 17.2498 107.632 17.5037C108.097 17.7576 108.47 18.1167 108.74 18.5851C109.01 19.0536 109.148 19.6009 109.148 20.2226C109.148 20.8443 109.01 21.3915 108.731 21.8644C108.452 22.3372 108.075 22.7006 107.601 22.9589C107.127 23.2173 106.599 23.3442 106.019 23.3442C105.438 23.3442 104.929 23.2173 104.468 22.9589L104.463 22.9633ZM107.038 22.2146C107.357 22.0483 107.614 21.7943 107.809 21.4572C108.004 21.1201 108.106 20.7085 108.106 20.2269C108.106 19.7453 108.009 19.3338 107.818 18.9967C107.623 18.6596 107.375 18.41 107.06 18.2436C106.746 18.0772 106.413 17.9984 106.05 17.9984C105.686 17.9984 105.341 18.0816 105.03 18.2436C104.72 18.4056 104.476 18.6596 104.29 18.9967C104.104 19.3338 104.011 19.7453 104.011 20.2269C104.011 20.7085 104.1 21.1332 104.286 21.4704C104.468 21.8075 104.711 22.057 105.013 22.2234C105.319 22.3898 105.651 22.4686 106.014 22.4686C106.378 22.4686 106.719 22.3854 107.038 22.2146Z"
                fill="#838790"
              />
              <path
                d="M112.892 18.5984C113.145 18.1343 113.491 17.7709 113.934 17.5169C114.373 17.2586 114.869 17.1317 115.419 17.1317C115.893 17.1317 116.336 17.2411 116.744 17.4557C117.151 17.6702 117.462 17.9548 117.679 18.3094V15.1221H118.702V23.2568H117.679V22.1228C117.479 22.4818 117.182 22.7752 116.788 23.0072C116.393 23.2393 115.937 23.3531 115.41 23.3531C114.882 23.3531 114.377 23.2217 113.934 22.9591C113.491 22.6964 113.145 22.3242 112.892 21.847C112.64 21.3698 112.516 20.8269 112.516 20.2183C112.516 19.6097 112.64 19.0625 112.892 18.5984ZM117.4 19.0449C117.213 18.7078 116.965 18.4495 116.651 18.27C116.336 18.0905 115.99 18.0029 115.609 18.0029C115.228 18.0029 114.887 18.0905 114.576 18.2656C114.266 18.4407 114.018 18.6991 113.832 19.0362C113.646 19.3733 113.553 19.7673 113.553 20.2227C113.553 20.678 113.646 21.0852 113.832 21.4267C114.018 21.7682 114.266 22.0265 114.576 22.206C114.887 22.3855 115.232 22.4731 115.609 22.4731C115.986 22.4731 116.336 22.3855 116.651 22.206C116.965 22.0265 117.218 21.7682 117.4 21.4267C117.586 21.0852 117.679 20.6868 117.679 20.2358C117.679 19.7849 117.586 19.3864 117.4 19.0493V19.0449Z"
                fill="#838790"
              />
              <path
                d="M125.665 20.6122H120.79C120.825 21.2077 121.034 21.6674 121.406 22.0045C121.783 22.3373 122.235 22.5036 122.771 22.5036C123.21 22.5036 123.573 22.4029 123.866 22.2015C124.158 22.0001 124.362 21.7287 124.482 21.3916H125.572C125.408 21.9695 125.084 22.4423 124.592 22.8057C124.105 23.1691 123.493 23.3486 122.767 23.3486C122.186 23.3486 121.672 23.2217 121.215 22.9633C120.759 22.705 120.4 22.3416 120.143 21.8688C119.886 21.3959 119.753 20.8487 119.753 20.227C119.753 19.6053 119.877 19.058 120.13 18.5895C120.382 18.121 120.737 17.7577 121.193 17.5081C121.65 17.2542 122.173 17.1272 122.767 17.1272C123.36 17.1272 123.857 17.2498 124.3 17.4993C124.743 17.7489 125.089 18.0904 125.328 18.5282C125.567 18.966 125.692 19.4564 125.692 20.0081C125.692 20.2007 125.683 20.4021 125.656 20.6122H125.665ZM124.397 18.8172C124.225 18.5414 123.994 18.3356 123.702 18.1911C123.409 18.0466 123.086 17.9766 122.727 17.9766C122.217 17.9766 121.778 18.1386 121.419 18.4582C121.06 18.7822 120.852 19.2287 120.803 19.7979H124.654C124.654 19.417 124.57 19.0886 124.397 18.8128V18.8172Z"
                fill="#838790"
              />
              <path
                d="M137.312 15.6436V23.2485H136.301V17.5787L133.744 23.2485H133.03L130.46 17.5656V23.2485H129.45V15.6436H130.54L133.389 21.9306L136.239 15.6436H137.32H137.312Z"
                fill="#838790"
              />
              <path
                d="M144.278 20.6123H139.403C139.439 21.2077 139.647 21.6674 140.019 22.0046C140.396 22.3373 140.848 22.5037 141.384 22.5037C141.823 22.5037 142.187 22.403 142.479 22.2016C142.772 22.0002 142.975 21.7287 143.095 21.3916H144.185C144.021 21.9695 143.698 22.4424 143.206 22.8058C142.718 23.1692 142.107 23.3487 141.38 23.3487C140.799 23.3487 140.285 23.2217 139.829 22.9634C139.372 22.7051 139.013 22.3417 138.756 21.8688C138.499 21.396 138.366 20.8487 138.366 20.227C138.366 19.6053 138.49 19.058 138.743 18.5896C138.996 18.1211 139.35 17.7577 139.807 17.5081C140.263 17.2542 140.786 17.1272 141.38 17.1272C141.974 17.1272 142.47 17.2498 142.913 17.4994C143.357 17.749 143.702 18.0904 143.942 18.5283C144.181 18.9661 144.305 19.4564 144.305 20.0081C144.305 20.2007 144.296 20.4021 144.27 20.6123H144.278ZM143.011 18.8172C142.838 18.5414 142.608 18.3356 142.315 18.1912C142.023 18.0467 141.699 17.9766 141.34 17.9766C140.83 17.9766 140.392 18.1386 140.033 18.4582C139.674 18.7822 139.465 19.2288 139.417 19.7979H143.268C143.268 19.417 143.184 19.0887 143.011 18.8129V18.8172ZM142.43 15.5248L140.059 16.777V16.0283L142.43 14.6536V15.5204V15.5248Z"
                fill="#838790"
              />
              <path
                d="M145.369 18.5984C145.621 18.1343 145.967 17.7709 146.41 17.5169C146.853 17.2586 147.345 17.1317 147.895 17.1317C148.369 17.1317 148.812 17.2411 149.22 17.4557C149.628 17.6702 149.938 17.9548 150.155 18.3094V15.1221H151.179V23.2568H150.155V22.1228C149.955 22.4818 149.659 22.7752 149.264 23.0072C148.87 23.2393 148.413 23.3531 147.886 23.3531C147.358 23.3531 146.853 23.2217 146.41 22.9591C145.967 22.6964 145.621 22.3242 145.369 21.847C145.116 21.3698 144.992 20.8269 144.992 20.2183C144.992 19.6097 145.116 19.0625 145.369 18.5984ZM149.876 19.0449C149.69 18.7078 149.441 18.4495 149.127 18.27C148.812 18.0905 148.466 18.0029 148.085 18.0029C147.704 18.0029 147.363 18.0905 147.048 18.2656C146.738 18.4407 146.49 18.6991 146.304 19.0362C146.118 19.3733 146.024 19.7673 146.024 20.2227C146.024 20.678 146.118 21.0852 146.304 21.4267C146.49 21.7682 146.738 22.0265 147.048 22.206C147.358 22.3855 147.704 22.4731 148.085 22.4731C148.466 22.4731 148.812 22.3855 149.127 22.206C149.441 22.0265 149.694 21.7682 149.876 21.4267C150.062 21.0852 150.155 20.6868 150.155 20.2358C150.155 19.7849 150.062 19.3864 149.876 19.0493V19.0449Z"
                fill="#838790"
              />
              <path
                d="M152.646 16.0499C152.513 15.9185 152.446 15.7565 152.446 15.5683C152.446 15.38 152.513 15.218 152.646 15.0867C152.778 14.9553 152.942 14.8896 153.137 14.8896C153.332 14.8896 153.479 14.9553 153.612 15.0867C153.745 15.218 153.807 15.38 153.807 15.5683C153.807 15.7565 153.74 15.9185 153.612 16.0499C153.483 16.1812 153.324 16.2469 153.137 16.2469C152.951 16.2469 152.783 16.1812 152.646 16.0499ZM153.625 17.2276V23.252H152.615V17.2276H153.625Z"
                fill="#838790"
              />
              <path
                d="M155.07 18.5985C155.322 18.1344 155.672 17.7711 156.12 17.5171C156.568 17.2588 157.082 17.1318 157.662 17.1318C158.411 17.1318 159.027 17.3113 159.515 17.6704C160.002 18.0294 160.321 18.5285 160.477 19.1633H159.386C159.284 18.7956 159.081 18.5066 158.779 18.2964C158.478 18.0819 158.106 17.9768 157.662 17.9768C157.086 17.9768 156.616 18.1738 156.262 18.5635C155.907 18.9575 155.73 19.5092 155.73 20.2272C155.73 20.9453 155.907 21.5144 156.262 21.9085C156.616 22.3025 157.086 22.5039 157.662 22.5039C158.106 22.5039 158.478 22.4032 158.775 22.1974C159.072 21.9916 159.276 21.6983 159.386 21.3174H160.477C160.313 21.9347 159.989 22.4251 159.497 22.7972C159.01 23.1694 158.394 23.3533 157.662 23.3533C157.086 23.3533 156.572 23.2263 156.12 22.968C155.672 22.7097 155.322 22.3507 155.07 21.8778C154.817 21.4093 154.693 20.8577 154.693 20.2272C154.693 19.5968 154.817 19.0582 155.07 18.5942V18.5985Z"
                fill="#838790"
              />
              <path
                d="M162.653 22.9633C162.187 22.705 161.824 22.3416 161.562 21.8688C161.301 21.3959 161.168 20.8486 161.168 20.2269C161.168 19.6052 161.305 19.0667 161.576 18.5939C161.846 18.121 162.214 17.7576 162.684 17.5037C163.149 17.2498 163.672 17.1228 164.252 17.1228C164.833 17.1228 165.356 17.2498 165.821 17.5037C166.287 17.7576 166.659 18.1167 166.929 18.5851C167.2 19.0536 167.337 19.6009 167.337 20.2226C167.337 20.8443 167.2 21.3915 166.92 21.8644C166.641 22.3372 166.265 22.7006 165.79 22.9589C165.316 23.2173 164.789 23.3442 164.208 23.3442C163.628 23.3442 163.118 23.2173 162.657 22.9589L162.653 22.9633ZM165.227 22.2146C165.547 22.0483 165.804 21.7943 165.999 21.4572C166.194 21.1201 166.296 20.7085 166.296 20.2269C166.296 19.7453 166.198 19.3338 166.007 18.9967C165.812 18.6596 165.564 18.41 165.25 18.2436C164.935 18.0772 164.603 17.9984 164.239 17.9984C163.876 17.9984 163.53 18.0816 163.22 18.2436C162.91 18.4056 162.666 18.6596 162.48 18.9967C162.294 19.3338 162.201 19.7453 162.201 20.2269C162.201 20.7085 162.289 21.1332 162.475 21.4704C162.657 21.8075 162.901 22.057 163.202 22.2234C163.508 22.3898 163.84 22.4686 164.204 22.4686C164.567 22.4686 164.908 22.3854 165.227 22.2146Z"
                fill="#838790"
              />
              <path
                d="M169.287 23.1122C168.915 22.9546 168.622 22.7357 168.41 22.4511C168.192 22.1709 168.077 21.8469 168.055 21.4791H169.101C169.132 21.7812 169.274 22.0264 169.531 22.2146C169.788 22.4073 170.12 22.4992 170.537 22.4992C170.922 22.4992 171.228 22.416 171.45 22.2453C171.671 22.0789 171.782 21.8644 171.782 21.6061C171.782 21.3478 171.662 21.1464 171.428 21.0194C171.188 20.8924 170.825 20.7655 170.324 20.6385C169.872 20.5203 169.504 20.4021 169.216 20.2795C168.932 20.1569 168.684 19.9774 168.48 19.741C168.277 19.5045 168.175 19.1893 168.175 18.7997C168.175 18.4932 168.268 18.2086 168.454 17.9547C168.64 17.6963 168.901 17.4949 169.243 17.3461C169.584 17.1972 169.974 17.1228 170.413 17.1228C171.086 17.1228 171.631 17.2935 172.048 17.6307C172.465 17.9678 172.686 18.4275 172.717 19.0142H171.707C171.685 18.699 171.556 18.445 171.321 18.2568C171.086 18.0641 170.776 17.9722 170.382 17.9722C170.018 17.9722 169.73 18.051 169.513 18.2042C169.296 18.3575 169.19 18.5588 169.19 18.8084C169.19 19.0054 169.256 19.1674 169.385 19.2988C169.513 19.4257 169.677 19.5308 169.872 19.6052C170.067 19.684 170.342 19.7672 170.692 19.8636C171.131 19.9818 171.485 20.0956 171.76 20.2094C172.035 20.3233 172.27 20.494 172.465 20.7217C172.66 20.9493 172.762 21.2471 172.77 21.6105C172.77 21.9388 172.677 22.2365 172.491 22.4992C172.305 22.7619 172.044 22.9721 171.707 23.1209C171.37 23.2698 170.98 23.3442 170.546 23.3442C170.08 23.3442 169.659 23.2654 169.287 23.1078V23.1122Z"
                fill="#838790"
              />
              <path
                d="M69.421 31.6889C69.6736 31.2248 70.0192 30.8615 70.4624 30.6075C70.9056 30.3492 71.3975 30.2222 71.9471 30.2222C72.4213 30.2222 72.8645 30.3317 73.2722 30.5462C73.6799 30.7608 73.9901 31.0453 74.2073 31.4V28.2126H75.231V36.3473H74.2073V35.2134C74.0079 35.5724 73.7109 35.8657 73.3165 36.0978C72.9221 36.3298 72.4656 36.4437 71.9382 36.4437C71.4108 36.4437 70.9056 36.3123 70.4624 36.0496C70.0192 35.7869 69.6736 35.4148 69.421 34.9376C69.1683 34.4603 69.0443 33.9174 69.0443 33.3089C69.0443 32.7003 69.1683 32.153 69.421 31.6889ZM73.9281 32.1355C73.742 31.7984 73.4938 31.5401 73.1791 31.3606C72.8645 31.1811 72.5188 31.0935 72.1376 31.0935C71.7565 31.0935 71.4153 31.1811 71.105 31.3562C70.7948 31.5313 70.5466 31.7896 70.3605 32.1268C70.1744 32.4639 70.0813 32.8579 70.0813 33.3132C70.0813 33.7686 70.1744 34.1758 70.3605 34.5173C70.5466 34.8588 70.7948 35.1171 71.105 35.2966C71.4153 35.4761 71.7609 35.568 72.1376 35.568C72.5143 35.568 72.8645 35.4805 73.1791 35.2966C73.4938 35.1171 73.7464 34.8588 73.9281 34.5173C74.1142 34.1758 74.2073 33.7773 74.2073 33.3264C74.2073 32.8754 74.1142 32.477 73.9281 32.1399V32.1355Z"
                fill="#838790"
              />
              <path
                d="M82.1934 33.7072H77.3184C77.3539 34.3026 77.5622 34.7624 77.9344 35.0995C78.3067 35.4322 78.7632 35.5986 79.2994 35.5986C79.7382 35.5986 80.1016 35.4979 80.3941 35.2965C80.6866 35.0951 80.8949 34.828 81.0101 34.4865H82.1003C81.9363 35.0645 81.6128 35.5373 81.1209 35.9007C80.629 36.2641 80.0218 36.4436 79.295 36.4436C78.7144 36.4436 78.2003 36.3166 77.7439 36.0583C77.2874 35.8 76.9284 35.4366 76.6714 34.9638C76.4099 34.4909 76.2814 33.9436 76.2814 33.3219C76.2814 32.7002 76.4055 32.153 76.6581 31.6845C76.9107 31.216 77.2652 30.8526 77.7217 30.6031C78.1782 30.3491 78.7011 30.2222 79.295 30.2222C79.8889 30.2222 80.3852 30.3448 80.8284 30.5943C81.2716 30.8439 81.6173 31.1854 81.8566 31.6232C82.0959 32.061 82.22 32.5514 82.22 33.103C82.22 33.2957 82.2111 33.4971 82.1845 33.7072H82.1934ZM80.9259 31.9122C80.753 31.6363 80.5226 31.4305 80.2301 31.2861C79.9376 31.1416 79.6141 31.0715 79.2551 31.0715C78.7455 31.0715 78.3067 31.2335 77.9477 31.5531C77.5887 31.8771 77.3805 32.3237 77.3317 32.8929H81.1829C81.1829 32.512 81.0987 32.1836 80.9259 31.9078V31.9122Z"
                fill="#838790"
              />
              <path
                d="M86.9885 28.2126V36.3473H85.978V28.2126H86.9885Z"
                fill="#838790"
              />
              <path
                d="M88.4378 31.6889C88.6904 31.2248 89.0361 30.8614 89.4793 30.6075C89.9225 30.3491 90.41 30.2222 90.9551 30.2222C91.5002 30.2222 91.9522 30.336 92.3467 30.5637C92.7411 30.7913 93.0336 31.0759 93.2242 31.4218V30.3229H94.2479V36.3473H93.2242V35.2264C93.0247 35.5767 92.7234 35.87 92.3289 36.1021C91.9301 36.3341 91.4692 36.448 90.9418 36.448C90.4144 36.448 89.9092 36.3166 89.4749 36.0539C89.0361 35.7912 88.6904 35.4191 88.4423 34.9419C88.1896 34.4646 88.0656 33.9217 88.0656 33.3132C88.0656 32.7046 88.1896 32.1573 88.4423 31.6932L88.4378 31.6889ZM92.945 32.1354C92.7588 31.7983 92.5106 31.54 92.196 31.3605C91.8813 31.181 91.5356 31.0934 91.1545 31.0934C90.7734 31.0934 90.4321 31.181 90.1219 31.3561C89.8117 31.5312 89.5635 31.7896 89.3774 32.1267C89.1912 32.4638 89.0982 32.8578 89.0982 33.3132C89.0982 33.7685 89.1912 34.1757 89.3774 34.5172C89.5635 34.8587 89.8117 35.117 90.1219 35.2965C90.4321 35.476 90.7778 35.5679 91.1545 35.5679C91.5312 35.5679 91.8813 35.4804 92.196 35.2965C92.5106 35.117 92.7633 34.8587 92.945 34.5172C93.1311 34.1757 93.2242 33.7773 93.2242 33.3263C93.2242 32.8754 93.1311 32.4769 92.945 32.1398V32.1354Z"
                fill="#838790"
              />
              <path
                d="M102.894 32.5165C102.451 32.9368 101.778 33.1469 100.873 33.1469H99.3843V36.3474H98.3739V28.6855H100.878C101.751 28.6855 102.42 28.8957 102.877 29.3116C103.333 29.7276 103.559 30.2661 103.559 30.9272C103.559 31.5883 103.338 32.0962 102.899 32.5165H102.894ZM102.123 31.9604C102.389 31.7196 102.522 31.3738 102.522 30.9272C102.522 29.9815 101.973 29.5087 100.873 29.5087H99.3843V32.3238H100.873C101.436 32.3238 101.853 32.2012 102.119 31.9604H102.123Z"
                fill="#838790"
              />
              <path
                d="M106.311 30.4982C106.644 30.3056 107.042 30.2136 107.517 30.2136V31.2469H107.251C106.116 31.2469 105.549 31.8554 105.549 33.0726V36.3475H104.539V30.3231H105.549V31.2994C105.726 30.9535 105.983 30.6865 106.311 30.4982Z"
                fill="#838790"
              />
              <path
                d="M109.515 36.0585C109.05 35.8002 108.687 35.4368 108.425 34.964C108.164 34.4911 108.031 33.9439 108.031 33.3222C108.031 32.7005 108.168 32.1619 108.438 31.6891C108.709 31.2162 109.077 30.8529 109.546 30.5989C110.012 30.345 110.535 30.218 111.115 30.218C111.696 30.218 112.219 30.345 112.684 30.5989C113.149 30.8529 113.522 31.2119 113.792 31.6803C114.062 32.1488 114.2 32.6961 114.2 33.3178C114.2 33.9395 114.062 34.4868 113.783 34.9596C113.504 35.4325 113.127 35.7959 112.653 36.0542C112.179 36.3125 111.651 36.4394 111.071 36.4394C110.49 36.4394 109.981 36.3125 109.52 36.0542L109.515 36.0585ZM112.09 35.3099C112.409 35.1435 112.666 34.8896 112.861 34.5524C113.056 34.2153 113.158 33.8038 113.158 33.3222C113.158 32.8406 113.061 32.429 112.87 32.0919C112.675 31.7548 112.427 31.5052 112.112 31.3388C111.798 31.1725 111.461 31.0937 111.102 31.0937C110.743 31.0937 110.393 31.1768 110.083 31.3388C109.772 31.5052 109.529 31.7548 109.342 32.0919C109.156 32.429 109.063 32.8406 109.063 33.3222C109.063 33.8038 109.156 34.2285 109.338 34.5656C109.52 34.9027 109.763 35.1523 110.065 35.3186C110.371 35.485 110.703 35.5682 111.066 35.5682C111.43 35.5682 111.771 35.485 112.09 35.3142V35.3099Z"
                fill="#838790"
              />
              <path
                d="M117.519 35.4238L119.412 30.3232H120.493L118.1 36.3476H116.921L114.528 30.3232H115.618L117.519 35.4238Z"
                fill="#838790"
              />
              <path
                d="M121.246 29.1456C121.113 29.0142 121.047 28.8522 121.047 28.664C121.047 28.4757 121.113 28.3137 121.246 28.1824C121.379 28.051 121.543 27.9854 121.738 27.9854C121.933 27.9854 122.079 28.051 122.212 28.1824C122.345 28.3137 122.407 28.4757 122.407 28.664C122.407 28.8522 122.341 29.0142 122.212 29.1456C122.084 29.2769 121.924 29.3426 121.738 29.3426C121.552 29.3426 121.384 29.2769 121.246 29.1456ZM122.226 30.3233V36.3477H121.215V30.3233H122.226Z"
                fill="#838790"
              />
              <path
                d="M128.444 30.8747C128.905 31.3169 129.135 31.9561 129.135 32.7924V36.3431H128.133V32.9369C128.133 32.3371 127.983 31.8773 127.677 31.5577C127.371 31.2381 126.959 31.0805 126.432 31.0805C125.904 31.0805 125.474 31.2469 125.16 31.5752C124.845 31.9036 124.685 32.3852 124.685 33.0157V36.3475H123.675V30.3231H124.685V31.1812C124.885 30.8747 125.16 30.6339 125.505 30.4676C125.851 30.3012 126.232 30.2136 126.644 30.2136C127.384 30.2136 127.987 30.4369 128.448 30.8791L128.444 30.8747Z"
                fill="#838790"
              />
              <path
                d="M130.513 31.6889C130.766 31.2248 131.116 30.8614 131.564 30.6075C132.011 30.3491 132.525 30.2222 133.106 30.2222C133.855 30.2222 134.471 30.4017 134.958 30.7607C135.446 31.1197 135.765 31.6188 135.92 32.2537H134.83C134.728 31.8859 134.524 31.5969 134.223 31.3868C133.921 31.1722 133.549 31.0672 133.106 31.0672C132.525 31.0672 132.06 31.2642 131.705 31.6538C131.351 32.0479 131.174 32.5995 131.174 33.3176C131.174 34.0356 131.351 34.6047 131.705 34.9988C132.06 35.3928 132.53 35.5942 133.106 35.5942C133.549 35.5942 133.921 35.4935 134.218 35.2877C134.515 35.082 134.719 34.7886 134.83 34.4077H135.92C135.756 35.0251 135.428 35.5154 134.941 35.8876C134.449 36.2597 133.837 36.4436 133.106 36.4436C132.525 36.4436 132.016 36.3166 131.564 36.0583C131.116 35.8 130.766 35.441 130.513 34.9681C130.261 34.4997 130.137 33.948 130.137 33.3176C130.137 32.6871 130.261 32.1486 130.513 31.6845V31.6889Z"
                fill="#838790"
              />
              <path
                d="M137.023 29.1456C136.891 29.0142 136.824 28.8522 136.824 28.664C136.824 28.4757 136.891 28.3137 137.023 28.1824C137.156 28.051 137.32 27.9854 137.511 27.9854C137.702 27.9854 137.852 28.051 137.985 28.1824C138.114 28.3137 138.18 28.4757 138.18 28.664C138.18 28.8522 138.114 29.0142 137.985 29.1456C137.857 29.2769 137.697 29.3426 137.511 29.3426C137.325 29.3426 137.156 29.2769 137.023 29.1456ZM138.003 30.3233V36.3477H136.992V30.3233H138.003Z"
                fill="#838790"
              />
              <path
                d="M139.448 31.6889C139.7 31.2248 140.046 30.8614 140.489 30.6075C140.932 30.3491 141.42 30.2222 141.965 30.2222C142.51 30.2222 142.962 30.336 143.356 30.5637C143.751 30.7913 144.043 31.0759 144.234 31.4218V30.3229H145.258V36.3473H144.234V35.2264C144.035 35.5767 143.733 35.87 143.339 36.1021C142.94 36.3341 142.479 36.448 141.952 36.448C141.424 36.448 140.919 36.3166 140.485 36.0539C140.046 35.7912 139.7 35.4191 139.452 34.9419C139.199 34.4646 139.075 33.9217 139.075 33.3132C139.075 32.7046 139.199 32.1573 139.452 31.6932L139.448 31.6889ZM143.955 32.1354C143.769 31.7983 143.52 31.54 143.206 31.3605C142.891 31.181 142.545 31.0934 142.164 31.0934C141.783 31.0934 141.442 31.181 141.127 31.3561C140.817 31.5312 140.569 31.7896 140.383 32.1267C140.197 32.4638 140.104 32.8578 140.104 33.3132C140.104 33.7685 140.197 34.1757 140.383 34.5172C140.569 34.8587 140.817 35.117 141.127 35.2965C141.438 35.476 141.783 35.5679 142.164 35.5679C142.545 35.5679 142.891 35.4804 143.206 35.2965C143.52 35.117 143.773 34.8587 143.955 34.5172C144.136 34.1757 144.234 33.7773 144.234 33.3263C144.234 32.8754 144.141 32.4769 143.955 32.1398V32.1354Z"
                fill="#838790"
              />
              <path
                d="M149.384 31.6889C149.636 31.2248 149.982 30.8615 150.425 30.6075C150.868 30.3492 151.36 30.2222 151.91 30.2222C152.384 30.2222 152.827 30.3317 153.235 30.5462C153.643 30.7608 153.953 31.0453 154.17 31.4V28.2126H155.194V36.3473H154.17V35.2134C153.971 35.5724 153.674 35.8657 153.279 36.0978C152.885 36.3298 152.428 36.4437 151.901 36.4437C151.374 36.4437 150.868 36.3123 150.425 36.0496C149.982 35.7869 149.636 35.4148 149.384 34.9376C149.131 34.4603 149.007 33.9174 149.007 33.3089C149.007 32.7003 149.131 32.153 149.384 31.6889ZM153.891 32.1355C153.705 31.7984 153.457 31.5401 153.142 31.3606C152.827 31.1811 152.482 31.0935 152.101 31.0935C151.719 31.0935 151.378 31.1811 151.063 31.3562C150.753 31.5313 150.505 31.7896 150.319 32.1268C150.133 32.4639 150.04 32.8579 150.04 33.3132C150.04 33.7686 150.133 34.1758 150.319 34.5173C150.505 34.8588 150.753 35.1171 151.063 35.2966C151.374 35.4761 151.719 35.568 152.101 35.568C152.482 35.568 152.827 35.4805 153.142 35.2966C153.457 35.1171 153.709 34.8588 153.891 34.5173C154.073 34.1758 154.17 33.7773 154.17 33.3264C154.17 32.8754 154.077 32.477 153.891 32.1399V32.1355Z"
                fill="#838790"
              />
              <path
                d="M162.156 33.7072H157.281C157.317 34.3026 157.525 34.7624 157.897 35.0995C158.274 35.4322 158.726 35.5986 159.262 35.5986C159.701 35.5986 160.064 35.4979 160.357 35.2965C160.649 35.0951 160.858 34.828 160.973 34.4865H162.063C161.899 35.0645 161.571 35.5373 161.084 35.9007C160.592 36.2641 159.985 36.4436 159.258 36.4436C158.677 36.4436 158.163 36.3166 157.707 36.0583C157.25 35.8 156.891 35.4366 156.634 34.9638C156.373 34.4909 156.244 33.9436 156.244 33.3219C156.244 32.7002 156.368 32.153 156.621 31.6845C156.873 31.216 157.228 30.8526 157.684 30.6031C158.141 30.3491 158.664 30.2222 159.258 30.2222C159.852 30.2222 160.348 30.3448 160.791 30.5943C161.234 30.8439 161.58 31.1854 161.819 31.6232C162.059 32.061 162.183 32.5514 162.183 33.103C162.183 33.2957 162.169 33.4971 162.147 33.7072H162.156ZM160.889 31.9122C160.716 31.6363 160.485 31.4305 160.193 31.2861C159.9 31.1416 159.577 31.0715 159.218 31.0715C158.704 31.0715 158.269 31.2335 157.91 31.5531C157.552 31.8771 157.343 32.3237 157.294 32.8929H161.146C161.146 32.512 161.062 32.1836 160.889 31.9078V31.9122Z"
                fill="#838790"
              />
              <path
                d="M74.0788 46.2554C74.3137 46.4393 74.4998 46.6669 74.6372 46.9384C74.7746 47.2098 74.841 47.4988 74.841 47.8053C74.841 48.1949 74.7391 48.5452 74.5397 48.856C74.3403 49.1669 74.0478 49.4121 73.6666 49.5916C73.2855 49.7711 72.8334 49.863 72.3149 49.863H69.421V42.2012H72.2041C72.7315 42.2012 73.1791 42.2887 73.5514 42.4595C73.9237 42.6302 74.1984 42.8623 74.3846 43.1556C74.5707 43.449 74.6638 43.7773 74.6638 44.1451C74.6638 44.6004 74.5397 44.977 74.2915 45.2703C74.0433 45.568 73.7154 45.7825 73.3076 45.9139C73.5913 45.9577 73.8483 46.0715 74.0788 46.2554ZM70.4358 45.5067H72.1376C72.6118 45.5067 72.9797 45.3973 73.2412 45.1784C73.5026 44.9594 73.6312 44.653 73.6312 44.2677C73.6312 43.8824 73.5026 43.5759 73.2412 43.357C72.9797 43.1381 72.6074 43.0287 72.1155 43.0287H70.4358V45.5111V45.5067ZM73.4051 48.6853C73.6888 48.4489 73.8262 48.1249 73.8262 47.709C73.8262 47.293 73.6799 46.9471 73.383 46.702C73.0861 46.4568 72.6872 46.3342 72.1908 46.3342H70.4314V49.0399H72.2218C72.7271 49.0399 73.1171 48.9217 73.4007 48.6897L73.4051 48.6853Z"
                fill="#838790"
              />
              <path
                d="M81.369 43.8384V49.8628H80.3585V48.974C80.1635 49.2805 79.8976 49.5213 79.5519 49.692C79.2063 49.8628 78.8251 49.9503 78.413 49.9503C77.9388 49.9503 77.5133 49.854 77.1322 49.657C76.751 49.46 76.4541 49.171 76.2369 48.7813C76.0198 48.3917 75.909 47.9188 75.909 47.3628V43.834H76.9106V47.2315C76.9106 47.8269 77.0613 48.2822 77.3671 48.6019C77.6728 48.9215 78.085 49.0791 78.6124 49.0791C79.1398 49.0791 79.5785 48.9127 79.8932 48.5843C80.2034 48.256 80.3585 47.7744 80.3585 47.1439V43.834H81.369V43.8384Z"
                fill="#838790"
              />
              <path
                d="M88.3358 47.2231H83.4609C83.4963 47.8185 83.7046 48.2782 84.0769 48.6154C84.4492 48.9481 84.9056 49.1145 85.4419 49.1145C85.8806 49.1145 86.244 49.0138 86.5365 48.8124C86.829 48.611 87.0373 48.3439 87.1526 48.0024H88.2428C88.0788 48.5803 87.7553 49.0532 87.2633 49.4166C86.7714 49.78 86.1643 49.9595 85.4374 49.9595C84.8569 49.9595 84.3428 49.8325 83.8863 49.5742C83.4298 49.3159 83.0709 48.9525 82.8138 48.4796C82.5524 48.0068 82.4238 47.4595 82.4238 46.8378C82.4238 46.2161 82.5479 45.6688 82.8005 45.2004C83.0531 44.7319 83.4077 44.3685 83.8642 44.1189C84.3206 43.865 84.8436 43.738 85.4374 43.738C86.0313 43.738 86.5277 43.8606 86.9708 44.1102C87.414 44.3597 87.7597 44.7012 87.999 45.1391C88.2383 45.5769 88.3624 46.0672 88.3624 46.6189C88.3624 46.8115 88.3536 47.0129 88.327 47.2231H88.3358ZM87.0683 45.428C86.8955 45.1522 86.6651 44.9464 86.3726 44.8019C86.0801 44.6575 85.7565 44.5874 85.3976 44.5874C84.8879 44.5874 84.4492 44.7494 84.0902 45.069C83.7312 45.393 83.5229 45.8396 83.4742 46.4087H87.3254C87.3254 46.0278 87.2412 45.6995 87.0683 45.4236V45.428Z"
                fill="#838790"
              />
              <path
                d="M94.1991 44.3945C94.6601 44.8367 94.8905 45.4759 94.8905 46.3122V49.8629H93.8889V46.4566C93.8889 45.8568 93.7382 45.3971 93.4325 45.0775C93.1267 44.7579 92.7145 44.6003 92.1871 44.6003C91.6597 44.6003 91.2299 44.7667 90.9152 45.095C90.6005 45.4234 90.441 45.905 90.441 46.5355V49.8673H89.4305V43.8429H90.441V44.701C90.6404 44.3945 90.9152 44.1537 91.2609 43.9873C91.6066 43.821 91.9877 43.7334 92.3998 43.7334C93.14 43.7334 93.7427 43.9567 94.2036 44.3989L94.1991 44.3945Z"
                fill="#838790"
              />
              <path
                d="M97.3767 49.5739C96.9114 49.3156 96.548 48.9522 96.2865 48.4794C96.025 48.0065 95.8921 47.4593 95.8921 46.8376C95.8921 46.2158 96.0295 45.6773 96.2998 45.2045C96.5702 44.7316 96.938 44.3682 97.4078 44.1143C97.8731 43.8604 98.396 43.7334 98.9766 43.7334C99.5572 43.7334 100.08 43.8604 100.545 44.1143C101.011 44.3682 101.383 44.7273 101.653 45.1957C101.924 45.6642 102.061 46.2115 102.061 46.8332C102.061 47.4549 101.924 48.0022 101.645 48.475C101.365 48.9478 100.989 49.3112 100.514 49.5695C100.04 49.8279 99.5129 49.9548 98.9323 49.9548C98.3517 49.9548 97.8421 49.8279 97.3812 49.5695L97.3767 49.5739ZM99.9516 48.8252C100.271 48.6589 100.528 48.4049 100.723 48.0678C100.918 47.7307 101.02 47.3192 101.02 46.8376C101.02 46.356 100.922 45.9444 100.732 45.6073C100.537 45.2701 100.288 45.0206 99.9738 44.8542C99.6635 44.6878 99.3267 44.6047 98.9633 44.6047C98.5999 44.6047 98.2542 44.6878 97.944 44.8542C97.6382 45.0206 97.39 45.2701 97.2039 45.6073C97.0178 45.9444 96.9247 46.356 96.9247 46.8376C96.9247 47.3192 97.0133 47.7438 97.1995 48.081C97.3812 48.4181 97.6249 48.6676 97.9263 48.834C98.2321 49.0004 98.5645 49.0836 98.9279 49.0836C99.2913 49.0836 99.6325 49.0004 99.9516 48.8296V48.8252Z"
                fill="#838790"
              />
              <path
                d="M104.011 49.7228C103.639 49.5652 103.346 49.3463 103.134 49.0617C102.921 48.7771 102.801 48.4575 102.779 48.0897H103.825C103.856 48.3918 103.998 48.637 104.255 48.8252C104.512 49.0179 104.844 49.1098 105.261 49.1098C105.646 49.1098 105.952 49.0266 106.174 48.8559C106.395 48.6851 106.506 48.475 106.506 48.2167C106.506 47.9584 106.387 47.757 106.152 47.63C105.912 47.503 105.549 47.3761 105.048 47.2491C104.596 47.1309 104.228 47.0127 103.94 46.8901C103.652 46.7675 103.408 46.588 103.205 46.3516C103.001 46.1151 102.899 45.7999 102.899 45.4103C102.899 45.1038 102.992 44.8192 103.178 44.5653C103.364 44.307 103.626 44.1055 103.967 43.9567C104.308 43.8078 104.698 43.7334 105.137 43.7334C105.81 43.7334 106.355 43.9041 106.772 44.2413C107.189 44.5784 107.41 45.0381 107.441 45.6248H106.431C106.409 45.3096 106.28 45.0556 106.045 44.8674C105.81 44.6747 105.496 44.5828 105.106 44.5828C104.742 44.5828 104.454 44.6616 104.237 44.8148C104.02 44.9681 103.914 45.1695 103.914 45.419C103.914 45.616 103.98 45.778 104.109 45.9094C104.237 46.0407 104.401 46.1414 104.601 46.2158C104.796 46.2947 105.07 46.3778 105.416 46.4742C105.855 46.5924 106.209 46.7062 106.484 46.82C106.759 46.9339 106.994 47.1046 107.189 47.3323C107.384 47.5599 107.486 47.8577 107.494 48.2211C107.494 48.5494 107.401 48.8471 107.215 49.1098C107.029 49.3725 106.768 49.5827 106.431 49.7315C106.094 49.8804 105.704 49.9548 105.27 49.9548C104.804 49.9548 104.383 49.876 104.011 49.7184V49.7228Z"
                fill="#838790"
              />
              <path
                d="M115.919 48.1561H112.538L111.913 49.8593H110.845L113.65 42.2412H114.82L117.612 49.8593H116.544L115.919 48.1561ZM115.631 47.3418L114.231 43.4715L112.83 47.3418H115.636H115.631Z"
                fill="#838790"
              />
              <path
                d="M118.587 42.6605C118.454 42.5291 118.388 42.3671 118.388 42.1745C118.388 41.9818 118.454 41.8242 118.587 41.6929C118.72 41.5615 118.884 41.4958 119.079 41.4958C119.274 41.4958 119.421 41.5615 119.554 41.6929C119.682 41.8242 119.748 41.9862 119.748 42.1745C119.748 42.3627 119.682 42.5247 119.554 42.6605C119.425 42.7918 119.265 42.8575 119.079 42.8575C118.893 42.8575 118.725 42.7918 118.587 42.6605ZM119.567 43.8382V49.8626H118.556V43.8382H119.567Z"
                fill="#838790"
              />
              <path
                d="M122.789 44.0136C123.121 43.8253 123.52 43.729 123.994 43.729V44.7623H123.728C122.594 44.7623 122.026 45.3708 122.026 46.588V49.8629H121.016V43.8385H122.026V44.8148C122.204 44.4689 122.461 44.2018 122.789 44.0136Z"
                fill="#838790"
              />
              <path
                d="M130.416 47.2231H125.541C125.576 47.8185 125.785 48.2782 126.157 48.6154C126.533 48.9481 126.986 49.1145 127.522 49.1145C127.961 49.1145 128.324 49.0138 128.616 48.8124C128.909 48.611 129.117 48.3439 129.232 48.0024H130.323C130.159 48.5803 129.831 49.0532 129.343 49.4166C128.851 49.78 128.244 49.9595 127.517 49.9595C126.937 49.9595 126.423 49.8325 125.966 49.5742C125.51 49.3159 125.151 48.9525 124.894 48.4796C124.632 48.0068 124.504 47.4595 124.504 46.8378C124.504 46.2161 124.628 45.6688 124.88 45.2004C125.133 44.7319 125.488 44.3685 125.944 44.1189C126.401 43.865 126.923 43.738 127.517 43.738C128.111 43.738 128.608 43.8606 129.051 44.1102C129.494 44.3597 129.84 44.7012 130.079 45.1391C130.318 45.5769 130.442 46.0672 130.442 46.6189C130.442 46.8115 130.429 47.0129 130.407 47.2231H130.416ZM129.148 45.428C128.975 45.1522 128.745 44.9464 128.452 44.8019C128.16 44.6575 127.836 44.5874 127.477 44.5874C126.963 44.5874 126.529 44.7494 126.17 45.069C125.811 45.393 125.603 45.8396 125.554 46.4087H129.405C129.405 46.0278 129.321 45.6995 129.148 45.4236V45.428Z"
                fill="#838790"
              />
              <path
                d="M132.406 49.7228C132.033 49.5652 131.741 49.3463 131.528 49.0617C131.311 48.7815 131.196 48.4575 131.174 48.0897H132.219C132.25 48.3918 132.392 48.637 132.649 48.8252C132.906 49.0179 133.239 49.1098 133.655 49.1098C134.041 49.1098 134.347 49.0266 134.568 48.8559C134.79 48.6851 134.901 48.475 134.901 48.2167C134.901 47.9584 134.781 47.757 134.546 47.63C134.307 47.503 133.943 47.3761 133.443 47.2491C132.991 47.1309 132.623 47.0127 132.335 46.8901C132.047 46.7675 131.803 46.588 131.599 46.3516C131.395 46.1151 131.293 45.7999 131.293 45.4103C131.293 45.1038 131.386 44.8192 131.572 44.5653C131.759 44.307 132.02 44.1055 132.361 43.9567C132.703 43.8078 133.092 43.7334 133.531 43.7334C134.205 43.7334 134.75 43.9041 135.167 44.2413C135.583 44.5784 135.805 45.0381 135.836 45.6248H134.825C134.803 45.3096 134.675 45.0556 134.44 44.8674C134.205 44.6747 133.89 44.5828 133.5 44.5828C133.137 44.5828 132.849 44.6616 132.632 44.8148C132.414 44.9681 132.308 45.1695 132.308 45.419C132.308 45.616 132.375 45.778 132.503 45.9094C132.632 46.0407 132.796 46.1414 132.995 46.2158C133.19 46.2947 133.465 46.3778 133.81 46.4742C134.249 46.5924 134.604 46.7062 134.879 46.82C135.153 46.9339 135.388 47.1046 135.583 47.3323C135.778 47.5599 135.88 47.8577 135.889 48.2211C135.889 48.5494 135.796 48.8471 135.61 49.1098C135.424 49.3725 135.162 49.5827 134.825 49.7315C134.489 49.8804 134.099 49.9548 133.664 49.9548C133.199 49.9548 132.778 49.876 132.406 49.7184V49.7228Z"
                fill="#838790"
              />
              <path
                d="M144.34 42.6655C144.961 42.9763 145.435 43.4229 145.763 44.0008C146.095 44.5788 146.259 45.2618 146.259 46.0454C146.259 46.8291 146.095 47.5078 145.763 48.0857C145.435 48.6592 144.956 49.1014 144.34 49.4035C143.72 49.7056 142.989 49.8589 142.142 49.8589H139.727V42.197H142.142C142.989 42.197 143.72 42.3546 144.34 42.6655ZM144.433 48.2477C144.961 47.7223 145.222 46.9911 145.222 46.0454C145.222 45.0998 144.956 44.3511 144.429 43.8126C143.897 43.2784 143.135 43.0114 142.142 43.0114H140.742V49.0358H142.142C143.144 49.0358 143.906 48.7731 144.433 48.2521V48.2477Z"
                fill="#838790"
              />
              <path
                d="M147.35 42.6605C147.217 42.5291 147.15 42.3671 147.15 42.1745C147.15 41.9818 147.217 41.8242 147.35 41.6929C147.483 41.5615 147.647 41.4958 147.837 41.4958C148.028 41.4958 148.178 41.5615 148.311 41.6929C148.44 41.8242 148.506 41.9862 148.506 42.1745C148.506 42.3627 148.44 42.5247 148.311 42.6605C148.183 42.7918 148.023 42.8575 147.837 42.8575C147.651 42.8575 147.483 42.7918 147.35 42.6605ZM148.329 43.8382V49.8626H147.319V43.8382H148.329Z"
                fill="#838790"
              />
              <path
                d="M150.673 49.7228C150.301 49.5652 150.009 49.3463 149.796 49.0617C149.579 48.7815 149.464 48.4575 149.441 48.0897H150.487C150.518 48.3918 150.66 48.637 150.917 48.8252C151.174 49.0179 151.507 49.1098 151.923 49.1098C152.309 49.1098 152.615 49.0266 152.836 48.8559C153.058 48.6851 153.168 48.475 153.168 48.2167C153.168 47.9584 153.049 47.757 152.814 47.63C152.575 47.503 152.211 47.3761 151.71 47.2491C151.258 47.1309 150.891 47.0127 150.602 46.8901C150.314 46.7675 150.071 46.588 149.867 46.3516C149.663 46.1151 149.561 45.7999 149.561 45.4103C149.561 45.1038 149.654 44.8192 149.84 44.5653C150.026 44.307 150.288 44.1055 150.629 43.9567C150.97 43.8078 151.36 43.7334 151.799 43.7334C152.473 43.7334 153.018 43.9041 153.434 44.2413C153.851 44.5784 154.073 45.0381 154.104 45.6248H153.093C153.071 45.3096 152.942 45.0556 152.708 44.8674C152.473 44.6747 152.158 44.5828 151.768 44.5828C151.405 44.5828 151.117 44.6616 150.899 44.8148C150.682 44.9681 150.576 45.1695 150.576 45.419C150.576 45.616 150.642 45.778 150.771 45.9094C150.899 46.0407 151.063 46.1414 151.263 46.2158C151.458 46.2947 151.733 46.3778 152.078 46.4742C152.517 46.5924 152.872 46.7062 153.146 46.82C153.421 46.9339 153.656 47.1046 153.851 47.3323C154.046 47.5599 154.148 47.8577 154.157 48.2211C154.157 48.5494 154.064 48.8471 153.878 49.1098C153.691 49.3725 153.43 49.5827 153.093 49.7315C152.756 49.8804 152.366 49.9548 151.932 49.9548C151.467 49.9548 151.046 49.876 150.673 49.7184V49.7228Z"
                fill="#838790"
              />
              <path
                d="M156.537 44.6617V48.2124C156.537 48.5057 156.599 48.7115 156.727 48.8341C156.856 48.9567 157.073 49.0136 157.383 49.0136H158.128V49.8586H157.215C156.652 49.8586 156.227 49.7316 155.947 49.4733C155.664 49.215 155.526 48.7947 155.526 48.208V44.6573H154.737V43.8342H155.526V42.3193H156.537V43.8342H158.128V44.6573H156.537V44.6617Z"
                fill="#838790"
              />
              <path
                d="M160.849 44.0136C161.181 43.8253 161.58 43.729 162.054 43.729V44.7623H161.788C160.654 44.7623 160.087 45.3708 160.087 46.588V49.8629H159.076V43.8385H160.087V44.8148C160.264 44.4689 160.521 44.2018 160.849 44.0136Z"
                fill="#838790"
              />
              <path
                d="M162.98 42.6605C162.847 42.5291 162.781 42.3671 162.781 42.1745C162.781 41.9818 162.847 41.8242 162.98 41.6929C163.113 41.5615 163.277 41.4958 163.472 41.4958C163.667 41.4958 163.814 41.5615 163.947 41.6929C164.075 41.8242 164.142 41.9862 164.142 42.1745C164.142 42.3627 164.075 42.5247 163.947 42.6605C163.818 42.7918 163.658 42.8575 163.472 42.8575C163.286 42.8575 163.118 42.7918 162.98 42.6605ZM163.96 43.8382V49.8626H162.949V43.8382H163.96Z"
                fill="#838790"
              />
              <path
                d="M166.641 44.6617V48.2124C166.641 48.5057 166.703 48.7115 166.832 48.8341C166.96 48.9567 167.177 49.0136 167.488 49.0136H168.232V49.8586H167.319C166.756 49.8586 166.331 49.7316 166.052 49.4733C165.768 49.215 165.631 48.7947 165.631 48.208V44.6573H164.842V43.8342H165.631V42.3193H166.641V43.8342H168.232V44.6573H166.641V44.6617Z"
                fill="#838790"
              />
              <path
                d="M170.284 49.5739C169.819 49.3156 169.455 48.9522 169.194 48.4794C168.932 48.0065 168.799 47.4593 168.799 46.8376C168.799 46.2158 168.937 45.6773 169.207 45.2045C169.477 44.7316 169.845 44.3682 170.315 44.1143C170.78 43.8604 171.303 43.7334 171.884 43.7334C172.465 43.7334 172.987 43.8604 173.453 44.1143C173.918 44.3682 174.29 44.7273 174.561 45.1957C174.831 45.6642 174.968 46.2115 174.968 46.8332C174.968 47.4549 174.831 48.0022 174.552 48.475C174.273 48.9478 173.896 49.3112 173.422 49.5695C172.948 49.8279 172.42 49.9548 171.84 49.9548C171.259 49.9548 170.749 49.8279 170.289 49.5695L170.284 49.5739ZM172.859 48.8252C173.178 48.6589 173.435 48.4049 173.63 48.0678C173.825 47.7307 173.927 47.3192 173.927 46.8376C173.927 46.356 173.83 45.9444 173.639 45.6073C173.444 45.2701 173.196 45.0206 172.881 44.8542C172.571 44.6878 172.23 44.6047 171.871 44.6047C171.512 44.6047 171.162 44.6878 170.851 44.8542C170.541 45.0206 170.297 45.2701 170.111 45.6073C169.925 45.9444 169.832 46.356 169.832 46.8376C169.832 47.3192 169.925 47.7438 170.107 48.081C170.289 48.4181 170.532 48.6676 170.834 48.834C171.139 49.0004 171.472 49.0836 171.835 49.0836C172.199 49.0836 172.54 49.0004 172.859 48.8296V48.8252Z"
                fill="#838790"
              />
              <path
                d="M179.724 42.2012V49.863H178.713V42.2012H179.724Z"
                fill="#838790"
              />
              <path
                d="M182.183 42.2012V49.863H181.173V42.2012H182.183Z"
                fill="#838790"
              />
              <path
                d="M184.643 42.2012V49.863H183.633V42.2012H184.643Z"
                fill="#838790"
              />
              <rect
                x="26.9776"
                y="26.3081"
                width="8.42041"
                height="14.0102"
                fill="url(#pattern0_109_12441)"
              />
              <defs>
                <pattern
                  id="pattern0_109_12441"
                  patternContentUnits="objectBoundingBox"
                  width="1"
                  height="1"
                ></pattern>
              </defs>
            </svg>