            <svg
              width="100"
              height="50"
              viewBox="0 0 200 54"
              fill="none"
              xmlns="http://www.w3.org/2000/svg"
              className="object-contain my-auto"
            >
              <path
                d="M29.762 3.94862C29.6863 3.81543 29.5807 3.70147 29.4535 3.61562C29.3263 3.52977 29.181 3.47435 29.0288 3.45368C28.7741 3.42239 28.5155 3.45085 28.2738 3.53678C28.0321 3.62271 27.8138 3.76374 27.6365 3.94862C27.4214 4.18138 27.305 4.48801 27.3116 4.80436C26.8326 5.05294 26.3678 5.32781 25.9193 5.62772C25.9193 5.09577 25.9193 4.56383 25.9193 4.03188C25.9193 3.89311 26.0493 3.8376 26.1235 3.75434C26.3181 3.58305 26.4683 3.3674 26.5612 3.12577C26.6542 2.88415 26.6871 2.62371 26.6572 2.36665C26.6294 1.92811 26.4292 1.51817 26.1002 1.22573C25.7711 0.933292 25.3396 0.781922 24.8993 0.804443C24.459 0.826963 24.0454 1.02156 23.7481 1.34604C23.4508 1.67051 23.2938 2.09872 23.3111 2.5378C23.3099 2.80928 23.3742 3.07706 23.4986 3.31857C23.623 3.56009 23.8038 3.76824 24.0258 3.92549C24.0258 4.9385 24.1001 5.95151 24.114 6.96452C23.0461 7.77736 22.2252 8.86936 21.7425 10.1192C21.4081 11.1803 21.4507 12.3237 21.8631 13.3571C22.4473 14.7263 23.3083 15.9608 24.3925 16.9836C24.4389 17.5387 24.4296 18.0984 24.4528 18.6581C24.5456 21.9916 24.6338 25.3267 24.7173 28.6633C23.1799 29.9183 21.9163 31.4735 21.0046 33.2334C20.4197 34.4435 20.1881 35.7932 20.3363 37.1282C20.2065 38.8007 20.532 40.477 21.2784 41.9805C22.1663 43.5668 23.5406 44.828 25.2 45.5792C25.2588 47.6608 25.3114 49.7438 25.3578 51.8284C25.4938 51.8355 25.6301 51.8355 25.7662 51.8284C25.7662 49.8348 25.7662 47.8412 25.7987 45.8521C26.1688 45.8308 26.5285 45.7214 26.8475 45.533C26.9334 45.4718 26.9979 45.3854 27.032 45.2859C27.0661 45.1863 27.0681 45.0786 27.0378 44.9779C26.9527 44.721 26.8098 44.4868 26.6201 44.2933C26.3509 44.1037 26.0539 43.9603 25.7987 43.7429C25.8219 39.3161 25.8219 34.8894 25.8404 30.4627C27.633 28.6228 28.7737 26.2499 29.0891 23.7047C28.9916 21.3918 28.2955 19.0143 26.7269 17.2565C26.4664 16.9793 26.1906 16.7167 25.9008 16.4702L25.9193 7.3207C26.6897 6.8165 27.5808 6.49271 28.2676 5.85438C28.5454 5.90323 28.8315 5.85243 29.0752 5.71098C29.4147 5.47474 29.6583 5.12529 29.762 4.72572C29.8647 4.47679 29.8647 4.19755 29.762 3.94862ZM22.7356 11.3126C22.7556 10.7778 22.8902 10.2534 23.1304 9.77472C23.3705 9.29603 23.7107 8.87409 24.1279 8.53724C24.1883 10.6373 24.2532 12.7419 24.3089 14.842C23.4921 13.829 22.7588 12.6402 22.7356 11.3126ZM22.5268 40.7825C21.9758 40.0541 21.601 39.2088 21.4315 38.3124C21.2749 37.326 21.402 36.3155 21.7982 35.3982C22.3225 34.2142 23.0638 33.1381 23.9841 32.2251C24.2355 31.9528 24.5037 31.6964 24.7869 31.4572C24.903 35.4029 25.0236 39.3578 25.1304 43.2988C24.1389 42.5971 23.2609 41.7486 22.5268 40.7825ZM27.4601 21.5584C27.7128 22.5771 27.6936 23.6439 27.4044 24.6529C27.0842 25.7091 26.5574 26.6917 25.8544 27.5439C25.8544 24.5188 25.8636 21.4936 25.8822 18.4685C26.6171 19.3784 27.1544 20.4306 27.4601 21.5584Z"
                fill="#838790"
              />
              <path
                d="M0.39376 27.5992C0.39376 19.6154 0.39376 11.6315 0.39376 3.64771H20.6608C20.67 3.78478 20.67 3.92231 20.6608 4.05939C18.2847 4.45381 15.9867 5.22199 13.8525 6.33519C11.9854 7.3194 10.2525 8.53817 8.69641 9.96168C7.06338 11.4275 5.61417 13.0847 4.38033 14.8972C3.08133 16.827 2.08304 18.9418 1.41941 21.1696C0.896807 22.9243 0.573017 24.7318 0.454092 26.5584C0.410722 26.9098 0.390568 27.2637 0.39376 27.6177"
                fill="#838790"
              />
              <path
                d="M29.9706 3.64771H50.1077C50.1077 10.3333 50.1077 17.0173 50.1077 23.6998C50.1077 24.9903 50.1077 26.2809 50.1077 27.5761C50.053 25.0558 49.6068 22.5591 48.785 20.1751C47.9633 17.8465 46.7793 15.6612 45.2764 13.6992C44.057 12.1132 42.6725 10.6603 41.146 9.36498C39.2676 7.74854 37.1474 6.43444 34.8621 5.4702C33.2943 4.8295 31.66 4.36409 29.9891 4.08251C29.9891 3.94375 29.9891 3.8096 29.9891 3.67083"
                fill="#838790"
              />
              <path
                d="M0.393433 33.534C0.393433 32.1463 0.393433 30.7123 0.393433 29.3062C0.463987 32.0308 0.991037 34.7246 1.95279 37.2761C2.81392 39.5059 4.00941 41.5927 5.49847 43.4652C8.00669 46.693 11.2421 49.2871 14.9428 51.0373C17.8826 52.3734 21.0641 53.1005 24.2943 53.1744C23.4868 53.2068 22.6746 53.1744 21.8625 53.1975H0.393433V33.534Z"
                fill="#838790"
              />
              <path
                d="M48.1681 38.2522C49.3626 35.4558 50.0176 32.4601 50.0987 29.4219C50.1219 33.2565 50.0987 37.0912 50.0987 40.9212V53.193C43.2487 53.193 36.4002 53.193 29.5532 53.193C28.458 53.193 27.3581 53.193 26.2628 53.193C29.7523 53.1137 33.1813 52.2687 36.3058 50.7182C38.8643 49.4229 41.1825 47.7022 43.1605 45.6301C45.2627 43.4976 46.9566 41.0004 48.1588 38.2614"
                fill="#838790"
              />
              <path
                d="M165.226 37.1835C164.432 35.4674 163.764 33.6912 162.994 31.9658L162.785 32.0167C162.205 33.335 161.653 34.6626 161.077 35.9855C160.748 36.6978 160.548 37.5952 159.717 37.8866C160.386 37.9467 161.058 37.9467 161.727 37.8866C161.472 37.7386 161.059 37.7386 160.961 37.4241C161.077 36.9059 161.267 36.4072 161.527 35.9439H163.797C164.029 36.4107 164.2 36.905 164.307 37.4148C164.27 37.7432 163.843 37.6877 163.63 37.8219C164.463 37.9559 165.312 37.9559 166.145 37.8219C165.774 37.7247 165.365 37.586 165.226 37.1835ZM161.648 35.6524H161.62C161.929 34.8629 162.28 34.0908 162.674 33.3396C163.012 34.0936 163.323 34.8615 163.648 35.6524H161.648Z"
                fill="#838790"
              />
              <path
                d="M181.359 32.0816C181.892 32.0446 182.426 32.0816 182.96 32.0816C184.157 33.5155 185.28 35.0142 186.543 36.4065C186.543 35.153 186.598 33.8948 186.515 32.6413C186.515 32.2712 186.051 32.2527 185.796 32.2203V32.0168C186.45 32.0168 187.109 32.0168 187.773 32.0446C187.494 32.2527 186.933 32.2157 186.97 32.6875C186.905 34.473 186.97 36.2631 186.933 38.0533C186.185 37.2821 185.483 36.4681 184.83 35.6156L182.909 33.275V36.6147C182.885 36.9395 182.923 37.2659 183.02 37.5768C183.285 37.6878 183.554 37.7665 183.823 37.8636C183.085 37.9145 182.343 37.9145 181.605 37.8636C181.837 37.785 182.069 37.6971 182.296 37.6092C182.524 37.5213 182.487 37.1466 182.519 36.9246C182.519 35.5369 182.547 34.1492 182.519 32.7615C182.296 32.299 181.749 32.2712 181.382 32.0076"
                fill="#838790"
              />
              <path
                d="M175.093 46.9714C174.313 45.2229 173.607 43.4467 172.856 41.689C172.583 42.0424 172.377 42.442 172.248 42.8685L172.211 42.8963C171.598 44.3163 171.041 45.7826 170.354 47.1703C170.275 47.4386 169.89 47.4432 169.811 47.6791C170.368 47.9058 170.999 47.7578 171.589 47.7578C171.329 47.6283 171.073 47.5126 170.814 47.4062C170.929 46.8508 171.125 46.3149 171.394 45.815H173.659C173.931 46.3022 174.11 46.8355 174.188 47.3877C173.989 47.5045 173.797 47.6311 173.612 47.767H175.933V47.6283C175.747 47.6024 175.571 47.528 175.424 47.4126C175.276 47.2972 175.162 47.145 175.093 46.9714ZM171.514 45.5005C171.835 44.7558 172.127 43.9972 172.48 43.2709L172.568 43.2339C172.907 43.974 173.208 44.7372 173.519 45.5005H171.514Z"
                fill="#838790"
              />
              <path
                d="M65.0143 12.3071C66.0656 10.8917 67.568 9.87407 69.2754 9.4211C70.9829 8.96812 72.7941 9.10661 74.4122 9.81388C74.8763 10.0035 75.4889 10.48 75.9855 10.0729C76.3939 9.81851 76.2825 8.96277 76.9137 9.14779C77.0019 10.9472 77.155 12.7373 77.2618 14.5366L76.8626 14.4395C76.5383 13.2702 75.9384 12.195 75.113 11.3033C73.0385 9.30506 69.2097 9.54559 67.4972 11.8862C66.156 13.7133 65.9146 16.0816 65.9889 18.2834C66.0817 19.9671 66.5272 21.748 67.7478 22.9877C68.5436 23.7371 69.5289 24.2565 70.5983 24.4904C71.6677 24.7243 72.7807 24.6637 73.8182 24.3152C75.3033 23.8249 76.315 22.5575 77.2014 21.3502C77.3314 21.4288 77.4613 21.5028 77.5866 21.5861C76.7513 23.0478 75.5771 24.4355 73.9713 25.0923C72.2176 25.7596 70.291 25.8264 68.495 25.282C66.1142 24.6159 64.3182 22.4788 63.6684 20.1244C63.3002 18.8031 63.2299 17.417 63.4626 16.0654C63.6953 14.7139 64.2252 13.4304 65.0143 12.3071Z"
                fill="#838790"
              />
              <path
                d="M94.6423 15.4848C94.3994 14.2599 93.8749 13.1078 93.1099 12.119C92.3449 11.1302 91.3603 10.3316 90.2334 9.78606C88.8401 9.16288 87.2907 8.97266 85.7874 9.24024C84.7272 9.4256 83.7165 9.82637 82.8183 10.4176C81.9201 11.0089 81.1536 11.778 80.5663 12.6771C79.5461 14.3067 79.1032 16.23 79.3086 18.1399C79.35 19.2093 79.6059 20.2595 80.061 21.2287C80.5161 22.1979 81.1613 23.0665 81.9586 23.7832C82.9441 24.6431 84.1347 25.2363 85.4162 25.506C86.6977 25.7757 88.0272 25.7129 89.2774 25.3235C91.1452 24.7117 92.7214 23.4355 93.7048 21.7387C94.7412 19.8274 95.0729 17.6146 94.6423 15.4848ZM92.0573 19.0928C91.9041 20.7118 91.454 22.4371 90.2009 23.575C88.5255 25.2079 85.4672 25.2912 83.8567 23.5195C82.418 21.9376 82.0004 19.7219 81.954 17.6542C81.9168 15.6652 82.1535 13.5559 83.3091 11.8768C83.8758 11.0132 84.7441 10.3901 85.7456 10.1284C86.4678 9.93569 87.2252 9.91356 87.9575 10.0637C88.6899 10.2139 89.3769 10.5322 89.9642 10.9934C90.9113 11.9 91.5506 13.079 91.7928 14.3654C92.1126 15.9198 92.2017 17.5126 92.0573 19.0928Z"
                fill="#838790"
              />
              <path
                d="M129.807 24.8193C129.241 24.7689 128.716 24.504 128.34 24.0792C127.862 23.3902 127.472 22.6443 127.18 21.8589C125.407 17.6172 123.611 13.3847 121.847 9.13379H121.383L116.315 20.9384C115.819 22.0439 115.429 23.2096 114.696 24.1763C114.362 24.6389 113.768 24.7453 113.229 24.8563L113.187 25.3188H117.508C117.737 25.3405 117.969 25.3201 118.19 25.2587C118.371 24.699 117.647 24.8887 117.336 24.7638C116.789 24.7221 116.204 24.2179 116.408 23.612C116.724 22.3631 117.374 21.2252 117.838 20.0225H124.01C124.326 20.795 124.664 21.5582 124.98 22.3353C125.194 22.9135 125.528 23.5426 125.379 24.1856C125.119 24.7962 124.363 24.81 123.806 24.8794C123.806 24.9904 123.857 25.2032 123.857 25.305H130.09C130.067 25.0829 130.118 24.773 129.807 24.8193ZM118.204 19.139C119.132 17.0205 120.005 14.8788 120.989 12.7927C121.866 14.9112 122.785 17.0159 123.643 19.1436L118.204 19.139Z"
                fill="#838790"
              />
              <path
                d="M172.717 9.53646C174.73 8.90933 176.9 9.00757 178.848 9.814C179.312 9.91576 179.91 10.3691 180.314 9.92964C180.418 9.67255 180.489 9.40382 180.528 9.12941H180.927C181.066 10.8039 181.202 12.4768 181.335 14.1482C181.202 14.1329 181.07 14.1082 180.941 14.0742C180.518 13.0288 180.068 11.9372 179.182 11.1786C177.891 9.98977 175.984 9.73999 174.309 10.0777C173.023 10.3622 171.9 11.1377 171.181 12.2378C169.914 14.0881 169.598 16.4379 169.895 18.6212C170.093 20.211 170.737 21.7131 171.752 22.9554C172.312 23.5947 173.012 24.0972 173.798 24.4244C174.585 24.7516 175.435 24.8947 176.286 24.8427C177.286 24.7681 178.26 24.4811 179.14 24.0008V19.0791C179.107 18.5379 179.14 17.8857 178.676 17.4925C178.212 17.0994 177.599 17.1364 177.047 17.0901V16.6599H183.205V17.0901C182.956 17.0557 182.702 17.0759 182.462 17.1494C182.222 17.2229 182 17.3479 181.813 17.5157C181.474 17.9181 181.488 18.5657 181.446 19.1069V24.2459C179.945 25.0685 178.276 25.5438 176.565 25.6367C174.854 25.7296 173.144 25.4377 171.561 24.7825C170.289 24.1772 169.204 23.2403 168.423 22.071C167.641 20.9017 167.191 19.5435 167.12 18.1401C166.883 14.4951 169.222 10.7391 172.735 9.54571"
                fill="#838790"
              />
              <path
                d="M95.4263 9.48999H99.7099C102.587 12.9962 105.46 16.5071 108.328 20.0225C108.652 20.4552 109.005 20.8648 109.386 21.2483C109.386 18.2232 109.386 15.198 109.386 12.1729C109.433 11.5786 109.329 10.9821 109.085 10.4382C108.62 9.86004 107.804 9.93405 107.14 9.90167V9.48999H112.63V9.90167C111.999 9.9248 111.261 9.86467 110.774 10.3642C110.37 10.8268 110.412 11.4605 110.379 12.0248V25.5872C110.259 25.6001 110.138 25.5817 110.028 25.5339C109.917 25.486 109.821 25.4103 109.748 25.3142L102.058 15.8548C101.218 14.8835 100.471 13.8335 99.5799 12.913C99.5428 16.1 99.5799 19.2917 99.5799 22.4787C99.5324 23.1097 99.6325 23.7431 99.8723 24.329C100.336 24.9072 101.125 24.8656 101.784 24.8609C101.826 25.0113 101.84 25.1681 101.826 25.3235H96.3034C96.3034 25.2264 96.2756 25.0321 96.2709 24.9396C96.8789 24.8517 97.5797 24.9396 98.0716 24.5186C98.5636 24.0977 98.4939 23.4039 98.5357 22.8349V11.5854C98.1274 11.0356 97.6009 10.5836 96.9949 10.2625C96.4942 10.0502 95.9564 9.93856 95.4124 9.93405V9.52237"
                fill="#838790"
              />
              <path
                d="M130.716 9.52271H135.195C136.995 13.4175 138.828 17.303 140.62 21.2024C140.703 21.3689 140.898 21.9471 141.084 21.5493C142.94 17.5405 144.775 13.5316 146.588 9.52271H151.085V9.93439C150.454 9.95751 149.721 9.89738 149.229 10.3969C148.82 10.8595 148.867 11.4932 148.83 12.0529V22.6919C148.789 23.2832 148.9 23.875 149.15 24.4126C149.614 24.9769 150.426 24.8752 151.09 24.9214C151.09 25.0324 151.043 25.2498 151.029 25.384C148.797 25.3562 146.565 25.384 144.328 25.384C144.325 25.2285 144.341 25.0733 144.374 24.9214C145.001 24.9214 145.743 24.9769 146.231 24.4588C146.625 23.9685 146.56 23.2839 146.602 22.6965C146.602 19.1995 146.63 15.7025 146.579 12.2102C144.453 16.5537 142.55 20.9989 140.453 25.3701L140.086 25.3608C138.03 20.9619 136.025 16.5398 133.979 12.1362C133.942 15.6147 133.979 19.0746 133.979 22.5762C133.938 23.1887 134.025 23.8029 134.234 24.3802C134.698 25.0093 135.533 24.9353 136.216 24.9492C136.219 25.1037 136.211 25.2583 136.192 25.4117H130.753C130.753 25.3053 130.707 25.0833 130.698 24.9769C131.296 24.9769 131.974 25.0324 132.461 24.6161C132.948 24.1998 132.925 23.4921 132.948 22.9139V12.275C132.948 11.6736 132.948 10.9798 132.484 10.5172C132.02 10.0547 131.301 10.0547 130.684 9.99452C130.679 9.85517 130.688 9.7157 130.711 9.57821"
                fill="#838790"
              />
              <path
                d="M152.088 9.55493H164.289C164.373 10.7113 164.414 11.8677 164.456 13.0195H164.025C163.834 12.2794 163.728 11.4144 163.096 10.901C162.596 10.5636 161.997 10.401 161.393 10.4384C159.806 10.4107 158.219 10.4384 156.632 10.4384C156.581 12.5246 156.594 14.6015 156.632 16.7061C157.954 16.6738 159.282 16.7293 160.604 16.6738C160.869 16.6853 161.133 16.6443 161.382 16.5529C161.631 16.4616 161.858 16.3219 162.052 16.1418C162.396 15.6258 162.585 15.0222 162.595 14.4026H163.013V19.921L162.646 19.8978C162.386 19.3659 162.502 18.6813 162.108 18.1956C161.713 17.7099 160.938 17.5665 160.289 17.548H156.613C156.613 19.5417 156.585 21.5307 156.613 23.5243C156.582 23.7229 156.624 23.9259 156.732 24.096C156.839 24.266 157.005 24.3915 157.198 24.4494C158.055 24.5319 158.917 24.5566 159.778 24.5235C160.771 24.5235 161.802 24.5882 162.748 24.2552C163.844 23.7926 164.475 22.6917 165.041 21.6972C165.134 21.4197 165.403 21.378 165.668 21.3965C165.203 22.7333 164.767 24.0701 164.275 25.3884H152.079V24.9721C152.733 24.9721 153.471 24.9721 153.977 24.5096C154.358 24.1349 154.302 23.5474 154.348 23.0618V12.6032C154.396 11.9106 154.305 11.2155 154.079 10.5587C153.615 9.94811 152.756 10.0452 152.07 10.0082V9.59656"
                fill="#838790"
              />
              <path
                d="M130.132 32.0168H134.921C134.968 32.4995 134.985 32.9846 134.972 33.4693C134.731 33.1409 134.694 32.6321 134.267 32.4794C133.832 32.388 133.387 32.3538 132.944 32.3776C132.911 33.9966 132.907 35.6156 132.944 37.2392C132.944 37.7387 133.529 37.7017 133.872 37.859C132.999 37.9191 132.124 37.9284 131.25 37.8868V37.7757C131.575 37.7156 132.081 37.711 132.067 37.2577C132.132 35.6341 132.067 34.0197 132.095 32.3869C131.652 32.3597 131.208 32.3861 130.772 32.4655C130.401 32.6043 130.285 33.016 130.201 33.3907H130.039C130.071 32.9281 130.094 32.4655 130.136 32.04"
                fill="#838790"
              />
              <path
                d="M184.036 9.4856H196.242C196.307 10.6374 196.367 11.7984 196.414 12.9409H195.949C195.759 12.2055 195.666 11.3451 195.021 10.8317C194.475 10.467 193.819 10.3035 193.165 10.3691H188.496C188.454 12.4506 188.496 14.5322 188.496 16.6137H192.209C192.78 16.5767 193.434 16.5628 193.87 16.1511C194.307 15.7394 194.399 14.9716 194.474 14.3425H194.901C194.901 16.1511 194.924 17.9597 194.901 19.7684L194.483 19.8516C194.44 19.2918 194.304 18.743 194.079 18.228C193.675 17.6267 192.9 17.4972 192.223 17.4833H188.51C188.51 19.4862 188.464 21.4891 188.51 23.4966C188.472 23.7006 188.515 23.9115 188.63 24.0843C188.745 24.2572 188.924 24.3783 189.127 24.4217C190.195 24.5513 191.281 24.4587 192.376 24.4865C193.337 24.4541 194.404 24.5189 195.207 23.9037C196 23.2129 196.633 22.3592 197.063 21.4012L197.527 21.3734C197.096 22.7056 196.632 24.0332 196.168 25.3515H183.98C183.985 25.2045 183.976 25.0573 183.953 24.912C184.607 24.912 185.345 24.912 185.86 24.4495C186.255 24.0239 186.176 23.3856 186.217 22.849V12.2378C186.171 11.6365 186.217 10.975 185.902 10.4385C185.401 9.91578 184.607 9.97591 183.943 9.97591V9.55498"
                fill="#838790"
              />
              <path
                d="M92.6419 30.1296H93.6165C93.1899 30.6828 92.7247 31.2052 92.2242 31.6931C92.352 31.1644 92.5069 30.6425 92.6883 30.1296"
                fill="#838790"
              />
              <path
                d="M62.5544 32.6645C62.8471 32.4028 63.1889 32.2015 63.5601 32.072C63.9313 31.9426 64.3245 31.8878 64.7171 31.9105C65.2172 31.9933 65.7062 32.1329 66.1744 32.3268C66.2938 32.1769 66.4309 32.0418 66.5827 31.9244C66.6338 32.5998 66.7034 33.2797 66.6988 33.9643C66.411 33.5619 66.2997 33.0392 65.9237 32.7108C65.5341 32.3704 65.0249 32.1982 64.5079 32.2321C63.9909 32.2659 63.5086 32.503 63.167 32.8912L63.1392 32.9236C62.7357 33.5422 62.5406 34.273 62.5823 35.0097C62.5403 35.6646 62.7165 36.3151 63.0835 36.86C63.394 37.2372 63.8229 37.4994 64.301 37.6042C64.7792 37.7091 65.2788 37.6506 65.7195 37.4382C66.2068 37.2069 66.4621 36.7027 66.8937 36.402C66.3229 38.132 63.8678 38.5391 62.573 37.3688C61.9511 36.7381 61.6027 35.8893 61.6027 35.0051C61.6027 34.1209 61.9511 33.272 62.573 32.6414M135.445 32.0169C136.299 32.0909 137.199 31.8828 138.025 32.1187C137.719 32.2205 137.241 32.1187 137.153 32.5489C137.056 33.4139 137.153 34.2927 137.107 35.167C137.079 35.9245 137.097 36.6829 137.162 37.4382C137.329 37.762 137.761 37.6879 138.053 37.8221C137.152 37.9609 136.235 37.9609 135.334 37.8221C135.591 37.77 135.846 37.702 136.095 37.6186C136.341 37.2855 136.248 36.8415 136.276 36.4622C136.248 35.1716 136.327 33.8764 136.239 32.5859C136.183 32.2066 135.738 32.2112 135.45 32.1649V32.0216M172.206 32.0724C173.065 31.9753 173.933 32.0724 174.796 32.0216V32.1696C174.555 32.1615 174.318 32.2331 174.123 32.3731C173.998 32.8638 173.955 33.3719 173.997 33.8764C174.025 35.0051 173.956 36.1384 174.03 37.267C174.03 37.7573 174.624 37.6879 174.935 37.8313C174.07 37.9253 173.199 37.9454 172.331 37.8915V37.7712C172.547 37.7486 172.76 37.7052 172.967 37.6417C173.232 37.4428 173.144 37.0681 173.181 36.7813C173.181 35.3936 173.213 34.0059 173.153 32.6183C173.153 32.1557 172.554 32.2205 172.225 32.0539"
                fill="#838790"
              />
              <path
                d="M69.488 32.0449C69.9461 31.8911 70.4365 31.8589 70.9109 31.9514C71.3853 32.0438 71.8274 32.2578 72.1937 32.5722C72.5098 32.858 72.7663 33.203 72.9486 33.5876C73.1308 33.9721 73.2353 34.3887 73.256 34.8136C73.2767 35.2384 73.2132 35.6631 73.0691 36.0635C72.9251 36.4639 72.7033 36.832 72.4165 37.1469C72.3515 37.2148 72.2865 37.2795 72.2215 37.3412C71.7405 37.7675 71.128 38.0177 70.4851 38.0505C69.8423 38.0833 69.2074 37.8968 68.6851 37.5216C67.4321 36.6289 67.1583 34.7832 67.8266 33.4557C68.1852 32.8028 68.7763 32.3076 69.4834 32.068M69.6226 32.3918C68.5041 32.9793 68.416 34.4224 68.5041 35.5372C68.5083 35.9425 68.6105 36.3407 68.802 36.6982C68.9935 37.0558 69.2686 37.362 69.604 37.591C69.9372 37.747 70.311 37.7952 70.673 37.7289C71.0351 37.6625 71.3672 37.4849 71.6229 37.221C72.0813 36.6505 72.3067 35.9285 72.254 35.1996C72.3321 34.3586 72.1192 33.5164 71.6507 32.8127C71.4023 32.5371 71.0727 32.347 70.7091 32.2698C70.3456 32.1925 69.9669 32.232 69.6272 32.3825M84.831 32.0541H89.6483C89.6483 32.5167 89.6993 33.0116 89.6808 33.4927C89.4302 33.1967 89.4348 32.7202 89.0543 32.5398C88.5971 32.4047 88.1188 32.3545 87.6434 32.3918V36.9249C87.6759 37.1423 87.6434 37.4291 87.8151 37.6003C88.0657 37.6835 88.3117 37.7714 88.5577 37.8685C87.6991 37.924 86.8359 37.8685 85.9773 37.8963V37.7668C86.3022 37.7251 86.8127 37.6789 86.7895 37.2302C86.8312 35.6112 86.822 33.9923 86.7895 32.364C86.3395 32.3431 85.8886 32.3804 85.4482 32.4751C85.0584 32.6555 85.0352 33.1458 84.8078 33.4742C84.7899 32.9867 84.8023 32.4985 84.8449 32.0125M106.3 32.0403C106.777 31.8656 107.294 31.8246 107.793 31.9217C108.292 32.0187 108.755 32.2501 109.131 32.5907C109.441 32.8834 109.69 33.2341 109.863 33.6227C110.037 34.0113 110.132 34.4302 110.143 34.8555C110.155 35.2807 110.082 35.7041 109.929 36.1012C109.776 36.4984 109.546 36.8616 109.252 37.1701C109.165 37.2596 109.074 37.3445 108.978 37.4245C108.411 37.8666 107.696 38.0772 106.979 38.0137C106.262 37.9501 105.596 37.6171 105.117 37.0822C103.724 35.5604 104.277 32.7156 106.3 32.0403ZM106.588 32.3085C105.66 32.6925 105.386 33.7795 105.363 34.6815C105.27 35.5606 105.501 36.4432 106.012 37.1654C106.161 37.3293 106.34 37.4623 106.54 37.557C106.74 37.6518 106.957 37.7063 107.178 37.7174C107.399 37.7286 107.62 37.6962 107.828 37.6221C108.037 37.5481 108.229 37.4337 108.393 37.2857C108.412 37.2645 108.432 37.2444 108.453 37.2256C108.946 36.6513 109.191 35.9066 109.136 35.1533C109.136 34.3207 109.061 33.4048 108.509 32.7433C108.269 32.488 107.958 32.3101 107.615 32.2326C107.273 32.1552 106.915 32.1816 106.588 32.3085ZM116.584 32.0125H118.241C118.942 33.4927 119.606 34.9868 120.32 36.4531L120.469 36.3837C121.17 34.9405 121.805 33.4696 122.483 32.0125C123.058 32.0125 123.634 32.0125 124.205 32.0125C123.982 32.1883 123.666 32.1651 123.439 32.3317C123.337 32.6095 123.295 32.9061 123.318 33.2013V36.7445C123.29 37.0304 123.346 37.3183 123.481 37.5725C123.736 37.6511 123.987 37.7436 124.242 37.8362C123.352 37.8963 122.459 37.8963 121.569 37.8362C121.805 37.7621 122.033 37.6881 122.265 37.6003C122.497 37.5124 122.455 37.1377 122.478 36.9342V33.0533C121.75 34.5288 121.086 36.046 120.399 37.5401C120.306 37.6696 120.292 38.0027 120.06 37.8639C119.285 36.2727 118.617 34.626 117.805 33.0625C117.805 34.478 117.759 35.8934 117.805 37.3088C117.805 37.7714 118.394 37.7113 118.733 37.8408C118.171 37.924 117.602 37.9518 117.035 37.924C116.824 37.9442 116.613 37.8919 116.436 37.776C116.77 37.7251 117.401 37.776 117.364 37.2811C117.443 36.1015 117.364 34.9174 117.406 33.7332C117.454 33.2815 117.4 32.8248 117.248 32.3964C117.051 32.2636 116.822 32.1883 116.584 32.179V32.0356M127.259 32.3409C127.342 32.1744 127.379 31.8784 127.634 31.9986C128.377 33.6916 129.027 35.4216 129.806 37.0868C129.95 37.5077 130.377 37.6974 130.735 37.8778C129.909 37.9194 129.082 37.9194 128.256 37.8778C128.465 37.7251 128.841 37.6928 128.915 37.4152C128.81 36.896 128.627 36.3955 128.372 35.9304H126.163C125.783 36.3853 125.582 36.9623 125.597 37.554C125.834 37.6511 126.061 37.7668 126.312 37.8547C125.635 37.9032 124.956 37.9032 124.279 37.8547C124.59 37.6511 124.984 37.5124 125.124 37.1331C125.857 35.5418 126.516 33.8951 127.217 32.2993M127.217 33.2244C126.892 34.0061 126.553 34.7879 126.21 35.565H128.238C127.89 34.7879 127.607 33.9784 127.217 33.2244ZM146.932 32.0218C147.601 31.806 148.327 31.8449 148.97 32.131C149.613 32.4171 150.126 32.9302 150.412 33.5713C150.677 34.1632 150.764 34.8192 150.661 35.4591C150.558 36.0991 150.27 36.6952 149.832 37.1747C149.516 37.5058 149.124 37.7557 148.69 37.9032C148.256 38.0506 147.793 38.0911 147.34 38.0212C146.694 37.9156 146.103 37.5945 145.663 37.1105C145.224 36.6265 144.963 36.0082 144.922 35.3568C144.819 34.6593 144.962 33.9478 145.327 33.3437C145.692 32.7397 146.256 32.2806 146.922 32.0449M147.085 32.3548C146.774 32.527 146.51 32.7727 146.316 33.0703C146.123 33.3679 146.006 33.7084 145.975 34.0616C145.818 34.9176 145.896 35.8001 146.203 36.615C146.304 36.898 146.478 37.1493 146.708 37.3434C146.938 37.5376 147.215 37.6677 147.512 37.7205C147.795 37.768 148.086 37.7457 148.358 37.6554C148.631 37.565 148.877 37.4095 149.076 37.2024C149.619 36.6242 149.702 35.7778 149.702 35.0238C149.753 34.2403 149.545 33.4618 149.108 32.8081C148.866 32.5313 148.542 32.3377 148.183 32.2547C147.824 32.1716 147.448 32.2034 147.108 32.3455M153.211 32.0171H154.761C155.981 33.4464 157.081 34.9544 158.362 36.3513C158.395 35.3661 158.362 34.3762 158.362 33.3956C158.382 33.0477 158.343 32.699 158.246 32.364C158.043 32.2206 157.799 32.1475 157.55 32.1559V32.0171H159.578V32.142C159.253 32.179 158.766 32.2021 158.766 32.6462C158.692 34.4456 158.766 36.2496 158.72 38.0489C157.272 36.578 156.13 34.811 154.7 33.3447V36.7769C154.728 37.0544 154.654 37.406 154.891 37.6234C155.141 37.7113 155.406 37.7483 155.661 37.8315C154.908 37.9155 154.148 37.9279 153.392 37.8685C153.703 37.702 154.283 37.7251 154.278 37.2626C154.366 35.8749 154.278 34.4595 154.315 33.0625C154.338 32.4843 153.689 32.2114 153.206 32.1374V31.994M167.825 32.3502C168.248 32.0727 168.735 31.9089 169.24 31.8749C169.745 31.8409 170.251 31.9377 170.707 32.1559C171.032 32.3779 171.283 32.0773 171.51 31.8876C171.542 32.5629 171.626 33.2337 171.626 33.909C171.324 33.5158 171.222 32.9839 170.837 32.6647C170.648 32.4958 170.426 32.3657 170.187 32.2819C169.947 32.1982 169.692 32.1623 169.439 32.1765C169.185 32.1907 168.936 32.2546 168.707 32.3645C168.478 32.4745 168.273 32.6284 168.104 32.8174C168.035 32.8939 167.973 32.9759 167.918 33.0625C167.627 33.6105 167.468 34.2181 167.453 34.8377C167.438 35.4573 167.567 36.072 167.83 36.6335C168.126 37.1 168.591 37.4354 169.128 37.5705C169.665 37.7056 170.233 37.6302 170.716 37.3597C171.143 37.1146 171.371 36.652 171.774 36.3883C171.199 38.1183 168.735 38.5208 167.449 37.3458C165.983 36.0599 166.196 33.4187 167.82 32.3502M177.302 32.031C177.78 31.8546 178.298 31.8126 178.799 31.9097C179.3 32.0067 179.765 32.2391 180.142 32.5815C180.451 32.8748 180.699 33.2259 180.872 33.6149C181.045 34.0038 181.139 34.4229 181.15 34.8481C181.16 35.2734 181.086 35.6965 180.933 36.0934C180.779 36.4902 180.548 36.8529 180.253 37.1608C180.198 37.221 180.133 37.2811 180.073 37.3366C179.605 37.7441 179.016 37.9875 178.397 38.0293C177.777 38.071 177.161 37.9089 176.643 37.5679C175.39 36.7214 175.074 34.922 175.673 33.5945C176.003 32.8953 176.594 32.3524 177.32 32.0819M177.604 32.3502C176.638 32.7665 176.383 33.9368 176.378 34.885C176.378 35.75 176.522 36.7353 177.177 37.3505C177.504 37.6285 177.925 37.7733 178.355 37.7561C178.785 37.739 179.193 37.5611 179.497 37.258C180.049 36.726 180.151 35.9119 180.165 35.1857C180.165 34.3484 180.1 33.4279 179.53 32.7665C179.289 32.5151 178.978 32.3411 178.637 32.2669C178.297 32.1928 177.941 32.2217 177.617 32.3502M117.888 42.4757C118.234 42.2007 118.638 42.0068 119.07 41.9083C119.501 41.8098 119.949 41.8093 120.381 41.9067C120.717 42.0363 121.063 42.1385 121.416 42.212C121.512 42.0415 121.632 41.8857 121.773 41.7494C121.852 42.4589 121.88 43.1731 121.856 43.8865C121.703 43.4765 121.497 43.0879 121.244 42.7301C120.898 42.3523 120.416 42.1269 119.903 42.1035C119.39 42.0801 118.889 42.2605 118.51 42.6052C118.428 42.6773 118.353 42.758 118.288 42.8457C117.857 43.5362 117.666 44.3491 117.745 45.1585C117.73 45.8306 117.974 46.4829 118.427 46.981C118.722 47.2447 119.081 47.4264 119.469 47.5076C119.857 47.5888 120.259 47.5667 120.636 47.4436C121.253 47.2586 121.564 46.6618 122.061 46.2872C121.513 47.9709 119.179 48.4288 117.856 47.3742C116.334 46.1947 116.403 43.6274 117.856 42.434M134.679 42.1889C134.777 42.0594 134.772 41.6939 135.014 41.8188C135.784 43.5488 136.452 45.3204 137.241 47.0458C137.376 47.4251 137.78 47.5453 138.058 47.7905C137.297 47.8183 136.536 47.7905 135.775 47.7905V47.6564C135.967 47.6098 136.152 47.535 136.322 47.4343C136.387 46.8561 135.997 46.3519 135.821 45.8292H133.533C133.308 46.2713 133.132 46.7367 133.009 47.2169C132.948 47.5823 133.398 47.5592 133.631 47.6517V47.7998H131.825C132.048 47.5407 132.429 47.439 132.549 47.092C133.306 45.4823 133.969 43.8541 134.675 42.1981M134.675 43.188C134.336 43.9651 133.983 44.733 133.682 45.5008H135.691C135.348 44.7237 135.074 43.9235 134.675 43.188ZM140.244 45.3112C140.044 43.6783 141.297 41.9113 143.001 41.8142C143.681 41.7782 144.36 41.8968 144.987 42.1611C145.168 42.0825 145.228 41.8743 145.358 41.7356C145.455 42.4018 145.498 43.0746 145.488 43.7477C145.298 43.3384 145.06 42.9532 144.778 42.6006C144.365 42.243 143.827 42.0632 143.282 42.1005C142.736 42.1378 142.228 42.3891 141.868 42.7995C141.803 42.873 141.744 42.9519 141.692 43.0354C141.338 43.6461 141.178 44.3492 141.231 45.0524C141.285 45.7556 141.551 46.4262 141.994 46.9764C142.34 47.3371 142.801 47.5673 143.298 47.628C143.796 47.6887 144.299 47.5762 144.722 47.3094C144.681 46.5878 144.75 45.8662 144.676 45.1446C144.611 44.7931 144.212 44.8116 143.933 44.7098C144.226 44.4971 144.62 44.6312 144.959 44.5988C145.402 44.5564 145.849 44.5861 146.282 44.6867C146.036 44.8023 145.613 44.7931 145.595 45.1493C145.502 45.9125 145.595 46.685 145.535 47.4621C145.002 47.7304 144.421 47.8899 143.826 47.9312C143.23 47.9725 142.633 47.8948 142.068 47.7026C141.574 47.5092 141.142 47.1843 140.821 46.7635C140.499 46.3426 140.3 45.8419 140.244 45.3158M93.7184 41.953C94.2939 41.953 94.9575 41.8188 95.4866 42.0177C96.2106 43.5025 96.8789 45.0105 97.5843 46.5C98.3408 45.029 98.9766 43.4933 99.682 42.0085C100.265 41.8744 100.872 41.8744 101.455 42.0085C101.13 42.1287 100.564 42.0779 100.568 42.5682C100.508 44.0715 100.527 45.5887 100.568 47.0967C100.517 47.5592 100.986 47.6702 101.353 47.6702C101.348 47.7179 101.348 47.7659 101.353 47.8136H98.958V47.6702C99.2504 47.6425 99.6542 47.5592 99.6542 47.2077C99.7145 45.7784 99.6542 44.3444 99.6542 42.9151C98.8513 44.5711 98.1505 46.2779 97.3337 47.9108C96.5169 46.2594 95.7929 44.5618 95.0132 42.9012V46.7914C94.989 47.0402 95.0374 47.2908 95.1525 47.513C95.3474 47.6702 95.6166 47.6379 95.8486 47.6887V47.8229H93.8252V47.6795C94.0618 47.6379 94.331 47.6795 94.512 47.476C94.5951 47.2051 94.6265 46.9211 94.6048 46.6387V43.077C94.5723 42.8041 94.6048 42.4572 94.396 42.2629C94.1593 42.1611 93.9319 42.0732 93.6952 41.9622M151.572 42.0085C152.096 41.916 152.631 41.8974 153.16 41.953C153.364 41.9946 153.447 42.2074 153.582 42.3369C154.663 43.6737 155.759 45.0012 156.831 46.3334V43.0955C156.848 42.8236 156.809 42.551 156.715 42.2953C156.492 42.1102 156.167 42.1287 155.912 42.0223C156.652 41.9306 157.401 41.9198 158.144 41.99C157.903 42.0594 157.666 42.1428 157.434 42.2398C157.193 42.3785 157.248 42.7023 157.225 42.929V48.0172C156.539 47.3201 155.899 46.5801 155.308 45.8015C154.598 44.9457 153.916 44.09 153.197 43.2435C153.197 44.5803 153.155 45.9264 153.225 47.2632C153.225 47.6471 153.661 47.698 153.953 47.7257V47.8738C153.294 47.8738 152.631 47.8738 151.972 47.846C152.227 47.6286 152.765 47.7026 152.779 47.2724C152.853 45.8847 152.779 44.4971 152.812 43.1094C152.904 42.4202 152.088 42.1842 151.572 42.0547M163.713 42.0547C164.391 41.9654 165.077 41.9406 165.76 41.9807C166.475 42.0223 167.305 41.9298 167.895 42.4433C168.172 42.6706 168.35 42.9956 168.392 43.3507C168.435 43.7057 168.338 44.0634 168.122 44.349C167.82 44.6785 167.433 44.9199 167.004 45.0475C167.512 45.834 168.072 46.5865 168.679 47.3002C168.892 47.5731 169.296 47.5268 169.519 47.7627C169.111 47.9802 168.54 47.8275 168.066 47.8414C167.444 46.9163 166.758 46.042 166.126 45.1308H165.495C165.462 45.8914 165.482 46.6534 165.556 47.4112C165.681 47.7535 166.131 47.6887 166.419 47.7766C165.597 48.0125 164.702 47.8136 163.848 47.8784V47.735C164.2 47.735 164.678 47.6055 164.632 47.1614C164.669 45.6581 164.688 44.1501 164.632 42.6468C164.632 42.1472 164.057 42.1842 163.727 42.0686M165.495 42.3924V44.8717C166.022 44.9133 166.548 44.7835 166.994 44.5017C167.121 44.395 167.225 44.2645 167.301 44.1176C167.376 43.9707 167.422 43.8103 167.436 43.6457C167.449 43.4811 167.43 43.3154 167.379 43.1583C167.328 43.0011 167.246 42.8556 167.138 42.7301C167.095 42.6763 167.047 42.6267 166.994 42.5821C166.577 42.2398 166.006 42.3508 165.509 42.3924"
                fill="#838790"
              />
              <path
                d="M73.7207 32.0632C74.29 32.0354 74.8609 32.0354 75.4332 32.0632C76.1479 33.5804 76.8255 35.13 77.582 36.6194C78.2596 35.0837 78.9743 33.5758 79.6658 32.0493H81.3226V32.1881C81.0906 32.2343 80.8167 32.1881 80.6357 32.3777C80.5005 32.7102 80.451 33.0713 80.4919 33.4278C80.4919 34.7137 80.4547 36.0042 80.5244 37.2948C80.5244 37.7573 81.1045 37.7573 81.4201 37.8915C80.5204 37.9664 79.6155 37.9509 78.719 37.8452C79.0578 37.7296 79.6472 37.7527 79.6472 37.2624C79.6936 35.8747 79.6472 34.487 79.6472 33.0993C78.8397 34.6674 78.1668 36.3095 77.3964 37.9007H77.2339C76.4635 36.3049 75.7813 34.6628 74.9738 33.0808V36.9756C74.997 37.2069 74.9738 37.5075 75.178 37.6648C75.3822 37.8221 75.6746 37.7805 75.9205 37.8637C75.1727 37.9493 74.4175 37.9493 73.6697 37.8637C73.9342 37.7342 74.2869 37.7342 74.4911 37.5168C74.5853 36.953 74.6149 36.3804 74.5793 35.8099C74.5515 34.7553 74.635 33.6868 74.5375 32.6321C74.5004 32.2112 73.9713 32.2806 73.7207 32.0493M110.547 32.0493C111.363 31.9938 112.185 32.0216 113.002 32.0216C113.628 32.0216 114.348 32.0632 114.812 32.5581C115.076 32.8152 115.226 33.1662 115.23 33.534C115.235 33.9017 115.093 34.2562 114.835 34.5194L114.812 34.5425C114.517 34.783 114.173 34.9566 113.805 35.0513C114.31 35.7683 114.802 36.4945 115.364 37.1699C115.489 37.3234 115.644 37.4503 115.82 37.5433C115.995 37.6362 116.187 37.6933 116.385 37.7111C116.398 37.7863 116.417 37.8606 116.441 37.9331C115.944 37.8869 115.447 37.9331 114.951 37.8869C114.208 37.0126 113.624 36.0366 112.89 35.1115L112.31 35.1346C112.282 35.889 112.301 36.6444 112.366 37.3965C112.477 37.7388 112.9 37.6694 113.178 37.762V37.8637C112.303 37.9131 111.425 37.8977 110.551 37.8175C110.844 37.6741 111.312 37.7527 111.442 37.3549C111.544 36.5084 111.466 35.648 111.489 34.7969C111.521 33.9976 111.498 33.197 111.419 32.4009C111.234 32.1048 110.825 32.1973 110.57 32.0031M112.319 32.3639V34.8524C112.852 34.8899 113.383 34.7553 113.832 34.4685C114.082 34.2487 114.234 33.9392 114.255 33.608C114.276 33.2767 114.164 32.9508 113.944 32.7015C113.876 32.6253 113.8 32.557 113.716 32.498C113.299 32.2158 112.788 32.3269 112.324 32.3639M138.313 31.9892C139.079 31.9568 139.84 31.9892 140.601 31.9661V32.1141L140.007 32.3592C140.174 33.0894 140.435 33.7952 140.782 34.4593C141.093 35.1485 141.376 35.847 141.711 36.5454C142.119 36.0829 142.23 35.3335 142.527 34.7553C142.783 33.9828 143.289 33.2566 143.33 32.4425C143.131 32.2667 142.866 32.1788 142.681 31.9799C143.299 31.9553 143.926 31.9553 144.56 31.9799C143.706 32.4425 143.507 33.4 143.168 34.2095C142.634 35.4862 142.128 36.7767 141.576 38.0487C141.297 37.6385 141.072 37.1938 140.908 36.7258C140.304 35.3659 139.734 33.9875 139.112 32.6368C138.986 32.2806 138.578 32.2158 138.332 31.9799"
                fill="#838790"
              />
              <path
                d="M81.6567 32.077C82.52 31.9984 83.3832 32.077 84.2464 32.0354V32.1834C84.0097 32.2204 83.7359 32.1834 83.5502 32.3823C83.4246 32.7669 83.3788 33.1729 83.4157 33.5757C83.4435 34.8108 83.3785 36.0551 83.4481 37.2762C83.4481 37.7388 84.0468 37.6787 84.3763 37.8637C83.4725 37.9285 82.5652 37.9285 81.6614 37.8637C82.0002 37.7203 82.5896 37.7342 82.5896 37.2439C82.6221 35.7081 82.6267 34.1771 82.5896 32.646C82.5896 32.1834 81.9909 32.2528 81.6614 32.0632"
                fill="#838790"
              />
              <path
                d="M90.1125 32.0399H94.6652C94.69 32.5025 94.69 32.9651 94.6652 33.4276C94.4239 33.0853 94.4053 32.5349 93.9366 32.4146C93.2171 32.3591 92.495 32.3452 91.7739 32.373V34.6858C92.3593 34.7089 92.9455 34.6904 93.5282 34.6303C93.9041 34.5563 93.9134 34.0937 94.0666 33.8254C94.1946 34.5429 94.2196 35.275 94.1408 35.9995C93.9737 35.7219 93.9552 35.3519 93.7046 35.1437C93.0966 34.9125 92.4237 35.0466 91.7879 35.0188C91.8435 35.8468 91.6533 36.7535 91.8992 37.5398C92.5804 37.6462 93.274 37.6462 93.9552 37.5398C94.5492 37.4057 94.7024 36.7303 95.1479 36.3973C95.0322 36.918 94.8497 37.4217 94.6049 37.896C93.6767 37.9422 92.7485 37.896 91.8482 37.896C91.2357 37.9246 90.6219 37.8951 90.015 37.8081C90.3028 37.6693 90.7576 37.7572 90.9014 37.4057C91.0082 36.5546 90.9293 35.6896 90.9525 34.8338C90.9804 34.0301 90.9618 33.2255 90.8968 32.4239C90.739 32.1371 90.3863 32.2018 90.1171 32.1463V32.0076M101.766 41.8925C103.279 41.9157 104.796 41.8601 106.309 41.9295C106.309 42.3921 106.351 42.8223 106.309 43.271C106.026 42.9564 106.054 42.3458 105.558 42.2765C104.843 42.2102 104.126 42.1901 103.409 42.2163V44.5291C104.019 44.563 104.632 44.5367 105.237 44.4505C105.59 44.3349 105.567 43.8908 105.701 43.6133C105.887 43.9139 105.78 44.2886 105.813 44.6263C105.845 44.9639 105.901 45.4311 105.701 45.7827C105.567 45.4913 105.59 45.0518 105.237 44.9177C104.635 44.8336 104.025 44.8119 103.418 44.8529C103.418 45.63 103.381 46.4164 103.418 47.1981L103.599 47.4109C104.253 47.4664 104.91 47.4571 105.562 47.3831C106.17 47.2444 106.295 46.5459 106.769 46.236C106.634 46.7541 106.435 47.2583 106.263 47.7624C104.718 47.7624 103.177 47.8087 101.622 47.7301C101.956 47.5265 102.597 47.5867 102.55 47.0408C102.55 45.5421 102.583 44.0388 102.55 42.5401C102.592 42.0776 102.086 42.0498 101.743 42.022L101.766 41.8925Z"
                fill="#838790"
              />
              <path
                d="M97.5148 32.0168H99.0788C100.295 33.4461 101.399 34.9633 102.675 36.3464C102.675 35.0882 102.75 33.8208 102.643 32.5672C102.615 32.1926 102.179 32.1972 101.882 32.1602V32.0168C102.587 32.0168 103.274 31.989 103.989 32.0584C103.697 32.2388 103.163 32.1509 103.102 32.5765C103.01 34.4267 103.102 36.2354 103.051 38.0625C101.603 36.5915 100.462 34.8245 99.0277 33.3536C99.0277 34.6488 98.9952 35.9532 99.0277 37.2484C99.0277 37.7479 99.6264 37.7109 99.9559 37.8682C99.2019 37.9516 98.4401 37.9329 97.6911 37.8127C98.0113 37.7017 98.5822 37.7479 98.5822 37.2761C98.6564 35.8884 98.5822 34.4684 98.6147 33.0622C98.6147 32.484 97.9789 32.2203 97.4962 32.137V31.9937M86.0748 42.0128C87.6017 41.8416 89.1564 41.985 90.7158 41.9387C90.7529 42.4013 90.7715 42.8639 90.7622 43.3264C90.4837 43.0396 90.5069 42.5077 90.1032 42.3643C89.3586 42.268 88.6068 42.2386 87.857 42.2764V44.5892C88.4422 44.6116 89.0283 44.5946 89.6112 44.5383C90.0104 44.432 90.0011 43.937 90.196 43.6456C90.196 44.3718 90.3538 45.1536 90.131 45.8566C90.0057 45.5467 90.0196 45.098 89.6669 44.9732C89.0761 44.8977 88.4799 44.873 87.8848 44.8991C87.8515 45.7212 87.867 46.5444 87.9312 47.3646C88.4696 47.6329 89.1843 47.4571 89.7876 47.4802C90.5301 47.4802 90.7808 46.6939 91.2356 46.2545C91.1085 46.7926 90.9393 47.32 90.7297 47.8318H86.2512V47.6884C86.4955 47.675 86.7315 47.595 86.9334 47.4571C87.0129 47.1335 87.0442 46.7999 87.0262 46.4672V42.9379C87.0383 42.7061 86.9954 42.4747 86.9009 42.2625C86.6452 42.1582 86.3792 42.0807 86.1073 42.0313M107.135 42.0128C107.763 41.9257 108.397 41.9009 109.029 41.9387C109.999 41.9387 111.062 41.8832 111.934 42.4013C113.665 43.5207 113.545 46.5644 111.656 47.4525C110.263 48.0677 108.718 47.73 107.261 47.8179V47.6745C107.497 47.6329 107.767 47.6468 107.938 47.4479C108.032 47.1792 108.072 46.8946 108.054 46.6106V43.2247C108.077 42.8909 108.027 42.5561 107.906 42.244C107.658 42.1409 107.4 42.0634 107.135 42.0128ZM108.918 42.3643C108.876 44.0434 108.918 45.7271 108.918 47.4016C109.883 47.656 111.052 47.5034 111.66 46.643C112.505 45.4496 112.384 43.4652 111.094 42.6233C110.458 42.1932 109.665 42.2579 108.941 42.3643M146.532 42.0081C148.064 41.8462 149.619 41.9804 151.173 41.9434C151.217 42.4046 151.229 42.8682 151.211 43.3311C150.955 43.0211 150.955 42.4661 150.505 42.3458C149.778 42.2672 149.045 42.2487 148.315 42.2903V44.6031C148.864 44.6208 149.414 44.6085 149.962 44.5661C150.426 44.5291 150.449 43.9833 150.658 43.641C150.705 44.3773 150.705 45.1157 150.658 45.852C150.449 45.5606 150.482 45.0842 150.101 44.9269C149.51 44.8607 148.914 44.8406 148.319 44.8668C148.384 45.704 148.166 46.6152 148.435 47.4109C149.081 47.4849 149.734 47.4849 150.38 47.4109C151.034 47.323 151.248 46.6199 151.661 46.2082C151.548 46.7471 151.383 47.2738 151.169 47.7809H146.69V47.6375C146.929 47.6271 147.162 47.5537 147.363 47.4247C147.456 47.1526 147.493 46.865 147.475 46.5782V43.0443C147.489 42.7597 147.446 42.4751 147.349 42.207C147.086 42.1159 146.818 42.0403 146.546 41.9804M176.248 41.9434C177.199 41.8925 178.152 41.8925 179.103 41.9434C178.829 42.0405 178.55 42.1099 178.277 42.207C178.003 42.3042 178.054 42.7575 178.021 43.0443V46.7448C178.049 46.9668 177.984 47.3507 178.314 47.3646C178.948 47.4471 179.591 47.4346 180.221 47.3276C180.834 47.175 181.047 46.5274 181.372 46.0602C181.27 46.653 181.103 47.2331 180.875 47.7902H176.392V47.6468C176.74 47.6468 177.191 47.508 177.149 47.0778C177.177 45.5699 177.195 44.0573 177.149 42.554C177.149 42.0914 176.569 42.0914 176.248 41.9387"
                fill="#838790"
              />
              <path
                d="M188.747 37.1838C189.587 35.4122 190.26 33.5666 191.119 31.8088C191.954 33.5851 192.618 35.4446 193.439 37.2254C193.583 37.6094 194.01 37.688 194.321 37.9008C193.494 37.947 192.665 37.947 191.838 37.9008C192.061 37.7574 192.427 37.725 192.511 37.4382C192.401 36.9189 192.218 36.4176 191.968 35.9488H189.782C189.495 36.3397 189.291 36.7853 189.183 37.2578C189.063 37.7204 189.647 37.6649 189.88 37.9008C189.221 37.9424 188.561 37.9424 187.902 37.9008C188.213 37.7111 188.594 37.5539 188.733 37.1931M189.838 35.6342H191.866C191.532 34.8525 191.202 34.0661 190.877 33.2844C190.497 34.0569 190.19 34.8525 189.838 35.6389"
                fill="#838790"
              />
              <path
                d="M194.548 32.0403H197.212V32.179C196.923 32.1794 196.638 32.2526 196.385 32.3918C196.247 32.6561 196.19 32.9557 196.223 33.2522V36.9527C196.223 37.1979 196.297 37.5587 196.613 37.5216C197.251 37.5864 197.895 37.5584 198.525 37.4384C199.087 37.258 199.198 36.6104 199.606 36.2681C199.467 36.8139 199.272 37.3505 199.142 37.9009C197.578 37.965 196.012 37.948 194.45 37.8501C194.784 37.7159 195.378 37.7761 195.378 37.2719C195.443 36.1478 195.378 35.0238 195.406 33.8998C195.433 33.4234 195.407 32.9456 195.327 32.4751C195.211 32.1744 194.821 32.2299 194.566 32.1744V32.0403M122.451 42.0131C123.36 41.8975 124.28 41.8975 125.189 42.0131C124.92 42.1195 124.548 42.0779 124.344 42.3092C124.233 42.7707 124.195 43.2468 124.233 43.72C124.261 44.8949 124.186 46.0744 124.27 47.2493C124.321 47.6333 124.776 47.6286 125.068 47.6749V47.8229C124.214 47.7489 123.309 47.9571 122.492 47.7211C122.771 47.624 123.147 47.6841 123.337 47.4066C123.416 46.6615 123.439 45.9117 123.407 45.1632C123.383 44.2381 123.458 43.3407 123.365 42.4387C123.221 42.0686 122.757 42.138 122.437 41.9993"
                fill="#838790"
              />
              <path
                d="M79.6099 42.013C80.2983 41.9336 80.9923 41.9119 81.6844 41.9482C82.6126 41.9713 83.6104 41.9482 84.4225 42.4108C86.149 43.5302 86.019 46.5738 84.1348 47.4527C82.7425 48.0725 81.2203 47.7256 79.7677 47.8227V47.6747C80.1204 47.6747 80.552 47.5221 80.5102 47.1012C80.5381 45.5978 80.552 44.0899 80.5102 42.5912C80.5427 42.0962 79.9347 42.1286 79.6145 41.9991M81.4013 42.3599C81.3641 44.0436 81.4013 45.7227 81.4013 47.4064C82.0843 47.5927 82.8115 47.5303 83.4526 47.2307C84.8449 46.4258 85.0119 44.3258 84.1069 43.1C83.4897 42.272 82.3619 42.1749 81.4152 42.3599"
                fill="#838790"
              />
              <path
                d="M113.657 41.9296C114.529 41.9296 115.411 41.8972 116.283 41.9574C115.991 42.1146 115.536 42.0684 115.392 42.4199C115.285 43.345 115.364 44.2378 115.341 45.1444C115.309 45.8928 115.331 46.6425 115.406 47.3878C115.592 47.6237 115.912 47.6191 116.181 47.67V47.7995H113.661V47.6608C113.905 47.6553 114.143 47.5919 114.357 47.4757C114.474 47.1982 114.524 46.897 114.501 46.5969V43.0444C114.473 42.7622 114.538 42.4245 114.316 42.2071C114.094 42.1235 113.866 42.0585 113.633 42.0129L113.657 41.9296Z"
                fill="#838790"
              />
              <path
                d="M125.1 41.9482C125.769 42.0222 126.72 41.6198 127.138 42.3368C128.214 43.669 129.297 44.9981 130.386 46.3241V42.8919C130.363 42.6513 130.414 42.3414 130.177 42.1888C129.976 42.1252 129.769 42.0772 129.56 42.0454V41.9297C130.285 41.8937 131.012 41.9215 131.732 42.013C131.403 42.1148 130.804 42.1194 130.836 42.6097C130.767 44.4044 130.836 46.2038 130.79 47.9985C129.365 46.4767 128.14 44.7606 126.771 43.211C126.771 44.5571 126.72 45.9078 126.803 47.2538C126.803 47.6239 127.268 47.647 127.527 47.684V47.8274H125.625V47.684C125.912 47.6563 126.339 47.5961 126.339 47.2214C126.409 45.7829 126.363 44.3443 126.367 42.9057C126.335 42.2859 125.569 42.1749 125.119 41.9806"
                fill="#838790"
              />
              <path
                d="M158.297 41.9804C159.847 41.8787 161.407 41.9342 162.961 41.9527C162.961 42.4153 163.008 42.8501 162.989 43.3034C162.706 43.0166 162.752 42.4893 162.339 42.332C161.591 42.2411 160.837 42.2148 160.084 42.2534V44.5662C160.688 44.6032 161.294 44.58 161.894 44.4968C162.279 44.3904 162.186 43.8862 162.46 43.6595C162.483 44.3765 162.488 45.1027 162.46 45.829C162.214 45.5653 162.274 45.0889 161.898 44.9547C161.302 44.8754 160.699 44.8538 160.098 44.89C160.098 45.6763 160.061 46.4627 160.121 47.249L160.293 47.4526C160.943 47.505 161.597 47.4972 162.247 47.4294C162.868 47.3045 162.998 46.5876 163.476 46.2823C163.333 46.7957 163.138 47.2953 162.971 47.8041H158.418V47.6792C158.729 47.6237 159.235 47.6145 159.235 47.1843C159.281 45.6578 159.272 44.1267 159.235 42.6003C159.262 42.073 158.645 42.11 158.306 41.9758"
                fill="#838790"
              />
            </svg>