<svg width="145" height="80" viewBox="0 0 145 80" fill="none" xmlns="http://www.w3.org/2000/svg">
<g clip-path="url(#clip0_471_17804)">
<path d="M7.77037 53.3484H1.89004V57.893H8.33188L8.16829 58.9452H0.696289V47.3007H8.03565V48.3529H1.89004V52.2918H7.77037V53.3484Z" fill="#154144"/>
<path d="M10.8077 56.5889C11.073 57.6012 11.8025 58.2069 13.0404 58.2069C14.4155 58.2069 14.9681 57.588 14.9681 56.7303C14.9681 55.8727 14.5702 55.4262 12.8194 55.0062C10.5468 54.4536 10.0251 53.764 10.0251 52.6411C10.0251 51.5182 10.9094 50.3511 12.9122 50.3511C14.9151 50.3511 15.8303 51.5535 15.9541 52.7339H14.8443C14.7073 52.1017 14.2165 51.2839 12.8548 51.2839C11.493 51.2839 11.1349 51.9337 11.1349 52.5526C11.1349 53.2556 11.5107 53.6092 13.1156 53.9938C15.565 54.5818 16.1177 55.3908 16.1177 56.6463C16.1177 58.1494 14.9107 59.1485 12.9962 59.1485C10.9669 59.1485 9.90132 58.1008 9.66699 56.5933L10.8077 56.5889Z" fill="#154144"/>
<path d="M24.5938 56.4342C24.2091 57.8931 23.2364 59.1441 21.238 59.1441C19.0273 59.1441 17.5771 57.5394 17.5771 54.7852C17.5771 52.4554 18.8549 50.3644 21.3397 50.3644C22.1315 50.3109 22.9132 50.5667 23.5201 51.078C24.1271 51.5892 24.512 52.316 24.5938 53.1053H23.4707C23.3928 52.5971 23.1299 52.1355 22.7326 51.8092C22.3352 51.4828 21.8313 51.3147 21.3176 51.337C19.6728 51.337 18.74 52.7384 18.74 54.7498C18.74 56.7613 19.6242 58.1716 21.2468 58.1716C22.3964 58.1716 23.0773 57.5792 23.4575 56.4386L24.5938 56.4342Z" fill="#154144"/>
<path d="M32.9409 56.4961C32.9409 57.3183 32.9409 58.5473 32.9409 58.9452H31.8754C31.8318 58.4971 31.8141 58.0469 31.8223 57.5968C31.4421 58.5562 30.6065 59.1618 29.1696 59.1618C27.8432 59.1618 26.4062 58.5871 26.4062 56.1114V50.55H27.5116V55.855C27.5116 57.0221 27.8785 58.1362 29.4172 58.1362C31.1459 58.1362 31.8002 57.1724 31.8002 54.909V50.5633H32.9188L32.9409 56.4961Z" fill="#154144"/>
<path d="M36.1548 54.9443C36.1548 56.9027 37.154 58.1848 38.6793 58.1848C39.1655 58.2288 39.6522 58.1073 40.0607 57.8401C40.4691 57.5729 40.7754 57.1756 40.9298 56.7126H42.0616C41.8613 57.449 41.4124 58.0933 40.7911 58.5365C40.1698 58.9797 39.4143 59.1943 38.6528 59.1441C36.0575 59.1441 35.0273 56.9691 35.0273 54.825C35.0273 52.3802 36.252 50.3511 38.7501 50.3511C41.4029 50.3511 42.2429 52.5615 42.2429 54.2326C42.2429 54.4757 42.2429 54.7012 42.2429 54.9222L36.1548 54.9443ZM41.089 54.0601C41.089 52.5261 40.2622 51.306 38.7103 51.306C37.1584 51.306 36.3714 52.4333 36.2034 54.0601H41.089Z" fill="#154144"/>
<path d="M44.334 58.9452V46.673H45.4499V58.9452H44.334Z" fill="#154144"/>
<path d="M54.0384 57.2432C54.0338 57.8126 54.0723 58.3815 54.1534 58.9452H53.0834C52.9887 58.5513 52.9398 58.1478 52.9375 57.7427C52.6501 58.3351 51.9427 59.1441 50.2582 59.1441C48.2951 59.1441 47.4551 57.8753 47.4551 56.6066C47.4551 54.7454 48.9008 53.901 51.4121 53.901H52.9287V53.1097C52.9287 52.3139 52.6855 51.2883 50.9302 51.2883C49.3651 51.2883 49.1219 52.0929 48.9495 52.7649H47.853C47.9591 51.7348 48.5958 50.3467 50.9479 50.3511C52.9287 50.3511 54.0428 51.1734 54.0428 53.0478L54.0384 57.2432ZM52.9463 54.7498H51.4298C49.6613 54.7498 48.6135 55.2273 48.6135 56.5535C48.6135 57.5261 49.2988 58.2069 50.4085 58.2069C52.6192 58.2069 52.9463 56.7171 52.9463 55.0372V54.7498Z" fill="#154144"/>
<path d="M61.7804 55.7666C62.112 57.2476 63.1068 58.0876 64.924 58.0876C66.9091 58.0876 67.6829 57.1194 67.6829 55.9302C67.6829 54.741 67.1037 53.9408 64.6454 53.3352C62.0545 52.6986 61.0421 51.8365 61.0421 50.1743C61.0421 48.512 62.227 47.1328 64.7692 47.1328C67.422 47.1328 68.5362 48.7154 68.6909 50.1831H67.4574C67.2142 49.0293 66.4758 48.154 64.7029 48.154C63.1422 48.154 62.28 48.8701 62.28 50.0814C62.28 51.2927 62.9963 51.7481 65.0964 52.2609C68.3947 53.0743 68.9253 54.3785 68.9253 55.7976C68.9253 57.5659 67.5989 59.0646 64.8444 59.0646C61.9263 59.0646 60.7724 57.4112 60.5469 55.7445L61.7804 55.7666Z" fill="#154144"/>
<path d="M77.5297 56.4961C77.5297 57.3183 77.5297 58.5473 77.5297 58.9452H76.4465C76.4156 58.7286 76.3979 58.1937 76.3935 57.5792C76.0177 58.5385 75.182 59.1441 73.7672 59.1441C72.4629 59.1441 71.0039 58.5694 71.0039 56.0938V50.55H72.1048V55.855C72.1048 57.0221 72.4762 58.1362 74.0148 58.1362C75.7391 58.1362 76.3935 57.1724 76.3935 54.909V50.5633H77.5121L77.5297 56.4961Z" fill="#154144"/>
<path d="M81.3495 57.7958V62.2785H80.2354V52.6102C80.2354 51.9205 80.2354 51.1955 80.2354 50.55H81.3274C81.3584 50.8507 81.3672 51.3591 81.3672 51.9736C81.634 51.4538 82.0469 51.0233 82.5551 50.7351C83.0633 50.4468 83.6447 50.3134 84.2278 50.3511C86.1908 50.3511 87.5836 51.9957 87.5836 54.5332C87.5836 57.5438 85.9654 59.1441 83.936 59.1441C82.4902 59.1441 81.7519 58.5296 81.3495 57.7958ZM86.3987 54.5774C86.3987 52.703 85.5144 51.3546 83.9581 51.3546C82.0614 51.3546 81.3053 52.5527 81.3053 54.7233C81.3053 56.8939 81.9199 58.1583 83.8608 58.1583C85.4967 58.1583 86.3987 56.779 86.3987 54.5774Z" fill="#154144"/>
<path d="M90.2408 54.9443C90.2408 56.9027 91.24 58.1848 92.7653 58.1848C93.2471 58.2273 93.7293 58.1077 94.1354 57.845C94.5415 57.5824 94.8482 57.1916 95.0069 56.7347H96.1388C95.9375 57.4714 95.4878 58.1159 94.8658 58.559C94.2437 59.0021 93.4876 59.2166 92.7255 59.1662C90.1347 59.1662 89.1045 56.9911 89.1045 54.847C89.1045 52.4023 90.3292 50.3732 92.8228 50.3732C95.4756 50.3732 96.3201 52.5836 96.3201 54.2547C96.3201 54.4978 96.3201 54.7233 96.2979 54.9443H90.2408ZM95.1749 54.0601C95.1749 52.5261 94.3482 51.306 92.7963 51.306C91.2444 51.306 90.4574 52.4333 90.2894 54.0601H95.1749Z" fill="#154144"/>
<path d="M98.3672 52.8312C98.3672 51.5314 98.3672 50.8993 98.3672 50.55H99.4637C99.4858 50.8064 99.5035 51.3988 99.5035 52.3537C99.7244 51.768 100.118 51.263 100.632 50.9055C101.145 50.5479 101.756 50.3546 102.382 50.3511V51.5049C100.649 51.5889 99.5035 52.6587 99.5035 54.7144V58.9452H98.3849L98.3672 52.8312Z" fill="#154144"/>
<path d="M103.956 46.673H105.072V48.3838H103.956V46.673ZM103.956 50.55H105.072V58.9496H103.956V50.55Z" fill="#154144"/>
<path d="M114.765 54.7322C114.765 57.1061 113.439 59.153 110.897 59.153C108.567 59.153 107.139 57.2918 107.139 54.7631C107.139 52.3272 108.509 50.3423 110.985 50.3423C113.284 50.3511 114.765 52.0974 114.765 54.7322ZM108.301 54.7322C108.301 56.6552 109.305 58.145 110.954 58.145C112.603 58.145 113.607 56.7525 113.607 54.7322C113.607 52.7958 112.665 51.3149 110.932 51.3149C109.199 51.3149 108.319 52.7782 108.319 54.7498L108.301 54.7322Z" fill="#154144"/>
<path d="M116.853 52.8312C116.853 51.5314 116.853 50.8993 116.853 50.55H117.949C117.949 50.8064 117.989 51.3988 117.989 52.3537C118.21 51.768 118.603 51.263 119.117 50.9055C119.631 50.5479 120.241 50.3546 120.867 50.3511V51.5049C119.134 51.5889 117.989 52.6587 117.989 54.7144V58.9452H116.87L116.853 52.8312Z" fill="#154144"/>
<path d="M133.64 46.673V56.5491C133.64 57.3493 133.64 58.1185 133.64 58.9452H132.583C132.538 58.5046 132.518 58.0618 132.522 57.6189C132.079 58.5738 131.195 59.1264 129.78 59.1264C127.61 59.1264 126.292 57.3581 126.292 54.825C126.292 52.2918 127.72 50.3334 130.024 50.3334C131.615 50.3334 132.283 51.001 132.522 51.5049V46.642L133.64 46.673ZM127.45 54.8029C127.45 56.9823 128.538 58.1539 129.926 58.1539C132.026 58.1539 132.553 56.664 132.553 54.5818C132.553 52.4996 132.11 51.3414 130.059 51.3414C128.494 51.3414 127.464 52.5969 127.464 54.8029H127.45Z" fill="#154144"/>
<path d="M136.833 54.9443C136.833 56.9027 137.832 58.1848 139.362 58.1848C139.843 58.2271 140.325 58.1073 140.73 57.8446C141.135 57.5819 141.441 57.1912 141.599 56.7347H142.731C142.531 57.4711 142.082 58.1154 141.46 58.5586C140.839 59.0018 140.084 59.2164 139.322 59.1662C136.731 59.1662 135.701 56.9911 135.701 54.847C135.701 52.4023 136.921 50.3732 139.419 50.3732C142.072 50.3732 142.912 52.5836 142.912 54.2547C142.912 54.4978 142.912 54.7233 142.912 54.9443H136.833ZM141.767 54.0601C141.767 52.5261 140.94 51.306 139.393 51.306C137.846 51.306 137.054 52.4333 136.886 54.0601H141.767Z" fill="#154144"/>
<path d="M7.77037 72.4773H1.89004V77.0219H8.33188L8.16829 78.0741H0.696289V66.4385H8.03565V67.4906H1.89004V71.434H7.77037V72.4773Z" fill="#154144"/>
<path d="M10.2197 71.7965C10.2197 71.0626 10.2197 70.342 10.2197 69.6789H11.3074C11.3427 69.9397 11.3648 70.9344 11.3516 71.1776C11.7053 70.3818 12.3906 69.48 14.0751 69.48C15.6049 69.48 16.8871 70.3641 16.8871 72.6541V78.0741H15.7552V72.8133C15.7552 71.4207 15.1937 70.5012 13.8142 70.5012C12.0059 70.5012 11.3383 71.9556 11.3383 73.7196V78.0741H10.2197V71.7965Z" fill="#154144"/>
<path d="M19.831 75.7222C20.0963 76.7345 20.8258 77.3402 22.0682 77.3402C23.4432 77.3402 23.9915 76.7213 23.9915 75.8636C23.9915 75.006 23.598 74.5595 21.8427 74.1395C19.5702 73.5869 19.0484 72.8973 19.0484 71.7744C19.0484 70.6515 19.9327 69.4844 21.94 69.4844C23.9473 69.4844 24.858 70.6868 24.9774 71.8672H23.8809C23.7439 71.235 23.2575 70.4172 21.8913 70.4172C20.5252 70.4172 20.1715 71.067 20.1715 71.6859C20.1715 72.3889 20.5517 72.7425 22.1566 73.1271C24.606 73.7151 25.1587 74.5241 25.1587 75.7796C25.1587 77.2827 23.9473 78.2818 22.0372 78.2818C20.0034 78.2818 18.9423 77.2341 18.708 75.7266L19.831 75.7222Z" fill="#154144"/>
<path d="M27.732 74.0511C27.732 76.0095 28.7312 77.2916 30.2565 77.2916C30.7383 77.3341 31.2205 77.2145 31.6266 76.9518C32.0327 76.6892 32.3395 76.2984 32.4981 75.8415H33.63C33.4287 76.5782 32.979 77.2227 32.357 77.6658C31.7349 78.1089 30.9788 78.3234 30.2167 78.273C27.6259 78.273 26.5957 76.098 26.5957 73.9539C26.5957 71.5091 27.816 69.48 30.314 69.48C32.9668 69.48 33.8113 71.6904 33.8113 73.3615C33.8113 73.6046 33.8113 73.8301 33.7892 74.0511H27.732ZM32.6617 73.1669C32.6617 71.6329 31.8349 70.4128 30.2875 70.4128C28.6737 70.4128 27.9486 71.5401 27.7806 73.1669H32.6617Z" fill="#154144"/>
<path d="M35.8633 71.7965C35.8633 71.0627 35.8633 70.3421 35.8633 69.679H36.9509C36.9863 69.9398 37.004 70.9345 36.9951 71.1776C37.2066 70.6406 37.5849 70.1858 38.0745 69.8802C38.5641 69.5745 39.1389 69.4342 39.7142 69.48C41.244 69.48 42.5262 70.3642 42.5262 72.6542V78.0741H41.3988V72.8133C41.3988 71.4208 40.8328 70.5012 39.4534 70.5012C37.6451 70.5012 36.9819 71.9557 36.9819 73.7196V78.0741H35.8633V71.7965ZM36.6237 67.8576V67.5349C36.6237 66.4252 37.1366 66.0141 37.9059 66.0141C38.7902 66.0141 39.6744 66.8983 40.2669 66.8983C40.5985 66.8983 40.7665 66.7259 40.7665 66.1512V65.9611H41.5977V66.2749C41.5977 67.4332 41.1025 67.8709 40.3155 67.8709C39.3915 67.8709 38.6929 66.9867 37.9413 66.9867C37.6495 66.9867 37.4992 67.1547 37.4992 67.5923V67.8664L36.6237 67.8576Z" fill="#154144"/>
<path d="M51.0989 76.3721C51.0944 76.9415 51.1328 77.5104 51.2139 78.0741H50.1439C50.0493 77.6802 50.0003 77.2767 49.998 76.8716C49.7107 77.464 49.0032 78.273 47.3187 78.273C45.3557 78.273 44.5156 77.0042 44.5156 75.7355C44.5156 73.8743 45.9614 73.0299 48.4727 73.0299H49.9892V72.2386C49.9892 71.4428 49.746 70.4172 47.9908 70.4172C46.4256 70.4172 46.1825 71.2218 46.01 71.8938H44.9091C45.0152 70.8637 45.6519 69.4756 48.004 69.48C49.9848 69.48 51.0989 70.3023 51.0989 72.1767V76.3721ZM50.0069 73.8787H48.4904C46.7219 73.8787 45.674 74.3562 45.674 75.6824C45.674 76.655 46.3593 77.3358 47.4691 77.3358C49.6797 77.3358 50.0069 75.846 50.0069 74.1661V73.8787Z" fill="#154144"/>
<path d="M53.832 71.7965C53.832 71.0627 53.832 70.3421 53.832 69.679H54.9197C54.9606 70.1774 54.9754 70.6776 54.9639 71.1776C55.1761 70.6403 55.5553 70.1853 56.0456 69.8797C56.5359 69.5741 57.1115 69.434 57.6874 69.48C59.2172 69.48 60.4994 70.3642 60.4994 72.6542V78.0741H59.3808V72.8133C59.3808 71.4208 58.8193 70.5012 57.4398 70.5012C55.6315 70.5012 54.9639 71.9557 54.9639 73.7196V78.0741H53.8497L53.832 71.7965Z" fill="#154144"/>
<path d="M62.2451 77.1192L67.334 70.6648H62.5015V69.679H68.6206V70.6736L63.598 77.0883H68.824L68.6074 78.0741H62.2451V77.1192Z" fill="#154144"/>
<path d="M76.5794 76.3721C76.5748 76.9415 76.6133 77.5104 76.6944 78.0741H75.6244C75.5274 77.6806 75.4784 77.2769 75.4785 76.8716C75.1911 77.464 74.4837 78.273 72.7992 78.273C70.8361 78.273 69.9961 77.0042 69.9961 75.7355C69.9961 73.8743 71.4419 73.0299 73.9487 73.0299H75.4697V72.2386C75.4697 71.4428 75.2265 70.4172 73.4668 70.4172C71.9061 70.4172 71.6629 71.2218 71.4905 71.8938H70.394C70.5001 70.8637 71.1368 69.4756 73.4889 69.48C75.4652 69.48 76.5838 70.3023 76.5838 72.1767L76.5794 76.3721ZM75.4829 73.8787H73.9708C72.2023 73.8787 71.1545 74.3562 71.1545 75.6824C71.1545 76.655 71.8398 77.3358 72.9495 77.3358C75.1602 77.3358 75.4829 75.846 75.4829 74.1661V73.8787Z" fill="#154144"/>
<path d="M93.9856 72.8973C93.9856 70.6869 93.9856 68.4765 94.0563 67.2873H93.9856C93.5081 68.9981 91.3593 74.4048 89.9445 78.0741H88.8348C87.7692 75.1696 85.5453 69.1352 85.0192 67.2696H84.975C85.0634 68.5958 85.0988 71.2483 85.0988 73.2598V78.0741H83.9492V66.4385H85.7177C87.1945 70.2581 89.0249 75.2315 89.4449 76.6064H89.4758C89.7455 75.6382 91.8855 70.1387 93.3975 66.4385H95.1395V78.0829H93.9856V72.8973Z" fill="#154144"/>
<path d="M98.5303 74.0511C98.5303 76.0096 99.5295 77.2916 101.059 77.2916C101.54 77.3339 102.022 77.2142 102.427 76.9514C102.833 76.6887 103.139 76.2981 103.296 75.8416H104.428C104.228 76.5779 103.779 77.2223 103.158 77.6654C102.536 78.1086 101.781 78.3233 101.019 78.273C98.4286 78.273 97.3984 76.098 97.3984 73.9539C97.3984 71.5092 98.6187 69.48 101.117 69.48C103.77 69.48 104.61 71.6904 104.61 73.3615C104.61 73.6046 104.61 73.8301 104.61 74.0511H98.5303ZM103.464 73.167C103.464 71.633 102.638 70.4128 101.09 70.4128C99.4765 70.4128 98.7514 71.5401 98.5833 73.167H103.464ZM103.858 65.6162L101.342 68.2112H100.224L102.434 65.6162H103.858Z" fill="#154144"/>
<path d="M113.47 65.8019V75.6781C113.47 76.4738 113.47 77.2475 113.47 78.0742H112.395C112.36 77.862 112.338 77.1414 112.334 76.7479C111.918 77.7028 111.007 78.2554 109.597 78.2554C107.426 78.2554 106.108 76.4871 106.108 73.9539C106.108 71.4208 107.536 69.4624 109.836 69.4624C111.427 69.4624 112.095 70.1299 112.334 70.6339V65.771L113.47 65.8019ZM107.293 73.9539C107.293 76.1334 108.385 77.3049 109.769 77.3049C111.869 77.3049 112.395 75.8151 112.395 73.7329C112.395 71.6507 111.953 70.4924 109.906 70.4924C108.323 70.4703 107.293 71.7435 107.293 73.9539Z" fill="#154144"/>
<path d="M116.167 65.8019H117.283V67.5127H116.167V65.8019ZM116.167 69.6789H117.283V78.0785H116.167V69.6789Z" fill="#154144"/>
<path d="M126.39 75.563C126.009 77.0219 125.032 78.273 123.034 78.273C120.823 78.273 119.373 76.6682 119.373 73.9141C119.373 71.5843 120.655 69.4932 123.14 69.4932C123.931 69.441 124.712 69.6973 125.318 70.2085C125.924 70.7196 126.308 71.4457 126.39 72.2342H125.267C125.189 71.7267 124.927 71.2658 124.53 70.9396C124.134 70.6133 123.631 70.4447 123.118 70.4658C121.469 70.4658 120.54 71.8672 120.54 73.8787C120.54 75.8902 121.425 77.3004 123.047 77.3004C124.192 77.3004 124.873 76.708 125.258 75.5675L126.39 75.563Z" fill="#154144"/>
<path d="M134.366 76.3721C134.361 76.9415 134.399 77.5104 134.48 78.0741H133.411C133.316 77.6802 133.267 77.2767 133.265 76.8716C132.977 77.464 132.27 78.273 130.585 78.273C128.627 78.273 127.782 77.0042 127.782 75.7355C127.782 73.8743 129.228 73.0299 131.739 73.0299H133.26V72.2386C133.26 71.4428 133.013 70.4172 131.257 70.4172C129.692 70.4172 129.449 71.2218 129.281 71.8938H128.185C128.286 70.8637 128.923 69.4756 131.279 69.48C133.256 69.48 134.374 70.3023 134.374 72.1767L134.366 76.3721ZM133.273 73.8787H131.757C129.988 73.8787 128.941 74.3562 128.941 75.6824C128.941 76.655 129.626 77.3358 130.736 77.3358C132.946 77.3358 133.273 75.846 133.273 74.1661V73.8787Z" fill="#154144"/>
<path d="M23.3729 19.7192H5.50641V31.8411H24.5932L24.465 36.3769H0.253906V0.205688H24.2129V4.7503H5.50641V15.1569H23.3729V19.7192Z" fill="#4EAEB9"/>
<path d="M30.8626 26.209C31.8132 30.4132 34.7136 32.6147 39.7583 32.6147C45.1213 32.6147 47.2745 30.1568 47.2745 26.8677C47.2745 23.3664 45.506 21.4787 38.4319 19.7944C29.6688 17.69 26.8083 14.6441 26.8083 9.59551C26.8083 4.04738 30.9157 -0.315979 39.0862 -0.315979C47.889 -0.315979 51.488 4.69724 51.9832 9.5513H46.5317C45.9348 6.52304 44.069 3.92359 38.905 3.92359C34.7312 3.92359 32.3614 5.78034 32.3614 9.06059C32.3614 12.3408 34.298 13.5698 40.5585 15.0685C50.9132 17.5751 52.8276 21.5715 52.8276 26.3018C52.8276 32.2832 48.3754 36.8499 39.3913 36.8499C30.2746 36.8499 26.1849 31.956 25.4111 26.209H30.8626Z" fill="#4EAEB9"/>
<path d="M78.8553 19.7192H60.9888V31.8411H79.9607V36.3857H55.7363V0.205688H79.6954V4.7503H60.9888V15.1569H78.8553V19.7192Z" fill="#4EAEB9"/>
<path d="M113.952 21.3151C113.952 14.6839 114.027 7.85372 114.186 3.99434H113.983C112.404 10.1437 106.97 25.0154 102.929 36.3857H98.1986C95.1612 27.0047 89.5373 10.3029 87.9191 3.91918H87.7422C88.0252 8.11012 88.1534 16.0322 88.1534 22.2347V36.3769H83.1396V0.205688H91.1466C95.0108 11.0986 99.6842 25.0861 100.873 29.8252H100.953C101.811 26.1029 107.377 10.8157 111.392 0.205688H119.187V36.3769H113.952V21.3151Z" fill="#4EAEB9"/>
<path d="M130.815 15.4133V36.5007H127.685V15.4133H130.815Z" fill="#2F686F"/>
<path d="M137.284 15.4133V36.5007H134.153V15.4133H137.284Z" fill="#2F686F"/>
<path d="M143.747 15.4133V36.5007H140.617V15.4133H143.747Z" fill="#2F686F"/>
</g>
<defs>
<clipPath id="clip0_471_17804">
<rect width="143.493" height="78.589" fill="white" transform="translate(0.75293 0.705505)"/>
</clipPath>
</defs>
</svg>
