            <svg
              width="100"
              height="50"
              viewBox="0 0 188 42"
              fill="none"
              xmlns="http://www.w3.org/2000/svg"
              className="object-contain my-auto"
            >
              <path
                d="M130.588 1.24805H137.403V2.69559H132.246V5.19854H137.018V6.56682H132.246V9.34927H137.481V10.7926H130.588V1.24805Z"
                fill="#838790"
              />
              <path
                d="M144.627 10.869H143.127V9.89796H143.098C142.897 10.2458 142.61 10.5355 142.265 10.7388C141.92 10.9421 141.529 11.0521 141.129 11.0581C139.319 11.0581 138.542 10.1418 138.542 8.32167V3.89966H140.084V8.17455C140.084 9.40195 140.577 9.85592 141.409 9.85592C142.684 9.85592 143.11 9.01524 143.11 7.95177V3.89966H144.64L144.627 10.869Z"
                fill="#838790"
              />
              <path
                d="M145.965 3.82374H147.369V5.17303H147.397C147.536 4.74011 147.8 4.36091 148.154 4.08603C148.507 3.81116 148.934 3.65367 149.378 3.63459C149.567 3.63344 149.755 3.64749 149.942 3.67662V5.16042C149.73 5.12346 149.515 5.10099 149.3 5.09316C148.273 5.09316 147.463 5.93384 147.463 7.47649V10.793H145.965V3.82374Z"
                fill="#838790"
              />
              <path
                d="M149.677 7.34206C149.677 5.18889 150.959 3.63452 153.254 3.63452C155.549 3.63452 156.836 5.18889 156.836 7.34206C156.836 9.49524 155.532 11.0581 153.258 11.0581C150.985 11.0581 149.677 9.50798 149.677 7.34206ZM155.267 7.34206C155.267 6.12745 154.652 4.86187 153.254 4.86187C151.857 4.86187 151.237 6.13594 151.237 7.34206C151.237 8.54818 151.857 9.83499 153.254 9.83499C154.652 9.83499 155.267 8.56517 155.267 7.34206Z"
                fill="#838790"
              />
              <path
                d="M157.896 3.83031H159.348V4.78282H159.394C159.613 4.40999 159.929 4.10573 160.308 3.90393C160.687 3.70213 161.114 3.6107 161.542 3.63981C163.731 3.63981 164.789 5.33315 164.789 7.37363C164.789 9.2617 163.852 11.0397 161.797 11.0397C161.35 11.0655 160.903 10.9784 160.498 10.7863C160.092 10.5941 159.741 10.303 159.474 9.93903H159.449V13.4442H157.917L157.896 3.83031ZM161.32 4.86325C160.031 4.86325 159.374 5.85385 159.374 7.34823C159.374 8.75793 160.085 9.8205 161.32 9.8205C162.718 9.8205 163.241 8.5505 163.241 7.34823C163.241 6.14595 162.584 4.86325 161.32 4.86325Z"
                fill="#838790"
              />
              <path
                d="M166.858 7.74976C166.858 8.85396 167.446 9.83499 168.717 9.83499C169.085 9.86467 169.452 9.76432 169.755 9.55082C170.059 9.33733 170.281 9.02373 170.384 8.66285H171.831C171.497 10.2002 170.213 11.0581 168.705 11.0581C166.537 11.0581 165.32 9.52072 165.32 7.3548C165.32 5.35027 166.604 3.63452 168.655 3.63452C170.835 3.63452 172.168 5.63906 171.918 7.74976H166.858ZM170.414 6.72626C170.425 6.48102 170.388 6.23592 170.304 6.00582C170.22 5.77572 170.091 5.56541 169.924 5.38765C169.758 5.20988 169.558 5.06836 169.337 4.97166C169.115 4.87497 168.877 4.82511 168.636 4.82511C168.395 4.82511 168.156 4.87497 167.935 4.97166C167.713 5.06836 167.513 5.20988 167.347 5.38765C167.181 5.56541 167.052 5.77572 166.968 6.00582C166.884 6.23592 166.846 6.48102 166.858 6.72626H170.414Z"
                fill="#838790"
              />
              <path
                d="M178.63 9.29023C178.63 9.67237 178.713 9.82522 178.992 9.82522C179.119 9.83079 179.246 9.82368 179.371 9.80399V10.8825C179.059 10.9816 178.736 11.0401 178.409 11.0566C177.793 11.0566 177.355 10.84 177.234 10.2074C176.567 10.7801 175.716 11.0824 174.844 11.0566C173.594 11.0566 172.478 10.3772 172.478 9.00149C172.478 7.24364 173.852 6.95916 175.135 6.81055C176.231 6.60249 177.218 6.72563 177.218 5.81273C177.218 5.01023 176.385 4.86162 175.789 4.86162C174.935 4.86162 174.331 5.21404 174.265 5.97833H172.744C172.853 4.16527 174.36 3.63452 175.885 3.63452C177.234 3.63452 178.646 4.195 178.646 5.67686L178.63 9.29023ZM177.109 7.33281C176.643 7.64277 175.906 7.63003 175.239 7.75741C174.573 7.88479 173.99 8.10983 173.99 8.92931C173.99 9.62141 174.856 9.82947 175.389 9.82947C176.06 9.82947 177.101 9.4728 177.101 8.49197L177.109 7.33281Z"
                fill="#838790"
              />
              <path
                d="M179.902 3.82371H181.355V4.84935L181.381 4.87457C181.6 4.4953 181.916 4.18092 182.295 3.9632C182.675 3.74547 183.105 3.63211 183.542 3.63456C185.049 3.63456 186 4.44582 186 6.00949V10.793H184.471V6.41302C184.442 5.32013 184.015 4.84935 183.114 4.84935C182.881 4.8484 182.65 4.89636 182.436 4.99015C182.223 5.08395 182.031 5.22152 181.873 5.39404C181.715 5.56657 181.595 5.77025 181.521 5.99204C181.446 6.21384 181.418 6.44885 181.439 6.68203V10.793H179.906L179.902 3.82371Z"
                fill="#838790"
              />
              <path
                d="M130.066 15.8303H131.759V21.415C131.759 22.6992 131.84 24.1885 134.041 24.1885C136.242 24.1885 136.318 22.6992 136.318 21.415V15.8303H138.011V21.963C138.011 24.4185 136.424 25.64 134.037 25.64C131.649 25.64 130.058 24.4185 130.058 21.963L130.066 15.8303Z"
                fill="#838790"
              />
              <path
                d="M139.337 18.4059H140.781V19.4315L140.81 19.4568C141.031 19.0744 141.349 18.758 141.731 18.5401C142.113 18.3222 142.546 18.2106 142.985 18.2168C144.483 18.2168 145.435 19.028 145.435 20.5917V25.375H143.907V20.9952C143.882 19.9023 143.452 19.4315 142.555 19.4315C141.541 19.4315 140.886 20.2386 140.886 21.2642V25.375H139.358L139.337 18.4059Z"
                fill="#838790"
              />
              <path
                d="M146.761 15.8303H148.352V17.2766H146.761V15.8303ZM146.761 18.4645H148.352V25.3749H146.761V18.4645Z"
                fill="#838790"
              />
              <path
                d="M148.882 18.4812H150.599L152.406 23.7738H152.432L154.148 18.4812H155.775L153.226 25.3745H151.466L148.882 18.4812Z"
                fill="#838790"
              />
              <path
                d="M157.579 22.3318C157.579 23.436 158.171 24.417 159.439 24.417C159.807 24.4475 160.174 24.3475 160.478 24.1339C160.782 23.9203 161.005 23.6062 161.107 23.2449H162.554C162.221 24.7823 160.936 25.6401 159.422 25.6401C157.258 25.6401 156.04 24.1028 156.04 21.9368C156.04 19.9323 157.325 18.2166 159.377 18.2166C161.553 18.2166 162.892 20.2211 162.638 22.3318H157.579ZM161.141 21.3083C161.141 20.8273 160.953 20.3661 160.619 20.026C160.285 19.6859 159.832 19.4949 159.36 19.4949C158.888 19.4949 158.435 19.6859 158.101 20.026C157.767 20.3661 157.579 20.8273 157.579 21.3083H161.141Z"
                fill="#838790"
              />
              <path
                d="M163.464 18.4058H164.871V19.7551H164.896C165.035 19.3228 165.299 18.9442 165.653 18.6695C166.007 18.3948 166.433 18.2369 166.876 18.2166C167.065 18.2153 167.254 18.2293 167.441 18.2587V19.7425C167.228 19.7055 167.014 19.683 166.798 19.6752C165.775 19.6752 164.961 20.5159 164.961 22.0585V25.375H163.464V18.4058Z"
                fill="#838790"
              />
              <path
                d="M169.011 23.1897C169.097 24.09 169.787 24.417 170.633 24.417C171.228 24.417 172.264 24.2939 172.225 23.487C172.186 22.68 171.034 22.5781 169.882 22.3191C168.731 22.06 167.587 21.665 167.587 20.2338C167.587 18.6922 169.274 18.2166 170.577 18.2166C172.044 18.2166 173.372 18.8154 173.566 20.3825H171.919C171.781 19.6478 171.159 19.4439 170.465 19.4439C170.007 19.4439 169.171 19.5543 169.171 20.1659C169.171 20.9261 170.331 21.0365 171.496 21.2956C172.661 21.5546 173.804 21.9623 173.804 23.3511C173.804 25.0498 172.078 25.6401 170.607 25.6401C168.808 25.6401 167.467 24.8502 167.441 23.1897H169.011Z"
                fill="#838790"
              />
              <path
                d="M174.599 15.8303H176.19V17.2766H174.599V15.8303ZM174.599 18.4645H176.19V25.3749H174.599V18.4645Z"
                fill="#838790"
              />
              <path
                d="M176.72 18.4338H177.924V16.3606H179.517V18.4338H180.962V19.5658H179.517V23.2354C179.517 23.8615 179.574 24.1808 180.29 24.1808C180.515 24.1895 180.741 24.1713 180.962 24.1269V25.2962C180.608 25.3252 180.272 25.3749 179.923 25.3749C178.26 25.3749 177.951 24.7654 177.924 23.621V19.5658H176.72V18.4338Z"
                fill="#838790"
              />
              <path
                d="M180.962 18.4812H182.642L184.461 23.7249H184.49L186.255 18.4812H187.855L185.15 25.8851C184.65 27.1558 184.285 28.2909 182.684 28.2909C182.327 28.2899 181.97 28.263 181.617 28.2105V26.9059C181.854 26.9535 182.094 26.9833 182.335 26.9948C183.05 26.9948 183.226 26.6136 183.415 26.0164L183.591 25.4742L180.962 18.4812Z"
                fill="#838790"
              />
              <path
                d="M24.4089 1.24805V29.2173C24.4089 34.1346 25.9615 36.3257 28.9328 36.3257C31.9042 36.3257 33.4108 34.1388 33.4108 29.2173V1.24805H38.3239V28.7281C38.3239 37.739 34.7834 41.0172 28.9245 41.0172C23.0655 41.0172 19.4999 37.739 19.4999 28.7281V1.24805H24.4089Z"
                fill="#838790"
              />
              <path
                d="M138.541 40.0006H137.474L137.221 38.8717C136.886 39.3119 136.451 39.6641 135.953 39.8986C135.455 40.1331 134.909 40.2429 134.36 40.2188C131.507 40.2188 129.792 37.9317 129.792 35.183C129.792 32.4343 131.495 30.1472 134.36 30.1472C136.436 30.1472 138.18 31.2635 138.433 33.4289H136.81C136.648 32.1699 135.564 31.5195 134.36 31.5195C132.321 31.5195 131.453 33.3366 131.453 35.1788C131.453 37.0211 132.304 38.8424 134.36 38.8424C136.062 38.8675 136.997 37.831 137.022 36.2028H134.493V34.9438H138.541V40.0006Z"
                fill="#838790"
              />
              <path
                d="M145.759 38.4622C145.759 38.8444 145.842 38.9972 146.121 38.9972C146.247 38.9997 146.372 38.9898 146.496 38.9675V40.046C146.184 40.1451 145.86 40.2036 145.534 40.2201C144.917 40.2201 144.48 40.0035 144.359 39.3709C143.69 39.9442 142.838 40.2465 141.964 40.2201C140.715 40.2201 139.603 39.5407 139.603 38.165C139.603 36.4072 140.977 36.1227 142.26 35.9741C143.355 35.766 144.343 35.8892 144.343 34.9763C144.343 34.1738 143.53 34.0252 142.914 34.0252C142.06 34.0252 141.456 34.3776 141.39 35.1419H139.869C139.973 33.3288 141.485 32.7981 143.006 32.7981C144.355 32.7981 145.771 33.3586 145.771 34.8404L145.759 38.4622ZM144.238 36.5048C143.772 36.8148 143.035 36.8021 142.368 36.9294C141.702 37.0568 141.119 37.2819 141.119 38.1013C141.119 38.7934 141.989 39.0015 142.522 39.0015C143.193 39.0015 144.234 38.6448 144.234 37.664L144.238 36.5048Z"
                fill="#838790"
              />
              <path
                d="M148.273 37.7712C148.351 38.6716 149.012 38.9986 149.822 38.9986C150.392 38.9986 151.388 38.8754 151.347 38.0727C151.305 37.2701 150.206 37.1597 149.107 36.9006C148.008 36.6415 146.897 36.2466 146.897 34.8154C146.897 33.2737 148.517 32.7981 149.76 32.7981C151.165 32.7981 152.437 33.3969 152.623 34.964H151.045C150.913 34.2293 150.318 34.0254 149.657 34.0254C149.219 34.0254 148.417 34.1359 148.417 34.7474C148.417 35.5076 149.533 35.5968 150.644 35.8771C151.756 36.1574 152.859 36.5439 152.859 37.9326C152.859 39.6101 151.206 40.2217 149.797 40.2217C148.075 40.2217 146.79 39.4317 146.761 37.7712H148.273Z"
                fill="#838790"
              />
              <path
                d="M152.859 33.0763H154.063V30.9421H155.656V33.0763H157.101V34.2416H155.656V38.0191C155.656 38.6636 155.713 38.9923 156.429 38.9923C156.654 39.0013 156.88 38.9826 157.101 38.9368V40.1405C156.752 40.1704 156.415 40.2216 156.062 40.2216C154.399 40.2216 154.089 39.5942 154.063 38.4161V34.2416H152.859V33.0763Z"
                fill="#838790"
              />
              <path
                d="M158.971 36.9133C158.971 38.0175 159.582 38.9986 160.901 38.9986C161.283 39.0291 161.665 38.929 161.981 38.7154C162.298 38.5018 162.529 38.1877 162.635 37.8264H164.14C163.793 39.3638 162.457 40.2217 160.883 40.2217C158.632 40.2217 157.366 38.6843 157.366 36.5184C157.366 34.5138 158.702 32.7981 160.835 32.7981C163.104 32.7981 164.492 34.8026 164.227 36.9133H158.971ZM162.67 35.8898C162.682 35.6446 162.643 35.3995 162.556 35.1694C162.468 34.9393 162.334 34.729 162.161 34.5512C161.988 34.3735 161.78 34.2319 161.55 34.1352C161.319 34.0385 161.071 33.9887 160.82 33.9887C160.57 33.9887 160.321 34.0385 160.091 34.1352C159.86 34.2319 159.652 34.3735 159.479 34.5512C159.307 34.729 159.172 34.9393 159.085 35.1694C158.997 35.3995 158.958 35.6446 158.971 35.8898H162.67Z"
                fill="#838790"
              />
              <path
                d="M165.055 30.4124H166.646V31.8586H165.055V30.4124ZM165.055 33.0465H166.646V39.957H165.055V33.0465Z"
                fill="#838790"
              />
              <path
                d="M167.708 33.0632H173.338V34.1317L169.359 38.7592H173.539V39.9566H167.441V38.8922L171.273 34.2648H167.708V33.0632Z"
                fill="#838790"
              />
              <path
                d="M49.5509 40.1255H44.1564V0.98291H49.5509L59.6412 26.5253V0.98291H64.5712V40.2218H59.5491L50.0155 16.0571V40.1255H49.5509Z"
                fill="#838790"
              />
              <path
                d="M70.6693 39.9567V0.98291H84.3163L84.7211 6.40288H76.2892V18.0767H83.0347V23.0797H76.2892V34.7535H84.7211L84.2067 39.9567H70.6693Z"
                fill="#838790"
              />
              <path
                d="M0.144897 39.9567V0.98291H13.7919L14.1967 6.40288H5.76476V18.0767H12.5103V23.0797H5.76476V34.7535H14.1967L13.6823 39.9567H0.144897Z"
                fill="#838790"
              />
              <path
                d="M91.0042 0.98291H96.6034L94.2482 26.4151L97.7125 39.9567H91.7435L88.433 26.832L91.0042 0.98291Z"
                fill="#838790"
              />
              <path
                d="M100.364 40.2218H119.206L120.077 35.3185H108.011L121.044 0.98291H102.874L102.321 6.42636H113.47L100.364 40.2218Z"
                fill="#838790"
              />
            </svg>