        <svg
              width="100"
              height="50"
              viewBox="0 0 178 56"
              fill="none"
              xmlns="http://www.w3.org/2000/svg"
              className="object-contain my-auto"
            >
              <path
                d="M132.825 0.83718C127.609 1.33304 123.354 4.23737 121.157 8.70011C119.098 12.9503 119.236 18.4757 121.569 22.5842C125.962 30.2346 137.08 32.1472 144.149 26.4094C146.208 24.7093 147.924 22.1592 148.748 19.4674C149.228 17.7673 149.434 14.5088 149.091 12.667C147.855 5.01658 140.924 0.0579705 132.825 0.83718ZM137.011 6.50416C141.129 7.63756 143.669 11.9586 143.051 16.7047C142.571 20.2466 140.58 22.7967 137.423 23.9301C135.845 24.4968 133.168 24.4968 131.59 23.9301C127.746 22.5134 125.618 18.9007 125.962 14.4379C126.236 10.5419 128.432 7.63756 131.933 6.50416C132.894 6.14997 135.845 6.14997 137.011 6.50416Z"
                fill="#838790"
              />
              <path
                d="M164.73 0.837874C158.69 1.40457 154.915 5.08811 155.327 10.0467C155.533 13.1636 157.386 15.3595 160.68 16.5637C161.435 16.8471 163.563 17.4138 165.416 17.9805C169.946 19.1847 170.907 19.7514 171.044 21.4515C171.181 22.5849 170.632 23.4349 169.397 24.0725C168.573 24.5683 168.367 24.5683 165.622 24.5683C162.945 24.5683 162.602 24.4975 161.229 24.0725C160.406 23.7891 159.033 23.2224 158.21 22.7974L156.768 22.0182L155.739 24.3558L154.709 26.6935L155.327 27.1893C156.288 27.8269 158.484 28.8186 160.269 29.2436C167.2 31.0145 173.789 29.3144 176.123 25.2059C177.221 23.2224 177.427 20.3181 176.603 18.4055C176.054 17.1304 174.407 15.572 172.966 14.8636C172.348 14.5803 170.701 14.0136 169.397 13.6594C163.014 11.8885 162.122 11.5343 161.573 10.6134C160.886 9.40918 161.367 7.85076 162.671 6.92988C164.524 5.65481 169.191 5.93815 172.554 7.49657C173.309 7.85076 173.995 8.06327 174.064 7.99243C174.201 7.77992 175.848 3.67136 175.848 3.45885C175.848 3.31718 174.064 2.39629 172.828 1.97127C170.701 0.979549 167.406 0.625363 164.73 0.837874Z"
                fill="#838790"
              />
              <path
                d="M63.9092 1.11945C58.4186 2.32368 54.3693 6.14889 52.9966 11.5325C52.5162 13.4451 52.4476 16.8453 52.928 18.7579C53.9575 23.079 57.3205 27.0459 61.4384 28.6751C63.5661 29.5252 64.7328 29.7377 67.4781 29.7377C70.4293 29.6669 72.0079 29.3127 74.3414 28.1793C77.224 26.7625 79.4888 24.4249 80.7928 21.5914C81.8223 19.3955 82.0969 18.1912 82.0969 15.2161C82.0969 13.0201 82.0282 12.3826 81.6851 11.2492C80.1065 6.00722 76.1258 2.32368 70.9784 1.19029C68.9194 0.765264 65.7623 0.765264 63.9092 1.11945ZM69.5371 6.43224C73.3119 7.35313 75.8513 10.7533 75.9199 15.0744C75.9199 17.0578 75.6454 18.4037 74.8904 19.8913C71.802 25.9833 62.6738 25.8416 59.7226 19.7496C57.7323 15.4994 58.8304 10.2575 62.1934 7.84899C64.2524 6.3614 67.135 5.86554 69.5371 6.43224Z"
                fill="#838790"
              />
              <path
                d="M0.841888 3.8119V6.43287H6.81293H12.784V17.9793V29.5258H15.9411H19.0982V15.2875V1.19092H9.9014H0.841888V3.8119Z"
                fill="#838790"
              />
              <path
                d="M27.8153 3.8119V6.43287H30.3547C33.6491 6.43287 35.2276 6.64538 36.3944 7.28292C38.1102 8.27464 39.0024 10.3289 38.522 12.454C38.2475 13.9416 37.5611 14.8625 36.2571 15.5709C35.2276 16.1376 35.0904 16.1376 32.6196 16.2084C31.1783 16.2792 30.0802 16.3501 30.0802 16.3501C30.0802 16.4209 35.159 24.0005 37.8357 27.8257L38.8652 29.3133L42.1595 29.3841C44.1499 29.3841 45.4539 29.3841 45.4539 29.2425C45.4539 29.1716 44.1499 27.1173 42.5713 24.7797C40.9928 22.4421 39.6888 20.4586 39.6888 20.3878C39.6888 20.317 40.1692 19.9628 40.7182 19.6086C43.4635 17.9793 45.0421 15.0042 45.0421 11.4623C45.0421 6.57455 42.2968 3.10352 37.5611 1.75762C36.3944 1.47427 35.5022 1.33259 32.0705 1.26176L27.9526 1.19092V3.8119H27.8153Z"
                fill="#838790"
              />
              <path
                d="M90.1336 3.81242V6.4334H96.5164C100.36 6.4334 103.242 6.50423 103.791 6.64591C105.095 6.92926 106.194 7.70847 106.811 8.77103C107.292 9.55023 107.292 9.83358 107.292 11.3212C107.292 12.6671 107.223 13.1629 106.88 13.7296C106.331 14.7214 105.645 15.3589 104.409 15.8547C103.448 16.2089 103.037 16.2798 96.7909 16.2798H90.1336V22.726V29.243H93.222H96.3105V25.3469V21.4509L100.703 21.3801C104.066 21.3092 105.301 21.2384 106.125 20.955C110.998 19.5383 113.606 16.2089 113.675 11.4628C113.743 7.42512 112.096 4.52079 108.733 2.74986C106.194 1.40395 105.576 1.33312 97.4773 1.19144L90.2022 1.12061V3.81242H90.1336Z"
                fill="#838790"
              />
              <path
                d="M0.909501 36.7533C0.909501 36.895 0.840869 38.0284 0.909501 39.3743L0.978134 41.7828L33.2355 41.8536L65.4928 41.9244L66.7968 43.1287C67.5518 43.837 70.7775 46.8122 74.0719 49.8582C77.2976 52.9042 80.0429 55.3127 80.1802 55.2418C80.2488 55.171 80.3175 52.125 80.3175 48.4415V41.8536H128.703H177.158L177.089 39.2326L177.021 36.6116H126.095H75.17L75.1014 40.0827C75.1014 41.9953 75.0328 43.5537 74.9641 43.5537C74.8955 43.5537 73.1797 41.9953 71.0521 40.0118L67.2086 36.47H34.1277C7.08644 36.47 0.978134 36.5408 0.909501 36.7533Z"
                fill="#838790"
              />
              <path
                d="M159.719 43.2684L158.758 44.2601H159.582C160.337 44.2601 160.543 44.1184 161.572 43.2684C162.19 42.7725 162.739 42.2766 162.739 42.2766C162.739 42.2058 162.259 42.2058 161.709 42.2058C160.749 42.2766 160.68 42.2766 159.719 43.2684Z"
                fill="#838790"
              />
              <path
                d="M97.7453 45.0391C96.7159 45.3225 96.2354 45.6058 95.4805 46.3142C94.3137 47.3768 93.9706 48.2977 93.9706 49.9977C93.9706 51.6978 94.3137 52.6187 95.4805 53.6813C96.5786 54.673 97.3336 54.9564 98.9807 55.0272C102.138 55.0272 104.128 53.1146 104.128 49.9977C104.128 47.0934 102.344 45.1808 99.3925 44.9683C98.7748 44.8975 98.0199 44.9683 97.7453 45.0391ZM100.559 47.1643C101.589 47.8726 102.001 48.6518 102.001 49.9977C102.001 51.3437 101.589 52.1229 100.559 52.8312C99.8043 53.3271 98.6376 53.3979 97.7453 52.9729C95.6177 51.9812 95.6177 48.156 97.6767 47.0934C98.5689 46.5976 99.8043 46.5976 100.559 47.1643Z"
                fill="#838790"
              />
              <path
                d="M143.797 44.9698C142.63 45.2532 142.15 45.5365 141.395 46.2449C140.16 47.4491 139.817 48.2283 139.817 49.9993C139.817 51.6994 140.16 52.5494 141.326 53.6828C142.974 55.3829 145.856 55.5246 147.915 54.1787L148.807 53.612L148.121 52.9036L147.435 52.1952L146.817 52.6911C145.925 53.3995 144.552 53.4703 143.591 52.9744C142.562 52.4077 142.013 51.4868 142.013 50.0701C142.013 48.7242 142.562 47.7325 143.591 47.1658C144.621 46.5991 145.65 46.6699 146.68 47.3075L147.503 47.8033L148.19 47.1658C149.013 46.4574 148.945 46.2449 147.503 45.5365C146.543 45.0407 144.621 44.7573 143.797 44.9698Z"
                fill="#838790"
              />
              <path
                d="M158.757 45.0391C157.727 45.3225 157.247 45.6058 156.492 46.3142C155.325 47.3768 154.982 48.2977 154.982 49.9977C154.982 51.6978 155.325 52.6187 156.492 53.6813C157.59 54.673 158.345 54.9564 159.992 55.0272C163.149 55.0272 165.14 53.1146 165.14 49.9977C165.14 47.0934 163.355 45.1808 160.404 44.9683C159.786 44.8975 159.031 44.9683 158.757 45.0391ZM161.571 47.1643C162.6 47.8726 163.012 48.6518 163.012 49.9977C163.012 51.3437 162.6 52.1229 161.571 52.8312C160.816 53.3271 159.649 53.3979 158.757 52.9729C156.629 51.9812 156.629 48.156 158.688 47.0934C159.58 46.5976 160.816 46.5976 161.571 47.1643Z"
                fill="#838790"
              />
              <path
                d="M85.3917 49.9269V54.8146H86.4898H87.5193L87.588 52.9729L87.6566 51.2019L89.8528 51.1311L92.0491 51.0603V50.3519V49.5018H89.7842H87.5193L87.588 48.1559L87.6566 46.81L90.1274 46.7392L92.5982 46.6684V45.8183V44.9683H89.0293H85.4604V49.9269H85.3917Z"
                fill="#838790"
              />
              <path
                d="M106.118 49.9269V54.8146H107.216H108.245L108.314 53.4687L108.383 52.1228L109.343 52.052L110.304 51.9811L111.265 53.3979L112.226 54.8146H113.393H114.56L113.461 53.2562L112.363 51.7686L112.981 51.3436C114.56 50.2811 114.765 47.5892 113.393 46.1725C112.501 45.2516 111.334 44.9683 108.451 44.9683H106.049V49.9269H106.118ZM111.128 47.0225C111.883 47.4476 112.295 48.1559 112.157 49.006C111.951 50.0685 111.471 50.3519 109.755 50.4227L108.245 50.4936V48.7226C108.245 47.7309 108.314 46.8809 108.383 46.8809C108.657 46.5975 110.51 46.7392 111.128 47.0225Z"
                fill="#838790"
              />
              <path
                d="M116.545 49.9263V54.8849H117.643H118.673L118.741 52.1223L118.81 49.3596L120.114 51.5556C121.281 53.4682 121.486 53.7516 121.898 53.7516C122.447 53.8224 122.516 53.6807 123.82 51.4139L125.193 49.0055V51.9098V54.8141H126.153H127.114V49.9263V45.0386H126.291H125.399L123.683 48.0846C122.722 49.7847 121.898 51.0597 121.83 50.9889C121.761 50.9181 120.937 49.5722 120.045 48.0137L118.398 45.1802L117.437 45.1094L116.476 45.0386V49.9263H116.545Z"
                fill="#838790"
              />
              <path
                d="M132.41 45.8195C132.204 46.2445 131.312 48.4404 130.351 50.6364C129.39 52.8323 128.635 54.7449 128.635 54.7449C128.635 54.8158 129.116 54.8866 129.665 54.8866H130.694L131.106 53.8949L131.518 52.9032H133.783H136.048L136.528 53.8949L136.94 54.8866H138.038C138.656 54.8866 139.136 54.8158 139.068 54.7449C139.068 54.6741 138.107 52.4073 136.94 49.8572L134.881 45.1111H133.851H132.822L132.41 45.8195ZM134.606 49.2905C134.95 50.1405 135.224 50.9197 135.224 50.9906C135.224 51.0614 134.606 51.1322 133.783 51.1322C132.753 51.1322 132.342 51.0614 132.342 50.9197C132.342 50.4239 133.646 47.3779 133.783 47.5904C133.92 47.6612 134.263 48.4404 134.606 49.2905Z"
                fill="#838790"
              />
              <path
                d="M150.594 49.9263V54.8141H151.692H152.79V49.9263V45.0386H151.692H150.594V49.9263Z"
                fill="#838790"
              />
              <path
                d="M167.135 49.9263V54.8141H168.233H169.331L169.399 51.8389L169.468 48.8638L171.802 51.8389L174.135 54.8141H175.027H175.851V49.9263V45.0386H174.89H173.792L173.723 48.0137L173.655 51.0597L171.321 48.0846L168.988 45.1094H168.027H167.066V49.9263H167.135Z"
                fill="#838790"
              />
            </svg>