<svg width="315" height="68" viewBox="0 0 315 68" fill="none" xmlns="http://www.w3.org/2000/svg">
<path d="M218.919 0.532104H230.353V2.96074H221.702V7.1601H229.708V9.45575H221.702V14.124H230.485V16.5457H218.919V0.532104Z" fill="#CCD1DC"/>
<path d="M242.474 16.6732H239.956V15.0441H239.907C239.571 15.6277 239.09 16.1137 238.511 16.4548C237.932 16.7959 237.275 16.9805 236.605 16.9905C233.568 16.9905 232.264 15.4531 232.264 12.3994V4.98035H234.851V12.1526C234.851 14.2119 235.679 14.9735 237.074 14.9735C239.213 14.9735 239.928 13.5631 239.928 11.7788V4.98035H242.495L242.474 16.6732Z" fill="#CCD1DC"/>
<path d="M244.719 4.85311H247.073V7.1169H247.121C247.354 6.39056 247.797 5.75436 248.39 5.29318C248.984 4.83199 249.7 4.56777 250.444 4.53575C250.761 4.53383 251.078 4.55741 251.391 4.60628V7.09574C251.035 7.03373 250.675 6.99604 250.313 6.9829C248.59 6.9829 247.231 8.39336 247.231 10.9816V16.5458H244.719V4.85311Z" fill="#CCD1DC"/>
<path d="M250.946 10.756C250.946 7.1435 253.097 4.53564 256.948 4.53564C260.798 4.53564 262.957 7.1435 262.957 10.756C262.957 14.3685 260.77 16.9906 256.955 16.9906C253.141 16.9906 250.946 14.3899 250.946 10.756ZM260.325 10.756C260.325 8.71819 259.293 6.59485 256.948 6.59485C254.603 6.59485 253.564 8.73244 253.564 10.756C253.564 12.7796 254.603 14.9386 256.948 14.9386C259.293 14.9386 260.325 12.8081 260.325 10.756Z" fill="#CCD1DC"/>
<path d="M264.736 4.86414H267.172V6.46221H267.249C267.616 5.83669 268.146 5.32623 268.782 4.98765C269.418 4.64908 270.135 4.49568 270.852 4.54452C274.524 4.54452 276.301 7.38554 276.301 10.809C276.301 13.9767 274.728 16.9598 271.28 16.9598C270.53 17.0031 269.781 16.8569 269.101 16.5346C268.42 16.2122 267.83 15.7237 267.383 15.1131H267.341V20.994H264.771L264.736 4.86414ZM270.48 6.59716C268.317 6.59716 267.214 8.25916 267.214 10.7664C267.214 13.1315 268.408 14.9142 270.48 14.9142C272.825 14.9142 273.703 12.7835 273.703 10.7664C273.703 8.74923 272.6 6.59716 270.48 6.59716Z" fill="#CCD1DC"/>
<path d="M279.772 11.44C279.772 13.2926 280.758 14.9386 282.891 14.9386C283.508 14.9884 284.123 14.82 284.633 14.4618C285.142 14.1036 285.515 13.5775 285.688 12.972H288.115C287.555 15.5513 285.401 16.9906 282.87 16.9906C279.233 16.9906 277.191 14.4113 277.191 10.7774C277.191 7.41426 279.345 4.53564 282.786 4.53564C286.443 4.53564 288.681 7.89878 288.262 11.44H279.772ZM285.737 9.72285C285.757 9.31139 285.694 8.90017 285.553 8.51412C285.412 8.12807 285.195 7.77522 284.916 7.47697C284.638 7.17873 284.302 6.94129 283.931 6.77905C283.559 6.61682 283.159 6.53316 282.754 6.53316C282.35 6.53316 281.95 6.61682 281.578 6.77905C281.207 6.94129 280.871 7.17873 280.593 7.47697C280.314 7.77522 280.097 8.12807 279.956 8.51412C279.815 8.90017 279.752 9.31139 279.772 9.72285H285.737Z" fill="#CCD1DC"/>
<path d="M299.522 14.0246C299.522 14.6657 299.662 14.9222 300.13 14.9222C300.343 14.9315 300.556 14.9196 300.766 14.8866V16.696C300.242 16.8623 299.7 16.9604 299.152 16.9881C298.118 16.9881 297.384 16.6248 297.181 15.5633C296.061 16.5242 294.633 17.0314 293.17 16.9881C291.074 16.9881 289.201 15.8483 289.201 13.5402C289.201 10.5909 291.507 10.1136 293.659 9.86426C295.497 9.51519 297.153 9.72179 297.153 8.19016C297.153 6.84376 295.756 6.59443 294.756 6.59443C293.324 6.59443 292.31 7.18571 292.199 8.46799H289.648C289.83 5.42612 292.359 4.53564 294.917 4.53564C297.181 4.53564 299.55 5.47599 299.55 7.9622L299.522 14.0246ZM296.972 10.7405C296.189 11.2605 294.952 11.2392 293.834 11.4529C292.716 11.6666 291.737 12.0442 291.737 13.419C291.737 14.5802 293.191 14.9293 294.085 14.9293C295.211 14.9293 296.958 14.3309 296.958 12.6853L296.972 10.7405Z" fill="#CCD1DC"/>
<path d="M301.657 4.85306H304.095V6.57383L304.137 6.61615C304.506 5.97982 305.035 5.45238 305.671 5.08709C306.308 4.7218 307.03 4.5316 307.763 4.53571C310.292 4.53571 311.888 5.89681 311.888 8.52027V16.5458H309.323V9.1973C309.274 7.36369 308.557 6.57383 307.046 6.57383C306.655 6.57224 306.267 6.6527 305.909 6.81007C305.55 6.96744 305.228 7.19825 304.964 7.4877C304.699 7.77716 304.498 8.11889 304.372 8.49101C304.247 8.86312 304.2 9.25742 304.235 9.64865V16.5458H301.664L301.657 4.85306Z" fill="#CCD1DC"/>
<path d="M218.044 24.9974H220.885V34.3671C220.885 36.5218 221.02 39.0204 224.713 39.0204C228.406 39.0204 228.534 36.5218 228.534 34.3671V24.9974H231.375V35.2866C231.375 39.4064 228.711 41.4558 224.706 41.4558C220.7 41.4558 218.03 39.4064 218.03 35.2866L218.044 24.9974Z" fill="#CCD1DC"/>
<path d="M233.598 29.3186H236.021V31.0393L236.07 31.0816C236.44 30.4401 236.973 29.9093 237.614 29.5437C238.256 29.1781 238.982 28.9909 239.719 29.0013C242.232 29.0013 243.829 30.3623 243.829 32.9857V41.011H241.266V33.6627C241.224 31.8292 240.503 31.0393 238.997 31.0393C237.296 31.0393 236.196 32.3933 236.196 34.1141V41.011H233.633L233.598 29.3186Z" fill="#CCD1DC"/>
<path d="M246.053 24.9974H248.722V27.4239H246.053V24.9974ZM246.053 29.4169H248.722V41.011H246.053V29.4169Z" fill="#CCD1DC"/>
<path d="M249.612 29.4457H252.493L255.524 38.3255H255.568L258.448 29.4457H261.177L256.9 41.011H253.947L249.612 29.4457Z" fill="#CCD1DC"/>
<path d="M264.204 35.9053C264.204 37.7578 265.198 39.4038 267.325 39.4038C267.942 39.4549 268.558 39.2871 269.068 38.9287C269.578 38.5703 269.951 38.0434 270.123 37.4372H272.551C271.991 40.0165 269.836 41.4559 267.297 41.4559C263.665 41.4559 261.622 38.8765 261.622 35.2426C261.622 31.8795 263.777 29.0009 267.22 29.0009C270.872 29.0009 273.118 32.364 272.691 35.9053H264.204ZM270.179 34.1881C270.179 33.3811 269.865 32.6073 269.304 32.0367C268.744 31.4661 267.984 31.1456 267.192 31.1456C266.399 31.1456 265.639 31.4661 265.079 32.0367C264.519 32.6073 264.204 33.3811 264.204 34.1881H270.179Z" fill="#CCD1DC"/>
<path d="M274.077 29.3184H276.439V31.5821H276.48C276.714 30.8569 277.157 30.2218 277.75 29.7608C278.344 29.2999 279.059 29.035 279.802 29.001C280.119 28.9987 280.436 29.0223 280.75 29.0715V31.561C280.393 31.499 280.033 31.4613 279.672 31.4481C277.956 31.4481 276.59 32.8586 276.59 35.4468V41.011H274.077V29.3184Z" fill="#CCD1DC"/>
<path d="M283.384 37.3446C283.529 38.8551 284.687 39.4038 286.105 39.4038C287.104 39.4038 288.841 39.1971 288.776 37.8433C288.711 36.4895 286.779 36.3185 284.846 35.8839C282.914 35.4492 280.996 34.7866 280.996 32.3854C280.996 29.7989 283.826 29.0009 286.011 29.0009C288.472 29.0009 290.701 30.0055 291.027 32.6347H288.262C288.031 31.4021 286.988 31.0601 285.823 31.0601C285.056 31.0601 283.652 31.2453 283.652 32.2714C283.652 33.5468 285.599 33.732 287.553 34.1667C289.507 34.6013 291.425 35.2854 291.425 37.6153C291.425 40.4654 288.53 41.4559 286.062 41.4559C283.044 41.4559 280.793 40.1305 280.75 37.3446H283.384Z" fill="#CCD1DC"/>
<path d="M292.76 24.9974H295.429V27.4239H292.76V24.9974ZM292.76 29.4169H295.429V41.011H292.76V29.4169Z" fill="#CCD1DC"/>
<path d="M296.318 29.3654H298.339V25.8871H301.011V29.3654H303.435V31.2646H301.011V37.4213C301.011 38.4718 301.106 39.0075 302.307 39.0075C302.686 39.0221 303.064 38.9917 303.435 38.917V40.8788C302.842 40.9275 302.278 41.011 301.692 41.011C298.902 41.011 298.383 39.9884 298.339 38.0683V31.2646H296.318V29.3654Z" fill="#CCD1DC"/>
<path d="M303.435 29.4457H306.254L309.305 38.2434H309.355L312.315 29.4457H315L310.461 41.8676C309.623 43.9996 309.009 45.9041 306.324 45.9041C305.725 45.9023 305.127 45.8572 304.534 45.7691V43.5803C304.932 43.6603 305.334 43.7101 305.739 43.7295C306.937 43.7295 307.233 43.0899 307.551 42.0879L307.847 41.1783L303.435 29.4457Z" fill="#CCD1DC"/>
<path d="M40.776 0.532104V47.4579C40.776 55.708 43.381 59.3841 48.3662 59.3841C53.3514 59.3841 55.8791 55.715 55.8791 47.4579V0.532104H64.1222V46.6371C64.1222 61.7552 58.1821 67.2553 48.3521 67.2553C38.5222 67.2553 32.5399 61.7552 32.5399 46.6371V0.532104H40.776Z" fill="#CCD1DC"/>
<path d="M232.263 65.5493H230.473L230.048 63.6554C229.486 64.3939 228.757 64.9848 227.921 65.3782C227.086 65.7716 226.169 65.9559 225.248 65.9155C220.462 65.9155 217.584 62.0783 217.584 57.4666C217.584 52.8549 220.441 49.0177 225.248 49.0177C228.731 49.0177 231.657 50.8905 232.082 54.5236H229.358C229.087 52.4113 227.268 51.32 225.248 51.32C221.827 51.32 220.371 54.3687 220.371 57.4595C220.371 60.5504 221.799 63.6061 225.248 63.6061C228.104 63.6483 229.672 61.9093 229.714 59.1775H225.471V57.0653H232.263V65.5493Z" fill="#CCD1DC"/>
<path d="M244.372 62.969C244.372 63.6102 244.512 63.8666 244.98 63.8666C245.191 63.8708 245.402 63.8541 245.609 63.8168V65.6262C245.085 65.7925 244.543 65.8906 243.995 65.9183C242.961 65.9183 242.227 65.5549 242.024 64.4935C240.902 65.4555 239.472 65.9627 238.006 65.9183C235.91 65.9183 234.044 64.7785 234.044 62.4704C234.044 59.5211 236.35 59.0438 238.502 58.7945C240.34 58.4454 241.996 58.652 241.996 57.1204C241.996 55.774 240.634 55.5247 239.599 55.5247C238.167 55.5247 237.154 56.116 237.042 57.3983H234.491C234.666 54.3564 237.203 53.4659 239.753 53.4659C242.017 53.4659 244.393 54.4063 244.393 56.8925L244.372 62.969ZM241.822 59.685C241.039 60.205 239.802 60.1836 238.684 60.3973C237.566 60.6111 236.588 60.9886 236.588 62.3635C236.588 63.5247 238.048 63.8737 238.943 63.8737C240.068 63.8737 241.815 63.2753 241.815 61.6298L241.822 59.685Z" fill="#CCD1DC"/>
<path d="M248.59 61.8097C248.722 63.3202 249.831 63.8689 251.189 63.8689C252.146 63.8689 253.816 63.6622 253.747 62.3155C253.678 60.9689 251.834 60.7836 249.99 60.349C248.146 59.9143 246.282 59.2517 246.282 56.8505C246.282 54.264 248.999 53.4659 251.085 53.4659C253.442 53.4659 255.577 54.4706 255.889 57.0998H253.241C253.019 55.8672 252.021 55.5251 250.912 55.5251C250.177 55.5251 248.833 55.7104 248.833 56.7365C248.833 58.0119 250.704 58.1615 252.569 58.6318C254.433 59.102 256.284 59.7504 256.284 62.0804C256.284 64.8949 253.511 65.9209 251.148 65.9209C248.257 65.9209 246.102 64.5956 246.053 61.8097H248.59Z" fill="#CCD1DC"/>
<path d="M256.284 53.9327H258.305V50.3521H260.978V53.9327H263.401V55.8878H260.978V62.2256C260.978 63.3069 261.073 63.8583 262.274 63.8583C262.652 63.8733 263.031 63.8421 263.401 63.7652V65.7847C262.816 65.8349 262.252 65.9208 261.659 65.9208C258.869 65.9208 258.349 64.8681 258.305 62.8916V55.8878H256.284V53.9327Z" fill="#CCD1DC"/>
<path d="M266.538 60.3703C266.538 62.2229 267.564 63.8689 269.776 63.8689C270.419 63.92 271.059 63.7522 271.59 63.3938C272.12 63.0354 272.508 62.5085 272.687 61.9023H275.212C274.63 64.4816 272.389 65.9209 269.747 65.9209C265.971 65.9209 263.846 63.3416 263.846 59.7077C263.846 56.3446 266.087 53.4659 269.667 53.4659C273.473 53.4659 275.801 56.8291 275.357 60.3703H266.538ZM272.745 58.6532C272.766 58.2417 272.7 57.8305 272.554 57.4444C272.407 57.0584 272.182 56.7055 271.891 56.4073C271.601 56.109 271.252 55.8716 270.865 55.7094C270.479 55.5471 270.062 55.4635 269.642 55.4635C269.221 55.4635 268.805 55.5471 268.418 55.7094C268.031 55.8716 267.682 56.109 267.392 56.4073C267.102 56.7055 266.877 57.0584 266.73 57.4444C266.583 57.8305 266.518 58.2417 266.538 58.6532H272.745Z" fill="#CCD1DC"/>
<path d="M276.747 49.4625H279.416V51.889H276.747V49.4625ZM276.747 53.882H279.416V65.4761H276.747V53.882Z" fill="#CCD1DC"/>
<path d="M281.198 53.9106H290.644V55.7033L283.968 63.4671H290.98V65.476H280.75V63.6903L287.18 55.9266H281.198V53.9106Z" fill="#CCD1DC"/>
<path d="M82.9584 65.7594H73.9076V0.0874023H82.9584L99.8874 42.9414V0.0874023H108.159V65.921H99.7329L83.7378 25.3783V65.7594H82.9584Z" fill="#CCD1DC"/>
<path d="M118.39 65.4761V0.0874023H141.287L141.966 9.18083H127.819V28.7667H139.137V37.1606H127.819V56.7465H141.966L141.103 65.4761H118.39Z" fill="#CCD1DC"/>
<path d="M0.0673828 65.4761V0.0874023H22.9639L23.6429 9.18083H9.49618V28.7667H20.8136V37.1606H9.49618V56.7465H23.6429L22.78 65.4761H0.0673828Z" fill="#CCD1DC"/>
<path d="M152.507 0.0874023H161.902L157.95 42.7566L163.762 65.4761H153.748L148.193 43.4561L152.507 0.0874023Z" fill="#CCD1DC"/>
<path d="M168.21 65.921H199.823L201.285 57.6944H181.041L202.906 0.0874023H172.422L171.494 9.22022H190.2L168.21 65.921Z" fill="#CCD1DC"/>
</svg>
