<svg width="24" height="20" viewBox="0 0 24 20" fill="none" xmlns="http://www.w3.org/2000/svg">
<path d="M22.56 0H1.44C1.05822 0.000413427 0.692189 0.151056 0.422227 0.418876C0.152264 0.686695 0.000416734 1.04982 0 1.42857V18.5714C0.000416734 18.9502 0.152264 19.3133 0.422227 19.5811C0.692189 19.8489 1.05822 19.9996 1.44 20H22.56C22.9418 19.9996 23.3078 19.8489 23.5778 19.5811C23.8477 19.3133 23.9996 18.9502 24 18.5714V1.42857C23.9996 1.04982 23.8477 0.686695 23.5778 0.418876C23.3078 0.151056 22.9418 0.000413427 22.56 0ZM23.04 18.5714C23.0399 18.6977 22.9893 18.8187 22.8993 18.908C22.8093 18.9973 22.6873 19.0475 22.56 19.0476H1.44C1.31274 19.0475 1.19072 18.9973 1.10073 18.908C1.01074 18.8187 0.960127 18.6977 0.96 18.5714V1.42857C0.960127 1.30232 1.01074 1.18127 1.10073 1.09199C1.19072 1.00272 1.31274 0.952507 1.44 0.952381H22.56C22.6873 0.952507 22.8093 1.00272 22.8993 1.09199C22.9893 1.18127 23.0399 1.30232 23.04 1.42857V18.5714ZM18.72 6.19048C18.72 6.31677 18.6694 6.43789 18.5794 6.52719C18.4894 6.61649 18.3673 6.66666 18.24 6.66667H5.76C5.6327 6.66667 5.51061 6.6165 5.42059 6.52719C5.33057 6.43789 5.28 6.31677 5.28 6.19048C5.28 6.06418 5.33057 5.94306 5.42059 5.85376C5.51061 5.76446 5.6327 5.71429 5.76 5.71429H18.24C18.3673 5.71429 18.4894 5.76446 18.5794 5.85377C18.6694 5.94307 18.72 6.06418 18.72 6.19048ZM18.72 10C18.72 10.1263 18.6694 10.2474 18.5794 10.3367C18.4894 10.426 18.3673 10.4762 18.24 10.4762H5.76C5.6327 10.4762 5.51061 10.426 5.42059 10.3367C5.33057 10.2474 5.28 10.1263 5.28 10C5.28 9.87371 5.33057 9.75259 5.42059 9.66328C5.51061 9.57398 5.6327 9.52381 5.76 9.52381H18.24C18.3673 9.52382 18.4894 9.57399 18.5794 9.66329C18.6694 9.75259 18.72 9.87371 18.72 10ZM18.72 13.8095C18.72 13.9358 18.6694 14.0569 18.5794 14.1462C18.4894 14.2355 18.3673 14.2857 18.24 14.2857H5.76C5.6327 14.2857 5.51061 14.2355 5.42059 14.1462C5.33057 14.0569 5.28 13.9358 5.28 13.8095C5.28 13.6832 5.33057 13.5621 5.42059 13.4728C5.51061 13.3835 5.6327 13.3333 5.76 13.3333H18.24C18.3673 13.3333 18.4894 13.3835 18.5794 13.4728C18.6694 13.5621 18.72 13.6832 18.72 13.8095Z" fill="#6474A6"/>
</svg>
