<svg width="260" height="83" viewBox="0 0 260 83" fill="none" xmlns="http://www.w3.org/2000/svg">
<path d="M79.8788 41.9626C79.8788 64.3263 62.2302 82.5154 40.5312 82.5154C18.8321 82.5154 1.18359 64.3263 1.18359 41.9626C1.18359 19.599 18.9768 1.40991 40.6758 1.40991C62.3749 1.40991 79.8788 19.599 79.8788 41.9626Z" fill="white"/>
<path d="M40.677 82.9639C18.6886 82.9639 0.8954 64.6257 0.8954 41.9639C0.75074 19.302 18.6886 0.963867 40.677 0.963867C62.6653 0.963867 80.4585 19.302 80.4585 41.9639C80.4585 64.6257 62.6653 82.9639 40.677 82.9639ZM40.677 2.0075C19.2672 2.0075 1.90802 19.8984 1.90802 41.9639C1.90802 64.0293 19.2672 81.9202 40.677 81.9202C62.0867 81.9202 79.4459 64.0293 79.4459 41.9639C79.4459 19.8984 62.0867 2.0075 40.677 2.0075Z" fill="#CCD1DC"/>
<path d="M80.4576 41.9639C80.4576 64.6257 62.6644 82.9639 40.6761 82.9639C18.6877 82.9639 0.894531 64.6257 0.894531 41.9639C0.894531 19.302 18.6877 0.963867 40.6761 0.963867C62.6644 0.963867 80.4576 19.302 80.4576 41.9639Z" fill="#CCD1DC"/>
<path d="M42.269 43.0035C41.835 42.8544 38.5078 41.5126 38.5078 41.3635C38.5078 41.2144 38.5078 40.7671 38.9418 40.9162L42.5583 42.4071C42.8476 42.5562 42.9923 43.1526 42.269 43.0035Z" fill="white"/>
<path d="M75.3978 41.9615C75.3978 61.7906 59.9192 77.7433 40.6794 77.7433C21.4396 77.7433 5.96094 61.7906 5.96094 41.9615C5.96094 22.1324 21.4396 6.17969 40.6794 6.17969C59.9192 6.17969 75.3978 22.1324 75.3978 41.9615Z" fill="white"/>
<path d="M40.6798 78.1918C21.2953 78.1918 5.52734 61.9409 5.52734 41.9627C5.52734 21.9846 21.1506 5.73364 40.6798 5.73364C60.2089 5.73364 75.8322 21.9846 75.8322 41.9627C75.8322 61.9409 60.0642 78.1918 40.6798 78.1918ZM40.6798 6.77728C21.7293 6.77728 6.3953 22.4318 6.3953 41.9627C6.3953 61.4936 21.7293 77.1482 40.5351 77.1482C59.4856 77.1482 74.6749 61.3445 74.6749 41.9627C74.8196 22.5809 59.4856 6.77728 40.6798 6.77728Z" fill="#CCD1DC"/>
<path d="M71.9232 41.9604C71.9232 59.8513 57.8911 74.3131 40.5319 74.3131C23.1727 74.3131 9.14062 59.8513 9.14062 41.9604C9.14062 24.0695 23.1727 9.60767 40.5319 9.60767C57.8911 9.60767 71.9232 24.0695 71.9232 41.9604Z" fill="white"/>
<mask id="mask0_6759_11989" style="mask-type:luminance" maskUnits="userSpaceOnUse" x="9" y="9" width="63" height="66">
<path d="M71.931 41.9602C71.931 59.8511 57.8989 74.3129 40.5397 74.3129C23.1805 74.3129 9.14844 59.8511 9.14844 41.9602C9.14844 24.0692 23.1805 9.60742 40.5397 9.60742C57.8989 9.60742 71.931 24.0692 71.931 41.9602Z" fill="white"/>
</mask>
<g mask="url(#mask0_6759_11989)">
<path d="M33.0014 9.60869C33.5801 9.75778 34.1587 9.90687 34.7373 9.90687C35.0267 9.90687 35.0267 9.60869 34.882 9.60869C34.7373 9.60869 32.8568 9.16142 32.5674 9.16142C32.2781 9.16142 32.1335 9.01233 31.8441 8.86324C31.6995 8.86324 31.4102 8.56506 31.4102 8.86324V9.01233C31.6995 9.31051 32.8568 9.4596 33.0014 9.60869Z" fill="#CCD1DC"/>
<path d="M56.7246 64.4758C57.0139 64.3267 57.1586 64.0285 56.8693 64.1776C56.146 64.4758 55.5673 64.6249 54.844 64.6249C54.5547 64.4758 54.1207 64.9231 54.5547 64.9231C55.1333 64.9231 56.0013 64.774 56.7246 64.4758Z" fill="#CCD1DC"/>
<path d="M60.3457 63.7324C60.4903 63.2851 60.201 63.8815 59.9117 64.1796C56.2952 66.5651 51.9554 67.6087 47.7602 67.3105C46.7476 67.3105 45.8797 67.3105 44.867 67.3105C44.7224 67.3105 44.5777 67.6087 44.4331 67.6087C44.2884 67.6087 43.8544 67.7578 44.4331 67.9069C45.0117 68.056 47.3263 67.7578 47.4709 67.9069C50.2195 68.056 52.968 67.6087 55.5719 66.8633C56.1505 66.5651 59.767 64.9251 60.3457 63.7324Z" fill="#CCD1DC"/>
<path d="M37.6342 29.4401C37.6342 29.142 37.9236 29.2911 38.2129 29.142C38.5022 28.9929 39.6595 29.7383 40.0935 29.5892C40.8168 29.4401 41.3954 29.5892 41.974 29.8874C42.5527 30.3347 43.276 30.6329 43.9993 30.782C44.2886 30.782 44.4333 31.0801 44.2886 31.2292C44.1439 31.3783 45.1566 32.5711 45.3012 32.8692C45.4459 33.1674 45.8799 33.7638 46.3138 34.6583C46.7478 35.5529 48.3391 36.0001 48.6284 36.0001C48.9177 36.0001 49.0624 36.4474 49.3517 36.2983C49.641 36.1492 49.3517 36.0001 49.3517 35.8511C49.3517 35.702 49.4964 35.8511 49.641 35.8511C49.7857 35.8511 49.9303 36.1492 50.075 36.0001C50.2197 35.8511 50.2197 35.8511 50.3643 36.0001C50.509 36.1492 50.6536 36.2983 50.7983 36.2983C50.943 36.2983 50.943 36.2983 50.7983 36.0001C50.6536 35.702 50.7983 35.702 51.0876 35.8511C51.377 36.0001 51.6663 36.4474 51.8109 36.4474C51.9556 36.4474 51.8109 36.1492 51.6663 36.0001C51.5216 35.8511 51.8109 35.8511 51.9556 36.0001C52.1002 36.1492 52.5342 36.7456 52.9682 36.7456C53.4022 36.7456 52.9682 36.4474 52.9682 36.1492C52.9682 35.8511 53.1129 36.1492 53.2575 36.2983C53.4022 36.4474 54.2702 37.7892 54.4148 37.6401C54.5595 37.4911 55.5721 39.4292 55.8614 40.3238C56.1507 41.2183 56.2954 41.0692 56.2954 40.9201C55.1381 36.2983 53.6915 36.0001 53.2575 35.702C52.8236 35.4038 46.4585 33.9129 46.4585 33.6147C46.0245 33.0183 45.5905 32.2729 45.1566 31.8256C45.1566 31.8256 44.2886 30.4838 43.9993 30.3347C43.1313 29.5892 42.1187 28.9929 41.1061 28.3965C40.3828 28.0983 39.6595 27.9492 38.9362 27.8002C37.9236 27.502 37.9236 27.502 37.3449 27.3529C36.7663 27.2038 36.1876 28.0983 36.043 28.2474C36.4769 28.6947 37.2002 29.4401 37.7789 30.1856C38.0682 30.3347 38.3575 30.3347 38.5022 30.3347C38.6469 30.4838 37.6342 29.7383 37.6342 29.4401Z" fill="#CCD1DC"/>
<path d="M45.5921 61.3442L44.8688 61.1948C44.5795 61.1948 44.4348 61.4936 44.7241 61.4936C45.0134 61.643 45.3028 61.643 45.5921 61.643C45.7367 61.643 45.8814 61.3442 45.5921 61.3442Z" fill="#CCD1DC"/>
<path d="M43.855 59.2547C44.1443 59.1056 43.9997 58.9565 43.9997 58.8074C43.7104 58.6583 43.2764 58.5093 42.9871 58.5093C42.6977 58.3602 42.4084 58.8074 42.8424 58.9565C43.2764 59.1056 43.421 59.2547 43.855 59.2547Z" fill="#CCD1DC"/>
<path d="M44.4368 60.2971C44.1475 60.2971 43.7135 60.148 43.4242 59.9989C43.1349 59.8498 42.9902 60.2971 43.1349 60.2971C43.4242 60.4462 43.8582 60.4462 44.1475 60.5953C44.2922 60.5953 44.5815 60.2971 44.4368 60.2971Z" fill="#CCD1DC"/>
<path d="M45.3011 62.684C45.8798 62.8333 46.6031 62.9827 47.1817 62.8333C47.471 62.8333 47.471 62.5346 47.471 62.5346C47.471 62.5346 47.3264 62.3853 47.0371 62.5346C46.6031 62.5346 46.0244 62.5346 45.5905 62.3853C45.4458 62.3853 45.1565 62.5346 45.3011 62.684Z" fill="#CCD1DC"/>
<path d="M45.4457 63.8783C46.0243 64.0276 46.7476 64.177 47.3263 64.0276C47.6156 64.0276 47.6156 63.7289 47.6156 63.7289C47.6156 63.7289 47.3263 63.5796 47.1816 63.7289C46.7476 63.7289 46.169 63.7289 45.735 63.5796C45.5903 63.5796 45.301 63.8783 45.4457 63.8783Z" fill="#CCD1DC"/>
<path d="M46.1761 64.9215C46.7548 65.0708 47.4781 65.2202 48.0567 65.0709C48.3461 65.0709 48.346 64.7722 48.346 64.7722C48.346 64.7722 48.2014 64.6228 47.9121 64.7722C47.4781 64.7722 46.8994 64.7722 46.4655 64.6228C46.3208 64.6228 46.0315 64.7721 46.1761 64.9215Z" fill="#CCD1DC"/>
<path d="M59.3333 28.8426C55.7168 25.4135 50.943 23.4753 46.0245 23.6244C46.1692 22.8789 46.3139 21.9844 46.4585 20.7917C47.0372 20.7917 48.0498 20.7917 48.7731 20.9408C49.0624 20.9408 49.4964 20.7917 49.3517 20.4935C49.2071 20.1953 48.9177 19.4498 48.3391 19.3008C48.0498 19.3008 47.1818 18.7044 46.6032 18.5553C46.7478 16.468 46.8925 14.0826 46.8925 11.9953C47.0372 7.52257 44.5779 3.94439 40.6721 3.7953C39.9488 3.7953 39.6595 3.34803 39.8041 2.45348C40.0935 0.962571 40.5275 -0.528338 41.1061 -2.01925C41.3954 -2.46652 40.9614 -3.21197 40.3828 -3.06288C39.9488 -2.91379 39.5148 -2.91379 39.0808 -3.06288C38.7915 -3.06288 38.5022 -3.06288 38.2129 -2.7647C37.7789 -2.61561 37.4896 -2.16834 37.3449 -1.72107C37.2003 -1.27379 36.3323 0.81348 36.1876 1.26075C36.043 1.70803 35.8983 3.04984 35.609 2.60257C35.4643 2.45348 35.3197 2.30439 35.175 2.1553C35.0304 0.664389 34.8857 -0.82652 34.741 -1.42288C34.741 -1.87016 34.3071 -2.31743 33.8731 -2.31743C33.5838 -2.31743 33.2944 -2.16834 33.1498 -1.87016C32.8605 -1.57197 32.7158 -1.27379 32.4265 -0.975611C32.1372 -0.677429 31.7032 -0.528338 31.2692 -0.677429C30.8352 -0.82652 30.4012 -0.677429 30.1119 -0.230156C29.8226 0.217116 29.244 0.217116 28.81 -0.0810655C28.5207 -0.0810655 28.2313 -0.379247 27.942 -0.379247C27.6527 -0.379247 27.3634 -0.230157 27.508 0.0680253C27.6527 1.40984 27.7974 2.90075 27.942 4.39166L28.0867 6.92621C28.0867 7.96984 28.0867 8.86439 27.942 9.90803C27.942 10.6535 27.942 11.548 27.942 12.4426C27.942 12.8898 27.942 13.3371 27.7974 13.7844C27.508 14.9771 27.3634 16.0208 27.3634 17.2135C27.3634 18.5553 27.3634 20.7917 27.3634 22.5808C27.3634 24.5189 27.0741 27.7989 27.2187 30.6317C26.7847 30.9298 26.3508 31.0789 26.0614 31.3771L26.2061 31.228C25.9168 28.3953 26.3508 24.9662 25.7721 21.6862C25.4828 20.1953 24.0362 20.1953 23.6022 21.5371C23.4575 21.9844 23.3129 22.2826 23.1682 22.7298C23.0236 23.3262 22.5896 23.6244 22.0109 23.6244C21.2876 23.7735 20.4197 23.9226 19.6964 24.2208C19.4071 24.3698 19.2624 24.8171 19.2624 25.1153C19.4071 26.308 19.5517 28.9917 19.6964 32.5698C19.2624 32.7189 18.9731 32.868 18.6838 33.3153C17.9605 34.2098 17.8158 35.5517 18.2498 36.7444C18.8284 38.2353 18.8284 39.8753 18.2498 41.3662C17.2372 44.4971 17.8158 47.9262 19.841 50.4608C19.841 50.4608 19.841 50.6099 19.9857 50.6099C20.1304 50.7589 20.275 50.908 20.5643 51.0571C20.8537 59.108 21.143 66.5626 21.143 69.6935C21.143 70.1408 21.4323 70.7371 21.8663 70.8862C22.4449 71.1844 23.3129 71.0353 23.7469 70.588C24.1808 70.1408 24.6148 70.4389 24.6148 71.0353C24.7595 71.4826 25.0488 71.9299 25.3381 72.228C25.6275 72.5262 26.0614 72.8244 26.3507 73.1226C26.9294 73.5699 27.508 73.4208 27.6527 72.9735C27.6527 69.6935 27.508 64.4753 27.2187 61.0462H27.0741C29.5333 64.1771 32.7158 66.4135 36.3323 67.7553C37.0556 70.7371 38.0682 76.5517 38.0682 76.7008C38.2129 77.2971 38.7915 77.8935 39.9488 78.0426C40.6721 78.0426 41.2508 77.8935 41.9741 77.5953C42.5527 77.4462 43.1313 77.5953 43.5653 78.0426C44.4333 78.4899 45.5906 78.6389 46.6032 78.1917C47.0372 78.0426 47.3265 77.5953 47.1818 77.148L45.3012 69.2462H45.5906C46.4585 69.3953 47.3265 69.3953 48.1944 69.0971C51.2323 69.2462 54.1255 68.6499 56.8741 67.4571C58.8993 66.5626 60.7799 65.0717 61.9372 63.1335C62.6605 61.7917 62.9498 60.1517 62.6605 58.6608C62.5158 57.6171 62.0818 56.7226 61.6478 55.9771V55.828C59.7673 53.4426 58.4653 50.6099 57.742 47.628C57.5974 46.2862 57.5974 45.0935 57.742 43.7517C57.8867 42.708 57.8867 41.5153 57.742 40.4717C57.4527 39.1298 57.0187 37.788 56.2954 36.5953C56.2954 36.5953 58.0313 37.3408 59.4779 38.0862C60.0566 38.3844 60.3459 37.9371 60.0566 37.4898C59.9119 37.1917 59.6226 36.8935 59.4779 36.4462C59.1886 36.148 59.044 35.7008 59.044 35.2535C59.1886 34.2098 58.8993 33.3153 58.4653 32.4208C57.742 30.6317 58.176 29.588 59.044 29.4389C59.4779 29.4389 59.4779 29.1408 59.3333 28.8426ZM45.4459 23.4753C44.5779 23.4753 41.8294 23.7735 40.9614 24.0717C40.9614 23.7735 41.1061 21.9844 41.5401 21.8353C41.9741 21.6862 43.9993 21.5371 44.2886 21.5371C44.8673 21.5371 45.3012 21.388 45.7352 21.388C45.5906 22.1335 45.5906 22.7298 45.4459 23.4753ZM29.8226 18.8535C30.1119 18.8535 30.4012 18.8535 30.6906 18.8535C31.2692 19.0026 30.8352 18.7044 30.6906 18.5553C30.4012 18.4062 30.1119 18.4062 29.6779 18.4062C28.5207 18.2571 28.81 17.5117 29.0993 17.5117C29.3886 17.5117 30.5459 17.6608 31.1245 17.6608C31.7032 17.6608 31.4139 17.5117 31.1245 17.3626C30.8352 17.2135 29.9673 17.2135 29.5333 17.0644C28.2313 16.7662 28.5207 16.0208 28.81 16.1698C29.0993 16.3189 30.2566 16.3189 30.5459 16.468C30.8352 16.6171 30.8352 16.1698 30.5459 16.0208L28.81 15.5735C28.6653 15.5735 28.376 14.828 29.244 14.828C29.6779 14.828 31.1245 15.1262 31.5585 15.1262C31.9925 15.1262 31.8478 14.9771 31.5585 14.828C31.2692 14.6789 29.6779 14.3808 29.244 14.2317C28.81 14.0826 28.376 13.6353 29.0993 13.6353C29.8226 13.6353 30.5459 13.7844 31.1245 13.9335C31.7032 14.0826 31.4139 13.6353 31.1245 13.6353C30.8352 13.6353 29.5333 13.188 29.0993 13.0389C28.6653 12.8898 28.5207 12.4426 28.81 12.4426C29.0993 12.4426 30.8352 12.8898 31.2692 13.0389C31.7032 13.188 31.7032 12.7408 31.2692 12.5917L28.6653 11.8462C28.0867 11.6971 28.2313 11.3989 28.6653 11.548C29.0993 11.6971 30.8352 11.9953 31.4139 11.9953C31.9925 11.9953 31.5585 11.6971 31.2692 11.548C30.4012 11.3989 29.6779 11.2498 28.9546 10.9517C28.6653 10.8026 28.6653 10.5044 28.9546 10.6535C29.244 10.8026 30.2566 10.6535 29.9673 10.5044C29.6779 10.3553 29.6779 10.3553 29.9673 10.3553C30.2566 10.3553 30.5459 10.6535 30.9799 10.6535C31.4139 10.6535 31.2692 10.6535 30.9799 10.3553C30.5459 10.2062 30.1119 10.0571 29.6779 9.90803C29.3886 9.75893 29.0993 9.31166 29.5333 9.46075C29.9673 9.60984 30.6906 9.75893 31.2692 9.90803C31.8478 10.0571 31.5585 9.75894 31.2692 9.75894C30.5459 9.60984 29.9673 9.31166 29.3886 9.01348C28.6653 8.7153 29.0993 8.56621 29.3886 8.56621C29.8226 8.7153 30.2566 8.86439 30.5459 9.01348C30.6906 9.01348 30.9799 9.01348 30.5459 8.86439C30.1119 8.7153 29.5333 8.41712 29.244 8.26803C28.9546 8.11894 28.81 7.82075 29.244 7.96984C29.6779 8.11894 30.5459 8.41712 31.1245 8.41712C31.7032 8.41712 31.8478 8.26803 31.2692 8.11894C30.5459 7.96984 29.9673 7.67166 29.3886 7.52257C29.244 7.52257 29.0993 7.22439 29.3886 7.22439C29.6779 7.22439 30.4012 7.52257 30.6906 7.52257C30.9799 7.52257 31.1245 7.37348 30.5459 7.37348C29.9673 7.37348 29.8226 7.0753 29.244 6.92621C28.6653 6.77712 29.0993 6.47894 29.3886 6.47894C29.6779 6.47894 30.4012 6.77712 30.8352 6.77712C31.2692 6.77712 30.9799 6.62803 30.4012 6.62803C29.8226 6.47894 29.244 6.18075 28.81 5.88257C28.5207 5.73348 28.5207 5.58439 28.81 5.58439C29.244 5.73348 29.8226 5.88257 30.2566 6.03166C30.6906 6.18075 30.8352 5.88257 30.5459 5.73348C30.2566 5.58439 29.0993 5.13712 28.81 4.98803C28.5207 4.83894 28.376 4.68984 28.6653 4.68984C29.0993 4.83893 29.5333 4.83894 29.8226 4.98803C30.1119 5.13712 30.5459 4.83893 30.1119 4.68984C29.6779 4.54075 28.81 4.24257 28.376 4.09348C27.942 3.94439 28.2313 3.7953 28.376 3.7953C28.5207 3.7953 29.6779 4.09348 29.9673 4.09348C30.4012 4.09348 30.2566 3.7953 29.9673 3.7953C29.3886 3.64621 28.81 3.49712 28.2313 3.04984C27.942 2.75166 28.0867 2.75166 28.376 2.90075C28.6653 2.90075 29.0993 3.04984 29.244 3.04984C29.3886 3.04984 29.8226 2.90075 29.244 2.90075C29.244 2.90075 28.81 2.90075 28.5207 2.60257C28.2313 2.45348 28.2313 2.30439 28.376 2.30439C28.5207 2.30439 28.81 2.30439 28.9546 2.45348C29.0993 2.45348 29.9673 2.45348 29.3886 2.30439C28.81 2.1553 28.9546 2.00621 28.6653 1.85712C28.376 1.70803 27.942 1.55893 28.2313 1.55893C28.5207 1.55893 28.6653 1.55893 29.0993 1.70803C29.5333 1.85712 29.9673 2.00621 29.8226 1.70803C29.6779 1.40984 29.5333 1.55893 28.376 1.40984C27.2187 1.26075 27.6527 1.11166 27.7974 0.81348C27.942 0.515298 28.0867 0.664389 28.376 0.664389C28.9546 0.962571 29.6779 0.81348 30.1119 0.366207C30.4012 -0.0810656 30.6906 -0.230156 30.9799 -0.0810655C31.5585 0.0680254 31.9925 -0.0810654 32.4265 -0.528338C32.5711 -0.82652 32.8605 -0.975611 33.0051 -1.27379L33.1498 -1.57197C33.2944 -1.72107 33.4391 -1.87016 33.7284 -1.87016C33.8731 -1.87016 34.0177 -1.57197 34.1624 -1.27379C34.3071 -0.975611 34.3071 -0.230156 34.3071 0.515298C34.3071 1.26075 34.4517 2.30439 34.5964 3.34803C34.741 4.39166 35.175 4.24257 35.3197 4.24257C35.7537 4.24257 36.043 3.94439 36.043 3.64621C36.1876 3.64621 36.3323 3.49712 36.1876 3.34803C36.1876 3.19894 36.3323 2.90075 36.3323 2.90075C36.6216 2.75166 36.6216 2.45348 36.6216 2.30439C36.6216 2.1553 36.7663 1.70803 36.9109 1.40984C37.0556 1.11166 36.9109 0.962571 36.9109 0.664389C36.9109 0.366207 37.0556 0.217116 37.2003 -0.0810655C37.2003 -0.0810655 37.3449 -0.0810657 37.4896 0.0680253C37.6342 0.217116 38.0682 -0.230157 38.0682 -0.379247C38.2129 -0.82652 38.3575 -1.1247 38.5022 -1.57197C38.6469 -1.87016 38.7915 -2.16834 38.7915 -2.46652C39.2255 -2.31743 39.8041 -2.31743 40.2381 -2.46652C40.3828 -2.46652 40.5275 -2.46652 40.5275 -2.31743C40.5275 -2.16834 40.6721 -2.16834 40.6721 -2.01925C40.6721 -1.87016 40.6721 -1.72107 40.6721 -1.57197L40.5275 -1.1247C40.0935 0.0680253 39.8041 1.40984 39.5148 2.75166C39.5148 3.04984 39.5148 3.19894 39.5148 3.49712C39.5148 3.64621 39.6595 3.94439 39.8041 4.09348C40.0935 4.39166 40.3828 4.54075 40.6721 4.54075C43.5653 4.68984 45.7352 6.92621 46.3139 10.2062C46.4585 10.9517 46.4585 11.548 46.4585 12.2935C46.4585 14.2317 46.3139 16.468 46.1692 18.7044C45.8799 18.7044 45.5906 18.7044 45.4459 18.7044C45.0119 18.7044 44.5779 18.7044 44.144 18.5553C43.276 18.2571 42.1187 18.2571 41.2508 18.5553C41.2508 17.8098 41.2508 16.9153 41.2508 16.1698H41.3954C41.3954 16.1698 41.5401 16.3189 41.5401 16.6171C41.5401 16.9153 41.5401 17.9589 41.5401 18.108C41.5401 18.2571 41.8294 18.108 41.8294 17.9589C41.8294 17.8098 41.8294 17.5117 41.8294 17.0644C41.8294 16.6171 41.8294 15.4244 41.6847 14.9771C41.6847 14.6789 41.6847 14.2317 41.6847 13.9335C41.5401 13.6353 41.3954 13.7844 41.3954 14.0826C41.3954 14.3808 41.3954 14.6789 41.3954 14.9771C41.3954 15.2753 41.2508 15.1262 41.1061 15.1262C41.1061 14.828 41.1061 14.6789 41.1061 14.3808C41.1061 14.0826 40.9614 13.6353 40.9614 13.3371C40.8168 12.2935 40.5274 11.2498 39.9488 10.3553C39.8041 10.0571 39.5148 9.90803 39.2255 9.90803C39.2255 9.60984 38.9362 9.60984 38.7915 9.60984C38.6469 9.46075 38.5022 9.31166 38.5022 9.16257C38.5022 9.01348 38.7915 8.86439 38.3575 8.7153C37.9236 8.56621 38.0682 8.7153 37.9236 8.86439C37.7789 9.01348 37.3449 9.01348 37.6342 9.16257C37.9236 9.31166 38.2129 9.46075 38.2129 9.46075C38.2129 9.46075 38.0682 9.75893 37.9236 9.60984C37.7789 9.46075 37.3449 9.46075 37.0556 9.46075C36.7663 9.46075 36.6216 9.60984 36.7663 9.75894C36.9109 9.75894 37.4896 9.75893 37.6342 9.90803C37.7789 10.0571 38.0682 9.90803 37.7789 10.9517C37.6342 11.1008 36.043 14.0826 36.043 14.0826C36.043 14.0826 33.7284 16.6171 33.7284 16.7662L33.0051 17.5117C31.9925 18.5553 30.9799 19.748 29.9673 20.9408L29.3886 20.6426C28.376 19.8971 28.81 19.0026 29.8226 18.8535ZM30.1119 22.2826C30.9799 20.4935 32.2818 19.0026 33.7284 17.6608C35.8983 15.7226 37.6342 13.3371 38.7915 10.5044C38.7915 10.3553 38.9362 10.3553 38.9362 10.3553C39.0808 10.5044 39.2255 10.8026 39.3702 11.1008C39.3702 11.1008 39.6595 11.9953 39.5148 11.9953C39.3702 11.9953 39.2255 11.8462 38.9362 11.8462C38.6469 11.8462 38.6469 11.9953 38.9362 12.1444C39.2255 12.2935 39.5148 12.5917 39.6595 12.7408C39.8041 12.8898 39.8041 13.3371 39.6595 13.188C39.2255 13.0389 38.9362 12.7408 38.6469 12.4426C38.3575 12.1444 38.2129 12.5917 38.3575 12.7408C38.5022 12.8898 39.2255 13.6353 39.5148 13.7844C39.8041 13.9335 39.5148 14.0826 39.6595 14.5298C38.6469 15.7226 37.9236 17.0644 37.4896 18.5553C37.4896 18.7044 37.4896 18.7044 37.4896 18.8535C37.4896 19.0026 37.6342 19.1517 37.7789 19.3008C37.9236 19.4498 38.3575 19.4498 38.5022 19.3008C38.9362 19.0026 39.6595 18.8535 40.2381 19.0026C40.5274 19.1517 40.9614 19.1517 41.2508 18.8535C41.9741 18.5553 42.842 18.5553 43.5653 18.8535C43.9993 19.0026 44.5779 19.0026 45.0119 19.0026C45.3012 19.0026 45.5906 19.0026 45.7352 19.0026L46.7478 19.3008C47.0372 19.4498 47.1818 19.5989 47.4711 19.748C47.4711 19.8971 47.3265 19.8971 47.1818 19.8971C47.0372 19.8971 45.0119 20.1953 45.0119 20.1953H44.5779C44.2886 19.8971 43.4207 19.4498 43.4207 19.1517C43.4207 18.8535 42.9867 19.1517 43.1313 19.3008C43.276 19.4498 43.8546 19.8971 43.9993 20.1953H43.4207C43.1313 19.8971 42.842 19.5989 42.5527 19.3008C42.408 19.1517 42.1187 19.3008 42.408 19.4498C42.5527 19.5989 42.842 19.8971 42.9867 20.1953H42.842C42.6974 20.1953 42.6974 20.1953 42.5527 20.0462C42.2634 19.8971 41.9741 19.5989 41.6847 19.4498C41.5401 19.3008 41.2508 19.4498 41.2508 19.5989C41.2508 19.748 41.9741 20.1953 42.1187 20.3444V20.4935H41.9741C41.8294 20.4935 41.6847 20.4935 41.6847 20.3444C41.3954 20.1953 41.1061 19.748 40.9614 19.5989C40.8168 19.4498 40.6721 19.748 40.8168 19.8971C40.9614 20.0462 41.2507 20.1953 41.3954 20.4935V20.6426L41.1061 20.7917L40.9614 21.0898C40.8168 20.7917 40.5274 20.6426 40.2381 20.4935C39.9488 20.3444 39.8041 20.3444 39.9488 20.6426C40.0935 20.9408 40.6721 21.0898 40.6721 21.2389V21.388H40.5275C40.3828 21.2389 40.3828 21.2389 40.0935 21.0898C39.8041 20.9408 39.9488 21.5371 40.0935 21.6862L39.8041 21.9844C39.5148 21.6862 39.2255 21.5371 38.9362 21.388C38.9362 21.388 38.5022 21.2389 38.7915 21.5371C39.0808 21.8353 39.3702 22.1335 39.3702 22.2826C39.2255 22.4317 38.7915 22.1335 38.5022 21.9844C38.2129 21.8353 38.0682 21.9844 38.2129 22.1335C38.3575 22.2826 39.0808 22.4317 39.0808 22.7298C39.0808 23.028 39.0808 23.1771 38.6469 23.028C38.3575 22.8789 37.9236 22.7298 37.6342 22.5808C37.3449 22.4317 37.3449 22.7298 37.4896 22.8789C37.6342 23.028 38.3575 23.4753 38.2129 23.7735C38.0682 24.0717 37.2003 23.6244 36.9109 23.4753C36.6216 23.3262 36.477 23.4753 36.6216 23.6244C36.7663 23.7735 37.7789 24.2208 37.6342 24.5189C37.4896 24.8171 36.6216 24.2208 36.3323 23.9226C36.043 23.6244 36.043 23.9226 36.1876 24.0717C36.3323 24.2208 37.3449 24.668 37.2003 24.9662C37.0556 25.2644 35.8983 24.5189 35.609 24.3698C35.3197 24.2208 35.175 24.5189 35.4643 24.668C35.7537 24.8171 37.0556 25.4135 36.7663 25.8608C36.477 26.308 35.4643 25.4135 35.0304 25.1153C34.5964 24.8171 34.4517 25.1153 34.741 25.2644C35.0304 25.4135 35.7537 25.8608 35.8983 26.0098C36.043 26.1589 36.1876 26.4571 35.7537 26.308C35.175 25.8608 34.4517 25.5626 33.7284 25.4135C33.4391 25.4135 33.4391 25.7117 33.7284 25.8608C34.3071 26.0098 34.741 26.308 35.3197 26.6062C35.4643 26.7553 35.175 26.7553 34.8857 26.7553C34.4517 26.4571 34.0177 26.308 33.5838 26.1589C33.4391 26.1589 33.0051 26.1589 33.4391 26.4571C33.8731 26.7553 34.5964 26.9044 34.3071 27.0535C33.8731 27.2026 33.4391 27.2026 33.0051 27.0535C31.5585 27.7989 30.2566 28.6935 29.0993 29.7371C27.942 30.0353 27.0741 28.0971 28.5207 25.1153C28.81 24.3698 29.9673 22.4317 30.1119 22.2826ZM27.2187 32.4208C27.3634 32.4208 27.508 32.4208 27.508 32.4208C27.7974 32.5698 29.0993 33.3153 29.3886 33.4644C29.5333 33.4644 29.5333 33.6135 29.5333 33.7626C29.5333 33.9117 29.244 33.9117 29.0993 33.9117C28.81 33.7626 28.376 33.4644 28.0867 33.3153C27.7974 33.1662 27.6527 33.0171 27.3634 33.0171L27.2187 32.868C27.0741 32.5698 27.0741 32.4208 27.2187 32.4208ZM25.9168 33.4644C25.9168 33.4644 25.9168 33.3153 26.0614 33.3153C26.2061 33.3153 26.3507 33.3153 26.3507 33.4644C27.2187 33.9117 28.0867 34.3589 28.9546 34.6571C29.3886 34.8062 29.3886 34.8062 29.3886 34.8062C29.3886 34.8062 29.244 35.1044 28.81 35.1044C27.942 34.9553 27.2187 34.508 26.4954 34.0608L26.0614 33.9117C25.9168 33.7626 25.9168 33.6135 25.9168 33.4644ZM31.7032 43.4535C31.8478 43.4535 31.9925 43.6026 31.8478 43.6026C31.7032 43.6026 31.5585 43.7517 31.2692 43.7517C30.8352 43.6026 30.4012 43.4535 29.9673 43.3044L29.5333 43.1553C29.3886 43.1553 29.3886 43.0062 29.3886 42.8571V42.708C29.3886 42.708 29.5333 42.708 29.6779 42.708C29.8226 42.708 31.4139 43.4535 31.7032 43.4535ZM28.2313 55.6789C28.2313 55.6789 28.5207 55.6789 30.1119 56.2753C30.5459 56.4244 30.9799 56.5735 31.1245 56.7226C31.2692 56.8717 32.5711 57.1698 32.7158 57.468C32.7158 57.6171 32.7158 57.6171 32.7158 57.7662C32.7158 57.7662 32.5711 58.0644 32.4265 58.0644C31.9925 57.9153 31.5585 57.7662 31.1245 57.6171C30.2566 57.3189 29.5333 57.0208 28.6653 56.7226C28.376 56.5735 28.0867 56.2753 28.2313 55.9771C28.2313 55.828 28.2313 55.828 28.2313 55.6789ZM33.4391 57.1699L33.1498 57.0208C33.0051 57.0208 33.0051 56.8717 33.0051 56.7226C33.0051 56.7226 33.0051 56.5735 33.1498 56.5735C33.2944 56.5735 33.4391 56.5735 33.4391 56.5735L33.7284 56.7226C34.0177 56.8717 35.175 57.1699 35.175 57.3189C35.175 57.3189 35.175 57.468 35.175 57.6171L35.0304 57.7662C34.5964 57.6171 34.0177 57.468 33.4391 57.1699ZM34.8857 54.9335C34.8857 55.0826 34.741 55.0826 34.5964 55.0826C33.7284 54.9335 32.8605 54.6353 31.9925 54.3371H31.8478H31.7032C31.5585 54.3371 31.4139 54.188 31.4139 54.0389C31.4139 53.8898 31.4139 53.5917 31.4139 53.5917C31.4139 53.5917 33.5838 54.188 33.8731 54.188C34.1624 54.188 34.3071 54.188 34.5964 54.3371C34.741 54.4862 34.8857 54.7844 34.8857 54.9335ZM34.1624 53.2935C33.1498 53.1444 32.1372 52.6971 31.2692 52.2498L30.5459 51.9517C29.6779 51.5044 28.9546 51.2062 28.6653 51.2062C27.7974 50.908 26.4954 50.7589 26.6401 50.0135C26.6401 49.8644 26.7847 49.7153 26.7847 49.5662C26.7847 49.5662 26.9294 49.5662 27.0741 49.5662C27.2187 49.7153 27.3634 49.7153 27.6527 49.8644C28.0867 50.0135 29.244 50.6098 29.6779 50.7589C30.1119 50.908 33.4391 52.2498 33.5838 52.2498C33.8731 52.2498 34.0177 52.3989 34.1624 52.548V52.6971V52.9953C34.1624 52.9953 34.3071 53.2935 34.1624 53.2935ZM22.8789 44.4971C22.8789 44.348 22.8789 44.1989 23.3129 44.348L28.0867 46.2862C28.0867 46.4353 28.2313 46.5844 28.2313 46.5844C28.2313 46.7335 27.942 46.7335 27.7974 46.7335L24.7595 45.5408C24.1808 45.3917 23.4575 45.0935 23.0236 44.7953C22.8789 44.6462 22.7342 44.6462 22.8789 44.4971ZM22.7342 49.1189C23.4575 49.4171 24.0362 49.7153 24.7595 50.1626C25.1935 50.4608 25.3381 51.5044 25.3381 51.5044C24.9041 51.3553 24.3255 51.2062 23.8915 51.0571C23.4575 50.908 23.0236 50.7589 22.5896 50.4608C22.5896 50.3117 22.5896 50.1626 22.5896 50.0135C22.4449 49.8644 22.4449 49.1189 22.7342 49.1189ZM22.7342 52.2498C22.7342 52.1008 22.7342 51.6535 22.8789 51.6535C23.0236 51.6535 25.3381 52.3989 25.4828 52.3989C25.9168 52.6971 25.9168 53.5917 25.9168 53.5917L25.7721 53.7408C25.6274 53.7408 23.7469 52.9953 23.6022 52.9953C23.3129 52.9953 23.1682 52.8462 22.8789 52.6971C22.7342 52.6971 22.5896 52.548 22.7342 52.2498ZM24.1808 46.2862C24.1808 46.1371 24.3255 45.988 24.3255 45.988C25.0488 46.1371 25.6274 46.4353 26.2061 46.7335L26.9294 47.0317C26.9294 47.1808 27.0741 47.1808 26.9294 47.3298C26.9294 47.3298 26.9294 47.628 26.7847 47.628C26.6401 47.628 26.6401 47.628 26.6401 47.4789C26.6401 47.3299 24.1808 46.5844 24.1808 46.2862ZM33.7284 51.2062C33.7284 51.3553 33.7284 51.5044 33.5838 51.5044C32.1372 51.0571 30.6906 50.4608 29.244 49.8644C29.244 49.8644 27.3634 48.9698 27.0741 48.8208C26.7847 48.6717 27.2187 48.5226 27.2187 48.3735C27.3634 48.2244 27.508 48.2244 27.6527 48.3735C27.7974 48.5226 29.8226 49.1189 30.1119 49.268L30.6906 49.5662C31.1245 49.7153 32.5711 50.3117 32.7158 50.3117H32.8605C33.1498 50.3117 33.2944 50.4608 33.4391 50.6099C33.7284 50.6099 33.7284 51.2062 33.7284 51.2062ZM33.4391 49.7153C33.4391 49.8644 33.1498 49.8644 33.0051 49.8644C32.8605 49.8644 29.3886 48.3735 28.9546 48.2244C28.5207 48.0753 27.7974 47.9262 27.7974 47.7771C27.7974 47.628 27.942 46.7335 29.3886 47.3298C29.6779 47.4789 33.0051 48.5226 33.0051 48.5226C33.2944 48.6717 33.2944 48.9698 33.2944 49.268C33.2944 49.268 33.4391 49.4171 33.4391 49.7153ZM22.8789 37.9371C23.0236 37.788 23.3129 37.6389 23.6022 37.788C23.7469 37.9371 28.376 39.7262 28.81 39.8753C28.9546 39.8753 28.9546 40.0244 29.0993 40.0244C29.0993 40.3226 29.0993 40.7698 29.0993 41.068C28.9546 41.2171 28.81 41.2171 28.6653 41.2171C28.376 41.068 23.4575 38.9808 23.1682 38.6826C22.8789 38.3844 23.0236 38.5335 23.0236 38.5335C22.8789 38.3844 22.8789 38.0862 22.8789 37.9371ZM22.8789 39.8753L23.6022 40.1735L24.0362 40.3226L27.2187 41.6644L27.7974 41.9626C27.942 41.9626 27.942 42.1117 27.942 42.2608C27.942 42.4098 27.942 42.4098 27.942 42.5589C27.942 42.5589 27.942 42.8571 27.0741 42.708C25.9168 42.4098 22.3003 41.3662 22.5896 40.3226C22.5896 40.0244 22.8789 39.7262 22.8789 39.8753ZM31.4139 44.7953L30.9799 44.6462C30.4012 44.4971 29.8226 44.348 29.244 44.0498C28.9546 43.9008 28.9546 43.7517 28.9546 43.7517C28.9546 43.7517 29.0993 43.6026 29.3886 43.6026C29.6779 43.6026 30.4012 43.9008 30.9799 44.0498C31.2692 44.0498 31.4139 44.1989 31.7032 44.348C31.8478 44.348 31.9925 44.4971 31.9925 44.4971V44.6462C31.7032 44.9444 31.5585 44.9444 31.4139 44.7953ZM28.6653 38.6826C27.7974 38.3844 26.9294 38.0862 26.2061 37.788C25.4828 37.4898 24.9041 37.3408 24.1808 37.0426C24.0362 37.0426 24.0362 36.8935 24.0362 36.7444C24.0362 36.5953 24.1808 36.148 24.3255 36.148C24.4702 36.148 24.6148 36.148 24.7595 36.148C25.3381 36.4462 26.0614 36.7444 26.6401 37.0426C27.0741 37.1917 27.3634 37.3408 27.7974 37.4898C28.2313 37.6389 28.5207 37.788 28.6653 37.788C28.81 37.788 28.81 37.9371 28.81 37.9371C28.81 38.2353 28.81 38.3844 28.6653 38.6826ZM25.0488 34.6571C25.1935 34.6571 25.3381 34.6571 25.4828 34.8062C25.6274 34.9553 27.508 35.7008 28.5207 36.148C28.6653 36.148 28.9546 36.2971 28.9546 36.4462C28.9546 36.7444 28.6653 36.8935 28.5207 36.8935C27.3634 36.4462 26.0614 35.9989 25.0488 35.2535L24.9041 34.9553L25.0488 34.6571ZM20.1304 25.1153L22.1556 25.8608C22.3003 25.8608 22.4449 25.7117 22.1556 25.5626C21.8663 25.4135 20.9983 24.8171 20.709 24.668C20.4197 24.5189 20.8537 24.5189 20.9983 24.5189C21.143 24.5189 21.8663 24.8171 22.1556 24.8171C22.4449 24.8171 22.5896 24.668 22.4449 24.668C22.3003 24.5189 22.1556 24.3698 22.0109 24.3698C22.5896 24.2208 23.1682 23.7735 23.3129 23.1771C23.4575 22.7298 23.6022 22.4317 23.7469 21.9844C23.8915 21.388 24.3255 21.0898 24.6148 21.2389C24.9041 21.388 25.1935 21.5371 25.3381 22.1335C25.6275 24.0717 25.7721 26.0098 25.6274 27.948C25.6274 29.1408 25.6274 30.3335 25.7721 31.5262C25.1935 31.9735 24.7595 32.4208 24.1808 33.0171C24.0362 33.0171 23.8915 33.0171 23.7469 33.0171C23.4575 33.0171 23.1682 32.7189 23.4575 32.7189C23.7469 32.7189 23.8915 32.4208 23.7469 32.4208C23.4575 32.4208 23.3129 32.4208 23.0236 32.2717C22.5896 32.1226 22.7342 31.9735 22.8789 31.8244C23.1682 31.8244 23.4575 31.9735 23.6022 32.1226C23.8915 32.2717 24.1808 31.8244 23.7469 31.8244C23.3129 31.8244 22.7342 31.3771 22.3003 31.228C21.8663 31.0789 21.7216 30.7808 22.0109 30.9298C22.4449 31.0789 22.8789 31.0789 23.3129 31.0789C23.7469 31.0789 23.6022 30.7808 23.3129 30.7808C23.0236 30.7808 22.1556 30.6317 21.8663 30.4826C21.577 30.3335 21.577 30.0353 21.8663 30.0353C22.4449 30.1844 23.0236 30.3335 23.6022 30.6317C23.8915 30.7808 24.0362 30.3335 23.4575 30.1844C22.8789 30.0353 22.3003 29.7371 21.7216 29.588C21.577 29.588 21.4323 29.2898 21.8663 29.2898C22.3003 29.2898 23.1682 29.588 23.4575 29.7371C23.7469 29.8862 23.7469 29.588 23.3129 29.588C22.8789 29.588 22.0109 28.9917 21.7216 28.8426C21.4323 28.6935 21.4323 28.5444 21.7216 28.5444C22.0109 28.5444 23.0236 28.9917 23.3129 28.9917C23.6022 28.9917 23.7469 28.8426 23.1682 28.6935C22.5896 28.5444 21.8663 28.2462 21.2876 27.948C20.8537 27.7989 20.9983 27.5008 21.2876 27.6498C21.577 27.7989 22.3003 28.2462 22.5896 28.0971C22.8789 27.948 22.7342 27.948 22.5896 27.948C22.1556 27.7989 21.7216 27.5008 21.2876 27.3517C21.143 27.2026 21.143 27.2026 21.2876 27.0535C21.4323 26.9044 21.8663 27.3517 22.0109 27.3517C22.1556 27.3517 22.3003 27.2026 22.1556 27.0535C22.0109 26.9044 21.2876 26.7553 20.9983 26.6062C20.709 26.4571 20.8537 26.308 20.9983 26.308C21.143 26.308 21.8663 26.6062 22.1556 26.6062C22.4449 26.6062 22.4449 26.6062 22.1556 26.4571C21.577 26.1589 20.9983 26.0098 20.4197 25.5626C19.841 25.2644 19.9857 24.9662 20.1304 25.1153ZM23.3129 42.1117C24.9041 42.5589 26.4954 43.1553 28.0867 43.9008C28.9546 44.1989 28.376 44.4971 28.6653 44.6462C29.244 44.9444 29.8226 45.2426 30.4012 45.3917C31.2692 45.6898 31.9925 45.988 32.1372 46.1371C32.2818 46.2862 32.4265 46.5844 32.4265 46.7335C32.4265 46.8826 32.4265 46.8826 32.2818 46.8826C32.1372 46.8826 32.1372 46.8826 31.9925 46.7335C31.2692 46.4353 30.5459 46.1371 29.8226 45.8389C28.9546 45.5408 28.2313 45.2426 27.508 44.9444C27.0741 44.7953 26.4954 44.4971 26.0614 44.348C25.7721 44.1989 25.3381 44.1989 25.0488 44.0498C24.3255 43.6026 23.4575 43.4535 22.8789 43.0062C22.7342 43.1553 22.8789 42.1117 23.3129 42.1117ZM19.4071 49.4171C19.5517 49.4171 19.4071 48.9698 19.1177 48.8208C18.8284 48.6717 18.5391 48.0753 18.8284 48.2244L19.9857 48.9699C20.275 49.1189 20.4197 48.9699 19.9857 48.6717C19.5517 48.3735 19.1177 47.9262 18.6838 47.628C18.5391 47.4789 18.3944 46.8826 18.5391 47.0317C18.9731 47.3298 19.2624 47.628 19.6964 47.9262C19.841 48.0753 19.9857 47.9262 19.841 47.628C19.6964 47.3299 18.9731 46.8826 18.6838 46.4353C17.9605 45.8389 18.2498 44.7953 18.3944 44.9444C19.1177 45.3917 19.6964 45.988 20.4197 46.5844C20.5643 46.7335 20.709 46.5844 20.5643 46.2862C20.275 45.988 18.9731 44.7953 18.6838 44.6462C18.3944 44.348 18.2498 43.9008 18.3944 43.4535C18.3944 43.3044 18.6838 43.1553 18.6838 43.3044C18.6838 43.4535 19.9857 44.6462 20.1304 44.7953C20.275 44.9444 20.4197 44.7953 20.275 44.6462C20.1304 44.4971 19.2624 43.7517 18.9731 43.4535C18.6838 43.1553 18.9731 43.0062 19.2624 43.1553C19.5517 43.3044 20.4197 44.1989 20.5643 44.348C20.709 44.4971 20.709 44.1989 20.5643 44.1989C20.4197 44.1989 18.9731 42.708 18.8284 42.5589C18.6838 42.4098 18.5391 42.2608 18.6838 42.1117C18.8284 41.9626 18.8284 41.5153 19.2624 41.8135C19.4071 41.9626 19.6964 42.1117 19.841 42.2608C19.9857 42.4098 20.1304 42.2608 19.9857 42.1117C19.841 41.9626 19.2624 41.5153 19.1177 41.3662C18.9731 41.2171 18.9731 40.9189 19.2624 41.068C19.6964 41.3662 19.9857 41.6644 20.4197 42.1117C20.5643 42.2608 20.9983 42.1117 20.5643 41.9626C19.9857 41.5153 19.4071 40.9189 18.9731 40.3226C18.8284 39.8753 18.8284 38.5335 19.1177 38.6826C19.4071 38.8317 19.841 39.1298 20.1304 39.428C20.4197 39.7262 20.275 39.2789 20.1304 38.9808C19.5517 38.5335 18.9731 37.9371 18.5391 37.1917C18.5391 37.0426 18.3944 36.8935 18.3944 36.8935C17.8158 35.8498 18.2498 34.3589 19.2624 33.7626C19.4071 33.7626 19.5517 33.6135 19.6964 33.6135C20.1304 33.4644 20.4197 33.4644 20.8537 33.6135C21.143 33.7626 21.2876 33.9117 21.2876 34.0608C21.2876 34.2098 21.143 34.2098 20.8537 34.2098C20.275 34.2098 19.841 34.508 19.5517 35.1044C19.4071 35.5517 19.4071 35.9989 19.5517 36.4462C19.6964 36.7444 19.9857 37.1917 20.275 37.6389L20.9983 38.6826C21.8663 40.3226 22.1556 42.2608 21.8663 44.0498C21.7216 45.0935 21.7216 46.2862 21.8663 47.3298C22.1556 48.5226 21.8663 49.7153 21.2876 50.7589C21.143 51.0571 20.8537 51.2062 20.5643 51.2062C20.275 51.2062 20.1304 51.0571 19.9857 50.908C19.6964 50.4608 18.9731 49.5662 19.4071 49.4171ZM23.6022 70.2899C23.4575 70.2899 23.3129 70.4389 23.3129 70.588C23.0236 70.8862 22.5896 71.0353 22.1556 71.0353V70.8862C22.0109 70.588 22.3003 70.2899 22.4449 70.4389C22.7342 70.4389 23.0236 70.2898 23.1682 70.1408C23.1682 69.9917 23.6022 69.9917 23.6022 70.1408V70.2899ZM27.0741 73.2717C26.9294 73.2717 26.7847 73.2717 26.3507 73.1226C26.3507 72.9735 26.4954 72.8244 26.6401 72.8244C26.9294 72.8244 26.9294 72.9735 27.0741 73.2717ZM26.7847 69.0971C26.7847 70.1408 26.9294 71.0353 27.0741 72.0789L26.7847 71.7808H26.4954C26.3508 71.6317 21.7216 67.6062 21.2876 68.0535L21.143 68.3517C21.143 68.3517 21.4323 67.9044 21.2876 67.7553C21.143 67.6062 21.2876 67.0099 21.4323 66.8608C21.577 66.7117 21.577 66.8608 21.8663 67.0099C22.1556 67.1589 22.0109 66.8608 21.8663 66.7117C21.7216 66.5626 21.577 66.5626 21.4323 66.4135C21.2876 66.2644 21.2876 65.9662 21.4323 66.1153C21.577 66.2644 21.8663 66.2644 22.0109 66.4135C22.3003 66.5626 22.1556 66.2644 22.0109 66.1153C21.7216 65.9662 21.577 65.8171 21.4323 65.668C21.2876 65.5189 21.2876 65.2208 21.577 65.3699C21.8663 65.5189 22.1556 65.668 22.4449 65.8171C22.7342 65.9662 22.7342 65.5189 22.4449 65.5189C22.1556 65.3699 21.8663 65.2208 21.577 64.9226C21.2876 64.7735 21.143 64.028 21.577 64.028C21.8663 64.1771 22.1556 64.3262 22.4449 64.4753C22.7342 64.6244 22.8789 64.3262 22.5896 64.1771C22.3003 63.8789 21.8663 63.7298 21.577 63.4317C21.2876 63.2826 21.4323 62.6862 21.7216 62.6862C22.0109 62.6862 22.1556 62.8353 22.3003 62.9844C22.4449 63.1335 22.5896 62.8353 22.4449 62.8353L21.8663 62.388C21.7216 62.2389 21.7216 61.6426 22.0109 61.9408C22.3003 62.0898 22.4449 62.2389 22.7342 62.2389C23.0236 62.388 22.8789 61.9408 22.8789 61.9408C22.8789 61.9408 22.3003 61.6426 22.0109 61.4935C21.7216 61.3444 21.8663 61.0462 22.1556 61.1953C22.4449 61.3444 22.7342 61.4935 22.8789 61.6426C23.0236 61.7917 23.3129 61.6426 23.1682 61.4935C23.0236 61.3444 22.7342 61.1953 22.5896 61.0462C21.577 60.748 22.0109 57.1698 23.8915 58.5117C24.3255 58.8098 25.9168 60.748 26.3507 60.748C26.7847 60.748 26.7847 68.948 26.7847 69.0971ZM23.7469 55.6789C23.4575 55.6789 23.0236 54.4862 23.3129 54.3371C23.6022 54.188 25.6275 55.0826 26.0614 55.0826C26.7847 55.2317 26.7847 56.5735 26.3507 56.4244C25.9168 56.2753 24.0362 55.6789 23.7469 55.6789ZM34.741 65.0717C34.5964 65.0717 31.7032 63.8789 31.5585 63.5808C31.4139 63.2826 31.4139 62.6862 31.9925 62.8353L35.175 64.1771C36.3323 64.7735 36.1876 65.5189 34.741 65.0717ZM29.5333 58.6608C29.244 58.5117 28.9546 58.3626 28.81 58.0644C28.81 57.9153 28.9546 57.6171 29.8226 57.7662C30.5459 58.0644 31.1245 58.2135 31.8478 58.5117L32.2818 58.6608L32.5711 58.8099L34.5964 59.5553C35.0304 59.7044 36.3323 60.3008 36.7663 60.3008C36.9109 60.3008 36.9109 60.748 36.9109 60.8971C36.477 61.6426 29.8226 58.8099 29.5333 58.6608ZM41.6847 77.4462C40.8168 77.5953 40.0935 77.7444 39.3702 77.8935C38.7915 78.0426 38.7915 77.5953 38.9362 77.4462C39.0808 77.2971 39.5148 76.7008 39.8041 76.5517C40.0935 76.4026 40.8168 75.9553 41.1061 76.2535C41.5401 76.5517 41.9741 76.8499 42.408 77.148C42.9867 77.4462 42.2634 77.4462 41.6847 77.4462ZM45.5906 77.7444C45.5906 78.0426 44.7226 78.1917 44.4333 78.3408C43.8546 78.3408 43.276 78.0426 42.842 77.7444C42.5527 77.4462 42.9867 77.148 43.1313 76.9989C43.4207 76.8499 43.71 76.8499 43.9993 76.9989C44.144 76.9989 44.8673 76.8499 45.0119 76.9989C45.5906 77.148 45.7352 77.4462 45.5906 77.7444ZM43.5653 75.9553C43.276 76.1044 42.9867 76.1044 42.6974 76.1044C42.6974 75.9553 42.842 75.8062 42.6974 75.8062C42.2634 75.6571 41.9741 75.3589 41.6847 75.0608C41.5401 74.9117 41.5401 75.0608 41.3954 75.0608C41.1061 75.0608 40.8168 75.0608 40.5275 75.0608C40.0935 75.0608 40.0935 72.8244 40.0935 72.5262C40.2381 71.9299 40.9614 71.4826 41.5401 71.6317C41.9741 71.6317 42.408 71.4826 42.408 71.1844C42.408 70.8862 42.408 70.2899 42.5527 70.2899C43.276 70.2899 42.9867 69.6935 42.9867 69.3953C43.5653 69.3953 44.144 69.3953 44.7226 69.2462H44.8673C44.8673 69.5444 45.8799 74.1662 46.1692 75.9553C45.3012 75.6571 44.4333 75.6571 43.5653 75.9553ZM57.0187 43.6026V43.4535C57.0187 43.6026 57.0187 43.6026 57.0187 43.6026ZM57.0187 41.9626V41.8135C57.0187 41.8135 57.0187 41.8135 57.0187 41.9626ZM57.0187 41.6644V41.5153C57.0187 41.5153 57.0187 41.5153 57.0187 41.6644ZM56.0061 37.788C56.0061 37.788 56.0061 37.6389 55.8614 37.6389C55.8614 37.6389 56.0061 37.788 56.0061 37.788ZM56.8741 40.0244V39.8753C56.8741 39.8753 56.7294 39.8753 56.7294 40.0244H56.8741ZM56.8741 39.7262V39.5771L56.7294 39.7262H56.8741ZM56.7294 39.1298V38.9808L56.4401 39.1298H56.7294ZM56.2954 38.0862C56.2954 38.0862 56.2954 37.9371 56.1508 37.788C56.0061 37.6389 56.0061 37.9371 56.0061 38.0862H56.2954ZM56.0061 37.3408V37.1917C56.0061 37.1917 55.8614 37.1917 55.8614 37.3408H56.0061ZM56.4401 43.7517C55.7168 48.8208 58.0313 52.6971 60.3459 56.4244V56.5735C60.7799 57.3189 61.0692 58.0644 61.3585 58.8099C61.5032 59.5553 61.5032 60.1517 61.5032 60.8971C61.2139 61.7917 60.9245 62.6862 60.4906 63.4317C60.2012 63.8789 59.9119 64.3262 59.4779 64.6244C59.4779 64.6244 56.2954 69.9917 41.9741 68.6498C41.2508 68.5008 40.6721 67.7553 40.3828 67.0099C39.8041 66.4135 38.9362 66.1153 38.2129 65.8171C37.7789 65.8171 37.9236 65.5189 38.2129 65.3699C38.5022 65.2208 37.9236 64.9226 37.6342 64.7735C36.1876 64.1771 36.9109 63.1335 37.3449 63.2826C38.0682 63.5808 38.9362 63.8789 39.8041 64.028C40.3828 64.028 39.9488 63.7299 39.8041 63.7299C39.6595 63.7299 38.3575 63.2826 38.0682 63.1335C36.7663 62.388 38.2129 61.6426 38.6469 61.6426C38.7915 61.6426 40.2381 62.0899 40.8168 62.2389C41.3954 62.388 41.1061 62.0898 40.6721 61.9408L39.5148 61.4935C38.9362 61.3444 39.5148 61.1953 39.6595 61.1953C39.8041 61.1953 40.8168 61.4935 40.6721 61.3444C40.5274 61.1953 39.8041 60.8971 39.2255 60.5989C38.6469 60.3008 35.7537 57.1699 39.8041 58.3626C39.9488 58.3626 40.0935 58.3626 40.0935 58.2135C40.0935 58.0644 40.0935 58.0644 40.0935 57.9153C39.9488 57.7662 37.7789 56.8717 37.3449 56.8717C36.3323 56.5735 36.1876 55.3808 36.477 55.5298C37.2003 55.828 38.0682 56.1262 38.7915 56.4244C39.0808 56.4244 39.0808 55.9771 38.7915 55.9771C38.5022 55.9771 36.9109 55.2317 36.6216 55.2317C36.3323 55.2317 35.8983 54.9335 36.043 54.7844C36.1876 54.6353 35.8983 54.6353 35.609 54.3371C35.3197 54.0389 35.609 53.8898 36.1876 54.0389C36.7663 54.188 36.477 53.7408 36.3323 53.7408C36.043 53.5917 35.609 53.2935 35.3197 52.9953C35.0304 52.6971 34.8857 51.8026 34.741 51.5044C34.5964 51.2062 35.0304 51.3553 35.3197 51.5044C35.609 51.6535 35.3197 51.2062 35.0304 51.2062C34.741 51.2062 34.5964 50.908 34.4517 50.6099C34.3071 50.3117 35.0304 50.6099 35.3197 50.6099C35.609 50.6099 35.4643 50.4608 35.175 50.3117C34.8857 50.1626 34.5964 50.0135 34.5964 49.7153C34.5964 49.4171 34.8857 49.7153 35.4643 49.7153C36.043 49.7153 35.609 49.4171 35.3197 49.268C35.0304 49.268 34.741 49.1189 34.4517 48.9699C34.1624 48.8208 34.3071 48.6717 34.3071 48.3735C34.3071 48.0753 34.4517 48.0753 34.8857 48.0753C35.3197 48.0753 35.4643 48.0753 35.3197 47.9262C35.175 47.7771 34.5964 47.628 34.4517 47.628C34.3071 47.628 34.0177 47.3299 34.1624 47.1808C34.3071 47.0317 34.0177 46.7335 33.8731 46.5844C33.7284 46.4353 34.0177 46.4353 34.3071 46.4353C34.5964 46.4353 34.4517 45.8389 33.8731 45.988C33.2944 46.1371 33.5838 45.3917 33.5838 44.7953C33.5838 44.1989 33.7284 44.348 33.5838 44.0498C33.4391 43.7517 32.7158 44.6462 32.7158 44.0498C32.8605 43.7517 32.7158 43.4535 32.4265 43.3044C32.2818 43.3044 32.4265 43.0062 32.2818 42.8571C32.1372 42.708 30.4012 42.2608 29.9673 42.1117C29.5333 41.9626 29.9673 41.068 30.9799 41.3662C31.4139 41.5153 31.8478 41.5153 31.8478 41.2171C31.8478 40.9189 31.5585 41.068 30.8352 40.6208C30.1119 40.1735 30.2566 39.5771 31.1245 39.7262C31.4139 39.7262 31.7032 39.5771 31.5585 39.428C31.4139 39.2789 31.1245 39.2789 30.8352 39.1298C30.5459 38.9808 29.5333 37.1917 30.8352 37.3408C31.1245 37.3408 31.2692 37.0426 30.8352 37.0426C30.6906 37.0426 30.4012 36.8935 30.2566 36.8935C29.9673 36.8935 30.2566 35.7008 30.5459 35.5517C30.8352 35.4026 31.1245 35.7008 31.4139 35.8498C31.7032 35.9989 31.7032 35.7008 31.4139 35.5517L30.6906 35.1044C30.5459 34.9553 30.6906 34.9553 30.8352 34.8062C30.9799 34.6571 31.4139 34.9553 31.8478 35.1044C32.2818 35.2535 32.2818 34.8062 31.8478 34.6571C31.4139 34.508 30.8352 34.3589 30.9799 34.2098C31.1245 34.0608 30.9799 33.4644 31.2692 33.4644C31.5585 33.4644 31.9925 33.6135 32.2818 33.6135C32.2818 33.6135 32.7158 33.1662 32.2818 33.1662C31.9925 33.1662 31.7032 33.0171 31.4139 32.868C30.8352 32.5698 31.4139 31.9735 31.7032 32.1226C32.1372 32.2717 32.7158 32.4208 33.1498 32.2717C33.7284 32.1226 33.5838 31.8244 33.1498 31.6753C32.5711 31.5262 31.9925 31.3771 31.4139 31.0789C31.1245 30.9298 31.7032 29.7371 32.1372 29.588C32.5711 29.4389 33.8731 28.3953 35.0304 30.0353C35.175 30.3335 35.7537 30.6317 36.043 30.7808C36.477 31.0789 36.9109 31.3771 37.3449 31.6753C37.4896 31.9735 37.9236 31.9735 38.3575 31.6753C38.7915 31.3771 38.2129 30.9298 37.4896 30.1844C37.2003 30.0353 36.9109 30.0353 36.6216 29.8862C36.3323 29.7371 35.609 28.5444 35.7537 28.2462L35.175 27.5008L34.4517 26.9044C36.9109 26.6062 39.3702 26.9044 41.6847 27.6498C41.6847 27.6498 45.8799 32.4208 46.0245 32.5698C46.1692 32.7189 46.7478 32.868 46.8925 32.7189C47.0372 32.5698 46.8925 31.8244 46.4585 31.8244C46.0245 31.8244 45.7352 30.6317 45.4459 30.3335C45.1566 30.0353 43.71 28.2462 43.4207 27.948C43.1313 27.6498 43.5653 27.6498 43.71 27.7989C43.8546 27.948 44.4333 28.5444 44.5779 28.3953C44.7226 28.2462 44.5779 28.2462 44.2886 27.7989C43.9993 27.3517 44.5779 27.7989 44.5779 27.5008C46.1692 27.7989 47.6158 28.3953 48.7731 29.2898C50.7983 30.6317 52.3896 32.5698 53.4022 34.8062V34.9553C55.7168 37.1917 56.7294 40.4717 56.4401 43.7517ZM57.1634 36.5953V36.8935L56.7294 36.5953C56.4401 35.9989 56.0061 35.4026 55.5721 34.9553C55.4274 34.8062 55.7168 34.508 56.2954 34.9553C56.5847 35.4026 56.8741 35.9989 57.1634 36.5953ZM55.7168 28.5444C55.2828 28.5444 54.9935 28.8426 55.1381 29.2898C55.1381 29.7371 55.1381 30.1844 55.1381 30.6317C55.1381 30.9298 55.4274 31.3771 55.5721 31.5262C55.7168 31.6753 55.8614 32.2717 55.7168 32.4208C55.5721 32.5698 55.2828 32.5698 55.2828 32.868C55.2828 33.1662 55.1381 33.6135 54.9935 33.3153C54.8488 33.0171 54.8488 32.868 54.7041 32.5698C54.5595 32.2717 54.2702 32.1226 54.4148 32.4208C54.5595 32.7189 54.5595 33.0171 54.7041 33.3153C54.8488 33.6135 54.5595 33.7626 54.4148 33.3153C54.2702 32.868 53.9808 32.5698 53.9808 32.1226C53.9808 31.6753 53.6915 31.9735 53.8362 32.2717C53.9809 32.5698 53.6915 32.868 53.5469 32.4208C53.4022 31.9735 52.9682 30.7808 52.8236 30.3335C52.6789 29.8862 52.5342 30.0353 52.5342 30.1844C52.6789 30.3335 52.6789 30.6317 52.6789 30.9298C52.6789 31.0789 52.3896 31.3771 52.3896 30.9298C52.3896 30.4826 52.1003 30.1844 52.1003 29.8862C52.1003 29.588 51.5216 29.2898 51.6663 29.588C51.8109 29.8862 51.8109 30.1844 51.8109 30.4826C51.8109 30.7808 51.5216 30.6317 51.5216 30.3335C51.5216 30.0353 51.377 29.8862 51.2323 29.588C51.0876 29.2898 50.943 29.1408 50.943 29.2898C50.943 29.4389 50.943 29.7371 50.7983 29.588C50.6537 29.4389 50.6537 29.2898 50.509 28.9917C50.3643 28.6935 50.2197 28.2462 50.075 27.948C49.9304 27.6498 49.641 27.6498 49.7857 27.7989C49.9304 28.0971 49.9304 28.3953 50.075 28.8426C50.075 29.1408 49.7857 28.9917 49.641 28.8426C49.4964 28.6935 49.2071 27.7989 49.0624 27.5008C48.9177 27.2026 48.7731 27.5008 48.7731 27.6498C48.9177 27.948 49.0624 28.2462 49.0624 28.5444C49.0624 28.8426 48.7731 28.3953 48.6284 28.2462C48.4838 27.948 48.3391 27.6498 48.1944 27.3517C48.0498 27.0535 47.7605 27.2026 47.9051 27.3517C48.0498 27.5008 48.0498 27.6498 48.0498 27.948C48.0498 28.2462 47.7605 27.948 47.6158 27.7989C47.4711 27.6498 47.1818 26.9044 47.0372 26.7553C46.8925 26.6062 46.6032 26.7553 46.7478 27.0535C46.8925 27.3517 46.8925 27.5008 46.8925 27.6498C46.8925 27.7989 46.3139 27.5008 46.3139 27.3517C46.3139 27.2026 45.8799 26.6062 45.5906 26.1589C45.3012 25.7117 45.3012 26.1589 45.4459 26.308C45.5906 26.6062 45.7352 26.7553 45.7352 27.0535C45.7352 27.3517 45.4459 27.2026 45.4459 27.0535C45.4459 26.9044 45.1566 26.4571 45.0119 26.308C44.8673 26.1589 44.4333 26.0098 44.7226 26.6062C45.0119 27.2026 44.8673 27.2026 44.5779 27.2026C44.2886 27.2026 44.144 27.0535 44.144 27.0535C44.144 27.0535 43.9993 26.6062 43.9993 26.308C43.9993 26.0098 43.71 26.1589 43.8546 26.308C43.9993 26.4571 43.8546 26.6062 43.8546 26.9044C43.8546 27.2026 43.5653 26.9044 43.5653 26.9044C43.4207 26.6062 43.4207 26.4571 43.276 26.1589C43.276 26.0098 42.9867 26.0098 43.1313 26.1589C43.276 26.308 43.276 26.4571 43.276 26.7553C43.276 27.0535 43.276 27.0535 43.1313 26.9044C42.9867 26.7553 42.842 26.4571 42.5527 26.308C42.408 26.0098 42.1187 26.4571 41.8294 26.4571C41.5401 26.4571 41.2508 26.0098 41.1061 25.8608C40.9614 25.7117 40.8168 25.8608 40.9614 26.0098C41.1061 26.1589 41.2508 26.4571 41.2508 26.6062C41.2508 26.7553 41.2508 27.0535 40.9614 27.2026C40.6721 27.3517 40.3828 26.6062 40.0935 26.6062C39.8041 26.6062 39.3702 26.6062 39.2255 26.9044C38.9362 26.9044 38.6469 26.7553 38.3575 26.7553L37.6342 26.4571C37.4896 26.4571 37.4896 26.308 37.4896 26.1589C43.9993 23.028 51.6663 23.9226 57.1634 28.6935H57.0187C56.7294 28.5444 56.4401 28.5444 56.2954 28.5444C56.7294 28.3953 56.0061 28.5444 55.7168 28.5444ZM58.3207 29.588C58.176 29.7371 57.8867 29.8862 57.8867 30.1844C57.742 30.6317 57.5974 31.228 57.742 31.6753C57.742 32.1226 57.8867 32.4208 58.0313 32.868C58.176 33.4644 58.3207 33.9117 58.3207 34.508C58.3207 34.8062 58.3207 35.1044 58.3207 35.5517C58.3207 35.7008 58.3207 35.8498 58.3207 36.148C58.4653 36.4462 58.61 36.7444 58.7546 37.0426C58.8993 37.3408 59.1886 37.6389 59.3333 37.9371C59.3333 37.9371 59.3333 37.9371 59.3333 38.0862C59.1886 38.0862 59.044 38.0862 59.044 37.9371C58.61 37.6389 58.3207 37.1917 58.0313 36.7444C57.8867 36.5953 57.8867 36.2971 57.742 35.9989C57.742 35.8498 57.742 35.5517 57.742 35.4026C58.0313 34.6571 57.1634 33.0171 57.0187 32.868C56.8741 32.5698 56.7294 32.2717 56.5847 31.9735C56.5847 31.8244 56.2954 30.7808 56.7294 30.1844C57.0187 29.8862 57.4527 29.588 57.742 29.4389C58.0313 29.4389 58.176 29.4389 58.3207 29.588Z" fill="#CCD1DC"/>
<path d="M42.4043 27.9472C42.2596 27.7981 42.1149 27.7981 41.9703 27.649C41.247 27.3508 40.5237 27.0527 39.8004 26.7545C39.5111 26.6054 39.3664 26.6054 39.0771 26.6054L38.3538 26.4563H37.4858C36.9072 26.4563 36.3285 26.4563 35.7499 26.4563C35.4606 26.4563 35.3159 26.6054 35.0266 26.6054C33.8693 26.7545 32.8567 27.2018 31.8441 27.7981C31.2654 28.0963 30.8314 28.5436 30.3975 28.9908C29.9635 29.289 29.5295 29.5872 29.0955 29.7363C26.2023 30.6308 23.8878 32.7181 22.7305 35.5508C22.7305 35.6999 22.8751 35.849 22.8751 35.6999C24.3217 33.3145 26.6363 31.5254 29.2402 30.6308C29.6742 30.4818 30.1081 30.6308 30.2528 31.0781C30.2528 31.2272 30.2528 31.2272 30.2528 31.3763C30.3975 32.1218 30.3975 33.0163 30.2528 33.9108C30.1081 34.5072 29.8188 35.1036 29.6742 35.6999C29.3848 36.4454 29.3848 37.0418 29.3848 37.7872C29.8188 39.5763 29.5295 41.5145 28.8062 43.1545C28.6615 43.4527 28.8062 43.6018 29.0955 43.3036C30.3975 41.9618 30.3975 40.0236 30.2528 38.0854C30.2528 37.489 30.2528 36.7436 30.5421 36.1472C31.2654 35.1036 31.5547 33.9108 31.5547 32.7181C31.5547 31.9727 31.5547 31.3763 31.4101 30.7799C31.2654 30.3327 31.5547 29.7363 31.8441 29.4381C32.4227 28.8418 33.146 28.5436 34.014 28.2454C34.4479 28.2454 34.8819 28.3945 35.0266 28.8418C36.0392 30.4818 37.6305 31.8236 39.5111 32.2708C40.2344 32.4199 40.6683 33.1654 40.379 33.9108C40.379 34.8054 40.0897 35.5508 39.5111 36.2963C38.3538 37.3399 37.4858 38.6818 36.9072 40.1727C36.7625 40.769 36.3285 41.2163 35.6052 41.5145C33.146 42.1108 31.5547 44.049 32.4227 46.1363C33.0013 47.329 33.4353 48.6708 33.7246 50.0127C34.1586 51.6527 34.5926 53.4418 35.1712 55.0818C35.7499 56.8708 36.4732 58.6599 37.4858 60.2999C37.6305 60.5981 37.9198 60.449 37.7751 60.1508C36.7625 58.0636 35.8945 55.8272 35.3159 53.4418C35.3159 53.2927 35.3159 52.9945 35.4606 52.9945H35.6052C37.1965 53.2927 38.6431 53.7399 39.945 54.3363C40.2344 54.4854 40.379 54.1872 40.0897 54.0381C38.6431 53.1436 36.9072 52.5472 35.3159 52.0999C35.0266 52.0999 34.8819 51.6527 34.7373 51.3545C34.4479 49.5654 34.014 47.9254 33.4353 46.1363C33.0013 45.2418 33.2907 44.1981 34.1586 43.7508C34.7373 43.3036 35.3159 43.1545 36.0392 43.0054C36.1839 43.0054 36.3285 43.0054 36.3285 43.0054L36.4732 43.1545C36.4732 43.3036 36.6178 43.3036 36.6178 43.4527C36.9072 44.6454 37.4858 45.689 38.2091 46.5836C38.7878 47.1799 39.2217 47.9254 39.5111 48.8199C39.6557 49.2672 39.8004 49.1181 39.8004 48.8199C39.6557 47.9254 39.3664 47.0308 38.7878 46.2854C38.2091 45.3908 37.7751 44.4963 37.4858 43.4527C37.3411 42.5581 37.3412 41.8127 37.6305 40.9181C38.0645 39.4272 38.9324 38.2345 40.0897 37.3399C41.1023 36.4454 41.681 35.1036 41.5363 33.7618C41.5363 33.3145 41.9703 33.1654 42.2596 33.6127C42.8382 35.1036 43.8509 36.2963 45.1528 37.1908C47.9013 38.9799 48.046 41.8127 45.7314 43.3036C42.6936 45.3908 42.6936 48.0745 44.1402 50.7581C44.5742 51.5036 45.0081 52.3981 45.5868 52.9945C46.0208 53.5908 46.0208 54.1872 45.7314 54.7836C44.8635 56.4236 44.8635 58.3618 45.8761 59.8527C46.4547 60.5981 46.8887 61.3436 47.178 62.2381C47.3227 62.6854 47.612 62.5363 47.4674 62.2381C47.178 61.3436 46.7441 60.449 46.3101 59.7036C45.8761 58.5108 45.8761 57.3181 46.3101 56.1254C46.5994 55.529 46.7441 55.0818 46.8887 54.6345C47.0334 54.1872 47.3227 54.0381 47.612 54.3363C48.1907 55.0818 48.6246 55.9763 49.0586 57.0199C49.3479 57.6163 49.7819 58.0636 50.3606 58.3618C51.5178 58.809 52.3858 59.7036 52.9644 60.7472C53.1091 61.0454 53.2538 60.8963 53.2538 60.7472C52.9645 59.4054 52.0965 58.809 50.7945 57.9145C50.2159 57.6163 49.7819 57.0199 49.4926 56.4236C48.914 54.9327 48.6246 53.7399 47.612 52.9945C46.8887 52.5472 46.4547 52.5472 46.0208 51.9508C44.8635 50.7581 44.2848 49.1181 44.2848 47.4781C44.4295 46.1363 45.2975 44.9436 46.5994 44.1981C47.9013 43.4527 48.7693 41.9618 48.7693 40.4708C48.7693 40.0236 49.0586 39.8745 49.4926 40.0236C51.3732 40.3218 52.6751 41.8127 52.9644 43.7508C52.9644 44.1981 53.3984 44.049 53.3984 43.7508C53.3984 41.8127 52.2412 40.1727 50.6499 39.4272C50.5052 39.2781 50.3606 39.129 50.0712 39.129H49.9266L49.4926 38.9799C49.0586 38.9799 48.6246 38.9799 48.3353 38.3836C47.7567 37.3399 47.0334 36.5945 46.0208 35.9981C45.1528 35.2527 44.4295 34.3581 43.8509 33.3145C43.2722 32.1218 42.6936 31.3763 41.5363 31.2272C39.6557 31.2272 37.7751 30.1836 36.6178 28.5436C36.4732 28.2454 36.6178 27.7981 37.0518 27.7981C39.3664 27.7981 41.681 28.5436 43.4169 30.0345C44.4295 30.929 45.2975 32.1218 46.0208 33.3145C47.178 34.9545 49.2033 35.6999 51.0839 35.5508C53.2538 35.5508 54.7004 36.4454 55.713 39.2781C56.581 41.0672 56.581 43.1545 55.713 44.7945C54.845 46.1363 54.5557 47.9254 54.845 49.5654C55.1344 50.609 54.9897 51.0563 55.1344 52.0999C55.4237 53.2927 56.0023 54.1872 56.8703 55.0818C57.4489 55.6781 57.7382 56.4236 57.8829 57.169C58.0276 58.0636 58.4615 58.809 58.8955 59.4054C59.0402 59.5545 59.3295 59.4054 59.1848 59.1072C58.7509 58.5108 58.6062 57.6163 58.6062 56.8708C58.4615 55.9763 58.1722 55.2308 57.5936 54.4854C57.1596 54.0381 56.8703 53.4418 56.581 52.8454C56.4363 52.249 56.8703 52.0999 57.3043 52.3981C59.1848 53.7399 60.6314 55.6781 61.2101 57.9145C61.3547 58.2127 61.4994 58.2127 61.4994 57.9145C61.0654 55.3799 59.7635 53.1436 57.8829 51.6527C56.8703 50.9072 56.147 49.8636 55.713 48.6708C55.5683 47.329 55.8577 45.8381 56.581 44.7945C57.3043 43.4527 57.4489 41.2163 56.4363 38.3836C56.0023 36.7436 54.9897 35.4018 53.5431 34.5072L53.3984 34.3581C52.5305 34.0599 51.6625 33.9108 50.7945 33.9108C49.3479 34.0599 47.7567 33.4636 46.7441 32.2708C45.8761 31.0781 44.8635 29.8854 43.8509 28.8418" fill="white"/>
<path d="M35.6145 26.3075L34.8912 26.4566C33.7339 26.6057 32.5766 27.0529 31.7087 27.6493C31.13 27.9475 30.6961 28.3947 30.2621 28.842C29.9727 29.1402 29.5388 29.4384 28.9601 29.5875C26.0669 30.482 23.7524 32.7184 22.5951 35.5511C22.4504 35.7002 22.5951 35.8493 22.7397 35.9984C22.8844 35.9984 23.0291 35.9984 23.0291 35.8493C24.4757 33.4638 26.6456 31.6747 29.2494 30.9293C29.3941 30.7802 29.5388 30.7802 29.8281 30.9293C29.9727 31.0784 30.1174 31.2275 30.1174 31.5257C30.2621 32.2711 30.2621 33.1657 30.1174 33.9111C29.9727 34.3584 29.8281 34.6566 29.6834 35.1038L29.5388 35.5511C29.2494 36.2966 29.2494 37.042 29.2494 37.7875V38.0857C29.5388 39.7257 29.3941 41.5147 28.6708 43.0057C28.5261 43.1547 28.5261 43.3038 28.6708 43.4529C28.8155 43.4529 28.9601 43.602 29.1048 43.3038C30.4067 41.962 30.5514 40.0238 30.4067 37.9366C30.4067 37.3402 30.4067 36.5947 30.696 36.1475C31.4193 35.1038 31.7087 33.9111 31.7087 32.5693V31.8238V30.6311C31.7087 30.1838 31.8533 29.7366 32.1427 29.4384C32.7213 28.842 33.4446 28.5438 34.1679 28.3947C34.6019 28.2457 34.8912 28.5438 35.0359 28.9911C36.0485 30.7802 37.4951 31.9729 39.3757 32.7184C40.099 33.0166 40.2436 33.3147 40.2436 34.0602V34.2093C40.2436 34.9547 39.9543 35.7002 39.3757 36.2966C38.2184 37.3402 37.2058 38.682 36.7718 40.1729C36.6271 40.7693 36.1931 41.0675 35.6145 41.2166C34.3126 41.5147 33.1553 42.4093 32.5766 43.602C32.1427 44.3475 32.1427 45.3911 32.5766 46.1366L32.866 46.7329C33.2999 47.7766 33.5893 48.8202 33.8786 50.0129C34.1679 51.3547 34.7465 53.5911 35.3252 55.082C35.9038 56.8711 36.6271 58.6602 37.6397 60.3002C37.7844 60.5984 37.9291 60.5984 38.0737 60.4493C38.2184 60.3002 38.2184 60.002 38.0737 59.8529C37.0611 57.7657 36.1931 55.5293 35.6145 53.1438C35.6145 53.1438 35.6145 52.9947 35.6145 52.8457H35.7592C37.2058 53.1438 38.6524 53.5911 40.099 54.1875C40.2436 54.3366 40.3883 54.1875 40.5329 54.0384C40.6776 53.8893 40.5329 53.7402 40.3883 53.5911C38.797 52.6966 37.2058 52.1002 35.4698 51.6529C35.1805 51.6529 35.1805 51.2057 35.0359 50.9075L34.8912 50.162C34.6019 48.6711 34.1679 47.1802 33.7339 45.6893C33.2999 44.9438 33.5893 43.9002 34.3126 43.4529C34.8912 43.0057 35.4698 42.8566 36.0485 42.7075C36.1931 42.7075 36.1931 42.7075 36.3378 42.7075L36.4825 42.8566C36.4825 43.0057 36.6271 43.0057 36.6271 43.1547C36.9164 44.3475 37.4951 45.3911 38.2184 46.2857C38.797 46.882 39.231 47.6275 39.5203 48.522C39.665 48.9693 39.8096 48.9693 39.9543 48.9693C40.099 48.9693 40.2436 48.8202 40.2436 48.522C40.099 47.6275 39.8096 46.5838 39.231 45.8384C38.6524 45.0929 38.2184 44.0493 37.9291 43.0057C37.7844 42.2602 37.9291 41.5147 38.0737 40.7693C38.5077 39.4275 39.3757 38.0857 40.3883 37.1911C41.5456 36.2966 42.1242 34.9547 41.9795 33.4638C41.9795 33.3147 41.9795 33.3147 42.1242 33.1657C42.2689 33.1657 42.2689 33.1657 42.2689 33.3147C42.8475 34.8057 43.7155 36.1475 45.0174 37.042C46.464 37.9366 47.332 38.9802 47.332 40.1729C47.332 41.2166 46.7533 42.2602 45.8854 42.8566C42.4135 45.242 42.9922 48.2238 44.1494 50.4602C44.5834 51.2057 45.0174 51.9511 45.5961 52.6966C46.03 53.1438 46.03 53.8893 45.7407 54.3366C44.8727 55.9766 44.8728 57.9147 45.8854 59.5547C46.464 60.3002 46.898 61.0457 47.1873 61.7911C47.332 62.0893 47.4766 62.2384 47.6213 62.0893C47.766 61.9402 47.9106 61.9402 47.766 61.4929C47.4766 60.5984 47.1873 59.8529 46.7533 59.1075L46.6087 58.9584C46.1747 57.7657 46.1747 56.5729 46.6087 55.5293L47.0427 54.4857L47.1873 54.0384C47.1873 53.8893 47.332 53.7402 47.4766 53.7402C47.6213 53.7402 47.6213 53.7402 47.6213 53.8893C48.1999 54.6347 48.6339 55.5293 49.0679 56.4238V56.5729C49.3572 57.1693 49.9359 57.7657 50.5145 57.9147C51.6718 58.362 52.5397 59.1075 52.9737 60.1511C53.1184 60.4493 53.263 60.4493 53.4077 60.4493C53.5524 60.4493 53.697 60.1511 53.5524 60.002C53.263 58.6602 52.3951 58.0638 51.2378 57.1693C50.5145 56.722 50.2252 56.4238 50.0805 55.8275L49.6465 55.3802C49.3572 54.3366 48.7786 53.2929 47.9106 52.6966L47.332 52.3984C46.898 52.2493 46.6087 51.9511 46.3194 51.6529C45.3067 50.4602 44.7281 48.9693 44.5834 47.3293C44.7281 45.9875 45.5961 44.7947 46.6087 44.1984C47.9106 43.4529 48.7786 41.962 48.7786 40.322C48.7786 40.1729 48.7786 40.1729 48.9232 40.0238C49.0679 40.0238 49.2126 40.0238 49.3572 40.0238C51.0931 40.322 52.5397 41.8129 52.6844 43.602C52.6844 43.9002 52.9737 44.0493 53.1184 44.0493C53.263 44.0493 53.4077 43.7511 53.4077 43.602C53.4077 41.6638 52.2504 39.8747 50.5145 39.1293C50.3698 38.9802 50.0805 38.8311 49.9359 38.8311H49.7912L49.3572 38.682H49.2126C48.9232 38.682 48.4893 38.5329 48.3446 38.2347C47.766 37.1911 46.898 36.2966 45.8854 35.8493C45.0174 35.1038 44.2941 34.2093 43.8601 33.0166C43.2815 31.9729 42.7028 31.0784 41.4009 30.9293C39.5203 30.9293 37.6397 29.8857 36.4825 28.3947V28.2457V28.0966C36.4825 27.9475 36.6271 27.9475 36.7718 27.9475C39.0863 27.7984 41.2562 28.6929 42.9922 30.1838C44.0048 31.0784 44.8728 32.2711 45.5961 33.3147C46.7533 34.9547 48.7786 35.8493 50.8038 35.5511C52.6844 35.5511 54.131 36.1475 55.2883 39.1293C56.1562 40.7693 56.1562 42.8566 55.2883 44.4966C54.2757 45.9875 53.9863 47.7766 54.4203 49.4166C54.565 49.8638 54.565 50.3111 54.565 50.6093C54.565 51.0566 54.7096 51.5038 54.7096 51.802C54.999 52.9947 55.5776 54.0384 56.4456 54.9329C56.8795 55.5293 57.3135 56.1257 57.4582 56.8711C57.6029 57.7657 58.0368 58.5111 58.6155 59.2566C58.7601 59.4057 58.9048 59.4057 59.0495 59.2566C59.1941 59.1075 59.1941 58.9584 59.0495 58.8093C58.6155 58.2129 58.4708 57.4675 58.3262 56.722C58.1815 55.8275 57.8922 54.9329 57.3135 54.3366C56.8795 53.8893 56.5902 53.442 56.4456 52.8457C56.4456 52.6966 56.4456 52.5475 56.4456 52.5475C56.5902 52.5475 56.7349 52.5475 56.8795 52.6966C58.7601 54.0384 60.0621 55.9766 60.7854 58.2129C60.7854 58.5111 61.0747 58.6602 61.2194 58.5111C61.364 58.5111 61.5087 58.2129 61.5087 58.0638C61.0747 55.5293 59.7728 53.2929 57.8922 51.6529H57.7475C56.7349 51.0566 56.1562 50.0129 55.7223 48.8202C55.7223 48.522 55.5776 48.2238 55.5776 47.9257C55.5776 46.882 56.0116 45.8384 56.5902 44.9438C57.0242 44.1984 57.1689 43.1547 57.1689 42.2602C57.1689 40.9184 56.8795 39.7257 56.4456 38.3838C56.0116 36.7438 54.999 35.2529 53.5524 34.5075L53.4077 34.2093C52.5397 33.762 51.6718 33.6129 50.8038 33.6129H50.6592C49.0679 33.4638 47.766 33.762 46.7533 32.4202V32.122C46.03 31.0784 45.1621 30.0347 44.1494 28.9911C43.7155 28.5438 43.1368 28.0966 42.5582 27.7984C42.5582 27.7984 42.4135 27.6493 41.9795 27.5002C41.2562 27.202 40.5329 26.9038 39.8096 26.6057C39.5203 26.4566 39.3757 26.4566 39.0863 26.4566L38.363 26.3075H37.4951C36.7718 26.3075 36.1931 26.1584 35.6145 26.3075ZM31.8533 27.7984C32.866 27.202 33.8786 26.9038 35.0359 26.7547L35.7592 26.6057C36.3378 26.6057 36.9164 26.6057 37.4951 26.6057L38.363 26.7547H39.0863C39.3757 26.7547 39.5203 26.9038 39.8096 26.9038C40.5329 27.0529 41.2562 27.3511 41.9795 27.6493C42.1242 27.6493 42.4135 27.7984 42.4135 27.7984C42.9922 28.0966 43.4261 28.5438 44.0048 28.9911C44.8727 29.8857 45.7407 30.9293 46.6087 31.9729L46.898 32.4202C47.9106 33.6129 49.5019 34.2093 50.9485 34.0602H51.0931C51.9611 34.0602 52.6844 34.2093 53.5524 34.5075H53.697C55.1436 35.402 56.0116 36.7438 56.4456 38.2347C56.8795 39.4275 57.0242 40.6202 57.1689 41.962C57.1689 42.8566 57.0242 43.7511 56.5902 44.4966C56.0116 45.5402 55.7223 46.7329 55.7223 47.9257C55.7223 48.2238 55.7223 48.522 55.8669 48.8202C56.1562 50.0129 56.8795 51.0566 57.8922 51.802H58.0368C59.9174 53.2929 61.2194 55.5293 61.5087 57.9147C61.5087 57.9147 61.5087 57.9147 61.5087 57.7657C60.7854 55.5293 59.4834 53.442 57.4582 52.1002C57.3135 51.9511 56.8796 51.802 56.7349 51.9511C56.5902 52.1002 56.5902 52.2493 56.5902 52.3984C56.5902 52.5475 56.5902 52.5475 56.5902 52.6966C56.7349 53.2929 57.1689 53.8893 57.6028 54.3366C58.1815 54.9329 58.4708 55.8275 58.4708 56.5729C58.4708 57.3184 58.7601 58.2129 59.1941 58.8093C58.6155 58.2129 58.3262 57.4675 58.1815 56.5729C58.0368 55.8275 57.6029 55.082 57.1689 54.4857C56.3009 53.5911 55.7223 52.6966 55.4329 51.5038C55.2883 51.0566 55.2883 50.7584 55.2883 50.3111C55.2883 49.8638 55.1436 49.4166 55.1436 48.9693C54.999 48.522 54.999 47.9257 54.999 47.4784C54.999 46.2857 55.2883 45.242 56.0116 44.1984C56.4456 43.4529 56.7349 42.5584 56.7349 41.8129C56.7349 40.7693 56.4456 39.7257 56.1562 38.682C55.1436 35.9984 53.697 34.9547 51.3825 34.9547C49.5019 35.2529 47.6213 34.3584 46.464 32.8675C45.7407 31.6747 44.8727 30.6311 43.7155 29.5875C41.9795 28.0966 39.665 27.202 37.2058 27.3511C36.9164 27.3511 36.7718 27.5002 36.6271 27.6493C36.6271 27.7984 36.6271 27.7984 36.6271 27.9475C36.6271 28.0966 36.6271 28.2457 36.7718 28.2457C37.9291 29.8857 39.8096 30.9293 41.8349 30.9293C42.9922 31.0784 43.5708 31.8238 44.0048 32.8675C44.4388 33.9111 45.3067 34.9547 46.1747 35.7002C47.1873 36.2966 47.9106 37.042 48.4893 38.0857C48.7786 38.5329 49.0679 38.682 49.5019 38.682H49.6465L50.2252 38.8311H50.3698C50.5145 38.8311 50.6592 38.9802 50.8038 38.9802C52.3951 39.7257 53.5524 41.3657 53.5524 43.3038C53.5524 43.4529 53.5524 43.4529 53.5524 43.4529V43.3038C53.263 41.3657 51.8164 39.7257 49.9359 39.4275C49.6465 39.4275 49.3572 39.4275 49.2126 39.5766C49.0679 39.7257 48.9232 39.8747 48.9232 40.0238V40.1729C48.9232 41.6638 48.0553 42.8566 46.898 43.602C45.7407 44.3475 44.8727 45.5402 44.5834 46.882C44.5834 47.0311 44.5834 47.0311 44.5834 47.1802C44.7281 48.8202 45.3067 50.3111 46.3194 51.5038C46.6087 51.802 46.898 52.1002 47.332 52.2493L47.9106 52.5475C48.7786 53.1438 49.2126 54.0384 49.5019 55.082L49.7912 55.8275C50.0805 56.4238 50.5145 57.0202 51.0931 57.3184L51.2378 57.4675C52.3951 58.2129 53.1184 58.8093 53.4077 60.1511C52.8291 58.9584 51.9611 58.0638 50.8038 57.6166C50.2252 57.3184 49.7912 57.0202 49.5019 56.4238V56.5729C49.0679 55.6784 48.6339 54.7838 48.0553 54.0384C47.9106 53.8893 47.766 53.8893 47.6213 53.8893C47.332 53.8893 47.1873 54.1875 47.1873 54.3366L46.7533 54.7838L46.3194 55.8275C46.1747 56.4238 46.03 57.0202 46.03 57.7657C46.03 58.362 46.1747 58.9584 46.3194 59.5547L46.464 59.8529C46.898 60.5984 47.1873 61.3438 47.4766 62.0893V62.2384C47.4766 62.2384 47.4766 62.0893 47.332 62.0893C46.898 61.3438 46.464 60.4493 46.03 59.7038C45.5961 59.1075 45.3067 58.2129 45.1621 57.4675C45.1621 56.5729 45.4514 55.6784 45.7407 54.9329C45.8854 54.6347 45.8854 54.3366 45.8854 54.0384C45.8854 53.5911 45.7407 53.2929 45.4514 52.8457C44.8727 52.1002 44.4388 51.3547 44.0048 50.6093C42.8475 48.522 42.2689 45.5402 45.5961 43.4529C46.6087 42.8566 47.1873 41.8129 47.332 40.6202C47.1873 39.1293 46.3194 37.7875 45.0174 37.042C43.7155 36.1475 42.7028 34.9547 42.1242 33.4638C41.9795 33.1657 41.8349 33.0166 41.5456 33.1657C41.4009 33.1657 41.2562 33.4638 41.2562 33.6129C41.2562 33.762 41.2562 33.762 41.2562 33.9111C41.2562 35.1038 40.6776 36.2966 39.8096 37.042C38.6524 37.9366 37.7844 39.2784 37.3504 40.7693C37.2058 41.3657 37.0611 41.8129 37.0611 42.4093C37.0611 42.7075 37.0611 42.8566 37.0611 43.1547C37.3504 44.1984 37.7844 45.242 38.363 46.1366C38.9417 46.882 39.231 47.7766 39.3757 48.6711V48.522C39.0863 47.6275 38.6524 46.882 38.0737 46.2857C37.3504 45.3911 36.7718 44.3475 36.4825 43.3038C36.4825 43.1547 36.3378 43.0057 36.3378 42.8566L36.1931 42.7075C36.0485 42.7075 35.9038 42.5584 35.7592 42.5584C35.0359 42.5584 34.3126 42.8566 33.7339 43.3038C33.1553 43.7511 32.866 44.3475 32.866 44.9438C32.866 45.242 33.0106 45.5402 33.0106 45.8384C33.5893 47.3293 33.8786 48.8202 34.1679 50.3111L34.3126 51.0566C34.4572 51.6529 34.6019 51.9511 35.0359 51.9511C36.6271 52.3984 38.363 52.9947 39.8096 53.8893C38.363 53.2929 36.9164 52.8457 35.3252 52.5475C35.1805 52.5475 35.0359 52.5475 34.8912 52.6966C34.7465 52.8457 34.7465 52.9947 34.7465 53.1438C35.3252 55.5293 36.1931 57.7657 37.2058 59.8529C36.1931 58.2129 35.4698 56.5729 34.8912 54.7838C34.3126 53.1438 33.8786 51.5038 33.4446 49.8638C33.1553 48.8202 32.866 47.6275 32.432 46.5838L32.1427 45.9875C32.2873 45.5402 32.2873 45.242 32.2873 44.7947C32.2873 44.3475 32.432 43.9002 32.5766 43.602C33.2999 42.5584 34.3126 41.6638 35.6145 41.5147C36.1931 41.3657 36.7718 40.7693 36.9164 40.1729C37.3504 38.682 38.363 37.3402 39.5203 36.2966C40.099 35.7002 40.5329 34.8057 40.5329 33.9111C40.5329 33.762 40.5329 33.6129 40.5329 33.4638C40.5329 32.8675 40.099 32.2711 39.5203 31.9729C37.6397 31.3766 36.0485 30.1838 35.0359 28.5438C34.8912 28.0966 34.3126 27.7984 33.7339 27.7984C32.866 27.9475 32.1427 28.3947 31.564 28.9911C31.2747 29.2893 31.13 29.7366 31.13 30.1838V30.3329V31.5257V32.2711C31.13 32.4202 31.13 32.4202 31.13 32.5693C30.9854 33.6129 30.696 34.8057 30.1174 35.7002C29.8281 36.2966 29.6834 36.8929 29.6834 37.3402C29.6834 37.4893 29.6834 37.4893 29.6834 37.6384C29.6834 38.0857 29.6834 38.5329 29.6834 38.9802C29.8281 40.322 29.3941 41.6638 28.5261 42.7075C29.1048 41.6638 29.3941 40.6202 29.2494 39.5766C29.2494 38.9802 29.2494 38.2347 29.1048 37.6384V37.3402C29.1048 37.1911 29.1048 37.042 29.1048 36.8929C29.1048 36.2966 29.2494 35.8493 29.3941 35.2529L29.5388 34.8057C29.6834 34.3584 29.8281 34.0602 29.9727 33.6129C30.1174 33.3147 30.1174 33.0166 30.1174 32.7184C30.1174 32.2711 30.1174 31.6747 29.9727 31.0784C29.9727 30.7802 29.8281 30.482 29.5388 30.3329C29.2494 30.1838 28.9601 30.1838 28.8155 30.1838C26.3562 30.9293 24.1863 32.5693 22.5951 34.8057C23.7524 32.2711 26.0669 30.3329 28.6708 29.4384C29.2494 29.2893 29.6834 28.9911 29.9727 28.6929C30.696 28.5438 31.13 28.0966 31.8533 27.7984Z" fill="#CCD1DC"/>
<path d="M32.4297 55.6772C31.8511 55.5281 31.5618 55.0808 30.9831 54.3354C30.8385 54.1863 30.6938 54.1863 30.5491 54.0372C30.1151 53.5899 29.6812 53.1427 29.2472 52.6954C28.6685 52.2481 28.0899 51.9499 27.5113 51.5027C26.2093 51.0554 25.7753 49.7136 25.486 49.1172C25.1967 48.5208 24.7627 47.9245 24.4734 47.3281C24.4734 47.4772 23.8948 46.4336 23.7501 46.2845C23.6054 46.1354 23.0268 45.6881 23.1715 45.9863C23.3161 46.4336 23.4608 46.7317 23.6054 47.0299C23.8948 47.4772 24.1841 47.9245 24.3287 48.3717C24.6181 48.819 24.9074 49.2663 25.1967 49.8627C25.6307 50.6081 26.0647 51.3536 26.354 51.8008C26.6433 52.3972 26.9326 53.1427 27.0773 53.739C27.3666 54.7827 27.6559 55.9754 28.0899 57.019C28.2346 57.1681 28.2346 57.1681 28.2346 57.1681C28.2346 57.1681 28.2346 57.019 28.2346 56.8699C27.8006 55.6772 27.5113 54.3354 27.3666 52.9936C27.3666 52.6954 27.3666 52.5463 27.5113 52.5463C27.6559 52.5463 27.8006 52.5463 28.2346 52.6954C29.1025 53.2917 29.8258 54.0372 30.5491 54.7827C30.9831 55.379 31.7064 55.8263 32.5744 55.9754C32.719 55.9754 32.8637 55.9754 32.8637 55.9754C32.5744 56.2736 32.5744 55.6772 32.4297 55.6772Z" fill="white"/>
</g>
<path d="M40.5402 74.9045C22.8917 74.9045 8.57031 60.1445 8.57031 41.9554C8.57031 23.7663 22.8917 9.00635 40.5402 9.00635C58.1888 9.00635 72.5101 23.7663 72.5101 41.9554C72.5101 60.1445 58.1888 74.9045 40.5402 74.9045ZM40.5402 10.05C23.4703 10.05 9.58293 24.3627 9.58293 41.9554C9.58293 59.5482 23.4703 73.8609 40.5402 73.8609C57.6101 73.8609 71.4975 59.5482 71.4975 41.9554C71.4975 24.3627 57.6101 10.1991 40.5402 10.05Z" fill="#CCD1DC"/>
<path d="M95.7956 9.00635H98.3995L105.633 26.1518H102.595L100.859 21.9773H93.0471L91.3112 26.1518H88.418L95.7956 9.00635ZM99.9908 19.4427L97.0976 12.5845L94.2044 19.4427H99.9908Z" fill="#CCD1DC"/>
<path d="M108.809 9.16187H111.847L116.91 17.2128L121.973 9.16187H125.011V26.1582H122.117V13.9328L116.91 21.9837H116.765L111.557 14.0819V26.3073H108.664L108.809 9.16187Z" fill="#CCD1DC"/>
<path d="M129.496 9.16187H141.648V11.8455H132.389V16.3182H140.635V19.0019H132.389V23.6237H141.792V26.3073H129.496V9.16187Z" fill="#CCD1DC"/>
<path d="M145.402 9.1563H152.78C154.516 9.00721 156.252 9.60358 157.554 10.7963C158.422 11.8399 159 13.0327 158.856 14.5236C159 17.0581 157.264 19.1454 154.95 19.5927L159.434 26.0036H155.963L151.912 20.0399H148.296V26.0036H145.402V9.1563ZM152.635 17.6545C154.661 17.6545 155.963 16.4618 155.963 14.8218C155.963 13.0327 154.661 11.989 152.491 11.989H148.296V17.6545H152.635Z" fill="#CCD1DC"/>
<path d="M162.906 9.16187H165.799V26.1582H162.906V9.16187Z" fill="#CCD1DC"/>
<path d="M169.719 17.6576C169.574 12.8867 173.191 9.01035 177.82 8.86126C177.965 8.86126 178.109 8.86126 178.109 8.86126C180.569 8.71217 182.883 9.7558 184.619 11.5449L182.738 13.7813C181.581 12.4394 179.845 11.694 178.109 11.694C175.071 11.694 172.612 14.3776 172.612 17.5085V17.6576C172.468 20.7885 174.927 23.4722 177.965 23.6213H178.109C179.845 23.6213 181.581 22.8758 182.883 21.3849L184.764 23.3231C183.028 25.2613 180.569 26.454 178.109 26.3049C173.48 26.3049 169.719 22.5776 169.719 17.8067C169.719 17.8067 169.719 17.8067 169.719 17.6576Z" fill="#CCD1DC"/>
<path d="M193.878 9.00635H196.626L203.859 26.1518H200.821L199.085 21.9773H191.274L189.538 26.1518H186.645L193.878 9.00635ZM198.073 19.4427L195.179 12.5845L192.286 19.4427H198.073Z" fill="#CCD1DC"/>
<path d="M206.895 9.16187H209.643L218.467 20.94V9.16187H221.361V26.1582H218.901L209.788 14.0819V26.1582H206.895V9.16187Z" fill="#CCD1DC"/>
<path d="M89.1369 41.9567C88.9922 37.1858 92.7534 33.3094 97.2378 33.1603C97.3825 33.1603 97.5271 33.1603 97.5271 33.1603C99.9864 33.0112 102.301 34.0549 104.037 35.844L102.156 37.9312C100.999 36.5894 99.2631 35.844 97.5271 35.844C94.4893 35.844 92.0301 38.5276 92.0301 41.6585V41.8076C91.8854 44.9385 94.3446 47.6221 97.3825 47.7712H97.5271C99.2631 47.7712 100.999 47.0258 102.301 45.5349L104.182 47.4731C102.446 49.4112 99.9864 50.604 97.5271 50.4549C92.898 50.4549 89.1369 46.7276 89.1369 41.9567C89.1369 42.1058 89.1369 42.1058 89.1369 41.9567Z" fill="#CCD1DC"/>
<path d="M106.352 41.9578C106.93 37.0378 111.27 33.6087 116.044 34.205C119.95 34.6523 123.132 37.9323 123.566 41.9578C122.987 46.8778 118.648 50.3068 113.874 49.7105C109.968 49.2632 106.786 46.1323 106.352 41.9578ZM120.528 41.9578C120.673 38.6778 118.214 35.9941 115.176 35.9941H115.031C111.993 35.9941 109.534 38.5287 109.534 41.8087V41.9578C109.389 45.0887 111.849 47.7723 115.031 47.9214H115.176C118.214 47.9214 120.673 45.3868 120.673 42.2559C120.528 42.1068 120.528 42.1068 120.528 41.9578Z" fill="#CCD1DC"/>
<path d="M127.328 33.4604H130.221V47.7732H138.901V50.4568H127.328V33.4604Z" fill="#CCD1DC"/>
<path d="M142.23 33.4604H145.124V47.7732H153.803V50.4568H142.23V33.4604Z" fill="#CCD1DC"/>
<path d="M156.977 33.4604H169.128V36.1441H159.87V40.6168H168.115V43.3005H159.87V47.9223H169.273V50.6059H156.977V33.4604Z" fill="#CCD1DC"/>
<path d="M172.316 41.9587C172.316 37.1878 175.932 33.3115 180.561 33.1624C180.706 33.1624 180.706 33.1624 180.85 33.1624C183.165 33.0133 185.48 33.9078 187.216 35.3987L185.335 37.7842C184.033 36.5915 182.442 35.846 180.706 35.9951C177.668 36.1442 175.209 38.8278 175.353 41.9587C175.209 45.0897 177.379 47.7733 180.416 48.0715C180.561 48.0715 180.706 48.0715 180.85 48.0715C182.297 48.0715 183.599 47.6242 184.901 46.7297V43.5987H180.706V40.9151H187.794V48.0715C185.914 49.7115 183.454 50.7551 180.85 50.7551C176.366 50.9042 172.46 47.326 172.316 42.7042C172.171 42.406 172.171 42.2569 172.316 41.9587Z" fill="#CCD1DC"/>
<path d="M191.707 33.4604H203.859V36.1441H194.6V40.6168H202.846V43.3005H194.6V47.9223H204.003V50.6059H191.707V33.4604Z" fill="#CCD1DC"/>
<path d="M213.98 44.0453C213.98 40.318 216.874 37.3362 220.49 37.3362H220.635C224.251 37.1871 227.145 40.1689 227.289 43.7471V43.8962C227.145 47.6234 223.962 50.6053 220.346 50.4562C216.874 50.4562 214.125 47.6234 213.98 44.0453ZM224.396 44.0453C224.541 41.8089 222.805 40.0198 220.779 39.8707H220.635C218.61 39.8707 216.874 41.5107 216.874 43.7471C216.874 43.8962 216.874 43.8962 216.874 44.0453C216.729 46.2816 218.32 48.0707 220.49 48.2198H220.635C222.66 48.2198 224.396 46.5798 224.396 44.3434C224.396 44.3434 224.396 44.1944 224.396 44.0453Z" fill="#CCD1DC"/>
<path d="M231.06 40.1669H229.469V37.7815H231.06V36.8869C230.915 35.6942 231.349 34.6506 232.073 33.756C232.796 33.0106 233.809 32.7124 234.821 32.7124C235.544 32.7124 236.412 32.8615 237.136 33.0106V35.5451C236.557 35.396 235.978 35.2469 235.4 35.2469C234.243 35.2469 233.809 35.8433 233.809 37.1851V37.9306H237.136V40.1669H233.953V50.4542H231.06V40.1669Z" fill="#CCD1DC"/>
<path d="M89.1369 66.2636C88.9922 61.4927 92.7534 57.6163 97.2378 57.4672C97.3825 57.4672 97.5271 57.4672 97.5271 57.4672C99.9864 57.3181 102.301 58.3618 104.037 60.1509L102.156 62.3872C100.999 61.0454 99.2631 60.2999 97.5271 60.2999C94.4893 60.2999 92.0301 62.9836 92.0301 66.1145V66.2636C91.8854 69.3945 94.3446 72.0781 97.3825 72.2272H97.5271C99.2631 72.2272 100.999 71.4818 102.301 69.9909L104.182 71.929C102.446 73.8672 99.9864 75.0599 97.5271 74.9109C93.0427 74.9109 89.2815 71.0345 89.1369 66.2636Z" fill="#CCD1DC"/>
<path d="M113.448 57.6123H116.052L123.285 74.7578H120.247L118.511 70.5832H110.699L108.964 74.7578H106.07L113.448 57.6123ZM117.498 68.0487L114.605 61.1905L111.857 68.0487H117.498Z" fill="#CCD1DC"/>
<path d="M126.465 57.7584H133.843C135.578 57.6093 137.314 58.2056 138.616 59.3984C139.484 60.442 140.063 61.6347 140.063 63.1256C140.063 65.6602 138.472 67.7474 136.157 68.3438L140.642 74.7547H137.17L133.119 68.7911H129.503V74.7547H126.61L126.465 57.7584ZM133.553 66.1074C135.578 66.1074 136.88 65.0638 136.88 63.2747C136.88 61.4856 135.578 60.442 133.409 60.442H129.213V66.1074H133.553Z" fill="#CCD1DC"/>
<path d="M143.68 57.7595H149.755C154.963 57.7595 158.58 61.4868 158.58 66.2577C158.58 70.8795 154.963 74.7559 150.334 74.7559C150.189 74.7559 150.045 74.7559 149.755 74.7559H143.68V57.7595ZM146.573 60.4432V72.0723H149.755C152.649 72.3704 155.252 69.985 155.542 67.0032C155.542 66.8541 155.542 66.5559 155.542 66.4068C155.686 63.2759 153.372 60.7413 150.334 60.5923C150.189 60.5923 149.9 60.5923 149.755 60.5923L146.573 60.4432Z" fill="#CCD1DC"/>
<path d="M162.473 57.7595H165.366V74.7559H162.473V57.7595Z" fill="#CCD1DC"/>
<path d="M169.285 66.2619C169.285 61.491 173.046 57.4655 177.675 57.4655C177.82 57.4655 177.82 57.4655 177.965 57.4655C182.594 57.3164 186.355 61.0437 186.5 65.8146C186.5 65.9637 186.5 65.9637 186.5 66.1128C186.5 70.8837 182.739 74.9091 178.109 74.9091C177.965 74.9091 177.965 74.9091 177.82 74.9091C173.191 75.0582 169.43 71.1819 169.285 66.411C169.285 66.411 169.285 66.411 169.285 66.2619ZM183.462 66.2619C183.607 62.9819 181.292 60.2982 178.109 60.1491C177.965 60.1491 177.965 60.1491 177.82 60.1491C174.782 60.1491 172.323 62.6837 172.323 65.9637V66.1128C172.178 69.2437 174.638 71.9273 177.82 72.0764H177.965C181.003 72.0764 183.462 69.5419 183.462 66.2619Z" fill="#CCD1DC"/>
<path d="M190.258 57.7595H193.151V72.0723H201.831V74.7559H190.258V57.7595Z" fill="#CCD1DC"/>
<path d="M203.43 66.2619C203.43 61.491 207.191 57.4655 211.82 57.4655C211.965 57.4655 211.965 57.4655 212.109 57.4655C216.738 57.3164 220.5 61.0437 220.644 65.8146C220.644 65.9637 220.644 65.9637 220.644 66.1128C220.066 71.0328 215.726 74.611 210.952 74.0146C207.046 73.5673 203.864 70.2873 203.43 66.2619ZM217.606 66.2619C217.751 62.9819 215.436 60.2982 212.254 60.1491C212.109 60.1491 212.109 60.1491 211.965 60.1491C208.927 60.1491 206.323 62.6837 206.323 65.8146C206.323 65.9637 206.323 65.9637 206.323 66.1128C206.178 69.3928 208.637 71.9273 211.82 72.0764H211.965C215.147 72.0764 217.606 69.5419 217.606 66.2619Z" fill="#CCD1DC"/>
<path d="M223.672 66.2656C223.672 61.4947 227.288 57.6184 231.918 57.4693C232.062 57.4693 232.062 57.4693 232.207 57.4693C234.521 57.3202 236.836 58.2147 238.572 59.7056L236.691 61.942C235.389 60.7493 233.798 60.0038 232.062 60.0038C229.024 60.1529 226.565 62.8365 226.71 65.9674C226.565 69.0984 228.735 71.782 231.773 72.0802C231.917 72.0802 232.062 72.0802 232.351 72.0802C233.798 72.0802 235.1 71.6329 236.402 70.7384V67.6075H232.207V65.0729H239.295V72.2293C237.415 74.0184 234.955 74.9129 232.351 74.9129C227.867 75.062 223.961 71.4838 223.817 66.862C223.672 66.862 223.672 66.5638 223.672 66.2656Z" fill="#CCD1DC"/>
<path d="M247.252 68.0468L240.742 57.7595H244.214L248.843 65.2141L253.472 57.7595H256.799L250.29 68.0468V74.7559H247.397L247.252 68.0468Z" fill="#CCD1DC"/>
<path d="M253.625 71.6322C253.625 69.8431 255.072 68.2031 256.808 68.2031C258.544 68.2031 259.99 69.694 259.99 71.4831C260.135 73.2722 258.688 74.9122 256.952 75.0613C255.216 75.2104 253.625 73.7195 253.48 71.9304C253.625 71.9304 253.625 71.7813 253.625 71.6322ZM259.701 71.6322C259.701 69.9922 258.399 68.6504 256.808 68.6504C255.216 68.6504 253.914 69.9922 253.914 71.6322C253.914 73.2722 255.216 74.614 256.808 74.614C258.399 74.614 259.701 73.1231 259.701 71.6322ZM255.506 69.8431H257.097C257.965 69.8431 258.544 70.1413 258.544 71.0359C258.544 71.4831 258.254 71.9304 257.82 72.0795L258.688 73.2722H257.676L256.952 72.2286H256.374V73.2722H255.506V69.8431ZM257.097 71.4831C257.531 71.4831 257.676 71.334 257.676 71.0359C257.676 70.7377 257.386 70.5886 257.097 70.5886H256.374V71.4831H257.097Z" fill="#CCD1DC"/>
</svg>
