<svg width="260" height="84" viewBox="0 0 260 84" fill="none" xmlns="http://www.w3.org/2000/svg">
<g clip-path="url(#clip0_6875_13264)">
<path d="M79.8749 42.4628C79.8749 64.8265 62.2263 83.0156 40.5273 83.0156C18.8282 83.0156 1.17969 64.8265 1.17969 42.4628C1.17969 20.0992 18.9729 1.91016 40.6719 1.91016C62.371 1.91016 79.8749 20.0992 79.8749 42.4628Z" fill="white"/>
<path d="M40.6731 83.4649C18.6847 83.4649 0.891494 65.1267 0.891494 42.4649C0.746834 19.803 18.6847 1.46484 40.6731 1.46484C62.6614 1.46484 80.4546 19.803 80.4546 42.4649C80.4546 65.1267 62.6614 83.4649 40.6731 83.4649ZM40.6731 2.50848C19.2633 2.50848 1.90411 20.3994 1.90411 42.4649C1.90411 64.5303 19.2633 82.4212 40.6731 82.4212C62.0828 82.4212 79.442 64.5303 79.442 42.4649C79.442 20.3994 62.0828 2.50848 40.6731 2.50848Z" fill="#5B585A"/>
<path d="M80.4537 42.4649C80.4537 65.1267 62.6605 83.4649 40.6722 83.4649C18.6838 83.4649 0.890625 65.1267 0.890625 42.4649C0.890625 19.803 18.6838 1.46484 40.6722 1.46484C62.6605 1.46484 80.4537 19.803 80.4537 42.4649Z" fill="#5B585A"/>
<path d="M42.269 43.504C41.835 43.3549 38.5078 42.0131 38.5078 41.864C38.5078 41.7149 38.5078 41.2676 38.9418 41.4167L42.5583 42.9076C42.8476 43.0567 42.9923 43.6531 42.269 43.504Z" fill="white"/>
<path d="M75.3978 42.4615C75.3978 62.2906 59.9192 78.2433 40.6794 78.2433C21.4396 78.2433 5.96094 62.2906 5.96094 42.4615C5.96094 22.6324 21.4396 6.67969 40.6794 6.67969C59.9192 6.67969 75.3978 22.6324 75.3978 42.4615Z" fill="white"/>
<path d="M40.6759 78.6925C21.2914 78.6925 5.52344 62.4416 5.52344 42.4634C5.52344 22.4853 21.1467 6.23438 40.6759 6.23438C60.205 6.23438 75.8283 22.4853 75.8283 42.4634C75.8283 62.4416 60.0603 78.6925 40.6759 78.6925ZM40.6759 7.27801C21.7254 7.27801 6.3914 22.9325 6.3914 42.4634C6.3914 61.9943 21.7254 77.6489 40.5312 77.6489C59.4817 77.6489 74.671 61.8452 74.671 42.4634C74.8157 23.0816 59.4817 7.27801 40.6759 7.27801Z" fill="#5B585A"/>
<path d="M71.9232 42.4621C71.9232 60.353 57.8911 74.8148 40.5319 74.8148C23.1727 74.8148 9.14062 60.353 9.14062 42.4621C9.14062 24.5712 23.1727 10.1094 40.5319 10.1094C57.8911 10.1094 71.9232 24.5712 71.9232 42.4621Z" fill="white"/>
<mask id="mask0_6875_13264" style="mask-type:luminance" maskUnits="userSpaceOnUse" x="9" y="10" width="63" height="65">
<path d="M71.931 42.4583C71.931 60.3492 57.8989 74.8109 40.5397 74.8109C23.1805 74.8109 9.14844 60.3492 9.14844 42.4583C9.14844 24.5673 23.1805 10.1055 40.5397 10.1055C57.8989 10.1055 71.931 24.5673 71.931 42.4583Z" fill="white"/>
</mask>
<g mask="url(#mask0_6875_13264)">
<path d="M33.0053 10.1045C33.584 10.2536 34.1626 10.4027 34.7412 10.4027C35.0306 10.4027 35.0306 10.1045 34.8859 10.1045C34.7412 10.1045 32.8607 9.65727 32.5713 9.65727C32.282 9.65727 32.1374 9.50818 31.848 9.35909C31.7034 9.35909 31.4141 9.06091 31.4141 9.35909V9.50818C31.7034 9.80636 32.8607 9.95545 33.0053 10.1045Z" fill="#5B585A"/>
<path d="M56.7285 64.9717C57.0178 64.8226 57.1625 64.5243 56.8732 64.6734C56.1499 64.9716 55.5712 65.1208 54.8479 65.1208C54.5586 64.9717 54.1246 65.419 54.5586 65.419C55.1372 65.419 56.0052 65.2699 56.7285 64.9717Z" fill="#5B585A"/>
<path d="M60.3457 64.2272C60.4903 63.7799 60.201 64.3764 59.9117 64.6745C56.2952 67.06 51.9554 68.1036 47.7602 67.8054C46.7476 67.8054 45.8797 67.8054 44.867 67.8054C44.7224 67.8054 44.5777 68.1036 44.4331 68.1036C44.2884 68.1036 43.8544 68.2526 44.4331 68.4017C45.0117 68.5508 47.3263 68.2526 47.4709 68.4017C50.2195 68.5508 52.968 68.1035 55.5719 67.3581C56.1505 67.0599 59.767 65.4199 60.3457 64.2272Z" fill="#5B585A"/>
<path d="M37.6381 29.9359C37.6381 29.6378 37.9275 29.7869 38.2168 29.6378C38.5061 29.4887 39.6634 30.2341 40.0974 30.085C40.8207 29.9359 41.3993 30.085 41.9779 30.3832C42.5566 30.8305 43.2799 31.1287 44.0032 31.2778C44.2925 31.2778 44.4372 31.5759 44.2925 31.725C44.1478 31.8741 45.1605 33.0669 45.3051 33.365C45.4498 33.6632 45.8838 34.2596 46.3177 35.1541C46.7517 36.0487 48.343 36.4959 48.6323 36.4959C48.9216 36.4959 49.0663 36.9432 49.3556 36.7941C49.6449 36.645 49.3556 36.4959 49.3556 36.3469C49.3556 36.1978 49.5003 36.3469 49.6449 36.3469C49.7896 36.3469 49.9342 36.645 50.0789 36.4959C50.2236 36.3469 50.2236 36.3469 50.3682 36.4959C50.5129 36.645 50.6575 36.7941 50.8022 36.7941C50.9469 36.7941 50.9469 36.7941 50.8022 36.4959C50.6575 36.1978 50.8022 36.1978 51.0915 36.3469C51.3809 36.4959 51.6702 36.9432 51.8148 36.9432C51.9595 36.9432 51.8148 36.645 51.6702 36.4959C51.5255 36.3469 51.8148 36.3469 51.9595 36.4959C52.1041 36.645 52.5381 37.2414 52.9721 37.2414C53.4061 37.2414 52.9721 36.9432 52.9721 36.645C52.9721 36.3469 53.1168 36.645 53.2614 36.7941C53.4061 36.9432 54.2741 38.285 54.4187 38.1359C54.5634 37.9869 55.576 39.925 55.8653 40.8196C56.1546 41.7141 56.2993 41.565 56.2993 41.4159C55.142 36.7941 53.6954 36.4959 53.2614 36.1978C52.8275 35.8996 46.4624 34.4087 46.4624 34.1105C46.0284 33.5141 45.5944 32.7687 45.1605 32.3214C45.1605 32.3214 44.2925 30.9796 44.0032 30.8305C43.1352 30.085 42.1226 29.4887 41.11 28.8923C40.3867 28.5941 39.6634 28.445 38.9401 28.296C37.9275 27.9978 37.9275 27.9978 37.3488 27.8487C36.7702 27.6996 36.1915 28.5941 36.0469 28.7432C36.4808 29.1905 37.2041 29.9359 37.7828 30.6814C38.0721 30.8305 38.3614 30.8305 38.5061 30.8305C38.6508 30.9796 37.6381 30.2341 37.6381 29.9359Z" fill="#5B585A"/>
<path d="M45.596 61.8408L44.8727 61.6914C44.5834 61.6914 44.4387 61.9902 44.728 61.9902C45.0173 62.1396 45.3067 62.1396 45.596 62.1396C45.7406 62.1396 45.8853 61.8408 45.596 61.8408Z" fill="#5B585A"/>
<path d="M43.8589 59.752C44.1482 59.6029 44.0036 59.4538 44.0036 59.3047C43.7143 59.1556 43.2803 59.0066 42.991 59.0066C42.7016 58.8575 42.4123 59.3047 42.8463 59.4538C43.2803 59.6029 43.4249 59.752 43.8589 59.752Z" fill="#5B585A"/>
<path d="M44.4368 60.7935C44.1475 60.7935 43.7135 60.6444 43.4242 60.4953C43.1349 60.3462 42.9902 60.7935 43.1349 60.7935C43.4242 60.9426 43.8582 60.9426 44.1475 61.0917C44.2922 61.0917 44.5815 60.7935 44.4368 60.7935Z" fill="#5B585A"/>
<path d="M45.305 63.1815C45.8837 63.3308 46.607 63.4802 47.1856 63.3308C47.4749 63.3308 47.4749 63.0321 47.4749 63.0321C47.4749 63.0321 47.3303 62.8828 47.041 63.0321C46.607 63.0321 46.0283 63.0321 45.5944 62.8828C45.4497 62.8828 45.1604 63.0321 45.305 63.1815Z" fill="#5B585A"/>
<path d="M45.4457 64.3729C46.0243 64.5222 46.7476 64.6716 47.3263 64.5222C47.6156 64.5222 47.6156 64.2235 47.6156 64.2235C47.6156 64.2235 47.3263 64.0742 47.1816 64.2235C46.7476 64.2235 46.169 64.2235 45.735 64.0742C45.5903 64.0742 45.301 64.3729 45.4457 64.3729Z" fill="#5B585A"/>
<path d="M46.18 65.4159C46.7587 65.5652 47.482 65.7146 48.0606 65.5653C48.35 65.5653 48.3499 65.2666 48.3499 65.2666C48.3499 65.2666 48.2053 65.1172 47.916 65.2666C47.482 65.2666 46.9033 65.2666 46.4694 65.1172C46.3247 65.1172 46.0354 65.2665 46.18 65.4159Z" fill="#5B585A"/>
<path d="M59.3372 29.3389C55.7207 25.9098 50.9469 23.9716 46.0284 24.1207C46.1731 23.3752 46.3178 22.4807 46.4624 21.288C47.0411 21.288 48.0537 21.288 48.777 21.4371C49.0663 21.4371 49.5003 21.288 49.3556 20.9898C49.211 20.6916 48.9216 19.9461 48.343 19.7971C48.0537 19.7971 47.1857 19.2007 46.6071 19.0516C46.7517 16.9643 46.8964 14.5789 46.8964 12.4916C47.0411 8.0189 44.5818 4.44072 40.676 4.29163C39.9527 4.29163 39.6634 3.84436 39.808 2.94981C40.0974 1.4589 40.5314 -0.032004 41.11 -1.52292C41.3993 -1.97019 40.9653 -2.71564 40.3867 -2.56655C39.9527 -2.41746 39.5187 -2.41746 39.0847 -2.56655C38.7954 -2.56655 38.5061 -2.56655 38.2168 -2.26837C37.7828 -2.11928 37.4935 -1.67201 37.3488 -1.22474C37.2042 -0.777456 36.3362 1.30981 36.1915 1.75708C36.0469 2.20436 35.9022 3.54617 35.6129 3.0989C35.4682 2.94981 35.3236 2.80072 35.1789 2.65163C35.0343 1.16072 34.8896 -0.330186 34.7449 -0.926546C34.7449 -1.37383 34.311 -1.8211 33.877 -1.8211C33.5877 -1.8211 33.2983 -1.67201 33.1537 -1.37383C32.8644 -1.07564 32.7197 -0.777456 32.4304 -0.479277C32.1411 -0.181095 31.7071 -0.0320041 31.2731 -0.181095C30.8391 -0.330186 30.4051 -0.181095 30.1158 0.266178C29.8265 0.71345 29.2479 0.71345 28.8139 0.415268C28.5246 0.415268 28.2352 0.117087 27.9459 0.117087C27.6566 0.117087 27.3673 0.266177 27.5119 0.564359C27.6566 1.90617 27.8013 3.39708 27.9459 4.88799L28.0906 7.42254C28.0906 8.46617 28.0906 9.36072 27.9459 10.4044C27.9459 11.1498 27.9459 12.0443 27.9459 12.9389C27.9459 13.3861 27.9459 13.8334 27.8013 14.2807C27.5119 15.4734 27.3673 16.5171 27.3673 17.7098C27.3673 19.0516 27.3673 21.288 27.3673 23.0771C27.3673 25.0152 27.078 28.2952 27.2226 31.128C26.7886 31.4261 26.3547 31.5752 26.0653 31.8734L26.21 31.7243C25.9207 28.8916 26.3547 25.4625 25.776 22.1825C25.4867 20.6916 24.0401 20.6916 23.6061 22.0334C23.4614 22.4807 23.3168 22.7789 23.1721 23.2261C23.0275 23.8225 22.5935 24.1207 22.0148 24.1207C21.2915 24.2698 20.4236 24.4189 19.7003 24.7171C19.411 24.8661 19.2663 25.3134 19.2663 25.6116C19.411 26.8043 19.5556 29.488 19.7003 33.0661C19.2663 33.2152 18.977 33.3643 18.6877 33.8116C17.9644 34.7061 17.8197 36.048 18.2537 37.2407C18.8323 38.7316 18.8323 40.3716 18.2537 41.8625C17.2411 44.9934 17.8197 48.4225 19.8449 50.9571C19.8449 50.9571 19.8449 51.1062 19.9896 51.1062C20.1343 51.2552 20.2789 51.4043 20.5682 51.5534C20.8576 59.6043 21.1469 67.0589 21.1469 70.1898C21.1469 70.6371 21.4362 71.2334 21.8702 71.3825C22.4488 71.6807 23.3168 71.5316 23.7508 71.0843C24.1847 70.6371 24.6187 70.9352 24.6187 71.5316C24.7634 71.9789 25.0527 72.4262 25.342 72.7243C25.6314 73.0225 26.0653 73.3207 26.3546 73.6189C26.9333 74.0662 27.5119 73.9171 27.6566 73.4698C27.6566 70.1898 27.5119 64.9716 27.2226 61.5425H27.078C29.5372 64.6734 32.7197 66.9098 36.3362 68.2516C37.0595 71.2334 38.0721 77.048 38.0721 77.1971C38.2168 77.7934 38.7954 78.3898 39.9527 78.5389C40.676 78.5389 41.2547 78.3898 41.978 78.0916C42.5566 77.9425 43.1352 78.0916 43.5692 78.5389C44.4372 78.9862 45.5945 79.1352 46.6071 78.688C47.0411 78.5389 47.3304 78.0916 47.1857 77.6443L45.3051 69.7425H45.5945C46.4624 69.8916 47.3304 69.8916 48.1983 69.5934C51.2362 69.7425 54.1294 69.1462 56.878 67.9534C58.9032 67.0589 60.7838 65.568 61.9411 63.6298C62.6644 62.288 62.9537 60.648 62.6644 59.1571C62.5197 58.1134 62.0857 57.2189 61.6517 56.4734V56.3243C59.7712 53.9389 58.4692 51.1062 57.7459 48.1243C57.6013 46.7825 57.6013 45.5898 57.7459 44.248C57.8906 43.2043 57.8906 42.0116 57.7459 40.968C57.4566 39.6261 57.0226 38.2843 56.2993 37.0916C56.2993 37.0916 58.0352 37.8371 59.4818 38.5825C60.0605 38.8807 60.3498 38.4334 60.0605 37.9861C59.9158 37.688 59.6265 37.3898 59.4818 36.9425C59.1925 36.6443 59.0479 36.1971 59.0479 35.7498C59.1925 34.7061 58.9032 33.8116 58.4692 32.9171C57.7459 31.128 58.1799 30.0843 59.0479 29.9352C59.4818 29.9352 59.4818 29.6371 59.3372 29.3389ZM45.4498 23.9716C44.5818 23.9716 41.8333 24.2698 40.9653 24.568C40.9653 24.2698 41.11 22.4807 41.544 22.3316C41.978 22.1825 44.0032 22.0334 44.2925 22.0334C44.8712 22.0334 45.3051 21.8843 45.7391 21.8843C45.5945 22.6298 45.5945 23.2261 45.4498 23.9716ZM29.8265 19.3498C30.1158 19.3498 30.4051 19.3498 30.6945 19.3498C31.2731 19.4989 30.8391 19.2007 30.6945 19.0516C30.4051 18.9025 30.1158 18.9025 29.6818 18.9025C28.5246 18.7534 28.8139 18.008 29.1032 18.008C29.3925 18.008 30.5498 18.1571 31.1284 18.1571C31.7071 18.1571 31.4178 18.008 31.1284 17.8589C30.8391 17.7098 29.9712 17.7098 29.5372 17.5607C28.2352 17.2625 28.5246 16.5171 28.8139 16.6661C29.1032 16.8152 30.2605 16.8152 30.5498 16.9643C30.8391 17.1134 30.8391 16.6661 30.5498 16.5171L28.8139 16.0698C28.6692 16.0698 28.3799 15.3243 29.2479 15.3243C29.6818 15.3243 31.1284 15.6225 31.5624 15.6225C31.9964 15.6225 31.8517 15.4734 31.5624 15.3243C31.2731 15.1752 29.6818 14.8771 29.2479 14.728C28.8139 14.5789 28.3799 14.1316 29.1032 14.1316C29.8265 14.1316 30.5498 14.2807 31.1284 14.4298C31.7071 14.5789 31.4178 14.1316 31.1284 14.1316C30.8391 14.1316 29.5372 13.6843 29.1032 13.5352C28.6692 13.3861 28.5246 12.9389 28.8139 12.9389C29.1032 12.9389 30.8391 13.3861 31.2731 13.5352C31.7071 13.6843 31.7071 13.2371 31.2731 13.088L28.6692 12.3425C28.0906 12.1934 28.2352 11.8952 28.6692 12.0443C29.1032 12.1934 30.8391 12.4916 31.4178 12.4916C31.9964 12.4916 31.5624 12.1934 31.2731 12.0443C30.4051 11.8952 29.6818 11.7461 28.9585 11.448C28.6692 11.2989 28.6692 11.0007 28.9585 11.1498C29.2479 11.2989 30.2605 11.1498 29.9712 11.0007C29.6818 10.8516 29.6818 10.8516 29.9712 10.8516C30.2605 10.8516 30.5498 11.1498 30.9838 11.1498C31.4178 11.1498 31.2731 11.1498 30.9838 10.8516C30.5498 10.7025 30.1158 10.5534 29.6818 10.4044C29.3925 10.2553 29.1032 9.80799 29.5372 9.95708C29.9712 10.1062 30.6945 10.2553 31.2731 10.4044C31.8517 10.5534 31.5624 10.2553 31.2731 10.2553C30.5498 10.1062 29.9712 9.80799 29.3925 9.50981C28.6692 9.21163 29.1032 9.06254 29.3925 9.06254C29.8265 9.21163 30.2605 9.36072 30.5498 9.50981C30.6945 9.50981 30.9838 9.50981 30.5498 9.36072C30.1158 9.21163 29.5372 8.91345 29.2479 8.76436C28.9585 8.61527 28.8139 8.31708 29.2479 8.46617C29.6818 8.61527 30.5498 8.91345 31.1284 8.91345C31.7071 8.91345 31.8517 8.76436 31.2731 8.61527C30.5498 8.46617 29.9712 8.16799 29.3925 8.0189C29.2479 8.0189 29.1032 7.72072 29.3925 7.72072C29.6818 7.72072 30.4051 8.0189 30.6945 8.0189C30.9838 8.0189 31.1284 7.86981 30.5498 7.86981C29.9712 7.86981 29.8265 7.57163 29.2479 7.42254C28.6692 7.27345 29.1032 6.97527 29.3925 6.97527C29.6818 6.97527 30.4051 7.27345 30.8391 7.27345C31.2731 7.27345 30.9838 7.12436 30.4051 7.12436C29.8265 6.97527 29.2479 6.67708 28.8139 6.3789C28.5246 6.22981 28.5246 6.08072 28.8139 6.08072C29.2479 6.22981 29.8265 6.3789 30.2605 6.52799C30.6945 6.67708 30.8391 6.3789 30.5498 6.22981C30.2605 6.08072 29.1032 5.63345 28.8139 5.48436C28.5246 5.33527 28.3799 5.18617 28.6692 5.18617C29.1032 5.33526 29.5372 5.33527 29.8265 5.48436C30.1158 5.63345 30.5498 5.33526 30.1158 5.18617C29.6818 5.03708 28.8139 4.7389 28.3799 4.58981C27.9459 4.44072 28.2352 4.29163 28.3799 4.29163C28.5246 4.29163 29.6818 4.58981 29.9712 4.58981C30.4051 4.58981 30.2605 4.29163 29.9712 4.29163C29.3925 4.14254 28.8139 3.99345 28.2352 3.54617C27.9459 3.24799 28.0906 3.24799 28.3799 3.39708C28.6692 3.39708 29.1032 3.54617 29.2479 3.54617C29.3925 3.54617 29.8265 3.39708 29.2479 3.39708C29.2479 3.39708 28.8139 3.39708 28.5246 3.0989C28.2352 2.94981 28.2352 2.80072 28.3799 2.80072C28.5246 2.80072 28.8139 2.80072 28.9585 2.94981C29.1032 2.94981 29.9712 2.94981 29.3925 2.80072C28.8139 2.65163 28.9585 2.50254 28.6692 2.35345C28.3799 2.20436 27.9459 2.05526 28.2352 2.05526C28.5246 2.05526 28.6692 2.05526 29.1032 2.20436C29.5372 2.35345 29.9712 2.50254 29.8265 2.20436C29.6818 1.90617 29.5372 2.05526 28.3799 1.90617C27.2226 1.75708 27.6566 1.60799 27.8013 1.30981C27.9459 1.01163 28.0906 1.16072 28.3799 1.16072C28.9585 1.4589 29.6818 1.30981 30.1158 0.862541C30.4051 0.415268 30.6945 0.266178 30.9838 0.415268C31.5624 0.564359 31.9964 0.415268 32.4304 -0.0320041C32.575 -0.330186 32.8644 -0.479277 33.009 -0.777456L33.1537 -1.07564C33.2983 -1.22474 33.443 -1.37383 33.7323 -1.37383C33.877 -1.37383 34.0216 -1.07564 34.1663 -0.777456C34.311 -0.479277 34.311 0.266178 34.311 1.01163C34.311 1.75708 34.4556 2.80072 34.6003 3.84436C34.7449 4.88799 35.1789 4.7389 35.3236 4.7389C35.7576 4.7389 36.0469 4.44072 36.0469 4.14254C36.1915 4.14254 36.3362 3.99345 36.1915 3.84436C36.1915 3.69527 36.3362 3.39708 36.3362 3.39708C36.6255 3.24799 36.6255 2.94981 36.6255 2.80072C36.6255 2.65163 36.7702 2.20436 36.9148 1.90617C37.0595 1.60799 36.9148 1.4589 36.9148 1.16072C36.9148 0.862541 37.0595 0.71345 37.2042 0.415268C37.2042 0.415268 37.3488 0.415268 37.4935 0.564359C37.6381 0.71345 38.0721 0.266177 38.0721 0.117087C38.2168 -0.330186 38.3614 -0.628366 38.5061 -1.07564C38.6508 -1.37383 38.7954 -1.67201 38.7954 -1.97019C39.2294 -1.8211 39.808 -1.8211 40.242 -1.97019C40.3867 -1.97019 40.5314 -1.97019 40.5314 -1.8211C40.5314 -1.67201 40.676 -1.67201 40.676 -1.52292C40.676 -1.37383 40.676 -1.22474 40.676 -1.07564L40.5314 -0.628366C40.0974 0.564359 39.808 1.90617 39.5187 3.24799C39.5187 3.54617 39.5187 3.69527 39.5187 3.99345C39.5187 4.14254 39.6634 4.44072 39.808 4.58981C40.0974 4.88799 40.3867 5.03708 40.676 5.03708C43.5692 5.18617 45.7391 7.42254 46.3178 10.7025C46.4624 11.448 46.4624 12.0443 46.4624 12.7898C46.4624 14.728 46.3178 16.9643 46.1731 19.2007C45.8838 19.2007 45.5945 19.2007 45.4498 19.2007C45.0158 19.2007 44.5818 19.2007 44.1479 19.0516C43.2799 18.7534 42.1226 18.7534 41.2547 19.0516C41.2547 18.3061 41.2547 17.4116 41.2547 16.6661H41.3993C41.3993 16.6661 41.544 16.8152 41.544 17.1134C41.544 17.4116 41.544 18.4552 41.544 18.6043C41.544 18.7534 41.8333 18.6043 41.8333 18.4552C41.8333 18.3061 41.8333 18.008 41.8333 17.5607C41.8333 17.1134 41.8333 15.9207 41.6886 15.4734C41.6886 15.1752 41.6886 14.728 41.6886 14.4298C41.544 14.1316 41.3993 14.2807 41.3993 14.5789C41.3993 14.8771 41.3993 15.1752 41.3993 15.4734C41.3993 15.7716 41.2547 15.6225 41.11 15.6225C41.11 15.3243 41.11 15.1752 41.11 14.8771C41.11 14.5789 40.9653 14.1316 40.9653 13.8334C40.8207 12.7898 40.5313 11.7461 39.9527 10.8516C39.808 10.5534 39.5187 10.4044 39.2294 10.4044C39.2294 10.1062 38.9401 10.1062 38.7954 10.1062C38.6508 9.95708 38.5061 9.80799 38.5061 9.6589C38.5061 9.50981 38.7954 9.36072 38.3614 9.21163C37.9275 9.06254 38.0721 9.21163 37.9275 9.36072C37.7828 9.50981 37.3488 9.50981 37.6381 9.6589C37.9275 9.80799 38.2168 9.95708 38.2168 9.95708C38.2168 9.95708 38.0721 10.2553 37.9275 10.1062C37.7828 9.95708 37.3488 9.95708 37.0595 9.95708C36.7702 9.95708 36.6255 10.1062 36.7702 10.2553C36.9148 10.2553 37.4935 10.2553 37.6381 10.4044C37.7828 10.5534 38.0721 10.4044 37.7828 11.448C37.6381 11.5971 36.0469 14.5789 36.0469 14.5789C36.0469 14.5789 33.7323 17.1134 33.7323 17.2625L33.009 18.008C31.9964 19.0516 30.9838 20.2443 29.9712 21.4371L29.3925 21.1389C28.3799 20.3934 28.8139 19.4989 29.8265 19.3498ZM30.1158 22.7789C30.9838 20.9898 32.2857 19.4989 33.7323 18.1571C35.9022 16.2189 37.6381 13.8334 38.7954 11.0007C38.7954 10.8516 38.9401 10.8516 38.9401 10.8516C39.0847 11.0007 39.2294 11.2989 39.3741 11.5971C39.3741 11.5971 39.6634 12.4916 39.5187 12.4916C39.3741 12.4916 39.2294 12.3425 38.9401 12.3425C38.6508 12.3425 38.6508 12.4916 38.9401 12.6407C39.2294 12.7898 39.5187 13.088 39.6634 13.2371C39.808 13.3861 39.808 13.8334 39.6634 13.6843C39.2294 13.5352 38.9401 13.2371 38.6508 12.9389C38.3614 12.6407 38.2168 13.088 38.3614 13.2371C38.5061 13.3861 39.2294 14.1316 39.5187 14.2807C39.808 14.4298 39.5187 14.5789 39.6634 15.0261C38.6508 16.2189 37.9275 17.5607 37.4935 19.0516C37.4935 19.2007 37.4935 19.2007 37.4935 19.3498C37.4935 19.4989 37.6381 19.648 37.7828 19.7971C37.9275 19.9461 38.3614 19.9461 38.5061 19.7971C38.9401 19.4989 39.6634 19.3498 40.242 19.4989C40.5313 19.648 40.9653 19.648 41.2547 19.3498C41.978 19.0516 42.8459 19.0516 43.5692 19.3498C44.0032 19.4989 44.5818 19.4989 45.0158 19.4989C45.3051 19.4989 45.5945 19.4989 45.7391 19.4989L46.7517 19.7971C47.0411 19.9461 47.1857 20.0952 47.475 20.2443C47.475 20.3934 47.3304 20.3934 47.1857 20.3934C47.0411 20.3934 45.0158 20.6916 45.0158 20.6916H44.5818C44.2925 20.3934 43.4246 19.9461 43.4246 19.648C43.4246 19.3498 42.9906 19.648 43.1352 19.7971C43.2799 19.9461 43.8585 20.3934 44.0032 20.6916H43.4246C43.1352 20.3934 42.8459 20.0952 42.5566 19.7971C42.4119 19.648 42.1226 19.7971 42.4119 19.9461C42.5566 20.0952 42.8459 20.3934 42.9906 20.6916H42.8459C42.7013 20.6916 42.7013 20.6916 42.5566 20.5425C42.2673 20.3934 41.978 20.0952 41.6886 19.9461C41.544 19.7971 41.2547 19.9461 41.2547 20.0952C41.2547 20.2443 41.978 20.6916 42.1226 20.8407V20.9898H41.978C41.8333 20.9898 41.6886 20.9898 41.6886 20.8407C41.3993 20.6916 41.11 20.2443 40.9653 20.0952C40.8207 19.9461 40.676 20.2443 40.8207 20.3934C40.9653 20.5425 41.2546 20.6916 41.3993 20.9898V21.1389L41.11 21.288L40.9653 21.5861C40.8207 21.288 40.5313 21.1389 40.242 20.9898C39.9527 20.8407 39.808 20.8407 39.9527 21.1389C40.0974 21.4371 40.676 21.5861 40.676 21.7352V21.8843H40.5314C40.3867 21.7352 40.3867 21.7352 40.0974 21.5861C39.808 21.4371 39.9527 22.0334 40.0974 22.1825L39.808 22.4807C39.5187 22.1825 39.2294 22.0334 38.9401 21.8843C38.9401 21.8843 38.5061 21.7352 38.7954 22.0334C39.0847 22.3316 39.3741 22.6298 39.3741 22.7789C39.2294 22.928 38.7954 22.6298 38.5061 22.4807C38.2168 22.3316 38.0721 22.4807 38.2168 22.6298C38.3614 22.7789 39.0847 22.928 39.0847 23.2261C39.0847 23.5243 39.0847 23.6734 38.6508 23.5243C38.3614 23.3752 37.9275 23.2261 37.6381 23.0771C37.3488 22.928 37.3488 23.2261 37.4935 23.3752C37.6381 23.5243 38.3614 23.9716 38.2168 24.2698C38.0721 24.568 37.2042 24.1207 36.9148 23.9716C36.6255 23.8225 36.4809 23.9716 36.6255 24.1207C36.7702 24.2698 37.7828 24.7171 37.6381 25.0152C37.4935 25.3134 36.6255 24.7171 36.3362 24.4189C36.0469 24.1207 36.0469 24.4189 36.1915 24.568C36.3362 24.7171 37.3488 25.1643 37.2042 25.4625C37.0595 25.7607 35.9022 25.0152 35.6129 24.8661C35.3236 24.7171 35.1789 25.0152 35.4682 25.1643C35.7576 25.3134 37.0595 25.9098 36.7702 26.3571C36.4809 26.8043 35.4682 25.9098 35.0343 25.6116C34.6003 25.3134 34.4556 25.6116 34.7449 25.7607C35.0343 25.9098 35.7576 26.3571 35.9022 26.5061C36.0469 26.6552 36.1915 26.9534 35.7576 26.8043C35.1789 26.3571 34.4556 26.0589 33.7323 25.9098C33.443 25.9098 33.443 26.208 33.7323 26.3571C34.311 26.5061 34.7449 26.8043 35.3236 27.1025C35.4682 27.2516 35.1789 27.2516 34.8896 27.2516C34.4556 26.9534 34.0216 26.8043 33.5877 26.6552C33.443 26.6552 33.009 26.6552 33.443 26.9534C33.877 27.2516 34.6003 27.4007 34.311 27.5498C33.877 27.6989 33.443 27.6989 33.009 27.5498C31.5624 28.2952 30.2605 29.1898 29.1032 30.2334C27.9459 30.5316 27.078 28.5934 28.5246 25.6116C28.8139 24.8661 29.9712 22.928 30.1158 22.7789ZM27.2226 32.9171C27.3673 32.9171 27.5119 32.9171 27.5119 32.9171C27.8013 33.0661 29.1032 33.8116 29.3925 33.9607C29.5372 33.9607 29.5372 34.1098 29.5372 34.2589C29.5372 34.408 29.2479 34.408 29.1032 34.408C28.8139 34.2589 28.3799 33.9607 28.0906 33.8116C27.8013 33.6625 27.6566 33.5134 27.3673 33.5134L27.2226 33.3643C27.078 33.0661 27.078 32.9171 27.2226 32.9171ZM25.9207 33.9607C25.9207 33.9607 25.9207 33.8116 26.0653 33.8116C26.21 33.8116 26.3546 33.8116 26.3546 33.9607C27.2226 34.408 28.0906 34.8552 28.9585 35.1534C29.3925 35.3025 29.3925 35.3025 29.3925 35.3025C29.3925 35.3025 29.2479 35.6007 28.8139 35.6007C27.9459 35.4516 27.2226 35.0043 26.4993 34.5571L26.0653 34.408C25.9207 34.2589 25.9207 34.1098 25.9207 33.9607ZM31.7071 43.9498C31.8517 43.9498 31.9964 44.0989 31.8517 44.0989C31.7071 44.0989 31.5624 44.248 31.2731 44.248C30.8391 44.0989 30.4051 43.9498 29.9712 43.8007L29.5372 43.6516C29.3925 43.6516 29.3925 43.5025 29.3925 43.3534V43.2043C29.3925 43.2043 29.5372 43.2043 29.6818 43.2043C29.8265 43.2043 31.4178 43.9498 31.7071 43.9498ZM28.2352 56.1752C28.2352 56.1752 28.5246 56.1752 30.1158 56.7716C30.5498 56.9207 30.9838 57.0698 31.1284 57.2189C31.2731 57.368 32.575 57.6661 32.7197 57.9643C32.7197 58.1134 32.7197 58.1134 32.7197 58.2625C32.7197 58.2625 32.575 58.5607 32.4304 58.5607C31.9964 58.4116 31.5624 58.2625 31.1284 58.1134C30.2605 57.8152 29.5372 57.5171 28.6692 57.2189C28.3799 57.0698 28.0906 56.7716 28.2352 56.4734C28.2352 56.3243 28.2352 56.3243 28.2352 56.1752ZM33.443 57.6662L33.1537 57.5171C33.009 57.5171 33.009 57.368 33.009 57.2189C33.009 57.2189 33.009 57.0698 33.1537 57.0698C33.2983 57.0698 33.443 57.0698 33.443 57.0698L33.7323 57.2189C34.0216 57.368 35.1789 57.6662 35.1789 57.8152C35.1789 57.8152 35.1789 57.9643 35.1789 58.1134L35.0343 58.2625C34.6003 58.1134 34.0216 57.9643 33.443 57.6662ZM34.8896 55.4298C34.8896 55.5789 34.7449 55.5789 34.6003 55.5789C33.7323 55.4298 32.8644 55.1316 31.9964 54.8334H31.8517H31.7071C31.5624 54.8334 31.4178 54.6843 31.4178 54.5352C31.4178 54.3861 31.4178 54.088 31.4178 54.088C31.4178 54.088 33.5877 54.6843 33.877 54.6843C34.1663 54.6843 34.311 54.6843 34.6003 54.8334C34.7449 54.9825 34.8896 55.2807 34.8896 55.4298ZM34.1663 53.7898C33.1537 53.6407 32.1411 53.1934 31.2731 52.7461L30.5498 52.448C29.6818 52.0007 28.9585 51.7025 28.6692 51.7025C27.8013 51.4043 26.4993 51.2552 26.644 50.5098C26.644 50.3607 26.7886 50.2116 26.7886 50.0625C26.7886 50.0625 26.9333 50.0625 27.078 50.0625C27.2226 50.2116 27.3673 50.2116 27.6566 50.3607C28.0906 50.5098 29.2479 51.1061 29.6818 51.2552C30.1158 51.4043 33.443 52.7461 33.5877 52.7461C33.877 52.7461 34.0216 52.8952 34.1663 53.0443V53.1934V53.4916C34.1663 53.4916 34.311 53.7898 34.1663 53.7898ZM22.8828 44.9934C22.8828 44.8443 22.8828 44.6952 23.3168 44.8443L28.0906 46.7825C28.0906 46.9316 28.2352 47.0807 28.2352 47.0807C28.2352 47.2298 27.9459 47.2298 27.8013 47.2298L24.7634 46.0371C24.1847 45.888 23.4614 45.5898 23.0275 45.2916C22.8828 45.1425 22.7381 45.1425 22.8828 44.9934ZM22.7381 49.6152C23.4614 49.9134 24.0401 50.2116 24.7634 50.6589C25.1974 50.9571 25.342 52.0007 25.342 52.0007C24.908 51.8516 24.3294 51.7025 23.8954 51.5534C23.4614 51.4043 23.0275 51.2552 22.5935 50.9571C22.5935 50.808 22.5935 50.6589 22.5935 50.5098C22.4488 50.3607 22.4488 49.6152 22.7381 49.6152ZM22.7381 52.7461C22.7381 52.5971 22.7381 52.1498 22.8828 52.1498C23.0275 52.1498 25.342 52.8952 25.4867 52.8952C25.9207 53.1934 25.9207 54.088 25.9207 54.088L25.776 54.2371C25.6313 54.2371 23.7508 53.4916 23.6061 53.4916C23.3168 53.4916 23.1721 53.3425 22.8828 53.1934C22.7381 53.1934 22.5935 53.0443 22.7381 52.7461ZM24.1847 46.7825C24.1847 46.6334 24.3294 46.4843 24.3294 46.4843C25.0527 46.6334 25.6313 46.9316 26.21 47.2298L26.9333 47.528C26.9333 47.6771 27.078 47.6771 26.9333 47.8261C26.9333 47.8261 26.9333 48.1243 26.7886 48.1243C26.644 48.1243 26.644 48.1243 26.644 47.9752C26.644 47.8262 24.1847 47.0807 24.1847 46.7825ZM33.7323 51.7025C33.7323 51.8516 33.7323 52.0007 33.5877 52.0007C32.1411 51.5534 30.6945 50.9571 29.2479 50.3607C29.2479 50.3607 27.3673 49.4661 27.078 49.3171C26.7886 49.168 27.2226 49.0189 27.2226 48.8698C27.3673 48.7207 27.5119 48.7207 27.6566 48.8698C27.8013 49.0189 29.8265 49.6152 30.1158 49.7643L30.6945 50.0625C31.1284 50.2116 32.575 50.808 32.7197 50.808H32.8644C33.1537 50.808 33.2983 50.9571 33.443 51.1062C33.7323 51.1062 33.7323 51.7025 33.7323 51.7025ZM33.443 50.2116C33.443 50.3607 33.1537 50.3607 33.009 50.3607C32.8644 50.3607 29.3925 48.8698 28.9585 48.7207C28.5246 48.5716 27.8013 48.4225 27.8013 48.2734C27.8013 48.1243 27.9459 47.2298 29.3925 47.8261C29.6818 47.9752 33.009 49.0189 33.009 49.0189C33.2983 49.168 33.2983 49.4661 33.2983 49.7643C33.2983 49.7643 33.443 49.9134 33.443 50.2116ZM22.8828 38.4334C23.0275 38.2843 23.3168 38.1352 23.6061 38.2843C23.7508 38.4334 28.3799 40.2225 28.8139 40.3716C28.9585 40.3716 28.9585 40.5207 29.1032 40.5207C29.1032 40.8189 29.1032 41.2661 29.1032 41.5643C28.9585 41.7134 28.8139 41.7134 28.6692 41.7134C28.3799 41.5643 23.4614 39.4771 23.1721 39.1789C22.8828 38.8807 23.0275 39.0298 23.0275 39.0298C22.8828 38.8807 22.8828 38.5825 22.8828 38.4334ZM22.8828 40.3716L23.6061 40.6698L24.0401 40.8189L27.2226 42.1607L27.8013 42.4589C27.9459 42.4589 27.9459 42.608 27.9459 42.7571C27.9459 42.9061 27.9459 42.9061 27.9459 43.0552C27.9459 43.0552 27.9459 43.3534 27.078 43.2043C25.9207 42.9061 22.3042 41.8625 22.5935 40.8189C22.5935 40.5207 22.8828 40.2225 22.8828 40.3716ZM31.4178 45.2916L30.9838 45.1425C30.4051 44.9934 29.8265 44.8443 29.2479 44.5461C28.9585 44.3971 28.9585 44.248 28.9585 44.248C28.9585 44.248 29.1032 44.0989 29.3925 44.0989C29.6818 44.0989 30.4051 44.3971 30.9838 44.5461C31.2731 44.5461 31.4178 44.6952 31.7071 44.8443C31.8517 44.8443 31.9964 44.9934 31.9964 44.9934V45.1425C31.7071 45.4407 31.5624 45.4407 31.4178 45.2916ZM28.6692 39.1789C27.8013 38.8807 26.9333 38.5825 26.21 38.2843C25.4867 37.9861 24.908 37.8371 24.1847 37.5389C24.0401 37.5389 24.0401 37.3898 24.0401 37.2407C24.0401 37.0916 24.1847 36.6443 24.3294 36.6443C24.4741 36.6443 24.6187 36.6443 24.7634 36.6443C25.342 36.9425 26.0653 37.2407 26.644 37.5389C27.078 37.688 27.3673 37.8371 27.8013 37.9861C28.2352 38.1352 28.5246 38.2843 28.6692 38.2843C28.8139 38.2843 28.8139 38.4334 28.8139 38.4334C28.8139 38.7316 28.8139 38.8807 28.6692 39.1789ZM25.0527 35.1534C25.1974 35.1534 25.342 35.1534 25.4867 35.3025C25.6313 35.4516 27.5119 36.1971 28.5246 36.6443C28.6692 36.6443 28.9585 36.7934 28.9585 36.9425C28.9585 37.2407 28.6692 37.3898 28.5246 37.3898C27.3673 36.9425 26.0653 36.4952 25.0527 35.7498L24.908 35.4516L25.0527 35.1534ZM20.1343 25.6116L22.1595 26.3571C22.3042 26.3571 22.4488 26.208 22.1595 26.0589C21.8702 25.9098 21.0022 25.3134 20.7129 25.1643C20.4236 25.0152 20.8576 25.0152 21.0022 25.0152C21.1469 25.0152 21.8702 25.3134 22.1595 25.3134C22.4488 25.3134 22.5935 25.1643 22.4488 25.1643C22.3042 25.0152 22.1595 24.8661 22.0148 24.8661C22.5935 24.7171 23.1721 24.2698 23.3168 23.6734C23.4614 23.2261 23.6061 22.928 23.7508 22.4807C23.8954 21.8843 24.3294 21.5861 24.6187 21.7352C24.908 21.8843 25.1974 22.0334 25.342 22.6298C25.6314 24.568 25.776 26.5061 25.6313 28.4443C25.6313 29.6371 25.6313 30.8298 25.776 32.0225C25.1974 32.4698 24.7634 32.9171 24.1847 33.5134C24.0401 33.5134 23.8954 33.5134 23.7508 33.5134C23.4614 33.5134 23.1721 33.2152 23.4614 33.2152C23.7508 33.2152 23.8954 32.9171 23.7508 32.9171C23.4614 32.9171 23.3168 32.9171 23.0275 32.768C22.5935 32.6189 22.7381 32.4698 22.8828 32.3207C23.1721 32.3207 23.4614 32.4698 23.6061 32.6189C23.8954 32.768 24.1847 32.3207 23.7508 32.3207C23.3168 32.3207 22.7381 31.8734 22.3042 31.7243C21.8702 31.5752 21.7255 31.2771 22.0148 31.4261C22.4488 31.5752 22.8828 31.5752 23.3168 31.5752C23.7508 31.5752 23.6061 31.2771 23.3168 31.2771C23.0275 31.2771 22.1595 31.128 21.8702 30.9789C21.5809 30.8298 21.5809 30.5316 21.8702 30.5316C22.4488 30.6807 23.0275 30.8298 23.6061 31.128C23.8954 31.2771 24.0401 30.8298 23.4614 30.6807C22.8828 30.5316 22.3042 30.2334 21.7255 30.0843C21.5809 30.0843 21.4362 29.7861 21.8702 29.7861C22.3042 29.7861 23.1721 30.0843 23.4614 30.2334C23.7508 30.3825 23.7508 30.0843 23.3168 30.0843C22.8828 30.0843 22.0148 29.488 21.7255 29.3389C21.4362 29.1898 21.4362 29.0407 21.7255 29.0407C22.0148 29.0407 23.0275 29.488 23.3168 29.488C23.6061 29.488 23.7508 29.3389 23.1721 29.1898C22.5935 29.0407 21.8702 28.7425 21.2915 28.4443C20.8576 28.2952 21.0022 27.9971 21.2915 28.1461C21.5809 28.2952 22.3042 28.7425 22.5935 28.5934C22.8828 28.4443 22.7381 28.4443 22.5935 28.4443C22.1595 28.2952 21.7255 27.9971 21.2915 27.848C21.1469 27.6989 21.1469 27.6989 21.2915 27.5498C21.4362 27.4007 21.8702 27.848 22.0148 27.848C22.1595 27.848 22.3042 27.6989 22.1595 27.5498C22.0148 27.4007 21.2915 27.2516 21.0022 27.1025C20.7129 26.9534 20.8576 26.8043 21.0022 26.8043C21.1469 26.8043 21.8702 27.1025 22.1595 27.1025C22.4488 27.1025 22.4488 27.1025 22.1595 26.9534C21.5809 26.6552 21.0022 26.5061 20.4236 26.0589C19.8449 25.7607 19.9896 25.4625 20.1343 25.6116ZM23.3168 42.608C24.908 43.0552 26.4993 43.6516 28.0906 44.3971C28.9585 44.6952 28.3799 44.9934 28.6692 45.1425C29.2479 45.4407 29.8265 45.7389 30.4051 45.888C31.2731 46.1861 31.9964 46.4843 32.1411 46.6334C32.2857 46.7825 32.4304 47.0807 32.4304 47.2298C32.4304 47.3789 32.4304 47.3789 32.2857 47.3789C32.1411 47.3789 32.1411 47.3789 31.9964 47.2298C31.2731 46.9316 30.5498 46.6334 29.8265 46.3352C28.9585 46.0371 28.2352 45.7389 27.5119 45.4407C27.078 45.2916 26.4993 44.9934 26.0653 44.8443C25.776 44.6952 25.342 44.6952 25.0527 44.5461C24.3294 44.0989 23.4614 43.9498 22.8828 43.5025C22.7381 43.6516 22.8828 42.608 23.3168 42.608ZM19.411 49.9134C19.5556 49.9134 19.411 49.4661 19.1216 49.3171C18.8323 49.168 18.543 48.5716 18.8323 48.7207L19.9896 49.4662C20.2789 49.6152 20.4236 49.4662 19.9896 49.168C19.5556 48.8698 19.1216 48.4225 18.6877 48.1243C18.543 47.9752 18.3983 47.3789 18.543 47.528C18.977 47.8261 19.2663 48.1243 19.7003 48.4225C19.8449 48.5716 19.9896 48.4225 19.8449 48.1243C19.7003 47.8262 18.977 47.3789 18.6877 46.9316C17.9644 46.3352 18.2537 45.2916 18.3983 45.4407C19.1216 45.888 19.7003 46.4843 20.4236 47.0807C20.5682 47.2298 20.7129 47.0807 20.5682 46.7825C20.2789 46.4843 18.977 45.2916 18.6877 45.1425C18.3983 44.8443 18.2537 44.3971 18.3983 43.9498C18.3983 43.8007 18.6877 43.6516 18.6877 43.8007C18.6877 43.9498 19.9896 45.1425 20.1343 45.2916C20.2789 45.4407 20.4236 45.2916 20.2789 45.1425C20.1343 44.9934 19.2663 44.248 18.977 43.9498C18.6877 43.6516 18.977 43.5025 19.2663 43.6516C19.5556 43.8007 20.4236 44.6952 20.5682 44.8443C20.7129 44.9934 20.7129 44.6952 20.5682 44.6952C20.4236 44.6952 18.977 43.2043 18.8323 43.0552C18.6877 42.9061 18.543 42.7571 18.6877 42.608C18.8323 42.4589 18.8323 42.0116 19.2663 42.3098C19.411 42.4589 19.7003 42.608 19.8449 42.7571C19.9896 42.9061 20.1343 42.7571 19.9896 42.608C19.8449 42.4589 19.2663 42.0116 19.1216 41.8625C18.977 41.7134 18.977 41.4152 19.2663 41.5643C19.7003 41.8625 19.9896 42.1607 20.4236 42.608C20.5682 42.7571 21.0022 42.608 20.5682 42.4589C19.9896 42.0116 19.411 41.4152 18.977 40.8189C18.8323 40.3716 18.8323 39.0298 19.1216 39.1789C19.411 39.328 19.8449 39.6261 20.1343 39.9243C20.4236 40.2225 20.2789 39.7752 20.1343 39.4771C19.5556 39.0298 18.977 38.4334 18.543 37.688C18.543 37.5389 18.3983 37.3898 18.3983 37.3898C17.8197 36.3461 18.2537 34.8552 19.2663 34.2589C19.411 34.2589 19.5556 34.1098 19.7003 34.1098C20.1343 33.9607 20.4236 33.9607 20.8576 34.1098C21.1469 34.2589 21.2915 34.408 21.2915 34.5571C21.2915 34.7061 21.1469 34.7061 20.8576 34.7061C20.2789 34.7061 19.8449 35.0043 19.5556 35.6007C19.411 36.048 19.411 36.4952 19.5556 36.9425C19.7003 37.2407 19.9896 37.688 20.2789 38.1352L21.0022 39.1789C21.8702 40.8189 22.1595 42.7571 21.8702 44.5461C21.7255 45.5898 21.7255 46.7825 21.8702 47.8261C22.1595 49.0189 21.8702 50.2116 21.2915 51.2552C21.1469 51.5534 20.8576 51.7025 20.5682 51.7025C20.2789 51.7025 20.1343 51.5534 19.9896 51.4043C19.7003 50.9571 18.977 50.0625 19.411 49.9134ZM23.6061 70.7862C23.4614 70.7862 23.3168 70.9352 23.3168 71.0843C23.0275 71.3825 22.5935 71.5316 22.1595 71.5316V71.3825C22.0148 71.0843 22.3042 70.7862 22.4488 70.9352C22.7381 70.9352 23.0275 70.7861 23.1721 70.6371C23.1721 70.488 23.6061 70.488 23.6061 70.6371V70.7862ZM27.078 73.768C26.9333 73.768 26.7886 73.768 26.3546 73.6189C26.3546 73.4698 26.4993 73.3207 26.644 73.3207C26.9333 73.3207 26.9333 73.4698 27.078 73.768ZM26.7886 69.5934C26.7886 70.6371 26.9333 71.5316 27.078 72.5752L26.7886 72.2771H26.4993C26.3547 72.128 21.7255 68.1025 21.2915 68.5498L21.1469 68.848C21.1469 68.848 21.4362 68.4007 21.2915 68.2516C21.1469 68.1025 21.2915 67.5062 21.4362 67.3571C21.5809 67.208 21.5809 67.3571 21.8702 67.5062C22.1595 67.6552 22.0148 67.3571 21.8702 67.208C21.7255 67.0589 21.5809 67.0589 21.4362 66.9098C21.2915 66.7607 21.2915 66.4625 21.4362 66.6116C21.5809 66.7607 21.8702 66.7607 22.0148 66.9098C22.3042 67.0589 22.1595 66.7607 22.0148 66.6116C21.7255 66.4625 21.5809 66.3134 21.4362 66.1643C21.2915 66.0152 21.2915 65.7171 21.5809 65.8662C21.8702 66.0152 22.1595 66.1643 22.4488 66.3134C22.7381 66.4625 22.7381 66.0152 22.4488 66.0152C22.1595 65.8662 21.8702 65.7171 21.5809 65.4189C21.2915 65.2698 21.1469 64.5243 21.5809 64.5243C21.8702 64.6734 22.1595 64.8225 22.4488 64.9716C22.7381 65.1207 22.8828 64.8225 22.5935 64.6734C22.3042 64.3752 21.8702 64.2261 21.5809 63.928C21.2915 63.7789 21.4362 63.1825 21.7255 63.1825C22.0148 63.1825 22.1595 63.3316 22.3042 63.4807C22.4488 63.6298 22.5935 63.3316 22.4488 63.3316L21.8702 62.8843C21.7255 62.7352 21.7255 62.1389 22.0148 62.4371C22.3042 62.5861 22.4488 62.7352 22.7381 62.7352C23.0275 62.8843 22.8828 62.4371 22.8828 62.4371C22.8828 62.4371 22.3042 62.1389 22.0148 61.9898C21.7255 61.8407 21.8702 61.5425 22.1595 61.6916C22.4488 61.8407 22.7381 61.9898 22.8828 62.1389C23.0275 62.288 23.3168 62.1389 23.1721 61.9898C23.0275 61.8407 22.7381 61.6916 22.5935 61.5425C21.5809 61.2443 22.0148 57.6661 23.8954 59.008C24.3294 59.3061 25.9207 61.2443 26.3546 61.2443C26.7886 61.2443 26.7886 69.4443 26.7886 69.5934ZM23.7508 56.1752C23.4614 56.1752 23.0275 54.9825 23.3168 54.8334C23.6061 54.6843 25.6314 55.5789 26.0653 55.5789C26.7886 55.728 26.7886 57.0698 26.3546 56.9207C25.9207 56.7716 24.0401 56.1752 23.7508 56.1752ZM34.7449 65.568C34.6003 65.568 31.7071 64.3752 31.5624 64.0771C31.4178 63.7789 31.4178 63.1825 31.9964 63.3316L35.1789 64.6734C36.3362 65.2698 36.1915 66.0152 34.7449 65.568ZM29.5372 59.1571C29.2479 59.008 28.9585 58.8589 28.8139 58.5607C28.8139 58.4116 28.9585 58.1134 29.8265 58.2625C30.5498 58.5607 31.1284 58.7098 31.8517 59.008L32.2857 59.1571L32.575 59.3062L34.6003 60.0516C35.0343 60.2007 36.3362 60.7971 36.7702 60.7971C36.9148 60.7971 36.9148 61.2443 36.9148 61.3934C36.4809 62.1389 29.8265 59.3062 29.5372 59.1571ZM41.6886 77.9425C40.8207 78.0916 40.0974 78.2407 39.3741 78.3898C38.7954 78.5389 38.7954 78.0916 38.9401 77.9425C39.0847 77.7934 39.5187 77.1971 39.808 77.048C40.0974 76.8989 40.8207 76.4516 41.11 76.7498C41.544 77.048 41.978 77.3462 42.4119 77.6443C42.9906 77.9425 42.2673 77.9425 41.6886 77.9425ZM45.5945 78.2407C45.5945 78.5389 44.7265 78.688 44.4372 78.8371C43.8585 78.8371 43.2799 78.5389 42.8459 78.2407C42.5566 77.9425 42.9906 77.6443 43.1352 77.4952C43.4246 77.3462 43.7139 77.3462 44.0032 77.4952C44.1479 77.4952 44.8712 77.3462 45.0158 77.4952C45.5945 77.6443 45.7391 77.9425 45.5945 78.2407ZM43.5692 76.4516C43.2799 76.6007 42.9906 76.6007 42.7013 76.6007C42.7013 76.4516 42.8459 76.3025 42.7013 76.3025C42.2673 76.1534 41.978 75.8552 41.6886 75.5571C41.544 75.408 41.544 75.5571 41.3993 75.5571C41.11 75.5571 40.8207 75.5571 40.5314 75.5571C40.0974 75.5571 40.0974 73.3207 40.0974 73.0225C40.242 72.4262 40.9653 71.9789 41.544 72.128C41.978 72.128 42.4119 71.9789 42.4119 71.6807C42.4119 71.3825 42.4119 70.7862 42.5566 70.7862C43.2799 70.7862 42.9906 70.1898 42.9906 69.8916C43.5692 69.8916 44.1479 69.8916 44.7265 69.7425H44.8712C44.8712 70.0407 45.8838 74.6625 46.1731 76.4516C45.3051 76.1534 44.4372 76.1534 43.5692 76.4516ZM57.0226 44.0989V43.9498C57.0226 44.0989 57.0226 44.0989 57.0226 44.0989ZM57.0226 42.4589V42.3098C57.0226 42.3098 57.0226 42.3098 57.0226 42.4589ZM57.0226 42.1607V42.0116C57.0226 42.0116 57.0226 42.0116 57.0226 42.1607ZM56.01 38.2843C56.01 38.2843 56.01 38.1352 55.8653 38.1352L56.01 38.2843ZM56.878 40.5207V40.3716C56.878 40.3716 56.7333 40.3716 56.7333 40.5207H56.878ZM56.878 40.2225V40.0734L56.7333 40.2225H56.878ZM56.7333 39.6261V39.4771L56.444 39.6261H56.7333ZM56.2993 38.5825C56.2993 38.5825 56.2993 38.4334 56.1547 38.2843C56.01 38.1352 56.01 38.4334 56.01 38.5825H56.2993ZM56.01 37.8371V37.688C56.01 37.688 55.8653 37.688 55.8653 37.8371H56.01ZM56.444 44.248C55.7207 49.3171 58.0352 53.1934 60.3498 56.9207V57.0698C60.7838 57.8152 61.0731 58.5607 61.3624 59.3062C61.5071 60.0516 61.5071 60.648 61.5071 61.3934C61.2178 62.288 60.9284 63.1825 60.4945 63.928C60.2051 64.3752 59.9158 64.8225 59.4818 65.1207C59.4818 65.1207 56.2993 70.488 41.978 69.1461C41.2547 68.9971 40.676 68.2516 40.3867 67.5062C39.808 66.9098 38.9401 66.6116 38.2168 66.3134C37.7828 66.3134 37.9275 66.0152 38.2168 65.8662C38.5061 65.7171 37.9275 65.4189 37.6381 65.2698C36.1915 64.6734 36.9148 63.6298 37.3488 63.7789C38.0721 64.0771 38.9401 64.3752 39.808 64.5243C40.3867 64.5243 39.9527 64.2262 39.808 64.2262C39.6634 64.2262 38.3614 63.7789 38.0721 63.6298C36.7702 62.8843 38.2168 62.1389 38.6508 62.1389C38.7954 62.1389 40.242 62.5862 40.8207 62.7352C41.3993 62.8843 41.11 62.5861 40.676 62.4371L39.5187 61.9898C38.9401 61.8407 39.5187 61.6916 39.6634 61.6916C39.808 61.6916 40.8207 61.9898 40.676 61.8407C40.5313 61.6916 39.808 61.3934 39.2294 61.0952C38.6508 60.7971 35.7576 57.6662 39.808 58.8589C39.9527 58.8589 40.0974 58.8589 40.0974 58.7098C40.0974 58.5607 40.0974 58.5607 40.0974 58.4116C39.9527 58.2625 37.7828 57.368 37.3488 57.368C36.3362 57.0698 36.1915 55.8771 36.4809 56.0261C37.2042 56.3243 38.0721 56.6225 38.7954 56.9207C39.0847 56.9207 39.0847 56.4734 38.7954 56.4734C38.5061 56.4734 36.9148 55.728 36.6255 55.728C36.3362 55.728 35.9022 55.4298 36.0469 55.2807C36.1915 55.1316 35.9022 55.1316 35.6129 54.8334C35.3236 54.5352 35.6129 54.3861 36.1915 54.5352C36.7702 54.6843 36.4809 54.2371 36.3362 54.2371C36.0469 54.088 35.6129 53.7898 35.3236 53.4916C35.0343 53.1934 34.8896 52.2989 34.7449 52.0007C34.6003 51.7025 35.0343 51.8516 35.3236 52.0007C35.6129 52.1498 35.3236 51.7025 35.0343 51.7025C34.7449 51.7025 34.6003 51.4043 34.4556 51.1062C34.311 50.808 35.0343 51.1062 35.3236 51.1062C35.6129 51.1062 35.4682 50.9571 35.1789 50.808C34.8896 50.6589 34.6003 50.5098 34.6003 50.2116C34.6003 49.9134 34.8896 50.2116 35.4682 50.2116C36.0469 50.2116 35.6129 49.9134 35.3236 49.7643C35.0343 49.7643 34.7449 49.6152 34.4556 49.4662C34.1663 49.3171 34.311 49.168 34.311 48.8698C34.311 48.5716 34.4556 48.5716 34.8896 48.5716C35.3236 48.5716 35.4682 48.5716 35.3236 48.4225C35.1789 48.2734 34.6003 48.1243 34.4556 48.1243C34.311 48.1243 34.0216 47.8262 34.1663 47.6771C34.311 47.528 34.0216 47.2298 33.877 47.0807C33.7323 46.9316 34.0216 46.9316 34.311 46.9316C34.6003 46.9316 34.4556 46.3352 33.877 46.4843C33.2983 46.6334 33.5877 45.888 33.5877 45.2916C33.5877 44.6952 33.7323 44.8443 33.5877 44.5461C33.443 44.248 32.7197 45.1425 32.7197 44.5461C32.8644 44.248 32.7197 43.9498 32.4304 43.8007C32.2857 43.8007 32.4304 43.5025 32.2857 43.3534C32.1411 43.2043 30.4051 42.7571 29.9712 42.608C29.5372 42.4589 29.9712 41.5643 30.9838 41.8625C31.4178 42.0116 31.8517 42.0116 31.8517 41.7134C31.8517 41.4152 31.5624 41.5643 30.8391 41.1171C30.1158 40.6698 30.2605 40.0734 31.1284 40.2225C31.4178 40.2225 31.7071 40.0734 31.5624 39.9243C31.4178 39.7752 31.1284 39.7752 30.8391 39.6261C30.5498 39.4771 29.5372 37.688 30.8391 37.8371C31.1284 37.8371 31.2731 37.5389 30.8391 37.5389C30.6945 37.5389 30.4051 37.3898 30.2605 37.3898C29.9712 37.3898 30.2605 36.1971 30.5498 36.048C30.8391 35.8989 31.1284 36.1971 31.4178 36.3461C31.7071 36.4952 31.7071 36.1971 31.4178 36.048L30.6945 35.6007C30.5498 35.4516 30.6945 35.4516 30.8391 35.3025C30.9838 35.1534 31.4178 35.4516 31.8517 35.6007C32.2857 35.7498 32.2857 35.3025 31.8517 35.1534C31.4178 35.0043 30.8391 34.8552 30.9838 34.7061C31.1284 34.5571 30.9838 33.9607 31.2731 33.9607C31.5624 33.9607 31.9964 34.1098 32.2857 34.1098C32.2857 34.1098 32.7197 33.6625 32.2857 33.6625C31.9964 33.6625 31.7071 33.5134 31.4178 33.3643C30.8391 33.0661 31.4178 32.4698 31.7071 32.6189C32.1411 32.768 32.7197 32.9171 33.1537 32.768C33.7323 32.6189 33.5877 32.3207 33.1537 32.1716C32.575 32.0225 31.9964 31.8734 31.4178 31.5752C31.1284 31.4261 31.7071 30.2334 32.1411 30.0843C32.575 29.9352 33.877 28.8916 35.0343 30.5316C35.1789 30.8298 35.7576 31.128 36.0469 31.2771C36.4809 31.5752 36.9148 31.8734 37.3488 32.1716C37.4935 32.4698 37.9275 32.4698 38.3614 32.1716C38.7954 31.8734 38.2168 31.4261 37.4935 30.6807C37.2042 30.5316 36.9148 30.5316 36.6255 30.3825C36.3362 30.2334 35.6129 29.0407 35.7576 28.7425L35.1789 27.9971L34.4556 27.4007C36.9148 27.1025 39.3741 27.4007 41.6886 28.1461C41.6886 28.1461 45.8838 32.9171 46.0284 33.0661C46.1731 33.2152 46.7517 33.3643 46.8964 33.2152C47.0411 33.0661 46.8964 32.3207 46.4624 32.3207C46.0284 32.3207 45.7391 31.128 45.4498 30.8298C45.1605 30.5316 43.7139 28.7425 43.4246 28.4443C43.1352 28.1461 43.5692 28.1461 43.7139 28.2952C43.8585 28.4443 44.4372 29.0407 44.5818 28.8916C44.7265 28.7425 44.5818 28.7425 44.2925 28.2952C44.0032 27.848 44.5818 28.2952 44.5818 27.9971C46.1731 28.2952 47.6197 28.8916 48.777 29.7861C50.8022 31.128 52.3935 33.0661 53.4061 35.3025V35.4516C55.7207 37.688 56.7333 40.968 56.444 44.248ZM57.1673 37.0916V37.3898L56.7333 37.0916C56.444 36.4952 56.01 35.8989 55.576 35.4516C55.4313 35.3025 55.7207 35.0043 56.2993 35.4516C56.5886 35.8989 56.878 36.4952 57.1673 37.0916ZM55.7207 29.0407C55.2867 29.0407 54.9974 29.3389 55.142 29.7861C55.142 30.2334 55.142 30.6807 55.142 31.128C55.142 31.4261 55.4313 31.8734 55.576 32.0225C55.7207 32.1716 55.8653 32.768 55.7207 32.9171C55.576 33.0661 55.2867 33.0661 55.2867 33.3643C55.2867 33.6625 55.142 34.1098 54.9974 33.8116C54.8527 33.5134 54.8527 33.3643 54.708 33.0661C54.5634 32.768 54.2741 32.6189 54.4187 32.9171C54.5634 33.2152 54.5634 33.5134 54.708 33.8116C54.8527 34.1098 54.5634 34.2589 54.4187 33.8116C54.2741 33.3643 53.9847 33.0661 53.9847 32.6189C53.9847 32.1716 53.6954 32.4698 53.8401 32.768C53.9848 33.0661 53.6954 33.3643 53.5508 32.9171C53.4061 32.4698 52.9721 31.2771 52.8275 30.8298C52.6828 30.3825 52.5381 30.5316 52.5381 30.6807C52.6828 30.8298 52.6828 31.128 52.6828 31.4261C52.6828 31.5752 52.3935 31.8734 52.3935 31.4261C52.3935 30.9789 52.1042 30.6807 52.1042 30.3825C52.1042 30.0843 51.5255 29.7861 51.6702 30.0843C51.8148 30.3825 51.8148 30.6807 51.8148 30.9789C51.8148 31.2771 51.5255 31.128 51.5255 30.8298C51.5255 30.5316 51.3809 30.3825 51.2362 30.0843C51.0915 29.7861 50.9469 29.6371 50.9469 29.7861C50.9469 29.9352 50.9469 30.2334 50.8022 30.0843C50.6576 29.9352 50.6576 29.7861 50.5129 29.488C50.3682 29.1898 50.2236 28.7425 50.0789 28.4443C49.9343 28.1461 49.6449 28.1461 49.7896 28.2952C49.9343 28.5934 49.9343 28.8916 50.0789 29.3389C50.0789 29.6371 49.7896 29.488 49.6449 29.3389C49.5003 29.1898 49.211 28.2952 49.0663 27.9971C48.9216 27.6989 48.777 27.9971 48.777 28.1461C48.9216 28.4443 49.0663 28.7425 49.0663 29.0407C49.0663 29.3389 48.777 28.8916 48.6323 28.7425C48.4877 28.4443 48.343 28.1461 48.1983 27.848C48.0537 27.5498 47.7644 27.6989 47.909 27.848C48.0537 27.9971 48.0537 28.1461 48.0537 28.4443C48.0537 28.7425 47.7644 28.4443 47.6197 28.2952C47.475 28.1461 47.1857 27.4007 47.0411 27.2516C46.8964 27.1025 46.6071 27.2516 46.7517 27.5498C46.8964 27.848 46.8964 27.9971 46.8964 28.1461C46.8964 28.2952 46.3178 27.9971 46.3178 27.848C46.3178 27.6989 45.8838 27.1025 45.5945 26.6552C45.3051 26.208 45.3051 26.6552 45.4498 26.8043C45.5945 27.1025 45.7391 27.2516 45.7391 27.5498C45.7391 27.848 45.4498 27.6989 45.4498 27.5498C45.4498 27.4007 45.1605 26.9534 45.0158 26.8043C44.8712 26.6552 44.4372 26.5061 44.7265 27.1025C45.0158 27.6989 44.8712 27.6989 44.5818 27.6989C44.2925 27.6989 44.1479 27.5498 44.1479 27.5498C44.1479 27.5498 44.0032 27.1025 44.0032 26.8043C44.0032 26.5061 43.7139 26.6552 43.8585 26.8043C44.0032 26.9534 43.8585 27.1025 43.8585 27.4007C43.8585 27.6989 43.5692 27.4007 43.5692 27.4007C43.4246 27.1025 43.4246 26.9534 43.2799 26.6552C43.2799 26.5061 42.9906 26.5061 43.1352 26.6552C43.2799 26.8043 43.2799 26.9534 43.2799 27.2516C43.2799 27.5498 43.2799 27.5498 43.1352 27.4007C42.9906 27.2516 42.8459 26.9534 42.5566 26.8043C42.4119 26.5061 42.1226 26.9534 41.8333 26.9534C41.544 26.9534 41.2547 26.5061 41.11 26.3571C40.9653 26.208 40.8207 26.3571 40.9653 26.5061C41.11 26.6552 41.2547 26.9534 41.2547 27.1025C41.2547 27.2516 41.2547 27.5498 40.9653 27.6989C40.676 27.848 40.3867 27.1025 40.0974 27.1025C39.808 27.1025 39.3741 27.1025 39.2294 27.4007C38.9401 27.4007 38.6508 27.2516 38.3614 27.2516L37.6381 26.9534C37.4935 26.9534 37.4935 26.8043 37.4935 26.6552C44.0032 23.5243 51.6702 24.4189 57.1673 29.1898H57.0226C56.7333 29.0407 56.444 29.0407 56.2993 29.0407C56.7333 28.8916 56.01 29.0407 55.7207 29.0407ZM58.3246 30.0843C58.1799 30.2334 57.8906 30.3825 57.8906 30.6807C57.7459 31.128 57.6013 31.7243 57.7459 32.1716C57.7459 32.6189 57.8906 32.9171 58.0352 33.3643C58.1799 33.9607 58.3246 34.408 58.3246 35.0043C58.3246 35.3025 58.3246 35.6007 58.3246 36.048C58.3246 36.1971 58.3246 36.3461 58.3246 36.6443C58.4692 36.9425 58.6139 37.2407 58.7585 37.5389C58.9032 37.8371 59.1925 38.1352 59.3372 38.4334C59.3372 38.4334 59.3372 38.4334 59.3372 38.5825C59.1925 38.5825 59.0479 38.5825 59.0479 38.4334C58.6139 38.1352 58.3246 37.688 58.0352 37.2407C57.8906 37.0916 57.8906 36.7934 57.7459 36.4952C57.7459 36.3461 57.7459 36.048 57.7459 35.8989C58.0352 35.1534 57.1673 33.5134 57.0226 33.3643C56.878 33.0661 56.7333 32.768 56.5886 32.4698C56.5886 32.3207 56.2993 31.2771 56.7333 30.6807C57.0226 30.3825 57.4566 30.0843 57.7459 29.9352C58.0352 29.9352 58.1799 29.9352 58.3246 30.0843Z" fill="#5B585A"/>
<path d="M42.4082 28.444C42.2635 28.2949 42.1188 28.2949 41.9742 28.1458C41.2509 27.8476 40.5276 27.5495 39.8043 27.2513C39.515 27.1022 39.3703 27.1022 39.081 27.1022L38.3577 26.9531H37.4897C36.9111 26.9531 36.3324 26.9531 35.7538 26.9531C35.4645 26.9531 35.3198 27.1022 35.0305 27.1022C33.8732 27.2513 32.8606 27.6986 31.848 28.2949C31.2693 28.5931 30.8353 29.0404 30.4014 29.4876C29.9674 29.7858 29.5334 30.084 29.0994 30.2331C26.2062 31.1276 23.8917 33.2149 22.7344 36.0476C22.7344 36.1967 22.879 36.3458 22.879 36.1967C24.3256 33.8113 26.6402 32.0222 29.2441 31.1276C29.6781 30.9786 30.112 31.1276 30.2567 31.5749C30.2567 31.724 30.2567 31.724 30.2567 31.8731C30.4014 32.6186 30.4014 33.5131 30.2567 34.4076C30.112 35.004 29.8227 35.6004 29.6781 36.1967C29.3887 36.9422 29.3887 37.5386 29.3887 38.284C29.8227 40.0731 29.5334 42.0113 28.8101 43.6513C28.6654 43.9495 28.8101 44.0986 29.0994 43.8004C30.4014 42.4586 30.4014 40.5204 30.2567 38.5822C30.2567 37.9858 30.2567 37.2404 30.546 36.644C31.2693 35.6004 31.5586 34.4076 31.5586 33.2149C31.5586 32.4695 31.5586 31.8731 31.414 31.2767C31.2693 30.8295 31.5586 30.2331 31.848 29.9349C32.4266 29.3386 33.1499 29.0404 34.0179 28.7422C34.4518 28.7422 34.8858 28.8913 35.0305 29.3386C36.0431 30.9786 37.6344 32.3204 39.515 32.7676C40.2383 32.9167 40.6722 33.6622 40.3829 34.4076C40.3829 35.3022 40.0936 36.0476 39.515 36.7931C38.3577 37.8367 37.4897 39.1786 36.9111 40.6695C36.7664 41.2658 36.3324 41.7131 35.6091 42.0113C33.1499 42.6076 31.5586 44.5458 32.4266 46.6331C33.0052 47.8258 33.4392 49.1676 33.7285 50.5095C34.1625 52.1495 34.5965 53.9386 35.1751 55.5786C35.7538 57.3676 36.4771 59.1567 37.4897 60.7967C37.6344 61.0949 37.9237 60.9458 37.779 60.6476C36.7664 58.5604 35.8984 56.324 35.3198 53.9386C35.3198 53.7895 35.3198 53.4913 35.4645 53.4913H35.6091C37.2004 53.7895 38.647 54.2367 39.9489 54.8331C40.2383 54.9822 40.3829 54.684 40.0936 54.5349C38.647 53.6404 36.9111 53.044 35.3198 52.5967C35.0305 52.5967 34.8858 52.1495 34.7412 51.8513C34.4518 50.0622 34.0179 48.4222 33.4392 46.6331C33.0052 45.7386 33.2946 44.6949 34.1625 44.2476C34.7412 43.8004 35.3198 43.6513 36.0431 43.5022C36.1878 43.5022 36.3324 43.5022 36.3324 43.5022L36.4771 43.6513C36.4771 43.8004 36.6217 43.8004 36.6217 43.9495C36.9111 45.1422 37.4897 46.1858 38.213 47.0804C38.7917 47.6767 39.2256 48.4222 39.515 49.3167C39.6596 49.764 39.8043 49.6149 39.8043 49.3167C39.6596 48.4222 39.3703 47.5276 38.7917 46.7822C38.213 45.8876 37.779 44.9931 37.4897 43.9495C37.345 43.0549 37.3451 42.3095 37.6344 41.4149C38.0684 39.924 38.9363 38.7313 40.0936 37.8367C41.1062 36.9422 41.6849 35.6004 41.5402 34.2586C41.5402 33.8113 41.9742 33.6622 42.2635 34.1095C42.8421 35.6004 43.8548 36.7931 45.1567 37.6876C47.9052 39.4767 48.0499 42.3095 45.7353 43.8004C42.6975 45.8876 42.6975 48.5713 44.1441 51.2549C44.5781 52.0004 45.012 52.8949 45.5907 53.4913C46.0247 54.0876 46.0247 54.684 45.7353 55.2804C44.8674 56.9204 44.8674 58.8586 45.88 60.3495C46.4586 61.0949 46.8926 61.8404 47.1819 62.7349C47.3266 63.1822 47.6159 63.0331 47.4713 62.7349C47.1819 61.8404 46.748 60.9458 46.314 60.2004C45.88 59.0076 45.88 57.8149 46.314 56.6222C46.6033 56.0258 46.748 55.5786 46.8926 55.1313C47.0373 54.684 47.3266 54.5349 47.6159 54.8331C48.1946 55.5786 48.6285 56.4731 49.0625 57.5167C49.3518 58.1131 49.7858 58.5604 50.3645 58.8586C51.5217 59.3058 52.3897 60.2004 52.9683 61.244C53.113 61.5422 53.2577 61.3931 53.2577 61.244C52.9684 59.9022 52.1004 59.3058 50.7984 58.4113C50.2198 58.1131 49.7858 57.5167 49.4965 56.9204C48.9179 55.4295 48.6285 54.2367 47.6159 53.4913C46.8926 53.044 46.4586 53.044 46.0247 52.4476C44.8674 51.2549 44.2887 49.6149 44.2887 47.9749C44.4334 46.6331 45.3014 45.4404 46.6033 44.6949C47.9052 43.9495 48.7732 42.4586 48.7732 40.9676C48.7732 40.5204 49.0625 40.3713 49.4965 40.5204C51.3771 40.8186 52.679 42.3095 52.9683 44.2476C52.9683 44.6949 53.4023 44.5458 53.4023 44.2476C53.4023 42.3095 52.2451 40.6695 50.6538 39.924C50.5091 39.7749 50.3645 39.6258 50.0751 39.6258H49.9305L49.4965 39.4767C49.0625 39.4767 48.6285 39.4767 48.3392 38.8804C47.7606 37.8367 47.0373 37.0913 46.0247 36.4949C45.1567 35.7495 44.4334 34.8549 43.8548 33.8113C43.2761 32.6186 42.6975 31.8731 41.5402 31.724C39.6596 31.724 37.779 30.6804 36.6217 29.0404C36.4771 28.7422 36.6217 28.2949 37.0557 28.2949C39.3703 28.2949 41.6849 29.0404 43.4208 30.5313C44.4334 31.4258 45.3014 32.6186 46.0247 33.8113C47.1819 35.4513 49.2072 36.1967 51.0878 36.0476C53.2577 36.0476 54.7043 36.9422 55.7169 39.7749C56.5849 41.564 56.5849 43.6513 55.7169 45.2913C54.8489 46.6331 54.5596 48.4222 54.8489 50.0622C55.1383 51.1058 54.9936 51.5531 55.1383 52.5967C55.4276 53.7895 56.0062 54.684 56.8742 55.5786C57.4528 56.1749 57.7421 56.9204 57.8868 57.6658C58.0315 58.5604 58.4654 59.3058 58.8994 59.9022C59.0441 60.0513 59.3334 59.9022 59.1887 59.604C58.7548 59.0076 58.6101 58.1131 58.6101 57.3676C58.4654 56.4731 58.1761 55.7276 57.5975 54.9822C57.1635 54.5349 56.8742 53.9386 56.5849 53.3422C56.4402 52.7458 56.8742 52.5967 57.3082 52.8949C59.1887 54.2367 60.6353 56.1749 61.214 58.4113C61.3586 58.7095 61.5033 58.7095 61.5033 58.4113C61.0693 55.8767 59.7674 53.6404 57.8868 52.1495C56.8742 51.404 56.1509 50.3604 55.7169 49.1676C55.5722 47.8258 55.8616 46.3349 56.5849 45.2913C57.3082 43.9495 57.4528 41.7131 56.4402 38.8804C56.0062 37.2404 54.9936 35.8986 53.547 35.004L53.4023 34.8549C52.5344 34.5567 51.6664 34.4076 50.7984 34.4076C49.3518 34.5567 47.7606 33.9604 46.748 32.7676C45.88 31.5749 44.8674 30.3822 43.8548 29.3386" fill="white"/>
<path d="M35.6184 26.8045L34.8951 26.9536C33.7378 27.1027 32.5805 27.5499 31.7126 28.1463C31.1339 28.4445 30.7 28.8917 30.266 29.339C29.9766 29.6372 29.5427 29.9354 28.964 30.0845C26.0708 30.979 23.7563 33.2154 22.599 36.0481C22.4543 36.1972 22.599 36.3463 22.7436 36.4954C22.8883 36.4954 23.033 36.4954 23.033 36.3463C24.4796 33.9608 26.6495 32.1717 29.2533 31.4263C29.398 31.2772 29.5427 31.2772 29.832 31.4263C29.9766 31.5754 30.1213 31.7245 30.1213 32.0227C30.266 32.7681 30.266 33.6627 30.1213 34.4081C29.9766 34.8554 29.832 35.1536 29.6873 35.6008L29.5427 36.0481C29.2533 36.7936 29.2533 37.539 29.2533 38.2845V38.5827C29.5427 40.2227 29.398 42.0117 28.6747 43.5027C28.53 43.6517 28.53 43.8008 28.6747 43.9499C28.8194 43.9499 28.964 44.099 29.1087 43.8008C30.4106 42.459 30.5553 40.5208 30.4106 38.4336C30.4106 37.8372 30.4106 37.0917 30.6999 36.6445C31.4232 35.6008 31.7126 34.4081 31.7126 33.0663V32.3208V31.1281C31.7126 30.6808 31.8572 30.2336 32.1466 29.9354C32.7252 29.339 33.4485 29.0408 34.1718 28.8917C34.6058 28.7427 34.8951 29.0408 35.0398 29.4881C36.0524 31.2772 37.499 32.4699 39.3796 33.2154C40.1029 33.5136 40.2475 33.8117 40.2475 34.5572V34.7063C40.2475 35.4517 39.9582 36.1972 39.3796 36.7936C38.2223 37.8372 37.2097 39.179 36.7757 40.6699C36.631 41.2663 36.197 41.5645 35.6184 41.7136C34.3165 42.0117 33.1592 42.9063 32.5805 44.099C32.1466 44.8445 32.1466 45.8881 32.5805 46.6336L32.8699 47.2299C33.3038 48.2736 33.5932 49.3172 33.8825 50.5099C34.1718 51.8517 34.7504 54.0881 35.3291 55.579C35.9077 57.3681 36.631 59.1572 37.6436 60.7972C37.7883 61.0954 37.933 61.0954 38.0776 60.9463C38.2223 60.7972 38.2223 60.499 38.0776 60.3499C37.065 58.2627 36.197 56.0263 35.6184 53.6408C35.6184 53.6408 35.6184 53.4917 35.6184 53.3427H35.7631C37.2097 53.6408 38.6563 54.0881 40.1029 54.6845C40.2475 54.8336 40.3922 54.6845 40.5368 54.5354C40.6815 54.3863 40.5368 54.2372 40.3922 54.0881C38.8009 53.1936 37.2097 52.5972 35.4737 52.1499C35.1844 52.1499 35.1844 51.7027 35.0398 51.4045L34.8951 50.659C34.6058 49.1681 34.1718 47.6772 33.7378 46.1863C33.3038 45.4408 33.5932 44.3972 34.3165 43.9499C34.8951 43.5027 35.4737 43.3536 36.0524 43.2045C36.197 43.2045 36.197 43.2045 36.3417 43.2045L36.4864 43.3536C36.4864 43.5027 36.631 43.5027 36.631 43.6517C36.9203 44.8445 37.499 45.8881 38.2223 46.7827C38.8009 47.379 39.2349 48.1245 39.5242 49.019C39.6689 49.4663 39.8135 49.4663 39.9582 49.4663C40.1029 49.4663 40.2475 49.3172 40.2475 49.019C40.1029 48.1245 39.8135 47.0808 39.2349 46.3354C38.6563 45.5899 38.2223 44.5463 37.933 43.5027C37.7883 42.7572 37.933 42.0117 38.0776 41.2663C38.5116 39.9245 39.3796 38.5827 40.3922 37.6881C41.5495 36.7936 42.1281 35.4517 41.9834 33.9608C41.9834 33.8117 41.9834 33.8117 42.1281 33.6627C42.2728 33.6627 42.2728 33.6627 42.2728 33.8117C42.8514 35.3027 43.7194 36.6445 45.0213 37.539C46.4679 38.4336 47.3359 39.4772 47.3359 40.6699C47.3359 41.7136 46.7572 42.7572 45.8893 43.3536C42.4174 45.739 42.9961 48.7208 44.1533 50.9572C44.5873 51.7027 45.0213 52.4481 45.6 53.1936C46.0339 53.6408 46.0339 54.3863 45.7446 54.8336C44.8766 56.4736 44.8767 58.4117 45.8893 60.0517C46.4679 60.7972 46.9019 61.5427 47.1912 62.2881C47.3359 62.5863 47.4805 62.7354 47.6252 62.5863C47.7699 62.4372 47.9145 62.4372 47.7699 61.9899C47.4805 61.0954 47.1912 60.3499 46.7572 59.6045L46.6126 59.4554C46.1786 58.2627 46.1786 57.0699 46.6126 56.0263L47.0466 54.9827L47.1912 54.5354C47.1912 54.3863 47.3359 54.2372 47.4805 54.2372C47.6252 54.2372 47.6252 54.2372 47.6252 54.3863C48.2038 55.1317 48.6378 56.0263 49.0718 56.9208V57.0699C49.3611 57.6663 49.9398 58.2627 50.5184 58.4117C51.6757 58.859 52.5436 59.6045 52.9776 60.6481C53.1223 60.9463 53.2669 60.9463 53.4116 60.9463C53.5563 60.9463 53.7009 60.6481 53.5563 60.499C53.2669 59.1572 52.399 58.5608 51.2417 57.6663C50.5184 57.219 50.2291 56.9208 50.0844 56.3245L49.6504 55.8772C49.3611 54.8336 48.7825 53.7899 47.9145 53.1936L47.3359 52.8954C46.9019 52.7463 46.6126 52.4481 46.3233 52.1499C45.3106 50.9572 44.732 49.4663 44.5873 47.8263C44.732 46.4845 45.6 45.2917 46.6126 44.6954C47.9145 43.9499 48.7825 42.459 48.7825 40.819C48.7825 40.6699 48.7825 40.6699 48.9271 40.5208C49.0718 40.5208 49.2165 40.5208 49.3611 40.5208C51.097 40.819 52.5436 42.3099 52.6883 44.099C52.6883 44.3972 52.9776 44.5463 53.1223 44.5463C53.2669 44.5463 53.4116 44.2481 53.4116 44.099C53.4116 42.1608 52.2543 40.3717 50.5184 39.6263C50.3737 39.4772 50.0844 39.3281 49.9398 39.3281H49.7951L49.3611 39.179H49.2165C48.9271 39.179 48.4932 39.0299 48.3485 38.7317C47.7699 37.6881 46.9019 36.7936 45.8893 36.3463C45.0213 35.6008 44.298 34.7063 43.864 33.5136C43.2854 32.4699 42.7067 31.5754 41.4048 31.4263C39.5242 31.4263 37.6436 30.3827 36.4864 28.8917V28.7427V28.5936C36.4864 28.4445 36.631 28.4445 36.7757 28.4445C39.0902 28.2954 41.2601 29.1899 42.9961 30.6808C44.0087 31.5754 44.8767 32.7681 45.6 33.8117C46.7572 35.4517 48.7825 36.3463 50.8077 36.0481C52.6883 36.0481 54.1349 36.6445 55.2922 39.6263C56.1601 41.2663 56.1601 43.3536 55.2922 44.9936C54.2796 46.4845 53.9902 48.2736 54.4242 49.9136C54.5689 50.3608 54.5689 50.8081 54.5689 51.1063C54.5689 51.5536 54.7135 52.0008 54.7135 52.299C55.0029 53.4917 55.5815 54.5354 56.4495 55.4299C56.8834 56.0263 57.3174 56.6227 57.4621 57.3681C57.6068 58.2627 58.0407 59.0081 58.6194 59.7536C58.764 59.9027 58.9087 59.9027 59.0534 59.7536C59.198 59.6045 59.198 59.4554 59.0534 59.3063C58.6194 58.7099 58.4747 57.9645 58.3301 57.219C58.1854 56.3245 57.8961 55.4299 57.3174 54.8336C56.8834 54.3863 56.5941 53.939 56.4495 53.3427C56.4495 53.1936 56.4495 53.0445 56.4495 53.0445C56.5941 53.0445 56.7388 53.0445 56.8834 53.1936C58.764 54.5354 60.066 56.4736 60.7893 58.7099C60.7893 59.0081 61.0786 59.1572 61.2233 59.0081C61.3679 59.0081 61.5126 58.7099 61.5126 58.5608C61.0786 56.0263 59.7767 53.7899 57.8961 52.1499H57.7514C56.7388 51.5536 56.1601 50.5099 55.7262 49.3172C55.7262 49.019 55.5815 48.7208 55.5815 48.4227C55.5815 47.379 56.0155 46.3354 56.5941 45.4408C57.0281 44.6954 57.1728 43.6517 57.1728 42.7572C57.1728 41.4154 56.8834 40.2227 56.4495 38.8808C56.0155 37.2408 55.0029 35.7499 53.5563 35.0045L53.4116 34.7063C52.5436 34.259 51.6757 34.1099 50.8077 34.1099H50.6631C49.0718 33.9608 47.7699 34.259 46.7572 32.9172V32.619C46.0339 31.5754 45.166 30.5317 44.1533 29.4881C43.7194 29.0408 43.1407 28.5936 42.5621 28.2954C42.5621 28.2954 42.4174 28.1463 41.9834 27.9972C41.2601 27.699 40.5368 27.4008 39.8135 27.1027C39.5242 26.9536 39.3796 26.9536 39.0902 26.9536L38.3669 26.8045H37.499C36.7757 26.8045 36.197 26.6554 35.6184 26.8045ZM31.8572 28.2954C32.8699 27.699 33.8825 27.4008 35.0398 27.2517L35.7631 27.1027C36.3417 27.1027 36.9203 27.1027 37.499 27.1027L38.3669 27.2517H39.0902C39.3796 27.2517 39.5242 27.4008 39.8135 27.4008C40.5368 27.5499 41.2601 27.8481 41.9834 28.1463C42.1281 28.1463 42.4174 28.2954 42.4174 28.2954C42.9961 28.5936 43.43 29.0408 44.0087 29.4881C44.8766 30.3827 45.7446 31.4263 46.6126 32.4699L46.9019 32.9172C47.9145 34.1099 49.5058 34.7063 50.9524 34.5572H51.097C51.965 34.5572 52.6883 34.7063 53.5563 35.0045H53.7009C55.1475 35.899 56.0155 37.2408 56.4495 38.7317C56.8834 39.9245 57.0281 41.1172 57.1728 42.459C57.1728 43.3536 57.0281 44.2481 56.5941 44.9936C56.0155 46.0372 55.7262 47.2299 55.7262 48.4227C55.7262 48.7208 55.7262 49.019 55.8708 49.3172C56.1601 50.5099 56.8834 51.5536 57.8961 52.299H58.0407C59.9213 53.7899 61.2233 56.0263 61.5126 58.4117C61.5126 58.4117 61.5126 58.4117 61.5126 58.2627C60.7893 56.0263 59.4873 53.939 57.4621 52.5972C57.3174 52.4481 56.8835 52.299 56.7388 52.4481C56.5941 52.5972 56.5941 52.7463 56.5941 52.8954C56.5941 53.0445 56.5941 53.0445 56.5941 53.1936C56.7388 53.7899 57.1728 54.3863 57.6067 54.8336C58.1854 55.4299 58.4747 56.3245 58.4747 57.0699C58.4747 57.8154 58.764 58.7099 59.198 59.3063C58.6194 58.7099 58.3301 57.9645 58.1854 57.0699C58.0407 56.3245 57.6068 55.579 57.1728 54.9827C56.3048 54.0881 55.7262 53.1936 55.4368 52.0008C55.2922 51.5536 55.2922 51.2554 55.2922 50.8081C55.2922 50.3608 55.1475 49.9136 55.1475 49.4663C55.0029 49.019 55.0029 48.4227 55.0029 47.9754C55.0029 46.7827 55.2922 45.739 56.0155 44.6954C56.4495 43.9499 56.7388 43.0554 56.7388 42.3099C56.7388 41.2663 56.4495 40.2227 56.1601 39.179C55.1475 36.4954 53.7009 35.4517 51.3864 35.4517C49.5058 35.7499 47.6252 34.8554 46.4679 33.3645C45.7446 32.1717 44.8766 31.1281 43.7194 30.0845C41.9834 28.5936 39.6689 27.699 37.2097 27.8481C36.9203 27.8481 36.7757 27.9972 36.631 28.1463C36.631 28.2954 36.631 28.2954 36.631 28.4445C36.631 28.5936 36.631 28.7427 36.7757 28.7427C37.933 30.3827 39.8135 31.4263 41.8388 31.4263C42.9961 31.5754 43.5747 32.3208 44.0087 33.3645C44.4427 34.4081 45.3106 35.4517 46.1786 36.1972C47.1912 36.7936 47.9145 37.539 48.4932 38.5827C48.7825 39.0299 49.0718 39.179 49.5058 39.179H49.6504L50.2291 39.3281H50.3737C50.5184 39.3281 50.6631 39.4772 50.8077 39.4772C52.399 40.2227 53.5563 41.8627 53.5563 43.8008C53.5563 43.9499 53.5563 43.9499 53.5563 43.9499V43.8008C53.2669 41.8627 51.8203 40.2227 49.9398 39.9245C49.6504 39.9245 49.3611 39.9245 49.2165 40.0736C49.0718 40.2227 48.9271 40.3717 48.9271 40.5208V40.6699C48.9271 42.1608 48.0592 43.3536 46.9019 44.099C45.7446 44.8445 44.8766 46.0372 44.5873 47.379C44.5873 47.5281 44.5873 47.5281 44.5873 47.6772C44.732 49.3172 45.3106 50.8081 46.3233 52.0008C46.6126 52.299 46.9019 52.5972 47.3359 52.7463L47.9145 53.0445C48.7825 53.6408 49.2165 54.5354 49.5058 55.579L49.7951 56.3245C50.0844 56.9208 50.5184 57.5172 51.097 57.8154L51.2417 57.9645C52.399 58.7099 53.1223 59.3063 53.4116 60.6481C52.833 59.4554 51.965 58.5608 50.8077 58.1136C50.2291 57.8154 49.7951 57.5172 49.5058 56.9208V57.0699C49.0718 56.1754 48.6378 55.2808 48.0592 54.5354C47.9145 54.3863 47.7699 54.3863 47.6252 54.3863C47.3359 54.3863 47.1912 54.6845 47.1912 54.8336L46.7572 55.2808L46.3233 56.3245C46.1786 56.9208 46.0339 57.5172 46.0339 58.2627C46.0339 58.859 46.1786 59.4554 46.3233 60.0517L46.4679 60.3499C46.9019 61.0954 47.1912 61.8408 47.4805 62.5863V62.7354C47.4805 62.7354 47.4805 62.5863 47.3359 62.5863C46.9019 61.8408 46.4679 60.9463 46.0339 60.2008C45.6 59.6045 45.3106 58.7099 45.166 57.9645C45.166 57.0699 45.4553 56.1754 45.7446 55.4299C45.8893 55.1317 45.8893 54.8336 45.8893 54.5354C45.8893 54.0881 45.7446 53.7899 45.4553 53.3427C44.8766 52.5972 44.4427 51.8517 44.0087 51.1063C42.8514 49.019 42.2728 46.0372 45.6 43.9499C46.6126 43.3536 47.1912 42.3099 47.3359 41.1172C47.1912 39.6263 46.3233 38.2845 45.0213 37.539C43.7194 36.6445 42.7067 35.4517 42.1281 33.9608C41.9834 33.6627 41.8388 33.5136 41.5495 33.6627C41.4048 33.6627 41.2601 33.9608 41.2601 34.1099C41.2601 34.259 41.2601 34.259 41.2601 34.4081C41.2601 35.6008 40.6815 36.7936 39.8135 37.539C38.6563 38.4336 37.7883 39.7754 37.3543 41.2663C37.2097 41.8627 37.065 42.3099 37.065 42.9063C37.065 43.2045 37.065 43.3536 37.065 43.6517C37.3543 44.6954 37.7883 45.739 38.3669 46.6336C38.9456 47.379 39.2349 48.2736 39.3796 49.1681V49.019C39.0902 48.1245 38.6563 47.379 38.0776 46.7827C37.3543 45.8881 36.7757 44.8445 36.4864 43.8008C36.4864 43.6517 36.3417 43.5027 36.3417 43.3536L36.197 43.2045C36.0524 43.2045 35.9077 43.0554 35.7631 43.0554C35.0398 43.0554 34.3165 43.3536 33.7378 43.8008C33.1592 44.2481 32.8699 44.8445 32.8699 45.4408C32.8699 45.739 33.0145 46.0372 33.0145 46.3354C33.5932 47.8263 33.8825 49.3172 34.1718 50.8081L34.3165 51.5536C34.4611 52.1499 34.6058 52.4481 35.0398 52.4481C36.631 52.8954 38.3669 53.4917 39.8135 54.3863C38.3669 53.7899 36.9203 53.3427 35.3291 53.0445C35.1844 53.0445 35.0398 53.0445 34.8951 53.1936C34.7504 53.3427 34.7504 53.4917 34.7504 53.6408C35.3291 56.0263 36.197 58.2627 37.2097 60.3499C36.197 58.7099 35.4737 57.0699 34.8951 55.2808C34.3165 53.6408 33.8825 52.0008 33.4485 50.3608C33.1592 49.3172 32.8699 48.1245 32.4359 47.0808L32.1466 46.4845C32.2912 46.0372 32.2912 45.739 32.2912 45.2917C32.2912 44.8445 32.4359 44.3972 32.5805 44.099C33.3038 43.0554 34.3165 42.1608 35.6184 42.0117C36.197 41.8627 36.7757 41.2663 36.9203 40.6699C37.3543 39.179 38.3669 37.8372 39.5242 36.7936C40.1029 36.1972 40.5368 35.3027 40.5368 34.4081C40.5368 34.259 40.5368 34.1099 40.5368 33.9608C40.5368 33.3645 40.1029 32.7681 39.5242 32.4699C37.6436 31.8736 36.0524 30.6808 35.0398 29.0408C34.8951 28.5936 34.3165 28.2954 33.7378 28.2954C32.8699 28.4445 32.1466 28.8917 31.5679 29.4881C31.2786 29.7863 31.1339 30.2336 31.1339 30.6808V30.8299V32.0227V32.7681C31.1339 32.9172 31.1339 32.9172 31.1339 33.0663C30.9893 34.1099 30.6999 35.3027 30.1213 36.1972C29.832 36.7936 29.6873 37.3899 29.6873 37.8372C29.6873 37.9863 29.6873 37.9863 29.6873 38.1354C29.6873 38.5827 29.6873 39.0299 29.6873 39.4772C29.832 40.819 29.398 42.1608 28.53 43.2045C29.1087 42.1608 29.398 41.1172 29.2533 40.0736C29.2533 39.4772 29.2533 38.7317 29.1087 38.1354V37.8372C29.1087 37.6881 29.1087 37.539 29.1087 37.3899C29.1087 36.7936 29.2533 36.3463 29.398 35.7499L29.5427 35.3027C29.6873 34.8554 29.832 34.5572 29.9766 34.1099C30.1213 33.8117 30.1213 33.5136 30.1213 33.2154C30.1213 32.7681 30.1213 32.1717 29.9766 31.5754C29.9766 31.2772 29.832 30.979 29.5427 30.8299C29.2533 30.6808 28.964 30.6808 28.8194 30.6808C26.3601 31.4263 24.1902 33.0663 22.599 35.3027C23.7563 32.7681 26.0708 30.8299 28.6747 29.9354C29.2533 29.7863 29.6873 29.4881 29.9766 29.1899C30.6999 29.0408 31.1339 28.5936 31.8572 28.2954Z" fill="#5B585A"/>
<path d="M32.4375 56.174C31.8589 56.0249 31.5696 55.5776 30.9909 54.8322C30.8463 54.6831 30.7016 54.6831 30.5569 54.534C30.1229 54.0867 29.689 53.6395 29.255 53.1922C28.6763 52.7449 28.0977 52.4467 27.5191 51.9995C26.2171 51.5522 25.7831 50.2104 25.4938 49.614C25.2045 49.0176 24.7705 48.4213 24.4812 47.8249C24.4812 47.974 23.9026 46.9304 23.7579 46.7813C23.6132 46.6322 23.0346 46.1849 23.1793 46.4831C23.3239 46.9304 23.4686 47.2285 23.6132 47.5267C23.9026 47.974 24.1919 48.4213 24.3365 48.8685C24.6259 49.3158 24.9152 49.7631 25.2045 50.3595C25.6385 51.1049 26.0725 51.8504 26.3618 52.2976C26.6511 52.894 26.9404 53.6395 27.0851 54.2358C27.3744 55.2795 27.6637 56.4722 28.0977 57.5158C28.2424 57.6649 28.2424 57.6649 28.2424 57.6649C28.2424 57.6649 28.2424 57.5158 28.2424 57.3667C27.8084 56.174 27.5191 54.8322 27.3744 53.4904C27.3744 53.1922 27.3744 53.0431 27.5191 53.0431C27.6637 53.0431 27.8084 53.0431 28.2424 53.1922C29.1103 53.7885 29.8336 54.534 30.5569 55.2795C30.9909 55.8758 31.7142 56.3231 32.5822 56.4722C32.7268 56.4722 32.8715 56.4722 32.8715 56.4722C32.5822 56.7704 32.5822 56.174 32.4375 56.174Z" fill="white"/>
</g>
<path d="M40.5402 75.406C22.8917 75.406 8.57031 60.646 8.57031 42.4569C8.57031 24.2678 22.8917 9.50781 40.5402 9.50781C58.1888 9.50781 72.5101 24.2678 72.5101 42.4569C72.5101 60.646 58.1888 75.406 40.5402 75.406ZM40.5402 10.5515C23.4703 10.5515 9.58293 24.8642 9.58293 42.4569C9.58293 60.0497 23.4703 74.3624 40.5402 74.3624C57.6101 74.3624 71.4975 60.0497 71.4975 42.4569C71.4975 24.8642 57.6101 10.7006 40.5402 10.5515Z" fill="#5B585A"/>
<path d="M95.7995 9.50781H98.4034L105.637 26.6533H102.599L100.863 22.4788H93.051L91.3151 26.6533H88.4219L95.7995 9.50781ZM99.9947 19.9442L97.1015 13.086L94.2083 19.9442H99.9947Z" fill="#5B585A"/>
<path d="M108.809 9.66016H111.847L116.91 17.7111L121.973 9.66016H125.011V26.6565H122.117V14.4311L116.91 22.482H116.765L111.557 14.5802V26.8056H108.664L108.809 9.66016Z" fill="#5B585A"/>
<path d="M129.492 9.66016H141.644V12.3438H132.385V16.8165H140.631V19.5002H132.385V24.122H141.788V26.8056H129.492V9.66016Z" fill="#5B585A"/>
<path d="M145.398 9.65533H152.776C154.512 9.50624 156.248 10.1026 157.55 11.2953C158.418 12.3389 158.996 13.5317 158.852 15.0226C158.996 17.5571 157.26 19.6444 154.946 20.0917L159.43 26.5026H155.959L151.908 20.5389H148.292V26.5026H145.398V9.65533ZM152.631 18.1535C154.657 18.1535 155.959 16.9608 155.959 15.3208C155.959 13.5317 154.657 12.488 152.487 12.488H148.292V18.1535H152.631Z" fill="#5B585A"/>
<path d="M162.906 9.66016H165.799V26.6565H162.906V9.66016Z" fill="#5B585A"/>
<path d="M169.715 18.1581C169.57 13.3872 173.187 9.51083 177.816 9.36174C177.961 9.36174 178.105 9.36174 178.105 9.36174C180.565 9.21265 182.879 10.2563 184.615 12.0454L182.734 14.2818C181.577 12.9399 179.841 12.1945 178.105 12.1945C175.067 12.1945 172.608 14.8781 172.608 18.009V18.1581C172.464 21.289 174.923 23.9727 177.961 24.1218H178.105C179.841 24.1218 181.577 23.3763 182.879 21.8854L184.76 23.8236C183.024 25.7618 180.565 26.9545 178.105 26.8054C173.476 26.8054 169.715 23.0781 169.715 18.3072C169.715 18.3072 169.715 18.3072 169.715 18.1581Z" fill="#5B585A"/>
<path d="M193.881 9.50781H196.629L203.862 26.6533H200.824L199.088 22.4788H191.277L189.541 26.6533H186.648L193.881 9.50781ZM198.076 19.9442L195.182 13.086L192.289 19.9442H198.076Z" fill="#5B585A"/>
<path d="M206.898 9.66016H209.646L218.47 21.4383V9.66016H221.364V26.6565H218.904L209.791 14.5802V26.6565H206.898V9.66016Z" fill="#5B585A"/>
<path d="M89.1369 42.455C88.9922 37.6841 92.7534 33.8077 97.2378 33.6586C97.3825 33.6586 97.5271 33.6586 97.5271 33.6586C99.9864 33.5095 102.301 34.5532 104.037 36.3423L102.156 38.4295C100.999 37.0877 99.2631 36.3423 97.5271 36.3423C94.4893 36.3423 92.03 39.0259 92.03 42.1568V42.3059C91.8853 45.4368 94.3446 48.1204 97.3825 48.2695H97.5271C99.2631 48.2695 100.999 47.5241 102.301 46.0332L104.182 47.9714C102.446 49.9095 99.9864 51.1023 97.5271 50.9532C92.898 50.9532 89.1369 47.2259 89.1369 42.455C89.1369 42.6041 89.1369 42.6041 89.1369 42.455Z" fill="#5B585A"/>
<path d="M106.352 42.4568C106.93 37.5368 111.27 34.1077 116.044 34.704C119.95 35.1513 123.132 38.4313 123.566 42.4568C122.987 47.3768 118.648 50.8058 113.874 50.2095C109.968 49.7622 106.786 46.6313 106.352 42.4568ZM120.528 42.4568C120.673 39.1768 118.214 36.4931 115.176 36.4931H115.031C111.993 36.4931 109.534 39.0277 109.534 42.3077V42.4568C109.389 45.5877 111.849 48.2713 115.031 48.4204H115.176C118.214 48.4204 120.673 45.8858 120.673 42.7549C120.528 42.6058 120.528 42.6058 120.528 42.4568Z" fill="#5B585A"/>
<path d="M127.328 33.9609H130.221V48.2737H138.901V50.9573H127.328V33.9609Z" fill="#5B585A"/>
<path d="M142.227 33.9609H145.121V48.2737H153.8V50.9573H142.227V33.9609Z" fill="#5B585A"/>
<path d="M156.977 33.9609H169.128V36.6446H159.87V41.1173H168.115V43.801H159.87V48.4228H169.273V51.1064H156.977V33.9609Z" fill="#5B585A"/>
<path d="M172.32 42.457C172.32 37.6861 175.936 33.8098 180.565 33.6607C180.71 33.6607 180.71 33.6607 180.854 33.6607C183.169 33.5116 185.484 34.4061 187.22 35.897L185.339 38.2825C184.037 37.0898 182.446 36.3443 180.71 36.4934C177.672 36.6425 175.213 39.3261 175.357 42.457C175.213 45.588 177.383 48.2716 180.42 48.5698C180.565 48.5698 180.71 48.5698 180.854 48.5698C182.301 48.5698 183.603 48.1225 184.905 47.228V44.097H180.71V41.4134H187.798V48.5698C185.918 50.2098 183.458 51.2534 180.854 51.2534C176.37 51.4025 172.464 47.8243 172.32 43.2025C172.175 42.9043 172.175 42.7552 172.32 42.457Z" fill="#5B585A"/>
<path d="M191.703 33.9609H203.855V36.6446H194.596V41.1173H202.842V43.801H194.596V48.4228H203.999V51.1064H191.703V33.9609Z" fill="#5B585A"/>
<path d="M213.977 44.5465C213.977 40.8192 216.871 37.8374 220.487 37.8374H220.632C224.248 37.6883 227.142 40.6701 227.286 44.2483V44.3974C227.142 48.1246 223.959 51.1065 220.343 50.9574C216.871 50.9574 214.122 48.1246 213.977 44.5465ZM224.393 44.5465C224.538 42.3101 222.802 40.521 220.776 40.3719H220.632C218.607 40.3719 216.871 42.0119 216.871 44.2483C216.871 44.3974 216.871 44.3974 216.871 44.5465C216.726 46.7828 218.317 48.5719 220.487 48.721H220.632C222.657 48.721 224.393 47.081 224.393 44.8446C224.393 44.8446 224.393 44.6956 224.393 44.5465Z" fill="#5B585A"/>
<path d="M231.06 40.6654H229.469V38.28H231.06V37.3854C230.915 36.1927 231.349 35.1491 232.073 34.2545C232.796 33.5091 233.809 33.2109 234.821 33.2109C235.544 33.2109 236.412 33.36 237.136 33.5091V36.0436C236.557 35.8945 235.978 35.7454 235.4 35.7454C234.243 35.7454 233.809 36.3418 233.809 37.6836V38.4291H237.136V40.6654H233.953V50.9527H231.06V40.6654Z" fill="#5B585A"/>
<path d="M89.1369 66.7636C88.9922 61.9927 92.7534 58.1163 97.2378 57.9672C97.3825 57.9672 97.5271 57.9672 97.5271 57.9672C99.9864 57.8181 102.301 58.8618 104.037 60.6509L102.156 62.8872C100.999 61.5454 99.2631 60.7999 97.5271 60.7999C94.4893 60.7999 92.03 63.4836 92.03 66.6145V66.7636C91.8853 69.8945 94.3446 72.5781 97.3825 72.7272H97.5271C99.2631 72.7272 100.999 71.9818 102.301 70.4909L104.182 72.429C102.446 74.3672 99.9864 75.5599 97.5271 75.4109C93.0427 75.4109 89.2815 71.5345 89.1369 66.7636Z" fill="#5B585A"/>
<path d="M113.448 58.1133H116.052L123.285 75.2588H120.247L118.511 71.0842H110.699L108.964 75.2588H106.07L113.448 58.1133ZM117.498 68.5497L114.605 61.6915L111.857 68.5497H117.498Z" fill="#5B585A"/>
<path d="M126.469 58.2569H133.847C135.582 58.1078 137.318 58.7041 138.62 59.8969C139.488 60.9405 140.067 62.1332 140.067 63.6241C140.067 66.1587 138.476 68.2459 136.161 68.8423L140.646 75.2532H137.174L133.123 69.2896H129.507V75.2532H126.614L126.469 58.2569ZM133.557 66.6059C135.582 66.6059 136.884 65.5623 136.884 63.7732C136.884 61.9841 135.582 60.9405 133.413 60.9405H129.217V66.6059H133.557Z" fill="#5B585A"/>
<path d="M143.68 58.2578H149.755C154.963 58.2578 158.58 61.9851 158.58 66.756C158.58 71.3778 154.963 75.2542 150.334 75.2542C150.189 75.2542 150.045 75.2542 149.755 75.2542H143.68V58.2578ZM146.573 60.9415V72.5706H149.755C152.649 72.8687 155.252 70.4833 155.542 67.5015C155.542 67.3524 155.542 67.0542 155.542 66.9051C155.686 63.7742 153.372 61.2396 150.334 61.0906C150.189 61.0906 149.9 61.0906 149.755 61.0906L146.573 60.9415Z" fill="#5B585A"/>
<path d="M162.477 58.2578H165.37V75.2542H162.477V58.2578Z" fill="#5B585A"/>
<path d="M169.281 66.7617C169.281 61.9908 173.042 57.9653 177.671 57.9653C177.816 57.9653 177.816 57.9653 177.961 57.9653C182.59 57.8162 186.351 61.5435 186.496 66.3144C186.496 66.4635 186.496 66.4635 186.496 66.6126C186.496 71.3835 182.735 75.4089 178.105 75.4089C177.961 75.4089 177.961 75.4089 177.816 75.4089C173.187 75.558 169.426 71.6817 169.281 66.9108C169.281 66.9108 169.281 66.9108 169.281 66.7617ZM183.458 66.7617C183.603 63.4817 181.288 60.798 178.105 60.6489C177.961 60.6489 177.961 60.6489 177.816 60.6489C174.778 60.6489 172.319 63.1835 172.319 66.4635V66.6126C172.174 69.7435 174.634 72.4271 177.816 72.5762H177.961C180.999 72.5762 183.458 70.0417 183.458 66.7617Z" fill="#5B585A"/>
<path d="M190.258 58.2578H193.151V72.5706H201.831V75.2542H190.258V58.2578Z" fill="#5B585A"/>
<path d="M203.43 66.7617C203.43 61.9908 207.191 57.9653 211.82 57.9653C211.965 57.9653 211.965 57.9653 212.109 57.9653C216.738 57.8162 220.5 61.5435 220.644 66.3144C220.644 66.4635 220.644 66.4635 220.644 66.6126C220.066 71.5326 215.726 75.1108 210.952 74.5144C207.046 74.0671 203.864 70.7871 203.43 66.7617ZM217.606 66.7617C217.751 63.4817 215.436 60.798 212.254 60.6489C212.109 60.6489 212.109 60.6489 211.965 60.6489C208.927 60.6489 206.323 63.1835 206.323 66.3144C206.323 66.4635 206.323 66.4635 206.323 66.6126C206.178 69.8926 208.637 72.4271 211.82 72.5762H211.965C215.147 72.5762 217.606 70.0417 217.606 66.7617Z" fill="#5B585A"/>
<path d="M223.672 66.7656C223.672 61.9947 227.288 58.1184 231.918 57.9693C232.062 57.9693 232.062 57.9693 232.207 57.9693C234.521 57.8202 236.836 58.7147 238.572 60.2056L236.691 62.442C235.389 61.2493 233.798 60.5038 232.062 60.5038C229.024 60.6529 226.565 63.3365 226.71 66.4674C226.565 69.5984 228.735 72.282 231.773 72.5802C231.917 72.5802 232.062 72.5802 232.351 72.5802C233.798 72.5802 235.1 72.1329 236.402 71.2384V68.1075H232.207V65.5729H239.295V72.7293C237.415 74.5184 234.955 75.4129 232.351 75.4129C227.867 75.562 223.961 71.9838 223.817 67.362C223.672 67.362 223.672 67.0638 223.672 66.7656Z" fill="#5B585A"/>
<path d="M247.252 68.5451L240.742 58.2578H244.214L248.843 65.7124L253.472 58.2578H256.799L250.29 68.5451V75.2542H247.397L247.252 68.5451Z" fill="#5B585A"/>
<path d="M253.622 72.1322C253.622 70.3431 255.069 68.7031 256.805 68.7031C258.541 68.7031 259.987 70.194 259.987 71.9831C260.132 73.7722 258.685 75.4122 256.949 75.5613C255.213 75.7104 253.622 74.2195 253.477 72.4304C253.622 72.4304 253.622 72.2813 253.622 72.1322ZM259.698 72.1322C259.698 70.4922 258.396 69.1504 256.805 69.1504C255.213 69.1504 253.911 70.4922 253.911 72.1322C253.911 73.7722 255.213 75.114 256.805 75.114C258.396 75.114 259.698 73.6231 259.698 72.1322ZM255.503 70.3431H257.094C257.962 70.3431 258.541 70.6413 258.541 71.5359C258.541 71.9831 258.251 72.4304 257.817 72.5795L258.685 73.7722H257.673L256.949 72.7286H256.371V73.7722H255.503V70.3431ZM257.094 71.9831C257.528 71.9831 257.673 71.834 257.673 71.5359C257.673 71.2377 257.383 71.0886 257.094 71.0886H256.371V71.9831H257.094Z" fill="#5B585A"/>
</g>
<defs>
<clipPath id="clip0_6875_13264">
<rect width="260" height="83" fill="white" transform="translate(0 0.5)"/>
</clipPath>
</defs>
</svg>
