<svg width="495" height="82" viewBox="0 0 495 82" fill="none" xmlns="http://www.w3.org/2000/svg">
<path d="M13.2083 26.4166H0V58.837H13.2083V26.4166Z" fill="#CCD1DC"/>
<path d="M43.8284 15.6098C48.1389 15.6098 51.6333 12.1154 51.6333 7.80491C51.6333 3.49438 48.1389 0 43.8284 0C39.5178 0 36.0234 3.49438 36.0234 7.80491C36.0234 12.1154 39.5178 15.6098 43.8284 15.6098Z" fill="#CCD1DC"/>
<path d="M39.6244 34.2456C40.5876 31.2946 42.2331 28.6124 44.4274 26.4167C42.2129 23.8351 39.8044 21.4266 37.2229 19.2121C31.1768 14.0415 24.2669 9.97685 16.81 7.20459L9.60547 15.6099C13.4211 17.2004 17.046 19.2143 20.4123 21.6137C25.5395 25.2159 29.0937 27.8336 31.2191 32.4205C34.0529 38.5563 32.4198 44.7042 31.2191 49.231C29.5916 54.986 26.7226 60.3143 22.8138 64.8409C20.3378 67.9505 17.5181 70.7702 14.4085 73.2462L21.613 81.6515C24.747 78.7216 27.965 75.5156 31.2191 72.0454C36.2262 66.69 40.609 61.4307 44.4274 56.4356C43.803 55.6191 36.0221 45.3046 39.6244 34.2456Z" fill="#CCD1DC"/>
<path d="M66.0433 64.8409C62.1345 60.3143 59.2654 54.986 57.638 49.231C56.4372 44.7042 54.8042 38.5563 57.638 32.4205C59.7633 27.8336 63.3176 25.2159 68.4448 21.6137C71.8111 19.2143 75.436 17.2004 79.2516 15.6099L72.0471 7.20459C64.5902 9.97685 57.6803 14.0415 51.6342 19.2121C49.0527 21.4266 46.6441 23.8351 44.4297 26.4167C46.624 28.6124 48.2695 31.2946 49.2327 34.2456C52.835 45.3046 45.0541 55.6191 44.4297 56.4356C48.2481 61.4307 52.6308 66.69 57.638 72.0454C60.8921 75.5156 64.1101 78.7216 67.244 81.6515L74.4486 73.2462C71.3389 70.7702 68.5193 67.9505 66.0433 64.8409Z" fill="#CCD1DC"/>
<path d="M118.274 15.6098C122.584 15.6098 126.079 12.1154 126.079 7.80491C126.079 3.49438 122.584 0 118.274 0C113.963 0 110.469 3.49438 110.469 7.80491C110.469 12.1154 113.963 15.6098 118.274 15.6098Z" fill="#CCD1DC"/>
<path d="M112.873 26.4167H118.877C116.662 23.8351 114.254 21.4266 111.672 19.2121C105.626 14.0415 98.7161 9.97685 91.2592 7.20459L84.0547 15.6099C87.8703 17.2004 91.4952 19.2143 94.8615 21.6137C99.9887 25.2159 103.543 27.8336 105.668 32.4205C108.502 38.5563 106.869 44.7042 105.668 49.231C104.041 54.986 101.172 60.3143 97.263 64.8409C94.787 67.9505 91.9674 70.7702 88.8577 73.2462L96.0622 81.6515C99.1962 78.7216 102.414 75.5156 105.668 72.0454C110.675 66.69 115.058 61.4307 118.877 56.4356H112.873V26.4167Z" fill="#CCD1DC"/>
<path d="M140.489 64.8409C136.58 60.3143 133.711 54.986 132.083 49.231C130.883 44.7042 129.25 38.5563 132.083 32.4205C134.209 27.8336 137.763 25.2159 142.89 21.6137C146.256 19.2143 149.881 17.2004 153.697 15.6099L146.492 7.20459C139.036 9.97685 132.126 14.0415 126.08 19.2121C123.498 21.4266 121.089 23.8351 118.875 26.4167H124.879V56.4356H118.875C122.693 61.4307 127.076 66.69 132.083 72.0454C135.337 75.5156 138.555 78.7216 141.689 81.6515L148.894 73.2462C145.784 70.7702 142.965 67.9505 140.489 64.8409Z" fill="#CCD1DC"/>
<path d="M160.901 34.8219C159.901 31.7167 158.265 28.854 156.098 26.4166C153.93 28.854 152.294 31.7167 151.295 34.8219C149.865 39.5186 149.865 44.5343 151.295 49.231C152.261 52.7127 153.892 55.9746 156.098 58.837C158.303 55.9746 159.934 52.7127 160.901 49.231C162.33 44.5343 162.33 39.5186 160.901 34.8219Z" fill="#CCD1DC"/>
<path d="M90.4755 36.0227C88.8133 33.7667 86.7296 31.8543 84.3397 30.3912C83.5537 29.8912 82.6415 29.6256 81.71 29.6256C80.7785 29.6256 79.8663 29.8912 79.0804 30.3912C76.688 31.8511 74.6037 33.7641 72.9445 36.0227C69.1381 41.5822 71.7437 46.3132 72.9445 48.3065C74.4604 50.7228 76.4299 52.8228 78.7441 54.4903C79.5974 55.1323 80.6362 55.4795 81.704 55.4795C82.7718 55.4795 83.8106 55.1323 84.6639 54.4903C86.9817 52.823 88.9551 50.7232 90.4755 48.3065C91.6403 46.2652 94.2819 41.5342 90.4755 36.0227Z" fill="#CCD1DC"/>
<path d="M218.021 33.417V57.4322H213.47L201.522 42.879V57.3841H196.047V33.369H200.634L212.533 48.0302V33.417H218.021Z" fill="#CCD1DC"/>
<path d="M226.092 54.9586C224.183 53.0614 223.234 50.3476 223.234 46.8414V33.417H228.782V46.6253C228.782 50.908 230.563 53.0534 234.125 53.0614C234.862 53.1077 235.599 52.992 236.286 52.7223C236.973 52.4526 237.592 52.0355 238.1 51.5004C239.125 50.0916 239.611 48.3618 239.469 46.6253V33.417H244.956V46.8294C244.956 50.3356 244.007 53.0493 242.098 54.9465C239.836 56.7793 237.013 57.7794 234.101 57.7794C231.19 57.7794 228.366 56.7793 226.104 54.9465L226.092 54.9586Z" fill="#CCD1DC"/>
<path d="M254.704 37.9318H247.031V33.417H267.924V37.9318H260.252V57.3841H254.704V37.9318Z" fill="#CCD1DC"/>
<path d="M285.899 57.3841L281.276 50.7079H276.172V57.3841H270.625V33.369H280.976C282.875 33.3234 284.762 33.6836 286.511 34.4256C287.598 34.944 288.564 35.6856 289.345 36.6022C290.127 37.5188 290.706 38.5898 291.046 39.7453C291.386 40.9008 291.479 42.115 291.318 43.3087C291.157 44.5024 290.747 45.6489 290.113 46.6733C289.228 47.9897 287.975 49.0169 286.511 49.6272L291.89 57.336L285.899 57.3841ZM284.494 39.0125C283.39 38.2191 282.043 37.8368 280.687 37.9318H276.172V46.3371H280.687C282.045 46.4349 283.394 46.0477 284.494 45.2444C284.934 44.8555 285.279 44.3706 285.501 43.8272C285.724 43.2838 285.819 42.6964 285.779 42.1105C285.815 41.5303 285.718 40.9494 285.496 40.4124C285.273 39.8753 284.93 39.3965 284.494 39.0125Z" fill="#CCD1DC"/>
<path d="M295.516 33.417H301.063V57.4321H295.516V33.417Z" fill="#CCD1DC"/>
<path d="M311.321 56.2073C309.396 55.1846 307.785 53.6571 306.662 51.7885C305.552 49.8424 304.969 47.6408 304.969 45.4005C304.969 43.1603 305.552 40.9586 306.662 39.0125C307.785 37.144 309.396 35.6164 311.321 34.5937C313.217 33.6416 315.295 33.1051 317.416 33.0202C319.536 32.9353 321.65 33.3039 323.617 34.1014C325.239 34.7991 326.675 35.8686 327.807 37.2234L324.205 40.5134C323.478 39.6261 322.561 38.913 321.522 38.4268C320.483 37.9405 319.348 37.6934 318.201 37.7037C316.815 37.6788 315.445 38.0139 314.227 38.6763C313.081 39.3119 312.137 40.2563 311.501 41.402C310.862 42.6295 310.529 43.9928 310.529 45.3765C310.529 46.7602 310.862 48.1236 311.501 49.351C312.134 50.4959 313.079 51.4371 314.227 52.0647C315.442 52.7365 316.813 53.0761 318.201 53.0493C319.352 53.0587 320.49 52.8076 321.529 52.3148C322.569 51.8219 323.484 51.1002 324.205 50.2035L327.807 53.4936C326.671 54.8798 325.217 55.9713 323.569 56.6756C321.779 57.4252 319.853 57.7972 317.913 57.7683C315.62 57.8014 313.355 57.2651 311.321 56.2073Z" fill="#CCD1DC"/>
<path d="M331.301 33.417H336.848V57.4321H331.301V33.417Z" fill="#CCD1DC"/>
<path d="M347.143 56.1835C345.203 55.1661 343.583 53.6328 342.46 51.7527C341.342 49.8222 340.754 47.6312 340.754 45.4007C340.754 43.1702 341.342 40.9791 342.46 39.0487C343.583 37.1686 345.203 35.6353 347.143 34.6179C349.226 33.56 351.53 33.0087 353.867 33.0087C356.204 33.0087 358.507 33.56 360.591 34.6179C362.556 35.6568 364.201 37.2121 365.349 39.1163C366.496 41.0205 367.102 43.2016 367.102 45.4247C367.102 47.6478 366.496 49.8289 365.349 51.7331C364.201 53.6373 362.556 55.1926 360.591 56.2315C358.507 57.2894 356.204 57.8407 353.867 57.8407C351.53 57.8407 349.226 57.2894 347.143 56.2315V56.1835ZM357.709 52.0889C358.842 51.4533 359.773 50.5132 360.399 49.3752C361.038 48.1477 361.371 46.7844 361.371 45.4007C361.371 44.017 361.038 42.6536 360.399 41.4262C359.77 40.2876 358.839 39.3444 357.709 38.7005C356.531 38.0625 355.213 37.7285 353.873 37.7285C352.533 37.7285 351.215 38.0625 350.036 38.7005C348.91 39.3498 347.981 40.2916 347.347 41.4262C346.708 42.6536 346.374 44.017 346.374 45.4007C346.374 46.7844 346.708 48.1477 347.347 49.3752C347.976 50.5105 348.907 51.4497 350.036 52.0889C351.212 52.7353 352.531 53.0743 353.873 53.0743C355.214 53.0743 356.534 52.7353 357.709 52.0889Z" fill="#CCD1DC"/>
<path d="M392.874 33.417V57.4322H388.323L376.315 42.879V57.3841H370.84V33.369H375.427L387.398 48.0302V33.417H392.874Z" fill="#CCD1DC"/>
<path d="M398.281 33.417H403.829V57.4321H398.281V33.417Z" fill="#CCD1DC"/>
<path d="M411.618 57.0239C410.086 56.6247 408.64 55.9448 407.355 55.0186L409.241 50.84C410.355 51.6416 411.592 52.2579 412.903 52.6651C414.275 53.1143 415.71 53.3453 417.154 53.3496C418.361 53.4286 419.567 53.184 420.648 52.6411C420.985 52.4605 421.268 52.1924 421.467 51.865C421.665 51.5376 421.772 51.1628 421.777 50.78C421.779 50.5065 421.721 50.2359 421.604 49.9885C421.488 49.741 421.317 49.5231 421.104 49.3511C420.598 48.9447 420.02 48.6391 419.399 48.4505C418.703 48.2223 417.754 47.9702 416.565 47.694C415.048 47.3513 413.552 46.9182 412.086 46.3972C410.925 45.9658 409.892 45.247 409.085 44.3079C408.23 43.2161 407.803 41.8498 407.884 40.4655C407.868 39.1194 408.262 37.8003 409.013 36.6831C409.863 35.4734 411.048 34.5386 412.423 33.9934C414.189 33.2888 416.081 32.9537 417.982 33.0088C419.495 33.0064 421.003 33.1878 422.473 33.5491C423.811 33.8744 425.091 34.405 426.267 35.1221L424.562 39.3368C422.533 38.1323 420.222 37.4822 417.862 37.4516C416.668 37.3668 415.476 37.6295 414.428 38.208C414.086 38.4127 413.803 38.7031 413.607 39.0505C413.411 39.3979 413.309 39.7905 413.311 40.1893C413.312 40.595 413.44 40.9903 413.677 41.3197C413.914 41.6491 414.248 41.8962 414.632 42.0264C415.896 42.5602 417.212 42.9626 418.559 43.2272C420.075 43.5789 421.57 44.0159 423.037 44.536C424.192 44.9627 425.223 45.668 426.039 46.5893C426.898 47.6604 427.326 49.0135 427.24 50.3837C427.237 51.7304 426.818 53.0434 426.039 54.1421C425.189 55.3313 424.019 56.2555 422.665 56.8078C420.89 57.5101 418.99 57.845 417.082 57.7924C415.233 57.7964 413.394 57.5377 411.618 57.0239Z" fill="#CCD1DC"/>
<path d="M435.442 37.9318H427.77V33.417H448.651V37.9318H440.99V57.3841H435.442V37.9318Z" fill="#CCD1DC"/>
<path d="M465.952 52.2449H454.821L452.683 57.3841H447.004L457.679 33.369H463.166L473.877 57.3841H468.053L465.952 52.2449ZM464.199 48.0302L460.404 38.8565L456.598 48.0302H464.199Z" fill="#CCD1DC"/>
<path d="M478.5 57.024C476.987 56.6205 475.562 55.9406 474.297 55.0187L476.182 50.8401C477.295 51.644 478.532 52.2605 479.844 52.6652C481.213 53.1143 482.643 53.3453 484.083 53.3497C485.29 53.4316 486.497 53.1869 487.577 52.6412C487.917 52.4626 488.201 52.195 488.4 51.8671C488.598 51.5393 488.704 51.1635 488.706 50.78C488.711 50.5074 488.654 50.2371 488.54 49.9896C488.426 49.7421 488.257 49.5238 488.046 49.3511C487.535 48.945 486.953 48.6394 486.328 48.4506C485.632 48.2224 484.695 47.9703 483.507 47.6941C481.985 47.3511 480.486 46.9181 479.016 46.3973C477.856 45.9688 476.827 45.2493 476.026 44.308C475.166 43.2189 474.738 41.8506 474.825 40.4655C474.809 39.1195 475.203 37.8004 475.954 36.6832C476.804 35.4735 477.99 34.5387 479.364 33.9935C481.13 33.2879 483.023 32.9527 484.924 33.0089C486.437 33.0073 487.945 33.1887 489.414 33.5492C490.765 33.8732 492.057 34.4038 493.245 35.1222L491.528 39.3368C489.517 38.1389 487.228 37.4889 484.888 37.4517C483.694 37.3655 482.501 37.6283 481.453 38.2081C481.111 38.4128 480.828 38.7031 480.632 39.0506C480.436 39.398 480.334 39.7905 480.337 40.1894C480.326 40.5768 480.431 40.9586 480.638 41.286C480.846 41.6133 481.146 41.8712 481.501 42.0265C482.762 42.5589 484.074 42.9612 485.416 43.2273C486.936 43.5713 488.435 44.0002 489.907 44.5121C491.059 44.936 492.087 45.6419 492.897 46.5654C493.781 47.6254 494.232 48.9811 494.157 50.3598C494.155 51.7065 493.735 53.0194 492.957 54.1181C492.089 55.3256 490.893 56.259 489.51 56.8078C487.74 57.5115 485.844 57.8465 483.939 57.7925C482.099 57.7942 480.267 57.5355 478.5 57.024Z" fill="#CCD1DC"/>
<path d="M206.325 67.5064C206.868 68.0152 207.301 68.6298 207.596 69.3124C207.892 69.995 208.045 70.731 208.045 71.4749C208.045 72.2188 207.892 72.9548 207.596 73.6374C207.301 74.32 206.868 74.9347 206.325 75.4434C204.947 76.4791 203.243 76.9861 201.522 76.8723H197.272V81.8675H195.723V66.0415H201.642C203.328 65.9564 204.989 66.4759 206.325 67.5064ZM205.125 74.3747C205.53 74.0139 205.848 73.5663 206.056 73.0652C206.264 72.5641 206.356 72.0225 206.325 71.4809C206.365 70.9294 206.278 70.3761 206.07 69.8639C205.861 69.3517 205.538 68.8942 205.125 68.5271C204.081 67.7751 202.806 67.4138 201.522 67.5064H197.32V75.4074H201.522C202.807 75.4965 204.082 75.131 205.125 74.3747Z" fill="#CCD1DC"/>
<path d="M220.038 81.8675L217.108 77.7489C216.768 77.7672 216.427 77.7672 216.087 77.7489H212.641V81.8195H211.332V69.0434H216.135C217.518 68.971 218.882 69.3971 219.977 70.2442C220.44 70.6414 220.806 71.1387 221.047 71.6984C221.288 72.2581 221.399 72.8654 221.37 73.4742C221.4 74.3803 221.13 75.2709 220.602 76.0078C220.059 76.7228 219.302 77.2447 218.441 77.4968L221.562 81.8915L220.038 81.8675ZM218.957 75.8037C219.285 75.496 219.547 75.124 219.727 74.711C219.906 74.2979 219.998 73.8524 219.998 73.4022C219.998 72.952 219.906 72.5065 219.727 72.0934C219.547 71.6804 219.285 71.3084 218.957 71.0007C218.114 70.3856 217.08 70.0879 216.039 70.1601H212.641V76.5842H216.039C217.073 76.6738 218.106 76.3976 218.957 75.8037Z" fill="#CCD1DC"/>
<path d="M227.039 81.1231C226.039 80.5825 225.208 79.7764 224.638 78.7936C224.071 77.7745 223.773 76.6277 223.773 75.4615C223.773 74.2954 224.071 73.1486 224.638 72.1294C225.196 71.1185 226.028 70.286 227.039 69.7279C228.103 69.1714 229.285 68.8807 230.485 68.8807C231.686 68.8807 232.868 69.1714 233.931 69.7279C234.938 70.2912 235.77 71.1224 236.333 72.1294C236.907 73.1504 237.209 74.3021 237.209 75.4735C237.209 76.645 236.907 77.7967 236.333 78.8176C235.757 79.7963 234.927 80.6011 233.931 81.1471C232.877 81.7165 231.695 82.0059 230.497 81.9876C229.29 81.9984 228.099 81.7008 227.039 81.1231ZM233.235 80.0784C234.043 79.6372 234.712 78.9804 235.168 78.1812C235.625 77.3477 235.865 76.4123 235.865 75.4615C235.865 74.5108 235.625 73.5754 235.168 72.7418C234.714 71.9411 234.044 71.2838 233.235 70.8446C232.397 70.3828 231.454 70.1469 230.497 70.1602C229.533 70.1471 228.582 70.3828 227.736 70.8446C226.927 71.2907 226.258 71.9514 225.802 72.7538C225.337 73.5849 225.093 74.5213 225.093 75.4735C225.093 76.4258 225.337 77.3622 225.802 78.1933C226.262 78.9897 226.931 79.6457 227.736 80.0904C228.582 80.5522 229.533 80.788 230.497 80.7749C231.455 80.7845 232.398 80.5445 233.235 80.0784Z" fill="#CCD1DC"/>
<path d="M250.955 69.0435L245.276 81.8675H243.943L238.203 69.0435H239.668L244.567 80.1865L249.514 69.0435H250.955Z" fill="#CCD1DC"/>
<path d="M253.105 69.0435H254.462V81.8675H253.105V69.0435Z" fill="#CCD1DC"/>
<path d="M269.715 69.0435V81.8675H268.598L260.361 71.469V81.8675H259.004V69.0435H260.121L268.382 79.454V69.0435H269.715Z" fill="#CCD1DC"/>
<path d="M276.39 81.135C275.395 80.589 274.565 79.7842 273.989 78.8055C273.422 77.782 273.125 76.6313 273.125 75.4614C273.125 74.2915 273.422 73.1408 273.989 72.1173C274.554 71.1115 275.385 70.2806 276.39 69.7158C277.321 69.2326 278.343 68.9508 279.39 68.8887C280.437 68.8266 281.485 68.9857 282.466 69.3556C283.28 69.6744 284.005 70.1852 284.58 70.8445L283.715 71.7091C283.225 71.2061 282.636 70.8108 281.984 70.5482C281.333 70.2857 280.634 70.1617 279.933 70.1841C278.963 70.171 278.007 70.411 277.159 70.8805C276.351 71.325 275.678 71.9808 275.214 72.7777C274.741 73.6033 274.496 74.54 274.505 75.4914C274.493 76.4433 274.737 77.3809 275.214 78.2052C275.678 79.0054 276.35 79.6651 277.159 80.1144C278.01 80.5746 278.965 80.8102 279.933 80.7988C280.629 80.8159 281.321 80.6868 281.964 80.42C282.607 80.1532 283.187 79.7546 283.667 79.2498L284.532 80.1144C283.961 80.7308 283.259 81.211 282.478 81.5192C281.632 81.8449 280.731 82.0079 279.825 81.9995C278.624 82.0121 277.442 81.7143 276.39 81.135Z" fill="#CCD1DC"/>
<path d="M287.797 69.0435H289.142V81.8675H287.797V69.0435Z" fill="#CCD1DC"/>
<path d="M301.723 78.4454H294.579L293.042 81.8675H291.637L297.496 69.0435H298.829L304.689 81.8675H303.26L301.723 78.4454ZM301.231 77.3407L298.157 70.4603L295.083 77.3407H301.231Z" fill="#CCD1DC"/>
<path d="M312.352 69.0436H317.563C318.812 69.0174 320.049 69.2977 321.165 69.8601C322.16 70.3797 322.992 71.1653 323.567 72.1295C324.126 73.1489 324.419 74.2929 324.419 75.4556C324.419 76.6183 324.126 77.7622 323.567 78.7817C322.998 79.7512 322.165 80.5384 321.165 81.0511C320.049 81.6135 318.812 81.8938 317.563 81.8676H312.352V69.0436ZM317.491 80.6909C318.515 80.7168 319.529 80.49 320.445 80.0305C321.256 79.6079 321.934 78.9676 322.402 78.1813C322.859 77.3477 323.099 76.4123 323.099 75.4616C323.099 74.5109 322.859 73.5755 322.402 72.7419C321.946 71.9337 321.267 71.2748 320.445 70.8447C319.53 70.381 318.516 70.15 317.491 70.1723H313.708V80.6909H317.491Z" fill="#CCD1DC"/>
<path d="M336.906 80.6908V81.8915H327.805V69.0435H336.594V70.2442H329.162V74.8071H335.79V76.0078H329.162V80.8109L336.906 80.6908Z" fill="#CCD1DC"/>
<path d="M357.993 75.0592C358.576 75.7898 358.874 76.7069 358.833 77.6408C358.868 78.2474 358.748 78.8528 358.486 79.4007C358.223 79.9487 357.827 80.4213 357.332 80.7748C356.002 81.594 354.448 81.9761 352.89 81.8674H345.625V66.0415H352.445C353.889 65.9571 355.322 66.3311 356.54 67.1102C357.015 67.4484 357.398 67.9004 357.654 68.4247C357.91 68.9491 358.031 69.5292 358.005 70.112C358.028 70.9023 357.801 71.6796 357.356 72.3334C356.913 72.9558 356.294 73.4323 355.579 73.7023C356.514 73.8681 357.365 74.3465 357.993 75.0592ZM347.294 67.4344V73.174H352.325C353.365 73.2338 354.399 72.9785 355.291 72.4415C355.614 72.1863 355.874 71.8615 356.053 71.4914C356.232 71.1212 356.325 70.7154 356.325 70.3042C356.325 69.893 356.232 69.4871 356.053 69.117C355.874 68.7468 355.614 68.422 355.291 68.1668C354.401 67.6241 353.366 67.3684 352.325 67.4344H347.294ZM356.084 79.7661C356.445 79.5165 356.734 79.1769 356.924 78.781C357.113 78.385 357.196 77.9465 357.164 77.5087C357.164 75.5395 355.735 74.5548 352.878 74.5548H347.294V80.4506H352.878C353.99 80.5314 355.102 80.294 356.084 79.7661Z" fill="#CCD1DC"/>
<path d="M363.377 80.5467C362.881 79.9809 362.502 79.3223 362.263 78.6091C362.024 77.8959 361.929 77.1423 361.984 76.3921V69.0435H363.329V76.332C363.235 77.5318 363.595 78.7231 364.337 79.6701C365.148 80.3755 366.186 80.7639 367.261 80.7639C368.336 80.7639 369.374 80.3755 370.185 79.6701C370.927 78.7231 371.287 77.5318 371.194 76.332V69.0435H372.514V76.3921C372.619 77.9068 372.118 79.4012 371.121 80.5467C370.038 81.461 368.666 81.9625 367.249 81.9625C365.832 81.9625 364.46 81.461 363.377 80.5467Z" fill="#CCD1DC"/>
<path d="M386.019 80.6908V81.8915H376.953V69.0435H385.743V70.2442H378.31V74.8071H384.938V76.0078H378.31V80.8109L386.019 80.6908Z" fill="#CCD1DC"/>
<path d="M400.285 69.0435V81.8675H399.168L390.931 71.469V81.8675H389.574V69.0435H390.691L398.952 79.454V69.0435H400.285Z" fill="#CCD1DC"/>
<path d="M406.973 81.1231C405.973 80.5825 405.142 79.7764 404.571 78.7936C404.004 77.7745 403.707 76.6277 403.707 75.4615C403.707 74.2954 404.004 73.1486 404.571 72.1294C405.129 71.1185 405.962 70.286 406.973 69.7279C408.036 69.1714 409.219 68.8807 410.419 68.8807C411.619 68.8807 412.802 69.1714 413.865 69.7279C414.874 70.2881 415.706 71.1201 416.267 72.1294C416.849 73.1477 417.155 74.3005 417.155 75.4735C417.155 76.6466 416.849 77.7993 416.267 78.8176C415.694 79.7989 414.863 80.6045 413.865 81.1471C412.812 81.718 411.629 82.0075 410.431 81.9876C409.223 81.9984 408.033 81.7008 406.973 81.1231ZM413.181 80.0784C413.982 79.6329 414.646 78.9769 415.102 78.1812C415.559 77.3477 415.799 76.4123 415.799 75.4615C415.799 74.5108 415.559 73.5754 415.102 72.7418C414.649 71.9443 413.984 71.2877 413.181 70.8446C412.331 70.3957 411.385 70.161 410.425 70.161C409.464 70.161 408.518 70.3957 407.669 70.8446C406.861 71.2907 406.192 71.9514 405.736 72.7538C405.271 73.5849 405.027 74.5213 405.027 75.4735C405.027 76.4258 405.271 77.3622 405.736 78.1933C406.196 78.9897 406.864 79.6457 407.669 80.0904C408.518 80.5394 409.464 80.7741 410.425 80.7741C411.385 80.7741 412.331 80.5394 413.181 80.0904V80.0784Z" fill="#CCD1DC"/>
<path d="M421.357 81.5192C420.594 81.2875 419.898 80.8757 419.328 80.3185L419.856 79.2858C420.389 79.7826 421.018 80.1629 421.706 80.4025C422.473 80.6916 423.287 80.8381 424.107 80.8348C425.012 80.8987 425.914 80.6806 426.689 80.2104C426.954 80.0265 427.171 79.7804 427.319 79.4937C427.468 79.207 427.544 78.8883 427.541 78.5654C427.549 78.3439 427.512 78.123 427.432 77.9165C427.351 77.7099 427.229 77.5221 427.073 77.3646C426.733 77.0393 426.322 76.7969 425.872 76.6562C425.255 76.4406 424.625 76.2602 423.987 76.1158C423.204 75.9291 422.434 75.6924 421.682 75.4074C421.11 75.1939 420.602 74.8385 420.205 74.3747C419.772 73.8449 419.554 73.1724 419.592 72.4896C419.584 71.8628 419.764 71.248 420.109 70.7245C420.494 70.1528 421.042 69.7096 421.682 69.4517C422.515 69.1113 423.411 68.9478 424.311 68.9713C425.042 68.9751 425.769 69.0761 426.473 69.2715C427.12 69.4484 427.733 69.7326 428.286 70.1121L427.829 71.1927C427.302 70.8384 426.723 70.5671 426.112 70.3882C425.527 70.22 424.921 70.1311 424.311 70.1241C423.417 70.0592 422.526 70.2913 421.778 70.7845C421.511 70.973 421.294 71.2233 421.146 71.514C420.997 71.8047 420.922 72.1271 420.925 72.4535C420.92 72.6747 420.958 72.8948 421.039 73.1009C421.119 73.3071 421.24 73.4952 421.393 73.6543C421.734 73.9816 422.145 74.2279 422.594 74.3747C423.062 74.5308 423.687 74.711 424.491 74.9151C425.262 75.0926 426.02 75.3212 426.761 75.5995C427.331 75.8096 427.839 76.1608 428.238 76.6202C428.668 77.1421 428.886 77.8062 428.85 78.4813C428.854 79.1092 428.67 79.724 428.322 80.2464C427.917 80.7931 427.362 81.2103 426.725 81.4472C425.881 81.7817 424.978 81.9411 424.071 81.9155C423.151 81.9351 422.234 81.8012 421.357 81.5192Z" fill="#CCD1DC"/>
<path d="M447.74 77.6409H438.938L437.077 81.8675H435.336L442.54 66.0536H444.186L451.39 81.8675H449.625L447.74 77.6409ZM447.139 76.284L443.345 67.7947L439.551 76.284H447.139Z" fill="#CCD1DC"/>
<path d="M454.281 69.0435H455.638V81.8675H454.281V69.0435Z" fill="#CCD1DC"/>
<path d="M468.929 81.8675L465.999 77.7489C465.655 77.7674 465.311 77.7674 464.967 77.7489H461.533V81.8194H460.176V69.0434H464.979C466.366 68.9713 467.733 69.3971 468.833 70.2441C469.296 70.6413 469.661 71.1386 469.903 71.6983C470.144 72.258 470.255 72.8653 470.226 73.4742C470.266 74.3791 469.996 75.2706 469.461 76.0018C468.926 76.733 468.159 77.2602 467.284 77.4967L470.418 81.8915L468.929 81.8675ZM467.849 75.8036C468.177 75.4959 468.439 75.124 468.618 74.7109C468.797 74.2978 468.89 73.8524 468.89 73.4021C468.89 72.9519 468.797 72.5065 468.618 72.0934C468.439 71.6803 468.177 71.3084 467.849 71.0006C467.005 70.3855 465.972 70.0878 464.931 70.1601H461.533V76.5841H464.931C465.965 76.6737 466.997 76.3975 467.849 75.8036Z" fill="#CCD1DC"/>
<path d="M482.847 80.6908V81.8915H473.781V69.0435H482.571V70.2442H475.138V74.8071H481.766V76.0078H475.138V80.8109L482.847 80.6908Z" fill="#CCD1DC"/>
<path d="M487.197 81.5194C486.434 81.2876 485.738 80.8758 485.168 80.3186L485.708 79.286C486.22 79.7968 486.834 80.1938 487.509 80.4507C488.277 80.7403 489.091 80.8868 489.911 80.883C490.815 80.9469 491.717 80.7287 492.493 80.2586C492.761 80.0767 492.98 79.8314 493.131 79.5445C493.282 79.2575 493.36 78.9377 493.357 78.6135C493.365 78.392 493.328 78.1711 493.247 77.9646C493.167 77.7581 493.045 77.5703 492.889 77.4128C492.547 77.0888 492.137 76.8466 491.688 76.7043C491.071 76.4871 490.441 76.3066 489.803 76.164C489.02 75.9772 488.25 75.7406 487.497 75.4555C486.928 75.2379 486.42 74.8833 486.021 74.4229C485.588 73.8931 485.37 73.2205 485.408 72.5377C485.406 71.9117 485.585 71.2985 485.924 70.7726C486.31 70.201 486.858 69.7577 487.497 69.4998C488.335 69.1585 489.235 68.9949 490.139 69.0195C490.866 69.0225 491.589 69.1234 492.288 69.3197C492.938 69.4993 493.555 69.7832 494.114 70.1602L493.657 71.2409C493.125 70.8864 492.542 70.6151 491.928 70.4364C491.346 70.2682 490.745 70.1793 490.139 70.1722C489.245 70.1055 488.354 70.3378 487.606 70.8326C487.337 71.0189 487.118 71.2688 486.969 71.56C486.821 71.8512 486.746 72.1747 486.753 72.5017C486.748 72.7229 486.786 72.943 486.867 73.1491C486.947 73.3552 487.068 73.5433 487.221 73.7024C487.559 74.0339 487.971 74.2808 488.422 74.4229C488.89 74.579 489.527 74.7591 490.319 74.9632C491.094 75.141 491.856 75.3696 492.601 75.6477C493.169 75.8623 493.676 76.2127 494.078 76.6683C494.499 77.1942 494.713 77.8565 494.678 78.5295C494.686 79.1562 494.506 79.7711 494.162 80.2946C493.75 80.8392 493.192 81.2557 492.553 81.4954C491.709 81.8299 490.806 81.9892 489.899 81.9636C488.98 81.9642 488.067 81.8141 487.197 81.5194Z" fill="#CCD1DC"/>
<path d="M201.594 22.6462C199.767 21.6571 198.25 20.1817 197.211 18.3835C196.147 16.5241 195.6 14.4139 195.626 12.2717C195.6 10.1295 196.147 8.01925 197.211 6.15984C198.256 4.35761 199.782 2.88168 201.618 1.89716C203.548 0.850739 205.714 0.317388 207.91 0.348186C209.552 0.335664 211.181 0.63305 212.713 1.22474C214.144 1.77364 215.43 2.64466 216.471 3.77034L214.934 5.34333C214.03 4.42774 212.948 3.70793 211.754 3.22868C210.56 2.74943 209.28 2.52099 207.994 2.55758C206.223 2.53886 204.478 2.97726 202.927 3.83038C201.431 4.64146 200.186 5.84549 199.324 7.31257C198.484 8.82714 198.069 10.5406 198.123 12.2717C198.069 14.0028 198.484 15.7162 199.324 17.2308C200.186 18.6979 201.431 19.9019 202.927 20.713C204.474 21.5641 206.215 22.0025 207.982 21.9858C209.27 22.0367 210.555 21.816 211.753 21.3382C212.951 20.8603 214.034 20.1359 214.934 19.2121L216.507 20.7851C215.459 21.9132 214.17 22.7914 212.737 23.3547C211.206 23.9507 209.576 24.2522 207.934 24.2432C205.718 24.2698 203.533 23.7194 201.594 22.6462Z" fill="#CCD1DC"/>
<path d="M223.643 23.0065C222.245 22.2457 221.082 21.116 220.281 19.7404C219.462 18.3309 219.046 16.7233 219.08 15.0935C219.05 13.4641 219.465 11.8573 220.281 10.4466C221.084 9.07867 222.247 7.95729 223.643 7.20453C225.125 6.42721 226.773 6.02112 228.446 6.02112C230.119 6.02112 231.767 6.42721 233.249 7.20453C234.649 7.95702 235.813 9.08354 236.611 10.4586C237.425 11.8744 237.84 13.4845 237.812 15.1175C237.842 16.7545 237.427 18.3689 236.611 19.7885C235.806 21.1581 234.644 22.283 233.249 23.0425C231.767 23.8198 230.119 24.2259 228.446 24.2259C226.773 24.2259 225.125 23.8198 223.643 23.0425V23.0065ZM232.3 21.5416C233.423 20.9246 234.351 20.0053 234.978 18.8879C235.634 17.7321 235.97 16.4223 235.951 15.0935C235.967 13.765 235.631 12.4559 234.978 11.2991C234.347 10.1844 233.421 9.266 232.3 8.64544C231.118 8.01474 229.798 7.68484 228.458 7.68484C227.118 7.68484 225.798 8.01474 224.615 8.64544C223.488 9.26498 222.553 10.1831 221.914 11.2991C221.251 12.4528 220.911 13.7633 220.929 15.0935C220.908 16.424 221.249 17.7353 221.914 18.8879C222.55 20.0066 223.486 20.9256 224.615 21.5416C225.798 22.1723 227.118 22.5022 228.458 22.5022C229.798 22.5022 231.118 22.1723 232.3 21.5416Z" fill="#CCD1DC"/>
<path d="M242.551 6.15991H244.436V22.4061H254.45V24.0151H242.551V6.15991Z" fill="#CCD1DC"/>
<path d="M270.796 22.4061V24.0151H258.164V6.15991H270.412V7.79294H260.037V14.1569H269.283V15.766H260.037V22.4061H270.796Z" fill="#CCD1DC"/>
<path d="M288.24 15.0935H290.053V21.9138C289.183 22.6644 288.176 23.2393 287.087 23.6069C285.927 23.9984 284.71 24.1971 283.485 24.1952C281.808 24.208 280.155 23.7948 278.682 22.9945C277.283 22.2352 276.117 21.1106 275.308 19.7404C274.492 18.3209 274.077 16.7065 274.107 15.0695C274.079 13.4365 274.494 11.8264 275.308 10.4106C276.111 9.05601 277.269 7.94723 278.658 7.20455C280.132 6.40668 281.784 5.99369 283.461 6.00379C284.743 5.98991 286.016 6.20963 287.219 6.6522C288.319 7.05938 289.307 7.72196 290.101 8.58542L288.9 9.78617C288.192 9.08699 287.349 8.53992 286.422 8.17856C285.495 7.81721 284.503 7.6492 283.509 7.68485C282.144 7.66771 280.797 7.99829 279.594 8.64546C278.451 9.25942 277.499 10.1778 276.845 11.2991C276.179 12.4518 275.834 13.7623 275.848 15.0935C275.831 16.4213 276.176 17.7288 276.845 18.8759C277.498 19.9936 278.445 20.9113 279.582 21.5296C280.92 22.2317 282.421 22.564 283.931 22.4923C285.44 22.4205 286.903 21.9472 288.168 21.1213L288.24 15.0935Z" fill="#CCD1DC"/>
<path d="M295.902 6.15991H297.788V24.0151H295.902V6.15991Z" fill="#CCD1DC"/>
<path d="M307.13 23.0065C305.739 22.2441 304.584 21.1143 303.792 19.7404C302.979 18.3286 302.564 16.7226 302.591 15.0935C302.567 13.4648 302.981 11.8595 303.792 10.4466C304.586 9.08036 305.741 7.95882 307.13 7.20453C308.612 6.42721 310.26 6.02112 311.933 6.02112C313.606 6.02112 315.254 6.42721 316.736 7.20453C318.13 7.96084 319.29 9.08672 320.086 10.4586C320.905 11.8723 321.321 13.4839 321.287 15.1175C321.322 16.7551 320.907 18.371 320.086 19.7885C319.282 21.1547 318.125 22.2788 316.736 23.0425C315.254 23.8198 313.606 24.2259 311.933 24.2259C310.26 24.2259 308.612 23.8198 307.13 23.0425V23.0065ZM315.775 21.5416C316.898 20.9246 317.826 20.0053 318.453 18.8879C319.109 17.7321 319.445 16.4223 319.426 15.0935C319.442 13.765 319.106 12.4559 318.453 11.2991C317.829 10.1876 316.911 9.26952 315.799 8.64544C314.619 8.01477 313.301 7.68483 311.963 7.68483C310.625 7.68483 309.307 8.01477 308.127 8.64544C306.996 9.26422 306.057 10.1823 305.413 11.2991C304.751 12.4528 304.41 13.7633 304.428 15.0935C304.407 16.424 304.748 17.7353 305.413 18.8879C306.053 20.0074 306.993 20.9263 308.127 21.5416C309.307 22.1722 310.625 22.5022 311.963 22.5022C313.301 22.5022 314.619 22.1722 315.799 21.5416H315.775Z" fill="#CCD1DC"/>
<path d="M333.27 6.15991H340.546C342.282 6.12087 344.002 6.50843 345.553 7.28862C346.959 7.99931 348.13 9.09984 348.927 10.4586C349.742 11.8653 350.158 13.468 350.128 15.0935C350.161 16.7194 349.745 18.3229 348.927 19.7285C348.13 21.0872 346.959 22.1878 345.553 22.8984C344.003 23.6828 342.283 24.0745 340.546 24.0392H333.27V6.15991ZM340.474 22.4061C341.899 22.4393 343.311 22.1174 344.581 21.4695C345.719 20.8854 346.669 19.9902 347.318 18.8879C347.982 17.7351 348.318 16.4232 348.291 15.0935C348.316 13.764 347.98 12.4526 347.318 11.2991C346.675 10.2047 345.739 9.3108 344.617 8.71752C343.344 8.07943 341.934 7.76203 340.51 7.79294H335.227V22.4061H340.474Z" fill="#CCD1DC"/>
<path d="M367.527 22.4061V24.0151H354.883V6.15991H367.143V7.79294H356.768V14.1569H366.014V15.766H356.768V22.4061H367.527Z" fill="#CCD1DC"/>
</svg>
