<svg width="316" height="82" viewBox="0 0 316 82" fill="none" xmlns="http://www.w3.org/2000/svg">
<g clip-path="url(#clip0_6759_12853)">
<path d="M46.587 4.8615C46.4669 4.65289 46.2994 4.4744 46.0977 4.33993C45.8959 4.20547 45.6653 4.11866 45.4239 4.08627C45.0199 4.03728 44.6098 4.08185 44.2264 4.21644C43.8429 4.35104 43.4967 4.57192 43.2154 4.8615C42.8743 5.22608 42.6896 5.70635 42.7001 6.20184C41.9402 6.59119 41.2029 7.02173 40.4916 7.49147C40.4916 6.65828 40.4916 5.8251 40.4916 4.99191C40.4916 4.77456 40.6977 4.68762 40.8155 4.55721C41.1242 4.28891 41.3624 3.95114 41.5098 3.57268C41.6572 3.19422 41.7095 2.7863 41.6621 2.38368C41.6179 1.69678 41.3004 1.0547 40.7784 0.596652C40.2565 0.138606 39.5721 -0.098484 38.8736 -0.06321C38.1752 -0.027936 37.519 0.276858 37.0474 0.785086C36.5758 1.29331 36.3268 1.96401 36.3543 2.65175C36.3524 3.07695 36.4544 3.49638 36.6517 3.87466C36.849 4.25295 37.1358 4.57898 37.488 4.82527C37.488 6.41195 37.6058 7.99863 37.6279 9.5853C35.9339 10.8584 34.6318 12.5688 33.8661 14.5265C33.3357 16.1884 33.4033 17.9794 34.0575 19.598C34.9841 21.7426 36.3499 23.6762 38.0696 25.2782C38.1432 26.1476 38.1285 27.0242 38.1653 27.9009C38.3125 33.1222 38.4524 38.3459 38.5849 43.5721C36.1461 45.5377 34.1419 47.9737 32.6956 50.7302C31.7678 52.6256 31.4005 54.7395 31.6355 56.8306C31.4296 59.4501 31.9459 62.0758 33.1299 64.4307C34.5383 66.9153 36.7184 68.8907 39.3505 70.0674C39.4438 73.3277 39.5272 76.5904 39.6008 79.8555C39.8166 79.8665 40.0328 79.8665 40.2486 79.8555C40.2486 76.7329 40.2486 73.6102 40.3002 70.4948C40.8874 70.4614 41.4579 70.29 41.9639 69.9949C42.1001 69.8991 42.2024 69.7638 42.2565 69.6079C42.3106 69.452 42.3139 69.2833 42.2657 69.1255C42.1308 68.7231 41.9041 68.3563 41.6032 68.0532C41.1762 67.7562 40.7051 67.5316 40.3002 67.1911C40.337 60.2575 40.337 53.3239 40.3664 46.3904C43.2098 43.5086 45.0193 39.7919 45.5196 35.8053C45.365 32.1828 44.2608 28.4588 41.7725 25.7056C41.3594 25.2713 40.9219 24.8601 40.4621 24.474L40.4916 10.1432C41.7136 9.35346 43.1271 8.8463 44.2166 7.84648C44.6571 7.923 45.111 7.84343 45.4975 7.62188C46.0361 7.25185 46.4225 6.70452 46.587 6.07868C46.7499 5.68877 46.7499 5.25141 46.587 4.8615ZM35.4415 16.3957C35.4732 15.558 35.6867 14.7367 36.0676 13.9869C36.4485 13.2371 36.9881 12.5762 37.65 12.0486C37.7457 15.3379 37.8487 18.6344 37.9371 21.9237C36.6414 20.337 35.4783 18.475 35.4415 16.3957ZM35.1102 62.5542C34.2362 61.4134 33.6417 60.0894 33.3728 58.6853C33.1244 57.1403 33.326 55.5577 33.9544 54.1209C34.7861 52.2664 35.962 50.5809 37.4218 49.1508C37.8207 48.7244 38.246 48.3227 38.6953 47.9481C38.8794 54.1282 39.0708 60.3227 39.2401 66.4955C37.6674 65.3965 36.2747 64.0674 35.1102 62.5542ZM42.9357 32.4436C43.3364 34.0391 43.306 35.7102 42.8473 37.2906C42.3394 38.9449 41.5038 40.4839 40.3885 41.8187C40.3885 37.0804 40.4032 32.3421 40.4327 27.6039C41.5984 29.0292 42.4508 30.6772 42.9357 32.4436Z" fill="#CCD1DC"/>
<path d="M0.000519242 41.9057C0.000519242 29.4007 0.000519242 16.8957 0.000519242 4.39062H32.149C32.1636 4.60532 32.1636 4.82074 32.149 5.03544C28.38 5.65323 24.7347 6.85642 21.3494 8.60003C18.3876 10.1416 15.6389 12.0505 13.1706 14.2802C10.5802 16.576 8.28137 19.1717 6.3242 22.0107C4.26366 25.0334 2.68012 28.3457 1.62745 31.8351C0.798475 34.5835 0.284864 37.4146 0.096221 40.2756C0.0274256 40.826 -0.00454388 41.3802 0.000519242 41.9347" fill="#CCD1DC"/>
<path d="M46.918 4.39062H78.8603C78.8603 14.8622 78.8603 25.3314 78.8603 35.7981C78.8603 37.8195 78.8603 39.8409 78.8603 41.8695C78.7736 37.922 78.0658 34.0115 76.7622 30.2774C75.4588 26.6301 73.5807 23.2072 71.1968 20.1342C69.2625 17.65 67.0662 15.3745 64.6449 13.3456C61.6653 10.8137 58.3022 8.75548 54.6772 7.24519C52.1902 6.24166 49.5977 5.51269 46.9474 5.07166C46.9474 4.85431 46.9474 4.6442 46.9474 4.42685" fill="#CCD1DC"/>
<path d="M0 51.2011C0 49.0276 0 46.7816 0 44.5791C0.111917 48.8468 0.947946 53.066 2.47352 57.0624C3.83948 60.555 5.73582 63.8235 8.09785 66.7563C12.0765 71.8121 17.2086 75.8751 23.0789 78.6166C27.7422 80.7093 32.7888 81.8481 37.9126 81.9638C36.6317 82.0145 35.3434 81.9638 34.0551 82H0V51.2011Z" fill="#CCD1DC"/>
<path d="M75.7823 58.5911C77.6771 54.2112 78.7161 49.519 78.8447 44.7603C78.8815 50.7664 78.8447 56.7726 78.8447 62.7716V81.9928C67.9789 81.9928 57.1155 81.9928 46.2546 81.9928C44.5172 81.9928 42.7725 81.9928 41.0352 81.9928C46.5703 81.8686 52.0096 80.5452 56.9658 78.1167C61.0243 76.0878 64.7014 73.3927 67.839 70.1471C71.1737 66.807 73.8606 62.8957 75.7675 58.6056" fill="#CCD1DC"/>
<path d="M261.465 56.9175C260.206 54.2295 259.146 51.4474 257.924 48.745L257.593 48.8247C256.672 50.8895 255.796 52.9689 254.884 55.041C254.361 56.1567 254.044 57.5623 252.727 58.0187C253.787 58.1129 254.854 58.1129 255.914 58.0187C255.509 57.7869 254.854 57.7869 254.7 57.2942C254.883 56.4826 255.185 55.7016 255.598 54.9758H259.197C259.565 55.707 259.837 56.4811 260.007 57.2797C259.948 57.7941 259.271 57.7072 258.932 57.9173C260.254 58.1273 261.601 58.1273 262.922 57.9173C262.334 57.7651 261.686 57.5478 261.465 56.9175ZM255.789 54.5193H255.745C256.234 53.2827 256.792 52.0734 257.416 50.8968C257.953 52.0777 258.447 53.2804 258.962 54.5193H255.789Z" fill="#CCD1DC"/>
<path d="M287.055 48.9262C287.901 48.8683 288.748 48.9262 289.594 48.9262C291.494 51.1722 293.275 53.5196 295.278 55.7004C295.278 53.737 295.366 51.7663 295.234 49.8029C295.234 49.2233 294.497 49.1943 294.092 49.1436V48.8248C295.13 48.8248 296.176 48.8248 297.229 48.8683C296.787 49.1943 295.896 49.1363 295.955 49.8753C295.852 52.6719 295.955 55.4758 295.896 58.2796C294.71 57.0718 293.597 55.7969 292.561 54.4615L289.513 50.7955V56.0264C289.476 56.5352 289.536 57.0464 289.69 57.5334C290.11 57.7073 290.537 57.8304 290.964 57.9826C289.792 58.0623 288.616 58.0623 287.445 57.9826C287.813 57.8594 288.181 57.7218 288.542 57.5841C288.902 57.4465 288.844 56.8596 288.895 56.5118C288.895 54.3383 288.939 52.1648 288.895 49.9913C288.542 49.2667 287.673 49.2233 287.092 48.8103" fill="#CCD1DC"/>
<path d="M277.116 72.2481C275.879 69.5095 274.76 66.7274 273.568 63.9742C273.136 64.5279 272.809 65.1538 272.603 65.8217L272.544 65.8652C271.573 68.0895 270.689 70.3862 269.6 72.5597C269.474 72.9799 268.863 72.9871 268.738 73.3566C269.622 73.7116 270.623 73.4798 271.558 73.4798C271.146 73.2769 270.741 73.0958 270.328 72.9292C270.512 72.0593 270.822 71.2199 271.249 70.4369H274.841C275.273 71.2 275.557 72.0352 275.68 72.9002C275.366 73.083 275.061 73.2813 274.767 73.4943H278.448V73.2769C278.154 73.2364 277.875 73.1199 277.641 72.9392C277.407 72.7585 277.226 72.5201 277.116 72.2481ZM271.44 69.9442C271.948 68.7777 272.412 67.5895 272.971 66.4521L273.111 66.3941C273.649 67.5533 274.127 68.7488 274.62 69.9442H271.44Z" fill="#CCD1DC"/>
<path d="M102.503 17.9534C104.17 15.7364 106.553 14.1426 109.262 13.4331C111.97 12.7236 114.843 12.9405 117.41 14.0483C118.146 14.3454 119.118 15.0916 119.906 14.454C120.553 14.0556 120.377 12.7152 121.378 13.005C121.518 15.8234 121.761 18.6272 121.93 21.4456L121.297 21.2934C120.782 19.4619 119.831 17.7778 118.522 16.3812C115.231 13.2514 109.158 13.6281 106.441 17.2941C104.314 20.1559 103.931 23.8654 104.049 27.3141C104.196 29.9513 104.903 32.7407 106.839 34.6824C108.101 35.8561 109.664 36.6698 111.36 37.0361C113.056 37.4024 114.822 37.3075 116.468 36.7617C118.823 35.9937 120.428 34.0086 121.834 32.1176C122.041 32.2408 122.247 32.3567 122.445 32.4871C121.12 34.7765 119.258 36.9501 116.711 37.9789C113.929 39.0241 110.873 39.1286 108.024 38.2759C104.247 37.2326 101.398 33.8854 100.368 30.1976C99.7836 28.1281 99.6721 25.957 100.041 23.8401C100.41 21.7232 101.251 19.7129 102.503 17.9534Z" fill="#CCD1DC"/>
<path d="M149.502 22.9308C149.117 21.0122 148.285 19.2076 147.072 17.6589C145.858 16.1101 144.296 14.8593 142.509 14.0048C140.299 13.0287 137.841 12.7308 135.456 13.1499C133.775 13.4402 132.171 14.068 130.747 14.994C129.322 15.9201 128.106 17.1247 127.174 18.533C125.556 21.0854 124.854 24.098 125.179 27.0895C125.245 28.7643 125.651 30.4093 126.373 31.9274C127.095 33.4454 128.118 34.8059 129.383 35.9285C130.946 37.2753 132.835 38.2044 134.868 38.6269C136.9 39.0493 139.009 38.9509 140.992 38.3411C143.955 37.3828 146.455 35.3839 148.015 32.7262C149.659 29.7325 150.185 26.2666 149.502 22.9308ZM145.402 28.582C145.159 31.1178 144.445 33.8202 142.457 35.6025C139.8 38.16 134.948 38.2904 132.394 35.5155C130.112 33.0377 129.449 29.5673 129.376 26.3287C129.317 23.2134 129.692 19.9096 131.525 17.2796C132.424 15.9269 133.801 14.9509 135.39 14.541C136.536 14.2392 137.737 14.2045 138.899 14.4397C140.06 14.6749 141.15 15.1735 142.082 15.8958C143.584 17.316 144.598 19.1625 144.982 21.1775C145.49 23.6121 145.631 26.1069 145.402 28.582Z" fill="#CCD1DC"/>
<path d="M205.28 37.5514C204.382 37.4724 203.55 37.0575 202.954 36.3922C202.195 35.3131 201.577 34.1448 201.113 32.9145C198.301 26.2708 195.452 19.6415 192.655 12.9833H191.919L183.88 31.4728C183.092 33.2043 182.474 35.0301 181.311 36.5443C180.78 37.2688 179.838 37.4355 178.984 37.6094L178.918 38.3339H185.772C186.135 38.3678 186.502 38.3359 186.854 38.2397C187.141 37.363 185.993 37.6601 185.499 37.4645C184.631 37.3993 183.703 36.6095 184.027 35.6604C184.528 33.7043 185.558 31.922 186.294 30.0382H196.085C196.586 31.2482 197.123 32.4436 197.624 33.6608C197.963 34.5664 198.493 35.5518 198.257 36.5588C197.845 37.5152 196.645 37.5369 195.762 37.6456C195.762 37.8195 195.842 38.1527 195.842 38.3121H205.729C205.692 37.9644 205.773 37.479 205.28 37.5514ZM186.876 28.6544C188.348 25.3362 189.732 21.9817 191.293 18.7141C192.684 22.0324 194.142 25.3289 195.504 28.6617L186.876 28.6544Z" fill="#CCD1DC"/>
<path d="M273.346 13.6136C276.539 12.6313 279.981 12.7852 283.07 14.0483C283.807 14.2077 284.756 14.9177 285.397 14.2294C285.561 13.8268 285.675 13.4058 285.735 12.976H286.368C286.589 15.5988 286.805 18.2191 287.016 20.837C286.805 20.813 286.596 20.7743 286.391 20.721C285.721 19.0837 285.007 17.3738 283.6 16.1856C281.554 14.3236 278.528 13.9324 275.871 14.4613C273.831 14.9069 272.05 16.1216 270.909 17.8447C268.899 20.7428 268.399 24.4233 268.87 27.843C269.184 30.3331 270.205 32.6858 271.814 34.6316C272.704 35.6329 273.815 36.42 275.061 36.9325C276.308 37.445 277.658 37.6691 279.007 37.5876C280.594 37.4709 282.138 37.0213 283.534 36.269V28.5602C283.483 27.7126 283.534 26.691 282.798 26.0752C282.062 25.4593 281.09 25.5173 280.214 25.4448V24.7711H289.983V25.4448C289.588 25.3909 289.185 25.4226 288.804 25.5377C288.422 25.6529 288.071 25.8487 287.775 26.1114C287.237 26.7417 287.259 27.756 287.193 28.6037V36.653C284.811 37.9414 282.164 38.6859 279.45 38.8314C276.736 38.9768 274.023 38.5196 271.513 37.4934C269.494 36.5453 267.774 35.0779 266.534 33.2464C265.294 31.415 264.58 29.2876 264.468 27.0895C264.092 21.3803 267.802 15.4973 273.375 13.6281" fill="#CCD1DC"/>
<path d="M150.745 13.5411H157.54C162.104 19.0329 166.661 24.5319 171.21 30.0382C171.724 30.7159 172.284 31.3574 172.889 31.9582C172.889 27.2199 172.889 22.4816 172.889 17.7433C172.963 16.8125 172.798 15.8783 172.41 15.0264C171.674 14.1207 170.378 14.2367 169.326 14.186V13.5411H178.034V14.186C177.033 14.2222 175.863 14.128 175.09 14.9105C174.449 15.635 174.516 16.6275 174.464 17.5114V38.7541C174.274 38.7743 174.082 38.7455 173.906 38.6706C173.731 38.5956 173.578 38.4771 173.463 38.3266L161.265 23.5104C159.932 21.9889 158.747 20.3443 157.333 18.9025C157.275 23.8944 157.333 28.8935 157.333 33.8854C157.258 34.8737 157.417 35.8657 157.797 36.7834C158.533 37.689 159.785 37.6238 160.83 37.6166C160.897 37.8522 160.919 38.0976 160.896 38.3411H152.136C152.136 38.189 152.092 37.8847 152.085 37.7398C153.049 37.6021 154.161 37.7398 154.941 37.0805C155.721 36.4211 155.611 35.3344 155.677 34.4432V16.8232C155.029 15.962 154.194 15.254 153.233 14.7511C152.439 14.4186 151.586 14.2437 150.723 14.2367V13.5919" fill="#CCD1DC"/>
<path d="M206.725 13.5918H213.829C216.686 19.6922 219.594 25.778 222.435 31.8857C222.568 32.1465 222.877 33.0521 223.171 32.429C226.116 26.15 229.026 19.8709 231.902 13.5918H239.036V14.2366C238.035 14.2728 236.871 14.1786 236.091 14.9611C235.443 15.6856 235.517 16.6782 235.458 17.5549V34.2186C235.394 35.1447 235.569 36.0718 235.966 36.9138C236.702 37.7977 237.99 37.6383 239.043 37.7107C239.043 37.8846 238.969 38.2251 238.947 38.4352C235.406 38.3918 231.865 38.4352 228.317 38.4352C228.313 38.1917 228.338 37.9486 228.391 37.7107C229.385 37.7107 230.562 37.7977 231.335 36.9862C231.961 36.2182 231.858 35.146 231.924 34.2258C231.924 28.7485 231.969 23.2712 231.888 17.8012C228.516 24.6043 225.498 31.5669 222.17 38.4135L221.589 38.399C218.327 31.5089 215.147 24.5826 211.901 17.6853C211.842 23.1336 211.901 28.5529 211.901 34.0375C211.836 34.9967 211.974 35.9588 212.305 36.863C213.042 37.8484 214.367 37.7325 215.449 37.7542C215.454 37.9963 215.442 38.2384 215.412 38.4787H206.784C206.784 38.3121 206.711 37.9643 206.696 37.7977C207.646 37.7977 208.72 37.8846 209.493 37.2325C210.266 36.5805 210.229 35.472 210.266 34.5664V17.9026C210.266 16.9608 210.266 15.874 209.53 15.1495C208.794 14.425 207.653 14.425 206.674 14.3308C206.666 14.1125 206.681 13.8941 206.718 13.6787" fill="#CCD1DC"/>
<path d="M240.623 13.6426H259.977C260.11 15.4539 260.176 17.2651 260.242 19.0692H259.557C259.256 17.9099 259.086 16.5551 258.085 15.7509C257.29 15.2225 256.341 14.9677 255.383 15.0264C252.866 14.9829 250.348 15.0264 247.83 15.0264C247.749 18.2939 247.771 21.547 247.83 24.8435C249.928 24.7928 252.034 24.8797 254.132 24.7928C254.552 24.8109 254.971 24.7466 255.365 24.6035C255.76 24.4605 256.121 24.2416 256.429 23.9596C256.975 23.1514 257.274 22.2059 257.29 21.2354H257.953V29.8788L257.371 29.8426C256.959 29.0094 257.143 27.9372 256.517 27.1764C255.891 26.4157 254.662 26.1911 253.631 26.1621H247.801C247.801 29.2847 247.757 32.4001 247.801 35.5228C247.752 35.8338 247.819 36.1518 247.989 36.4181C248.16 36.6844 248.422 36.8811 248.728 36.9718C250.089 37.101 251.456 37.1397 252.821 37.0877C254.397 37.0877 256.031 37.1891 257.533 36.6675C259.27 35.943 260.271 34.2187 261.17 32.661C261.317 32.2263 261.744 32.161 262.163 32.19C261.427 34.2839 260.735 36.3777 259.955 38.4425H240.608V37.7905C241.646 37.7905 242.817 37.7905 243.619 37.066C244.223 36.4791 244.135 35.559 244.208 34.7983V18.4171C244.285 17.3323 244.139 16.2434 243.781 15.2148C243.045 14.2584 241.683 14.4106 240.594 14.3526V13.7078" fill="#CCD1DC"/>
<path d="M205.796 48.8247H213.393C213.468 49.5806 213.495 50.3404 213.474 51.0997C213.091 50.5853 213.032 49.7883 212.355 49.5492C211.666 49.406 210.96 49.3524 210.257 49.3898C210.205 51.9256 210.198 54.4614 210.257 57.0044C210.257 57.7869 211.184 57.7289 211.729 57.9753C210.345 58.0694 208.956 58.0839 207.57 58.0187V57.8448C208.085 57.7507 208.888 57.7434 208.865 57.0334C208.969 54.4904 208.865 51.9618 208.91 49.4043C208.208 49.3618 207.503 49.4031 206.812 49.5275C206.223 49.7448 206.039 50.3896 205.906 50.9765H205.648C205.7 50.252 205.737 49.5275 205.803 48.8609" fill="#CCD1DC"/>
<path d="M291.303 13.5339H310.665C310.768 15.338 310.863 17.1565 310.937 18.946H310.201C309.899 17.7941 309.752 16.4465 308.729 15.6423C307.862 15.0711 306.821 14.815 305.784 14.9177H298.378C298.312 18.178 298.378 21.4383 298.378 24.6986H304.267C305.173 24.6407 306.211 24.6189 306.903 23.9741C307.595 23.3293 307.742 22.1266 307.86 21.1413H308.537C308.537 23.9741 308.574 26.807 308.537 29.6398L307.875 29.7702C307.806 28.8933 307.59 28.0338 307.234 27.2272C306.594 26.2853 305.364 26.0824 304.289 26.0607H298.4C298.4 29.1978 298.327 32.335 298.4 35.4793C298.339 35.7988 298.407 36.1292 298.59 36.3999C298.773 36.6706 299.056 36.8602 299.379 36.9284C301.072 37.1312 302.795 36.9863 304.532 37.0298C306.056 36.9791 307.749 37.0805 309.023 36.1169C310.281 35.035 311.285 33.6978 311.968 32.1973L312.704 32.1538C312.019 34.2404 311.283 36.3198 310.547 38.3846H291.215C291.222 38.1543 291.208 37.9239 291.171 37.6963C292.209 37.6963 293.379 37.6963 294.197 36.9718C294.822 36.3053 294.697 35.3054 294.763 34.465V17.8448C294.69 16.9029 294.763 15.8669 294.263 15.0264C293.468 14.2077 292.209 14.3019 291.156 14.3019V13.6426" fill="#CCD1DC"/>
<path d="M146.331 45.8688H147.876C147.2 46.7352 146.462 47.5535 145.668 48.3176C145.871 47.4895 146.116 46.6721 146.404 45.8688" fill="#CCD1DC"/>
<path d="M98.6035 49.8391C99.0678 49.4292 99.61 49.1138 100.199 48.9111C100.788 48.7084 101.411 48.6224 102.034 48.6581C102.827 48.7877 103.603 49.0065 104.346 49.3102C104.535 49.0753 104.753 48.8637 104.993 48.6799C105.074 49.7377 105.185 50.8027 105.177 51.875C104.721 51.2446 104.544 50.4259 103.948 49.9115C103.33 49.3784 102.522 49.1087 101.702 49.1617C100.882 49.2147 100.117 49.5861 99.5752 50.1941L99.531 50.2448C98.891 51.2138 98.5815 52.3584 98.6476 53.5123C98.581 54.5382 98.8605 55.5569 99.4427 56.4104C99.9353 57.0013 100.616 57.4119 101.374 57.5762C102.132 57.7404 102.925 57.6488 103.624 57.316C104.397 56.9538 104.802 56.1641 105.487 55.6931C104.581 58.4028 100.687 59.0404 98.6329 57.2073C97.6465 56.2196 97.0938 54.8901 97.0938 53.5051C97.0938 52.1201 97.6465 50.7906 98.6329 49.8029M214.226 48.8248C215.581 48.9407 217.009 48.6147 218.319 48.9842C217.833 49.1436 217.075 48.9842 216.935 49.658C216.78 51.0128 216.935 52.3894 216.861 53.7587C216.817 54.9451 216.847 56.1331 216.95 57.316C217.215 57.8232 217.899 57.7073 218.363 57.9174C216.934 58.1347 215.479 58.1347 214.049 57.9174C214.458 57.8358 214.861 57.7293 215.257 57.5986C215.647 57.0769 215.5 56.3814 215.544 55.7873C215.5 53.7659 215.625 51.7373 215.485 49.7159C215.396 49.1218 214.69 49.1291 214.233 49.0566V48.832M272.538 48.9117C273.9 48.7596 275.276 48.9117 276.646 48.832V49.0639C276.264 49.0512 275.888 49.1633 275.578 49.3826C275.38 50.1513 275.313 50.947 275.379 51.7373C275.424 53.5051 275.313 55.2802 275.431 57.048C275.431 57.8159 276.373 57.7073 276.866 57.9319C275.495 58.0791 274.113 58.1106 272.737 58.026V57.8377C273.079 57.8022 273.416 57.7343 273.745 57.6348C274.165 57.3233 274.025 56.7364 274.084 56.2872C274.084 54.1137 274.135 51.9402 274.04 49.7666C274.04 49.0421 273.09 49.1436 272.567 48.8827" fill="#CCD1DC"/>
<path d="M109.603 48.8682C110.33 48.6274 111.108 48.577 111.86 48.7218C112.613 48.8666 113.314 49.2017 113.895 49.6942C114.396 50.1417 114.803 50.6822 115.092 51.2845C115.381 51.8869 115.547 52.5394 115.58 53.2048C115.613 53.8702 115.512 54.5355 115.284 55.1626C115.055 55.7897 114.703 56.3663 114.248 56.8596C114.145 56.9658 114.042 57.0673 113.939 57.1639C113.176 57.8316 112.205 58.2235 111.185 58.2749C110.165 58.3262 109.158 58.034 108.33 57.4464C106.342 56.0481 105.908 53.1573 106.968 51.078C107.536 50.0554 108.474 49.2798 109.596 48.9045M109.817 49.4116C108.042 50.3317 107.903 52.5922 108.042 54.3383C108.049 54.973 108.211 55.5968 108.515 56.1568C108.819 56.7168 109.255 57.1964 109.787 57.5551C110.316 57.7995 110.909 57.875 111.483 57.7711C112.057 57.6671 112.584 57.3889 112.989 56.9755C113.717 56.082 114.074 54.9512 113.991 53.8094C114.114 52.4923 113.777 51.1731 113.034 50.0709C112.64 49.6392 112.117 49.3415 111.54 49.2205C110.963 49.0994 110.363 49.1613 109.824 49.3971M133.941 48.8827H141.582C141.582 49.6072 141.663 50.3825 141.634 51.136C141.236 50.6723 141.244 49.926 140.64 49.6435C139.915 49.4318 139.156 49.3532 138.402 49.4116V56.5118C138.454 56.8523 138.402 57.3015 138.674 57.5696C139.072 57.7 139.462 57.8377 139.852 57.9898C138.49 58.0768 137.121 57.9898 135.759 58.0333V57.8304C136.274 57.7652 137.084 57.6928 137.047 56.99C137.114 54.4542 137.099 51.9184 137.047 49.3681C136.334 49.3353 135.618 49.3937 134.92 49.542C134.302 49.8246 134.265 50.5926 133.904 51.107C133.876 50.3434 133.895 49.5787 133.963 48.8175M167.996 48.861C168.753 48.5875 169.572 48.5233 170.364 48.6753C171.155 48.8272 171.889 49.1896 172.487 49.7232C172.978 50.1816 173.373 50.7309 173.648 51.3395C173.924 51.9482 174.075 52.6043 174.093 53.2704C174.11 53.9366 173.995 54.5996 173.752 55.2217C173.509 55.8437 173.144 56.4126 172.678 56.8958C172.54 57.036 172.395 57.169 172.244 57.2943C171.344 57.9868 170.211 58.3167 169.074 58.2171C167.936 58.1176 166.88 57.596 166.119 56.7581C163.91 54.3745 164.786 49.9188 167.996 48.861ZM168.452 49.2812C166.98 49.8825 166.546 51.5852 166.509 52.9979C166.362 54.3749 166.729 55.7573 167.54 56.8886C167.775 57.1451 168.059 57.3536 168.376 57.5019C168.694 57.6503 169.037 57.7356 169.388 57.7531C169.739 57.7706 170.09 57.7199 170.42 57.6039C170.751 57.4879 171.056 57.3088 171.316 57.0769C171.346 57.0437 171.378 57.0123 171.412 56.9827C172.193 56.0833 172.582 54.9169 172.494 53.7369C172.494 52.4328 172.376 50.9983 171.5 49.9622C171.119 49.5623 170.625 49.2837 170.082 49.1623C169.539 49.041 168.971 49.0824 168.452 49.2812ZM184.309 48.8175H186.938C188.049 51.136 189.102 53.4761 190.236 55.7728L190.471 55.6641C191.583 53.4037 192.591 51.0997 193.666 48.8175C194.579 48.8175 195.492 48.8175 196.397 48.8175C196.044 49.0928 195.543 49.0566 195.183 49.3174C195.02 49.7526 194.955 50.2172 194.991 50.6795V56.2293C194.946 56.6771 195.036 57.128 195.249 57.5261C195.654 57.6493 196.051 57.7942 196.456 57.9391C195.044 58.0333 193.628 58.0333 192.216 57.9391C192.591 57.8232 192.952 57.7073 193.32 57.5696C193.688 57.4319 193.622 56.8451 193.659 56.5263V50.4477C192.503 52.7589 191.45 55.1352 190.361 57.4754C190.213 57.6783 190.191 58.1999 189.823 57.9826C188.594 55.4903 187.534 52.911 186.246 50.4622C186.246 52.6792 186.172 54.8962 186.246 57.1132C186.246 57.8377 187.18 57.7435 187.718 57.9463C186.826 58.0766 185.924 58.1203 185.024 58.0768C184.689 58.1083 184.354 58.0265 184.074 57.8449C184.604 57.7652 185.605 57.8449 185.546 57.0697C185.671 55.2222 185.546 53.3674 185.612 51.5127C185.688 50.8051 185.603 50.0898 185.362 49.4189C185.05 49.2109 184.686 49.0929 184.309 49.0783V48.8537M201.241 49.3319C201.374 49.0711 201.433 48.6074 201.838 48.7958C203.015 51.4475 204.046 54.1572 205.283 56.7654C205.511 57.4247 206.188 57.7217 206.755 58.0043C205.446 58.0695 204.134 58.0695 202.824 58.0043C203.155 57.7652 203.752 57.7145 203.869 57.2798C203.702 56.4665 203.412 55.6826 203.008 54.9541H199.504C198.901 55.6667 198.582 56.5704 198.606 57.4971C198.981 57.6493 199.342 57.8304 199.739 57.9681C198.666 58.0441 197.588 58.0441 196.515 57.9681C197.008 57.6493 197.634 57.4319 197.855 56.8378C199.018 54.3455 200.063 51.7663 201.175 49.2667M201.175 50.7157C200.66 51.9402 200.122 53.1646 199.578 54.3818H202.795C202.242 53.1646 201.793 51.8967 201.175 50.7157ZM232.447 48.832C233.51 48.494 234.662 48.555 235.681 49.0031C236.701 49.4513 237.515 50.2549 237.969 51.2591C238.389 52.1861 238.526 53.2136 238.363 54.216C238.199 55.2183 237.742 56.152 237.048 56.9031C236.547 57.4217 235.926 57.8131 235.237 58.044C234.549 58.2749 233.814 58.3383 233.095 58.2289C232.07 58.0635 231.133 57.5606 230.436 56.8025C229.739 56.0444 229.324 55.076 229.26 54.0557C229.096 52.9632 229.323 51.8487 229.902 50.9026C230.481 49.9565 231.375 49.2374 232.433 48.8682M232.69 49.3537C232.197 49.6234 231.779 50.0082 231.472 50.4744C231.165 50.9406 230.979 51.4737 230.931 52.0271C230.681 53.3677 230.805 54.7501 231.292 56.0264C231.452 56.4696 231.728 56.8632 232.093 57.1673C232.457 57.4714 232.897 57.6752 233.368 57.758C233.817 57.8324 234.278 57.7974 234.711 57.6559C235.143 57.5145 235.534 57.2709 235.849 56.9465C236.71 56.0409 236.842 54.715 236.842 53.5341C236.923 52.3069 236.592 51.0875 235.9 50.0637C235.516 49.6302 235.002 49.3269 234.433 49.1968C233.863 49.0668 233.266 49.1166 232.727 49.3392M242.408 48.8248H244.867C246.803 51.0635 248.547 53.4254 250.579 55.6134C250.631 54.0702 250.579 52.5198 250.579 50.9838C250.61 50.4389 250.548 49.8927 250.395 49.3681C250.073 49.1435 249.685 49.029 249.291 49.0421V48.8248H252.508V49.0204C251.993 49.0783 251.22 49.1146 251.22 49.8101C251.102 52.6284 251.22 55.454 251.146 58.2724C248.849 55.9684 247.038 53.2008 244.771 50.9041V56.28C244.815 56.7147 244.697 57.2653 245.073 57.6058C245.47 57.7435 245.89 57.8014 246.295 57.9319C245.099 58.0634 243.894 58.0828 242.695 57.9898C243.188 57.729 244.108 57.7652 244.101 57.0407C244.241 54.8672 244.101 52.6502 244.16 50.4622C244.197 49.5565 243.166 49.1291 242.4 49.0131V48.7885M265.59 49.3464C266.26 48.9118 267.034 48.6553 267.835 48.602C268.636 48.5487 269.437 48.7003 270.161 49.0421C270.677 49.3899 271.074 48.919 271.435 48.6219C271.486 49.6797 271.619 50.7302 271.619 51.788C271.14 51.1722 270.978 50.339 270.367 49.8391C270.067 49.5745 269.716 49.3707 269.336 49.2395C268.955 49.1083 268.552 49.0522 268.149 49.0744C267.746 49.0966 267.352 49.1967 266.989 49.3689C266.625 49.5411 266.3 49.7822 266.031 50.0782C265.923 50.1981 265.824 50.3265 265.737 50.4622C265.276 51.3204 265.024 52.2721 264.999 53.2426C264.975 54.213 265.18 55.1758 265.597 56.0554C266.067 56.786 266.804 57.3113 267.656 57.523C268.508 57.7346 269.41 57.6165 270.176 57.1929C270.853 56.8089 271.214 56.0844 271.854 55.6714C270.942 58.381 267.033 59.0114 264.993 57.1711C262.667 55.157 263.006 51.02 265.582 49.3464M280.622 48.8465C281.381 48.5702 282.203 48.5044 282.998 48.6565C283.792 48.8085 284.529 49.1725 285.128 49.7087C285.618 50.1681 286.011 50.7181 286.286 51.3273C286.56 51.9365 286.71 52.5929 286.726 53.259C286.742 53.9251 286.625 54.5878 286.381 55.2094C286.137 55.8309 285.771 56.399 285.304 56.8813C285.216 56.9755 285.113 57.0697 285.017 57.1566C284.276 57.795 283.342 58.1761 282.359 58.2416C281.376 58.307 280.399 58.0531 279.577 57.5189C277.589 56.193 277.089 53.3747 278.038 51.2953C278.562 50.2002 279.5 49.35 280.652 48.9262M281.101 49.3464C279.57 49.9985 279.165 51.8315 279.157 53.3167C279.157 54.6716 279.385 56.2148 280.423 57.1784C280.943 57.6138 281.611 57.8406 282.293 57.8138C282.975 57.7869 283.621 57.5083 284.104 57.0335C284.98 56.2003 285.142 54.9251 285.164 53.7877C285.164 52.4763 285.061 51.0345 284.156 49.9985C283.774 49.6047 283.281 49.3322 282.741 49.216C282.2 49.0999 281.637 49.1453 281.123 49.3464M186.378 65.2059C186.927 64.7752 187.567 64.4715 188.252 64.3172C188.936 64.163 189.647 64.1621 190.331 64.3148C190.864 64.5178 191.413 64.6778 191.973 64.793C192.125 64.5258 192.316 64.2818 192.54 64.0684C192.665 65.1797 192.709 66.2983 192.672 67.4157C192.428 66.7735 192.102 66.1648 191.701 65.6044C191.152 65.0127 190.387 64.6597 189.574 64.623C188.761 64.5863 187.966 64.869 187.365 65.4088C187.234 65.5218 187.115 65.6481 187.011 65.7855C186.327 66.8671 186.025 68.1402 186.15 69.4081C186.126 70.4608 186.513 71.4824 187.232 72.2627C187.7 72.6757 188.27 72.9602 188.885 73.0874C189.501 73.2146 190.139 73.18 190.736 72.9872C191.715 72.6974 192.208 71.7627 192.996 71.1759C192.128 73.8131 188.425 74.5304 186.327 72.8785C183.912 71.031 184.022 67.01 186.327 65.1407M213.013 64.7567C213.167 64.5539 213.16 63.9815 213.543 64.1771C214.765 66.8868 215.825 69.6617 217.076 72.3641C217.29 72.9582 217.93 73.1466 218.372 73.5305C217.165 73.574 215.957 73.5305 214.75 73.5305V73.3204C215.055 73.2475 215.348 73.1303 215.619 72.9727C215.722 72.067 215.103 71.2773 214.824 70.4586H211.194C210.837 71.1511 210.558 71.8799 210.362 72.6322C210.267 73.2045 210.981 73.1683 211.349 73.3132V73.545H208.485C208.839 73.1393 209.442 72.9799 209.634 72.4365C210.834 69.9152 211.886 67.365 213.005 64.7712M213.005 66.3217C212.468 67.5389 211.908 68.7415 211.43 69.9442H214.617C214.073 68.727 213.638 67.4736 213.005 66.3217ZM221.839 69.6472C221.523 67.0897 223.51 64.322 226.212 64.1699C227.291 64.1134 228.368 64.2992 229.363 64.7133C229.65 64.5901 229.746 64.2641 229.952 64.0467C230.105 65.0903 230.174 66.1441 230.158 67.1983C229.857 66.5572 229.479 65.954 229.032 65.4015C228.377 64.8416 227.524 64.5599 226.658 64.6183C225.793 64.6767 224.987 65.0704 224.416 65.7131C224.312 65.8282 224.219 65.9518 224.136 66.0826C223.575 67.0392 223.32 68.1404 223.406 69.2418C223.491 70.3432 223.912 71.3936 224.615 72.2554C225.164 72.8204 225.895 73.181 226.684 73.2761C227.473 73.3711 228.271 73.1948 228.943 72.7771C228.877 71.6468 228.987 70.5166 228.87 69.3863C228.767 68.8357 228.133 68.8647 227.692 68.7053C228.156 68.372 228.781 68.5821 229.319 68.5314C230.021 68.4649 230.73 68.5114 231.417 68.6691C231.027 68.8502 230.357 68.8357 230.327 69.3936C230.18 70.589 230.327 71.799 230.232 73.0161C229.387 73.4364 228.465 73.6862 227.521 73.7509C226.576 73.8156 225.628 73.6939 224.732 73.3929C223.949 73.0899 223.265 72.5811 222.754 71.9219C222.244 71.2627 221.928 70.4784 221.839 69.6544M148.038 64.3872C148.951 64.3872 150.004 64.1771 150.843 64.4887C151.992 66.8143 153.052 69.1762 154.171 71.5092C155.371 69.2052 156.379 66.7998 157.498 64.4742C158.423 64.2642 159.385 64.2642 160.31 64.4742C159.795 64.6625 158.897 64.5828 158.904 65.3508C158.809 67.7055 158.838 70.0819 158.904 72.4438C158.823 73.1683 159.567 73.3422 160.148 73.3422C160.141 73.4169 160.141 73.4921 160.148 73.5668H156.35V73.3422C156.814 73.2987 157.454 73.1683 157.454 72.6177C157.55 70.3789 157.454 68.1329 157.454 65.8942C156.18 68.488 155.069 71.1614 153.773 73.7189C152.478 71.1324 151.329 68.4735 150.092 65.8725V71.9656C150.054 72.3554 150.131 72.7478 150.313 73.0958C150.622 73.3422 151.049 73.2915 151.417 73.3712V73.5813H148.208V73.3567C148.583 73.2915 149.01 73.3567 149.297 73.0379C149.429 72.6136 149.479 72.1688 149.445 71.7265V66.1478C149.393 65.7203 149.445 65.177 149.113 64.8727C148.738 64.7133 148.377 64.5756 148.002 64.4017M239.809 64.4742C240.64 64.3294 241.488 64.3001 242.327 64.3872C242.651 64.4524 242.783 64.7857 242.997 64.9886C244.712 67.0824 246.449 69.1617 248.15 71.2483V66.1768C248.178 65.7509 248.115 65.324 247.966 64.9234C247.612 64.6336 247.097 64.6625 246.692 64.4959C247.867 64.3523 249.055 64.3352 250.233 64.4452C249.85 64.5539 249.474 64.6845 249.107 64.8364C248.724 65.0538 248.812 65.5609 248.776 65.916V73.8856C247.688 72.7938 246.672 71.6347 245.735 70.4152C244.609 69.0748 243.527 67.7345 242.386 66.4086C242.386 68.5025 242.319 70.6108 242.43 72.7046C242.43 73.3059 243.122 73.3856 243.586 73.4291V73.661C242.54 73.661 241.488 73.661 240.442 73.6175C240.847 73.277 241.701 73.3929 241.723 72.7191C241.841 70.5456 241.723 68.372 241.775 66.1985C241.922 65.119 240.626 64.7495 239.809 64.5466M259.067 64.5466C260.143 64.4066 261.23 64.3678 262.314 64.4307C263.447 64.4959 264.765 64.351 265.7 65.1552C266.139 65.5112 266.422 66.0203 266.489 66.5764C266.557 67.1326 266.403 67.6927 266.061 68.1402C265.581 68.6563 264.968 69.0344 264.287 69.2342C265.094 70.466 265.981 71.6447 266.944 72.7626C267.283 73.19 267.923 73.1176 268.277 73.4871C267.629 73.8276 266.723 73.5885 265.973 73.6102C264.986 72.1612 263.896 70.7919 262.895 69.3646H261.894C261.841 70.556 261.873 71.7495 261.99 72.9364C262.189 73.4726 262.903 73.3712 263.359 73.5088C262.056 73.8783 260.635 73.5668 259.281 73.6682V73.4436C259.84 73.4436 260.598 73.2407 260.525 72.5452C260.584 70.1906 260.613 67.8287 260.525 65.474C260.525 64.6915 259.612 64.7495 259.089 64.5684M261.894 65.0755V68.9589C262.73 69.024 263.564 68.8206 264.272 68.3793C264.473 68.2122 264.638 68.0078 264.758 67.7777C264.878 67.5476 264.951 67.2964 264.972 67.0385C264.993 66.7807 264.963 66.5212 264.882 66.2751C264.801 66.029 264.671 65.8011 264.5 65.6044C264.432 65.5202 264.355 65.4425 264.272 65.3726C263.609 64.8364 262.704 65.0103 261.916 65.0755" fill="#CCD1DC"/>
<path d="M116.315 48.8972C117.218 48.8537 118.124 48.8537 119.032 48.8972C120.166 51.2736 121.24 53.7007 122.44 56.0336C123.515 53.6282 124.649 51.2663 125.746 48.8755H128.374V49.0928C128.006 49.1653 127.571 49.0928 127.284 49.3899C127.07 49.9107 126.991 50.4761 127.056 51.0345C127.056 53.0486 126.997 55.07 127.108 57.0914C127.108 57.8159 128.028 57.8159 128.528 58.026C127.101 58.1433 125.666 58.1191 124.244 57.9536C124.781 57.7724 125.716 57.8087 125.716 57.0407C125.79 54.8671 125.716 52.6936 125.716 50.5201C124.435 52.9762 123.368 55.5482 122.146 58.0405H121.888C120.666 55.5409 119.584 52.9689 118.303 50.4911V56.5915C118.34 56.9537 118.303 57.4247 118.627 57.671C118.951 57.9173 119.415 57.8521 119.805 57.9825C118.619 58.1166 117.421 58.1166 116.234 57.9825C116.654 57.7797 117.213 57.7797 117.537 57.4392C117.687 56.5561 117.734 55.6592 117.677 54.7657C117.633 53.1138 117.766 51.4402 117.611 49.7883C117.552 49.129 116.713 49.2377 116.315 48.8755M174.73 48.8755C176.026 48.7885 177.329 48.832 178.625 48.832C179.618 48.832 180.759 48.8972 181.496 49.6724C181.914 50.0751 182.153 50.6249 182.16 51.2009C182.167 51.7769 181.941 52.332 181.532 52.7443L181.496 52.7806C181.028 53.1572 180.483 53.4292 179.898 53.5775C180.701 54.7005 181.481 55.838 182.372 56.8958C182.571 57.1362 182.816 57.335 183.094 57.4806C183.373 57.6262 183.678 57.7155 183.991 57.7434C184.012 57.8613 184.042 57.9776 184.08 58.0912C183.292 58.0188 182.504 58.0912 181.716 58.0188C180.539 56.6494 179.611 55.1207 178.448 53.6717L177.528 53.7079C177.484 54.8895 177.513 56.0727 177.616 57.2508C177.793 57.7869 178.463 57.6782 178.904 57.8231V57.9825C177.516 58.0599 176.123 58.0357 174.738 57.9101C175.201 57.6855 175.945 57.8087 176.151 57.1856C176.313 55.8597 176.188 54.5121 176.225 53.179C176.276 51.927 176.239 50.673 176.114 49.4261C175.82 48.9624 175.172 49.1073 174.767 48.803M177.542 49.3681V53.266C178.387 53.3247 179.229 53.1138 179.942 52.6646C180.338 52.3203 180.579 51.8356 180.612 51.3168C180.645 50.7979 180.468 50.2874 180.119 49.897C180.011 49.7777 179.89 49.6707 179.758 49.5782C179.096 49.1363 178.286 49.3102 177.55 49.3681M218.775 48.7813C219.99 48.7306 221.197 48.7813 222.404 48.745V48.9769L221.462 49.3609C221.727 50.5046 222.14 51.6101 222.692 52.6501C223.185 53.7297 223.634 54.8237 224.164 55.9177C224.812 55.1932 224.988 54.0195 225.46 53.1138C225.864 51.9039 226.667 50.7664 226.733 49.4913C226.417 49.216 225.997 49.0783 225.703 48.7668C226.684 48.7281 227.678 48.7281 228.684 48.7668C227.329 49.4913 227.013 50.991 226.476 52.2589C225.629 54.2586 224.826 56.2799 223.95 58.2723C223.507 57.6297 223.151 56.9332 222.89 56.2002C221.933 54.0702 221.028 51.9111 220.041 49.7956C219.843 49.2377 219.195 49.1363 218.805 48.7668" fill="#CCD1DC"/>
<path d="M128.902 48.919C130.272 48.7958 131.641 48.919 133.01 48.8538V49.0856C132.635 49.1436 132.2 49.0856 131.906 49.3971C131.707 49.9995 131.634 50.6355 131.692 51.2664C131.737 53.2008 131.634 55.1497 131.744 57.0625C131.744 57.787 132.694 57.6928 133.216 57.9826C131.783 58.084 130.343 58.084 128.91 57.9826C129.447 57.758 130.382 57.7797 130.382 57.0117C130.434 54.6064 130.441 52.2082 130.382 49.8101C130.382 49.0856 129.432 49.1943 128.91 48.8972" fill="#CCD1DC"/>
<path d="M142.315 48.861H149.537C149.576 49.5855 149.576 50.31 149.537 51.0345C149.154 50.4984 149.124 49.6362 148.381 49.4479C147.239 49.361 146.094 49.3392 144.95 49.3827V53.0052C145.879 53.0414 146.809 53.0124 147.733 52.9183C148.329 52.8023 148.344 52.0778 148.587 51.6576C148.79 52.7814 148.83 53.928 148.705 55.0628C148.44 54.6281 148.41 54.0485 148.013 53.7225C147.048 53.3602 145.981 53.5703 144.972 53.5269C145.061 54.8237 144.759 56.2438 145.149 57.4754C146.229 57.642 147.33 57.642 148.41 57.4754C149.353 57.2653 149.595 56.2075 150.302 55.6859C150.119 56.5015 149.829 57.2905 149.441 58.0333C147.969 58.1058 146.496 58.0333 145.068 58.0333C144.096 58.0781 143.123 58.032 142.16 57.8957C142.617 57.6783 143.338 57.816 143.566 57.2653C143.736 55.9322 143.61 54.5774 143.647 53.2371C143.691 51.9782 143.662 50.7179 143.559 49.4624C143.309 49.0132 142.749 49.1146 142.322 49.0277V48.8103M160.8 64.2931C163.2 64.3293 165.607 64.2424 168.007 64.351C168.007 65.0755 168.073 65.7493 168.007 66.4521C167.558 65.9594 167.602 65.0031 166.814 64.8944C165.682 64.7907 164.543 64.7592 163.406 64.8002V68.4228C164.375 68.4759 165.346 68.4346 166.306 68.2996C166.866 68.1185 166.829 67.423 167.043 66.9882C167.337 67.4592 167.168 68.046 167.219 68.5749C167.271 69.1038 167.359 69.8356 167.043 70.3862C166.829 69.9298 166.866 69.2415 166.306 69.0314C165.351 68.8997 164.384 68.8657 163.421 68.9299C163.421 70.1471 163.362 71.3788 163.421 72.6032L163.708 72.9365C164.745 73.0234 165.788 73.0089 166.822 72.893C167.786 72.6756 167.985 71.5816 168.736 71.0962C168.522 71.9077 168.206 72.6974 167.933 73.4871C165.482 73.4871 163.038 73.5596 160.572 73.4364C161.102 73.1176 162.118 73.2118 162.044 72.3569C162.044 70.0095 162.096 67.6548 162.044 65.3074C162.11 64.5829 161.308 64.5394 160.763 64.4959L160.8 64.2931Z" fill="#CCD1DC"/>
<path d="M154.057 48.8248H156.538C158.466 51.0635 160.218 53.4399 162.243 55.6062C162.243 53.6355 162.361 51.6504 162.191 49.687C162.147 49.1001 161.455 49.1074 160.984 49.0494V48.8248C162.103 48.8248 163.193 48.7813 164.326 48.89C163.862 49.1726 163.016 49.0349 162.92 49.7015C162.773 52.5995 162.92 55.4323 162.839 58.2941C160.542 55.9902 158.731 53.2226 156.457 50.9186C156.457 52.9473 156.405 54.9904 156.457 57.019C156.457 57.8015 157.406 57.7435 157.929 57.9898C156.733 58.1205 155.524 58.0912 154.336 57.9029C154.844 57.729 155.75 57.8015 155.75 57.0625C155.868 54.8889 155.75 52.6647 155.801 50.4622C155.801 49.5566 154.793 49.1436 154.027 49.0132V48.7886M135.91 64.4815C138.332 64.2134 140.798 64.438 143.272 64.3655C143.331 65.09 143.36 65.8145 143.345 66.5391C142.904 66.0899 142.941 65.2567 142.3 65.0321C141.119 64.8812 139.927 64.8352 138.737 64.8944V68.517C139.665 68.552 140.595 68.5254 141.52 68.4373C142.153 68.2706 142.138 67.4954 142.447 67.039C142.447 68.1765 142.698 69.4009 142.344 70.5021C142.146 70.0167 142.168 69.3139 141.608 69.1183C140.671 69.0002 139.725 68.9614 138.781 69.0024C138.728 70.2899 138.753 71.5794 138.855 72.864C139.709 73.2842 140.842 73.0089 141.799 73.0452C142.977 73.0452 143.375 71.8135 144.096 71.1252C143.895 71.9681 143.626 72.7941 143.294 73.5958H136.19V73.3712C136.578 73.3502 136.952 73.2249 137.272 73.0089C137.398 72.502 137.448 71.9796 137.419 71.4585V65.9305C137.439 65.5674 137.37 65.205 137.221 64.8727C136.815 64.7093 136.393 64.5879 135.962 64.5104M169.317 64.4815C170.312 64.3451 171.318 64.3063 172.321 64.3655C173.86 64.3655 175.545 64.2786 176.929 65.09C179.675 66.8434 179.484 71.6106 176.488 73.0017C174.279 73.9653 171.828 73.4364 169.516 73.5741V73.3495C169.892 73.2842 170.319 73.306 170.591 72.9944C170.74 72.5736 170.802 72.1279 170.775 71.6831V66.3797C170.812 65.8569 170.731 65.3325 170.539 64.8437C170.146 64.6821 169.736 64.5607 169.317 64.4815ZM172.144 65.0321C172.078 67.6621 172.144 70.2993 172.144 72.922C173.676 73.3205 175.531 73.0814 176.495 71.7338C177.835 69.8646 177.644 66.7564 175.597 65.4378C174.588 64.764 173.33 64.8654 172.181 65.0321M231.811 64.4742C234.24 64.2206 236.706 64.4307 239.172 64.3728C239.241 65.0952 239.261 65.8213 239.231 66.5463C238.826 66.0609 238.826 65.1915 238.112 65.0031C236.959 64.8801 235.796 64.851 234.638 64.9162V68.5387C235.509 68.5665 236.382 68.5471 237.251 68.4807C237.987 68.4228 238.024 67.5679 238.355 67.0317C238.429 68.185 238.429 69.3416 238.355 70.4949C238.024 70.0384 238.076 69.2922 237.472 69.0459C236.533 68.9422 235.588 68.9107 234.645 68.9517C234.748 70.263 234.402 71.6903 234.829 72.9365C235.854 73.0524 236.889 73.0524 237.914 72.9365C238.952 72.7988 239.29 71.6976 239.945 71.0528C239.767 71.8968 239.506 72.7218 239.165 73.5161H232.061V73.2915C232.441 73.2752 232.809 73.1602 233.128 72.9582C233.275 72.5319 233.335 72.0814 233.305 71.6324V66.0971C233.328 65.6514 233.26 65.2056 233.106 64.7857C232.689 64.6431 232.264 64.5245 231.833 64.4307M278.948 64.3728C280.456 64.2931 281.967 64.2931 283.475 64.3728C283.041 64.5249 282.599 64.6336 282.165 64.7857C281.73 64.9379 281.811 65.6479 281.76 66.0971V71.8932C281.804 72.241 281.701 72.8423 282.223 72.864C283.229 72.9933 284.249 72.9737 285.249 72.8061C286.221 72.567 286.56 71.5527 287.075 70.8209C286.913 71.7495 286.648 72.658 286.287 73.5306H279.176V73.306C279.728 73.306 280.442 73.0886 280.376 72.4148C280.42 70.0529 280.449 67.6838 280.376 65.3291C280.376 64.6046 279.456 64.6046 278.948 64.3655" fill="#CCD1DC"/>
<path d="M298.773 56.9176C300.106 54.1427 301.173 51.2519 302.535 48.4988C303.86 51.2809 304.913 54.1934 306.216 56.9828C306.444 57.5841 307.122 57.7073 307.615 58.0406C306.303 58.113 304.988 58.113 303.676 58.0406C304.03 57.816 304.611 57.7653 304.744 57.3161C304.569 56.5027 304.279 55.7174 303.882 54.9831H300.415C299.959 55.5955 299.636 56.2933 299.465 57.0335C299.274 57.758 300.202 57.6711 300.57 58.0406C299.525 58.1058 298.478 58.1058 297.434 58.0406C297.927 57.7435 298.53 57.4972 298.751 56.9321M300.503 54.4905H303.72C303.19 53.266 302.668 52.0344 302.152 50.81C301.549 52.0199 301.063 53.2661 300.503 54.4977" fill="#CCD1DC"/>
<path d="M307.976 48.861H312.201V49.0783C311.743 49.0788 311.292 49.1935 310.891 49.4116C310.671 49.8255 310.581 50.2948 310.633 50.7592V56.5553C310.633 56.9392 310.751 57.5044 311.252 57.4464C312.264 57.5479 313.285 57.504 314.285 57.316C315.175 57.0334 315.352 56.0191 316 55.483C315.779 56.3379 315.47 57.1783 315.264 58.0405C312.783 58.1408 310.299 58.1142 307.821 57.9608C308.351 57.7507 309.293 57.8449 309.293 57.0552C309.396 55.2946 309.293 53.534 309.338 51.7735C309.381 51.0274 309.339 50.2789 309.212 49.542C309.028 49.0711 308.41 49.158 308.005 49.0711V48.861M193.612 64.4814C195.054 64.3003 196.513 64.3003 197.955 64.4814C197.528 64.648 196.939 64.5828 196.615 64.9451C196.439 65.668 196.38 66.4137 196.439 67.1548C196.483 68.9951 196.365 70.8426 196.498 72.6828C196.579 73.2842 197.3 73.2769 197.764 73.3494V73.5812C196.409 73.4653 194.974 73.7913 193.678 73.4218C194.12 73.2697 194.716 73.3639 195.018 72.9292C195.143 71.7622 195.18 70.5877 195.128 69.4153C195.092 67.9663 195.209 66.5607 195.062 65.1479C194.834 64.5683 194.098 64.677 193.59 64.4597" fill="#CCD1DC"/>
<path d="M125.656 64.4814C126.748 64.3571 127.849 64.3231 128.947 64.38C130.419 64.4162 132.002 64.38 133.29 65.1045C136.029 66.8578 135.823 71.6251 132.834 73.0016C130.625 73.9725 128.211 73.4291 125.907 73.5813V73.3494C126.466 73.3494 127.151 73.1103 127.084 72.451C127.129 70.0964 127.151 67.7345 127.084 65.3871C127.136 64.6118 126.172 64.6625 125.664 64.4597M128.498 65.0248C128.439 67.662 128.498 70.292 128.498 72.9292C129.581 73.2209 130.735 73.1233 131.752 72.6539C133.96 71.3932 134.225 68.104 132.79 66.184C131.811 64.8871 130.022 64.735 128.52 65.0248" fill="#CCD1DC"/>
<path d="M179.662 64.351C181.046 64.351 182.445 64.3003 183.829 64.3945C183.365 64.6408 182.643 64.5684 182.415 65.119C182.246 66.568 182.371 67.9663 182.334 69.3864C182.284 70.5586 182.318 71.7329 182.437 72.9003C182.732 73.2698 183.24 73.2625 183.667 73.3422V73.5451H179.669V73.3277C180.055 73.3192 180.434 73.2198 180.773 73.0379C180.959 72.6032 181.037 72.1315 181.002 71.6613V66.0971C180.957 65.6552 181.061 65.1263 180.707 64.7857C180.356 64.6547 179.994 64.5529 179.625 64.4815L179.662 64.351Z" fill="#CCD1DC"/>
<path d="M197.816 64.3799C198.876 64.4958 200.386 63.8655 201.048 64.9885C202.756 67.0751 204.474 69.1569 206.201 71.2338V65.8579C206.165 65.4812 206.246 64.9958 205.87 64.7567C205.55 64.6571 205.223 64.582 204.891 64.5321V64.3509C206.041 64.2945 207.194 64.3381 208.336 64.4814C207.814 64.6407 206.864 64.648 206.915 65.416C206.805 68.2271 206.915 71.0454 206.842 73.8565C204.582 71.4729 202.638 68.7849 200.467 66.3578C200.467 68.4662 200.386 70.5817 200.518 72.69C200.518 73.2697 201.254 73.3059 201.667 73.3638V73.5884H198.648V73.3638C199.105 73.3204 199.782 73.2262 199.782 72.6393C199.892 70.3861 199.819 68.1329 199.826 65.8797C199.775 64.9088 198.56 64.7349 197.846 64.4306" fill="#CCD1DC"/>
<path d="M250.473 64.4307C252.931 64.2713 255.405 64.3582 257.871 64.3872C257.871 65.1117 257.945 65.7927 257.915 66.5028C257.466 66.0536 257.54 65.2276 256.885 64.9813C255.698 64.8389 254.501 64.7977 253.307 64.8581V68.4807C254.265 68.5387 255.227 68.5023 256.178 68.372C256.789 68.2054 256.642 67.4156 257.076 67.0606C257.113 68.1836 257.12 69.3211 257.076 70.4586C256.686 70.0456 256.782 69.2994 256.185 69.0893C255.239 68.9651 254.282 68.9311 253.329 68.9878C253.329 70.2195 253.27 71.4512 253.366 72.6828L253.638 73.0016C254.67 73.0837 255.708 73.0716 256.737 72.9654C257.724 72.7698 257.93 71.6468 258.688 71.1686C258.46 71.9728 258.151 72.7553 257.886 73.5522H250.664V73.3566C251.157 73.2697 251.96 73.2552 251.96 72.5814C252.033 70.1905 252.019 67.7924 251.96 65.4015C252.004 64.5756 251.025 64.6335 250.487 64.4234" fill="#CCD1DC"/>
</g>
<defs>
<clipPath id="clip0_6759_12853">
<rect width="316" height="82" fill="white"/>
</clipPath>
</defs>
</svg>
