<svg width="84" height="82" viewBox="0 0 84 82" fill="none" xmlns="http://www.w3.org/2000/svg">
<path d="M45.7425 47.0394C45.7177 52.2241 37.8663 52.2106 37.8438 47.0394C37.8663 41.8659 45.72 41.8659 45.7425 47.0394Z" fill="#CCD1DC"/>
<path d="M27.2456 35.9395C28.1299 34.5148 31.7057 33.6853 33.8683 33.6334C35.8486 33.8386 39.4672 35.4977 39.9555 36.8186C39.9442 37.6257 37.6917 38.7505 27.0318 40.0061C26.8495 39.4493 26.2441 37.4476 27.2456 35.9395Z" fill="#CCD1DC"/>
<path d="M55.6613 38.248C55.2472 37.9234 54.9502 37.8287 53.6067 37.3688C50.6273 36.3522 50.6453 36.3274 50.2559 36.271C49.0003 36.0884 48.6807 36.3296 47.8773 35.9396C45.3029 34.6638 45.0892 30.5814 42.1457 34.6232C39.6298 36.6993 35.6962 37.583 27.0076 38.9062L26.6836 40.004H56.9597C56.683 39.3176 56.2361 38.7132 55.6613 38.248Z" fill="#CCD1DC"/>
<path d="M31.3972 35.2813C31.0687 34.064 32.0723 33.9851 34.1404 29.2377C35.0405 27.351 35.6436 24.9322 36.8813 25.8316C38.164 27.0331 41.5058 35.9441 42.0391 37.3687C39.2959 39.3705 32.3131 38.5928 31.3972 35.2813Z" fill="#CCD1DC"/>
<path d="M35.0171 29.2873C34.711 28.1602 32.2717 33.2998 34.2002 28.8793C36.5541 21.934 38.0258 27.6688 39.4098 30.721C38.7054 31.1223 38.7347 29.5668 37.3665 29.6976C34.675 29.9523 35.5752 31.3657 35.0171 29.2873Z" fill="#CCD1DC"/>
<path d="M28.2051 34.9522C28.9274 34.3774 29.3303 33.1015 31.4388 32.8197C33.5362 32.3689 34.092 32.7092 35.7145 33.6335C37.1074 34.0054 38.5409 35.1506 38.5319 35.5C38.5184 35.917 37.4675 36.0613 27.0552 36.7105C26.8796 36.4265 27.2307 35.7299 28.2051 34.9522Z" fill="#CCD1DC"/>
<path d="M43.3557 38.5769C44.3188 37.3867 49.7196 37.8646 50.5973 38.4687C48.9793 39.8776 43.1756 39.2487 43.3557 38.5769Z" fill="#CCD1DC"/>
<path d="M41.2798 35.3242C39.8913 35.2295 34.3892 37.7294 33.5273 38.3944C35.6674 38.3223 41.6038 35.5248 41.2798 35.3242Z" fill="#CCD1DC"/>
<path d="M32.2139 39.0481C31.343 38.9218 27.3689 39.3456 26.6758 39.4989C28.062 39.6251 32.3669 39.1405 32.2139 39.0481Z" fill="#CCD1DC"/>
<path d="M43.1373 33.266C41.265 35.1551 43.8394 35.5203 45.3358 34.9161C46.7581 34.702 45.9412 33.4464 45.0208 32.8873C44.7062 32.7482 44.3563 32.7099 44.0191 32.7777C43.6819 32.8455 43.3739 33.016 43.1373 33.266Z" fill="#CCD1DC"/>
<path d="M41.7912 59.6742C21.5674 59.3045 21.5719 20.9241 41.7912 20.5566C62.015 20.9286 62.0105 59.309 41.7912 59.6742ZM41.7912 20.9962C22.1434 21.3569 22.1479 58.8785 41.7912 59.2346C61.4322 58.8762 61.4322 21.3524 41.7912 20.9962Z" fill="#CCD1DC"/>
<path d="M43.6867 27.59C43.6799 27.6728 43.6422 27.7501 43.5811 27.8064C43.52 27.8627 43.44 27.894 43.357 27.894C43.274 27.894 43.194 27.8627 43.133 27.8064C43.0719 27.7501 43.0342 27.6728 43.0273 27.59C43.0342 27.5071 43.0719 27.4298 43.133 27.3735C43.194 27.3172 43.274 27.2859 43.357 27.2859C43.44 27.2859 43.52 27.3172 43.5811 27.3735C43.6422 27.4298 43.6799 27.5071 43.6867 27.59Z" fill="#CCD1DC"/>
<path d="M43.7938 30.0065C43.7938 30.0938 43.7592 30.1775 43.6976 30.2392C43.636 30.3009 43.5524 30.3356 43.4653 30.3356C43.3781 30.3356 43.2946 30.3009 43.2329 30.2392C43.1713 30.1775 43.1367 30.0938 43.1367 30.0065C43.1367 29.9192 43.1713 29.8355 43.2329 29.7738C43.2946 29.712 43.3781 29.6774 43.4653 29.6774C43.5524 29.6774 43.636 29.712 43.6976 29.7738C43.7592 29.8355 43.7938 29.9192 43.7938 30.0065Z" fill="#CCD1DC"/>
<path d="M46.3944 28.0295C46.4206 28.0971 46.419 28.1723 46.3899 28.2387C46.3608 28.3051 46.3065 28.3571 46.2391 28.3834C46.1716 28.4097 46.0965 28.4081 46.0303 28.379C45.964 28.3498 45.912 28.2954 45.8858 28.2279C45.8595 28.1603 45.8611 28.0851 45.8902 28.0187C45.9194 27.9523 45.9736 27.9003 46.0411 27.874C46.1085 27.8477 46.1836 27.8493 46.2499 27.8784C46.3161 27.9076 46.3681 27.962 46.3944 28.0295Z" fill="#CCD1DC"/>
<path d="M48.8944 26.0548C48.9206 26.1223 48.919 26.1976 48.8899 26.264C48.8608 26.3303 48.8065 26.3824 48.7391 26.4087C48.6716 26.435 48.5965 26.4334 48.5303 26.4042C48.464 26.3751 48.412 26.3207 48.3858 26.2532C48.3595 26.1856 48.3611 26.1104 48.3903 26.044C48.4194 25.9776 48.4736 25.9256 48.5411 25.8992C48.6085 25.8729 48.6836 25.8745 48.7499 25.9037C48.8161 25.9329 48.8681 25.9872 48.8944 26.0548Z" fill="#CCD1DC"/>
<path d="M45.5027 30.2319C45.5452 30.2403 45.5855 30.2571 45.6214 30.2811C45.6574 30.3052 45.6883 30.3361 45.7123 30.3721C45.7363 30.4081 45.753 30.4485 45.7615 30.491C45.7699 30.5334 45.77 30.5772 45.7615 30.6196C45.7531 30.6621 45.7364 30.7025 45.7124 30.7385C45.6884 30.7745 45.6575 30.8055 45.6216 30.8296C45.5857 30.8536 45.5453 30.8704 45.5029 30.8788C45.4605 30.8873 45.4169 30.8873 45.3745 30.8789C45.2888 30.8618 45.2134 30.8114 45.1649 30.7387C45.1164 30.666 45.0987 30.5769 45.1157 30.4911C45.1327 30.4053 45.183 30.3298 45.2556 30.2812C45.3282 30.2326 45.4171 30.2149 45.5027 30.2319Z" fill="#CCD1DC"/>
<path d="M51.7582 50.9956C47.1787 59.3362 36.1633 59.3362 31.5861 50.9956H31.1562C35.8505 59.8186 47.4938 59.8164 52.188 50.9956H51.7582Z" fill="#CCD1DC"/>
<path d="M62.431 40.7523L61.936 41.1626C61.9419 40.8673 61.857 40.5774 61.6927 40.3322C61.5284 40.087 61.2928 39.8984 61.0178 39.792L60.876 40.1324C60.876 39.7559 60.8625 39.3705 60.84 38.976C61.5624 37.8489 63.5697 36.6429 62.1745 35.234L61.7244 35.6983C61.6971 35.4041 61.5805 35.1254 61.3901 34.8997C61.1998 34.674 60.945 34.5121 60.66 34.436L60.39 35.3647C59.1253 32.9076 63.0206 31.1628 60.8895 29.4564L60.5723 29.9816C60.4912 29.7144 60.3296 29.4789 60.1097 29.3073C59.8897 29.1358 59.622 29.0367 59.3436 29.0236L59.2108 30.7435C58.6932 30.1665 58.4727 29.3752 58.1081 28.7147C58.0586 27.1571 60.2347 24.9389 58.1824 23.929L57.9348 24.5151C57.8067 24.252 57.6008 24.0347 57.3452 23.8928C57.0896 23.7508 56.7966 23.6911 56.5059 23.7216L56.6476 25.525L55.3582 24.2514C55.3479 24.2613 55.3381 24.2719 55.3289 24.2829C53.8302 22.9304 55.9905 19.3958 53.3576 19.0351L53.3194 19.6708C53.1104 19.4672 52.844 19.3327 52.5563 19.2855C52.2685 19.2384 51.9733 19.2808 51.7104 19.407L52.4328 21.0549C51.5641 20.063 50.2139 19.4769 49.5861 18.3385C49.0122 17.0536 48.911 14.6687 46.9037 15.1826L47.0904 15.8589C46.8016 15.7224 46.4778 15.6782 46.163 15.7322C45.8483 15.7862 45.5577 15.9359 45.3307 16.161L46.6809 17.6014L44.7163 17.4256C44.6885 17.681 44.7234 17.9394 44.8179 18.1782C44.9124 18.4171 45.0637 18.6292 45.2587 18.7961L44.7298 18.9427C45.4454 21.2533 48.1414 19.3822 49.6806 19.3935C50.0271 19.664 50.4007 19.9683 50.7923 20.3065C50.69 20.5193 50.6419 20.7541 50.6521 20.9901C50.6623 21.2261 50.7306 21.4558 50.8508 21.659L50.3489 21.641C50.2072 23.5142 52.6285 23.2595 53.8325 23.361C54.227 23.8118 54.6186 24.2935 55.0071 24.8059C54.9223 25.0444 54.9029 25.3013 54.9509 25.5498L54.4896 25.3514C53.729 27.0534 56.0648 27.6485 57.1765 28.1332C57.4375 28.605 57.6873 29.0935 57.9258 29.5984C57.7066 29.856 57.5918 30.1866 57.604 30.5249L57.199 30.2702C56.2291 31.7647 58.3602 32.6709 59.3256 33.2976C59.5506 34.046 59.7374 34.8462 59.8836 35.6285L59.3728 34.5509C59.1565 34.6468 58.9671 34.7947 58.8214 34.9815C58.6758 35.1683 58.5784 35.3882 58.5379 35.6217L58.1734 35.2723C56.4316 37.2019 60.2797 38.3673 60.2685 40.0783C60.2655 39.9993 60.285 39.9212 60.3247 39.8529C60.336 40.4006 60.3247 40.9326 60.3045 41.4421L59.7216 39.7492C59.4964 39.8211 59.2923 39.9473 59.1271 40.1167C58.9619 40.2861 58.8407 40.4935 58.7742 40.7208L58.4502 40.3308C56.7624 41.8208 59.4021 43.3898 59.9422 44.7175C59.8364 45.2991 59.7329 45.786 59.6023 46.2955L59.6204 45.6507C59.392 45.638 59.1641 45.682 58.9568 45.7787C58.7495 45.8755 58.5693 46.022 58.4322 46.2053L58.2724 45.7432C55.9275 46.6449 58.7225 49.3341 57.9731 50.8016C57.7481 51.2998 57.4848 51.78 57.2215 52.2466L57.4465 51.3449C57.184 51.2726 56.9077 51.266 56.6421 51.3257C56.3764 51.3855 56.1295 51.5097 55.923 51.6876L55.8533 51.1082C53.3779 51.4486 54.7619 54.5099 54.5728 56.0856C54.1483 56.5965 53.7155 57.0819 53.2744 57.5418L53.7942 56.3831C53.5488 56.2649 53.2781 56.2093 53.006 56.2211C52.734 56.2328 52.469 56.3117 52.2347 56.4507L52.2685 55.8691C49.8404 55.7497 50.5672 58.8898 50.1644 60.3776C49.3858 60.993 48.6387 61.525 47.9568 61.9736C47.8173 61.1779 48.4857 58.6125 46.9689 58.8064C47.1107 59.4601 46.5504 62.0232 47.5068 62.2644C46.9262 62.6341 46.4018 62.9407 45.9585 63.1819L46.2241 63.6643C46.6741 63.4186 47.1692 63.1255 47.716 62.7806C47.8398 63.8897 50.4997 63.3622 51.1726 63.5403C51.4156 62.0728 49.0167 62.589 48.2359 62.4447C51.1771 59.3767 54.6673 62.6386 55.2794 59.3632L54.5413 59.3181C54.7784 59.0753 54.9352 58.7653 54.9904 58.4302C55.0455 58.0951 54.9964 57.751 54.8496 57.4449L53.5647 58.0197C55.3447 54.8638 59.3953 57.3299 59.4313 54.0184L58.6977 54.1041C58.8875 53.8225 58.9866 53.4894 58.9818 53.1497C58.9769 52.81 58.8684 52.4799 58.6707 52.2038L57.3565 53.1055C57.9222 52.1625 58.4258 51.1836 58.8642 50.175C59.9782 49.4829 62.3118 49.3612 61.7222 47.497L61.1371 47.7021C61.2421 47.4369 61.2635 47.1459 61.1983 46.8682C61.1331 46.5905 60.9845 46.3394 60.7725 46.1489L59.9872 46.983C60.3472 46.1129 60.1942 45.0263 60.7838 44.2238C61.6592 43.2365 63.6215 42.2446 62.431 40.7523Z" fill="#CCD1DC"/>
<path d="M48.2221 65.2693L43.8249 64.6561C43.8028 64.8043 43.8103 64.9555 43.8471 65.1008C43.8839 65.246 43.9493 65.3825 44.0394 65.5021C44.1295 65.6218 44.2426 65.7222 44.3719 65.7976C44.5012 65.8729 44.6442 65.9217 44.7926 65.941L49.1898 66.5542C49.212 66.406 49.2044 66.2548 49.1676 66.1095C49.1308 65.9643 49.0654 65.8278 48.9753 65.7082C48.8852 65.5885 48.7722 65.4881 48.6428 65.4127C48.5135 65.3374 48.3705 65.2886 48.2221 65.2693Z" fill="#CCD1DC"/>
<path d="M20.3348 40.7524L20.8277 41.1626C20.8217 40.8674 20.9067 40.5775 21.0709 40.3323C21.2352 40.0871 21.4708 39.8984 21.7458 39.7921L21.8876 40.1324C21.8876 39.756 21.9011 39.3705 21.9236 38.976C21.2035 37.8489 19.1939 36.6429 20.5891 35.234L21.0392 35.6984C21.0665 35.4042 21.1832 35.1255 21.3735 34.8997C21.5638 34.674 21.8186 34.5122 22.1036 34.436L22.3737 35.3648C23.6384 32.9076 19.743 31.1629 21.8741 29.4564L22.1914 29.9817C22.2724 29.7144 22.434 29.4789 22.654 29.3074C22.874 29.1358 23.1416 29.0367 23.4201 29.0236L23.5528 30.7436C24.0704 30.1665 24.291 29.3753 24.6555 28.7148C24.705 27.1571 22.5289 24.939 24.5812 23.9291L24.8288 24.5152C24.9569 24.252 25.1628 24.0347 25.4184 23.8928C25.674 23.7508 25.9671 23.6911 26.2578 23.7217L26.116 25.5251L27.4167 24.274C27.427 24.2839 27.4368 24.2944 27.4459 24.3055C28.9447 22.953 26.7843 19.4184 29.4172 19.0577L29.4555 19.6934C29.6649 19.4896 29.9316 19.355 30.2197 19.3078C30.5079 19.2607 30.8035 19.3032 31.0667 19.4296L30.3286 21.0775C31.1973 20.0856 32.5475 19.4995 33.1753 18.3611C33.7491 17.0762 33.8504 14.6912 35.8577 15.2052L35.6709 15.8815C35.9598 15.745 36.2835 15.7008 36.5983 15.7548C36.9131 15.8088 37.2037 15.9585 37.4307 16.1835L36.0805 17.624L38.0451 17.4482C38.0729 17.7036 38.038 17.9619 37.9435 18.2008C37.849 18.4397 37.6977 18.6518 37.5027 18.8187L38.0316 18.936C37.3159 21.2465 34.62 19.3755 33.0808 19.3868C32.7342 19.6573 32.3607 19.9616 31.9691 20.2998C32.0719 20.5124 32.1204 20.7473 32.1102 20.9834C32.1 21.2195 32.0314 21.4493 31.9106 21.6523L32.4057 21.641C32.5497 23.5143 30.1261 23.2596 28.9222 23.361C28.5291 23.8118 28.1375 24.2935 27.7475 24.806C27.8334 25.0442 27.8528 25.3014 27.8037 25.5499L28.2538 25.3515C29.0144 27.0534 26.6786 27.6485 25.5669 28.1332C25.3059 28.6051 25.0561 29.0935 24.8175 29.5984C25.0368 29.8561 25.1516 30.1866 25.1393 30.5249L25.5444 30.2702C26.5143 31.7648 24.3832 32.671 23.4178 33.2976C23.1928 34.046 23.006 34.8463 22.8597 35.6285L23.3706 34.551C23.5869 34.6469 23.7763 34.7948 23.9219 34.9816C24.0676 35.1683 24.165 35.3882 24.2054 35.6217L24.57 35.2723C26.3298 37.1952 22.4839 38.3561 22.5042 40.0671C22.5071 39.9881 22.4876 39.9099 22.4479 39.8416C22.4479 40.3894 22.4479 40.9214 22.4682 41.4309L23.051 39.7379C23.2762 39.8099 23.4804 39.9361 23.6456 40.1055C23.8107 40.2749 23.9319 40.4823 23.9984 40.7095L24.3225 40.3195C26.0102 41.8096 23.3706 43.3785 22.8305 44.7063C22.9362 45.2879 23.0398 45.7748 23.1703 46.2842L23.1523 45.6395C23.3806 45.6268 23.6085 45.6707 23.8158 45.7675C24.0231 45.8642 24.2033 46.0108 24.3405 46.1941L24.5002 45.7319C26.8451 46.6336 24.0502 49.3229 24.7995 50.7904C25.0358 51.2886 25.2879 51.7688 25.5511 52.2354L25.3261 51.3337C25.5886 51.2613 25.8649 51.2547 26.1306 51.3145C26.3962 51.3742 26.6431 51.4985 26.8496 51.6763L26.9194 51.097C29.3947 51.4374 28.013 54.4986 28.1998 56.0743C28.6244 56.5853 29.0572 57.0707 29.4982 57.5306L28.9784 56.3719C29.2238 56.2537 29.4946 56.198 29.7666 56.2098C30.0387 56.2216 30.3036 56.3005 30.5379 56.4395L30.5042 55.8579C32.9323 55.7384 32.2054 58.8786 32.6082 60.3664C33.3868 60.9818 34.134 61.5138 34.8158 61.9624C34.9553 61.1666 34.287 58.6013 35.8037 58.7952C35.6619 59.4489 36.2223 62.012 35.2659 62.2532C35.8487 62.6229 36.373 62.9294 36.8141 63.1706L36.5486 63.653C36.0985 63.4073 35.6034 63.1143 35.0566 62.7694C34.9328 63.8785 32.2729 63.351 31.6001 63.5291C31.357 62.0616 33.7559 62.5778 34.5368 62.4335C31.5956 59.3655 28.1053 62.6274 27.4932 59.352L28.2313 59.3069C27.9942 59.0641 27.8374 58.7541 27.7823 58.419C27.7271 58.0838 27.7762 57.7398 27.923 57.4336L29.208 58.0084C27.4279 54.8525 23.3773 57.3187 23.3413 54.0072L24.0749 54.0929C23.8852 53.8113 23.786 53.4782 23.7909 53.1385C23.7957 52.7987 23.9042 52.4686 24.1019 52.1925L25.4184 53.0942C24.8511 52.1518 24.3467 51.1729 23.9084 50.1637C22.7832 49.4717 20.4609 49.35 21.0505 47.4857L21.6378 47.6909C21.5318 47.4258 21.5099 47.1345 21.5752 46.8566C21.6404 46.5787 21.7896 46.3276 22.0024 46.1377L22.7855 46.9718C22.4254 46.1016 22.5784 45.0151 21.9888 44.2126C21.1067 43.2365 19.1422 42.2446 20.3348 40.7524Z" fill="#CCD1DC"/>
<path d="M34.5375 65.2693L38.9279 64.6561C38.9501 64.8043 38.9426 64.9555 38.9058 65.1008C38.8689 65.246 38.8036 65.3825 38.7134 65.5021C38.6233 65.6218 38.5103 65.7222 38.381 65.7976C38.2517 65.8729 38.1086 65.9217 37.9603 65.941L33.5631 66.5542C33.5409 66.4055 33.5487 66.2538 33.586 66.1081C33.6232 65.9625 33.6892 65.8258 33.78 65.706C33.8708 65.5863 33.9846 65.486 34.1147 65.411C34.2448 65.336 34.3885 65.2878 34.5375 65.2693Z" fill="#CCD1DC"/>
<path d="M26.9313 9.10521C26.1459 6.86901 24.1724 7.78198 25.4348 9.82431C26.2292 12.0718 28.1937 11.1475 26.9313 9.10521Z" fill="#CCD1DC"/>
<path d="M46.8382 73.7136C46.8373 73.6553 46.8224 73.5982 46.7948 73.5469C46.7671 73.4957 46.7276 73.4518 46.6795 73.4191C46.6314 73.3864 46.5761 73.3657 46.5183 73.3589C46.4606 73.3521 46.402 73.3593 46.3477 73.38L46.935 77.0498C47.3041 77.0363 47.3378 76.7996 47.2703 76.4209L46.8382 73.7136Z" fill="#CCD1DC"/>
<path d="M35.3281 4.84474L35.8232 8.11337C38.096 8.19678 37.4637 4.14593 35.3281 4.84474Z" fill="#CCD1DC"/>
<path d="M41.5664 76.5314L42.1605 76.5201L41.8274 74.4282L41.5664 76.5314Z" fill="#CCD1DC"/>
<path d="M6.37218 36.1649C8.65628 36.8412 9.05684 34.6996 6.66697 34.5306C4.39863 33.8566 3.98006 35.9936 6.37218 36.1649Z" fill="#CCD1DC"/>
<path d="M13.4395 57.4832L10.2305 59.3474C10.3745 59.69 10.6085 59.6359 10.9371 59.4353L13.3044 58.0602C13.3585 58.0388 13.4066 58.0046 13.4446 57.9605C13.4826 57.9165 13.5094 57.8638 13.5227 57.8071C13.536 57.7504 13.5353 57.6913 13.5208 57.6349C13.5063 57.5785 13.4784 57.5264 13.4395 57.4832Z" fill="#CCD1DC"/>
<path d="M22.6478 67.652L21.3516 69.4869C21.5766 69.6966 21.7881 69.6537 21.9727 69.3652C22.1032 69.0135 23.3544 67.9338 22.6478 67.652Z" fill="#CCD1DC"/>
<path d="M27.8683 70.9454C27.8683 70.9635 26.3245 74.2434 26.4888 74.1464C26.8579 75.0639 28.082 71.2159 28.2463 71.1686C28.4669 70.7831 28.0123 70.605 27.8683 70.9454Z" fill="#CCD1DC"/>
<path d="M25.2556 69.3472L24.3555 70.9251C24.6075 71.1055 24.7628 71.0897 25.0013 70.6794C25.1296 70.3323 25.9015 69.5703 25.2556 69.3472Z" fill="#CCD1DC"/>
<path d="M17.4343 66.9712L18.654 65.2422L17 66.5632L17.4343 66.9712Z" fill="#CCD1DC"/>
<path d="M55.8995 73.4228L56.4373 73.1703L55.2852 71.3962L55.8995 73.4228Z" fill="#CCD1DC"/>
<path d="M76.082 35.8043C73.7056 35.8517 73.9621 38.0112 76.2935 37.4522C78.6608 37.4206 78.4178 35.2453 76.082 35.8043Z" fill="#CCD1DC"/>
<path d="M63.2633 68.9504L63.7246 68.5717L62.1719 67.1357L63.2633 68.9504Z" fill="#CCD1DC"/>
<path d="M68.9534 16.7268L66.4375 18.8683C67.5649 20.8498 70.6614 18.1785 68.9534 16.7268Z" fill="#CCD1DC"/>
<path d="M0 40.9979C0.924891 95.6629 82.1061 95.6719 83.0377 40.9979C82.1128 -13.6626 0.931642 -13.6693 0 40.9979ZM77.4276 29.4856L77.8259 29.339L78.3547 30.7817L76.1832 31.582L75.6341 30.0829C76.8898 29.073 75.8861 27.5131 74.1083 28.3742C71.9975 28.9738 72.5331 31.0793 74.5269 30.6284L74.5562 32.389C71.993 32.9954 70.2805 29.3187 71.2752 27.4027C72.8616 24.0055 78.4718 25.7413 77.4276 29.4856ZM76.649 40.2089C72.4116 40.8694 71.3764 33.4665 75.7331 33.045C80.0267 32.4341 80.9381 39.7626 76.649 40.2089ZM73.5863 20.3131L75.4045 23.469L74.0903 24.2264L73.8113 23.7283L70.9511 25.3784L71.2414 25.8833L69.9272 26.643L68.1089 23.4871L69.4231 22.7296L69.7157 23.2391L72.5781 21.5913L72.2833 21.0795L73.5863 20.3131ZM69.9474 40.8401C69.3061 78.4676 13.4346 78.4609 12.7887 40.8401C13.4481 3.21481 69.3106 3.21932 69.9564 40.8401H69.9474ZM68.1854 13.4738L70.168 15.8092C74.2501 19.7045 68.415 24.7314 65.287 19.851L63.3562 17.5832L64.5106 16.6004L64.8369 16.9836L67.3506 14.8421L67.0265 14.4589L68.1854 13.4738ZM61.8845 8.56634L66.7677 12.243L65.5525 13.866L64.2023 12.8584L64.5084 12.4504L63.3449 11.578L62.7621 12.3579L63.7725 13.1176L63.0096 14.1501L61.997 13.3904L61.3759 14.2244L62.5371 15.1036L62.8431 14.6933L64.1933 15.701L62.9781 17.3263L58.0904 13.6564L58.9905 12.4391L59.3866 12.7389L61.3669 10.0925L60.9618 9.78813L61.8845 8.56634ZM49.7011 8.29583L50.1512 8.48293L51.4046 5.42395L50.9388 5.23234L51.5194 3.83247L55.0862 5.29997L55.0277 7.92389L56.8504 6.02583L60.3947 7.48431L59.8187 8.88869L59.3551 8.69709L58.1016 11.7561L58.5787 11.9522L58.0026 13.3566L54.9084 12.0829L55.4845 10.6785L55.9571 10.8724L57.3073 7.59477L53.6009 11.5419L52.7188 11.179L52.8516 5.80942L51.5329 9.04649L51.983 9.24261L51.4069 10.647L49.125 9.69345L49.7011 8.29583ZM40.7627 7.49558L41.2578 7.53165L41.4828 4.23372L40.9765 4.19765L41.0845 2.68281L47.1762 3.10886L47.0344 5.13766L45.3624 5.02044L45.3962 4.51099L43.9492 4.40955L43.8817 5.37887L45.1442 5.46678L45.0541 6.7562L43.7917 6.66603L43.7197 7.70523L45.1689 7.80667L45.2049 7.29721L46.8769 7.41443L46.7374 9.44323L40.6615 9.01719L40.7627 7.49558ZM35.1864 3.32977C40.6412 1.90059 41.8384 9.51762 36.0505 9.61456L33.1116 10.0654L32.8865 8.56409L33.3839 8.4897L32.8888 5.22107L32.3937 5.29546L32.1687 3.79414L35.1864 3.32977ZM29.4322 7.9036C31.39 11.7245 24.7065 15.0382 22.931 11.028C21.0025 7.13716 27.659 3.96547 29.4322 7.9036ZM20.4781 9.01719L21.3625 10.2502L20.9124 10.5703C22.2627 12.9238 26.4168 16.0143 22.2176 17.8808L21.3175 16.6184C22.0624 16.2961 21.7136 15.9422 21.241 15.2659L18.9029 12.0153L18.4258 12.3602L17.5414 11.1271L20.4781 9.01719ZM16.4275 11.9477L17.8565 13.3859L16.6525 14.5829L16.2925 14.2199L15.2641 15.2456L15.9504 15.9377L16.8506 15.036L17.7507 15.9512L16.8506 16.8529L17.5887 17.5832L18.6193 16.5576L18.2593 16.1946L19.4475 15.0089L20.8764 16.4561L16.5558 20.764L15.4846 19.6887L15.8379 19.337L13.5021 16.9926L13.151 17.3578L12.0821 16.2803L16.4275 11.9477ZM10.5429 19.0485L10.2211 18.8231L11.0447 17.6306L12.5277 18.6585L11.713 19.8375C11.0807 19.5444 10.059 20.2568 10.6306 20.7888C11.1077 21.0615 12.6559 19.7856 13.0542 19.7586C15.8784 18.8141 16.6345 23.0543 13.9881 23.7891L14.3279 24.0146L13.5021 25.2115L11.8346 24.0529L12.6537 22.8672C14.4 23.4127 14.427 20.8383 12.6334 22.2563C9.67648 24.657 7.2011 20.4303 10.5429 19.0485ZM5.74063 26.8459L9.70348 26.0321L8.05848 25.3152L7.85145 25.7931L6.46074 25.1867L7.48915 22.8176L8.87986 23.4239L8.65482 23.9357L13.1555 25.8923L12.3161 27.8242L7.72993 28.7687L9.77549 29.6704L10.0005 29.1497L11.3867 29.7561L10.3516 32.1568L8.94962 31.5594L9.17465 31.0432L6.14794 29.7245L5.92291 30.2407L4.53444 29.6343L5.74063 26.8459ZM7.1606 31.7849C11.398 32.4318 10.1626 39.8054 5.8824 38.8924C1.60224 38.1891 2.92545 30.926 7.1606 31.7849ZM3.19549 41.7869L2.77242 41.8072L2.70041 40.272L5.00927 40.1638L5.08353 41.7598C3.58255 42.3437 4.07087 44.1313 6.02417 43.8495C8.21826 43.9126 8.34428 41.7553 6.30546 41.5682L6.80729 39.882C9.43119 40.0759 9.95777 44.0952 8.43654 45.6258C5.90265 48.3917 1.07341 45.042 3.19549 41.7869ZM9.06664 54.7284C9.02613 54.6472 8.89336 54.4466 9.03063 54.4105C10.3808 54.0296 9.69448 54.5593 10.4123 55.1319C10.7769 55.5827 9.77099 55.4858 9.58872 55.5151C9.39969 55.4475 9.36368 55.0169 9.28042 54.8884C9.24666 54.778 9.14315 54.778 9.06664 54.7284ZM10.1265 59.7373C10.1265 59.6899 9.34118 58.4614 9.39969 58.4276C9.56621 58.1548 9.79125 58.4276 9.99603 58.3284L12.8 56.6963C12.8292 56.6738 12.836 56.6332 12.8225 56.5723C12.7685 56.4348 12.9845 56.3108 13.1015 56.3131C13.4638 56.9015 14.3054 57.8437 13.8824 58.6056C13.3985 59.5344 10.9232 61.0898 10.1265 59.7373ZM13.6551 61.6038C13.8554 61.4437 13.7181 61.34 13.6191 61.1958L12.1114 62.2575C12.2779 62.6768 12.6402 62.3409 13.0115 62.3319C13.5583 62.6204 12.7099 62.8256 12.5164 62.9563C12.3454 63.0194 12.3364 63.0938 12.2374 62.9563L11.2112 61.4911C11.1437 61.3806 11.2112 61.3806 11.3215 61.2859C11.4317 61.1912 11.6095 61.4099 11.7108 61.3085L14.445 59.3856C14.5012 59.3653 14.427 59.1602 14.4585 59.1129C14.49 59.0655 14.697 58.8514 14.7578 59.0182C14.7735 59.1354 15.9707 60.5082 15.7187 60.5961C15.5904 60.6412 15.1898 61.3693 15.0436 61.0921C14.751 60.7427 15.5409 60.4406 15.1291 60.1182L13.8779 60.9996C13.9679 61.1191 14.0354 61.3017 14.2177 61.1822C14.4607 60.9929 14.58 61.2025 14.625 61.331C14.625 61.4099 13.8599 61.8833 13.7991 61.9464C13.6101 62.0952 13.4143 61.7323 13.6483 61.6015L13.6551 61.6038ZM15.1021 66.3985C15.0886 66.2903 13.6528 65.0234 13.9476 64.913C14.1187 64.7169 14.2447 65.0009 14.4472 64.771L16.8056 62.6317C16.9091 62.5641 16.8056 62.4063 16.8348 62.3364C16.8641 62.2665 17.0419 62.0524 17.1251 62.1854C17.1409 62.2417 18.05 63.1411 17.9915 63.1953C17.8362 63.5424 17.6562 63.2629 17.4537 63.3914L14.886 65.7132C15.1111 66.1055 15.4149 65.7132 15.7659 65.6614C16.3375 65.9296 15.5026 66.2114 15.3158 66.394C15.2101 66.4549 15.1786 66.4842 15.0953 66.3963L15.1021 66.3985ZM17.4289 68.6527C15.9257 67.2168 16.666 68.1523 17.2466 67.2123L16.7606 66.7614C16.558 66.926 16.3105 67.0342 16.4275 67.334C16.2475 67.8006 15.8762 67.1221 15.6849 67.0162C15.6309 66.7907 16.0315 66.802 16.153 66.7186L18.6734 64.7574C18.8849 64.665 18.7139 64.4982 18.8444 64.3472C18.9546 64.248 18.9636 64.1758 19.0694 64.2592C19.5195 64.8093 20.2283 64.8634 19.506 65.6366L17.8025 68.0779C17.6449 68.2605 17.7372 68.77 17.4222 68.655L17.4289 68.6527ZM21.1802 69.7348L20.6582 70.4674C20.5321 70.6635 20.8202 70.9182 20.5164 71.049C20.4871 71.0986 19.4632 70.3141 19.416 70.2983C19.3012 70.251 19.497 70.0053 19.5397 69.9782C19.623 69.9467 19.7648 70.0639 19.8075 69.9376L21.6776 67.2912C21.7811 67.192 21.5966 67.0274 21.6776 66.9125C21.7383 66.8403 21.7991 66.6577 21.9026 66.7637L23.0278 67.5594C24.6008 68.6099 22.5034 71.1572 21.1735 69.737L21.1802 69.7348ZM24.729 73.4317C24.6368 73.5669 24.6503 73.6256 24.5197 73.5579C24.378 73.4272 23.7321 73.2423 23.7861 72.9696C23.7141 72.4624 25.0013 71.5133 24.207 71.182L23.5454 72.3361C23.4508 72.4984 23.5971 72.7599 23.3856 72.8636C23.3608 72.9425 22.3437 72.2865 22.2964 72.282C22.1749 72.2234 22.3572 71.9169 22.4494 71.9462C22.6497 72.1964 24.1529 69.1464 24.2497 69.0923C24.3465 68.9503 24.2497 68.8669 24.1935 68.7654C24.1935 68.6865 24.3622 68.4386 24.4432 68.5265C24.9158 68.8691 26.1355 69.2614 26.2435 69.9444C26.4685 70.7176 25.7687 71.6779 24.8798 71.3916C25.6989 72.0634 24.7538 72.7239 24.7223 73.4339L24.729 73.4317ZM26.4708 74.5453C24.8596 73.6684 26.6126 69.852 28.3228 70.4989C29.9296 71.4142 28.2103 75.199 26.464 74.5475L26.4708 74.5453ZM29.8306 75.8775C29.6415 75.7626 29.1555 75.8054 29.2995 75.4267L29.8126 71.8312C29.8688 71.6689 29.673 71.6058 29.7203 71.4615C29.7653 71.3961 29.7653 71.2158 29.8688 71.2361L31.0187 71.6373C31.0998 71.7027 31.03 71.7545 30.9827 71.9078C30.5642 71.8582 30.5057 73.9907 30.3931 74.2184L31.4621 72.397C31.5791 72.2753 31.3743 72.14 31.3608 72.0318C31.4103 71.9439 31.4081 71.7703 31.5206 71.8064L32.1462 72.0318C32.2587 72.0499 32.1034 72.3023 32.0989 72.3452C31.9436 72.4308 31.9054 72.4038 31.8064 72.5999L30.0061 75.6634C29.9633 75.6994 29.8981 75.9406 29.8238 75.8798L29.8306 75.8775ZM32.7965 76.4839C32.7605 76.5696 32.7763 76.7296 32.6435 76.6643L31.3833 76.3216C31.2415 76.2968 31.4148 76.0195 31.4013 76.0195C31.4643 75.9497 31.6803 76.0015 31.6893 75.8708L32.5197 72.796C32.6412 72.5706 32.3532 72.53 32.3937 72.3452C32.4207 72.2798 32.4207 72.104 32.5377 72.1513C32.6187 72.2324 34.0275 72.406 33.8519 72.6427C33.8317 72.9515 33.5616 72.7306 33.5009 72.9966L32.6592 76.1075C32.5962 76.2607 32.8708 76.3261 32.7898 76.4862L32.7965 76.4839ZM36.3971 73.3483C36.3093 73.4159 36.172 73.3844 36.172 73.5196L35.4317 77.2594L34.9816 77.1692L34.4303 74.5611L34.0545 76.4185C34.0479 76.4576 34.0536 76.4977 34.071 76.5333C34.0884 76.5689 34.1164 76.5981 34.1512 76.6169C34.3042 76.6823 34.194 76.9596 34.1827 76.9934C34.1715 77.0272 33.4514 76.8513 33.4041 76.8604C33.2961 76.8198 33.3591 76.7499 33.3749 76.6034C33.3906 76.4569 33.6291 76.5065 33.6269 76.4028C33.6246 76.2991 34.4393 72.9673 34.1805 73.0079C33.8114 72.3925 34.7228 72.7216 34.9726 72.7577L35.4497 74.9871L35.749 73.4723C35.7985 73.3348 35.6139 73.2694 35.5734 73.1702C35.4519 72.6585 36.1878 73.0575 36.4083 73.044C36.4781 73.0372 36.4286 73.3077 36.3971 73.3505V73.3483ZM38.7329 73.4835C38.7037 73.6188 38.7329 74.4326 38.6429 74.5272C38.3976 74.6197 38.3009 74.4529 38.3009 74.1666C38.3009 73.5264 37.9273 73.2649 37.8508 73.9411C37.9138 74.1282 37.2522 77.2954 37.6393 77.2571C37.8643 77.3405 37.9093 76.8063 38.0263 76.5966C38.1456 76.5132 38.4764 76.5515 38.4066 76.7882C37.6325 78.8509 36.1135 76.6237 36.5748 75.181C36.6604 74.2297 37.1847 72.7013 38.2491 73.2919C38.3481 73.4272 38.4246 73.2175 38.5236 73.2175C38.6902 73.2378 38.7622 73.2626 38.7329 73.488V73.4835ZM40.3082 73.975L40.1394 77.194C40.1169 77.3563 40.3982 77.3631 40.3644 77.5366C40.3464 77.6268 40.3959 77.7801 40.2542 77.7418L38.949 77.6741C38.8049 77.6741 38.9152 77.3743 38.9017 77.3766C38.9512 77.2954 39.1717 77.2999 39.1515 77.1692L39.318 73.9885C39.3878 73.7405 39.093 73.7631 39.093 73.5715C39.1065 73.5038 39.0682 73.3325 39.1942 73.346C39.2888 73.4091 40.7042 73.2807 40.5827 73.5489C40.6255 73.8645 40.3149 73.7135 40.3127 73.9772L40.3082 73.975ZM43.3236 77.7305C41.2466 77.753 42.4235 77.9041 42.1985 76.8288L41.5234 76.8423C41.4941 77.1016 41.3996 77.3473 41.6854 77.487C41.8812 77.9379 41.143 77.7125 40.9315 77.7801C40.729 77.6471 41.0305 77.3834 41.0598 77.2368L41.4941 74.0809C41.5841 73.8555 41.3433 73.8668 41.3321 73.6684C41.3321 73.5196 41.2983 73.461 41.4288 73.443C42.1399 73.5173 42.68 73.062 42.7025 74.1192L43.1976 77.0497C43.2066 77.2909 43.6342 77.593 43.3281 77.7328L43.3236 77.7305ZM47.2572 77.2932C47.2212 77.2932 45.7743 77.5614 45.7765 77.5028C45.583 77.2481 45.9228 77.1376 45.898 76.9077L45.3849 73.6999C45.3737 73.6661 45.3377 73.6436 45.2769 73.6368C45.1307 73.6368 45.0924 73.3911 45.1352 73.2807C45.8103 73.1544 46.9939 72.7058 47.552 73.3753C48.2496 74.1643 48.8077 77.0272 47.2572 77.2932ZM51.0153 76.4862L49.2825 76.919C49.1565 76.9415 49.179 76.8829 49.1318 76.7409C49.0845 76.5989 49.3568 76.5155 49.2938 76.3847L48.4859 73.1386C48.4859 73.0778 48.2609 73.071 48.2361 73.0259C48.2114 72.9808 48.0809 72.7103 48.2564 72.7126C48.3711 72.7419 50.0814 72.1152 50.0792 72.3857C50.0927 72.4331 50.4077 73.062 50.4077 73.0913C50.0071 73.603 49.8721 72.4669 49.4221 72.7622L49.7911 74.2477C49.9351 74.2094 50.1309 74.2094 50.0859 73.9975C49.9959 73.7022 50.2344 73.6661 50.3695 73.6706C50.4437 73.7022 50.6102 74.5836 50.6462 74.6625C50.707 74.8879 50.2997 74.933 50.2614 74.6625C50.1849 74.419 50.0364 74.507 49.8676 74.5475L50.3177 76.3509C50.887 76.3802 50.4302 75.6025 50.8623 75.4492C51.2021 75.3298 51.0401 76.0714 51.1121 76.2224C51.1076 76.405 51.1728 76.4388 51.0176 76.4862H51.0153ZM54.0195 75.4064C53.9723 75.5011 53.9115 75.6814 53.736 75.6544C53.6842 75.6544 53.2679 74.8226 53.2274 74.7797C53.1329 74.5949 53.0609 74.5836 53.2431 74.4957C53.628 74.2996 54.051 75.3072 54.3211 75.0863C54.5956 74.9353 54.3661 74.6467 54.1725 74.4731C53.1599 73.9231 50.8443 71.3736 53.1531 71.3398C53.1869 71.2068 53.2206 71.0535 53.4389 71.049C53.4997 71.049 53.9272 71.8898 53.9723 71.9394C54.1455 72.1197 53.808 72.1964 53.7 72.1851C53.5469 72.0769 52.9754 71.4705 52.8651 71.6148C52.4938 72.0656 54.3458 73.08 54.4763 73.4069C55.1514 74.02 55.2504 75.6318 54.0218 75.4064H54.0195ZM57.9959 73.8014C56.1078 74.6693 57.251 74.3244 56.5917 73.4362L55.9908 73.7135C56.0673 73.9637 56.0808 74.2274 56.3981 74.2365C56.7649 74.5768 55.9976 74.6715 55.831 74.8113C55.5903 74.7752 55.759 74.41 55.7253 74.2658L54.8386 71.1955C54.8386 70.9701 54.6136 71.0602 54.5213 70.8844C54.4696 70.7447 54.4066 70.7086 54.5213 70.6455C55.1964 70.42 55.507 69.7866 55.9593 70.7447L57.6066 73.2243C57.7146 73.4452 58.2209 73.5489 57.9981 73.8014H57.9959ZM60.1157 72.6134L57.9846 71.0084L58.9298 72.6495C58.9503 72.6838 58.9812 72.7107 59.0181 72.7261C59.0549 72.7415 59.0958 72.7447 59.1345 72.7351C59.2898 72.6833 59.3888 72.9606 59.4023 72.9989C59.4158 73.0372 58.761 73.3731 58.7272 73.4114C58.6192 73.452 58.6215 73.3573 58.536 73.2378C58.4504 73.1184 58.6642 72.9966 58.5945 72.9222C58.5247 72.8478 56.9495 69.8001 56.7807 69.9917C56.1056 69.7663 57.0057 69.4192 57.2128 69.2817L59.0378 70.6455L58.2682 69.3087C58.2142 69.1712 58.0319 69.2433 57.9374 69.1983C57.5098 68.8917 58.3244 68.7068 58.4819 68.5513C58.5315 68.504 58.671 68.7361 58.6755 68.788C58.653 68.8984 58.5269 68.9661 58.6125 69.072L60.5118 72.3767L60.1157 72.6134ZM62.6923 70.9227C62.5483 70.9408 61.6189 71.8808 61.5312 71.5111C61.3759 71.3353 61.6324 71.2564 61.5019 71.1031L59.5126 68.2289C59.1638 68.3619 59.5981 68.7249 59.6161 69.0066C59.3303 69.5364 59.0625 68.6978 58.896 68.5062C58.5585 68.3236 60.5905 67.1537 60.6715 67.0838C60.9037 67.308 61.1043 67.5628 61.2679 67.8412C61.2071 67.9877 61.0068 68.1117 60.8808 67.9246C60.7053 67.7803 60.5185 67.4873 60.3317 67.6586C60.5028 67.7713 62.3098 70.8619 62.6046 70.5891C62.6811 70.6635 62.8724 70.8506 62.6946 70.9227H62.6923ZM65.3928 68.8015C63.7748 70.1067 64.7987 69.4936 63.9435 68.8015L63.426 69.223C63.5632 69.4485 63.6397 69.6987 63.9503 69.6311C64.3868 69.87 63.6667 70.1518 63.5385 70.3276C63.2977 70.3502 63.3719 69.9557 63.3134 69.8227L61.7022 67.0635C61.6392 66.8381 61.4502 66.9891 61.3174 66.8381C61.2341 66.7164 61.1644 66.6961 61.2589 66.6127C61.862 66.2294 62.0082 65.5396 62.6788 66.3579L64.8842 68.3597C65.0349 68.5287 65.5413 68.504 65.3883 68.8015H65.3928ZM65.6178 65.5464C64.9067 64.9085 63.9908 63.5717 65.1025 63.0668C65.269 63.0668 65.1497 62.8819 65.2082 62.8008C65.3207 62.6655 65.3792 62.6182 65.5458 62.7805C65.638 62.8842 66.3086 63.3418 66.3266 63.4748C66.2546 63.7295 66.0634 63.7002 65.8361 63.5356C65.3162 63.1592 64.8909 63.2989 65.386 63.7746C65.5728 63.8355 67.7151 66.2542 67.9154 65.9229C68.1179 65.7921 67.7084 65.4314 67.6183 65.2173C67.6183 65.0708 67.8434 64.8273 67.9987 65.0279C69.1778 66.8877 66.4842 66.7795 65.6065 65.5464H65.6178ZM70.7103 63.0352C70.5595 63.1569 70.2783 63.7678 70.0172 63.6731C69.5064 63.6731 68.7638 62.253 68.3182 62.9969L69.3579 63.8242C69.5041 63.9437 69.7832 63.8377 69.8529 64.0654C69.9272 64.0992 69.1261 65.0099 69.1148 65.055C69.0383 65.1677 68.7638 64.9378 68.8065 64.8521C69.0856 64.6921 66.3019 62.7444 66.2614 62.6362C66.1376 62.5167 66.0364 62.6024 65.9306 62.6362C65.8541 62.6227 65.6335 62.4108 65.7326 62.3544C66.1421 61.9374 66.7115 60.7877 67.4046 60.7765C68.2012 60.6705 69.0428 61.5091 68.6265 62.3544C69.4096 61.6443 69.9204 62.6881 70.6158 62.8188C70.7238 62.9225 70.7846 62.918 70.6991 63.0352H70.7103ZM68.1157 60.1611C68.0324 60.0844 67.9131 60.1813 67.8321 60.1994C67.7241 60.1408 67.5013 60.0551 67.6071 59.9199C67.7354 59.8522 68.2304 58.6552 68.4487 58.9776C68.3925 59.2842 70.9241 60.8058 71.1671 60.9906C72.8324 61.1755 68.964 59.0317 68.9348 58.928C68.8043 58.8356 68.3385 58.9889 68.424 58.6868C68.6175 58.4749 68.721 57.9113 69.0676 58.3149C69.1216 59.034 71.939 59.9785 71.993 60.7697C71.8557 63.3959 69.0541 60.6638 68.1044 60.1611H68.1157ZM72.6861 59.9627C72.5781 59.8906 69.7607 57.2711 69.6572 57.1877C69.3736 57.4492 69.7562 57.6949 69.9339 57.9632C69.8912 58.6395 69.2588 57.7851 69.0338 57.6927C69.0856 57.6927 69.8484 56.0448 69.9339 56.2049C69.9789 56.2522 72.8999 58.8604 72.9449 58.91C73.395 58.4231 72.3418 58.2855 72.7941 57.8392C72.8864 57.8076 73.4895 58.3667 73.584 58.4118C73.5435 58.4433 72.7649 59.9852 72.6861 59.9627ZM73.611 55.3979C73.5817 55.4835 73.5322 55.718 73.4107 55.6459C72.1933 54.9335 73.0552 55.062 72.9607 54.1468C73.0282 53.5742 73.6628 54.3722 73.809 54.4759C73.8923 54.6562 73.6065 54.9809 73.584 55.1319C73.53 55.2288 73.5863 55.3212 73.6155 55.4024L73.611 55.3979ZM79.3584 46.2502L77.5581 46.1195L77.6616 44.6903C78.3547 44.6204 78.8746 43.4866 78.1117 43.3197C77.5626 43.3197 76.8718 45.2178 76.5477 45.441C74.5944 47.6952 71.7927 44.4266 73.6965 42.4474L73.2847 42.4158L73.3882 40.9799L75.4135 41.1264L75.31 42.5646C73.5277 42.9839 74.8127 45.2178 75.6363 43.0808C76.9685 39.5056 81.2464 41.8815 79.0703 44.7737L79.4597 44.803L79.3584 46.2502Z" fill="#CCD1DC"/>
<path d="M67.9176 62.1178C67.5981 61.9397 66.9657 61.0629 66.6484 61.667L68.0617 62.7941C68.2777 62.5709 68.2867 62.4154 67.9176 62.1178Z" fill="#CCD1DC"/>
</svg>
