<svg width="344" height="83" viewBox="0 0 344 83" fill="none" xmlns="http://www.w3.org/2000/svg">
<path d="M31.7013 61.2376L9.27579 48.6164V23.6368L31.7013 11.0162L44.4055 18.3353L31.7013 25.6529V36.0009L62.8862 18.3353L53.6112 13.0353L53.5839 13.0497L31.7013 0.619141L0 18.3353V53.9186L31.7013 71.5769L62.8862 53.9157L53.6112 48.6164L31.7013 61.2376Z" fill="#CCD1DC"/>
<path d="M31.6992 43.4429V53.7887L62.8841 36.1224L53.6091 30.8274L31.6992 43.4429Z" fill="#CCD1DC"/>
<path d="M97.77 47.1409C97.472 47.0925 81.4951 47.1062 81.1868 47.1062C80.6984 47.104 80.0772 46.5348 80.0772 46.1035C80.0772 45.785 80.01 40.6193 80.0787 40.4373C80.148 40.2574 80.3479 39.587 81.2908 39.5401C81.5593 39.5263 95.1421 39.5567 95.4793 39.5401C95.8142 39.5263 96.1499 39.5444 96.4369 39.5097C96.7261 39.4751 96.9076 39.371 97.0433 39.267C97.2101 39.1673 97.3296 38.9701 97.3982 38.6761C97.4631 38.3792 97.4351 36.2157 97.4314 36.0265C97.4343 35.8358 97.4631 33.6744 97.3982 33.3782C97.3296 33.0814 97.2101 32.8841 97.0433 32.7881C96.9076 32.6862 96.7261 32.5764 96.4369 32.5417C96.1499 32.5092 95.8135 32.5324 95.4793 32.5136C95.1421 32.4991 81.5593 32.528 81.2908 32.5136C80.3487 32.4673 80.148 31.7963 80.0787 31.6164C80.01 31.4336 80.0772 26.2737 80.0772 25.9544C80.0772 25.521 80.6984 24.9511 81.1868 24.9482C81.4959 24.9482 97.472 24.9619 97.77 24.9135C98.3403 24.8196 98.8132 24.5725 98.9364 23.9477C98.9962 23.6255 98.9504 19.3729 98.9364 19.2429C98.9187 19.1107 98.8759 18.9908 98.8088 18.894C98.6413 18.6664 98.3713 18.5292 98.0031 18.4974C97.8165 18.483 73.1939 18.483 73.1622 18.4974C72.7882 18.5985 72.5403 18.7654 72.4045 18.9908C72.2695 19.1591 72.2031 19.3903 72.2031 19.6872V52.3687C72.2031 52.6684 72.2695 52.8967 72.4045 53.0658C72.5403 53.289 72.7889 53.4573 73.1622 53.5598C73.1939 53.5743 97.8165 53.5743 98.0031 53.5598C98.3713 53.5237 98.6413 53.3915 98.8088 53.1633C98.8759 53.065 98.9187 52.9422 98.9364 52.8151C98.9504 52.6836 98.9962 48.4303 98.9364 48.1052C98.8132 47.4818 98.3403 47.2319 97.77 47.1416V47.1409Z" fill="#CCD1DC"/>
<path d="M194.534 47.1409C194.234 47.0925 178.259 47.1062 177.952 47.1062C177.457 47.104 176.84 46.5348 176.84 46.1035C176.84 45.785 176.775 40.6193 176.84 40.4373C176.91 40.2574 177.111 39.587 178.051 39.5401C178.319 39.5263 191.905 39.5567 192.245 39.5401C192.574 39.5263 192.912 39.5444 193.199 39.5097C193.485 39.4751 193.669 39.371 193.806 39.267C193.973 39.1673 194.089 38.9701 194.155 38.6761C194.225 38.3792 194.2 36.2157 194.195 36.0265C194.2 35.8358 194.225 33.6744 194.155 33.3782C194.089 33.0814 193.973 32.8841 193.806 32.7881C193.669 32.6862 193.485 32.5764 193.199 32.5417C192.912 32.5092 192.574 32.5324 192.245 32.5136C191.905 32.4991 178.319 32.528 178.051 32.5136C177.112 32.4673 176.91 31.7963 176.84 31.6164C176.775 31.4336 176.84 26.2737 176.84 25.9544C176.84 25.521 177.457 24.9511 177.952 24.9482C178.259 24.9482 194.234 24.9619 194.534 24.9135C195.098 24.8196 195.578 24.5725 195.701 23.9477C195.762 23.6255 195.714 19.3729 195.701 19.2429C195.679 19.1107 195.638 18.9908 195.57 18.894C195.402 18.6664 195.134 18.5292 194.764 18.4974C194.578 18.483 169.956 18.483 169.926 18.4974C169.552 18.5985 169.299 18.7654 169.168 18.9908C169.033 19.1591 168.965 19.3903 168.965 19.6872V52.3687C168.965 52.6684 169.033 52.8967 169.168 53.0658C169.3 53.289 169.553 53.4573 169.926 53.5598C169.956 53.5743 194.578 53.5743 194.764 53.5598C195.134 53.5237 195.402 53.3915 195.57 53.1633C195.638 53.065 195.679 52.9422 195.701 52.8151C195.714 52.6836 195.762 48.4303 195.701 48.1052C195.577 47.4818 195.098 47.2319 194.534 47.1416V47.1409Z" fill="#CCD1DC"/>
<path d="M114.627 19.7313C114.627 19.2148 114.622 18.4924 113.689 18.4924H107.733C106.8 18.4924 106.797 19.2148 106.797 19.7313V52.472C106.797 52.9907 106.8 53.7124 107.733 53.7124H113.689C114.621 53.7124 114.627 52.9907 114.627 52.472V19.7313Z" fill="#CCD1DC"/>
<path d="M160.122 18.4969C160.053 18.4644 152.019 18.4998 151.464 18.4925C150.535 18.4817 150.014 18.7996 149.672 19.5104C149.531 19.8094 142.215 40.7784 142.149 40.9438C142.08 41.1093 141.959 41.2371 141.797 41.3397C141.631 41.2378 141.513 41.1093 141.443 40.9438C141.377 40.7784 134.065 19.8094 133.922 19.5104C133.583 18.7996 133.057 18.4817 132.126 18.4925C131.573 18.4998 123.538 18.4644 123.469 18.4969C122.848 18.4824 122.461 19.2156 122.461 19.7076V52.5588C122.461 53.0501 122.985 53.5694 123.622 53.5694C123.929 53.5694 128.519 53.5557 128.764 53.56C129.253 53.5694 129.749 53.0681 129.783 52.5104C129.794 52.2489 129.783 36.148 129.783 36.148C129.813 35.7854 129.786 31.9778 129.788 31.7495C129.809 30.9925 130.483 31.0365 130.688 31.4512C130.85 31.7733 138.517 52.6636 138.615 52.876C138.717 53.0977 139.108 53.5752 139.744 53.5702C140.154 53.5651 141.73 53.5752 141.795 53.5702C141.857 53.5752 143.436 53.5651 143.84 53.5702C144.481 53.5752 144.875 53.0977 144.975 52.876C145.075 52.6636 152.741 31.7726 152.899 31.4512C153.107 31.0365 153.784 30.9925 153.798 31.7495C153.806 31.9778 153.775 35.7854 153.809 36.148C153.809 36.148 153.797 52.2482 153.809 52.5104C153.838 53.0681 154.339 53.5694 154.825 53.56C155.071 53.5557 159.662 53.5694 159.97 53.5694C160.603 53.5694 161.128 53.0501 161.128 52.5588V19.7076C161.128 19.2156 160.74 18.4824 160.12 18.4969H160.122Z" fill="#CCD1DC"/>
<path d="M217.375 53.5675C229.668 53.5675 232.819 42.8165 232.824 42.5145C232.844 41.4028 232.203 41.1254 231.585 41.1254C229.932 41.1254 227.629 41.1442 226.89 41.155C226.65 41.155 226.205 41.1254 226.124 41.4692C224.457 44.9915 221.221 47.384 217.504 47.384C216.314 47.384 215.178 47.1305 214.126 46.6811C214.064 46.6609 213.999 46.6393 213.943 46.6169C212.888 46.2058 212.061 45.5998 211.347 44.8716C210.298 43.8942 209.428 42.6734 208.797 41.2814C208.227 40.1675 207.873 38.7994 207.745 37.3337C207.726 37.1357 207.716 36.9349 207.709 36.7384C207.701 36.5427 207.684 36.3556 207.684 36.1591C207.684 36.1136 207.677 36.071 207.677 36.0247C207.677 35.0235 207.799 34.0599 208.008 33.1367V33.1302C209.118 28.26 212.942 24.6669 217.503 24.6669C221.294 24.6669 224.574 27.1533 226.214 30.7904C226.384 31.0527 226.679 31.049 226.889 31.049C227.629 31.0563 229.931 31.0772 231.584 31.0772C232.203 31.0772 233.02 30.6835 232.823 29.6838C232.764 29.3883 229.666 18.4899 217.408 18.552H217.364C207.94 18.5564 200.297 26.1998 200.105 35.6961C200.102 35.8405 200.09 35.985 200.09 36.1273C200.125 45.7652 207.849 53.5718 217.374 53.5668L217.375 53.5675Z" fill="#CCD1DC"/>
<path d="M80.4073 70.5818C80.0362 71.6039 79.7344 72.6709 79.3633 73.693H79.2704C78.8993 72.6709 78.5511 71.6039 78.18 70.5818L75.2577 62.6321H72.9375V77.5317H74.6771V69.3321C74.6771 68.0152 74.5384 66.2432 74.4455 64.9256H74.5384L75.7447 68.3099L78.6212 76.0328H79.8967L82.7725 68.3099L83.9795 64.9256H84.0717C83.9795 66.2425 83.8172 68.0145 83.8172 69.3321V77.5317H85.6261V62.6321H83.283L80.4065 70.5818H80.4073Z" fill="#CCD1DC"/>
<path d="M93.8358 66.2212C92.0269 66.2212 90.4488 66.9934 89.4049 67.6515L90.1471 68.9467C91.0287 68.3565 92.212 67.7649 93.5112 67.7649C95.3667 67.7649 95.8307 69.128 95.8307 70.5366C91.0294 71.0589 88.918 72.2624 88.918 74.67C88.918 76.6464 90.333 77.8051 92.212 77.8051C93.6271 77.8051 94.879 77.0784 95.9466 76.2152H96.0159L96.1782 77.5321H97.7555V70.7635C97.7555 68.0148 96.5958 66.2205 93.8351 66.2205L93.8358 66.2212ZM95.8307 74.8297C94.7411 75.7832 93.8594 76.3055 92.769 76.3055C91.6786 76.3055 90.7742 75.7832 90.7742 74.5342C90.7742 73.1256 92.0733 72.2176 95.8307 71.7625V74.829V74.8297Z" fill="#CCD1DC"/>
<path d="M104.945 71.1723C103.669 70.6955 102.44 70.3091 102.44 69.2638C102.44 68.4237 103.089 67.6746 104.504 67.6746C105.501 67.6746 106.313 68.0835 107.079 68.6512L107.983 67.4694C107.125 66.7875 105.895 66.2205 104.481 66.2205C102.045 66.2205 100.607 67.5829 100.607 69.3548C100.607 71.2171 102.37 71.9669 103.97 72.534C105.2 72.9884 106.545 73.4882 106.545 74.6238C106.545 75.5773 105.803 76.3503 104.319 76.3503C102.973 76.3503 101.976 75.8042 101.002 75.0319L100.051 76.2816C101.118 77.1442 102.649 77.8037 104.249 77.8037C106.917 77.8037 108.379 76.304 108.379 74.5097C108.379 72.4198 106.569 71.761 104.946 71.1709L104.945 71.1723Z" fill="#CCD1DC"/>
<path d="M115.011 76.2822C113.712 76.2822 113.272 75.5093 113.272 74.1469V68.014H116.31V66.4919H113.272V63.4031H111.671L111.439 66.4919L109.676 66.6053V68.014H111.346V74.1238C111.346 76.3039 112.158 77.8043 114.571 77.8043C115.266 77.8043 116.032 77.5998 116.659 77.3947L116.288 75.9868C115.916 76.1226 115.406 76.2822 115.012 76.2822H115.011Z" fill="#CCD1DC"/>
<path d="M123.088 66.2205C120.513 66.2205 118.031 68.423 118.031 72.0348C118.031 75.6467 120.42 77.8044 123.436 77.8044C124.967 77.8044 126.173 77.2814 127.148 76.6681L126.475 75.4415C125.64 75.9645 124.735 76.3048 123.668 76.3048C121.511 76.3048 120.05 74.8058 119.911 72.4668H127.52C127.566 72.1937 127.589 71.7849 127.589 71.3984C127.589 68.2409 125.965 66.2205 123.089 66.2205H123.088ZM119.887 71.1268C120.118 68.9467 121.557 67.6963 123.134 67.6963C124.897 67.6963 125.917 68.8997 125.917 71.1268H119.887Z" fill="#CCD1DC"/>
<path d="M132.181 68.4916H132.111L131.949 66.4928H130.371V77.5313H132.274V70.4449C133.039 68.5826 134.176 67.9007 135.127 67.9007C135.591 67.9007 135.847 67.9686 136.218 68.0827L136.589 66.4473C136.218 66.2884 135.87 66.2205 135.382 66.2205C134.106 66.2205 132.947 67.1061 132.181 68.4916Z" fill="#CCD1DC"/>
<path d="M140.325 66.4937H138.422V77.5322H140.325V66.4937Z" fill="#CCD1DC"/>
<path d="M139.392 61.8135C138.65 61.8135 138.07 62.2902 138.07 63.0169C138.07 63.7436 138.65 64.2204 139.392 64.2204C140.135 64.2204 140.714 63.7205 140.714 63.0169C140.714 62.3134 140.135 61.8135 139.392 61.8135Z" fill="#CCD1DC"/>
<path d="M149.712 66.2205C148.157 66.2205 146.998 67.0375 145.931 68.0827H145.861L145.699 66.4928H144.121V77.5313H146.024V69.5361C147.161 68.423 147.949 67.8328 149.109 67.8328C150.593 67.8328 151.243 68.7191 151.243 70.7851V77.5313H153.146V70.5359C153.146 67.7194 152.079 66.2205 149.713 66.2205H149.712Z" fill="#CCD1DC"/>
<path d="M162.38 76.1682H160.2C158.668 76.1682 158.205 75.6691 158.205 74.9648C158.205 74.3515 158.529 73.9881 158.923 73.6479C159.434 73.8978 160.06 74.0343 160.617 74.0343C162.913 74.0343 164.746 72.5578 164.746 70.1957C164.746 69.2638 164.352 68.4237 163.818 67.9245H166.137V66.4928H162.217C161.799 66.3339 161.242 66.2205 160.616 66.2205C158.32 66.2205 156.371 67.7425 156.371 70.1494C156.371 71.4663 157.091 72.534 157.833 73.1249V73.2152C157.252 73.6016 156.603 74.3284 156.603 75.2602C156.603 76.1227 157.044 76.7136 157.601 77.0546V77.1449C156.58 77.8268 155.953 78.7117 155.953 79.6436C155.953 81.5521 157.856 82.619 160.616 82.619C164.118 82.619 166.322 80.847 166.322 78.8034C166.322 76.9636 165 76.1682 162.378 76.1682H162.38ZM160.617 67.5828C161.939 67.5828 163.006 68.5364 163.006 70.1494C163.006 71.7625 161.916 72.7839 160.617 72.7839C159.318 72.7839 158.228 71.7618 158.228 70.1494C158.228 68.5371 159.294 67.5828 160.617 67.5828ZM160.895 81.3245C158.854 81.3245 157.625 80.5754 157.625 79.3943C157.625 78.7587 157.973 78.1006 158.785 77.5321C159.272 77.6686 159.805 77.7141 160.246 77.7141H162.195C163.656 77.7141 164.468 78.0543 164.468 79.0765C164.468 80.2352 163.053 81.3252 160.896 81.3252L160.895 81.3245Z" fill="#CCD1DC"/>
<path d="M176.458 62.6321L171.309 77.5317H173.28L174.741 72.9887H180.286L181.723 77.5317H183.788L178.638 62.6321H176.457H176.458ZM179.799 71.4674H175.229L175.948 69.1963C176.505 67.5377 176.992 65.9023 177.456 64.1758H177.549C178.036 65.9023 178.523 67.5377 179.08 69.1963L179.799 71.4674H179.799Z" fill="#CCD1DC"/>
<path d="M189.982 66.2205C187.408 66.2205 184.926 68.423 184.926 72.0348C184.926 75.6467 187.315 77.8044 190.331 77.8044C191.861 77.8044 193.068 77.2814 194.042 76.6681L193.369 75.4415C192.535 75.9645 191.63 76.3048 190.563 76.3048C188.406 76.3048 186.944 74.8058 186.806 72.4668H194.414C194.461 72.1937 194.483 71.7849 194.483 71.3984C194.483 68.2409 192.86 66.2205 189.983 66.2205H189.982ZM186.781 71.1268C187.013 68.9467 188.452 67.6963 190.028 67.6963C191.791 67.6963 192.812 68.8997 192.812 71.1268H186.781Z" fill="#CCD1DC"/>
<path d="M200.902 71.1723C199.626 70.6955 198.397 70.3091 198.397 69.2638C198.397 68.4237 199.046 67.6746 200.461 67.6746C201.458 67.6746 202.27 68.0835 203.036 68.6512L203.94 67.4694C203.082 66.7875 201.852 66.2205 200.438 66.2205C198.002 66.2205 196.564 67.5829 196.564 69.3548C196.564 71.2171 198.327 71.9669 199.927 72.534C201.157 72.9884 202.502 73.4882 202.502 74.6238C202.502 75.5773 201.76 76.3503 200.276 76.3503C198.93 76.3503 197.933 75.8042 196.959 75.0319L196.008 76.2816C197.075 77.1442 198.606 77.8037 200.206 77.8037C202.874 77.8037 204.336 76.304 204.336 74.5097C204.336 72.4198 202.526 71.761 200.903 71.1709L200.902 71.1723Z" fill="#CCD1DC"/>
<path d="M210.976 76.2822C209.677 76.2822 209.236 75.5093 209.236 74.1469V68.014H212.275V66.4919H209.236V63.4031H207.636L207.404 66.4919L205.641 66.6053V68.014H207.311V74.1238C207.311 76.3039 208.123 77.8043 210.536 77.8043C211.231 77.8043 211.996 77.5998 212.623 77.3947L212.252 75.9868C211.881 76.1226 211.371 76.2822 210.977 76.2822H210.976Z" fill="#CCD1DC"/>
<path d="M220.412 66.2217C218.857 66.2217 217.721 67.0387 216.654 68.0384L216.723 65.7666V61.3601H214.82V77.5318H216.723V69.5366C217.86 68.4235 218.649 67.8333 219.808 67.8333C221.293 67.8333 221.943 68.7196 221.943 70.7856V77.5318H223.845V70.5364C223.845 67.7199 222.778 66.2209 220.412 66.2209L220.412 66.2217Z" fill="#CCD1DC"/>
<path d="M231.666 66.2205C229.091 66.2205 226.609 68.423 226.609 72.0348C226.609 75.6467 228.998 77.8044 232.014 77.8044C233.545 77.8044 234.751 77.2814 235.726 76.6681L235.053 75.4415C234.219 75.9645 233.313 76.3048 232.247 76.3048C230.089 76.3048 228.628 74.8058 228.489 72.4668H236.098C236.144 72.1937 236.167 71.7849 236.167 71.3984C236.167 68.2409 234.543 66.2205 231.667 66.2205H231.666ZM228.466 71.1268C228.697 68.9467 230.136 67.6963 231.712 67.6963C233.476 67.6963 234.496 68.8997 234.496 71.1268H228.466Z" fill="#CCD1DC"/>
<path d="M242.937 76.2822C241.638 76.2822 241.197 75.5093 241.197 74.1469V68.014H244.236V66.4919H241.197V63.4031H239.597L239.365 66.4919L237.602 66.6053V68.014H239.272V74.1238C239.272 76.3039 240.084 77.8043 242.497 77.8043C243.192 77.8043 243.957 77.5998 244.584 77.3947L244.213 75.9868C243.842 76.1226 243.332 76.2822 242.938 76.2822H242.937Z" fill="#CCD1DC"/>
<path d="M247.763 61.8135C247.021 61.8135 246.441 62.2902 246.441 63.0169C246.441 63.7436 247.021 64.2204 247.763 64.2204C248.506 64.2204 249.086 63.7205 249.086 63.0169C249.086 62.3134 248.506 61.8135 247.763 61.8135Z" fill="#CCD1DC"/>
<path d="M248.688 66.4937H246.785V77.5322H248.688V66.4937Z" fill="#CCD1DC"/>
<path d="M257.107 76.2592C255.043 76.2592 253.628 74.5559 253.628 72.0348C253.628 69.5137 255.112 67.7642 257.153 67.7642C258.058 67.7642 258.753 68.173 259.403 68.7408L260.378 67.5142C259.589 66.8106 258.568 66.2205 257.084 66.2205C254.185 66.2205 251.656 68.3327 251.656 72.0348C251.656 75.737 253.952 77.8044 256.944 77.8044C258.29 77.8044 259.566 77.2814 260.587 76.3958L259.752 75.1461C259.055 75.7594 258.151 76.2592 257.107 76.2592Z" fill="#CCD1DC"/>
<path d="M272.233 62.6321H267.895V77.5317H269.82V71.627H272.325C275.666 71.627 277.939 70.1505 277.939 67.0161C277.939 63.8818 275.642 62.6321 272.233 62.6321ZM272.093 70.0819H269.819V64.1541H272C274.668 64.1541 276.013 64.8577 276.013 67.0161C276.013 69.1746 274.737 70.0819 272.092 70.0819H272.093Z" fill="#CCD1DC"/>
<path d="M282.646 68.4916H282.576L282.414 66.4928H280.836V77.5313H282.739V70.4449C283.504 68.5826 284.641 67.9007 285.592 67.9007C286.056 67.9007 286.312 67.9686 286.683 68.0827L287.054 66.4473C286.683 66.2884 286.334 66.2205 285.847 66.2205C284.571 66.2205 283.411 67.1061 282.646 68.4916Z" fill="#CCD1DC"/>
<path d="M293.109 66.2212C291.3 66.2212 289.723 66.9934 288.678 67.6515L289.42 68.9467C290.302 68.3565 291.485 67.7649 292.784 67.7649C294.639 67.7649 295.104 69.128 295.104 70.5366C290.302 71.0589 288.191 72.2624 288.191 74.67C288.191 76.6464 289.606 77.8051 291.485 77.8051C292.9 77.8051 294.153 77.0784 295.221 76.2152H295.29L295.452 77.5321H297.03V70.7635C297.03 68.0148 295.87 66.2205 293.109 66.2205V66.2212ZM295.105 74.8297C294.015 75.7832 293.133 76.3055 292.042 76.3055C290.952 76.3055 290.048 75.7832 290.048 74.5342C290.048 73.1256 291.347 72.2176 295.105 71.7625V74.829V74.8297Z" fill="#CCD1DC"/>
<path d="M305.19 76.2592C303.126 76.2592 301.711 74.5559 301.711 72.0348C301.711 69.5137 303.195 67.7642 305.237 67.7642C306.141 67.7642 306.837 68.173 307.487 68.7408L308.461 67.5142C307.672 66.8106 306.652 66.2205 305.167 66.2205C302.267 66.2205 299.738 68.3327 299.738 72.0348C299.738 75.737 302.035 77.8044 305.027 77.8044C306.372 77.8044 307.649 77.2814 308.669 76.3958L307.834 75.1461C307.137 75.7594 306.233 76.2592 305.189 76.2592H305.19Z" fill="#CCD1DC"/>
<path d="M315.144 76.2822C313.845 76.2822 313.404 75.5093 313.404 74.1469V68.014H316.443V66.4919H313.404V63.4031H311.804L311.572 66.4919L309.809 66.6053V68.014H311.479V74.1238C311.479 76.3039 312.291 77.8043 314.704 77.8043C315.399 77.8043 316.164 77.5998 316.791 77.3947L316.42 75.9868C316.049 76.1226 315.539 76.2822 315.145 76.2822H315.144Z" fill="#CCD1DC"/>
<path d="M319.967 61.8135C319.224 61.8135 318.645 62.2902 318.645 63.0169C318.645 63.7436 319.224 64.2204 319.967 64.2204C320.709 64.2204 321.289 63.7205 321.289 63.0169C321.289 62.3134 320.709 61.8135 319.967 61.8135Z" fill="#CCD1DC"/>
<path d="M320.899 66.4937H318.996V77.5322H320.899V66.4937Z" fill="#CCD1DC"/>
<path d="M329.314 76.2592C327.25 76.2592 325.835 74.5559 325.835 72.0348C325.835 69.5137 327.319 67.7642 329.36 67.7642C330.265 67.7642 330.96 68.173 331.61 68.7408L332.585 67.5142C331.796 66.8106 330.775 66.2205 329.291 66.2205C326.392 66.2205 323.863 68.3327 323.863 72.0348C323.863 75.737 326.159 77.8044 329.152 77.8044C330.497 77.8044 331.773 77.2814 332.794 76.3958L331.959 75.1461C331.262 75.7594 330.358 76.2592 329.314 76.2592Z" fill="#CCD1DC"/>
<path d="M343.999 71.3984C343.999 68.2409 342.375 66.2205 339.499 66.2205C336.924 66.2205 334.441 68.423 334.441 72.0348C334.441 75.6467 336.831 77.8044 339.847 77.8044C341.378 77.8044 342.584 77.2814 343.559 76.6681L342.886 75.4415C342.05 75.9645 341.146 76.3048 340.079 76.3048C337.921 76.3048 336.46 74.8058 336.321 72.4668H343.93C343.976 72.1937 343.999 71.7849 343.999 71.3984ZM336.298 71.1268C336.53 68.9467 337.968 67.6963 339.546 67.6963C341.308 67.6963 342.329 68.8997 342.329 71.1268H336.298Z" fill="#CCD1DC"/>
</svg>
