<svg width="344" height="84" viewBox="0 0 344 84" fill="none" xmlns="http://www.w3.org/2000/svg">
<g clip-path="url(#clip0_6875_13693)">
<path d="M31.7013 61.7396L9.27579 49.1184V24.1388L31.7013 11.5182L44.4055 18.8373L31.7013 26.1549V36.5029L62.8862 18.8373L53.6112 13.5373L53.5839 13.5517L31.7013 1.12109L0 18.8373V54.4206L31.7013 72.0788L62.8862 54.4177L53.6112 49.1184L31.7013 61.7396Z" fill="#5B585A"/>
<path d="M31.6953 43.9436V54.2894L62.8802 36.6231L53.6052 31.3281L31.6953 43.9436Z" fill="#5B585A"/>
<path d="M97.77 47.6426C97.472 47.5942 81.4951 47.6079 81.1868 47.6079C80.6984 47.6057 80.0772 47.0365 80.0772 46.6052C80.0772 46.2867 80.01 41.121 80.0787 40.939C80.148 40.7591 80.3479 40.0887 81.2908 40.0418C81.5593 40.028 95.1421 40.0584 95.4793 40.0418C95.8142 40.028 96.1499 40.0461 96.4369 40.0114C96.7261 39.9768 96.9076 39.8727 97.0433 39.7687C97.2101 39.669 97.3296 39.4718 97.3982 39.1778C97.4631 38.8809 97.4351 36.7174 97.4314 36.5282C97.4343 36.3375 97.4631 34.1761 97.3982 33.8799C97.3296 33.5831 97.2101 33.3858 97.0433 33.2898C96.9076 33.1879 96.7261 33.0781 96.4369 33.0434C96.1499 33.0109 95.8135 33.0341 95.4793 33.0153C95.1421 33.0008 81.5593 33.0297 81.2908 33.0153C80.3487 32.969 80.148 32.298 80.0787 32.1181C80.01 31.9353 80.0772 26.7754 80.0772 26.4561C80.0772 26.0227 80.6984 25.4528 81.1868 25.4499C81.4959 25.4499 97.472 25.4636 97.77 25.4152C98.3403 25.3213 98.8132 25.0742 98.9364 24.4494C98.9962 24.1272 98.9504 19.8746 98.9364 19.7446C98.9187 19.6124 98.8759 19.4925 98.8088 19.3957C98.6413 19.1681 98.3713 19.0309 98.0031 18.9991C97.8165 18.9847 73.1939 18.9847 73.1622 18.9991C72.7882 19.1002 72.5403 19.2671 72.4045 19.4925C72.2695 19.6608 72.2031 19.892 72.2031 20.1889V52.8704C72.2031 53.1701 72.2695 53.3984 72.4045 53.5675C72.5403 53.7907 72.7889 53.959 73.1622 54.0615C73.1939 54.076 97.8165 54.076 98.0031 54.0615C98.3713 54.0254 98.6413 53.8932 98.8088 53.665C98.8759 53.5667 98.9187 53.4439 98.9364 53.3168C98.9504 53.1853 98.9962 48.932 98.9364 48.6069C98.8132 47.9835 98.3403 47.7329 97.77 47.6426Z" fill="#5B585A"/>
<path d="M194.538 47.6426C194.238 47.5942 178.263 47.6079 177.956 47.6079C177.461 47.6057 176.844 47.0365 176.844 46.6052C176.844 46.2867 176.779 41.121 176.844 40.939C176.914 40.7591 177.115 40.0887 178.055 40.0418C178.323 40.028 191.909 40.0584 192.249 40.0418C192.578 40.028 192.916 40.0461 193.203 40.0114C193.489 39.9768 193.673 39.8727 193.81 39.7687C193.977 39.669 194.093 39.4718 194.159 39.1778C194.229 38.8809 194.204 36.7174 194.199 36.5282C194.204 36.3375 194.229 34.1761 194.159 33.8799C194.093 33.5831 193.977 33.3858 193.81 33.2898C193.673 33.1879 193.489 33.0781 193.203 33.0434C192.916 33.0109 192.578 33.0341 192.249 33.0153C191.909 33.0008 178.323 33.0297 178.055 33.0153C177.116 32.969 176.914 32.298 176.844 32.1181C176.779 31.9353 176.844 26.7754 176.844 26.4561C176.844 26.0227 177.461 25.4528 177.956 25.4499C178.263 25.4499 194.238 25.4636 194.538 25.4152C195.102 25.3213 195.582 25.0742 195.705 24.4494C195.766 24.1272 195.718 19.8746 195.705 19.7446C195.683 19.6124 195.642 19.4925 195.574 19.3957C195.406 19.1681 195.138 19.0309 194.768 18.9991C194.582 18.9847 169.96 18.9847 169.93 18.9991C169.556 19.1002 169.303 19.2671 169.172 19.4925C169.037 19.6608 168.969 19.892 168.969 20.1889V52.8704C168.969 53.1701 169.037 53.3984 169.172 53.5675C169.304 53.7907 169.557 53.959 169.93 54.0615C169.96 54.076 194.582 54.076 194.768 54.0615C195.138 54.0254 195.406 53.8932 195.574 53.665C195.642 53.5667 195.683 53.4439 195.705 53.3168C195.718 53.1853 195.766 48.932 195.705 48.6069C195.581 47.9835 195.102 47.7329 194.538 47.6426Z" fill="#5B585A"/>
<path d="M114.627 20.2311C114.627 19.7146 114.622 18.9922 113.689 18.9922H107.733C106.8 18.9922 106.797 19.7146 106.797 20.2311V52.9718C106.797 53.4905 106.8 54.2122 107.733 54.2122H113.689C114.621 54.2122 114.627 53.4905 114.627 52.9718V20.2311Z" fill="#5B585A"/>
<path d="M160.122 18.9983C160.053 18.9658 152.019 19.0012 151.464 18.9939C150.535 18.9831 150.014 19.301 149.672 20.0118C149.531 20.3108 142.215 41.2798 142.149 41.4452C142.08 41.6107 141.959 41.7385 141.797 41.8411C141.631 41.7392 141.513 41.6107 141.443 41.4452C141.377 41.2798 134.065 20.3108 133.922 20.0118C133.583 19.301 133.057 18.9831 132.126 18.9939C131.573 19.0012 123.538 18.9658 123.469 18.9983C122.848 18.9838 122.461 19.717 122.461 20.209V53.0602C122.461 53.5515 122.985 54.0708 123.622 54.0708C123.929 54.0708 128.519 54.0571 128.764 54.0614C129.253 54.0708 129.749 53.5695 129.783 53.0118C129.794 52.7503 129.783 36.6494 129.783 36.6494C129.813 36.2868 129.786 32.4792 129.788 32.2509C129.809 31.4939 130.483 31.5379 130.688 31.9526C130.85 32.2747 138.517 53.165 138.615 53.3774C138.717 53.5991 139.108 54.0766 139.744 54.0716C140.154 54.0665 141.73 54.0766 141.795 54.0716C141.857 54.0766 143.436 54.0665 143.84 54.0716C144.481 54.0766 144.875 53.5991 144.975 53.3774C145.075 53.165 152.741 32.274 152.899 31.9526C153.107 31.5379 153.784 31.4939 153.798 32.2509C153.806 32.4792 153.775 36.2868 153.809 36.6494C153.809 36.6494 153.797 52.7496 153.809 53.0118C153.838 53.5695 154.339 54.0708 154.825 54.0614C155.071 54.0571 159.662 54.0708 159.97 54.0708C160.603 54.0708 161.128 53.5515 161.128 53.0602V20.209C161.128 19.717 160.74 18.9838 160.12 18.9983H160.122Z" fill="#5B585A"/>
<path d="M217.379 54.0665C229.672 54.0665 232.823 43.3155 232.828 43.0135C232.848 41.9018 232.207 41.6244 231.589 41.6244C229.936 41.6244 227.633 41.6432 226.894 41.654C226.654 41.654 226.209 41.6244 226.128 41.9682C224.461 45.4905 221.225 47.883 217.508 47.883C216.318 47.883 215.182 47.6295 214.13 47.1801C214.068 47.1599 214.003 47.1383 213.947 47.1159C212.892 46.7048 212.065 46.0988 211.351 45.3706C210.302 44.3932 209.432 43.1724 208.801 41.7804C208.231 40.6665 207.877 39.2984 207.749 37.8327C207.73 37.6347 207.72 37.4339 207.713 37.2374C207.705 37.0417 207.688 36.8546 207.688 36.6581C207.688 36.6126 207.681 36.57 207.681 36.5237C207.681 35.5225 207.803 34.5589 208.012 33.6357V33.6292C209.122 28.759 212.946 25.1659 217.507 25.1659C221.298 25.1659 224.578 27.6523 226.218 31.2894C226.388 31.5517 226.683 31.548 226.893 31.548C227.633 31.5553 229.935 31.5762 231.588 31.5762C232.207 31.5762 233.024 31.1825 232.827 30.1828C232.768 29.8873 229.67 18.9889 217.412 19.051H217.368C207.944 19.0554 200.301 26.6988 200.109 36.1951C200.106 36.3395 200.094 36.484 200.094 36.6263C200.129 46.2642 207.853 54.0708 217.378 54.0658L217.379 54.0665Z" fill="#5B585A"/>
<path d="M80.4073 71.0825C80.0362 72.1046 79.7344 73.1716 79.3633 74.1937H79.2704C78.8993 73.1716 78.5511 72.1046 78.18 71.0825L75.2577 63.1328H72.9375V78.0324H74.6771V69.8328C74.6771 68.5159 74.5384 66.7439 74.4455 65.4263H74.5384L75.7447 68.8106L78.6212 76.5335H79.8967L82.7725 68.8106L83.9795 65.4263H84.0717C83.9795 66.7432 83.8172 68.5152 83.8172 69.8328V78.0324H85.6261V63.1328H83.283L80.4073 71.0825Z" fill="#5B585A"/>
<path d="M93.8397 66.7195C92.0308 66.7195 90.4527 67.4916 89.4088 68.1497L90.151 69.445C91.0326 68.8548 92.2159 68.2632 93.5151 68.2632C95.3706 68.2632 95.8346 69.6263 95.8346 71.0349C91.0333 71.5572 88.9219 72.7607 88.9219 75.1683C88.9219 77.1447 90.3369 78.3034 92.2159 78.3034C93.631 78.3034 94.8829 77.5767 95.9505 76.7135H96.0198L96.1821 78.0303H97.7594V71.2617C97.7594 68.513 96.6004 66.7195 93.8397 66.7195ZM95.8346 75.3279C94.745 76.2814 93.8633 76.8037 92.7729 76.8037C91.6825 76.8037 90.7781 76.2815 90.7781 75.0325C90.7781 73.6239 92.0772 72.7158 95.8346 72.2607V75.3279Z" fill="#5B585A"/>
<path d="M104.949 71.6706C103.673 71.1938 102.444 70.8074 102.444 69.7621C102.444 68.922 103.093 68.1729 104.508 68.1729C105.505 68.1729 106.317 68.5818 107.083 69.1495L107.987 67.9677C107.129 67.2858 105.899 66.7188 104.485 66.7188C102.049 66.7188 100.611 68.0812 100.611 69.8531C100.611 71.7154 102.374 72.4651 103.974 73.0322C105.204 73.4866 106.549 73.9865 106.549 75.1221C106.549 76.0756 105.807 76.8486 104.323 76.8486C102.977 76.8486 101.98 76.3025 101.006 75.5302L100.055 76.7799C101.122 77.6425 102.653 78.302 104.253 78.302C106.921 78.302 108.383 76.8022 108.383 75.0079C108.383 72.918 106.573 72.2593 104.95 71.6692L104.949 71.6706Z" fill="#5B585A"/>
<path d="M115.015 76.7814C113.716 76.7814 113.276 76.0085 113.276 74.6461V68.5132H116.314V66.9911H113.276V63.9023H111.675L111.443 66.9911L109.68 67.1045V68.5132H111.35V74.623C111.35 76.8031 112.162 78.3035 114.575 78.3035C115.27 78.3035 116.036 78.099 116.663 77.8939L116.292 76.486C115.92 76.6218 115.409 76.7814 115.015 76.7814Z" fill="#5B585A"/>
<path d="M123.088 66.7188C120.513 66.7188 118.031 68.9213 118.031 72.5331C118.031 76.145 120.42 78.3027 123.436 78.3027C124.967 78.3027 126.173 77.7797 127.148 77.1664L126.475 75.9398C125.64 76.4628 124.735 76.8031 123.668 76.8031C121.511 76.8031 120.05 75.304 119.911 72.965H127.52C127.566 72.6919 127.589 72.2832 127.589 71.8967C127.589 68.7392 125.964 66.7188 123.088 66.7188ZM119.887 71.6251C120.118 69.445 121.557 68.1945 123.134 68.1945C124.897 68.1945 125.917 69.398 125.917 71.6251H119.887Z" fill="#5B585A"/>
<path d="M132.177 68.9899H132.107L131.945 66.9911H130.367V78.0296H132.27V70.9432C133.035 69.0809 134.172 68.399 135.123 68.399C135.587 68.399 135.843 68.4669 136.214 68.581L136.585 66.9456C136.214 66.7867 135.866 66.7188 135.378 66.7188C134.102 66.7188 132.943 67.6044 132.177 68.9899Z" fill="#5B585A"/>
<path d="M140.325 66.9922H138.422V78.0307H140.325V66.9922Z" fill="#5B585A"/>
<path d="M139.392 62.3125C138.65 62.3125 138.07 62.7892 138.07 63.5159C138.07 64.2426 138.65 64.7194 139.392 64.7194C140.135 64.7194 140.714 64.2195 140.714 63.5159C140.714 62.8124 140.135 62.3125 139.392 62.3125Z" fill="#5B585A"/>
<path d="M149.708 66.7188C148.153 66.7188 146.994 67.5358 145.927 68.581H145.857L145.695 66.9911H144.117V78.0296H146.02V70.0344C147.157 68.9213 147.945 68.3311 149.105 68.3311C150.589 68.3311 151.239 69.2174 151.239 71.2834V78.0296H153.142V71.0341C153.142 68.2176 152.074 66.7188 149.708 66.7188Z" fill="#5B585A"/>
<path d="M162.38 76.6665H160.2C158.668 76.6665 158.205 76.1674 158.205 75.4631C158.205 74.8498 158.529 74.4864 158.923 74.1462C159.434 74.3961 160.06 74.5326 160.617 74.5326C162.913 74.5326 164.746 73.0561 164.746 70.694C164.746 69.7621 164.352 68.922 163.818 68.4228H166.137V66.9911H162.217C161.799 66.8322 161.242 66.7188 160.616 66.7188C158.32 66.7188 156.371 68.2408 156.371 70.6477C156.371 71.9646 157.091 73.0323 157.833 73.6232V73.7135C157.252 74.0999 156.603 74.8267 156.603 75.7585C156.603 76.621 157.044 77.2119 157.601 77.5529V77.6432C156.58 78.3251 155.953 79.21 155.953 80.1419C155.953 82.0504 157.856 83.1173 160.616 83.1173C164.118 83.1173 166.322 81.3453 166.322 79.3017C166.322 77.4619 165 76.6665 162.378 76.6665H162.38ZM160.617 68.0811C161.939 68.0811 163.006 69.0347 163.006 70.6477C163.006 72.2608 161.916 73.2822 160.617 73.2822C159.318 73.2822 158.228 72.2601 158.228 70.6477C158.228 69.0354 159.294 68.0811 160.617 68.0811ZM160.895 81.8228C158.854 81.8228 157.625 81.0737 157.625 79.8926C157.625 79.257 157.973 78.5988 158.785 78.0303C159.272 78.1668 159.805 78.2124 160.246 78.2124H162.195C163.656 78.2124 164.468 78.5526 164.468 79.5748C164.468 80.7335 163.053 81.8235 160.896 81.8235L160.895 81.8228Z" fill="#5B585A"/>
<path d="M176.461 63.1328L171.312 78.0324H173.283L174.744 73.4894H180.289L181.727 78.0324H183.791L178.641 63.1328H176.461ZM179.802 71.9681H175.232L175.951 69.697C176.508 68.0384 176.995 66.403 177.459 64.6765H177.552C178.039 66.403 178.526 68.0384 179.083 69.697L179.802 71.9681Z" fill="#5B585A"/>
<path d="M189.986 66.7188C187.412 66.7188 184.93 68.9213 184.93 72.5331C184.93 76.145 187.319 78.3027 190.335 78.3027C191.865 78.3027 193.072 77.7797 194.046 77.1664L193.373 75.9398C192.539 76.4628 191.634 76.8031 190.567 76.8031C188.41 76.8031 186.948 75.304 186.81 72.965H194.418C194.465 72.6919 194.487 72.2832 194.487 71.8967C194.487 68.7392 192.864 66.7188 189.987 66.7188H189.986ZM186.785 71.6251C187.017 69.445 188.456 68.1945 190.032 68.1945C191.795 68.1945 192.816 69.398 192.816 71.6251H186.785Z" fill="#5B585A"/>
<path d="M200.902 71.6706C199.626 71.1938 198.397 70.8074 198.397 69.7621C198.397 68.922 199.046 68.1729 200.461 68.1729C201.458 68.1729 202.27 68.5818 203.036 69.1495L203.94 67.9677C203.082 67.2858 201.852 66.7188 200.438 66.7188C198.002 66.7188 196.564 68.0812 196.564 69.8531C196.564 71.7154 198.327 72.4651 199.927 73.0322C201.157 73.4866 202.502 73.9865 202.502 75.1221C202.502 76.0756 201.76 76.8486 200.276 76.8486C198.93 76.8486 197.933 76.3025 196.959 75.5302L196.008 76.7799C197.075 77.6425 198.606 78.302 200.206 78.302C202.874 78.302 204.336 76.8022 204.336 75.0079C204.336 72.918 202.526 72.2593 200.903 71.6692L200.902 71.6706Z" fill="#5B585A"/>
<path d="M210.976 76.7814C209.677 76.7814 209.236 76.0085 209.236 74.6461V68.5132H212.275V66.9911H209.236V63.9023H207.636L207.404 66.9911L205.641 67.1045V68.5132H207.311V74.623C207.311 76.8031 208.123 78.3035 210.536 78.3035C211.231 78.3035 211.996 78.099 212.623 77.8939L212.252 76.486C211.881 76.6218 211.371 76.7814 210.977 76.7814H210.976Z" fill="#5B585A"/>
<path d="M220.412 66.721C218.857 66.721 217.721 67.538 216.654 68.5377L216.723 66.2659V61.8594H214.82V78.0311H216.723V70.0359C217.86 68.9228 218.649 68.3326 219.808 68.3326C221.293 68.3326 221.943 69.2189 221.943 71.2849V78.0311H223.845V71.0357C223.845 68.2192 222.778 66.721 220.412 66.721Z" fill="#5B585A"/>
<path d="M231.666 66.7188C229.091 66.7188 226.609 68.9213 226.609 72.5331C226.609 76.145 228.998 78.3027 232.014 78.3027C233.545 78.3027 234.751 77.7797 235.726 77.1664L235.053 75.9398C234.219 76.4628 233.313 76.8031 232.247 76.8031C230.089 76.8031 228.628 75.304 228.489 72.965H236.098C236.144 72.6919 236.167 72.2832 236.167 71.8967C236.167 68.7392 234.543 66.7188 231.667 66.7188H231.666ZM228.466 71.6251C228.697 69.445 230.136 68.1945 231.712 68.1945C233.476 68.1945 234.496 69.398 234.496 71.6251H228.466Z" fill="#5B585A"/>
<path d="M242.937 76.7814C241.638 76.7814 241.197 76.0085 241.197 74.6461V68.5132H244.236V66.9911H241.197V63.9023H239.597L239.365 66.9911L237.602 67.1045V68.5132H239.272V74.623C239.272 76.8031 240.084 78.3035 242.497 78.3035C243.192 78.3035 243.957 78.099 244.584 77.8939L244.213 76.486C243.842 76.6218 243.332 76.7814 242.938 76.7814H242.937Z" fill="#5B585A"/>
<path d="M247.76 62.3125C247.018 62.3125 246.438 62.7892 246.438 63.5159C246.438 64.2426 247.018 64.7194 247.76 64.7194C248.503 64.7194 249.083 64.2195 249.083 63.5159C249.083 62.8124 248.503 62.3125 247.76 62.3125Z" fill="#5B585A"/>
<path d="M248.684 66.9922H246.781V78.0307H248.684V66.9922Z" fill="#5B585A"/>
<path d="M257.107 76.7575C255.043 76.7575 253.628 75.0542 253.628 72.5331C253.628 70.012 255.112 68.2625 257.153 68.2625C258.058 68.2625 258.753 68.6713 259.403 69.2391L260.378 68.0125C259.589 67.3089 258.568 66.7188 257.084 66.7188C254.185 66.7188 251.656 68.831 251.656 72.5331C251.656 76.2353 253.952 78.3027 256.944 78.3027C258.29 78.3027 259.566 77.7797 260.587 76.8941L259.752 75.6444C259.055 76.2577 258.151 76.7575 257.107 76.7575Z" fill="#5B585A"/>
<path d="M272.236 63.1328H267.898V78.0324H269.823V72.1277H272.328C275.669 72.1277 277.942 70.6512 277.942 67.5168C277.942 64.3825 275.645 63.1328 272.236 63.1328ZM272.096 70.5826H269.822V64.6548H272.003C274.671 64.6548 276.016 65.3584 276.016 67.5168C276.016 69.6753 274.741 70.5826 272.096 70.5826Z" fill="#5B585A"/>
<path d="M282.646 68.9899H282.576L282.414 66.9911H280.836V78.0296H282.739V70.9432C283.504 69.0809 284.641 68.399 285.592 68.399C286.056 68.399 286.312 68.4669 286.683 68.581L287.054 66.9456C286.683 66.7867 286.334 66.7188 285.847 66.7188C284.571 66.7188 283.411 67.6044 282.646 68.9899Z" fill="#5B585A"/>
<path d="M293.105 66.7195C291.296 66.7195 289.719 67.4916 288.674 68.1497L289.417 69.445C290.299 68.8548 291.481 68.2632 292.78 68.2632C294.635 68.2632 295.1 69.6263 295.1 71.0349C290.298 71.5572 288.188 72.7607 288.188 75.1683C288.188 77.1447 289.602 78.3034 291.481 78.3034C292.896 78.3034 294.149 77.5767 295.217 76.7135H295.286L295.448 78.0303H297.026V71.2617C297.026 68.513 295.866 66.7195 293.105 66.7195ZM295.102 75.3279C294.012 76.2814 293.129 76.8037 292.038 76.8037C290.948 76.8037 290.044 76.2815 290.044 75.0325C290.044 73.6239 291.344 72.7158 295.102 72.2607V75.3279Z" fill="#5B585A"/>
<path d="M305.186 76.7575C303.122 76.7575 301.707 75.0542 301.707 72.5331C301.707 70.012 303.191 68.2625 305.233 68.2625C306.137 68.2625 306.833 68.6713 307.483 69.2391L308.457 68.0125C307.668 67.3089 306.648 66.7188 305.163 66.7188C302.263 66.7188 299.734 68.831 299.734 72.5331C299.734 76.2353 302.031 78.3027 305.023 78.3027C306.368 78.3027 307.645 77.7797 308.665 76.8941L307.83 75.6444C307.133 76.2577 306.229 76.7575 305.185 76.7575H305.186Z" fill="#5B585A"/>
<path d="M315.148 76.7814C313.849 76.7814 313.408 76.0085 313.408 74.6461V68.5132H316.447V66.9911H313.408V63.9023H311.807L311.576 66.9911L309.812 67.1045V68.5132H311.483V74.623C311.483 76.8031 312.295 78.3035 314.708 78.3035C315.403 78.3035 316.167 78.099 316.794 77.8939L316.424 76.486C316.053 76.6218 315.542 76.7814 315.148 76.7814Z" fill="#5B585A"/>
<path d="M319.97 62.3125C319.227 62.3125 318.648 62.7892 318.648 63.5159C318.648 64.2426 319.227 64.7194 319.97 64.7194C320.712 64.7194 321.292 64.2195 321.292 63.5159C321.292 62.8124 320.712 62.3125 319.97 62.3125Z" fill="#5B585A"/>
<path d="M320.895 66.9922H318.992V78.0307H320.895V66.9922Z" fill="#5B585A"/>
<path d="M329.31 76.7575C327.246 76.7575 325.831 75.0542 325.831 72.5331C325.831 70.012 327.315 68.2625 329.356 68.2625C330.261 68.2625 330.956 68.6713 331.606 69.2391L332.581 68.0125C331.792 67.3089 330.771 66.7188 329.287 66.7188C326.388 66.7188 323.859 68.831 323.859 72.5331C323.859 76.2353 326.155 78.3027 329.148 78.3027C330.493 78.3027 331.769 77.7797 332.79 76.8941L331.955 75.6444C331.258 76.2577 330.354 76.7575 329.31 76.7575Z" fill="#5B585A"/>
<path d="M343.995 71.8967C343.995 68.7392 342.371 66.7188 339.495 66.7188C336.92 66.7188 334.438 68.9213 334.438 72.5331C334.438 76.145 336.827 78.3027 339.843 78.3027C341.374 78.3027 342.58 77.7797 343.555 77.1664L342.882 75.9398C342.046 76.4628 341.143 76.8031 340.076 76.8031C337.918 76.8031 336.457 75.304 336.318 72.965H343.926C343.972 72.6919 343.995 72.2832 343.995 71.8967ZM336.294 71.6251C336.526 69.445 337.964 68.1945 339.542 68.1945C341.304 68.1945 342.326 69.398 342.326 71.6251H336.294Z" fill="#5B585A"/>
</g>
<defs>
<clipPath id="clip0_6875_13693">
<rect width="344" height="83" fill="white" transform="translate(0 0.5)"/>
</clipPath>
</defs>
</svg>
