<svg width="385" height="82" viewBox="0 0 385 82" fill="none" xmlns="http://www.w3.org/2000/svg">
<path d="M267.176 0.543213H281.134V3.50814H270.572V8.6348H280.346V11.4374H270.572V17.1365H281.295V20.0929H267.176V0.543213Z" fill="#CCD1DC"/>
<path d="M295.933 20.2485H292.86V18.2596H292.8C292.389 18.9721 291.802 19.5655 291.095 19.9819C290.389 20.3983 289.587 20.6237 288.768 20.6359C285.061 20.6359 283.469 18.759 283.469 15.031V5.97363H286.628V14.7297C286.628 17.2437 287.638 18.1735 289.341 18.1735C291.952 18.1735 292.826 16.4516 292.826 14.2734V5.97363H295.959L295.933 20.2485Z" fill="#CCD1DC"/>
<path d="M298.676 5.81798H301.55V8.58166H301.609C301.893 7.69494 302.433 6.91825 303.158 6.35523C303.883 5.79221 304.757 5.46964 305.665 5.43055C306.052 5.4282 306.439 5.45699 306.821 5.51665V8.55583C306.386 8.48013 305.947 8.43411 305.506 8.41808C303.402 8.41808 301.743 10.14 301.743 13.2997V20.0927H298.676V5.81798Z" fill="#CCD1DC"/>
<path d="M306.277 13.0244C306.277 8.61414 308.903 5.43042 313.604 5.43042C318.305 5.43042 320.94 8.61414 320.94 13.0244C320.94 17.4346 318.27 20.6357 313.613 20.6357C308.956 20.6357 306.277 17.4607 306.277 13.0244ZM317.727 13.0244C317.727 10.5366 316.467 7.94434 313.604 7.94434C310.742 7.94434 309.472 10.554 309.472 13.0244C309.472 15.4948 310.742 18.1305 313.604 18.1305C316.467 18.1305 317.727 15.5296 317.727 13.0244Z" fill="#CCD1DC"/>
<path d="M323.113 5.83145H326.088V7.78241H326.182C326.629 7.01876 327.277 6.39558 328.054 5.98224C328.83 5.5689 329.705 5.38163 330.58 5.44126C335.064 5.44126 337.232 8.90964 337.232 13.089C337.232 16.9563 335.312 20.5981 331.103 20.5981C330.187 20.6509 329.273 20.4725 328.442 20.0789C327.612 19.6854 326.891 19.089 326.345 18.3436H326.294V25.5232H323.156L323.113 5.83145ZM330.126 7.94716C327.485 7.94716 326.139 9.97616 326.139 13.037C326.139 15.9244 327.597 18.1008 330.126 18.1008C332.989 18.1008 334.061 15.4995 334.061 13.037C334.061 10.5745 332.715 7.94716 330.126 7.94716Z" fill="#CCD1DC"/>
<path d="M341.471 13.8595C341.471 16.1211 342.674 18.1305 345.278 18.1305C346.032 18.1913 346.783 17.9858 347.405 17.5485C348.027 17.1112 348.482 16.4689 348.693 15.7297H351.656C350.973 18.8786 348.343 20.6357 345.253 20.6357C340.813 20.6357 338.32 17.4868 338.32 13.0505C338.32 8.94469 340.95 5.43042 345.15 5.43042C349.615 5.43042 352.347 9.5362 351.835 13.8595H341.471ZM348.753 11.7631C348.777 11.2608 348.7 10.7587 348.528 10.2874C348.356 9.81612 348.092 9.38536 347.751 9.02126C347.411 8.65715 347.001 8.36728 346.548 8.16922C346.094 7.97116 345.605 7.86903 345.112 7.86903C344.618 7.86903 344.13 7.97116 343.676 8.16922C343.222 8.36728 342.813 8.65715 342.472 9.02126C342.132 9.38536 341.868 9.81612 341.695 10.2874C341.523 10.7587 341.447 11.2608 341.471 11.7631H348.753Z" fill="#CCD1DC"/>
<path d="M365.581 17.0147C365.581 17.7974 365.752 18.1105 366.323 18.1105C366.583 18.1219 366.843 18.1073 367.1 18.067V20.276C366.46 20.479 365.798 20.5988 365.129 20.6326C363.866 20.6326 362.971 20.1891 362.723 18.8932C361.356 20.0663 359.613 20.6855 357.826 20.6326C355.267 20.6326 352.98 19.2411 352.98 16.4233C352.98 12.8228 355.796 12.2401 358.423 11.9357C360.667 11.5096 362.689 11.7618 362.689 9.89193C362.689 8.24822 360.983 7.94382 359.763 7.94382C358.014 7.94382 356.777 8.66567 356.64 10.2311H353.526C353.748 6.51753 356.837 5.43042 359.959 5.43042C362.723 5.43042 365.615 6.57841 365.615 9.61363L365.581 17.0147ZM362.467 13.0054C361.512 13.6403 360.002 13.6142 358.637 13.8751C357.272 14.136 356.077 14.597 356.077 16.2755C356.077 17.6931 357.852 18.1192 358.944 18.1192C360.317 18.1192 362.45 17.3887 362.45 15.3797L362.467 13.0054Z" fill="#CCD1DC"/>
<path d="M368.188 5.81793H371.164V7.91868L371.216 7.97034C371.666 7.1935 372.312 6.54959 373.089 6.10363C373.866 5.65768 374.747 5.42548 375.642 5.4305C378.73 5.4305 380.678 7.09216 380.678 10.2949V20.0927H377.546V11.1215C377.486 8.88296 376.611 7.91868 374.767 7.91868C374.289 7.91673 373.816 8.01497 373.379 8.20709C372.941 8.39921 372.548 8.68098 372.225 9.03435C371.902 9.38773 371.656 9.80492 371.503 10.2592C371.35 10.7135 371.293 11.1949 371.336 11.6725V20.0927H368.196L368.188 5.81793Z" fill="#CCD1DC"/>
<path d="M266.107 30.4106H269.575V41.8494C269.575 44.4798 269.74 47.5302 274.249 47.5302C278.757 47.5302 278.913 44.4798 278.913 41.8494V30.4106H282.381V42.9718C282.381 48.0014 279.13 50.5034 274.24 50.5034C269.35 50.5034 266.09 48.0014 266.09 42.9718L266.107 30.4106Z" fill="#CCD1DC"/>
<path d="M285.098 35.686H288.056V37.7867L288.115 37.8384C288.567 37.0552 289.218 36.4071 290.001 35.9608C290.784 35.5145 291.67 35.2859 292.569 35.2986C295.639 35.2986 297.588 36.9602 297.588 40.1629V49.9604H294.459V40.9894C294.408 38.751 293.527 37.7867 291.689 37.7867C289.612 37.7867 288.269 39.4397 288.269 41.5404V49.9604H285.14L285.098 35.686Z" fill="#CCD1DC"/>
<path d="M300.301 30.4106H303.559V33.373H300.301V30.4106ZM300.301 35.806H303.559V49.9603H300.301V35.806Z" fill="#CCD1DC"/>
<path d="M304.645 35.8411H308.161L311.862 46.6817H311.915L315.432 35.8411H318.764L313.542 49.9603H309.937L304.645 35.8411Z" fill="#CCD1DC"/>
<path d="M322.46 43.7271C322.46 45.9888 323.673 47.9982 326.27 47.9982C327.024 48.0606 327.776 47.8558 328.399 47.4182C329.021 46.9807 329.476 46.3374 329.687 45.5973H332.651C331.967 48.7463 329.337 50.5034 326.236 50.5034C321.803 50.5034 319.309 47.3545 319.309 42.9181C319.309 38.8124 321.939 35.2981 326.142 35.2981C330.601 35.2981 333.343 39.4039 332.822 43.7271H322.46ZM329.755 41.6307C329.755 40.6456 329.371 39.7009 328.687 39.0043C328.003 38.3077 327.075 37.9164 326.108 37.9164C325.14 37.9164 324.213 38.3077 323.529 39.0043C322.845 39.7009 322.46 40.6456 322.46 41.6307H329.755Z" fill="#CCD1DC"/>
<path d="M334.516 35.6857H337.398V38.4494H337.449C337.735 37.5639 338.276 36.7886 339 36.2259C339.724 35.6632 340.598 35.3397 341.505 35.2983C341.892 35.2955 342.279 35.3243 342.661 35.3844V38.4236C342.226 38.3479 341.787 38.3018 341.346 38.2858C339.251 38.2858 337.583 40.0077 337.583 43.1674V49.9604H334.516V35.6857Z" fill="#CCD1DC"/>
<path d="M345.88 45.4843C346.057 47.3284 347.471 47.9982 349.203 47.9982C350.422 47.9982 352.543 47.7459 352.463 46.0932C352.384 44.4404 350.024 44.2317 347.665 43.701C345.306 43.1704 342.964 42.3614 342.964 39.43C342.964 36.2723 346.419 35.2981 349.088 35.2981C352.092 35.2981 354.814 36.5246 355.211 39.7344H351.836C351.553 38.2296 350.281 37.812 348.858 37.812C347.922 37.812 346.207 38.0382 346.207 39.2908C346.207 40.8479 348.584 41.074 350.97 41.6046C353.356 42.1353 355.697 42.9703 355.697 45.8148C355.697 49.2943 352.163 50.5034 349.15 50.5034C345.465 50.5034 342.717 48.8855 342.664 45.4843H345.88Z" fill="#CCD1DC"/>
<path d="M357.324 30.4106H360.583V33.373H357.324V30.4106ZM357.324 35.806H360.583V49.9603H357.324V35.806Z" fill="#CCD1DC"/>
<path d="M361.668 35.7433H364.135V31.4968H367.398V35.7433H370.357V38.0618H367.398V45.5781C367.398 46.8605 367.514 47.5145 368.98 47.5145C369.442 47.5323 369.904 47.4952 370.357 47.4041V49.7991C369.633 49.8585 368.944 49.9604 368.229 49.9604C364.823 49.9604 364.189 48.712 364.135 46.3679V38.0618H361.668V35.7433Z" fill="#CCD1DC"/>
<path d="M370.355 35.8411H373.797L377.523 46.5815H377.583L381.197 35.8411H384.475L378.934 51.0061C377.91 53.6087 377.161 55.9338 373.883 55.9338C373.152 55.9317 372.421 55.8766 371.698 55.769V53.0969C372.183 53.1945 372.675 53.2554 373.169 53.2791C374.632 53.2791 374.993 52.4983 375.38 51.275L375.742 50.1645L370.355 35.8411Z" fill="#CCD1DC"/>
<path d="M49.6993 0.543213V57.8312C49.6993 67.9031 52.8795 72.3909 58.9656 72.3909C65.0516 72.3909 68.1375 67.9116 68.1375 57.8312V0.543213H78.2009V56.8292C78.2009 75.2857 70.949 82.0002 58.9484 82.0002C46.9478 82.0002 39.6445 75.2857 39.6445 56.8292V0.543213H49.6993Z" fill="#CCD1DC"/>
<path d="M283.467 79.9173H281.282L280.763 77.6051C280.077 78.5067 279.186 79.2281 278.166 79.7083C277.146 80.1886 276.027 80.4136 274.903 80.3642C269.06 80.3642 265.547 75.6797 265.547 70.0497C265.547 64.4196 269.034 59.7351 274.903 59.7351C279.155 59.7351 282.727 62.0215 283.246 66.4568H279.921C279.589 63.8781 277.369 62.5458 274.903 62.5458C270.727 62.5458 268.949 66.2677 268.949 70.0411C268.949 73.8145 270.693 77.5449 274.903 77.5449C278.39 77.5965 280.303 75.4734 280.355 72.1384H275.175V69.5597H283.467V79.9173Z" fill="#CCD1DC"/>
<path d="M298.254 76.7671C298.254 77.5498 298.424 77.8629 298.996 77.8629C299.253 77.868 299.51 77.8476 299.764 77.802V80.011C299.124 80.214 298.462 80.3338 297.793 80.3676C296.53 80.3676 295.635 79.924 295.387 78.6282C294.017 79.8026 292.271 80.4218 290.482 80.3676C287.922 80.3676 285.645 78.9761 285.645 76.1583C285.645 72.5578 288.46 71.9751 291.087 71.6707C293.331 71.2446 295.353 71.4968 295.353 69.627C295.353 67.9833 293.69 67.6789 292.427 67.6789C290.678 67.6789 289.441 68.4007 289.304 69.9662H286.191C286.404 66.2526 289.501 65.1655 292.615 65.1655C295.379 65.1655 298.279 66.3135 298.279 69.3487L298.254 76.7671ZM295.14 72.7578C294.184 73.3927 292.674 73.3666 291.309 73.6275C289.944 73.8884 288.75 74.3494 288.75 76.0279C288.75 77.4454 290.533 77.8716 291.625 77.8716C292.998 77.8716 295.131 77.141 295.131 75.1321L295.14 72.7578Z" fill="#CCD1DC"/>
<path d="M303.398 75.3517C303.559 77.1958 304.913 77.8656 306.571 77.8656C307.739 77.8656 309.778 77.6134 309.694 75.9693C309.609 74.3253 307.358 74.0991 305.107 73.5685C302.856 73.0378 300.58 72.2289 300.58 69.2974C300.58 66.1398 303.897 65.1655 306.444 65.1655C309.321 65.1655 311.928 66.392 312.309 69.6019H309.076C308.805 68.097 307.587 67.6794 306.233 67.6794C305.336 67.6794 303.694 67.9056 303.694 69.1582C303.694 70.7153 305.979 70.898 308.255 71.4721C310.531 72.0462 312.791 72.8378 312.791 75.6822C312.791 79.1182 309.406 80.3708 306.52 80.3708C302.992 80.3708 300.36 78.7529 300.301 75.3517H303.398Z" fill="#CCD1DC"/>
<path d="M312.797 65.7354H315.264V61.364H318.527V65.7354H321.486V68.1221H318.527V75.8594C318.527 77.1796 318.643 77.8528 320.109 77.8528C320.571 77.8711 321.033 77.8329 321.486 77.7391V80.2045C320.771 80.2657 320.082 80.3707 319.358 80.3707C315.952 80.3707 315.318 79.0855 315.264 76.6725V68.1221H312.797V65.7354Z" fill="#CCD1DC"/>
<path d="M325.31 73.5946C325.31 75.8562 326.563 77.8656 329.263 77.8656C330.047 77.9281 330.83 77.7232 331.477 77.2857C332.125 76.8481 332.598 76.2048 332.817 75.4648H335.899C335.188 78.6137 332.452 80.3708 329.228 80.3708C324.617 80.3708 322.023 77.2219 322.023 72.7856C322.023 68.6798 324.759 65.1655 329.13 65.1655C333.776 65.1655 336.619 69.2713 336.077 73.5946H325.31ZM332.888 71.4982C332.913 70.9959 332.833 70.4938 332.654 70.0225C332.475 69.5512 332.2 69.1205 331.845 68.7564C331.491 68.3923 331.065 68.1024 330.593 67.9043C330.121 67.7063 329.613 67.6041 329.099 67.6041C328.585 67.6041 328.077 67.7063 327.605 67.9043C327.133 68.1024 326.707 68.3923 326.353 68.7564C325.998 69.1205 325.723 69.5512 325.544 70.0225C325.365 70.4938 325.285 70.9959 325.31 71.4982H332.888Z" fill="#CCD1DC"/>
<path d="M337.777 60.2781H341.036V63.2404H337.777V60.2781ZM337.777 65.6734H341.036V79.8278H337.777V65.6734Z" fill="#CCD1DC"/>
<path d="M343.212 65.7085H354.743V67.8971L346.593 77.3752H355.154V79.8277H342.664V77.6477L350.514 68.1696H343.212V65.7085Z" fill="#CCD1DC"/>
<path d="M101.194 80.1737H90.1445V0H101.194L121.861 52.317V0H131.959V80.3709H121.673L102.145 30.8756V80.1737H101.194Z" fill="#CCD1DC"/>
<path d="M144.453 79.8279V0H172.406L173.235 11.1014H155.964V35.0122H169.78V45.2597H155.964V69.1705H173.235L172.181 79.8279H144.453Z" fill="#CCD1DC"/>
<path d="M0 79.8279V0H27.9525L28.7815 11.1014H11.5109V35.0122H25.3274V45.2597H11.5109V69.1705H28.7815L27.728 79.8279H0Z" fill="#CCD1DC"/>
<path d="M186.098 0H197.567L192.743 52.0914L199.839 79.8279H187.613L180.832 52.9453L186.098 0Z" fill="#CCD1DC"/>
<path d="M205.273 80.3709H243.867L245.652 70.3278H220.938L247.631 0H210.416L209.283 11.1495H232.119L205.273 80.3709Z" fill="#CCD1DC"/>
</svg>
