<svg width="82" height="83" viewBox="0 0 82 83" fill="none" xmlns="http://www.w3.org/2000/svg">
<g clip-path="url(#clip0_6875_13833)">
<path d="M82 39.6543V43.3442C81.9298 43.6389 81.8129 43.9321 81.7941 44.23C81.306 51.9592 78.8294 59.0021 74.2708 65.2435C67.2029 74.9221 57.7021 80.5833 45.7699 82.0711C44.3881 82.2427 43.0001 82.3581 41.6152 82.4984H40.3848C39.3383 82.4049 38.2903 82.3191 37.2438 82.2162C29.8796 81.4972 23.1329 79.0736 17.1598 74.6975C8.00209 67.9899 2.4142 59.038 0.608228 47.7889C0.371175 46.312 0.201183 44.8258 0 43.3442C0 42.1137 0 40.8848 0 39.6543C0.0732992 39.2909 0.190266 38.9291 0.2121 38.5626C0.467868 34.2675 1.35058 30.0957 3.0505 26.1547C8.80371 12.8112 18.7506 4.46128 32.9956 1.36555C34.9513 0.941355 36.9631 0.78228 38.95 0.5C40.3161 0.5 41.6839 0.5 43.05 0.5C44.0294 0.60449 45.0135 0.682468 45.9882 0.81659C54.951 2.03616 62.794 5.64654 69.3177 11.9456C75.938 18.3367 80.024 26.0814 81.4058 35.2095C81.6288 36.688 81.8035 38.1727 82 39.6558V39.6543ZM1.89174 41.3729C1.84184 62.9775 19.2559 80.4585 40.915 80.5459C62.4431 80.6316 80.0724 63.1568 80.1114 41.6474C80.1504 19.8011 62.674 2.51963 41.3938 2.36523C19.5381 2.20772 1.94321 19.6607 1.89174 41.3729Z" fill="#5B585A"/>
<path d="M1.89073 41.372C1.9422 19.6598 19.5371 2.20683 41.3928 2.36434C62.6729 2.51718 80.1494 19.8002 80.1104 41.6465C80.0714 63.156 62.4437 80.6307 40.914 80.5449C19.2549 80.4592 1.84083 62.9781 1.89073 41.372ZM76.7885 41.4967C76.5826 21.0198 60.2743 5.80161 41.293 5.72519C21.3197 5.64565 5.20947 21.5158 5.23754 41.4188C5.26718 61.8709 21.8468 77.2044 41.0107 77.2012C60.0576 77.1981 76.5686 61.9816 76.7885 41.4953V41.4967Z" fill="white"/>
<path d="M76.6838 41.4265C76.4639 61.9113 59.9529 77.1279 40.906 77.1326C21.7421 77.1357 5.16248 61.8006 5.13285 41.3501C5.10478 21.447 21.215 5.57701 41.1883 5.65655C60.1696 5.73296 76.4795 20.9495 76.6838 41.4281V41.4265Z" fill="#5B585A"/>
<path d="M42.2134 46.36C42.2618 49.9797 42.2399 54.0096 42.2306 57.6309L40.9128 59.3277L39.5637 57.6668C39.4483 54.5633 39.5076 51.4535 39.506 48.3453C39.506 48.0085 39.506 47.6733 39.506 47.313L39.5294 45.1779L39.5528 43.1161C39.4842 40.2871 39.5076 37.4487 39.5092 34.615C39.5092 34.2485 39.5092 33.8821 39.5092 33.4688H42.1776V43.3235L42.2165 46.3616L42.2134 46.36Z" fill="white" stroke="white" stroke-width="0.5" stroke-miterlimit="10"/>
<path d="M55.9806 25.4821H47.86L47.8927 24.2017L48.8503 24.2189C50.3366 24.1596 50.4426 23.7604 50.4442 22.2585C50.4457 19.7305 50.4582 17.2024 50.4239 14.6759C50.3974 12.806 49.5178 11.5319 48.1236 11.2122C46.4533 10.8301 44.8391 11.6535 43.9829 13.3488C43.696 13.9149 43.473 14.7009 43.4293 15.5524C43.3076 17.9728 43.3653 20.4011 43.3747 22.8246C43.3778 23.6262 43.788 24.0894 44.6489 24.0863L45.9183 24.0972L45.9527 25.557C43.4652 25.5617 40.2228 25.557 37.7619 25.557L37.7525 24.1846H39.0953C39.0953 24.1846 40.2462 24.0972 40.3164 23.4516L40.2837 22.2819C40.2587 19.5511 40.4225 16.7923 40.2977 14.0662C40.2291 12.5534 39.167 11.5054 38.0441 11.22C36.6187 10.8566 35.0607 11.4055 34.2076 12.6875C33.5713 13.6435 33.2844 14.6681 33.2672 15.6413C33.2267 17.9931 33.1892 20.3512 33.1643 22.7061C33.1549 23.5779 33.5386 24.0458 34.4338 24.0785L35.6986 24.0894L35.6736 25.4774H27.4844V24.0894L28.9706 24.077C29.7099 24.0115 30.0826 23.606 30.0842 22.8745L30.2822 12.9947C30.2822 12.9947 30.4132 12.2617 29.8377 11.2933C29.2623 10.3248 27.9803 10.5603 27.9803 10.5603V9.27835L32.5872 8.98047C32.9787 9.93336 33.0925 10.8067 33.0832 12.1573C34.4665 10.3638 36.1508 9.03038 38.4356 8.99763C40.8124 8.96332 42.4249 10.3373 43.0893 12.3584C43.0893 12.3584 45.4957 8.31766 49.6706 9.08497C51.5546 9.43119 53.1297 11.1482 53.3278 13.4954C53.49 15.4292 53.4604 17.3802 53.4994 19.325C53.5196 20.3496 53.4962 21.3742 53.5025 22.3989C53.5103 23.7448 53.6865 24.0208 54.9825 24.077L55.9775 24.1175V25.4852L55.9806 25.4821Z" fill="white" stroke="white" stroke-width="0.5" stroke-miterlimit="10"/>
<path d="M20.0532 55.6537H9.3125V54.1831L11.1434 54.1643C11.9747 54.1503 12.4675 53.723 12.4722 52.9245C12.4987 48.6279 12.4846 44.3313 12.4846 39.9162L9.51212 39.8913L9.49497 38.0416L10.9204 38.012C11.3945 38.012 11.8671 38.012 12.5361 38.012C12.5361 37.0466 12.5049 36.1702 12.5423 35.2984C12.6515 32.8062 13.3736 30.498 14.8209 28.965C16.4724 27.2152 19.3202 26.869 21.5613 27.6597C23.23 28.2476 24.094 29.9725 23.7135 31.7145C23.5248 32.5801 23.0912 33.2413 22.1352 33.3598C21.279 33.4659 20.4321 33.3754 20.022 32.4927C19.6118 31.6116 19.7678 30.771 20.4899 30.0536C20.6848 29.8602 21.0341 29.528 20.9577 29.3362C20.847 29.057 20.3713 28.8839 20.0688 28.8246C18.3408 28.4847 16.3196 29.6091 15.9547 31.4681C15.4104 34.2301 15.6303 35.6477 15.5383 38.012L19.9986 38.0089L20.022 39.8414L15.7238 39.8757C15.7192 43.667 15.7426 48.4267 15.7488 52.2165C15.7519 53.7043 16.0108 54.0661 17.5111 54.169C17.954 54.1987 19.5947 54.2252 20.0391 54.2283L20.0547 55.6553L20.0532 55.6537Z" fill="white" stroke="white" stroke-width="0.5" stroke-miterlimit="10"/>
<path d="M57.7422 36.805C57.7734 33.2368 58.9415 30.2642 62.1386 28.3288C64.9801 26.6086 68.9866 26.9783 71.0234 29.2037C71.8874 30.1473 72.4254 31.2358 72.0621 32.5646C71.8203 33.4504 71.2729 34.0945 70.3403 34.2645C69.4529 34.4267 68.6981 34.1101 68.2396 33.321C67.7655 32.5069 67.8778 31.6897 68.4018 30.913C68.9991 30.0256 68.8306 29.4954 67.8263 29.04C66.2324 28.3179 63.957 28.778 63.0587 30.2861C62.3257 31.5166 61.769 32.9342 61.5007 34.3378C61.0765 36.5633 61.1623 38.8278 62.1277 40.9597C62.8669 42.5941 64.0787 43.6718 65.894 43.8917C67.8918 44.1318 69.2938 43.1836 70.2654 41.4993C70.4697 41.1453 70.5774 40.6899 70.8674 40.445C71.1341 40.2189 71.5864 40.1581 71.9591 40.1487C72.0433 40.1472 72.2726 40.6946 72.2118 40.9332C71.5053 43.7154 69.3328 45.4855 66.4726 45.6618C61.3494 45.9768 57.686 42.2588 57.7437 36.8066L57.7422 36.805Z" fill="white" stroke="white" stroke-width="0.5" stroke-miterlimit="10"/>
<path d="M39.7442 30.3646C37.8369 30.3739 36.0465 30.8387 34.618 32.0598C33.637 32.8973 33.5575 34.0498 33.8663 35.2569C34.083 36.1069 34.6086 36.6449 35.4445 36.8133C35.9717 36.9194 36.5394 36.9131 37.0602 36.9365C37.7979 36.9724 38.5715 37.3529 38.8974 37.8738C39.3294 38.5678 38.9099 39.4303 38.1379 39.6018C37.3222 39.7827 36.5284 39.5847 35.6301 39.0045C35.2231 38.7425 34.788 38.4337 34.3388 38.1935C32.6015 37.2672 31.9075 35.7638 31.973 33.8767C32.0338 32.1237 33.6448 30.4613 34.827 29.9591C36.1541 29.3961 36.9386 29.1653 38.4264 28.7816C38.9036 28.6584 39.5852 28.6272 39.7442 28.582C39.7442 28.582 39.6756 30.3989 39.6912 30.4597" fill="white"/>
<path d="M39.7442 30.3646C37.8369 30.3739 36.0465 30.8387 34.618 32.0598C33.637 32.8973 33.5575 34.0498 33.8663 35.2569C34.083 36.1069 34.6086 36.6449 35.4445 36.8133C35.9717 36.9194 36.5394 36.9131 37.0602 36.9365C37.7979 36.9724 38.5715 37.3529 38.8974 37.8738C39.3294 38.5678 38.9099 39.4303 38.1379 39.6018C37.3222 39.7827 36.5284 39.5847 35.6301 39.0045C35.2231 38.7425 34.788 38.4337 34.3388 38.1935C32.6015 37.2672 31.9075 35.7638 31.973 33.8767C32.0338 32.1237 33.6448 30.4613 34.827 29.9591C36.1541 29.3961 36.9386 29.1653 38.4264 28.7816C38.9036 28.6584 39.5852 28.6272 39.7442 28.582C39.7442 28.582 39.6756 30.3989 39.6912 30.4597" stroke="white" stroke-width="0.5" stroke-miterlimit="10"/>
<path d="M42.8782 33.3223C41.4668 33.3208 40.1521 33.3208 38.7578 33.3208V32.3086H42.8782V33.3223Z" fill="white" stroke="white" stroke-width="0.5" stroke-miterlimit="10"/>
<path d="M41.9677 28.3136L41.9443 32.3092H39.75V28.3526C39.75 28.3526 39.8389 27.6227 40.8245 27.6134C41.8102 27.604 41.9677 28.3136 41.9677 28.3136Z" fill="white" stroke="white" stroke-width="0.5" stroke-miterlimit="10"/>
<path d="M46.4766 73.0757C47.7835 72.6188 49.0873 72.1525 50.3989 71.7064C51.6465 71.2822 52.066 70.7691 52.0785 69.3733C52.1035 66.3026 52.0785 63.2302 52.0957 60.1595C52.0988 59.6183 52.0847 59.0007 52.2189 58.4783C52.2812 58.2334 52.6493 57.962 52.863 57.9496C53.0735 57.9371 53.415 58.235 53.5055 58.472C53.6599 58.8728 53.7176 59.3313 53.7192 59.7665C53.7347 63.2474 53.7316 66.7283 53.7254 70.2093C53.7223 71.5895 53.3885 72.076 52.0535 72.3583C50.2289 72.7435 48.3621 72.9416 46.5265 73.2769L46.4781 73.0757H46.4766Z" fill="white"/>
<path d="M31.7659 57.8352C31.8158 60.9714 31.8454 64.1108 31.7675 67.2455C31.73 68.7661 32.3102 69.7486 33.6249 70.4582C34.9614 71.1803 36.6193 72.2112 37.9199 73.0003C37.8747 73.0798 37.8435 72.9722 37.7983 73.0518C35.7194 72.3157 33.2194 71.6279 31.178 70.8029C30.7943 70.6485 30.4107 69.9514 30.4029 69.4975C30.342 65.5425 30.3498 61.5875 30.3966 57.6324C30.3966 57.6324 30.3592 56.6172 31.2029 56.6172C31.9453 56.6172 31.7659 57.8352 31.7659 57.8352Z" fill="white"/>
<path d="M35.993 73.4187C34.1153 73.0974 31.7619 72.8074 29.8936 72.444C28.3621 72.1461 28.0283 71.6892 28.0268 70.1374C28.0236 66.6549 28.019 63.1709 28.033 59.6884C28.0361 58.9944 27.9176 57.951 28.8253 57.965C29.7142 57.9791 29.5754 59.024 29.5785 59.7149C29.5941 62.8231 29.5785 65.9297 29.5863 69.0379C29.5894 70.7409 29.9669 71.2322 31.5779 71.7859C32.9253 72.249 34.9231 72.9119 36.1068 73.3314C36.0819 73.4 36.0179 73.3485 35.993 73.4187Z" fill="white"/>
<path d="M47.9627 69.7253C47.9939 69.7081 48.0251 69.6909 48.0563 69.6738C48.8282 69.2496 49.1979 68.6164 49.1994 67.7649C49.2057 63.9393 49.2135 60.1153 49.1932 56.2897C49.1869 55.2604 48.8329 55.0966 47.9143 55.6424C46.2129 56.653 44.5332 57.6995 42.8193 58.6914C41.9288 59.206 41.4999 59.8891 41.5436 60.9403C41.595 62.1505 41.5654 63.3654 41.5591 64.6894L41.5981 67.6339C41.6106 67.7805 41.6075 67.9364 41.5903 68.1049C41.4515 69.4227 41.5451 70.7655 41.5638 72.0973C41.5779 73.2062 41.8867 73.3653 42.8661 72.8054C43.1047 72.6681 43.3417 72.5278 43.6193 72.364L47.9658 69.7268" fill="white"/>
<path d="M45.0547 72.7538C46.6985 72.0972 48.0865 71.7089 49.763 71.135C51.1136 70.6718 51.2991 70.4441 51.3007 68.9968C51.3038 65.3428 51.3007 61.6872 51.2991 58.0331L51.3023 57.1644C51.3023 57.1644 51.2945 56.7964 50.7034 56.759C49.9361 56.7106 49.9517 58.2031 49.9423 58.2047C50.1934 61.2287 49.9642 64.1762 50.0312 67.4014C50.0562 68.5789 49.9392 69.2635 49.4729 69.6347C48.0896 70.7388 46.5675 71.5327 45.0672 72.4918L45.0547 72.7538Z" fill="white"/>
<path d="M40.1481 63.1619C40.1434 63.0185 40.1559 62.8656 40.1871 62.7019C40.3087 62.0406 40.2074 61.3404 40.2136 60.6573C40.2214 59.798 39.8752 59.157 39.1204 58.7156C37.8244 57.9593 36.5237 57.206 35.2682 56.3841C35.0655 56.2515 34.7848 56.1299 34.5586 55.9864C32.8307 54.8869 32.5889 56.0909 32.5889 56.0909C32.5281 59.9836 32.5328 63.8778 32.6061 67.7704C32.617 68.3241 33.0084 69.0742 33.4623 69.3783C35.301 70.6135 37.2255 71.7255 39.1359 72.8515C39.8346 73.2632 40.1902 73.0246 40.2011 72.1466C40.2245 70.3375 40.2058 68.5268 40.212 66.7162L40.1481 63.1619Z" fill="white"/>
<path d="M34.5458 59.5446C35.494 60.8967 36.4827 62.3331 37.7382 63.2126C40.5781 65.2011 42.7631 68.2859 43.8626 69.8813C44.962 71.4783 43.705 73.7022 43.9405 74.0157C44.176 74.3292 44.842 73.0472 44.8825 71.0323C44.9355 68.4715 41.5622 64.5414 38.2622 62.082C34.9606 59.6225 34.4943 55.3384 34.4943 55.3384C34.2058 51.8232 36.0382 49.7817 39.1964 47.4143C39.3445 47.3036 39.6221 47.0681 39.8639 46.8903L43.1046 44.6929C44.5176 43.6807 45.9602 42.6842 47.2312 41.5083C49.0559 39.8177 50.0852 37.7279 49.8902 35.1266C49.5799 31.0031 45.6982 28.4906 42.0348 28.4766C41.9131 28.4766 41.9365 28.5795 41.9412 28.7012C41.9583 29.1269 41.9412 29.6743 41.9599 30.0408C41.9661 30.1516 41.9053 30.267 42.016 30.2717C43.3822 30.3309 44.6891 30.6491 45.734 31.1996C46.52 31.6144 47.2359 32.689 47.6679 33.4719C48.7908 35.5102 48.3853 37.4815 46.9926 39.2921C45.7356 40.9281 44.24 42.0806 42.3326 43.3189L41.8351 43.7509L39.5192 45.3822C39.5192 45.3822 38.9687 45.8111 37.8707 46.5082C35.6203 47.9337 33.5866 49.8363 33.0455 52.5905C32.9644 53.0038 32.6556 56.8434 34.5473 59.5414L34.5458 59.5446Z" fill="white" stroke="white" stroke-width="0.5" stroke-miterlimit="10"/>
<path d="M40.7656 46.3401V59.233H41.0557V46.0859C41.0557 46.0859 41.0448 46.0875 41.0401 46.089C40.9824 46.1982 40.8904 46.2887 40.7656 46.3401Z" fill="white"/>
<path d="M41.0526 44.3466V33.4688H40.7625L40.75 44.4122C40.8233 44.3358 40.9325 44.37 41.0541 44.3466H41.0526Z" fill="white"/>
<path d="M42.6953 61.2766L47.8902 58.0312V58.3977L42.6953 61.5636V61.2766Z" fill="white"/>
<path d="M42.6953 63.943L47.8902 60.6992V61.0641L42.6953 64.2316V63.943Z" fill="white"/>
<path d="M42.8984 66.4785L47.889 63.3594V63.7259L42.9172 66.7577L42.8984 66.4785Z" fill="white"/>
<path d="M44.1172 68.3221L47.8975 65.9609V66.3274L44.192 68.5856L44.1172 68.3221Z" fill="white"/>
<path d="M35.8359 59.1211C35.8749 59.1928 35.9124 59.2677 35.9435 59.3503C35.9669 59.4127 35.9732 59.4782 35.9685 59.5422L39.2841 61.5634V61.2748L35.8359 59.1211Z" fill="white"/>
<path d="M37.832 63.3364C37.6885 63.2085 37.5716 63.0806 37.4187 62.973C37.2425 62.8482 37.1005 62.7749 37.0038 62.566C36.9944 62.5457 36.9882 62.5238 36.9804 62.502L34.0938 60.6992V61.0657L37.8819 63.3738C37.8663 63.3613 37.8491 63.3504 37.8335 63.3364H37.832Z" fill="white"/>
<path d="M39.0781 66.4785L34.0859 63.3594V63.7259L39.0594 66.7577L39.0781 66.4785Z" fill="white"/>
<path d="M39.2808 69.2064L34.0859 65.9609V66.3274L39.2808 69.4949V69.2064Z" fill="white"/>
</g>
<defs>
<clipPath id="clip0_6875_13833">
<rect width="82" height="82" fill="white" transform="translate(0 0.5)"/>
</clipPath>
</defs>
</svg>
