<svg width="232" height="83" viewBox="0 0 232 83" fill="none" xmlns="http://www.w3.org/2000/svg">
<g clip-path="url(#clip0_6875_13762)">
<mask id="mask0_6875_13762" style="mask-type:luminance" maskUnits="userSpaceOnUse" x="0" y="0" width="232" height="49">
<path d="M231.375 0.5H0V48.75H231.375V0.5Z" fill="white"/>
</mask>
<g mask="url(#mask0_6875_13762)">
<path d="M0 45.7157V26.3484C0 25.3396 0.20544 24.5892 0.616319 24.0816C1.03031 23.5772 1.56259 23.3281 2.21626 23.3281C2.86993 23.3281 3.43645 23.5741 3.85355 24.0785C4.27066 24.5736 4.47921 25.3302 4.47921 26.3484V45.7157C4.47921 46.7307 4.27066 47.4967 3.85355 47.9949C3.43645 48.4993 2.89172 48.7484 2.21626 48.7484C1.5408 48.7484 1.04276 48.4931 0.625658 47.9887C0.208553 47.478 0 46.7183 0 45.7126" fill="#5B585A"/>
<path d="M15.3241 26.311L23.9432 40.8022V26.174C23.9432 25.2244 24.1238 24.5113 24.4942 24.0412C24.8615 23.5616 25.3564 23.3281 25.979 23.3281C26.6015 23.3281 27.1307 23.5648 27.5011 24.0412C27.8746 24.5113 28.0583 25.2275 28.0583 26.174V45.5133C28.0583 47.6711 27.2552 48.7484 25.6428 48.7484C25.2412 48.7484 24.8802 48.683 24.5564 48.5585C24.2358 48.4277 23.9339 48.2222 23.6537 47.9451C23.3705 47.6648 23.109 47.3379 22.8662 46.9643C22.6297 46.5906 22.3869 46.2045 22.141 45.8153L13.7397 31.4954V45.8994C13.7397 46.8366 13.5436 47.5465 13.1514 48.0292C12.7592 48.5087 12.255 48.7484 11.6417 48.7484C11.0285 48.7484 10.4994 48.5055 10.1196 48.0198C9.73986 47.531 9.54688 46.8273 9.54688 45.8994V26.9369C9.54688 26.1304 9.6278 25.4984 9.78655 25.0407C9.97954 24.5362 10.297 24.1283 10.7391 23.8045C11.1811 23.4869 11.6573 23.3281 12.174 23.3281C12.5756 23.3281 12.918 23.3997 13.2043 23.5461C13.4938 23.6893 13.7459 23.8855 13.9607 24.1346C14.1786 24.3774 14.3996 24.7013 14.6237 25.0874C14.851 25.4797 15.0844 25.8876 15.3241 26.311Z" fill="#5B585A"/>
<path d="M44.4577 43.0006C44.4577 44.0749 44.2055 45.0432 43.7075 45.8995C43.2095 46.7558 42.4811 47.4252 41.5193 47.9141C40.5574 48.3998 39.4213 48.6427 38.1015 48.6427C36.5202 48.6427 35.2191 48.3064 34.195 47.6432C33.4697 47.1668 32.8783 46.5316 32.4208 45.7345C31.9663 44.9343 31.7422 44.1621 31.7422 43.4085C31.7422 42.9757 31.876 42.6021 32.15 42.2907C32.4208 41.9794 32.7725 41.8237 33.1927 41.8237C33.5351 41.8237 33.8246 41.942 34.0581 42.1849C34.2977 42.4277 34.4969 42.7858 34.665 43.2622C34.8674 43.832 35.0884 44.3022 35.3249 44.6852C35.5615 45.0681 35.8977 45.3795 36.3241 45.6286C36.7537 45.8715 37.3171 45.996 38.0174 45.996C38.9793 45.996 39.7575 45.75 40.3613 45.2456C40.959 44.7505 41.2609 44.1278 41.2609 43.3836C41.2609 42.7951 41.0959 42.3156 40.7753 41.9482C40.4485 41.5808 40.0314 41.2974 39.5209 41.1013C39.0042 40.9082 38.3194 40.7027 37.4603 40.4848C36.3117 40.189 35.3498 39.8371 34.5748 39.4355C33.7997 39.0369 33.1865 38.492 32.7289 37.8008C32.2745 37.1064 32.0503 36.2501 32.0503 35.2195C32.0503 34.1889 32.2869 33.3731 32.7694 32.6133C33.2487 31.8536 33.9429 31.2651 34.8549 30.8572C35.7638 30.4524 36.8346 30.25 38.0641 30.25C39.0446 30.25 39.8944 30.3808 40.6103 30.6548C41.3294 30.9257 41.9208 31.2869 42.397 31.7353C42.8702 32.1805 43.2157 32.6538 43.4336 33.1489C43.6515 33.6408 43.7604 34.1235 43.7604 34.5936C43.7604 35.0233 43.6235 35.4063 43.3526 35.7519C43.0787 36.0976 42.7394 36.2688 42.3317 36.2688C41.9581 36.2688 41.678 36.1661 41.485 35.9574C41.292 35.7519 41.0804 35.4125 40.8594 34.9455C40.5668 34.2729 40.2181 33.7467 39.8104 33.3731C39.4057 32.9963 38.7489 32.8064 37.8462 32.8064C37.0089 32.8064 36.3335 33.0119 35.8199 33.4198C35.3063 33.8277 35.051 34.3196 35.051 34.8925C35.051 35.2475 35.1382 35.5558 35.3125 35.8173C35.4899 36.0758 35.7296 36.2999 36.0346 36.4837C36.3397 36.6674 36.6478 36.8137 36.9591 36.9227C37.2735 37.0254 37.7902 37.178 38.5092 37.3773C39.4151 37.617 40.2306 37.8724 40.9621 38.1557C41.6936 38.436 42.3161 38.7816 42.8297 39.1864C43.3464 39.5911 43.7417 40.1049 44.0281 40.7214C44.3145 41.3379 44.4608 42.0977 44.4608 42.9975" fill="#5B585A"/>
<path d="M53.413 41.4091H50.4435V46.4439C50.4435 47.1632 50.2941 47.7081 49.9859 48.0817C49.6809 48.4523 49.298 48.6422 48.8311 48.6422C48.3642 48.6422 47.9502 48.4554 47.6514 48.088C47.3525 47.7205 47.2031 47.1788 47.2031 46.4688V32.7623C47.2031 31.9683 47.3681 31.4047 47.6949 31.0653C48.0218 30.7228 48.5416 30.5547 49.2544 30.5547H53.4099C54.6425 30.5547 55.5888 30.6605 56.2487 30.8723C56.9024 31.0715 57.4689 31.4078 57.9451 31.878C58.4214 32.345 58.7825 32.918 59.0315 33.5999C59.2774 34.2787 59.405 35.0446 59.405 35.8947C59.405 37.7006 58.9007 39.0738 57.8953 40.0141C56.8899 40.9482 55.3958 41.4122 53.4068 41.4122M52.6286 33.2543H50.4435V38.6908H52.6286C53.3912 38.6908 54.0293 38.6005 54.546 38.423C55.0596 38.2424 55.4487 37.956 55.7195 37.5481C55.9872 37.1433 56.1242 36.6139 56.1242 35.9632C56.1242 35.1754 55.9156 34.5402 55.5017 34.042C55.0347 33.5158 54.0791 33.2543 52.6317 33.2543" fill="#5B585A"/>
<path d="M62.25 46.4413V32.4327C62.25 31.7041 62.3994 31.1592 62.6982 30.7949C62.9971 30.4275 63.3799 30.25 63.8562 30.25C64.3324 30.25 64.7371 30.4306 65.039 30.7918C65.3409 31.1499 65.4935 31.6948 65.4935 32.4358V46.4444C65.4935 47.1792 65.3409 47.7335 65.039 48.0916C64.7371 48.459 64.3449 48.6427 63.8562 48.6427C63.3675 48.6427 63.0064 48.459 62.7076 48.0884C62.4025 47.721 62.2531 47.1761 62.2531 46.4444" fill="#5B585A"/>
<path d="M73.4655 40.7264H72.3294V46.4401C72.3294 47.1936 72.18 47.7478 71.8812 48.1028C71.5855 48.4577 71.1933 48.6383 70.7139 48.6383C70.1972 48.6383 69.7956 48.4484 69.5155 48.0779C69.2322 47.7042 69.0859 47.1593 69.0859 46.4401V32.7584C69.0859 31.98 69.2447 31.4227 69.5591 31.0708C69.8703 30.7252 70.3746 30.5508 71.075 30.5508H76.3479C77.0732 30.5508 77.6957 30.5851 78.2124 30.6536C78.7292 30.7221 79.1992 30.8622 79.6132 31.0708C80.1143 31.3043 80.5563 31.6406 80.9454 32.0765C81.3283 32.5156 81.6209 33.02 81.8201 33.5991C82.0193 34.1752 82.1189 34.7886 82.1189 35.4362C82.1189 36.7627 81.7859 37.8244 81.1104 38.6153C80.438 39.4093 79.414 39.9729 78.0506 40.3029C78.6233 40.6455 79.1743 41.1436 79.6972 41.8069C80.2202 42.467 80.6871 43.1769 81.0948 43.9211C81.5088 44.6715 81.8294 45.344 82.0567 45.9512C82.287 46.5522 82.3991 46.9663 82.3991 47.1967C82.3991 47.4271 82.3306 47.6637 82.1967 47.891C82.0598 48.1246 81.8792 48.3052 81.6427 48.4359C81.4123 48.5698 81.1384 48.6415 80.8365 48.6415C80.4692 48.6415 80.1672 48.5449 79.9213 48.3519C79.6723 48.1619 79.4575 47.9222 79.2832 47.6326C79.1027 47.3399 78.863 46.9133 78.558 46.3467L77.26 43.9429C76.793 43.0617 76.3791 42.3922 76.0118 41.9283C75.6445 41.4675 75.2709 41.153 74.8943 40.9817C74.5145 40.8105 74.0383 40.7264 73.4655 40.7264ZM75.3176 33.2535H72.3294V38.1451H75.2336C76.0086 38.1451 76.6654 38.0673 77.1977 37.9147C77.73 37.7684 78.1346 37.5099 78.4148 37.1519C78.6949 36.7938 78.8319 36.2987 78.8319 35.6697C78.8319 35.1716 78.7198 34.7419 78.4957 34.3589C78.2685 33.9852 77.9572 33.705 77.5588 33.5182C77.179 33.3438 76.432 33.2504 75.3176 33.2504" fill="#5B585A"/>
<path d="M95.4317 46.3199L94.6691 44.0904H88.1666L87.404 46.3697C87.102 47.2571 86.8499 47.8643 86.6414 48.1756C86.4297 48.487 86.0842 48.6427 85.6048 48.6427C85.1971 48.6427 84.836 48.4777 84.5247 48.1414C84.2103 47.8113 84.0547 47.4377 84.0547 47.0142C84.0547 46.7713 84.0952 46.5222 84.1667 46.2638C84.2383 46.0023 84.3566 45.6411 84.5247 45.1834L88.6179 33.6377C88.7362 33.3014 88.8732 32.9029 89.035 32.4389C89.2 31.9719 89.3774 31.5889 89.5611 31.2806C89.7447 30.9693 89.9906 30.7233 90.2926 30.5334C90.5945 30.3403 90.9649 30.25 91.4101 30.25C91.8552 30.25 92.238 30.3434 92.54 30.5334C92.8419 30.7233 93.0847 30.9693 93.2715 31.2682C93.4551 31.5702 93.6139 31.8909 93.7384 32.2303C93.866 32.576 94.031 33.0337 94.2271 33.6128L98.4043 45.0868C98.7312 45.9587 98.8962 46.597 98.8962 46.9893C98.8962 47.4034 98.7405 47.7802 98.4293 48.1258C98.1242 48.4683 97.7507 48.6427 97.3118 48.6427C97.0565 48.6427 96.8418 48.5898 96.6612 48.487C96.4776 48.3905 96.3282 48.2472 96.2005 48.0791C96.0791 47.9016 95.9453 47.637 95.8021 47.2758C95.6589 46.9177 95.5375 46.6001 95.4348 46.323M89.0164 41.3846H93.7944L91.382 34.0425L89.0164 41.3846Z" fill="#5B585A"/>
<path d="M115.502 26.311L124.115 40.8022V26.174C124.115 25.2244 124.299 24.5113 124.669 24.0412C125.033 23.5616 125.528 23.3281 126.151 23.3281C126.773 23.3281 127.303 23.5648 127.679 24.0412C128.053 24.5113 128.236 25.2275 128.236 26.174V45.5133C128.236 47.6711 127.43 48.7484 125.821 48.7484C125.416 48.7484 125.058 48.683 124.738 48.5585C124.411 48.4277 124.112 48.2222 123.829 47.9451C123.549 47.6648 123.287 47.3379 123.044 46.9643C122.802 46.5906 122.565 46.2045 122.319 45.8153L113.915 31.4954V45.8994C113.915 46.8366 113.722 47.5465 113.326 48.0292C112.934 48.5087 112.433 48.7484 111.817 48.7484C111.2 48.7484 110.674 48.5055 110.291 48.0198C109.912 47.531 109.719 46.8273 109.719 45.8994V26.9369C109.719 26.1304 109.8 25.4984 109.962 25.0407C110.155 24.5362 110.469 24.1283 110.914 23.8045C111.356 23.4869 111.832 23.3281 112.343 23.3281C112.747 23.3281 113.093 23.3997 113.379 23.5461C113.669 23.6893 113.921 23.8855 114.133 24.1346C114.35 24.3774 114.571 24.7013 114.799 25.0874C115.023 25.4797 115.253 25.8876 115.499 26.311" fill="#5B585A"/>
<path d="M143.016 33.3235H135.714V37.6889H142.437C142.932 37.6889 143.3 37.8166 143.546 38.0564C143.788 38.3055 143.91 38.6324 143.91 39.0341C143.91 39.4357 143.791 39.7689 143.552 40.0242C143.312 40.2796 142.939 40.4041 142.44 40.4041H135.717V45.4608H143.275C143.779 45.4608 144.162 45.5978 144.423 45.8593C144.682 46.124 144.809 46.4727 144.809 46.9055C144.809 47.3383 144.682 47.6684 144.423 47.9299C144.162 48.1946 143.779 48.3223 143.275 48.3223H134.463C133.753 48.3223 133.249 48.1541 132.937 47.8023C132.632 47.4535 132.477 46.8931 132.477 46.1178V32.7475C132.477 32.2306 132.545 31.8103 132.685 31.4802C132.819 31.1533 133.04 30.9135 133.33 30.7672C133.628 30.6146 134.002 30.543 134.463 30.543H143.019C143.536 30.543 143.919 30.6707 144.171 30.9229C144.423 31.1813 144.545 31.5114 144.545 31.9224C144.545 32.3334 144.423 32.6821 144.171 32.9405C143.916 33.1928 143.533 33.3204 143.019 33.3204" fill="#5B585A"/>
<path d="M157.767 33.522H154.228V46.4408C154.228 47.185 154.078 47.7392 153.779 48.1004C153.484 48.4616 153.095 48.6422 152.625 48.6422C152.155 48.6422 151.753 48.4585 151.451 48.0942C151.146 47.733 150.994 47.1788 150.994 46.4439V33.5251H147.461C146.907 33.5251 146.499 33.3881 146.225 33.1204C145.957 32.8495 145.82 32.4883 145.82 32.0461C145.82 31.604 145.963 31.221 146.244 30.9532C146.521 30.6854 146.928 30.5547 147.458 30.5547H157.764C158.324 30.5547 158.741 30.6886 159.012 30.9688C159.283 31.2397 159.42 31.6009 159.42 32.0461C159.42 32.4914 159.277 32.8495 159.006 33.1204C158.729 33.3881 158.312 33.5251 157.761 33.5251" fill="#5B585A"/>
<path d="M172.681 45.5305L170.095 34.866L167.474 45.5305C167.268 46.3369 167.106 46.9223 166.988 47.271C166.867 47.6229 166.658 47.9374 166.362 48.2207C166.06 48.4978 165.668 48.638 165.17 48.638C164.772 48.638 164.442 48.557 164.183 48.3826C163.925 48.2176 163.71 47.9841 163.558 47.682C163.399 47.3769 163.265 47.0188 163.166 46.6047C163.063 46.1875 162.973 45.8014 162.892 45.4433L160.227 33.4711C160.068 32.7767 159.984 32.2474 159.984 31.8831C159.984 31.4191 160.131 31.0362 160.423 30.7217C160.716 30.4072 161.074 30.2484 161.503 30.2484C162.095 30.2484 162.49 30.457 162.692 30.8743C162.898 31.2977 163.078 31.9049 163.228 32.7082L165.323 43.0893L167.67 33.3714C167.847 32.6273 168 32.0637 168.143 31.6745C168.277 31.2821 168.501 30.949 168.818 30.6656C169.13 30.3854 169.556 30.2422 170.098 30.2422C170.639 30.2422 171.066 30.3885 171.368 30.6843C171.67 30.977 171.878 31.2977 171.993 31.6464C172.112 31.989 172.264 32.5712 172.463 33.3683L174.829 43.0862L176.924 32.7051C177.027 32.1633 177.123 31.7367 177.216 31.4316C177.304 31.1265 177.459 30.8493 177.683 30.6065C177.907 30.3636 178.228 30.2453 178.648 30.2453C179.068 30.2453 179.426 30.401 179.722 30.7123C180.018 31.0237 180.164 31.4129 180.164 31.88C180.164 32.2131 180.083 32.7394 179.925 33.468L177.26 45.4402C177.076 46.2529 176.924 46.8445 176.802 47.2212C176.684 47.5949 176.482 47.9249 176.195 48.2083C175.909 48.4947 175.501 48.638 174.975 48.638C174.483 48.638 174.085 48.4947 173.789 48.2238C173.487 47.9467 173.285 47.6416 173.167 47.2959C173.048 46.9503 172.887 46.3618 172.675 45.5305" fill="#5B585A"/>
<path d="M189.63 30.25C191.289 30.25 192.715 30.6205 193.904 31.3678C195.096 32.1182 195.996 33.1831 196.603 34.5594C197.216 35.9388 197.521 37.5579 197.521 39.423C197.521 40.7961 197.356 42.0447 197.02 43.1688C196.684 44.2959 196.183 45.2674 195.513 46.0957C194.841 46.9208 194.019 47.5498 193.048 47.9888C192.074 48.4278 190.956 48.6458 189.696 48.6458C188.435 48.6458 187.324 48.4154 186.337 47.9701C185.347 47.5249 184.519 46.8928 183.859 46.077C183.196 45.2612 182.698 44.2773 182.359 43.1252C182.023 41.9762 181.852 40.737 181.852 39.4043C181.852 38.0716 182.029 36.7826 182.381 35.6398C182.732 34.5033 183.243 33.5319 183.915 32.7254C184.585 31.9283 185.4 31.3149 186.359 30.8883C187.321 30.4649 188.41 30.2562 189.633 30.2562M194.234 39.395C194.234 38.0934 194.044 36.9632 193.667 36.0104C193.288 35.0514 192.749 34.3321 192.046 33.8432C191.345 33.3544 190.539 33.1084 189.63 33.1084C188.98 33.1084 188.382 33.2423 187.834 33.5163C187.283 33.7872 186.813 34.1795 186.412 34.6964C186.02 35.2164 185.708 35.8796 185.475 36.6798C185.248 37.4863 185.136 38.3892 185.136 39.395C185.136 40.4007 185.248 41.313 185.475 42.135C185.708 42.9508 186.029 43.6327 186.449 44.1652C186.866 44.707 187.349 45.1086 187.893 45.3764C188.435 45.6411 189.026 45.7781 189.677 45.7781C190.502 45.7781 191.268 45.5445 191.962 45.0868C192.656 44.626 193.21 43.913 193.621 42.9539C194.035 41.9918 194.237 40.8024 194.237 39.3981" fill="#5B585A"/>
<path d="M204.649 40.7264H203.516V46.4401C203.516 47.1936 203.363 47.7478 203.068 48.1028C202.766 48.4577 202.38 48.6383 201.9 48.6383C201.381 48.6383 200.982 48.4484 200.702 48.0779C200.416 47.7042 200.273 47.1593 200.273 46.4401V32.7584C200.273 31.98 200.428 31.4227 200.746 31.0708C201.057 30.7252 201.561 30.5508 202.262 30.5508H207.531C208.26 30.5508 208.882 30.5851 209.399 30.6536C209.916 30.7221 210.383 30.8622 210.797 31.0708C211.301 31.3043 211.746 31.6406 212.129 32.0765C212.518 32.5156 212.807 33.02 213.007 33.5991C213.206 34.1752 213.309 34.7886 213.309 35.4362C213.309 36.7627 212.976 37.8244 212.297 38.6153C211.628 39.4093 210.604 39.9729 209.237 40.3029C209.813 40.6455 210.364 41.1436 210.884 41.8069C211.41 42.467 211.874 43.1769 212.288 43.9211C212.702 44.6715 213.016 45.344 213.249 45.9512C213.48 46.5522 213.592 46.9663 213.592 47.1967C213.592 47.4271 213.523 47.6637 213.393 47.891C213.256 48.1246 213.072 48.3052 212.839 48.4359C212.605 48.5698 212.337 48.6415 212.032 48.6415C211.665 48.6415 211.36 48.5449 211.12 48.3519C210.871 48.1619 210.657 47.9222 210.479 47.6326C210.302 47.3399 210.062 46.9133 209.754 46.3467L208.456 43.9429C207.989 43.0617 207.572 42.3922 207.208 41.9283C206.84 41.4675 206.464 41.153 206.09 40.9817C205.71 40.8105 205.234 40.7264 204.655 40.7264M206.507 33.2535H203.519V38.1451H206.42C207.195 38.1451 207.855 38.0673 208.384 37.9147C208.92 37.7684 209.321 37.5099 209.604 37.1519C209.882 36.7938 210.022 36.2987 210.022 35.6697C210.022 35.1716 209.91 34.7419 209.679 34.3589C209.458 33.9852 209.147 33.705 208.742 33.5182C208.369 33.3438 207.619 33.2504 206.507 33.2504" fill="#5B585A"/>
<path d="M219.638 32.432V38.6656L226.003 31.2892C226.308 30.9343 226.57 30.6727 226.785 30.5015C226.999 30.3302 227.286 30.2461 227.641 30.2461C228.108 30.2461 228.481 30.3987 228.774 30.7007C229.06 31.0028 229.203 31.3764 229.203 31.8092C229.203 32.3354 228.96 32.8585 228.475 33.3754L224.531 37.5229L229.069 44.7529C229.39 45.2542 229.636 45.6964 229.788 46.0731C229.95 46.4468 230.031 46.8142 230.031 47.1723C230.031 47.5646 229.888 47.9102 229.608 48.2029C229.331 48.4956 228.951 48.6419 228.472 48.6419C228.017 48.6419 227.65 48.5361 227.367 48.3212C227.087 48.1033 226.844 47.8199 226.648 47.4649C226.449 47.1069 226.28 46.7862 226.122 46.4903L222.29 39.9422L219.638 42.7664V46.4436C219.638 47.1878 219.485 47.7421 219.18 48.1033C218.875 48.4644 218.48 48.645 218.007 48.645C217.727 48.645 217.462 48.5641 217.207 48.4022C216.952 48.2371 216.755 48.0223 216.615 47.7452C216.513 47.5179 216.457 47.2532 216.432 46.9574C216.413 46.6554 216.398 46.2226 216.398 45.659V32.4351C216.398 31.7065 216.544 31.1616 216.83 30.7973C217.117 30.4298 217.512 30.2524 218.007 30.2524C218.502 30.2524 218.885 30.433 219.187 30.7942C219.488 31.1522 219.641 31.6971 219.641 32.4382" fill="#5B585A"/>
<path fill-rule="evenodd" clip-rule="evenodd" d="M213.273 9.55466C213.273 4.55405 217.323 0.5 222.319 0.5C227.315 0.5 231.371 4.55716 231.371 9.55466C231.371 14.5522 227.321 18.6062 222.319 18.6062C217.317 18.6062 213.273 14.5522 213.273 9.55466Z" fill="#5B585A"/>
<path fill-rule="evenodd" clip-rule="evenodd" d="M188.188 9.55466C188.188 4.55405 192.236 0.5 197.235 0.5C202.234 0.5 206.285 4.55716 206.285 9.55466C206.285 14.5522 202.234 18.6062 197.235 18.6062C192.236 18.6062 188.188 14.5522 188.188 9.55466Z" fill="#5B585A"/>
<path fill-rule="evenodd" clip-rule="evenodd" d="M163.102 9.55466C163.102 4.55405 167.154 0.5 172.15 0.5C177.146 0.5 181.196 4.55716 181.196 9.55466C181.196 14.5522 177.149 18.6062 172.15 18.6062C167.151 18.6062 163.102 14.5522 163.102 9.55466Z" fill="#5B585A"/>
</g>
<path d="M108.483 76.4922C108.483 77.1981 108.345 77.8122 108.07 78.3347C107.795 78.8481 107.405 79.2468 106.901 79.531C106.406 79.806 105.82 79.9435 105.141 79.9435C104.463 79.9435 103.872 79.806 103.368 79.531C102.863 79.2468 102.469 78.8481 102.185 78.3347C101.91 77.8214 101.773 77.2072 101.773 76.4922C101.773 75.7864 101.915 75.1768 102.199 74.6635C102.483 74.1502 102.877 73.756 103.381 73.481C103.885 73.1968 104.472 73.0547 105.141 73.0547C105.81 73.0547 106.393 73.1968 106.888 73.481C107.392 73.756 107.781 74.1547 108.056 74.6772C108.34 75.1906 108.483 75.7956 108.483 76.4922ZM105.141 74.4022C104.637 74.4022 104.238 74.5856 103.945 74.9522C103.661 75.3189 103.519 75.8322 103.519 76.4922C103.519 77.1706 103.661 77.6931 103.945 78.0597C104.229 78.4172 104.628 78.596 105.141 78.596C105.645 78.596 106.04 78.4127 106.324 78.046C106.608 77.6793 106.75 77.1614 106.75 76.4922C106.75 75.8414 106.608 75.3327 106.324 74.966C106.04 74.5902 105.645 74.4022 105.141 74.4022Z" fill="#5B585A"/>
<path d="M97.3866 79.9435C97.0199 79.9435 96.6853 79.8931 96.3828 79.7922C96.0895 79.7006 95.8466 79.5952 95.6541 79.476V78.0185C95.8282 78.1652 96.0345 78.2981 96.2728 78.4172C96.5203 78.5272 96.8091 78.5822 97.1391 78.5822C97.6891 78.5822 98.1245 78.4127 98.4453 78.0735C98.7662 77.7252 98.9266 77.1889 98.9266 76.4647C98.9266 75.9606 98.8487 75.5618 98.6928 75.2685C98.5462 74.966 98.3399 74.746 98.0741 74.6085C97.8082 74.471 97.5103 74.4022 97.1803 74.4022C96.9237 74.4022 96.6991 74.4343 96.5066 74.4985C96.3141 74.5535 96.1491 74.6222 96.0116 74.7047V79.0497H94.3203V74.5397C94.3203 74.3289 94.3616 74.1547 94.4441 74.0172C94.5266 73.8797 94.6641 73.7514 94.8566 73.6322C95.1224 73.4764 95.4524 73.3435 95.8466 73.2335C96.2407 73.1143 96.6853 73.0547 97.1803 73.0547C97.8495 73.0547 98.4453 73.1739 98.9678 73.4122C99.4903 73.6414 99.8982 74.0081 100.191 74.5122C100.494 75.0164 100.645 75.6672 100.645 76.4647C100.645 77.2347 100.503 77.8764 100.219 78.3897C99.9441 78.9031 99.5591 79.2927 99.0641 79.5585C98.5782 79.8152 98.0191 79.9435 97.3866 79.9435ZM96.0116 78.5822V82.2122C95.9382 82.2397 95.8328 82.2627 95.6953 82.281C95.5578 82.3085 95.4066 82.3222 95.2416 82.3222C94.9299 82.3222 94.6961 82.2627 94.5403 82.1435C94.3936 82.0243 94.3203 81.8181 94.3203 81.5247V78.5685L96.0116 78.5822Z" fill="#5B585A"/>
<path d="M86.5469 77.2616V76.1754H88.2381V77.2341C88.2381 77.72 88.3619 78.0683 88.6094 78.2791C88.866 78.49 89.219 78.5954 89.6681 78.5954C89.9615 78.5954 90.209 78.5679 90.4106 78.5129C90.6123 78.4579 90.7635 78.3983 90.8644 78.3341V76.1754H92.5556V78.4716C92.5556 78.6825 92.519 78.8612 92.4456 79.0079C92.3815 79.1454 92.2531 79.2737 92.0606 79.3929C91.7948 79.5487 91.4556 79.6771 91.0431 79.7779C90.6398 79.8879 90.1769 79.9429 89.6544 79.9429C89.0219 79.9429 88.4719 79.8512 88.0044 79.6679C87.5369 79.4846 87.1748 79.1958 86.9181 78.8016C86.6706 78.3983 86.5469 77.885 86.5469 77.2616ZM92.5556 76.8354H90.8644V73.2604C90.9377 73.2421 91.0431 73.2237 91.1806 73.2054C91.3273 73.1779 91.4785 73.1641 91.6344 73.1641C91.9552 73.1641 92.189 73.2191 92.3356 73.3291C92.4823 73.4391 92.5556 73.6454 92.5556 73.9479V76.8354ZM88.2381 76.8354H86.5469V73.2604C86.6202 73.2421 86.7256 73.2237 86.8631 73.2054C87.0006 73.1779 87.1519 73.1641 87.3169 73.1641C87.6377 73.1641 87.8715 73.2191 88.0181 73.3291C88.1648 73.4391 88.2381 73.6454 88.2381 73.9479V76.8354Z" fill="#5B585A"/>
<path d="M82.7928 74.801V76.6847H81.1016V74.6635C81.1016 74.4343 81.1566 74.2418 81.2666 74.086C81.3766 73.921 81.5324 73.7697 81.7341 73.6322C82.0091 73.4672 82.3574 73.3297 82.7791 73.2197C83.2007 73.1097 83.6545 73.0547 84.1403 73.0547C85.002 73.0547 85.4328 73.3206 85.4328 73.8522C85.4328 73.9806 85.4145 74.0997 85.3778 74.2097C85.3411 74.3106 85.2953 74.4022 85.2403 74.4847C85.1486 74.4664 85.0341 74.4526 84.8966 74.4435C84.7591 74.4252 84.6124 74.416 84.4566 74.416C84.1266 74.416 83.8149 74.4526 83.5216 74.526C83.2374 74.5901 82.9945 74.6818 82.7928 74.801ZM81.1016 76.121L82.7928 76.2035V79.7235C82.7195 79.751 82.6141 79.7739 82.4766 79.7922C82.3391 79.8197 82.1878 79.8335 82.0228 79.8335C81.7111 79.8335 81.4774 79.7785 81.3216 79.6685C81.1749 79.5493 81.1016 79.3431 81.1016 79.0497V76.121Z" fill="#5B585A"/>
<path d="M76.2299 79.5172C75.6891 79.5172 75.1895 79.4164 74.7312 79.2147C74.2728 79.0039 73.9062 78.6602 73.6312 78.1835C73.3562 77.7068 73.2188 77.0789 73.2188 76.2997C73.2188 75.5847 73.3562 74.9889 73.6312 74.5122C73.9153 74.0264 74.3095 73.6643 74.8137 73.426C75.327 73.1785 75.9137 73.0547 76.5737 73.0547C77.0412 73.0547 77.472 73.1143 77.8662 73.2335C78.2695 73.3526 78.5903 73.4901 78.8287 73.646C78.9845 73.7468 79.1082 73.8706 79.1999 74.0172C79.3007 74.1547 79.3512 74.3243 79.3512 74.526V78.816H77.7012V74.6772C77.582 74.6039 77.4353 74.5397 77.2612 74.4847C77.087 74.4297 76.8716 74.4022 76.6149 74.4022C76.1107 74.4022 75.6982 74.5581 75.3774 74.8697C75.0657 75.1814 74.91 75.6581 74.91 76.2997C74.91 77.0056 75.0612 77.5006 75.3637 77.7847C75.6753 78.0689 76.0557 78.211 76.5049 78.211C76.8532 78.211 77.1329 78.1514 77.3438 78.0322C77.5637 77.9131 77.747 77.7847 77.8937 77.6472L77.9487 79.0222C77.7837 79.1506 77.5545 79.2652 77.2612 79.366C76.977 79.4668 76.6332 79.5172 76.2299 79.5172ZM77.7287 79.7922V78.4447H79.3512V79.8472C79.3512 80.4706 79.2091 80.9747 78.9249 81.3597C78.6407 81.7539 78.2512 82.0427 77.7562 82.226C77.2703 82.4093 76.7249 82.501 76.1199 82.501C75.6432 82.501 75.2262 82.4552 74.8687 82.3635C74.5203 82.2718 74.2637 82.1756 74.0987 82.0747C73.7962 81.8914 73.6449 81.6393 73.6449 81.3185C73.6449 81.1535 73.6816 81.0068 73.7549 80.8785C73.8282 80.7502 73.9153 80.6539 74.0162 80.5897C74.2453 80.7364 74.5295 80.8647 74.8687 80.9747C75.217 81.0847 75.5838 81.1397 75.9688 81.1397C76.5188 81.1397 76.9495 81.0297 77.2612 80.8097C77.5728 80.5989 77.7287 80.2597 77.7287 79.7922Z" fill="#5B585A"/>
<path d="M64.8222 78.1969C64.6755 77.8944 64.5059 77.5186 64.3134 77.0694C64.1301 76.6111 63.9376 76.084 63.7359 75.4881C63.5343 74.8831 63.328 74.2186 63.1172 73.4944C63.218 73.3844 63.3464 73.2927 63.5022 73.2194C63.658 73.1461 63.8276 73.1094 64.0109 73.1094C64.2493 73.1094 64.4418 73.1644 64.5884 73.2744C64.7443 73.3752 64.8634 73.5631 64.9459 73.8381C65.1843 74.5531 65.4226 75.259 65.6609 75.9556C65.9084 76.6523 66.1697 77.3627 66.4447 78.0869H66.4997C66.6739 77.6836 66.848 77.2115 67.0222 76.6706C67.1964 76.1206 67.3614 75.5523 67.5172 74.9656C67.6822 74.379 67.8197 73.8198 67.9297 73.2881C68.0397 73.2331 68.1543 73.1919 68.2734 73.1644C68.3926 73.1277 68.5209 73.1094 68.6584 73.1094C68.8876 73.1094 69.0847 73.1644 69.2497 73.2744C69.4239 73.3752 69.5109 73.5494 69.5109 73.7969C69.5109 74.0169 69.4697 74.3102 69.3872 74.6769C69.3139 75.0344 69.2084 75.4331 69.0709 75.8731C68.9334 76.3131 68.773 76.7715 68.5897 77.2481C68.4155 77.7248 68.2276 78.1877 68.0259 78.6369C67.8334 79.0769 67.6364 79.4756 67.4347 79.8331C66.9672 80.6673 66.5364 81.2952 66.1422 81.7169C65.748 82.1477 65.3676 82.3631 65.0009 82.3631C64.7168 82.3631 64.483 82.2761 64.2997 82.1019C64.1255 81.9369 64.0201 81.7306 63.9834 81.4831C64.1851 81.309 64.3959 81.0981 64.6159 80.8506C64.8451 80.6123 65.0651 80.3556 65.2759 80.0806C65.4868 79.8056 65.6655 79.5352 65.8122 79.2694C65.6564 79.2236 65.5005 79.1319 65.3447 78.9944C65.1889 78.8477 65.0147 78.5819 64.8222 78.1969Z" fill="#5B585A"/>
<path d="M59.2547 73.0544C59.8414 73.0544 60.3684 73.1827 60.8359 73.4394C61.3126 73.6869 61.6884 74.0673 61.9634 74.5806C62.2384 75.0848 62.3759 75.7173 62.3759 76.4781C62.3759 77.2481 62.2293 77.8898 61.9359 78.4031C61.6518 78.9165 61.2484 79.3015 60.7259 79.5581C60.2126 79.8148 59.6122 79.9431 58.9247 79.9431C58.4022 79.9431 57.9439 79.879 57.5497 79.7506C57.1647 79.6315 56.8393 79.4894 56.5734 79.3244C56.3809 79.1869 56.2389 79.0494 56.1472 78.9119C56.0647 78.7652 56.0234 78.5865 56.0234 78.3756V73.9344H57.7147V78.2656C57.8339 78.3481 57.9943 78.4261 58.1959 78.4994C58.4068 78.5636 58.6451 78.5956 58.9109 78.5956C59.4334 78.5956 59.8505 78.4215 60.1622 78.0731C60.483 77.7248 60.6434 77.1931 60.6434 76.4781C60.6434 75.754 60.4876 75.2269 60.1759 74.8969C59.8643 74.5669 59.4564 74.4019 58.9522 74.4019C58.6314 74.4019 58.3472 74.4615 58.0997 74.5806C57.8522 74.6998 57.6414 74.8373 57.4672 74.9931L57.3572 73.6181C57.568 73.4898 57.8293 73.3661 58.1409 73.2469C58.4618 73.1186 58.833 73.0544 59.2547 73.0544ZM57.7147 74.3194H56.0234V70.8131C56.0968 70.7948 56.2022 70.7719 56.3397 70.7444C56.4772 70.7169 56.6284 70.7031 56.7934 70.7031C57.1143 70.7031 57.348 70.7627 57.4947 70.8819C57.6414 70.9919 57.7147 71.1936 57.7147 71.4869V74.3194Z" fill="#5B585A"/>
<path d="M146.84 60.9062L144.313 73.6554L141.541 60.9062H134.962L132.32 72.7212L135.154 80.1026H135.652L138.148 67.6828L140.905 80.1026H147.391L149.98 67.6828C149.98 67.6828 150.646 70.9754 151.611 75.7075C152.147 78.3186 153.135 79.4366 154.651 79.8654C155.387 80.0797 156.352 80.118 157.002 80.118C157.439 80.118 157.73 80.1026 157.73 80.1026L153.472 60.9062H146.84Z" fill="#5B585A"/>
<path d="M158.698 80.0951H162.389V60.9062H157.273V73.6783L158.698 80.0951Z" fill="#5B585A"/>
<path d="M176.733 62.1388C175.577 61.3119 174.099 60.8984 172.284 60.8984H163.492V80.0948C163.492 80.0948 168.279 79.6813 168.279 76.1514V73.502H169.351C169.848 73.502 170.254 73.5633 170.591 73.6934C170.921 73.8236 171.219 74.038 171.472 74.329C171.732 74.6199 171.97 75.0334 172.2 75.5541C172.429 76.0748 174.06 80.1024 174.06 80.1024H179.398L177.522 74.8803C177.399 74.551 177.223 74.0839 177.001 73.479C176.657 72.5449 176.343 71.8863 176.075 71.4882C175.814 71.09 175.385 70.8143 174.796 70.6459V70.5923C177.246 70.0257 178.479 68.41 178.479 65.753C178.479 64.1833 177.897 62.9811 176.741 62.1541M173.019 67.8893C172.797 68.2033 172.514 68.4253 172.154 68.5632C171.794 68.7086 171.418 68.7929 171.013 68.8312C170.607 68.8618 170.147 68.8848 169.611 68.8848H168.263V64.5432H169.611C170.767 64.5432 171.633 64.6733 172.222 64.926C172.567 65.0868 172.843 65.3165 173.042 65.5998C173.249 65.8832 173.341 66.243 173.341 66.6642C173.341 67.1772 173.233 67.5907 173.011 67.9046" fill="#5B585A"/>
<path d="M127.836 75.9748L129.268 80.0944H134.207L126.817 60.875H121.541L114.25 80.0714C114.25 80.0714 114.564 80.125 115.054 80.125C116.479 80.125 119.404 79.6503 120.629 75.9748H127.836ZM124.29 64.8414H124.343L126.289 71.2274L122.192 71.2045L124.29 64.8414Z" fill="#5B585A"/>
</g>
<defs>
<clipPath id="clip0_6875_13762">
<rect width="232" height="82" fill="white" transform="translate(0 0.5)"/>
</clipPath>
</defs>
</svg>
