<svg width="232" height="82" viewBox="0 0 232 82" fill="none" xmlns="http://www.w3.org/2000/svg">
<g clip-path="url(#clip0_6759_12165)">
<path d="M0 45.2173V25.85C0 24.8412 0.20544 24.0908 0.616319 23.5832C1.03031 23.0788 1.56259 22.8297 2.21626 22.8297C2.86993 22.8297 3.43645 23.0757 3.85355 23.5801C4.27066 24.0752 4.47921 24.8318 4.47921 25.85V45.2173C4.47921 46.2323 4.27066 46.9983 3.85355 47.4965C3.43645 48.0009 2.89172 48.25 2.21626 48.25C1.5408 48.25 1.04276 47.9947 0.625658 47.4903C0.208553 46.9796 0 46.2199 0 45.2142" fill="#CCD1DC"/>
<path d="M15.328 25.8126L23.9471 40.3038V25.6756C23.9471 24.726 24.1277 24.0129 24.4981 23.5428C24.8654 23.0632 25.3603 22.8297 25.9829 22.8297C26.6054 22.8297 27.1346 23.0664 27.505 23.5428C27.8785 24.0129 28.0622 24.7291 28.0622 25.6756V45.0149C28.0622 47.1727 27.2591 48.25 25.6467 48.25C25.2451 48.25 24.8841 48.1846 24.5603 48.0601C24.2397 47.9293 23.9378 47.7238 23.6576 47.4467C23.3744 47.1664 23.1129 46.8395 22.8701 46.4659C22.6336 46.0922 22.3908 45.7061 22.1449 45.3169L13.7436 30.997V45.401C13.7436 46.3382 13.5475 47.0481 13.1553 47.5308C12.7631 48.0103 12.2589 48.25 11.6456 48.25C11.0324 48.25 10.5033 48.0071 10.1235 47.5214C9.74377 47.0326 9.55078 46.3289 9.55078 45.401V26.4385C9.55078 25.632 9.63171 25 9.79046 24.5423C9.98345 24.0378 10.3009 23.6299 10.743 23.3061C11.185 22.9885 11.6612 22.8297 12.1779 22.8297C12.5795 22.8297 12.9219 22.9013 13.2082 23.0477C13.4977 23.1909 13.7498 23.3871 13.9646 23.6362C14.1825 23.879 14.4035 24.2029 14.6276 24.589C14.8549 24.9813 15.0883 25.3892 15.328 25.8126Z" fill="#CCD1DC"/>
<path d="M44.4577 42.499C44.4577 43.5733 44.2055 44.5416 43.7075 45.3979C43.2095 46.2542 42.4811 46.9236 41.5193 47.4125C40.5574 47.8982 39.4213 48.1411 38.1015 48.1411C36.5202 48.1411 35.2191 47.8048 34.195 47.1416C33.4697 46.6652 32.8783 46.03 32.4208 45.2329C31.9663 44.4327 31.7422 43.6605 31.7422 42.9069C31.7422 42.4741 31.876 42.1005 32.15 41.7891C32.4208 41.4778 32.7725 41.3221 33.1927 41.3221C33.5351 41.3221 33.8246 41.4404 34.0581 41.6833C34.2977 41.9261 34.4969 42.2842 34.665 42.7606C34.8674 43.3304 35.0884 43.8006 35.3249 44.1836C35.5615 44.5665 35.8977 44.8779 36.3241 45.127C36.7537 45.3699 37.3171 45.4944 38.0174 45.4944C38.9793 45.4944 39.7575 45.2484 40.3613 44.744C40.959 44.2489 41.2609 43.6262 41.2609 42.882C41.2609 42.2935 41.0959 41.814 40.7753 41.4466C40.4485 41.0792 40.0314 40.7958 39.5209 40.5997C39.0042 40.4066 38.3194 40.2011 37.4603 39.9832C36.3117 39.6874 35.3498 39.3355 34.5748 38.9339C33.7997 38.5353 33.1865 37.9904 32.7289 37.2992C32.2745 36.6048 32.0503 35.7485 32.0503 34.7179C32.0503 33.6873 32.2869 32.8715 32.7694 32.1117C33.2487 31.352 33.9429 30.7635 34.8549 30.3556C35.7638 29.9508 36.8346 29.7484 38.0641 29.7484C39.0446 29.7484 39.8944 29.8792 40.6103 30.1532C41.3294 30.4241 41.9208 30.7853 42.397 31.2337C42.8702 31.6789 43.2157 32.1522 43.4336 32.6473C43.6515 33.1392 43.7604 33.6219 43.7604 34.092C43.7604 34.5217 43.6235 34.9047 43.3526 35.2503C43.0787 35.596 42.7394 35.7672 42.3317 35.7672C41.9581 35.7672 41.678 35.6645 41.485 35.4558C41.292 35.2503 41.0804 34.9109 40.8594 34.4439C40.5668 33.7713 40.2181 33.2451 39.8104 32.8715C39.4057 32.4947 38.7489 32.3048 37.8462 32.3048C37.0089 32.3048 36.3335 32.5103 35.8199 32.9182C35.3063 33.3261 35.051 33.818 35.051 34.3909C35.051 34.7459 35.1382 35.0542 35.3125 35.3157C35.4899 35.5742 35.7296 35.7983 36.0346 35.9821C36.3397 36.1658 36.6478 36.3121 36.9591 36.4211C37.2735 36.5238 37.7902 36.6764 38.5092 36.8757C39.4151 37.1154 40.2306 37.3708 40.9621 37.6541C41.6936 37.9344 42.3161 38.28 42.8297 38.6848C43.3464 39.0895 43.7417 39.6033 44.0281 40.2198C44.3145 40.8363 44.4608 41.5961 44.4608 42.4959" fill="#CCD1DC"/>
<path d="M53.4169 40.9079H50.4474V45.9427C50.4474 46.662 50.298 47.2069 49.9898 47.5805C49.6848 47.9511 49.3019 48.141 48.835 48.141C48.3681 48.141 47.9541 47.9542 47.6553 47.5868C47.3564 47.2193 47.207 46.6776 47.207 45.9676V32.2611C47.207 31.4671 47.372 30.9035 47.6988 30.5641C48.0257 30.2216 48.5455 30.0535 49.2583 30.0535H53.4138C54.6464 30.0535 55.5927 30.1593 56.2526 30.3711C56.9063 30.5703 57.4728 30.9066 57.949 31.3768C58.4253 31.8438 58.7864 32.4168 59.0354 33.0987C59.2813 33.7775 59.4089 34.5434 59.4089 35.3935C59.4089 37.1994 58.9046 38.5726 57.8992 39.5129C56.8938 40.447 55.3997 40.911 53.4107 40.911M52.6325 32.7531H50.4474V38.1896H52.6325C53.3951 38.1896 54.0332 38.0993 54.5499 37.9218C55.0635 37.7412 55.4526 37.4548 55.7234 37.0469C55.9911 36.6421 56.1281 36.1127 56.1281 35.462C56.1281 34.6742 55.9195 34.039 55.5056 33.5408C55.0386 33.0146 54.083 32.7531 52.6356 32.7531" fill="#CCD1DC"/>
<path d="M62.25 45.9397V31.9311C62.25 31.2025 62.3994 30.6576 62.6982 30.2933C62.9971 29.9259 63.3799 29.7484 63.8562 29.7484C64.3324 29.7484 64.7371 29.929 65.039 30.2902C65.3409 30.6483 65.4935 31.1932 65.4935 31.9342V45.9428C65.4935 46.6776 65.3409 47.2319 65.039 47.59C64.7371 47.9574 64.3449 48.1411 63.8562 48.1411C63.3675 48.1411 63.0064 47.9574 62.7076 47.5868C62.4025 47.2194 62.2531 46.6745 62.2531 45.9428" fill="#CCD1DC"/>
<path d="M73.4694 40.226H72.3333V45.9397C72.3333 46.6932 72.1839 47.2474 71.8851 47.6024C71.5894 47.9573 71.1972 48.1379 70.7178 48.1379C70.2011 48.1379 69.7995 47.948 69.5194 47.5775C69.2361 47.2038 69.0898 46.6589 69.0898 45.9397V32.258C69.0898 31.4796 69.2486 30.9223 69.563 30.5704C69.8742 30.2248 70.3785 30.0504 71.0789 30.0504H76.3518C77.0771 30.0504 77.6996 30.0847 78.2163 30.1532C78.7331 30.2217 79.2031 30.3618 79.6171 30.5704C80.1182 30.8039 80.5602 31.1402 80.9493 31.5761C81.3322 32.0152 81.6248 32.5196 81.824 33.0987C82.0232 33.6748 82.1228 34.2882 82.1228 34.9358C82.1228 36.2623 81.7898 37.324 81.1143 38.1149C80.4419 38.9089 79.4179 39.4725 78.0545 39.8025C78.6272 40.1451 79.1782 40.6432 79.7011 41.3065C80.2241 41.9666 80.691 42.6765 81.0987 43.4207C81.5127 44.1711 81.8333 44.8436 82.0606 45.4508C82.2909 46.0518 82.403 46.4659 82.403 46.6963C82.403 46.9267 82.3345 47.1633 82.2006 47.3906C82.0637 47.6242 81.8831 47.8048 81.6466 47.9355C81.4162 48.0694 81.1423 48.1411 80.8404 48.1411C80.4731 48.1411 80.1711 48.0445 79.9252 47.8515C79.6762 47.6615 79.4614 47.4218 79.2871 47.1322C79.1066 46.8395 78.8669 46.4129 78.5619 45.8463L77.2639 43.4425C76.7969 42.5613 76.383 41.8918 76.0157 41.4279C75.6484 40.9671 75.2748 40.6526 74.8982 40.4813C74.5184 40.3101 74.0422 40.226 73.4694 40.226ZM75.3215 32.7531H72.3333V37.6447H75.2375C76.0125 37.6447 76.6693 37.5669 77.2016 37.4143C77.7339 37.268 78.1385 37.0095 78.4187 36.6515C78.6988 36.2934 78.8358 35.7983 78.8358 35.1693C78.8358 34.6712 78.7237 34.2415 78.4996 33.8585C78.2724 33.4848 77.9611 33.2046 77.5627 33.0178C77.1829 32.8434 76.4359 32.75 75.3215 32.75" fill="#CCD1DC"/>
<path d="M95.4278 45.8183L94.6652 43.5888H88.1627L87.4001 45.8681C87.0981 46.7555 86.846 47.3627 86.6375 47.674C86.4258 47.9854 86.0803 48.1411 85.6009 48.1411C85.1932 48.1411 84.8321 47.9761 84.5208 47.6398C84.2064 47.3097 84.0508 46.9361 84.0508 46.5126C84.0508 46.2697 84.0913 46.0206 84.1628 45.7622C84.2344 45.5007 84.3527 45.1395 84.5208 44.6818L88.614 33.1361C88.7323 32.7998 88.8693 32.4013 89.0311 31.9373C89.1961 31.4703 89.3735 31.0873 89.5572 30.779C89.7408 30.4677 89.9867 30.2217 90.2887 30.0318C90.5906 29.8387 90.961 29.7484 91.4062 29.7484C91.8513 29.7484 92.2341 29.8418 92.5361 30.0318C92.838 30.2217 93.0808 30.4677 93.2676 30.7666C93.4512 31.0686 93.61 31.3893 93.7345 31.7287C93.8621 32.0744 94.0271 32.5321 94.2232 33.1112L98.4004 44.5852C98.7273 45.4571 98.8923 46.0954 98.8923 46.4877C98.8923 46.9018 98.7366 47.2786 98.4254 47.6242C98.1203 47.9667 97.7468 48.1411 97.3079 48.1411C97.0526 48.1411 96.8379 48.0882 96.6573 47.9854C96.4737 47.8889 96.3243 47.7456 96.1966 47.5775C96.0752 47.4 95.9414 47.1354 95.7982 46.7742C95.655 46.4161 95.5336 46.0985 95.4309 45.8214M89.0125 40.883H93.7905L91.3781 33.5409L89.0125 40.883Z" fill="#CCD1DC"/>
<path d="M115.502 25.8126L124.115 40.3038V25.6756C124.115 24.726 124.299 24.0129 124.669 23.5428C125.033 23.0632 125.528 22.8297 126.151 22.8297C126.773 22.8297 127.303 23.0664 127.679 23.5428C128.053 24.0129 128.236 24.7291 128.236 25.6756V45.0149C128.236 47.1727 127.43 48.25 125.821 48.25C125.416 48.25 125.058 48.1846 124.738 48.0601C124.411 47.9293 124.112 47.7238 123.829 47.4467C123.549 47.1664 123.287 46.8395 123.044 46.4659C122.802 46.0922 122.565 45.7061 122.319 45.3169L113.915 30.997V45.401C113.915 46.3382 113.722 47.0481 113.326 47.5308C112.934 48.0103 112.433 48.25 111.817 48.25C111.2 48.25 110.674 48.0071 110.291 47.5214C109.912 47.0326 109.719 46.3289 109.719 45.401V26.4385C109.719 25.632 109.8 25 109.962 24.5423C110.155 24.0378 110.469 23.6299 110.914 23.3061C111.356 22.9885 111.832 22.8297 112.343 22.8297C112.747 22.8297 113.093 22.9013 113.379 23.0477C113.669 23.1909 113.921 23.3871 114.133 23.6362C114.35 23.879 114.571 24.2029 114.799 24.589C115.023 24.9813 115.253 25.3892 115.499 25.8126" fill="#CCD1DC"/>
<path d="M143.012 32.8247H135.71V37.1901H142.433C142.928 37.1901 143.296 37.3178 143.542 37.5576C143.784 37.8067 143.906 38.1336 143.906 38.5353C143.906 38.9369 143.787 39.2701 143.548 39.5254C143.308 39.7808 142.935 39.9053 142.436 39.9053H135.713V44.962H143.271C143.775 44.962 144.158 45.099 144.419 45.3605C144.678 45.6252 144.805 45.9739 144.805 46.4067C144.805 46.8395 144.678 47.1696 144.419 47.4311C144.158 47.6958 143.775 47.8235 143.271 47.8235H134.459C133.749 47.8235 133.245 47.6553 132.933 47.3035C132.628 46.9547 132.473 46.3943 132.473 45.619V32.2487C132.473 31.7318 132.541 31.3115 132.681 30.9814C132.815 30.6545 133.036 30.4147 133.326 30.2684C133.624 30.1158 133.998 30.0442 134.459 30.0442H143.015C143.532 30.0442 143.915 30.1719 144.167 30.4241C144.419 30.6825 144.541 31.0126 144.541 31.4236C144.541 31.8346 144.419 32.1833 144.167 32.4417C143.912 32.694 143.529 32.8216 143.015 32.8216" fill="#CCD1DC"/>
<path d="M157.771 33.0208H154.232V45.9396C154.232 46.6838 154.082 47.238 153.783 47.5992C153.488 47.9604 153.099 48.141 152.629 48.141C152.159 48.141 151.757 47.9573 151.455 47.593C151.15 47.2318 150.998 46.6776 150.998 45.9427V33.0239H147.465C146.911 33.0239 146.503 32.8869 146.229 32.6192C145.961 32.3483 145.824 31.9871 145.824 31.5449C145.824 31.1028 145.967 30.7198 146.248 30.452C146.525 30.1842 146.932 30.0535 147.462 30.0535H157.768C158.328 30.0535 158.745 30.1874 159.016 30.4676C159.287 30.7385 159.424 31.0997 159.424 31.5449C159.424 31.9902 159.281 32.3483 159.01 32.6192C158.733 32.8869 158.316 33.0239 157.765 33.0239" fill="#CCD1DC"/>
<path d="M172.681 45.0304L170.095 34.3659L167.474 45.0304C167.268 45.8368 167.106 46.4222 166.988 46.7709C166.867 47.1228 166.658 47.4373 166.362 47.7206C166.06 47.9977 165.668 48.1379 165.17 48.1379C164.772 48.1379 164.442 48.0569 164.183 47.8825C163.925 47.7175 163.71 47.484 163.558 47.1819C163.399 46.8768 163.265 46.5187 163.166 46.1046C163.063 45.6874 162.973 45.3013 162.892 44.9432L160.227 32.971C160.068 32.2766 159.984 31.7473 159.984 31.383C159.984 30.919 160.131 30.5361 160.423 30.2216C160.716 29.9071 161.074 29.7483 161.503 29.7483C162.095 29.7483 162.49 29.9569 162.692 30.3742C162.898 30.7976 163.078 31.4048 163.228 32.2081L165.323 42.5892L167.67 32.8713C167.847 32.1272 168 31.5636 168.143 31.1744C168.277 30.782 168.501 30.4489 168.818 30.1655C169.13 29.8853 169.556 29.7421 170.098 29.7421C170.639 29.7421 171.066 29.8884 171.368 30.1842C171.67 30.4769 171.878 30.7976 171.993 31.1463C172.112 31.4889 172.264 32.0711 172.463 32.8682L174.829 42.5861L176.924 32.205C177.027 31.6632 177.123 31.2366 177.216 30.9315C177.304 30.6264 177.459 30.3492 177.683 30.1064C177.907 29.8635 178.228 29.7452 178.648 29.7452C179.068 29.7452 179.426 29.9009 179.722 30.2122C180.018 30.5236 180.164 30.9128 180.164 31.3799C180.164 31.713 180.083 32.2393 179.925 32.9679L177.26 44.9401C177.076 45.7528 176.924 46.3444 176.802 46.7211C176.684 47.0948 176.482 47.4248 176.195 47.7082C175.909 47.9946 175.501 48.1379 174.975 48.1379C174.483 48.1379 174.085 47.9946 173.789 47.7237C173.487 47.4466 173.285 47.1415 173.167 46.7958C173.048 46.4502 172.887 45.8617 172.675 45.0304" fill="#CCD1DC"/>
<path d="M189.63 29.7484C191.289 29.7484 192.715 30.1189 193.904 30.8662C195.096 31.6166 195.996 32.6815 196.603 34.0578C197.216 35.4372 197.521 37.0563 197.521 38.9214C197.521 40.2945 197.356 41.5431 197.02 42.6672C196.684 43.7943 196.183 44.7658 195.513 45.5941C194.841 46.4192 194.019 47.0482 193.048 47.4872C192.074 47.9262 190.956 48.1442 189.696 48.1442C188.435 48.1442 187.324 47.9138 186.337 47.4685C185.347 47.0233 184.519 46.3912 183.859 45.5754C183.196 44.7596 182.698 43.7757 182.359 42.6236C182.023 41.4746 181.852 40.2354 181.852 38.9027C181.852 37.57 182.029 36.281 182.381 35.1382C182.732 34.0017 183.243 33.0303 183.915 32.2238C184.585 31.4267 185.4 30.8133 186.359 30.3867C187.321 29.9633 188.41 29.7546 189.633 29.7546M194.234 38.8934C194.234 37.5918 194.044 36.4616 193.667 35.5088C193.288 34.5498 192.749 33.8305 192.046 33.3416C191.345 32.8528 190.539 32.6068 189.63 32.6068C188.98 32.6068 188.382 32.7407 187.834 33.0147C187.283 33.2856 186.813 33.6779 186.412 34.1948C186.02 34.7148 185.708 35.378 185.475 36.1782C185.248 36.9847 185.136 37.8876 185.136 38.8934C185.136 39.8991 185.248 40.8114 185.475 41.6334C185.708 42.4492 186.029 43.1311 186.449 43.6636C186.866 44.2054 187.349 44.607 187.893 44.8748C188.435 45.1395 189.026 45.2765 189.677 45.2765C190.502 45.2765 191.268 45.0429 191.962 44.5852C192.656 44.1244 193.21 43.4114 193.621 42.4523C194.035 41.4902 194.237 40.3008 194.237 38.8965" fill="#CCD1DC"/>
<path d="M204.646 40.226H203.513V45.9397C203.513 46.6932 203.36 47.2474 203.065 47.6024C202.763 47.9573 202.377 48.1379 201.897 48.1379C201.378 48.1379 200.979 47.948 200.699 47.5775C200.413 47.2038 200.27 46.6589 200.27 45.9397V32.258C200.27 31.4796 200.425 30.9223 200.743 30.5704C201.054 30.2248 201.558 30.0504 202.259 30.0504H207.528C208.257 30.0504 208.879 30.0847 209.396 30.1532C209.913 30.2217 210.38 30.3618 210.794 30.5704C211.298 30.8039 211.743 31.1402 212.126 31.5761C212.515 32.0152 212.804 32.5196 213.004 33.0987C213.203 33.6748 213.306 34.2882 213.306 34.9358C213.306 36.2623 212.973 37.324 212.294 38.1149C211.625 38.9089 210.601 39.4725 209.234 39.8025C209.81 40.1451 210.361 40.6432 210.881 41.3065C211.407 41.9666 211.871 42.6765 212.285 43.4207C212.699 44.1711 213.013 44.8436 213.246 45.4508C213.477 46.0518 213.589 46.4659 213.589 46.6963C213.589 46.9267 213.52 47.1633 213.39 47.3906C213.253 47.6242 213.069 47.8048 212.836 47.9355C212.602 48.0694 212.334 48.1411 212.029 48.1411C211.662 48.1411 211.357 48.0445 211.117 47.8515C210.868 47.6615 210.654 47.4218 210.476 47.1322C210.299 46.8395 210.059 46.4129 209.751 45.8463L208.453 43.4425C207.986 42.5613 207.569 41.8918 207.205 41.4279C206.837 40.9671 206.461 40.6526 206.087 40.4813C205.707 40.3101 205.231 40.226 204.652 40.226M206.504 32.7531H203.516V37.6447H206.417C207.192 37.6447 207.852 37.5669 208.381 37.4143C208.917 37.268 209.318 37.0095 209.601 36.6515C209.879 36.2934 210.019 35.7983 210.019 35.1693C210.019 34.6712 209.907 34.2415 209.676 33.8585C209.455 33.4848 209.144 33.2046 208.739 33.0178C208.366 32.8434 207.616 32.75 206.504 32.75" fill="#CCD1DC"/>
<path d="M219.635 31.9311V38.1647L226 30.7883C226.305 30.4334 226.567 30.1718 226.782 30.0006C226.996 29.8293 227.283 29.7452 227.638 29.7452C228.105 29.7452 228.478 29.8978 228.771 30.1998C229.057 30.5019 229.2 30.8755 229.2 31.3083C229.2 31.8345 228.957 32.3576 228.472 32.8745L224.528 37.022L229.066 44.252C229.387 44.7533 229.633 45.1955 229.785 45.5722C229.947 45.9459 230.028 46.3133 230.028 46.6714C230.028 47.0637 229.885 47.4093 229.605 47.702C229.328 47.9947 228.948 48.141 228.469 48.141C228.014 48.141 227.647 48.0352 227.364 47.8203C227.084 47.6024 226.841 47.319 226.645 46.964C226.446 46.606 226.277 46.2853 226.119 45.9894L222.287 39.4413L219.635 42.2655V45.9427C219.635 46.6869 219.482 47.2412 219.177 47.6024C218.872 47.9635 218.477 48.1441 218.004 48.1441C217.724 48.1441 217.459 48.0632 217.204 47.9013C216.949 47.7362 216.752 47.5214 216.612 47.2443C216.51 47.017 216.454 46.7523 216.429 46.4565C216.41 46.1545 216.395 45.7217 216.395 45.1581V31.9342C216.395 31.2056 216.541 30.6607 216.827 30.2964C217.114 29.9289 217.509 29.7515 218.004 29.7515C218.499 29.7515 218.882 29.9321 219.184 30.2933C219.485 30.6513 219.638 31.1962 219.638 31.9373" fill="#CCD1DC"/>
<path fill-rule="evenodd" clip-rule="evenodd" d="M213.273 9.05466C213.273 4.05405 217.323 0 222.319 0C227.315 0 231.371 4.05716 231.371 9.05466C231.371 14.0522 227.321 18.1062 222.319 18.1062C217.317 18.1062 213.273 14.0522 213.273 9.05466Z" fill="#CCD1DC"/>
<path fill-rule="evenodd" clip-rule="evenodd" d="M188.188 9.05466C188.188 4.05405 192.237 0 197.236 0C202.235 0 206.285 4.05716 206.285 9.05466C206.285 14.0522 202.235 18.1062 197.236 18.1062C192.237 18.1062 188.188 14.0522 188.188 9.05466Z" fill="#CCD1DC"/>
<path fill-rule="evenodd" clip-rule="evenodd" d="M163.102 9.05466C163.102 4.05405 167.154 0 172.15 0C177.146 0 181.196 4.05716 181.196 9.05466C181.196 14.0522 177.149 18.1062 172.15 18.1062C167.151 18.1062 163.102 14.0522 163.102 9.05466Z" fill="#CCD1DC"/>
</g>
<path d="M108.48 75.9913C108.48 76.6972 108.342 77.3113 108.067 77.8338C107.792 78.3472 107.402 78.7459 106.898 79.0301C106.403 79.3051 105.817 79.4426 105.138 79.4426C104.46 79.4426 103.869 79.3051 103.365 79.0301C102.86 78.7459 102.466 78.3472 102.182 77.8338C101.907 77.3205 101.77 76.7063 101.77 75.9913C101.77 75.2855 101.912 74.6759 102.196 74.1626C102.48 73.6493 102.874 73.2551 103.378 72.9801C103.882 72.6959 104.469 72.5538 105.138 72.5538C105.807 72.5538 106.39 72.6959 106.885 72.9801C107.389 73.2551 107.778 73.6538 108.053 74.1763C108.337 74.6897 108.48 75.2947 108.48 75.9913ZM105.138 73.9013C104.634 73.9013 104.235 74.0847 103.942 74.4513C103.658 74.818 103.516 75.3313 103.516 75.9913C103.516 76.6697 103.658 77.1922 103.942 77.5588C104.226 77.9163 104.625 78.0951 105.138 78.0951C105.642 78.0951 106.037 77.9118 106.321 77.5451C106.605 77.1784 106.747 76.6605 106.747 75.9913C106.747 75.3405 106.605 74.8318 106.321 74.4651C106.037 74.0893 105.642 73.9013 105.138 73.9013Z" fill="#CCD1DC"/>
<path d="M97.3905 79.4426C97.0238 79.4426 96.6892 79.3922 96.3867 79.2913C96.0934 79.1997 95.8505 79.0943 95.658 78.9751V77.5176C95.8321 77.6643 96.0384 77.7972 96.2767 77.9163C96.5242 78.0263 96.813 78.0813 97.143 78.0813C97.693 78.0813 98.1284 77.9118 98.4492 77.5726C98.7701 77.2243 98.9305 76.688 98.9305 75.9638C98.9305 75.4597 98.8526 75.0609 98.6967 74.7676C98.5501 74.4651 98.3438 74.2451 98.078 74.1076C97.8121 73.9701 97.5142 73.9013 97.1842 73.9013C96.9276 73.9013 96.703 73.9334 96.5105 73.9976C96.318 74.0526 96.153 74.1213 96.0155 74.2038V78.5488H94.3242V74.0388C94.3242 73.828 94.3655 73.6538 94.448 73.5163C94.5305 73.3788 94.668 73.2505 94.8605 73.1313C95.1263 72.9755 95.4563 72.8426 95.8505 72.7326C96.2446 72.6134 96.6892 72.5538 97.1842 72.5538C97.8534 72.5538 98.4492 72.673 98.9717 72.9113C99.4942 73.1405 99.9021 73.5072 100.195 74.0113C100.498 74.5155 100.649 75.1663 100.649 75.9638C100.649 76.7338 100.507 77.3755 100.223 77.8888C99.948 78.4022 99.563 78.7918 99.068 79.0576C98.5821 79.3143 98.023 79.4426 97.3905 79.4426ZM96.0155 78.0813V81.7113C95.9421 81.7388 95.8367 81.7618 95.6992 81.7801C95.5617 81.8076 95.4105 81.8213 95.2455 81.8213C94.9338 81.8213 94.7 81.7618 94.5442 81.6426C94.3975 81.5234 94.3242 81.3172 94.3242 81.0238V78.0676L96.0155 78.0813Z" fill="#CCD1DC"/>
<path d="M86.5469 76.7614V75.6752H88.2381V76.7339C88.2381 77.2198 88.3619 77.5681 88.6094 77.7789C88.866 77.9898 89.219 78.0952 89.6681 78.0952C89.9615 78.0952 90.209 78.0677 90.4106 78.0127C90.6123 77.9577 90.7635 77.8981 90.8644 77.8339V75.6752H92.5556V77.9714C92.5556 78.1823 92.519 78.361 92.4456 78.5077C92.3815 78.6452 92.2531 78.7735 92.0606 78.8927C91.7948 79.0485 91.4556 79.1769 91.0431 79.2777C90.6398 79.3877 90.1769 79.4427 89.6544 79.4427C89.0219 79.4427 88.4719 79.351 88.0044 79.1677C87.5369 78.9844 87.1748 78.6956 86.9181 78.3014C86.6706 77.8981 86.5469 77.3848 86.5469 76.7614ZM92.5556 76.3352H90.8644V72.7602C90.9377 72.7419 91.0431 72.7235 91.1806 72.7052C91.3273 72.6777 91.4785 72.6639 91.6344 72.6639C91.9552 72.6639 92.189 72.7189 92.3356 72.8289C92.4823 72.9389 92.5556 73.1452 92.5556 73.4477V76.3352ZM88.2381 76.3352H86.5469V72.7602C86.6202 72.7419 86.7256 72.7235 86.8631 72.7052C87.0006 72.6777 87.1519 72.6639 87.3169 72.6639C87.6377 72.6639 87.8715 72.7189 88.0181 72.8289C88.1648 72.9389 88.2381 73.1452 88.2381 73.4477V76.3352Z" fill="#CCD1DC"/>
<path d="M82.7889 74.3001V76.1838H81.0977V74.1626C81.0977 73.9334 81.1527 73.7409 81.2627 73.5851C81.3727 73.4201 81.5285 73.2688 81.7302 73.1313C82.0052 72.9663 82.3535 72.8288 82.7752 72.7188C83.1968 72.6088 83.6506 72.5538 84.1364 72.5538C84.9981 72.5538 85.4289 72.8197 85.4289 73.3513C85.4289 73.4797 85.4106 73.5988 85.3739 73.7088C85.3372 73.8097 85.2914 73.9013 85.2364 73.9838C85.1447 73.9655 85.0302 73.9517 84.8927 73.9426C84.7552 73.9243 84.6085 73.9151 84.4527 73.9151C84.1227 73.9151 83.811 73.9517 83.5177 74.0251C83.2335 74.0892 82.9906 74.1809 82.7889 74.3001ZM81.0977 75.6201L82.7889 75.7026V79.2226C82.7156 79.2501 82.6102 79.273 82.4727 79.2913C82.3352 79.3188 82.1839 79.3326 82.0189 79.3326C81.7072 79.3326 81.4735 79.2776 81.3177 79.1676C81.171 79.0484 81.0977 78.8422 81.0977 78.5488V75.6201Z" fill="#CCD1DC"/>
<path d="M76.23 79.0163C75.6892 79.0163 75.1896 78.9155 74.7313 78.7138C74.2729 78.503 73.9063 78.1593 73.6313 77.6826C73.3563 77.2059 73.2188 76.578 73.2188 75.7988C73.2188 75.0838 73.3563 74.488 73.6313 74.0113C73.9154 73.5255 74.3096 73.1634 74.8138 72.9251C75.3271 72.6776 75.9138 72.5538 76.5738 72.5538C77.0413 72.5538 77.4721 72.6134 77.8663 72.7326C78.2696 72.8517 78.5904 72.9892 78.8288 73.1451C78.9846 73.2459 79.1083 73.3697 79.2 73.5163C79.3008 73.6538 79.3513 73.8234 79.3513 74.0251V78.3151H77.7013V74.1763C77.5821 74.103 77.4354 74.0388 77.2613 73.9838C77.0871 73.9288 76.8717 73.9013 76.615 73.9013C76.1108 73.9013 75.6983 74.0572 75.3775 74.3688C75.0658 74.6805 74.91 75.1572 74.91 75.7988C74.91 76.5047 75.0613 76.9997 75.3638 77.2838C75.6754 77.568 76.0558 77.7101 76.505 77.7101C76.8533 77.7101 77.1329 77.6505 77.3438 77.5313C77.5638 77.4122 77.7471 77.2838 77.8938 77.1463L77.9488 78.5213C77.7838 78.6497 77.5546 78.7643 77.2613 78.8651C76.9771 78.9659 76.6333 79.0163 76.23 79.0163ZM77.7288 79.2913V77.9438H79.3513V79.3463C79.3513 79.9697 79.2092 80.4738 78.925 80.8588C78.6408 81.253 78.2513 81.5418 77.7563 81.7251C77.2704 81.9084 76.725 82.0001 76.12 82.0001C75.6433 82.0001 75.2263 81.9543 74.8688 81.8626C74.5204 81.7709 74.2638 81.6747 74.0988 81.5738C73.7963 81.3905 73.645 81.1384 73.645 80.8176C73.645 80.6526 73.6817 80.5059 73.755 80.3776C73.8283 80.2493 73.9154 80.153 74.0163 80.0888C74.2454 80.2355 74.5296 80.3638 74.8688 80.4738C75.2171 80.5838 75.5838 80.6388 75.9688 80.6388C76.5188 80.6388 76.9496 80.5288 77.2613 80.3088C77.5729 80.098 77.7288 79.7588 77.7288 79.2913Z" fill="#CCD1DC"/>
<path d="M64.8222 77.6964C64.6755 77.3939 64.5059 77.0181 64.3134 76.5689C64.1301 76.1106 63.9376 75.5835 63.7359 74.9876C63.5343 74.3826 63.328 73.7181 63.1172 72.9939C63.218 72.8839 63.3464 72.7922 63.5022 72.7189C63.658 72.6456 63.8276 72.6089 64.0109 72.6089C64.2493 72.6089 64.4418 72.6639 64.5884 72.7739C64.7443 72.8747 64.8634 73.0626 64.9459 73.3376C65.1843 74.0526 65.4226 74.7585 65.6609 75.4551C65.9084 76.1518 66.1697 76.8622 66.4447 77.5864H66.4997C66.6739 77.1831 66.848 76.711 67.0222 76.1701C67.1964 75.6201 67.3614 75.0518 67.5172 74.4651C67.6822 73.8785 67.8197 73.3193 67.9297 72.7876C68.0397 72.7326 68.1543 72.6914 68.2734 72.6639C68.3926 72.6272 68.5209 72.6089 68.6584 72.6089C68.8876 72.6089 69.0847 72.6639 69.2497 72.7739C69.4239 72.8747 69.5109 73.0489 69.5109 73.2964C69.5109 73.5164 69.4697 73.8097 69.3872 74.1764C69.3139 74.5339 69.2084 74.9326 69.0709 75.3726C68.9334 75.8126 68.773 76.271 68.5897 76.7476C68.4155 77.2243 68.2276 77.6872 68.0259 78.1364C67.8334 78.5764 67.6364 78.9751 67.4347 79.3326C66.9672 80.1668 66.5364 80.7947 66.1422 81.2164C65.748 81.6472 65.3676 81.8626 65.0009 81.8626C64.7168 81.8626 64.483 81.7756 64.2997 81.6014C64.1255 81.4364 64.0201 81.2301 63.9834 80.9826C64.1851 80.8085 64.3959 80.5976 64.6159 80.3501C64.8451 80.1118 65.0651 79.8551 65.2759 79.5801C65.4868 79.3051 65.6655 79.0347 65.8122 78.7689C65.6564 78.7231 65.5005 78.6314 65.3447 78.4939C65.1889 78.3472 65.0147 78.0814 64.8222 77.6964Z" fill="#CCD1DC"/>
<path d="M59.2586 72.5539C59.8453 72.5539 60.3723 72.6822 60.8398 72.9389C61.3165 73.1864 61.6923 73.5668 61.9673 74.0801C62.2423 74.5843 62.3798 75.2168 62.3798 75.9776C62.3798 76.7476 62.2332 77.3893 61.9398 77.9026C61.6557 78.416 61.2523 78.801 60.7298 79.0576C60.2165 79.3143 59.6161 79.4426 58.9286 79.4426C58.4061 79.4426 57.9478 79.3785 57.5536 79.2501C57.1686 79.131 56.8432 78.9889 56.5773 78.8239C56.3848 78.6864 56.2428 78.5489 56.1511 78.4114C56.0686 78.2647 56.0273 78.086 56.0273 77.8751V73.4339H57.7186V77.7651C57.8378 77.8476 57.9982 77.9256 58.1998 77.9989C58.4107 78.0631 58.649 78.0951 58.9148 78.0951C59.4373 78.0951 59.8544 77.921 60.1661 77.5726C60.4869 77.2243 60.6473 76.6926 60.6473 75.9776C60.6473 75.2535 60.4915 74.7264 60.1798 74.3964C59.8682 74.0664 59.4603 73.9014 58.9561 73.9014C58.6353 73.9014 58.3511 73.961 58.1036 74.0801C57.8561 74.1993 57.6453 74.3368 57.4711 74.4926L57.3611 73.1176C57.5719 72.9893 57.8332 72.8656 58.1448 72.7464C58.4657 72.6181 58.8369 72.5539 59.2586 72.5539ZM57.7186 73.8189H56.0273V70.3126C56.1007 70.2943 56.2061 70.2714 56.3436 70.2439C56.4811 70.2164 56.6323 70.2026 56.7973 70.2026C57.1182 70.2026 57.3519 70.2622 57.4986 70.3814C57.6453 70.4914 57.7186 70.6931 57.7186 70.9864V73.8189Z" fill="#CCD1DC"/>
<path d="M146.844 60.4055L144.317 73.1546L141.545 60.4055H134.966L132.324 72.2205L135.158 79.6019H135.656L138.152 67.1821L140.909 79.6019H147.395L149.984 67.1821C149.984 67.1821 150.65 70.4746 151.615 75.2067C152.151 77.8178 153.139 78.9358 154.655 79.3646C155.391 79.5789 156.356 79.6172 157.006 79.6172C157.443 79.6172 157.734 79.6019 157.734 79.6019L153.476 60.4055H146.844Z" fill="#CCD1DC"/>
<path d="M158.698 79.5943H162.389V60.4055H157.273V73.1776L158.698 79.5943Z" fill="#CCD1DC"/>
<path d="M176.733 61.6385C175.577 60.8116 174.099 60.3981 172.284 60.3981H163.492V79.5945C163.492 79.5945 168.279 79.181 168.279 75.6511V73.0017H169.351C169.848 73.0017 170.254 73.063 170.591 73.1931C170.921 73.3233 171.219 73.5377 171.472 73.8287C171.732 74.1196 171.97 74.5331 172.2 75.0538C172.429 75.5745 174.06 79.6021 174.06 79.6021H179.398L177.522 74.38C177.399 74.0507 177.223 73.5836 177.001 72.9787C176.657 72.0446 176.343 71.386 176.075 70.9879C175.814 70.5897 175.385 70.314 174.796 70.1456V70.092C177.246 69.5254 178.479 67.9097 178.479 65.2527C178.479 63.683 177.897 62.4808 176.741 61.6538M173.019 67.389C172.797 67.703 172.514 67.925 172.154 68.0629C171.794 68.2083 171.418 68.2926 171.013 68.3309C170.607 68.3615 170.147 68.3845 169.611 68.3845H168.263V64.0429H169.611C170.767 64.0429 171.633 64.173 172.222 64.4257C172.567 64.5865 172.843 64.8162 173.042 65.0995C173.249 65.3829 173.341 65.7427 173.341 66.1639C173.341 66.6769 173.233 67.0904 173.011 67.4043" fill="#CCD1DC"/>
<path d="M127.836 75.4748L129.268 79.5944H134.207L126.817 60.375H121.541L114.25 79.5714C114.25 79.5714 114.564 79.625 115.054 79.625C116.479 79.625 119.404 79.1503 120.629 75.4748H127.836ZM124.29 64.3414H124.343L126.289 70.7274L122.192 70.7045L124.29 64.3414Z" fill="#CCD1DC"/>
<defs>
<clipPath id="clip0_6759_12165">
<rect width="231.375" height="48.25" fill="white"/>
</clipPath>
</defs>
</svg>
