<svg width="266" height="83" viewBox="0 0 266 83" fill="none" xmlns="http://www.w3.org/2000/svg">
<g clip-path="url(#clip0_6875_13972)">
<path d="M198.629 0.620916C190.779 1.36717 184.375 5.73807 181.069 12.4543C177.971 18.8508 178.177 27.1661 181.689 33.3494C188.3 44.863 205.033 47.7414 215.671 39.1062C218.77 36.5476 221.352 32.7097 222.592 28.6586C223.315 26.1001 223.625 21.1961 223.108 18.4243C221.249 6.91075 210.817 -0.551769 198.629 0.620916ZM204.929 9.1495C211.127 10.8552 214.948 17.3583 214.019 24.501C213.296 29.8313 210.3 33.6692 205.549 35.3749C203.173 36.2278 199.145 36.2278 196.769 35.3749C190.985 33.2428 187.783 27.8058 188.3 21.0895C188.713 15.2261 192.018 10.8552 197.286 9.1495C198.732 8.61647 203.173 8.61647 204.929 9.1495Z" fill="#5B585A"/>
<path d="M246.644 0.620509C237.554 1.47337 231.873 7.01695 232.493 14.4795C232.803 19.1702 235.591 22.475 240.549 24.2873C241.685 24.7138 244.887 25.5666 247.676 26.4195C254.493 28.2318 255.939 29.0847 256.145 31.6433C256.352 33.349 255.527 34.6283 253.667 35.5877C252.428 36.334 252.118 36.334 247.986 36.334C243.958 36.334 243.442 36.2274 241.376 35.5877C240.136 35.1613 238.071 34.3084 236.831 33.6688L234.661 32.4961L233.113 36.0142L231.562 39.5322L232.493 40.2784C233.939 41.2379 237.244 42.7304 239.93 43.3701C250.362 46.0352 260.278 43.4767 263.79 37.2934C265.442 34.3084 265.751 29.9375 264.512 27.0591C263.685 25.1402 261.207 22.7948 259.037 21.7288C258.108 21.3023 255.63 20.4495 253.667 19.9164C244.061 17.2513 242.719 16.7182 241.892 15.3323C240.859 13.52 241.582 11.1746 243.545 9.78874C246.334 7.86981 253.357 8.29624 258.419 10.6416C259.555 11.1746 260.588 11.4945 260.691 11.3879C260.898 11.068 263.377 4.8848 263.377 4.56498C263.377 4.35176 260.69 2.96587 258.831 2.32623C255.629 0.833724 250.672 0.300687 246.644 0.620509Z" fill="#5B585A"/>
<path d="M94.9103 1.04752C86.6472 2.85984 80.5531 8.61664 78.4873 16.7188C77.7643 19.5972 77.661 24.7144 78.384 27.5928C79.9334 34.0958 84.9945 40.0659 91.1919 42.5178C94.3939 43.7971 96.1498 44.1169 100.281 44.1169C104.723 44.0103 107.098 43.4773 110.61 41.7716C114.949 39.6394 118.357 36.1214 120.32 31.8571C121.869 28.5523 122.282 26.7399 122.282 22.2624C122.282 18.9576 122.179 17.9981 121.662 16.2924C119.287 8.40342 113.296 2.85984 105.549 1.15413C102.45 0.514481 97.6992 0.514481 94.9103 1.04752ZM103.38 9.04307C109.061 10.429 112.883 15.5462 112.986 22.0492C112.986 25.0342 112.573 27.0598 111.437 29.2985C106.789 38.4667 93.0511 38.2535 88.6097 29.0853C85.6143 22.6889 87.2669 14.7999 92.3281 11.1753C95.4268 8.93646 99.7649 8.19021 103.38 9.04307Z" fill="#5B585A"/>
<path d="M0 5.09682V9.04129H8.98619H17.9724V26.4183V43.7953H22.7237H27.475V22.3672V1.15234H13.6342H0V5.09682Z" fill="#5B585A"/>
<path d="M40.5938 5.09682V9.04129H44.4155C49.3734 9.04129 51.749 9.36111 53.5049 10.3206C56.0872 11.8131 57.4299 14.9047 56.7069 18.1029C56.2938 20.3417 55.2609 21.7276 53.2984 22.7937C51.749 23.6465 51.5424 23.6465 47.824 23.7531C45.6549 23.8597 44.0023 23.9663 44.0023 23.9663C44.0023 24.073 51.6457 35.4799 55.674 41.2367L57.2234 43.4755L62.1813 43.5821C65.1767 43.5821 67.1391 43.5821 67.1391 43.3689C67.1391 43.2623 65.1766 40.1707 62.8009 36.6526C60.4252 33.1346 58.4627 30.1496 58.4627 30.043C58.4627 29.9364 59.1858 29.4033 60.0121 28.8703C64.1437 26.4183 66.5194 21.9408 66.5194 16.6104C66.5194 9.2545 62.3877 4.03074 55.2608 2.0052C53.5048 1.57878 52.1622 1.36556 46.9977 1.25895L40.8003 1.15234V5.09682H40.5938Z" fill="#5B585A"/>
<path d="M134.383 5.09795V9.04242H143.989C149.773 9.04242 154.111 9.14903 154.938 9.36224C156.9 9.78867 158.553 10.9613 159.482 12.5604C160.205 13.7331 160.205 14.1596 160.205 16.3983C160.205 18.4238 160.102 19.1701 159.586 20.023C158.759 21.5155 157.726 22.4749 155.867 23.2212C154.421 23.7542 153.801 23.8608 144.402 23.8608H134.383V33.5621V43.37H139.031H143.679V37.5066V31.6432L150.289 31.5366C155.351 31.4299 157.21 31.3233 158.449 30.8969C165.783 28.7648 169.708 23.7542 169.811 16.6115C169.914 10.5349 167.436 6.16402 162.374 3.49884C158.553 1.4733 157.623 1.3667 145.435 1.15348L134.486 1.04688V5.09795H134.383Z" fill="#5B585A"/>
<path d="M0.100594 54.6725C0.100594 54.8857 -0.00269559 56.5914 0.100594 58.617L0.203883 62.2416L48.75 62.3482L97.296 62.4548L99.2585 64.2672C100.395 65.3332 105.249 69.8108 110.207 74.3949C115.062 78.979 119.193 82.6036 119.4 82.497C119.503 82.3904 119.607 77.8063 119.607 72.2627V62.3482H192.426H265.348L265.245 58.4038L265.142 54.4593H188.501H111.86L111.757 59.6831C111.757 62.5615 111.653 64.9068 111.55 64.9068C111.447 64.9068 108.864 62.5615 105.662 59.5764L99.8783 54.2461H50.0927C9.39665 54.2461 0.203883 54.3527 0.100594 54.6725Z" fill="#5B585A"/>
<path d="M239.102 64.478L237.656 65.9706H238.896C240.032 65.9706 240.342 65.7573 241.891 64.478C242.821 63.7318 243.647 62.9855 243.647 62.9855C243.647 62.8789 242.924 62.8789 242.098 62.8789C240.652 62.9855 240.548 62.9855 239.102 64.478Z" fill="#5B585A"/>
<path d="M145.829 67.1429C144.28 67.5694 143.557 67.9958 142.421 69.0619C140.665 70.661 140.148 72.0469 140.148 74.6055C140.148 77.164 140.665 78.5499 142.421 80.149C144.073 81.6415 145.21 82.068 147.688 82.1746C152.44 82.1746 155.435 79.2962 155.435 74.6055C155.435 70.2346 152.75 67.3562 148.308 67.0363C147.379 66.9297 146.242 67.0363 145.829 67.1429ZM150.064 70.3412C151.613 71.4072 152.233 72.5799 152.233 74.6055C152.233 76.631 151.613 77.8037 150.064 78.8697C148.928 79.616 147.172 79.7226 145.829 79.083C142.627 77.5905 142.627 71.8337 145.726 70.2346C147.069 69.4883 148.928 69.4883 150.064 70.3412Z" fill="#5B585A"/>
<path d="M215.139 67.041C213.383 67.4675 212.66 67.8939 211.524 68.9599C209.665 70.7723 209.148 71.945 209.148 74.6101C209.148 77.1687 209.665 78.448 211.421 80.1537C213.9 82.7123 218.238 82.9255 221.337 80.9L222.679 80.0471L221.646 78.981L220.614 77.915L219.684 78.6612C218.341 79.7273 216.275 79.8339 214.829 79.0876C213.28 78.2348 212.454 76.8489 212.454 74.7167C212.454 72.6912 213.28 71.1987 214.829 70.3458C216.379 69.493 217.928 69.5996 219.477 70.5591L220.717 71.3053L221.75 70.3458C222.989 69.2798 222.886 68.96 220.717 67.8939C219.271 67.1476 216.379 66.7212 215.139 67.041Z" fill="#5B585A"/>
<path d="M237.657 67.1429C236.108 67.5694 235.385 67.9958 234.249 69.0619C232.493 70.661 231.977 72.0469 231.977 74.6055C231.977 77.164 232.493 78.5499 234.249 80.149C235.902 81.6415 237.038 82.068 239.517 82.1746C244.268 82.1746 247.263 79.2962 247.263 74.6055C247.263 70.2346 244.578 67.3562 240.136 67.0363C239.207 66.9297 238.071 67.0363 237.657 67.1429ZM241.892 70.3412C243.442 71.4072 244.061 72.5799 244.061 74.6055C244.061 76.631 243.442 77.8037 241.892 78.8697C240.756 79.616 239 79.7226 237.657 79.083C234.456 77.5905 234.456 71.8337 237.554 70.2346C238.897 69.4883 240.756 69.4883 241.892 70.3412Z" fill="#5B585A"/>
<path d="M127.242 74.5016V81.8575H128.895H130.444L130.547 79.0857L130.651 76.4205L133.956 76.3139L137.261 76.2073V75.1412V73.8619H133.853H130.444L130.547 71.8364L130.651 69.8108L134.369 69.7042L138.088 69.5976V68.3183V67.0391H132.717H127.345V74.5016H127.242Z" fill="#5B585A"/>
<path d="M158.431 74.5016V81.8575H160.084H161.633L161.737 79.8319L161.84 77.8064L163.286 77.6998L164.732 77.5932L166.178 79.7253L167.624 81.8575H169.38H171.136L169.483 79.5121L167.831 77.2734L168.76 76.6337C171.136 75.0346 171.446 70.9835 169.38 68.8514C168.037 67.4655 166.281 67.0391 161.943 67.0391H158.328V74.5016H158.431ZM165.971 70.1307C167.108 70.7703 167.727 71.8364 167.521 73.1157C167.211 74.7148 166.488 75.1412 163.906 75.2478L161.633 75.3544V72.6892C161.633 71.1967 161.737 69.9174 161.84 69.9174C162.253 69.491 165.042 69.7042 165.971 70.1307Z" fill="#5B585A"/>
<path d="M174.127 74.5004V81.9629H175.779H177.329L177.432 77.8052L177.535 73.6475L179.498 76.9524C181.254 79.8307 181.564 80.2572 182.183 80.2572C183.01 80.3638 183.113 80.1506 185.075 76.7391L187.141 73.1145V77.4854V81.8563H188.587H190.033V74.5004V67.1445H188.794H187.451L184.869 71.7286C183.423 74.2872 182.183 76.2061 182.08 76.0995C181.977 75.9929 180.737 73.9673 179.394 71.622L176.916 67.3577L175.469 67.2511L174.023 67.1445V74.5004H174.127Z" fill="#5B585A"/>
<path d="M198.001 68.32C197.691 68.9596 196.349 72.2644 194.902 75.5693C193.456 78.8741 192.32 81.7525 192.32 81.7525C192.32 81.8591 193.043 81.9657 193.87 81.9657H195.419L196.039 80.4732L196.658 78.9807H200.067H203.475L204.199 80.4732L204.818 81.9657H206.471C207.4 81.9657 208.124 81.8591 208.02 81.7525C208.02 81.6459 206.574 78.2345 204.818 74.3966L201.72 67.2539H200.17H198.621L198.001 68.32ZM201.306 73.5437C201.823 74.823 202.236 75.9957 202.236 76.1023C202.236 76.2089 201.306 76.3155 200.067 76.3155C198.518 76.3155 197.898 76.2089 197.898 75.9957C197.898 75.2495 199.86 70.6653 200.067 70.9852C200.274 71.0918 200.79 72.2644 201.306 73.5437Z" fill="#5B585A"/>
<path d="M225.367 74.5004V81.8563H227.02H228.672V74.5004V67.1445H227.02H225.367V74.5004Z" fill="#5B585A"/>
<path d="M250.259 74.5004V81.8563H251.912H253.565L253.668 77.3788L253.771 72.9013L257.283 77.3788L260.795 81.8563H262.138H263.377V74.5004V67.1445H261.931H260.279L260.175 71.622L260.072 76.2061L256.56 71.7286L253.048 67.2511H251.602H250.156V74.5004H250.259Z" fill="#5B585A"/>
</g>
<defs>
<clipPath id="clip0_6875_13972">
<rect width="266" height="82" fill="white" transform="translate(0 0.5)"/>
</clipPath>
</defs>
</svg>
