<svg width="200" height="83" viewBox="0 0 200 83" fill="none" xmlns="http://www.w3.org/2000/svg">
<g clip-path="url(#clip0_6875_13990)">
<path fill-rule="evenodd" clip-rule="evenodd" d="M20.6331 0.5H20.1651L20.2755 1.73573L19.1187 1.28877L18.9609 1.74625L20.2177 2.00917L19.3974 2.95569L19.7918 3.22387L20.407 2.13011L21.0065 3.22387L21.3903 2.91362L20.5911 2.00917L21.8215 1.7147L21.6795 1.27299L20.5385 1.73573L20.6331 0.5Z" fill="#5B585A"/>
<path fill-rule="evenodd" clip-rule="evenodd" d="M16.1071 0.5H15.6339L15.7443 1.73573L14.5822 1.28877L14.4297 1.74625L15.6865 2.00917L14.8661 2.95569L15.2605 3.22387L15.8758 2.13011L16.47 3.22387L16.8591 2.91362L16.0598 2.00917L17.2903 1.7147L17.1483 1.27299L16.0125 1.73573L16.1071 0.5Z" fill="#5B585A"/>
<path fill-rule="evenodd" clip-rule="evenodd" d="M25.2009 0.5H24.7276L24.8381 1.73573L23.6812 1.28877L23.5234 1.74625L24.7802 2.00917L23.9652 2.95569L24.3595 3.22387L24.9695 2.13011L25.569 3.22387L25.9528 2.91362L25.1588 2.00917L26.384 1.7147L26.2421 1.27299L25.1062 1.73573L25.2009 0.5Z" fill="#5B585A"/>
<path fill-rule="evenodd" clip-rule="evenodd" d="M29.7478 0.5H29.2798L29.3902 1.73573L28.2333 1.28877L28.0703 1.74625L29.3323 2.00917L28.5173 2.95569L28.9064 3.22387L29.5216 2.13011L30.1211 3.22387L30.505 2.91362L29.7057 2.00917L30.9362 1.7147L30.7942 1.27299L29.6531 1.73573L29.7478 0.5Z" fill="#5B585A"/>
<path fill-rule="evenodd" clip-rule="evenodd" d="M22.9118 4.69141H22.4333L22.549 5.92714L21.3921 5.48018L21.2344 5.93766L22.4859 6.20058L21.6708 7.1471L22.0705 7.41002L22.6804 6.32152L23.2799 7.41002L23.6638 7.09977L22.8645 6.20058L24.095 5.90085L23.953 5.4644L22.8119 5.92714L22.9118 4.69141Z" fill="#5B585A"/>
<path fill-rule="evenodd" clip-rule="evenodd" d="M18.3806 4.69141H17.9073L18.0177 5.92714L16.8609 5.48018L16.7031 5.93766L17.9599 6.20058L17.1448 7.1471L17.5392 7.41002L18.1545 6.32152L18.7487 7.41002L19.1325 7.09977L18.3385 6.20058L19.5637 5.90085L19.4217 5.4644L18.2859 5.92714L18.3806 4.69141Z" fill="#5B585A"/>
<path fill-rule="evenodd" clip-rule="evenodd" d="M27.4743 4.69141H27.0011L27.1167 5.92714L25.9546 5.48018L25.7969 5.93766L27.0536 6.20058L26.2386 7.1471L26.633 7.41002L27.2429 6.32152L27.8424 7.41002L28.2315 7.09977L27.4322 6.20058L28.6627 5.90085L28.5207 5.4644L27.3744 5.92714L27.4743 4.69141Z" fill="#5B585A"/>
<path fill-rule="evenodd" clip-rule="evenodd" d="M17.9879 17.8095L22.6784 24.2827L27.3794 17.8095V27.4851H34.0366V8.9701H28.2208L22.6784 16.4634L17.1412 8.9701L11.3359 8.96484V27.4851H17.9879V17.8095Z" fill="#5B585A"/>
<path fill-rule="evenodd" clip-rule="evenodd" d="M0 27.4844H11.3319V60.6125C11.3319 68.2741 15.8174 71.5027 22.6586 71.5027C29.4998 71.5027 34.0326 68.2741 34.0326 60.6125V27.4844H45.3961V60.7124C45.3961 76.0355 36.3358 82.4981 22.6481 82.4981C8.96037 82.4981 0 76.0355 0 60.7124V27.4844Z" fill="#5B585A"/>
<path fill-rule="evenodd" clip-rule="evenodd" d="M17.9871 27.4844H27.3839V60.5757C27.3839 63.8991 25.8905 65.6343 22.6513 65.6343C19.4121 65.6343 17.9766 63.8991 17.9766 60.5757V27.4844" fill="#5B585A"/>
<path fill-rule="evenodd" clip-rule="evenodd" d="M59.0113 27.5508V39.6452C58.2173 40.3551 57.3654 41.086 56.5977 41.086C55.5986 41.086 55.241 40.3814 55.241 39.3244V27.5508H51.5391V39.7504C51.5391 42.7267 52.7169 43.8782 54.9886 43.8782C56.5188 43.8782 57.7861 42.9317 59.1427 41.7749V43.5996H62.7343V27.5508H59.0218" fill="#5B585A"/>
<path fill-rule="evenodd" clip-rule="evenodd" d="M73.7328 39.9363C73.4716 40.2817 73.1371 40.5651 72.7535 40.766C72.3698 40.9669 71.9464 41.0804 71.5137 41.0984C70.5146 41.0984 69.689 40.4516 69.689 37.2755V33.8523C69.689 30.6972 70.5146 30.0241 71.5137 30.0241C71.9481 30.0392 72.3738 30.1503 72.7602 30.3494C73.1466 30.5485 73.4841 30.8307 73.7485 31.1757V39.9363M77.4662 43.5593V22.3047H73.7485V29.025C71.987 27.7314 71.0404 27.2529 70.0413 27.2529C67.1544 27.2529 65.9766 29.4983 65.9766 33.6209V37.5069C65.9766 41.6347 67.1544 43.8748 70.0413 43.8748C71.6872 43.8748 73.3384 42.6338 73.9904 41.6347H74.043V43.5751L77.4662 43.5593Z" fill="#5B585A"/>
<path fill-rule="evenodd" clip-rule="evenodd" d="M81.4531 27.5505V43.5782H85.1814V27.5505H81.4531ZM85.1814 24.7846V21.4297H81.4689V24.7846H85.1814Z" fill="#5B585A"/>
<path fill-rule="evenodd" clip-rule="evenodd" d="M89.1641 43.5784H92.8765V31.484C93.3182 30.8636 94.3804 30.038 95.1744 30.038C95.7634 30.038 96.1735 30.3325 96.1735 31.3947V43.5784H99.907V31.484C100.38 30.8636 101.527 30.038 102.237 30.038C102.825 30.038 103.204 30.3325 103.204 31.3947V43.5784H106.922V31.5261C106.922 28.6392 105.77 27.2773 103.535 27.2773C101.91 27.2773 100.738 28.4289 99.5863 29.7014C99.1393 28.2238 98.1349 27.2773 96.7572 27.2773C95.1797 27.2773 93.9913 28.329 92.7766 29.3807V27.5507H89.1851V43.5784" fill="#5B585A"/>
<path fill-rule="evenodd" clip-rule="evenodd" d="M113.782 32.2336C113.785 31.9676 113.842 31.7049 113.948 31.461C114.054 31.217 114.208 30.9968 114.4 30.8131C114.593 30.6294 114.82 30.486 115.069 30.3914C115.317 30.2967 115.582 30.2526 115.848 30.2617C116.109 30.2309 116.372 30.2591 116.62 30.3444C116.868 30.4297 117.093 30.5699 117.279 30.7544C117.465 30.9389 117.607 31.163 117.694 31.41C117.782 31.6571 117.812 31.9206 117.783 32.1811V33.3537C113.156 34.7419 109.617 36.33 109.617 40.0424C109.617 42.6348 111.058 43.8758 113.298 43.8758C114.121 43.8797 114.937 43.7172 115.696 43.3983C116.455 43.0793 117.142 42.6104 117.715 42.0196C117.836 42.6664 117.894 43.1659 117.978 43.5971H121.69C121.563 43.1756 121.494 42.7386 121.485 42.2983V32.118C121.485 29.2626 119.981 27.2539 116.032 27.2539C113.061 27.2539 110.353 28.6684 110.085 32.2336H113.766M117.783 39.6323C116.895 40.5104 116.101 41.0994 114.986 41.0994C114.76 41.12 114.532 41.0903 114.319 41.0125C114.106 40.9346 113.913 40.8106 113.754 40.6492C113.594 40.4878 113.473 40.2931 113.398 40.079C113.322 39.865 113.296 39.637 113.319 39.4114C113.319 37.734 115.554 36.4982 117.768 35.7305L117.783 39.6323Z" fill="#5B585A"/>
<path fill-rule="evenodd" clip-rule="evenodd" d="M51.75 71.2883H54.437C54.9083 71.3147 55.3801 71.2451 55.8237 71.0837C56.2672 70.9223 56.6734 70.6725 57.0176 70.3495C57.3618 70.0265 57.6368 69.6369 57.8259 69.2044C58.0151 68.772 58.1144 68.3056 58.118 67.8336C58.118 66.214 56.9979 64.3945 54.437 64.3945H51.75V71.2883ZM52.7438 65.278H54.2688C56.1934 65.278 57.0768 66.4558 57.0768 67.8336C57.0768 68.6854 56.5509 70.3892 54.3161 70.3892H52.7386L52.7438 65.278Z" fill="#5B585A"/>
<path fill-rule="evenodd" clip-rule="evenodd" d="M64.2351 64.3945H60.3281V71.2883H64.3245V70.3892H61.3114V68.249H64.1352V67.3656H61.3114V65.278H64.2351V64.3945Z" fill="#5B585A"/>
<path fill-rule="evenodd" clip-rule="evenodd" d="M76.6133 64.3945H75.6931L73.4004 67.2183L71.1183 64.3945H70.1875V71.2883H71.1761V65.9195H71.1971L73.3215 68.5855H73.4793L75.5984 65.9195H75.6195V71.2883H76.6133V64.3945Z" fill="#5B585A"/>
<path fill-rule="evenodd" clip-rule="evenodd" d="M82.0325 64.3516H81.3331L78.3516 71.2875H79.3612L80.2288 69.2473H83.163L84.0832 71.2875H85.0876L82.0325 64.3516ZM81.6696 65.8661L82.7792 68.3586H80.639L81.6696 65.8661Z" fill="#5B585A"/>
<path fill-rule="evenodd" clip-rule="evenodd" d="M86.875 71.2883H89.5621C90.0333 71.3147 90.5051 71.2451 90.9487 71.0837C91.3922 70.9223 91.7984 70.6725 92.1426 70.3495C92.4868 70.0265 92.7618 69.6369 92.9509 69.2044C93.1401 68.772 93.2394 68.3056 93.243 67.8336C93.243 66.214 92.1229 64.3945 89.5621 64.3945H86.8803V71.2883M87.8688 65.278H89.399C91.3341 65.278 92.2123 66.4558 92.2123 67.8336C92.2123 68.6854 91.6865 70.3892 89.4569 70.3892H87.8794L87.8688 65.278Z" fill="#5B585A"/>
<path fill-rule="evenodd" clip-rule="evenodd" d="M95.4609 64.3945V71.2883H96.46V68.291H96.8649C97.3908 68.291 97.7904 68.4488 98.7001 69.8686L99.6098 71.2936H100.788C100.314 70.631 100.141 70.3944 99.8465 69.9212C99.4816 69.1795 98.9573 68.5276 98.311 68.0123C98.6578 67.8904 98.9565 67.6609 99.1637 67.3573C99.3708 67.0536 99.4756 66.6917 99.4626 66.3244C99.4626 65.136 98.595 64.3998 97.2015 64.3998H95.4609M96.46 65.2411H97.0911C98.0533 65.2411 98.432 65.6408 98.4425 66.2928C98.453 66.9449 98.1533 67.4076 97.0911 67.4076H96.46V65.2411Z" fill="#5B585A"/>
<path d="M103.559 64.3945H102.57V71.2883H103.559V64.3945Z" fill="#5B585A"/>
<path fill-rule="evenodd" clip-rule="evenodd" d="M106.102 71.2883H108.795C109.266 71.3139 109.737 71.2438 110.181 71.0821C110.624 70.9205 111.03 70.6707 111.374 70.3478C111.718 70.0249 111.993 69.6356 112.182 69.2035C112.372 68.7714 112.471 68.3053 112.476 67.8336C112.476 66.214 111.35 64.3945 108.795 64.3945H106.113V71.2883M107.107 65.278H108.632C110.562 65.278 111.44 66.4558 111.44 67.8336C111.44 68.6854 110.914 70.3892 108.684 70.3892H107.107V65.278Z" fill="#5B585A"/>
<path fill-rule="evenodd" clip-rule="evenodd" d="M57.9237 52.1289H56.9298V56.1358C56.9612 56.403 56.9387 56.6737 56.8638 56.932C56.7888 57.1903 56.6629 57.4309 56.4934 57.6398C56.0519 58.0311 55.4733 58.2316 54.8843 58.1972C54.6092 58.2059 54.3352 58.1581 54.0792 58.0568C53.8233 57.9555 53.5908 57.8029 53.3962 57.6082C53.0807 57.298 52.9808 56.9719 52.9808 56.1989V52.1289H51.9922V56.4093C51.9922 58.2865 53.4067 59.1069 54.858 59.1069C56.9088 59.1069 57.9237 57.9921 57.9237 56.3094V52.1289Z" fill="#5B585A"/>
<path fill-rule="evenodd" clip-rule="evenodd" d="M66.6728 52.1289H65.7473V57.4662L61.0726 52.1289H60.2891V59.0122H61.2198V53.7064L65.8262 59.0122H66.6728V52.1289Z" fill="#5B585A"/>
<path d="M70.1892 52.1289H69.1953V59.0122H70.1892V52.1289Z" fill="#5B585A"/>
<path fill-rule="evenodd" clip-rule="evenodd" d="M78.0763 52.1289H77.0983L75.037 56.9614L72.9651 52.1289H71.9766L74.9581 59.0753H75.1579L78.0763 52.1289Z" fill="#5B585A"/>
<path fill-rule="evenodd" clip-rule="evenodd" d="M83.7482 52.1289H79.8359V59.0122H83.8376V58.1235H80.8298V55.9834H83.643V55.0947H80.8298V53.0123H83.7482V52.1289Z" fill="#5B585A"/>
<path fill-rule="evenodd" clip-rule="evenodd" d="M85.9219 52.1289V59.0122H86.9105V56.0254H87.3259C87.8517 56.0254 88.2461 56.1832 89.1558 57.6029L90.0603 59.0175H91.2487C90.7702 58.3602 90.6019 58.1288 90.3074 57.6608C89.9438 56.9168 89.4194 56.263 88.772 55.7467C89.1187 55.6248 89.4175 55.3953 89.6246 55.0916C89.8318 54.788 89.9365 54.4261 89.9235 54.0588C89.9235 52.8651 89.0506 52.1342 87.6624 52.1342H85.9219M86.9105 52.9755H87.5467C88.509 52.9755 88.8929 53.3699 88.9034 54.0272C88.9139 54.6845 88.6089 55.1473 87.5467 55.1473H86.9105V52.9755Z" fill="#5B585A"/>
<path fill-rule="evenodd" clip-rule="evenodd" d="M96.2873 52.5177C95.8346 52.2087 95.2999 52.0421 94.7518 52.0391C93.4898 52.0391 92.6484 52.7543 92.6484 53.8743C92.6484 55.7569 95.6247 55.9199 95.6247 57.3502C95.6247 57.7288 95.2671 58.2125 94.5047 58.2125C94.1445 58.1996 93.7923 58.1025 93.4763 57.929C93.1604 57.7555 92.8895 57.5105 92.6852 57.2134V58.4702C93.2375 58.8955 93.9182 59.1199 94.6151 59.1065C94.8667 59.118 95.118 59.0779 95.3535 58.9886C95.589 58.8994 95.8038 58.7629 95.9846 58.5875C96.1653 58.4121 96.3083 58.2016 96.4047 57.9689C96.5011 57.7363 96.5488 57.4863 96.5449 57.2345C96.5449 55.0417 93.5634 55.0627 93.5634 53.7429C93.5634 53.2591 94.0209 52.9226 94.6572 52.9226C95.2688 52.9376 95.8494 53.1948 96.2715 53.6377V52.5177" fill="#5B585A"/>
<path d="M99.6526 52.1289H98.6641V59.0122H99.6526V52.1289Z" fill="#5B585A"/>
<path fill-rule="evenodd" clip-rule="evenodd" d="M102.202 59.0122H104.89C105.359 59.0356 105.827 58.9641 106.267 58.802C106.707 58.6399 107.109 58.3905 107.451 58.0688C107.792 57.7471 108.066 57.3597 108.254 56.93C108.442 56.5002 108.541 56.0369 108.545 55.5679C108.545 53.9431 107.425 52.1289 104.864 52.1289H102.188V59.0122M103.175 53.0123H104.701C106.631 53.0123 107.508 54.1902 107.508 55.5679C107.508 56.4198 106.983 58.1235 104.754 58.1235H103.175V53.0123Z" fill="#5B585A"/>
<path fill-rule="evenodd" clip-rule="evenodd" d="M113.121 52.0859H112.421L109.461 59.0113H110.471L111.338 56.9815H114.272L115.193 59.0113H116.213L113.121 52.0859ZM112.758 53.5951L113.867 56.0981H111.727L112.758 53.5951Z" fill="#5B585A"/>
<path fill-rule="evenodd" clip-rule="evenodd" d="M117.977 59.0122H120.664C121.134 59.0393 121.605 58.9705 122.049 58.81C122.492 58.6496 122.898 58.4008 123.242 58.0787C123.586 57.7567 123.861 57.368 124.051 56.9365C124.24 56.5049 124.34 56.0393 124.345 55.5679C124.345 53.9431 123.224 52.1289 120.664 52.1289H117.982V59.0122M118.97 53.0123H120.501C122.43 53.0123 123.309 54.1902 123.309 55.5679C123.309 56.4198 122.783 58.1235 120.553 58.1235H118.976L118.97 53.0123Z" fill="#5B585A"/>
<path fill-rule="evenodd" clip-rule="evenodd" d="M132.262 52.0859H131.563L128.602 59.0113H129.617L130.485 56.9815H133.414L134.334 59.0113H135.344L132.262 52.0859ZM131.9 53.5951L133.014 56.0981H130.869L131.9 53.5951Z" fill="#5B585A"/>
<path fill-rule="evenodd" clip-rule="evenodd" d="M140.93 59.0122H143.617C144.087 59.0385 144.558 58.9692 145.001 58.8085C145.444 58.6477 145.85 58.3989 146.194 58.077C146.538 57.7551 146.813 57.3668 147.003 56.9355C147.192 56.5043 147.293 56.0391 147.298 55.5679C147.298 53.9431 146.172 52.1289 143.617 52.1289H140.93V59.0122ZM141.918 53.0123H143.443C145.373 53.0123 146.257 54.1902 146.257 55.5679C146.257 56.4198 145.731 58.1235 143.496 58.1235H141.918V53.0123Z" fill="#5B585A"/>
<path d="M150.52 52.1289H149.531V59.0122H150.52V52.1289Z" fill="#5B585A"/>
<path fill-rule="evenodd" clip-rule="evenodd" d="M156.334 52.5177C155.881 52.2102 155.346 52.0437 154.799 52.0391C153.531 52.0391 152.695 52.7543 152.695 53.8743C152.695 55.7569 155.677 55.9199 155.677 57.3502C155.677 57.7288 155.324 58.2125 154.557 58.2125C154.197 58.1996 153.846 58.1025 153.531 57.929C153.216 57.7554 152.946 57.5103 152.743 57.2134V58.4702C153.292 58.897 153.972 59.1217 154.667 59.1065C154.919 59.118 155.17 59.0779 155.406 58.9886C155.641 58.8994 155.856 58.7629 156.037 58.5875C156.217 58.4121 156.36 58.2016 156.457 57.9689C156.553 57.7363 156.601 57.4863 156.597 57.2345C156.597 55.0417 153.615 55.0627 153.615 53.7429C153.615 53.2591 154.078 52.9226 154.709 52.9226C155.013 52.9293 155.312 52.996 155.59 53.1187C155.868 53.2414 156.119 53.4178 156.329 53.6377V52.5177" fill="#5B585A"/>
<path fill-rule="evenodd" clip-rule="evenodd" d="M163.873 52.1289H158.109V53.0123H160.491V59.0122H161.485V53.0123H163.873V52.1289Z" fill="#5B585A"/>
<path fill-rule="evenodd" clip-rule="evenodd" d="M167.697 52.0859H166.997L164.062 59.0113H165.073L165.946 56.9815H168.874L169.79 59.0113H170.799L167.697 52.0859ZM167.333 53.5951L168.443 56.0981H166.303L167.333 53.5951Z" fill="#5B585A"/>
<path fill-rule="evenodd" clip-rule="evenodd" d="M178.915 52.1289H177.989V57.4662L173.325 52.1289H172.531V59.0122H173.462V53.7064L178.074 59.0122H178.915V52.1289Z" fill="#5B585A"/>
<path fill-rule="evenodd" clip-rule="evenodd" d="M187.319 52.5989C186.578 52.2506 185.772 52.0591 184.953 52.0362C184.462 52.0103 183.972 52.0853 183.512 52.2564C183.051 52.4276 182.631 52.6914 182.277 53.0314C181.922 53.3715 181.641 53.7806 181.451 54.2335C181.261 54.6864 181.166 55.1735 181.172 55.6646C181.183 56.1367 181.289 56.6018 181.484 57.0322C181.678 57.4627 181.957 57.8498 182.304 58.1705C182.65 58.4912 183.058 58.739 183.502 58.8993C183.946 59.0596 184.418 59.129 184.89 59.1036C185.762 59.1196 186.624 58.9114 187.393 58.4989V57.4156C186.677 57.8965 185.841 58.1662 184.979 58.1939C183.328 58.1939 182.198 57.1422 182.198 55.5647C182.197 55.2094 182.269 54.8578 182.408 54.531C182.547 54.2043 182.751 53.9091 183.008 53.6634C183.265 53.4177 183.568 53.2265 183.901 53.1014C184.233 52.9763 184.588 52.9198 184.942 52.9354C185.786 52.9483 186.609 53.196 187.319 53.6506V52.5989Z" fill="#5B585A"/>
<path d="M190.603 52.1289H189.625V59.0122H190.603V52.1289Z" fill="#5B585A"/>
<path fill-rule="evenodd" clip-rule="evenodd" d="M196.057 52.0859H195.358L192.398 59.0113H193.407L194.275 56.9815H197.198L198.124 59.0113H199.134L196.057 52.0859ZM195.689 53.5951L196.804 56.0981H194.664L195.689 53.5951Z" fill="#5B585A"/>
</g>
<defs>
<clipPath id="clip0_6875_13990">
<rect width="200" height="82" fill="white" transform="translate(0 0.5)"/>
</clipPath>
</defs>
</svg>
