<svg width="27" height="18" viewBox="0 0 27 18" fill="none" xmlns="http://www.w3.org/2000/svg">
<path d="M3.85714 9.94737C3.85714 10.073 3.80634 10.1935 3.71592 10.2823C3.6255 10.3711 3.50287 10.421 3.375 10.4211H0.482143C0.354271 10.4211 0.231636 10.3711 0.141216 10.2823C0.0507971 10.1935 0 10.073 0 9.94737C0 9.82174 0.0507971 9.70126 0.141216 9.61242C0.231636 9.52359 0.354271 9.47369 0.482143 9.47369H1.92857V0.947371H0.482143C0.354271 0.947371 0.231636 0.897466 0.141216 0.808633C0.0507971 0.7198 0 0.599316 0 0.473687C0 0.348058 0.0507971 0.227575 0.141216 0.138742C0.231636 0.0499091 0.354271 3.16218e-06 0.482143 3.16218e-06H2.41071C2.41389 3.16218e-06 2.41689 0.000871204 2.42007 0.00092923C2.44669 0.00139281 2.47323 0.00402315 2.49941 0.00879267C2.50265 0.00937057 2.506 0.0093703 2.50918 0.0100074C2.53717 0.0159422 2.56456 0.024301 2.59105 0.0349859C2.60011 0.0385717 2.60847 0.0431973 2.6173 0.0473017C2.63472 0.0553064 2.65164 0.0643224 2.66797 0.0743018C2.67698 0.0799114 2.68551 0.0859248 2.69404 0.0920543C2.70903 0.102836 2.72338 0.114458 2.73701 0.126863C2.74478 0.133917 2.75243 0.140857 2.75973 0.148373C2.7726 0.161985 2.78465 0.17633 2.79581 0.191336C2.80199 0.199488 2.80863 0.207122 2.81429 0.215679C2.81593 0.218108 2.81799 0.220131 2.81958 0.222618L7.23214 7.15886L11.6447 0.222622C11.6463 0.220135 11.6484 0.218111 11.65 0.215683C11.6557 0.207125 11.6623 0.199492 11.6685 0.19134C11.6796 0.176331 11.6917 0.161985 11.7046 0.148376C11.7119 0.14086 11.7196 0.133921 11.7273 0.126808C11.7409 0.11449 11.7552 0.102927 11.7701 0.0921727C11.7788 0.0859283 11.7874 0.0799149 11.7965 0.0742485C11.8126 0.0643451 11.8294 0.055405 11.8466 0.0474761C11.8556 0.0433136 11.8642 0.0386301 11.8734 0.0349295C11.8998 0.0242806 11.9271 0.0159581 11.955 0.0100607C11.9584 0.00936676 11.9621 0.00936671 11.9655 0.00873079C11.9914 0.00400636 12.0178 0.00139619 12.0442 0.000926068C12.0473 0.000868041 12.0503 0 12.0536 0H13.9821C14.11 0 14.2327 0.0499055 14.3231 0.138738C14.4135 0.227572 14.4643 0.348055 14.4643 0.473684C14.4643 0.599313 14.4135 0.719796 14.3231 0.808629C14.2327 0.897462 14.11 0.947368 13.9821 0.947368H12.5357V9.47368H13.9821C14.11 9.47368 14.2327 9.52359 14.3231 9.61242C14.4135 9.70125 14.4643 9.82174 14.4643 9.94737C14.4643 10.073 14.4135 10.1935 14.3231 10.2823C14.2327 10.3711 14.11 10.4211 13.9821 10.4211H11.0893C10.9614 10.4211 10.8388 10.3711 10.7484 10.2823C10.6579 10.1935 10.6071 10.073 10.6071 9.94737C10.6071 9.82174 10.6579 9.70125 10.7484 9.61242C10.8388 9.52359 10.9614 9.47368 11.0893 9.47368H11.5714V2.12534L7.64101 8.3037C7.59767 8.37182 7.5374 8.428 7.46587 8.46694C7.39435 8.50589 7.31392 8.52632 7.23214 8.52632C7.15037 8.52632 7.06994 8.50589 6.99841 8.46694C6.92689 8.428 6.86662 8.37182 6.82327 8.3037L2.89286 2.12534V9.47369H3.375C3.50287 9.47369 3.6255 9.5236 3.71592 9.61243C3.80634 9.70126 3.85714 9.82174 3.85714 9.94737ZM17.8393 6.63158H26.5179C26.6457 6.63158 26.7684 6.58168 26.8588 6.49284C26.9492 6.40401 27 6.28353 27 6.1579C27 6.03227 26.9492 5.91178 26.8588 5.82295C26.7684 5.73412 26.6457 5.68421 26.5179 5.68421H17.8393C17.7114 5.68421 17.5888 5.73412 17.4984 5.82295C17.4079 5.91178 17.3571 6.03227 17.3571 6.1579C17.3571 6.28353 17.4079 6.40401 17.4984 6.49284C17.5888 6.58168 17.7114 6.63158 17.8393 6.63158ZM26.5179 9.47369H17.8393C17.7114 9.47369 17.5888 9.52359 17.4984 9.61242C17.4079 9.70126 17.3571 9.82174 17.3571 9.94737C17.3571 10.073 17.4079 10.1935 17.4984 10.2823C17.5888 10.3711 17.7114 10.4211 17.8393 10.4211H26.5179C26.6457 10.4211 26.7684 10.3711 26.8588 10.2823C26.9492 10.1935 27 10.073 27 9.94737C27 9.82174 26.9492 9.70126 26.8588 9.61242C26.7684 9.52359 26.6457 9.47369 26.5179 9.47369ZM26.5179 13.2632H6.26786C6.13999 13.2632 6.01735 13.3131 5.92693 13.4019C5.83651 13.4907 5.78571 13.6112 5.78571 13.7368C5.78571 13.8625 5.83651 13.983 5.92693 14.0718C6.01735 14.1606 6.13999 14.2105 6.26786 14.2105H26.5179C26.6457 14.2105 26.7684 14.1606 26.8588 14.0718C26.9492 13.983 27 13.8625 27 13.7368C27 13.6112 26.9492 13.4907 26.8588 13.4019C26.7684 13.3131 26.6457 13.2632 26.5179 13.2632ZM26.5179 17.0526H6.26786C6.13999 17.0526 6.01735 17.1025 5.92693 17.1914C5.83651 17.2802 5.78571 17.4007 5.78571 17.5263C5.78571 17.6519 5.83651 17.7724 5.92693 17.8613C6.01735 17.9501 6.13999 18 6.26786 18H26.5179C26.6457 18 26.7684 17.9501 26.8588 17.8613C26.9492 17.7724 27 17.6519 27 17.5263C27 17.4007 26.9492 17.2802 26.8588 17.1914C26.7684 17.1025 26.6457 17.0526 26.5179 17.0526Z" fill="#6474A6"/>
</svg>
