<svg width="28" height="25" viewBox="0 0 28 25" fill="none" xmlns="http://www.w3.org/2000/svg">
<path d="M27.761 7.46191L14.2126 0.0545077C14.1472 0.0187204 14.0741 0 14 0C13.9258 0 13.8528 0.0187204 13.7874 0.0545077L0.239038 7.46191C0.166828 7.5014 0.106445 7.56027 0.0643427 7.63222C0.0222399 7.70416 0 7.78649 0 7.87039C0 7.95429 0.0222399 8.03661 0.0643427 8.10856C0.106445 8.18051 0.166828 8.23938 0.239038 8.27887L3.16129 9.87658V15.9091C3.16157 16.209 3.25627 16.5009 3.43131 16.7412C4.29429 17.9184 7.60663 21.7593 14 21.7593C16.6048 21.7593 18.6979 21.1216 20.3226 20.2863V24.537C20.3226 24.6598 20.3702 24.7776 20.4549 24.8644C20.5395 24.9512 20.6544 25 20.7742 25C20.894 25 21.0088 24.9512 21.0935 24.8644C21.1782 24.7776 21.2258 24.6598 21.2258 24.537V19.7734C22.5143 18.9846 23.6479 17.9563 24.5686 16.7413C24.7437 16.501 24.8384 16.2091 24.8387 15.9091V9.87658L27.761 8.27887C27.8332 8.23938 27.8936 8.18051 27.9357 8.10856C27.9778 8.03661 28 7.95429 28 7.87039C28 7.78649 27.9778 7.70416 27.9357 7.63222C27.8936 7.56027 27.8332 7.5014 27.761 7.46191ZM14 20.8333C8.02517 20.8333 4.95275 17.2754 4.15338 16.1849C4.09517 16.1054 4.06395 16.0085 4.06452 15.9091V10.3704L13.7874 15.6863C13.8528 15.722 13.9259 15.7408 14 15.7408C14.0741 15.7408 14.1472 15.722 14.2126 15.6863L20.3226 12.3457V19.2408C18.756 20.1233 16.6682 20.8333 14 20.8333ZM23.9355 15.9091C23.936 16.0085 23.9048 16.1055 23.8465 16.185C23.1119 17.1574 22.2266 17.9996 21.2258 18.6779V11.8519L23.9355 10.3704V15.9091ZM20.7742 11.0494L14.2126 7.46191C14.1069 7.4043 13.9833 7.39205 13.8688 7.42784C13.7543 7.46362 13.6584 7.54452 13.6021 7.65276C13.5457 7.761 13.5336 7.88774 13.5684 8.00514C13.6031 8.12253 13.6819 8.22098 13.7874 8.27887L19.8145 11.5741L14 14.7531L1.41129 7.87039L14 0.987666L26.5887 7.87039L20.7742 11.0494Z" fill="#6474A6"/>
</svg>
