<svg width="21" height="21" viewBox="0 0 21 21" fill="none" xmlns="http://www.w3.org/2000/svg">
<path d="M7.65 20H13.35C18.1 20 20 18.1 20 13.35V7.65C20 2.9 18.1 1 13.35 1H7.65C2.9 1 1 2.9 1 7.65V13.35C1 18.1 2.9 20 7.65 20Z" stroke="#374161" stroke-linecap="round" stroke-linejoin="round"/>
<path d="M10.499 4.40625C10.2061 4.40625 9.91492 4.50513 9.66406 4.68457L8.8877 5.22656L7.99414 5.34375H7.97949L7.96484 5.3584C7.36792 5.49207 6.89734 5.96265 6.76367 6.55957L6.74902 6.57422V6.58887L6.63184 7.49707L6.08984 8.2002L6.0752 8.21484V8.22949C5.74744 8.75317 5.73279 9.42883 6.08984 9.92871L6.64648 10.7051L6.79297 11.5107L5.28418 13.8105L4.80078 14.5283H7.04199L7.58398 15.7881L7.9209 16.5938L8.4043 15.8613L9.88379 13.6348C10.2811 13.7977 10.7297 13.8124 11.1143 13.6348L12.5938 15.8613L13.0771 16.5938L13.4141 15.7881L13.9561 14.5283H16.1973L15.7139 13.8105L14.249 11.584L14.3662 10.7051L14.9082 9.92871L14.9229 9.91406V9.89941C15.2506 9.37573 15.2653 8.71472 14.9082 8.21484L14.3662 7.43848L14.1904 6.55957H14.2051C14.2032 6.54858 14.1923 6.54126 14.1904 6.53027C14.1062 5.91687 13.621 5.41882 13.0039 5.34375H12.9893L12.1104 5.22656L11.334 4.68457C11.0831 4.50513 10.792 4.40625 10.499 4.40625ZM10.499 5.3584C10.6071 5.3584 10.7133 5.39136 10.792 5.44629L11.627 6.04688L11.7295 6.12012L11.8467 6.13477L12.8721 6.28125H12.8867C13.0973 6.30505 13.2438 6.45154 13.2676 6.66211V6.69141L13.458 7.73145L13.4727 7.83398L13.5459 7.92188L14.1465 8.75684C14.2582 8.91248 14.2728 9.17615 14.1318 9.40137L13.4727 10.3242L13.458 10.4414L13.3115 11.4668V11.4814C13.3024 11.5583 13.2767 11.6298 13.2383 11.6865L13.209 11.7012V11.7158C13.1412 11.7964 13.0479 11.8495 12.9307 11.8623H12.9014L11.832 12.0527L11.7148 12.0674L11.627 12.1406L10.792 12.7412C10.6364 12.8529 10.358 12.8676 10.1328 12.7266L9.37109 12.1406L9.2832 12.0674L9.15137 12.0527L8.12598 11.9062H8.11133C7.96667 11.8898 7.85498 11.8147 7.78906 11.7012C7.75977 11.6499 7.73779 11.5895 7.73047 11.5254V11.4961L7.54004 10.4268L7.52539 10.3096L7.45215 10.2217L6.85156 9.38672C6.73987 9.23108 6.72522 8.95276 6.86621 8.72754L7.45215 7.96582L7.52539 7.87793L7.54004 7.74609L7.67188 6.76465C7.67371 6.75732 7.68469 6.75732 7.68652 6.75C7.74512 6.52112 7.92639 6.33984 8.15527 6.28125C8.1626 6.27942 8.1626 6.26843 8.16992 6.2666L9.15137 6.13477L9.26855 6.12012L9.37109 6.04688L10.2061 5.44629C10.2848 5.39136 10.391 5.3584 10.499 5.3584ZM13.7363 12.4922L14.4541 13.5908H13.3262L13.209 13.8838L12.8867 14.6309L11.8906 13.1074L12.1104 12.9463L13.0332 12.7852V12.7998C13.0442 12.798 13.0515 12.787 13.0625 12.7852C13.3152 12.7504 13.5441 12.6442 13.7363 12.4922ZM7.26172 12.5068C7.4613 12.6863 7.71582 12.8108 7.99414 12.8438C7.99963 12.8438 8.0033 12.8438 8.00879 12.8438L8.90234 12.9609L9.10742 13.1221L8.11133 14.6309L7.78906 13.8838L7.67188 13.5908H6.54395L7.26172 12.5068Z" fill="#374161"/>
</svg>
