<svg width="24" height="20" viewBox="0 0 24 20" fill="none" xmlns="http://www.w3.org/2000/svg">
<path d="M20.16 8.09524C20.16 8.22153 20.1094 8.34265 20.0194 8.43195C19.9294 8.52125 19.8073 8.57142 19.68 8.57143H14.88C14.7527 8.57143 14.6306 8.52126 14.5406 8.43196C14.4506 8.34265 14.4 8.22153 14.4 8.09524C14.4 7.96894 14.4506 7.84782 14.5406 7.75852C14.6306 7.66922 14.7527 7.61905 14.88 7.61905H19.68C19.8073 7.61905 19.9294 7.66923 20.0194 7.75853C20.1094 7.84783 20.16 7.96895 20.16 8.09524ZM19.68 11.4286H14.88C14.7527 11.4286 14.6306 11.4787 14.5406 11.568C14.4506 11.6573 14.4 11.7785 14.4 11.9048C14.4 12.0311 14.4506 12.1522 14.5406 12.2415C14.6306 12.3308 14.7527 12.381 14.88 12.381H19.68C19.8073 12.381 19.9294 12.3308 20.0194 12.2415C20.1094 12.1522 20.16 12.0311 20.16 11.9048C20.16 11.7785 20.1094 11.6573 20.0194 11.568C19.9294 11.4787 19.8073 11.4286 19.68 11.4286ZM11.8758 14.6429C11.9076 14.7652 11.8891 14.895 11.8243 15.0037C11.7596 15.1125 11.654 15.1913 11.5307 15.2227C11.4074 15.2542 11.2766 15.2359 11.167 15.1717C11.0574 15.1075 10.9779 15.0027 10.9462 14.8804C10.7596 14.1649 10.3388 13.5312 9.74974 13.0788C9.16072 12.6264 8.43689 12.3809 7.69197 12.381C6.94705 12.381 6.22324 12.6265 5.63424 13.0789C5.04524 13.5314 4.62442 14.1651 4.43789 14.8805C4.42218 14.9411 4.3946 14.998 4.35672 15.048C4.31884 15.098 4.27142 15.1401 4.21714 15.1719C4.10753 15.2361 3.9767 15.2545 3.85342 15.223C3.73014 15.1915 3.62451 15.1127 3.55978 15.004C3.49505 14.8952 3.47651 14.7654 3.50824 14.6431C3.66661 14.0327 3.959 13.4645 4.36449 12.9792C4.76999 12.4938 5.27857 12.1034 5.85387 11.8358C5.24803 11.443 4.78624 10.8666 4.53723 10.1924C4.28821 9.51823 4.26529 8.7823 4.47186 8.09416C4.67843 7.40601 5.10347 6.80244 5.6837 6.37325C6.26393 5.94407 6.96834 5.71223 7.6921 5.71223C8.41585 5.71223 9.12026 5.94408 9.70049 6.37327C10.2807 6.80246 10.7057 7.40604 10.9123 8.09419C11.1189 8.78233 11.0959 9.51826 10.8469 10.1924C10.5979 10.8666 10.1361 11.443 9.53027 11.8358C10.1055 12.1034 10.6141 12.4938 11.0195 12.9791C11.425 13.4643 11.7174 14.0325 11.8758 14.6429ZM7.69207 11.4286C8.16675 11.4286 8.63076 11.2889 9.02544 11.0273C9.42012 10.7657 9.72773 10.3938 9.90938 9.95877C10.091 9.52371 10.1386 9.04498 10.046 8.58312C9.95335 8.12126 9.72477 7.69701 9.38913 7.36403C9.05348 7.03105 8.62584 6.80429 8.16029 6.71242C7.69473 6.62055 7.21217 6.6677 6.77363 6.84791C6.33509 7.02811 5.96026 7.33329 5.69654 7.72483C5.43283 8.11638 5.29207 8.57671 5.29207 9.04762C5.2928 9.67887 5.54589 10.284 5.99582 10.7304C6.44575 11.1768 7.05578 11.4278 7.69207 11.4286ZM24 1.42857V18.5714C23.9996 18.9502 23.8477 19.3133 23.5778 19.5811C23.3078 19.8489 22.9418 19.9996 22.56 20H1.44C1.05822 19.9996 0.692206 19.8489 0.422249 19.5811C0.152291 19.3133 0.000436703 18.9502 0 18.5714V1.42857C0.000436703 1.04982 0.152291 0.686713 0.422249 0.418897C0.692206 0.151082 1.05822 0.000433238 1.44 0H22.56C22.9418 0.000433238 23.3078 0.151082 23.5778 0.418897C23.8477 0.686713 23.9996 1.04982 24 1.42857ZM23.04 1.42857C23.0399 1.30232 22.9892 1.18129 22.8993 1.09201C22.8093 1.00274 22.6873 0.952525 22.56 0.952381H1.44C1.31274 0.952525 1.19074 1.00274 1.10075 1.09201C1.01076 1.18129 0.960145 1.30232 0.96 1.42857V18.5714C0.960145 18.6977 1.01076 18.8187 1.10075 18.908C1.19074 18.9973 1.31274 19.0475 1.44 19.0476H22.56C22.6873 19.0475 22.8093 18.9973 22.8993 18.908C22.9892 18.8187 23.0399 18.6977 23.04 18.5714V1.42857Z" fill="#6474A6"/>
</svg>
