<svg width="22" height="22" viewBox="0 0 22 22" fill="none" xmlns="http://www.w3.org/2000/svg">
<path d="M1 11C1 6.28595 1 3.92893 2.46447 2.46447C3.92893 1 6.28595 1 11 1C15.714 1 18.0711 1 19.5355 2.46447C21 3.92893 21 6.28595 21 11C21 15.714 21 18.0711 19.5355 19.5355C18.0711 21 15.714 21 11 21C6.28595 21 3.92893 21 2.46447 19.5355C1 18.0711 1 15.714 1 11Z" stroke="#6474A6"/>
<path d="M16 11.5181V15H14.0713V11.7507C14.0713 10.9351 13.7923 10.3785 13.0939 10.3785C12.5611 10.3785 12.2434 10.7533 12.1039 11.1169C12.0535 11.2469 12.04 11.4277 12.04 11.6085V15H10.1104C10.1104 15 10.1365 9.49791 10.1104 8.92811H12.04V9.78799L12.0274 9.80776H12.04V9.78799C12.2965 9.37359 12.7537 8.78495 13.7788 8.78495C15.0478 8.78495 16 9.65331 16 11.5181ZM8.0917 6C7.432 6 7 6.45396 7 7.04918C7 7.63311 7.4194 8.09931 8.0665 8.09931H8.0791C8.7523 8.09931 9.1708 7.63217 9.1708 7.04918C9.1582 6.45396 8.7523 6 8.0917 6ZM7.1143 15H9.0439V8.92811H7.1143V15Z" fill="#6474A6"/>
</svg>
