<svg width="20" height="23" viewBox="0 0 20 23" fill="none" xmlns="http://www.w3.org/2000/svg">
<path d="M20 6.9C20 6.83849 19.9872 6.77762 19.9623 6.721C19.9374 6.66438 19.901 6.61319 19.8552 6.57046L13.1935 0.13471C13.1922 0.133418 13.1906 0.132534 13.1892 0.13126C13.1685 0.111528 13.1459 0.0936715 13.1219 0.0779149C13.1138 0.0726927 13.1048 0.0692955 13.0965 0.0645932C13.0784 0.0536723 13.0595 0.0439494 13.04 0.0354914C13.0294 0.0312525 13.0181 0.0291743 13.0072 0.0256645C12.9889 0.0190364 12.9702 0.0135321 12.9511 0.00918398C12.9201 0.00310622 12.8885 2.96387e-05 12.8569 0H1.42844C1.04973 0.000418507 0.686649 0.145945 0.418858 0.404655C0.151068 0.663364 0.000433197 1.01413 0 1.38V21.62C0.000433197 21.9859 0.151068 22.3366 0.418858 22.5953C0.686649 22.8541 1.04973 22.9996 1.42844 23H18.5706C18.9493 22.9996 19.3124 22.8541 19.5802 22.5953C19.848 22.3366 19.9986 21.9859 19.9991 21.62V6.9092C19.9991 6.90606 20 6.90315 20 6.9ZM13.333 1.57054L18.3734 6.44H13.333V1.57054ZM18.5706 22.08H1.42844C1.3022 22.0799 1.18117 22.0314 1.09191 21.9451C1.00265 21.8589 0.952437 21.742 0.952292 21.62V1.38C0.952437 1.25804 1.00265 1.14112 1.09191 1.05488C1.18117 0.968648 1.3022 0.920139 1.42844 0.92H12.3807V6.9C12.3807 7.022 12.4309 7.139 12.5202 7.22526C12.6095 7.31153 12.7306 7.35999 12.8569 7.36H19.0468V21.62C19.0466 21.742 18.9964 21.8589 18.9072 21.9451C18.8179 22.0314 18.6969 22.0799 18.5706 22.08ZM14.2853 12.42C14.2853 12.542 14.2351 12.659 14.1458 12.7453C14.0566 12.8315 13.9354 12.88 13.8092 12.88H6.19083C6.06455 12.88 5.94344 12.8315 5.85414 12.7453C5.76485 12.659 5.71468 12.542 5.71468 12.42C5.71468 12.298 5.76485 12.181 5.85414 12.0947C5.94344 12.0085 6.06455 11.96 6.19083 11.96H13.8092C13.9354 11.96 14.0566 12.0085 14.1458 12.0947C14.2351 12.181 14.2853 12.298 14.2853 12.42ZM14.2853 16.1C14.2853 16.222 14.2351 16.339 14.1458 16.4253C14.0566 16.5115 13.9354 16.56 13.8092 16.56H6.19083C6.06455 16.56 5.94344 16.5115 5.85414 16.4253C5.76485 16.339 5.71468 16.222 5.71468 16.1C5.71468 15.978 5.76485 15.861 5.85414 15.7747C5.94344 15.6885 6.06455 15.64 6.19083 15.64H13.8092C13.9354 15.64 14.0566 15.6885 14.1458 15.7747C14.2351 15.861 14.2853 15.978 14.2853 16.1Z" fill="#6474A6"/>
</svg>
