<svg width="22" height="22" viewBox="0 0 22 22" fill="none" xmlns="http://www.w3.org/2000/svg">
<path fill-rule="evenodd" clip-rule="evenodd" d="M11 8C9.89541 8 9 9.11927 9 10.5C9 11.8807 9.89541 13 11 13C12.1046 13 13 11.8807 13 10.5C13 9.11927 12.1046 8 11 8ZM10.0909 10.5C10.0909 9.87236 10.4979 9.36364 11 9.36364C11.5021 9.36364 11.9091 9.87236 11.9091 10.5C11.9091 11.1276 11.5021 11.6364 11 11.6364C10.4979 11.6364 10.0909 11.1276 10.0909 10.5Z" fill="#6474A6"/>
<path fill-rule="evenodd" clip-rule="evenodd" d="M5.83177 8.50473C6.81497 7.35186 8.50428 6 11 6C13.4957 6 15.1851 7.35186 16.1682 8.50473L16.1932 8.53402C16.403 8.77984 16.6188 9.03261 16.767 9.33556C16.9328 9.67419 17 10.0378 17 10.5C17 10.9622 16.9328 11.3258 16.767 11.6644C16.6188 11.9674 16.403 12.2202 16.1932 12.466L16.1682 12.4953C15.1851 13.6481 13.4957 15 11 15C8.50428 15 6.81497 13.6481 5.83177 12.4953L5.80679 12.466C5.59697 12.2202 5.38121 11.9674 5.23295 11.6644C5.06716 11.3258 5 10.9622 5 10.5C5 10.0378 5.06716 9.67419 5.23295 9.33556C5.38121 9.03261 5.59697 8.77984 5.80678 8.53402L5.83177 8.50473ZM11 7.17391C8.96309 7.17391 7.56754 8.26727 6.71133 9.27123C6.46827 9.55625 6.34994 9.70057 6.2738 9.85615C6.20927 9.98794 6.16129 10.1603 6.16129 10.5C6.16129 10.8397 6.20927 11.0121 6.2738 11.1439C6.34994 11.2994 6.46827 11.4437 6.71133 11.7288C7.56754 12.7327 8.96309 13.8261 11 13.8261C13.0369 13.8261 14.4325 12.7327 15.2886 11.7288C15.5317 11.4437 15.65 11.2994 15.7262 11.1439C15.7907 11.0121 15.8387 10.8397 15.8387 10.5C15.8387 10.1603 15.7907 9.98794 15.7262 9.85615C15.65 9.70057 15.5317 9.55625 15.2886 9.27123C14.4325 8.26727 13.0369 7.17391 11 7.17391Z" fill="#6474A6"/>
<path d="M1 11C1 6.28595 1 3.92893 2.46447 2.46447C3.92893 1 6.28595 1 11 1C15.714 1 18.0711 1 19.5355 2.46447C21 3.92893 21 6.28595 21 11C21 15.714 21 18.0711 19.5355 19.5355C18.0711 21 15.714 21 11 21C6.28595 21 3.92893 21 2.46447 19.5355C1 18.0711 1 15.714 1 11Z" stroke="#6474A6"/>
</svg>
