<svg width="91" height="40" viewBox="0 0 91 40" fill="none" xmlns="http://www.w3.org/2000/svg">
<path d="M27.6967 16.7974C30.0156 16.7974 32.838 17.6592 34.2459 21.2879C35.7035 18.3856 38.2974 16.7974 41.7095 16.7974C47.1225 16.7974 49.8058 20.2908 49.8058 25.5506V38.5633H46.7117V26.8186C46.7117 22.3743 45.211 19.3828 41.206 19.3828C36.7503 19.3828 35.1569 23.345 35.1569 27.2742V38.5633H32.0628V26.1846C32.0628 22.0573 31.069 19.3828 26.9215 19.3828C23.9665 19.3828 20.7366 22.0243 20.7366 27.6804V38.5765H17.6392V22.0011C17.6392 20.8653 17.5929 18.7818 17.457 17.329H20.412C20.5047 18.4615 20.5942 20.0497 20.5942 20.9611H20.6869C21.3614 19.6943 22.3717 18.6363 23.6076 17.9022C24.8436 17.168 26.2579 16.7859 27.6967 16.7974Z" fill="white"/>
<path d="M65.9347 22.4096C65.0109 20.635 63.029 19.4043 60.6306 19.4043C58.3698 19.4043 56.0621 20.3597 56.0621 22.7214C56.0621 24.7116 57.6778 25.6338 61.2285 26.3701C66.3042 27.4183 68.7027 29.2858 68.7027 32.6128C68.7027 37.4856 64.5507 39.2171 60.5835 39.2171C57.3083 39.2171 54.0331 37.94 52.0479 35.0708L54.5404 33.2497C55.1766 34.256 56.0596 35.0875 57.1078 35.6673C58.1559 36.2472 59.3352 36.5565 60.5365 36.5668C63.2238 36.5668 65.6122 35.6114 65.6122 32.8318C65.6122 30.5994 63.3515 29.6905 59.2298 28.7319C56.6902 28.1415 53.0455 27.0468 53.0455 22.9934C53.0455 18.6812 56.828 16.7971 60.7515 16.7971C63.7479 16.7971 66.9324 18.2102 68.3163 20.625L65.9347 22.4096Z" fill="white"/>
<path d="M74.6739 26.8186H74.8095L84.6219 17.1564H89.0734L78.3548 26.9552L90.1615 38.5765H85.6207L74.8095 27.3217H74.6739V38.5765H71.585V3.98576H74.6739V26.8186Z" fill="white"/>
<path d="M10.4157 14.2282L20.6598 8.3001L19.4638 6.22775L10.4091 11.4684L1.35434 6.22775L0.161621 8.3001L10.4058 14.2282L10.4091 14.2349V14.2315L10.4124 14.2349L10.4157 14.2282Z" fill="white"/>
<path d="M14.9213 6.54804L17.1364 3.46852L15.1519 2.06406L12.9727 5.09526C13.7209 5.43341 14.3859 5.92916 14.9213 6.54804Z" fill="white"/>
<path d="M10.6857 4.47402C11.1309 4.47426 11.5751 4.51115 12.0124 4.5842V0.782913H9.12988V4.62633C9.6406 4.52591 10.1623 4.47484 10.6857 4.47402Z" fill="white"/>
<path d="M8.16904 5.05446L5.75459 2.06406L3.68506 3.52531L6.09951 6.54804C6.66447 5.91427 7.37093 5.40442 8.16904 5.05446Z" fill="white"/>
</svg>
