<svg width="65" height="28" viewBox="0 0 65 28" fill="none" xmlns="http://www.w3.org/2000/svg">
<path d="M20.2582 11.7992C21.9072 11.7992 23.9143 12.412 24.9155 14.9925C25.952 12.9286 27.7966 11.7992 30.223 11.7992C34.0723 11.7992 35.9804 14.2834 35.9804 18.0238V27.2774H33.7802V18.9254C33.7802 15.765 32.713 13.6377 29.8649 13.6377C26.6964 13.6377 25.5633 16.4553 25.5633 19.2495V27.2774H23.363V18.4746C23.363 15.5396 22.6563 13.6377 19.7069 13.6377C17.6056 13.6377 15.3088 15.5161 15.3088 19.5383V27.2868H13.1061V15.4997C13.1061 14.692 13.0731 13.2104 12.9766 12.1772H15.0779C15.1438 12.9826 15.2075 14.112 15.2075 14.76H15.2734C15.7531 13.8593 16.4715 13.1069 17.3504 12.5848C18.2293 12.0627 19.2351 11.791 20.2582 11.7992Z" fill="#1A1A1A"/>
<path d="M47.4514 15.7901C46.7945 14.5282 45.3851 13.653 43.6795 13.653C42.0719 13.653 40.4308 14.3324 40.4308 16.0119C40.4308 17.4272 41.5798 18.0829 44.1047 18.6066C47.7142 19.352 49.4197 20.68 49.4197 23.0459C49.4197 26.511 46.4672 27.7423 43.6461 27.7423C41.317 27.7423 38.9879 26.8341 37.5762 24.7938L39.3486 23.4988C39.8011 24.2144 40.429 24.8057 41.1744 25.218C41.9197 25.6303 42.7583 25.8503 43.6126 25.8576C45.5236 25.8576 47.2221 25.1782 47.2221 23.2015C47.2221 21.6141 45.6144 20.9677 42.6834 20.286C40.8775 19.8662 38.2856 19.0878 38.2856 16.2053C38.2856 13.1388 40.9754 11.799 43.7655 11.799C45.8963 11.799 48.1609 12.8039 49.145 14.5211L47.4514 15.7901Z" fill="#1A1A1A"/>
<path d="M53.6634 18.9255H53.7598L60.7376 12.0545H63.9032L56.281 19.0227L64.6769 27.2868H61.4479L53.7598 19.2833H53.6634V27.2868H51.4668V2.68866H53.6634V18.9255Z" fill="#1A1A1A"/>
<path d="M7.96944 9.97232L15.2543 5.75671L14.4037 4.28302L7.96472 8.00976L1.52572 4.28302L0.677551 5.75671L7.96237 9.97232L7.96472 9.97704V9.97468L7.96708 9.97704L7.96944 9.97232Z" fill="#1A1A1A"/>
<path d="M11.1738 4.51061L12.749 2.3207L11.3378 1.32196L9.78809 3.47751C10.3202 3.71797 10.7931 4.07052 11.1738 4.51061Z" fill="#1A1A1A"/>
<path d="M8.16108 3.03589C8.47767 3.03607 8.79354 3.0623 9.10454 3.11425V0.411072H7.05469V3.1442C7.41787 3.07279 7.78888 3.03647 8.16108 3.03589Z" fill="#1A1A1A"/>
<path d="M6.37228 3.4485L4.65531 1.32196L3.18362 2.36109L4.90059 4.51061C5.30235 4.05993 5.80472 3.69736 6.37228 3.4485Z" fill="#1A1A1A"/>
</svg>
