<svg width="19" height="22" viewBox="0 0 19 22" fill="none" xmlns="http://www.w3.org/2000/svg">
<path d="M16.8518 9.5V5.8C16.8518 4.11984 16.8518 3.27976 16.5248 2.63803C16.2372 2.07354 15.7783 1.6146 15.2138 1.32698C14.572 1 13.732 1 12.0518 1H5.65181C3.97165 1 3.13157 1 2.48984 1.32698C1.92535 1.6146 1.46641 2.07354 1.17879 2.63803C0.851807 3.27976 0.851807 4.11984 0.851807 5.8V16.2C0.851807 17.8802 0.851807 18.7202 1.17879 19.362C1.46641 19.9265 1.92535 20.3854 2.48984 20.673C3.13157 21 3.97165 21 5.65181 21H8.85181M10.8518 10H4.85181M6.85181 14H4.85181M12.8518 6H4.85181M14.8518 20V14M11.8518 17H17.8518" stroke="#29324F" stroke-width="1.5" stroke-linecap="round" stroke-linejoin="round"/>
</svg>
