<svg width="24" height="24" viewBox="0 0 24 24" fill="none" xmlns="http://www.w3.org/2000/svg">
<path d="M16.9971 14.4999V11.4944C16.9971 11.3149 16.9971 11.2252 16.9697 11.1459C16.9456 11.0759 16.9061 11.012 16.8543 10.9591C16.7956 10.8992 16.7154 10.8591 16.5548 10.7788L11.9971 8.49994M3.99707 9.49994V16.3066C3.99707 16.6785 3.99707 16.8644 4.05509 17.0272C4.10638 17.1712 4.18997 17.3014 4.29945 17.408C4.42329 17.5286 4.59234 17.6061 4.93042 17.7611L11.3304 20.6944C11.5757 20.8068 11.6983 20.863 11.826 20.8852C11.9392 20.9048 12.0549 20.9048 12.1681 20.8852C12.2959 20.863 12.4185 20.8068 12.6637 20.6944L19.0637 17.7611C19.4018 17.6061 19.5709 17.5286 19.6947 17.408C19.8042 17.3014 19.8878 17.1712 19.9391 17.0272C19.9971 16.8644 19.9971 16.6785 19.9971 16.3066V9.49994M1.99707 8.49994L11.6393 3.67883C11.7705 3.61324 11.8361 3.58044 11.9049 3.56753C11.9658 3.5561 12.0283 3.5561 12.0893 3.56753C12.1581 3.58044 12.2237 3.61324 12.3548 3.67883L21.9971 8.49994L12.3548 13.3211C12.2237 13.3866 12.1581 13.4194 12.0893 13.4324C12.0283 13.4438 11.9658 13.4438 11.9049 13.4324C11.8361 13.4194 11.7705 13.3866 11.6393 13.3211L1.99707 8.49994Z" stroke="#29324F" strokeWidth="1.5" strokeLinecap="round" strokeLinejoin="round"/>
</svg>
