<svg width="25" height="24" viewBox="0 0 25 24" fill="none" xmlns="http://www.w3.org/2000/svg">
<path d="M21.8516 21H5.45156C4.89151 21 4.61148 21 4.39757 20.891C4.20941 20.7951 4.05643 20.6422 3.96056 20.454C3.85156 20.2401 3.85156 19.9601 3.85156 19.4V3M21.8516 7L16.4172 12.4343C16.2192 12.6323 16.1202 12.7313 16.0061 12.7684C15.9056 12.8011 15.7975 12.8011 15.6971 12.7684C15.5829 12.7313 15.4839 12.6323 15.2859 12.4343L13.4172 10.5657C13.2192 10.3677 13.1202 10.2687 13.0061 10.2316C12.9056 10.1989 12.7975 10.1989 12.6971 10.2316C12.5829 10.2687 12.4839 10.3677 12.2859 10.5657L7.85156 15M21.8516 7H17.8516M21.8516 7V11" stroke="#29324F" stroke-width="1.5" stroke-linecap="round" stroke-linejoin="round"/>
</svg>
