<svg width="25" height="24" viewBox="0 0 25 24" fill="none" xmlns="http://www.w3.org/2000/svg">
<path d="M12.8555 20H6.05547C4.93536 20 4.37531 20 3.94749 19.782C3.57116 19.5903 3.2652 19.2843 3.07346 18.908C2.85547 18.4802 2.85547 17.9201 2.85547 16.8V7.2C2.85547 6.07989 2.85547 5.51984 3.07346 5.09202C3.2652 4.71569 3.57116 4.40973 3.94749 4.21799C4.37531 4 4.93536 4 6.05547 4H6.45547C8.69568 4 9.81578 4 10.6714 4.43597C11.4241 4.81947 12.036 5.43139 12.4195 6.18404C12.8555 7.03968 12.8555 8.15979 12.8555 10.4M12.8555 20V10.4M12.8555 20H19.6555C20.7756 20 21.3356 20 21.7635 19.782C22.1398 19.5903 22.4457 19.2843 22.6375 18.908C22.8555 18.4802 22.8555 17.9201 22.8555 16.8V7.2C22.8555 6.07989 22.8555 5.51984 22.6375 5.09202C22.4457 4.71569 22.1398 4.40973 21.7635 4.21799C21.3356 4 20.7756 4 19.6555 4H19.2555C17.0153 4 15.8952 4 15.0395 4.43597C14.2869 4.81947 13.6749 5.43139 13.2914 6.18404C12.8555 7.03968 12.8555 8.15979 12.8555 10.4" stroke="#29324F" stroke-width="1.5" stroke-linecap="round" stroke-linejoin="round"/>
</svg>
